/* XPM */
static char *result[] = {
/* columns rows colors chars-per-pixel */
"48 48 13 1 ",
"  c #390810",
". c #211010",
"X c #423118",
"o c #6B4218",
"O c #941818",
"+ c #B52129",
"@ c #845A18",
"# c #9C7B39",
"$ c #A5734A",
"% c #AD8C39",
"& c #AD8C5A",
"* c gray71",
"= c None",
/* pixels */
"================================================",
"================================================",
"================================================",
"================================================",
"================================================",
"================================================",
"================================================",
"================================================",
"================================================",
"================================================",
"================================================",
"==================...=========....==============",
"=================.....=======......=============",
"=================......XXXXXX......=============",
"=================......X@#@X.......=============",
"===================X@...###...@XX===============",
"==================Xo##...#...#@@XX==============",
"==================X#%oXX.#.XXo#@oX==============",
"=================Xo%o***o#o***o@@XX=============",
"=================X#o****o#o****o@@X=============",
"================XX@#..**o#o**..#@@XX============",
"===============XX#o*....o#o....*o@@X============",
"===============Xo%o***..###..***o#@XX===========",
"==============XX%##o***%###%***o##@XX===========",
"==============Xo%##X###########X###@XX==========",
"============   X # *X##XXXXX##X*X##@XX==========",
"===========  O++O  **XXXXXXX X**X##@XX==========",
"=========== $&$+++ ***XXOOOX ***X##@XX==========",
"===========X&&&$++O *XX++++O    @##@XX==========",
"===========Xo&&&+++ @#ooooo  +++  @X.===========",
"============Xo&&&++ o@$$$$$ +++++ ..============",
"============XX$&&++ &&&&&&&X&&&&+ .=============",
"=============XX$&O $&&&&&&&o&&&&+ ==============",
"==============XXXX$$$$$$$$$o&&&&+ ==============",
"==================X@$$$$$$$o$$$$O ==============",
"===================XX@$$$$$oo$$oX===============",
"=====================XXXXXXXXXXX================",
"================================================",
"================================================",
"================================================",
"================================================",
"================================================",
"================================================",
"================================================",
"================================================",
"================================================",
"================================================",
"================================================"
};
