/* XPM */
static char *result[] = {
/* columns rows colors chars-per-pixel */
"48 48 79 1 ",
"  c #08C608",
". c #00C600",
"X c #00BD00",
"o c #00B500",
"O c #08C600",
"+ c #08BD08",
"@ c #08BD00",
"# c #00CE00",
"$ c #10CE08",
"% c #10C608",
"& c #21CE18",
"* c #18C610",
"= c #18CE10",
"- c #29D621",
"; c #31D621",
": c #39D629",
"> c #29CE18",
", c #10D608",
"< c #08CE00",
"1 c #08B500",
"2 c #20BE20",
"3 c #7CDD7C",
"4 c #BDEBBB",
"5 c #E7F8E7",
"6 c white",
"7 c #BBEDBB",
"8 c #2DCD26",
"9 c #21CE10",
"0 c #10BD08",
"q c #10B508",
"w c #2AC423",
"e c #A3E4A3",
"r c #A3EAA3",
"t c #1CCC1C",
"y c #21BD10",
"u c #6BD466",
"i c #F3FBF3",
"p c #F3FCF3",
"a c #5CDA5C",
"s c #7DDF78",
"d c #70DF70",
"f c #6BDA66",
"g c #61CF5C",
"h c #2ACC23",
"j c #1CBD1C",
"k c #A8EAA5",
"l c #A3E7A3",
"z c #20C520",
"x c #80DD80",
"c c #7CD87C",
"v c #BFEFBD",
"b c #E7F9E7",
"n c #39DE29",
"m c #ECFBEA",
"M c #BDEDBB",
"N c #C7F2C5",
"B c #83DE80",
"V c #87E683",
"C c #34CD2D",
"Z c #B4EDB1",
"A c #B9EFB6",
"S c #2AC624",
"D c #F7FDF7",
"F c #F8FDF7",
"G c #38D431",
"H c #64DC64",
"J c #72E16D",
"K c #74D970",
"L c #74DF74",
"P c #64D264",
"I c #F7FCF7",
"U c #64D664",
"Y c #24BF24",
"T c #AFEAAF",
"R c #24C624",
"E c #80DE80",
"W c #BFF0BF",
"Q c #18BD10",
"! c #08AD08",
/* pixels */
" .XXXXoXXO.+@XX@XXXX...#.XX...XX .XXXXoXXO.+@XX@",
"XX.XXXXX.$%.XXXXoooXX.#.X...XXoXXX.XXXXX.$%.XXXX",
"o..XXOX&**.XXX@XXoXXo.#X.OX.XXXXo..XXOX&**.XXX@X",
"X.X.$$&&&.= ..XXXXXXX... ..X%X .X.X.$$&&&.= ..XX",
". .=&&-&O&-#..XXXXXX... O.XX  $.. .=&&-&O&-#..XX",
" =&;=:; $;$....XooXX..  ..X O$ . =&;=:; $;$....X",
"==;&&;=.-&.....XXXX... .... $ .$==;&&;=.-&.....X",
"==-=>>X*-...XXXooXX.X.O.#.$$,#<===-=>>X*-...XXXo",
"$&==>.@&%XXXoooooo.XX..#.<$< <,,$&==>.@&%XXXoooo",
"O=#=$XXXXXXXoooooXXo..X.X#O##<=.O=#=$XXXXXXXoooo",
" #..XXoXX@XoooXXoooo.XXXX.X.#$$X #..XXoXX@XoooXX",
".X.X.XXXX@Xooo@ooooX.oXoXX.X.$...X.X.XXXX@Xooo@o",
"XXX@*X+@@@ooo@@oo1o2345665738$..XXX@*X+@@@ooo@@o",
"X.@9%@*X@XooX01oqwe6666666666rt.X.@9%@*X@XooX01o",
"X.y9Xy+X@oooq@Xqui666666666666paX.y9Xy+X@oooq@Xq",
".@*@q*X@@oXqqX@s6666666666666666d@*@q*X@@oXqqX@*",
"X1X10@X@1oXq@Xf666666666666666666gX10@X@1oXq@X*.",
"XXo1XX.@@.X@Xhi666666666666666666ij1XX.@@.X@X%+X",
"XXXXXX@y&X@@%k66666666666666666666lXXX@y&X@@%%++",
".XXXXX%-Oo+%86666666666666666666666zXX%-Oo+%%+%*",
"$.XoXO-$X%%%x6666666666666666666666cXO-$X%%%+O*=",
",#XXX9=X%*++v66666666666666666666667X9=X%*++%$9%",
"<X O++X *@@%b6666666666666666666666b++X *@@% &%X",
".=n**XX*@@+@666666666666666666666666*XX*@@+@%@+*",
"&n$*XX*.X@XX666666666666666666666666XX*.X@XX.+*$",
"n.*: %%XXXX.56666666666666666666666m %%XXXX.+% %",
"# n&*%%+XX.+M6666666666666666666666N*%%+XX.+@+%*",
" ;&$% *XXX.XB6666666666666666666666V% *XXX.X@%% ",
"=& *O*.XXXXX86666666666666666666666CO*.XXXXX%%%*",
"$=&%%*XXXX.O+Z66666666666666666666A%%*XXXX.O+%%%",
"$&=.O..XX.O.XSD666666666666666666FG.O..XX.O.X@%+",
"&=.X..XXX..X@@H666666666666666666J.X..XXX..X@@.%",
" .XXXXoXXO.+@XXK6666666666666666L.XXXXoXXO.+@XX@",
"XX.XXXXX.$%.XXXXPI666666666666IUXX.XXXXX.$%.XXXX",
"o..XXOX&**.XXX@XXYT6666666666TRXo..XXOX&**.XXX@X",
"X.X.$$&&&.= ..XXXXXzEWb66bWE8X .X.X.$$&&&.= ..XX",
". .=&&-&O&-#..XXXXXX... O.XX  $.. .=&&-&O&-#..XX",
" =&;=:; $;$....XooXX..  ..X O$ . =&;=:; $;$....X",
"==;&&;=.-&.....XXXX... .... $ .$==;&&;=.-&.....X",
"==-=>>X*-...XXXooXX.X.O.#.$$,#<===-=>>X*-...XXXo",
"$&==>.@&%XXXoooooo.XX..#.<$< <,,$&==>.@&%XXXoooo",
"O=#=$XXXXXXXoooooXXo..X.X#O##<=.O=#=$XXXXXXXoooo",
" #..XXoXX@XoooXXoooo.XXXX.X.#$$X #..XXoXX@XoooXX",
".X.X.XXXX@Xooo@ooooX.oXoXX.X.$...X.X.XXXX@Xooo@o",
"XXX@*X+@@@ooo@@oo1ooX1ooXoXX%$..XXX@*X+@@@ooo@@o",
"X.@9%@*X@XooX01oq0oX11o1X11.*...X.@9%@*X@XooX01o",
"X.y9Xy+X@oooq@XqQoo11ooXX1X *X$.X.y9Xy+X@oooq@Xq",
".@*@q*X@@oXqqX@*Xo1ooo!Xo1.*.+>@.@*@q*X@@oXqqX@*"
};
