/* XPM */
static char *result[] = {
/* columns rows colors chars-per-pixel */
"48 48 81 1 ",
"  c #08C608",
". c #00C600",
"X c #00BD00",
"o c #00B500",
"O c #08C600",
"+ c #08BD08",
"@ c #08BD00",
"# c #00CE00",
"$ c #10CE08",
"% c #10C608",
"& c #21CE18",
"* c #18C610",
"= c #18CE10",
"- c #29D621",
"; c #31D621",
": c #39D629",
"> c #29CE18",
", c #10D608",
"< c #08CE00",
"1 c #08B500",
"2 c #20BD05",
"3 c #7CD913",
"4 c #BDE51E",
"5 c #E7F025",
"6 c #FFF729",
"7 c #BBE71E",
"8 c #2DCC0C",
"9 c #21CE10",
"0 c #10BD08",
"q c #10B508",
"w c #2AC30B",
"e c #A3DF1A",
"r c #A3E51A",
"t c #1CCB04",
"y c #21BD10",
"u c #6BD119",
"i c #F3F327",
"p c #F3F527",
"a c #5CD70E",
"s c #7DDB1A",
"d c #70DB12",
"f c #6BD719",
"g c #61CC0E",
"h c #2ACB0B",
"j c #F3F427",
"k c #1CBC04",
"l c #A8E51D",
"z c #A3E21A",
"x c #20C405",
"c c #80D918",
"v c #7CD513",
"b c #BFE920",
"n c #E7F225",
"m c #39DE29",
"M c #E7F125",
"N c #ECF329",
"B c #BDE71E",
"V c #C7EC24",
"C c #83DA14",
"Z c #87E218",
"A c #34CC13",
"S c #B4E71E",
"D c #B9EA23",
"F c #2AC505",
"G c #F7F527",
"H c #F8F528",
"J c #38D313",
"K c #64D910",
"L c #72DE19",
"P c #74D612",
"I c #74DB16",
"U c #64CE10",
"Y c #F7F427",
"T c #64D310",
"R c #24BE05",
"E c #AFE41C",
"W c #24C505",
"Q c #80DA14",
"! c #BFEA1E",
"~ c #18BD10",
"^ c #08AD08",
/* pixels */
" .XXXXoXXO.+@XX@XXXX...#.XX...XX .XXXXoXXO.+@XX@",
"XX.XXXXX.$%.XXXXoooXX.#.X...XXoXXX.XXXXX.$%.XXXX",
"o..XXOX&**.XXX@XXoXXo.#X.OX.XXXXo..XXOX&**.XXX@X",
"X.X.$$&&&.= ..XXXXXXX... ..X%X .X.X.$$&&&.= ..XX",
". .=&&-&O&-#..XXXXXX... O.XX  $.. .=&&-&O&-#..XX",
" =&;=:; $;$....XooXX..  ..X O$ . =&;=:; $;$....X",
"==;&&;=.-&.....XXXX... .... $ .$==;&&;=.-&.....X",
"==-=>>X*-...XXXooXX.X.O.#.$$,#<===-=>>X*-...XXXo",
"$&==>.@&%XXXoooooo.XX..#.<$< <,,$&==>.@&%XXXoooo",
"O=#=$XXXXXXXoooooXXo..X.X#O##<=.O=#=$XXXXXXXoooo",
" #..XXoXX@XoooXXoooo.XXXX.X.#$$X #..XXoXX@XoooXX",
".X.X.XXXX@Xooo@ooooX.oXoXX.X.$...X.X.XXXX@Xooo@o",
"XXX@*X+@@@ooo@@oo1o2345665738$..XXX@*X+@@@ooo@@o",
"X.@9%@*X@XooX01oqwe6666666666rt.X.@9%@*X@XooX01o",
"X.y9Xy+X@oooq@Xqui666666666666paX.y9Xy+X@oooq@Xq",
".@*@q*X@@oXqqX@s6666666666666666d@*@q*X@@oXqqX@*",
"X1X10@X@1oXq@Xf666666666666666666gX10@X@1oXq@X*.",
"XXo1XX.@@.X@Xhj666666666666666666jk1XX.@@.X@X%+X",
"XXXXXX@y&X@@%l66666666666666666666zXXX@y&X@@%%++",
".XXXXX%-Oo+%86666666666666666666666xXX%-Oo+%%+%*",
"$.XoXO-$X%%%c6666666666666666666666vXO-$X%%%+O*=",
",#XXX9=X%*++b66666666666666666666667X9=X%*++%$9%",
"<X O++X *@@%n6666666666666666666666n++X *@@% &%X",
".=m**XX*@@+@666666666666666666666666*XX*@@+@%@+*",
"&m$*XX*.X@XX666666666666666666666666XX*.X@XX.+*$",
"m.*: %%XXXX.M6666666666666666666666N %%XXXX.+% %",
"# m&*%%+XX.+B6666666666666666666666V*%%+XX.+@+%*",
" ;&$% *XXX.XC6666666666666666666666Z% *XXX.X@%% ",
"=& *O*.XXXXX86666666666666666666666AO*.XXXXX%%%*",
"$=&%%*XXXX.O+S66666666666666666666D%%*XXXX.O+%%%",
"$&=.O..XX.O.XFG666666666666666666HJ.O..XX.O.X@%+",
"&=.X..XXX..X@@K666666666666666666L.X..XXX..X@@.%",
" .XXXXoXXO.+@XXP6666666666666666I.XXXXoXXO.+@XX@",
"XX.XXXXX.$%.XXXXUY666666666666YTXX.XXXXX.$%.XXXX",
"o..XXOX&**.XXX@XXRE6666666666EWXo..XXOX&**.XXX@X",
"X.X.$$&&&.= ..XXXXXxQ!n66n!Q8X .X.X.$$&&&.= ..XX",
". .=&&-&O&-#..XXXXXX... O.XX  $.. .=&&-&O&-#..XX",
" =&;=:; $;$....XooXX..  ..X O$ . =&;=:; $;$....X",
"==;&&;=.-&.....XXXX... .... $ .$==;&&;=.-&.....X",
"==-=>>X*-...XXXooXX.X.O.#.$$,#<===-=>>X*-...XXXo",
"$&==>.@&%XXXoooooo.XX..#.<$< <,,$&==>.@&%XXXoooo",
"O=#=$XXXXXXXoooooXXo..X.X#O##<=.O=#=$XXXXXXXoooo",
" #..XXoXX@XoooXXoooo.XXXX.X.#$$X #..XXoXX@XoooXX",
".X.X.XXXX@Xooo@ooooX.oXoXX.X.$...X.X.XXXX@Xooo@o",
"XXX@*X+@@@ooo@@oo1ooX1ooXoXX%$..XXX@*X+@@@ooo@@o",
"X.@9%@*X@XooX01oq0oX11o1X11.*...X.@9%@*X@XooX01o",
"X.y9Xy+X@oooq@Xq~oo11ooXX1X *X$.X.y9Xy+X@oooq@Xq",
".@*@q*X@@oXqqX@*Xo1ooo^Xo1.*.+>@.@*@q*X@@oXqqX@*"
};
