/* XPM */
static char *result[] = {
/* columns rows colors chars-per-pixel */
"48 48 129 2 ",
"   c #355E01",
".  c #3B5C00",
"X  c #1D7400",
"o  c #167E00",
"O  c #1B7B00",
"+  c #276600",
"@  c #2D6501",
"#  c #256C00",
"$  c #2C6B02",
"%  c #346302",
"&  c #3A6406",
"*  c #326A04",
"=  c #3F6609",
"-  c #366B08",
";  c #3E6F0D",
":  c #237301",
">  c #2A7304",
",  c #227B03",
"<  c #287907",
"1  c #337209",
"2  c #3B7610",
"3  c #405B03",
"4  c #456309",
"5  c #6D5429",
"6  c #705729",
"7  c #745B29",
"8  c #785E29",
"9  c #7C6329",
"0  c #806729",
"q  c #846B29",
"w  c #886F29",
"e  c #8B7229",
"r  c #977F29",
"t  c #0E8D00",
"y  c #148500",
"u  c #1A8402",
"i  c #138C00",
"p  c #1A8C03",
"a  c #0C9400",
"s  c #069D00",
"d  c #0A9B00",
"f  c #119300",
"g  c #1B9404",
"h  c #119C02",
"j  c #199D05",
"k  c #1E960A",
"l  c #1D9D0B",
"z  c #218304",
"x  c #218803",
"c  c #248709",
"v  c #238C09",
"b  c #298B09",
"n  c #209509",
"m  c #239B0B",
"M  c #259F11",
"N  c #2B9C16",
"B  c #05A300",
"V  c #0BA401",
"C  c #03AC00",
"Z  c #0BAC02",
"A  c #08AD08",
"S  c #13A303",
"D  c #13AB06",
"F  c #1CA50C",
"G  c #1AAC0C",
"H  c #01B400",
"J  c #09B402",
"K  c #01BB00",
"L  c #09BC02",
"P  c #08BD08",
"I  c #11B506",
"U  c #11BB06",
"Y  c #11B509",
"T  c #19B30D",
"R  c #16BC0D",
"E  c #18BB0E",
"W  c #23A20C",
"Q  c #20B40E",
"!  c #20BA0E",
"~  c #23A712",
"^  c #22AC12",
"/  c #2CAB18",
"(  c #30AA18",
")  c #21B314",
"_  c #28B514",
"`  c #21BB13",
"'  c #28B814",
"]  c #29B41A",
"[  c #2FBB1B",
"{  c #36B621",
"}  c #00C500",
"|  c #0DC404",
" . c #00CD00",
".. c #0ECB05",
"X. c #08C608",
"o. c #10C206",
"O. c #14C40C",
"+. c #18C30E",
"@. c #13CD0A",
"#. c #10D608",
"$. c #18C610",
"%. c #18CE10",
"&. c #20C70E",
"*. c #20CA0E",
"=. c #20C416",
"-. c #28C616",
";. c #20CB15",
":. c #28C916",
">. c #28C51D",
",. c #21CE18",
"<. c #2ACC1B",
"1. c #30CD1F",
"2. c #27D41F",
"3. c #2FD41F",
"4. c #30D31F",
"5. c #37CC27",
"6. c #29D621",
"7. c #32D622",
"8. c #37DA27",
"9. c #39D629",
"0. c #39DE29",
"q. c #AF9F18",
"w. c #B09F18",
"e. c #B6A618",
"r. c #9B8329",
"t. c #C3B418",
"y. c #F2BC10",
"u. c #F4C310",
"i. c #FFF929",
/* pixels */
"X.} K K K K H K } ..} P L K K } K K K K } } }  .} } K } } } } K X.} K K K } H } K X.} P L K K } ",
"K K } } K } K K } ..| } K } K K H H H K K } } } H } K } K K H K K K } K K K K K } @.@.} } K K K ",
"H } } K K | } ,.+.O.} K K K L K K H K H H K } K K } H } K K K H H } } K K | K ,.$.$.} K K K } K ",
"} } K } ....,.,.2.} %.X.} } K H H H K H H K K K P K K H P H P } K } K } ..#.%.,.,.} @.X.} } K K ",
"} ..} %.2.,.6.,.| ,.6. .} } K H H H H H K H K J J H C H L P o.} K X.} $.,.,.2.2.| 2.6. .} } K K ",
"X.%.,.7.@.9.7.X.@.7...} K } K H C C C C J H A J H H C Y J U L L | O.$.7.@.9.4.X...3.#.} } } } } ",
"%.%.7.,.,.4.%.} 6.%.} } } K K H H C C H C C Z C C Z C J J J H U +.+.5.;.;.7.$.} 6.2.} } } } } K ",
"%.%.2.%.:.2.K +.6.} K K H H H B B B B C B V S V Z V D G U J J E R R <.+.-.:.K $.2.} } } K } K H ",
"..,.%.%.<.} L %.o.K H H C B B s s s s s d d d d d h F S V Z I U I ` +.R -.K J %.| K K K H K H H ",
"..%. .@...K K H H H H H B B B s a d d t h a i f i d f d V S W V S T L R o.H H K H K K K H H H H ",
"X. .} } K H H H H J C B s s V s t t t y i y y y y i y i f j S h S C Z C C C C H H L K C H H K K ",
"} K } K } H H H H Z C B s d a t t y y y y O o X X O o o i p f f d d V V C C C H H J H H C H L H ",
"} K K L R H J J Z Z s s s f i y o o O X X # 5 5 5 5 X X , x u i i a a h G B Z Z H J C H H L L H ",
"K } L &.| J E C Z C s s d p y y O : X X # 6 6 8 7 8 6 # > , o u y i f W F V G C V J C C K I H H ",
"K } E &.H ) Z C V s s t u p y : < # + + @ 8 8 i.i.8 8 $ * : < O o y c m d m V C Z B C C A L K Y ",
"} L +.J Z E C Z V d d p u y O < X + @ @ 8 9 y.i.i.y.9 9 @ @ 1 > , O c i p l s V Z B H Z Z K L $.",
"K H K Z I Z C V d a a u u o < : + %     9 9 i.i.i.i.0 9 % = - # X # o o p a d V d B H D J K +.} ",
"K K H C H C H V V s t y y , # + @ . . 9 q e.i.i.i.i.e.0 0 4 % @ + # X O y t s d V Z C C J o.L K ",
"K K H H C C V m ~ f p y , 5 7 7 9 9 0 q q i.i.i.i.i.i.e w 0 0 9 7 7 5 O y t i k ^ B Z Z R P J P ",
"} K H H C C D ] d i u u 5 7 7 8 9 0 q e u.i.i.i.i.i.i.u.w w 0 9 9 7 5 5 o y k / V s A I P J | $.",
"..} K C C J ] D a p p , 5 7 i.i.i.i.i.i.i.i.i.i.i.i.i.i.i.i.i.i.i.i.6 5 O y N F d D D Y A } $.%.",
"#.} H H C ) G s k k u X 6 7 y.i.i.i.i.i.i.r.r.i.i.r.r i.i.i.i.i.i.y.7 5 O b k a j F V Z I @.%.O.",
"..K P L A A V d k p O < # 8 9 i.i.i.i.i.i.r.r.i.i.r.r i.i.i.i.i.i.9 7 5 X O i f l d V I L %.o.K ",
"} %.7.R T B s F i y O , > 7 9 0 i.i.i.i.i.r.r.i.i.r.r.i.i.i.i.i.9 9 8 1 < O y k a V V J Y J J $.",
"%.0.@.R C C F s t y o : # @ 9 0 w i.i.i.i.r.r.i.i.r.r.i.i.i.i.w 0 9 * > X o v f a d B C K J +.@.",
"0.} E 5.J D D d a y o O # % % 0 w e i.i.i.r.r.i.i.r.r.i.i.i.e w 9   % 2 , z p a d s C H J | X.@.",
" .X.7.=.E A D f t y y , # @ % 3 w e u.i.i.t.t.i.i.t.t.i.i.u.e w .   ; 1 < , p i d s C A H J | $.",
"X.7.;.o.Y A F d t y y X # * . 9 q w i.i.i.i.i.i.i.i.i.i.i.i.w q & = * > , u v f d B H C J | o.X.",
"%.,.X.$.J T V d a y y O > $ % 9 q e.i.i.i.i.i.i.i.i.i.i.i.i.e.q 0 & $ > O c i a d B B H P o.o.+.",
"@.%.=.U P T B d d i y O : $ % 9 9 u.i.i.i.i.i.i.i.i.i.i.i.i.u.9 9 * - < z c i a d s H J J P @.o.",
"..2.O.} L H C s a f i u X # 8 8 9 i.i.i.i.i.i.u.u.i.i.i.i.i.i.9 9 6 1 O u i f a s C J K K L ..P ",
",.@.} H H H B s a a i o , : 6 8 e.i.i.i.i.i.e e e e i.i.i.i.i.e.8 6 : O u i a d s C H C J L } o.",
"X.} K K H C B s s h a u O X 6 7 i.i.i.i.e.q w w w q q e.i.i.i.i.7 6 X O y i t d s Z L J J K K L ",
"K K } H H C C B V S g i y O 5 6 i.i.y.8 9 0 0 . . 0 0 9 9 y.i.i.6 5 o o i t d s C I J K K K K K ",
"H } } K H L C ) F F d t i o 5 5 6 7 7 8 8 % %     %   8 9 7 7 6 5 5 y y t d d ^ T T K H K K L K ",
"K } K } | | ` ` ) V F f t y o 5 5 6 6 # # @ $ $ * $ $ # $ 6 6 5 5 y y a F S ^ ) ` H +.P } } } K ",
"} X.} O.;.=.>.` J ^ / V a f y o o X X : , , : > # : # : : , z u y y f l ~ ^ ] ' J ` <.} } } K K ",
"X.%.2.4.O.5.5.J I [ I V s d a y o o o O O O , , O , , z u x u i p k M ( F { [ J U 1.| } } } } K ",
"%.%.7.,.,.1.+.H >.` C Z V s a t i i y i u y u u u u y p x p i g l F ( ^ ^ [ E H >.$.K } } } } K ",
"%.%.6.@.:.:.H E >.H C Z B d d a t t i f i i p i f i g g j h j l F F / T _ ' C T <.P K } K K K K ",
"..2.%.@.-.} J $.I C C C s s s a a t s a a a a h a h j S h S D D D ^ G T ' J Z $.P J H K H H H H ",
"| %. .%.@.K H H H H C C B s s s s s s a V s d s d Z h V Z S G V V T J E U C C H K H K H H H H H ",
"X. .} } K H C K H J H C B B B B s s s s B s s V s Z V B H I D V J J H H H H C H H J K H H H K } ",
"} } } K } K K H H J H C C C C B B B B C H B C s C B C C C I H H H C K C K H H H K L K H H H L H ",
"K K } L +.K P L L J C C C J J C C B C B H V B C C B H C J U K K H H H H R K L L L L H H H L L H ",
"K } L *.@.L +.K K K H C K J C C D J C H C C C C H C C K +.K } K H } J &.U L R K L K H H K | J H ",
"K } ! *.K E P K L H H H J L K J R H H H J C H H K H K X.+.K ..} K } ! *.K E L K L H H K J L K J ",
"} | O.| Y $.K L L H K Y Y K L $.K H J H H H A K H J } +.} P <.L } L $.L Y $.K L L H K Y Y K | $."
};
