/* XPM */
static char *result[] = {
/* columns rows colors chars-per-pixel */
"48 48 139 2 ",
"   c #3D7E00",
".  c #447E00",
"X  c #4E7F00",
"o  c #517E00",
"O  c #5A7E01",
"+  c #657E01",
"@  c #687F01",
"#  c #7E6429",
"$  c #856B29",
"%  c #896F29",
"&  c #8D7329",
"*  c #907629",
"=  c #947A29",
"-  c #987F29",
";  c #1D8E00",
":  c #0E9600",
">  c #079F00",
",  c #0C9C00",
"<  c #149500",
"1  c #1B9400",
"2  c #149C01",
"3  c #1C9B01",
"4  c #2E8600",
"5  c #238D00",
"6  c #2C8B01",
"7  c #348500",
"8  c #3B8400",
"9  c #338B01",
"0  c #3B8A02",
"q  c #3B8C08",
"w  c #249300",
"e  c #2A9301",
"r  c #239B02",
"t  c #2B9A04",
"y  c #249E0B",
"u  c #2C9A0A",
"i  c #339304",
"p  c #3A9104",
"a  c #329B04",
"s  c #339309",
"d  c #339B0B",
"f  c #3E9913",
"g  c #05A500",
"h  c #0BA400",
"j  c #04AC00",
"k  c #0BAB01",
"l  c #12A402",
"z  c #1BA303",
"x  c #12AB05",
"c  c #1CAC06",
"v  c #1FA50C",
"b  c #1CAC0D",
"n  c #02B300",
"m  c #0AB402",
"M  c #01BB00",
"N  c #08BA02",
"B  c #13B407",
"V  c #1AB206",
"C  c #11BA07",
"Z  c #1CB30E",
"A  c #19BB0E",
"S  c #24A205",
"D  c #24A40C",
"F  c #2AA20B",
"G  c #23AB0C",
"H  c #21B20E",
"J  c #20BB0F",
"K  c #2DA511",
"L  c #27AF13",
"P  c #2BAB12",
"I  c #33A112",
"U  c #3CA516",
"Y  c #33AA16",
"T  c #30AC18",
"R  c #3EAF1E",
"E  c #25B414",
"W  c #2BB013",
"Q  c #22BC15",
"!  c #2ABD15",
"~  c #2CBD1C",
"^  c #35B219",
"/  c #37BD23",
"(  c #438301",
")  c #4B8302",
"_  c #428B04",
"`  c #4C8803",
"'  c #548202",
"]  c #5B8202",
"[  c #578408",
"{  c #5F870D",
"}  c #648102",
"|  c #6A8202",
" . c #68870B",
".. c #748301",
"X. c #788707",
"o. c #00C300",
"O. c #08C304",
"+. c #00CA00",
"@. c #08C608",
"#. c #10C407",
"$. c #10CA07",
"%. c #17C50F",
"&. c #18C30F",
"*. c #17CC0F",
"=. c #18CA0F",
"-. c #21C10E",
";. c #20CB0F",
":. c #21C316",
">. c #28C216",
",. c #20CA17",
"<. c #28C917",
"1. c #2CC31D",
"2. c #28CE1F",
"3. c #31C21D",
"4. c #30CD1F",
"5. c #38C425",
"6. c #37CB24",
"7. c #38CE27",
"8. c #28D220",
"9. c #31D321",
"0. c #38D228",
"q. c #9C8329",
"w. c #A08729",
"e. c #A38B29",
"r. c #A79029",
"t. c #AC9429",
"y. c #B39C29",
"u. c #C3B318",
"i. c #CCBD18",
"p. c #C3AF29",
"a. c #C6B129",
"s. c #C9B529",
"d. c #CFC018",
"f. c #DED218",
"g. c #F4C710",
"h. c #F5C910",
"j. c #F7D410",
"k. c #F8D810",
"l. c #FFFA29",
/* pixels */
"@.o.M o.M M n M M O.o.N N M M N n n M n M M o.o.M n n M M o.n M @.o.n M M n n M M O.o.N M M o.N ",
"o.M +.M M M M M o.$.#.o.M n n M j j j n n N o.M n N M M n n j n n M o.M M M M M o.$.#.+.M o.M M ",
"n +.o.M M +.M ,.&.&.o.n n n m n n j n j g n M j n m g N j n n n j M M M n O.M ,.%.%.o.M M M O.M ",
"M o.M o.$.$.,.,.,.o.=.O.o.M n n j n j j j n m n m n n k B j m M n M n M $.$.,.,.,.o.*.@.o.o.M M ",
"+.@.o.*.,.,.8.,.O.<.2.+.M M n j j j j g m j j x x j h k B B C n N C M &.:.,.8.,.O.,.8.+.o.o.M M ",
"@.*.,.9.*.0.9.@.$.8.O.M M M m j g g h h k k x l k h h x k B m m m A :.4.%.7.9.N $.9.$.o.o.o.+.M ",
"*.*.9.,.,.9.=.o.8.:.M M N n m j h h h h h l z l l l h l V l k V A A 3.:.>.4.=.o.2.:.o.o.o.o.o.M ",
"*.=.8.=.<.<.M A 2.M N N j g h , , , 2 l 2 2 3 2 l 2 S c c x x G H Z ~ A ! >.n A 2.o.o.o.M M M n ",
"$.,.=.=.<.M N :.C n j j h > , , < < 2 < 1 3 w 3 w r t z 3 z c V c E H Z ! n k :.C n M n j n j n ",
"O.=.+.=.$.n n n n k g k , , 2 < 1 1 1 5 w w 5 w 5 w e r r S F 3 z G m H C k j n n n n n j n n n ",
"O.+.o.M n n j j j k k , , < 2 1 ; 5 5 5 6 6 7 9 9 6 6 e e t t 3 r l l k h k h n n m n j n j M M ",
"o.M o.n M n j k k l h , < < w ; 5 4 4 9 9 8 8 8 8 8 0 7 9 p e w w 3 l 2 l k h g j k n j j n m n ",
"n M M m A j m k l l , < 1 w e 6 4 7 7   8 . $ $ % $ ( 8 _ p 9 e 6 w 3 3 F h l l x k g j j m m n ",
"M M m -.C k Z h l h < < 1 e 4 4 8 ( . . X & * * * & & ) ` ( 0 0 6 e 6 d y 2 D h k k g g n B j n ",
"n M H -.j L h h l 2 < ; 6 6 9 8 ) . X o O = = l.l.= = ] ] ) ` ( 8 9 q d 1 u 3 h l h g g x j n B ",
"o.m A k l Z h l 3 < 1 6 7 9 8 ` ) X O O - q.h.l.l.h.q.- ] ] ] ) ( 8 q 6 6 u 2 2 l , g l b n m A ",
"n k n h x l h 2 < ; ; 6 9 7 ) ) o O + @ q.e.l.l.l.l.e.e.} |  .X ( . 7 7 6 w < 3 < , g z j j A M ",
"M n g h g h h 2 3 3 5 6 7 ( ) o O @ ..e.r.i.l.l.l.l.d.e.e.X.} ] o .     6 5 3 1 3 h g h j B B n ",
"n n j j k h 2 u d 1 6 7 0 $ & = q.e.e.t.y.l.l.l.l.l.l.y.t.r.w.q.= & $   4 5 5 u K , l h B B m m ",
"M j n g g , z Y w 5 7 0 $ % * - q.e.t.y.k.l.l.l.l.l.l.j.y.t.e.w.q.& % $ 7 4 e f 3 : 2 b B x B A ",
"O.M g g h l T y 1 s 9 0 $ & l.l.l.l.l.l.l.l.l.l.l.l.l.l.l.l.l.l.l.l.& $ 7 q f t < z v x h m A %.",
"$.O.j g > L D < u q q   % * g.l.l.l.l.l.l.a.a.l.l.a.p.l.l.l.l.l.l.g.* $ 8 _ s ; y y 2 l B C Q C ",
"O.n m k l 2 < y s 6 7 ( ) * q.l.l.l.l.l.l.a.s.l.l.s.a.l.l.l.l.l.l.- * % . 7 6 w u 1 2 x x Q B n ",
"N A 6.Z v , < u 5 4 8 . ' = q.e.l.l.l.l.l.s.s.l.l.s.s.l.l.l.l.l.e.q.= [ ) 7 4 s 5 < < l x k m A ",
":.6.C b g , y 1 5 4 7 ( ) O q.e.t.l.l.l.l.s.s.l.l.s.s.l.l.l.l.t.e.q.} [   7 q 1 1 1 , > j x Z @.",
"0.M Z / x z 3 < ; 4 7 ( o O | e.y.y.l.l.l.s.s.l.l.s.s.l.l.l.y.t.r.@ + { ( 0 q 5 ; < , g x B N C ",
"o.N 7.Q b 2 3 w 5 6 7 . X O @ ..t.y.k.l.l.f.f.l.l.f.f.l.l.k.y.y...@  .[ ) 0 q 5 1 < h l g x C A ",
"N 3.Q B x v y 1 w 6 7 ( X ] | w.t.y.l.l.l.l.l.l.l.l.l.l.l.l.y.t.@  .} ` ( q q ; 1 : h g g B C N ",
"&.:.m b x v , < ; 6 7 8 ' ' } w.r.d.l.l.l.l.l.l.l.l.l.l.l.l.d.r.w.| ' [ ( q 5 5 1 : > h x B C A ",
"#.%.Q B x v < < ; 6 6 0 . ' + q.e.j.l.l.l.l.l.l.l.l.l.l.l.l.j.e.q.} [ ) _ q 6 5 1 : h x k C C C ",
"#.:.&.n k h l < 1 w i 7 ( X = - q.l.l.l.l.l.l.k.k.l.l.l.l.l.l.q.- = ' ( 0 6 w 1 < , x j j k C m ",
":.&.n j m k , < 1 w 6 7 8 X & - u.l.l.l.l.l.y.y.y.y.l.l.l.l.l.u.= * ( 8 9 e w 1 < x g g k m M C ",
"N M n j g h , 2 < w e 9 8   % * l.l.l.l.i.r.t.t.t.t.t.i.l.l.l.l.& % . 7 4 5 ; 1 2 l k k k n n n ",
"n n M n j h h 2 3 r e e 7 7 $ % l.l.g.w.w.e.e.....r.e.w.q.h.l.l.% $ 7 7 6 w 1 < h c V n j n n n ",
"j M M n j k g P D y w 5 6 7 # $ $ & = = - } } | } | } q.= * & % $ # 9 6 5 w 1 K G b k g n n m n ",
"n @.n n C B E L P 2 F w 5 6 7 # $ $ & ' O ' ] ] ] ' ' O ' & % $ # 9 4 w t S K P L j A m M M n M ",
"o.N M %.Q Q ~ E l P Y 3 3 w 4 7 7 8 . ( ) ) ) ' ' ` ) ) ) ( _ 0 9 6 w d I K ^ L x E 1.M M M n M ",
"@.=.:.4.A 5./ m V ^ c 3 1 w w 6 4 7 8 8 0 _ ( ( ( ( ( _ _ p 0 6 6 s d U D R ^ x V 3.C M M o.M M ",
"=.=.4.:.:.3.A m ~ L l l 2 3 3 5 6 6 9 9 9 9 q 0 7 0 9 0 p 9 e i d d U I K ^ H k >.Q N M M o.o.M ",
"=.=.2.%.1.>.j Z ~ k k l 2 < 1 ; 5 5 5 e 6 e e 6 t 6 i i a t t u u F T G Y W h Z 1.n M M n n M j ",
"$.,.=.%.>.N m Q V k h h , < < ; ; ; ; ; w w w w w e t r t r S S S K G G W k l Q C j n n j j n n ",
"O.=.+.=.#.n n j n g k h , , : < < < 1 ; 3 1 1 1 1 3 w z 3 z D 2 z G k H V k j k j n n n n n n n ",
"O.+.M o.n n j n j x j h > , , , : : < < 2 2 < < < 2 < 2 l c c 2 l m k j k j g j n m n n j n n M ",
"o.M o.M o.M n n n k j g g h h , > : : , h : , : , , h , h c h k k h k k n j n j n m N j n n N n ",
"M M M n A n N m m j j g g k k g > , > > > , : , h , h g x B k k g g j k Z n m m m n n j n N N n ",
"M o.N ,.@.m &.n m n j j j x h g l x g g , > > > g , , j b n n n g M m -.C n A n m M j n M m m n ",
"M o.J ;.M J m M N j j j x m j h b g g h h g g j j h j m Z j N N j M H -.n Q N n N n j n B N M m ",
"o.N &.N B &.M N n n n x m n m A j j j j g j g j g k n A N m >.m M m A m x A M N n n M m B M N %."
};
