/* XPM */
static char *result[] = {
/* columns rows colors chars-per-pixel */
"57 54 20 1 ",
"  c #181010",
". c #301818",
"X c #202028",
"o c #600000",
"O c #482010",
"+ c #584020",
"@ c gray25",
"# c #686868",
"$ c #A81828",
"% c #885818",
"& c #A07018",
"* c #A06830",
"= c #B08018",
"- c #988048",
"; c #B88858",
": c #C8B058",
"> c #E0C868",
", c #2830C8",
"< c gray69",
"1 c None",
/* pixels */
"1111111111111111OOOOO111111111111111111111111111111111111",
"11111111111111OOoooooOO1111111111111111111111111111111111",
"111111111111OOoo$$$$oooO111111111111111111111111111111111",
"11111111111Ooo$$$$$$$$ooO11111111111111111111111111111111",
"1111111111Ooo$$$$$$$$$$oO11111111111111111111111111111111",
"111111111Ooo$$$$$$$$$$$ooO1111111111111111111111111111111",
"11111111Ooo$$$$$$$<<<<$$oO1111111111111111111111111111111",
"11111OOOoo$$$$$$$<<o<o<$oO1111111111111111111111111111111",
"111OOoooo$$$$$$$$<<ooo<$oO1111111111111111111111111111111",
"11OOo$$o$$$$$$$$$<<ooo<oO11111111111111111111111111111111",
"11Oo$$$$$$$$$$$$o         1111111111111111111111111111111",
"1Oo$$$$$$$$o                11111111111111111111111111111",
"1Oo$$$o                      1111111111111111111111111111",
"1 OO   OO*;;;;;;O ;;;OO 111111111111111111111111111111111",
" OO;;;;OO;;;;;;;  ;;;    11111111111111111111111111111111",
" O;;;;;OO*;;;;;;  ;;; OOO 1111111111111111111111111111111",
" O;;OO;OOOO;;;;;  ;;;*;;*O 111111111111111111111111111111",
" O;;;O;OOOO;;;;; O;;;;;;;*O 11111111111111111111111111111",
" OO;;;;;OO;;;;;;;;;;;;;;;;O 11111111111111111111111111111",
"1 OO;;;;;;;;;  ;;;;;;;;;;;O 11111111111111111111111111111",
"11  OO;;;;;;    ;;;;;;;;;*O 11111111111111111111111111111",
"1111 OO;;;;;     *;;;;;;*O 111111111111111111111111111111",
"1111   O;;;;;     OO***O  1111111111111111111111111111111",
"1111XXX OO;;;;           11111111111111111111111111111111",
"111XXX,,,,ooo;;;        111111111111111111111111111111111",
"11XXX,,,,,$$$oOOO     1111111111111111111+++++++111111111",
"1XXX,,,,,$$$$$$$oOO     111111111111111++++++++++++111111",
"1XX,,,,,,$$$$$$$$$o@@@@     1111111111+++::-::+:+++++1111",
"XXX,,,,,,$o$$$$$$o<<<##@@@@@  1111111++:>>>>>>>>:::++++11",
"XX,,,,,,,,$o    o<<<<<<#@<<#@@ 111111++->>>>>>>>>>>-:+++1",
"XX,,,,,,,,, OOOOO <<<<<<#@<<#@@ 1111..-->>>>>>>>>>>>>:++1",
"XX,,,,,,,, OOOOOOO <<<<##@<<<#@ 1111..-::>>>>>>>>>>>>>:++",
"XX,,,,,,,, OOOOOOOO<<<<##@<<... 111..&%::-:>>>>>>>>>>>:++",
"XX,,,,,,, OOOOO**OO <<<##@<<.........==%-:::-:>>>>->::-+.",
"1XX,,,,,, OOOO*OOOO <<<<#@##%%%.....&===%%---::::::-:-%..",
"1XX,,,,, O OO*OOOOO <<<#@<<====%%%..======%%%--:----%%&..",
"11XX,,,, O OO*OOOO <<##@<<<++++===..======%%==%%%%%%%%&..",
"111XX,, OOO *OOOOO @@@@@@@@...++++.&======%%========%%&..",
"1111XXX OOOO*OOOO  OOOO    ........&======%=========%=..1",
"11111XX  OO*OOOOO  OOO  11111......&======%===========..1",
"1111111   O*OOOO       1111111111..&&==%=======%=====...1",
"11111111   OOOO  11   11111111111.&&&=%%=======%====+....",
"111111111       1111111111111111..&&&&%%======%%===+%%=..",
"1111111111     11111111111111111..&&&&%=======%====+%==..",
"11111111111111111111111111111111..&&&%%&=====%%====.%=..1",
"11111111111111111111111111111111..-&&%%&&&===%%===&&....1",
"11111111111111111111111111111111..-&&%%&&&&&%%&&&%&&...11",
"111111111111111111111111111111111..-&%%&&&&&%%&&&%&..1111",
"111111111111111111111111111111111..--%%&&&&%%&&&%&&..1111",
"1111111111111111111111111111111111..---&&%%%%&&%%&..11111",
"11111111111111111111111111111111111...----%%&&%%-...11111",
"111111111111111111111111111111111111.....------.....11111",
"11111111111111111111111111111111111111............1111111",
"11111111111111111111111111111111111111111......1111111111"
};
