/* XPM */
static char *result[] = {
/* columns rows colors chars-per-pixel */
"61 72 21 1 ",
"  c #181010",
". c #301818",
"X c #202028",
"o c #600000",
"O c #482010",
"+ c #584020",
"@ c gray25",
"# c #686868",
"$ c #A81828",
"% c #885818",
"& c #A07018",
"* c #A06830",
"= c #B08018",
"- c #C09830",
"; c #988048",
": c #B88858",
"> c #C8B058",
", c #E0C868",
"< c #2830C8",
"1 c gray69",
"2 c None",
/* pixels */
"22222222222222++++2222222222222222222222222222222222222222222",
"222222222222...+++++22222222222222222222222222222222222222222",
"22222222222....>>+++++222222222222222222222222222222222222222",
"222222222....>>;,,,++++22222222222222222222222222222222222222",
"22222222....%;;,,,,,,+++2222222222222222222222222222222222222",
"2222..2...=%%>>,,,,,,,+++222222222222222222222222222222222222",
"222......===%>>,,,,,,,,+++22222222222222222222222222222222222",
"22...++.===%%;;;,,,,,,,,++22222222222222222222222222222222222",
"22..+%.&===%=%;>>,,,,,,,+++2222222222222222222222222222222222",
"22..+.&===%==%;>>>,,,,,,,++2222222222222222222222222222222222",
"222..&&=======%;,>;,,,,,,++2222222222222222222222222222222222",
"22...&&=========;;;>,,,,,+++222222222222222222222222222222222",
"22..&&&=====%===%%>>>;,,>>++222222222222222222222222222222222",
"2...&%&===%%=====%;,>;;>;>++222222222222222222222222222222222",
"...&%%&==%%%====%%%;;;;>>..2222222222222222222222222222222222",
"...&%&&=%%%====%%===%%%;...2222222222222222222222222222222222",
"..;%%&&%%%====%======%%...22222222222222222222222222222222222",
"...%&&&%%===========%==..222222222222222222222222222222222222",
"..;%&&%%&=============...222222222222222222222222222222222222",
"..;;&&%&&======%===+....2222222222222222222222222222222222222",
"...;&&&&&&===%%===%%%...2222222222222222222222222222222222222",
"2...;&%%&&&&%%===+%%%+...222222222222222222222222222222222222",
"2...;;%%&&%%%&&&&.%%%%+...222222   22222222OOOO22222222222222",
"22...;;&&%%%&&&&....%==+...222  @@@   222OOooooOO222222222222",
"222....;;&&&&&.......%==+...  @@###@@   Ooo$$$oooO22222222222",
"2222....;;.;;....22...%==+. @@111111@@ Ooo$$$$$$ooO2222222222",
"22222...........2222...%==+@@111#1111@@oo$$$$111$$oO    22222",
"2222222.......2222222...%= @1111#11#11@o$$$$111o1$       2222",
"2222222222222222222222... @1111#111#11@@$$$$1oooo       22222",
"2222222222222222222222222 @1111111#1111@$$$$11o        222222",
"2222222222222222222222222 @111111111111@$$$$$1        2222222",
"2222222222222222222222222 @11111111111$o$$$$$        22222222",
"2222222222222222222222222 @111111111$$$o$$$$     ::  22222222",
"22222222222222222222222222 @111111$$$$$oo$$    ::::O     2222",
"222222222222222222222222222 @#11$$$$$$$$o$   ::::::  OOOO  22",
"2222222222222222222222222222 @@$$$$$$$$$o$  ::  :::  O*::OO 2",
"22222222222222222222222222222  o$$$$$$$$oo :::  O::OO:::::OO ",
"2222222222222222222222222222222Oo$$$$$$$$o::::O  :::::::::*O ",
"2222222222222222222222222222222Oo$$$$$$$$o:::::  ::::::::::O ",
"22222222222222222222222222222222Oo$$$$$$$oo::::::::::::::::O ",
"22222222222222222222222222222222OOo$$$$$$$o:::::::::::::::*O ",
"22222222222222222222222222222222OOo$$$$$$$o:::::::::::::::O 2",
"22222222222222222222222222222222OOOo$$$$$$oo::  ::::::::*O 22",
"222222222222222222222222222222222O oo$$$$$$o:     O:::*   222",
"222222222222222222222222222222222 O:o$$$$$$o:            2222",
"222222222222222222222222222222222 O::o$$$$$oo:          22222",
"222222222222222222222222222222222 O*:oo$$$$$o:::       222222",
"2222222222222222222222222222222222 O::o$$$$$o::::::OO22222222",
"2222222222222222222222222222222222 OOO:o$$$$oo***OOOO22222222",
"22222222222222222222222222222222222  OOo$$$$$oXXOO$OXX2222222",
"2222222222222222222222222222222222222  Oo$$$$oX<X$$$oXX222222",
"222222222222222222222222222222222222222Oo$$$$oX<<X$$$oXX22222",
"222222222222222222222222222222222222222Xo$$$$$X<<<XXXXXXX2222",
"222222222222222222222222222222222222222XX$$$$X<<<<<<<<<XO2222",
"22222222222222222222222222222222222222XXXXXX<<<<O--<<<<OOO222",
"22222222222222222222222222222222222222XX<<<<<<<<----<<<-OO222",
"22222222222222222222222222222222222222XX<<<<<<<<----<<<-OO222",
"22222222222222222222222222222222222222XX<<<<<<<<O--<<<<<XX222",
"2222222222222222222222222222222222222  X<<<<<<<<<<<<<<<<XX222",
"222222222222222222222222222222222222   X<<<<<<<<<<<<<<<XX2222",
"22222222222222222222222222222222222  OOX<<<<<<<<<<<<<<<XX2222",
"22222222222222222222222222222222222  OOX<<<<<<<<<<<<<<XX22222",
"22222222222222222222222222222222222  OOOX<<<<<<<<<<<XXX222222",
"2222222222222222222222222222222222  OOOO X<<XX<<<XXXXX2222222",
"222222222222222222222222222222222  OOOOOO  XXXXXXXXX222222222",
"222222222222222222222222222222222  O*OOOOO OOOOX 222222222222",
"222222222222222222222222222222222  *OOOOOO OOOO  222222222222",
"222222222222222222222222222222222  OOOOOOO OOOO  222222222222",
"2222222222222222222222222222222222  OOOOO  OOO  2222222222222",
"2222222222222222222222222222222222   OOO       22222222222222",
"22222222222222222222222222222222222           222222222222222",
"222222222222222222222222222222222222     22222222222222222222"
};
