/* XPM */
static char *result[] = {
/* columns rows colors chars-per-pixel */
"59 46 20 1 ",
"  c #181010",
". c #301818",
"X c #202028",
"o c #600000",
"O c #482010",
"+ c #584020",
"@ c gray25",
"# c #686868",
"$ c #A81828",
"% c #885818",
"& c #A07018",
"* c #A06830",
"= c #B08018",
"- c #988048",
"; c #B88858",
": c #C8B058",
"> c #E0C868",
", c #2830C8",
"< c gray69",
"1 c None",
/* pixels */
"1111111111111111111OOOOO11111111111111111111111111111111111",
"11111111111111111OOoooooOO111111111111111111111111111111111",
"111111111111111OOoo$$$$oooO11111111111111111111111111111111",
"11111111111111OOo$$$$$$$$ooO1111111111111111111111111111111",
"1111111111111Oo$$$$$$$$$$$oO1111111111111111111111111111111",
"111111111111Oo$$$$$$$$$$$$ooO111111111111111111111111111111",
"11111111111Oo$$$$$$$$<<<<$$oO111111111111111111111111111111",
"1111111111Oo$$$$$$$$<<o<o<$oO111111111111111111111111111111",
"1111111OOOo$$$$$$$$$<<ooo<$oO111111111111111111111111111111",
"11111OOooo$$$$$$$$$$<<ooo<oO1111111111111111111111111111111",
"1111Ooo$$o$$$$$$$$$o         111111111111111111111111111111",
"1111Oo$$$$$$$$$$o              1111111111111111111111111111",
"1111Oo$$$$$$$o                  111111111111111111111111111",
"1111Oo$$o       O*;;;;;;;O 11111111111111111111111111111111",
"1111 OO  OOO*;;;;;;O ;;;OO 11111111111111111111111111111111",
"111 OO;;;;OO;;;;;;;  ;;;    1111111111111111111111111111111",
"111 O;;;;;OO*;;;;;;  ;;; OOO 111111111111111111111111111111",
"111 O;;OO;OOOO;;;;;  ;;;*;;*O 1111111111111++++++1111111111",
"111 O;;;O;OOOO;;;;; O;;;;;;;*O 111111111++++++++++++1111111",
"111 OO;;;;;OO;;;;;;;;;;;;;;;;O 1111111+++++::::+:+++++11111",
"1111 OO;;;;;;;;;  ;;;;;;;;;;;O 111111+++::->>>>>>>>-+++1111",
"11111  OO;;;;;;    ;;;;;;;;;*O 11111++-:->>>>>>>>>>>>:++111",
"1111Ooo,OO;;;;;     *;;;;;;*O 11111++-::>>>>>>>>>>>>>-:++11",
"111Ooo,,,OO;;;;;     O***O   111111++--->>>>>>>>>>>>>>:++11",
"11Oo,,,,,XOOO;;;;           1111111++-::>>>>>>>>>>>>>--++11",
"1OoX,,,,X$$$OOO;;;;        11111111.++-:-:>>>->>>>->::++.11",
"1XX,,,,X$$$$$$OOOOOOO    1111111111...+%-:::--:::::-:+%..11",
"XXX,,,,X$$$$$$$$oXoooooo     111111..%%%+---%-:--:-+%%=..11",
"XX,,,,,X$$o$$$$$$$oo@@oo@@@@@ 11111..=%%==%%+%=%%%%=%==%..1",
"XX,,,,,X$$oo$$$$$$$$#<@@@@@#  1111..%==%===%+=======%===..1",
"XX,,,,,,X$$oo$$$$$$$<<<<<<#@........&======%%=======%===..1",
"XX,,,,,,,XXXoo$$$$$<<<<<<<<@........&=======%===&======....",
"XX,,,,,,,,,,,oo$$$<<<<<<<##@%%%%%%%.&===&===%===&=====+%=..",
"XXX,,,,,,,,,,,oo$$<<<#<<<@@&&&&&&&%.&===&===%===%=====+%=..",
"XXX,,,,,,,,,,,,o@<<<<<#<<<@@+++++++.&&==%=======%=====+%=..",
"1XXX,,,,,,,,,,,X@<<<#<<<<<<@@.......&&==%=======%======....",
"1XXXX,,,,,,,XXXXX@<<<#<<#<<<@@......&&&=%&=====&%===%=&&..1",
"11XXXXXXXXXXXXO   #<<<<<<#<<@@@ 11..%&&&%%=====%%===%&&&..1",
"11     OOOOO OOO   #<<<#<<#@@  1111..%&&%%&====%%==&%&&%..1",
"11  O OOO**OO OOO  @@@##@##@ 111111..+&&%%&&&&&%%&&%%&&..11",
"11  O OOO**OO OOO    @@@@@@@ 111111..--&%%&&&&&%%&&%%&&..11",
"11  O OOOOOOO      11       11111111..--%%&&&&&%%&&%%--..11",
"11  OOOOOOOO  OO   11111111111111111...---&&&&&%%&&%--..111",
"11    *****OO     1111111111111111111....+----------+...111",
"111              1111111111111111111111.....+++++......1111",
"111111        111111111111111111111111111...........1111111"
};
