/* XPM */
static char *result[] = {
/* columns rows colors chars-per-pixel */
"48 48 6 1 ",
"  c black",
". c #D8A038",
"X c #F8F800",
"o c #F8D820",
"O c #FFFFAE",
"+ c None",
/* pixels */
"++++++++++++++++++++++++++++++++++++++++++++++++",
"++++++++++++++++++++++++++++++++++++++++++++++++",
"++++++++++++++++++++++++++++++++++++++++++++++++",
"++++++++++++++++++++++++++++++++++++++++++++++++",
"++++++++++++++++++++++++++++++++++++++++++++++++",
"++++++++++++++++++++++++++++++++++++++++++++++++",
"++++++++++++++++++++++++++++++++++++++++++++++++",
"++++++++++++++++++++++++++++++++++++++++++++++++",
"++++++++++++++++++++++++++++++++++++++++++++++++",
"++++++++++++++++++++++++++++++++++++++++++++++++",
"++++++++++++++++++++++++++++++++++++++++++++++++",
"++++++++++++++++++++++++++++++++++++++++++++++++",
"++++++++++++++++++++++++++++++++++++++++++++++++",
"++++++++++++++++++++++++++++++++++++++++++++++++",
"++++++++++++++++++++++++++++++++++++++++++++++++",
"++++++++++++++++++++++++++++++++++++++++++++++++",
"+++++++++++++++++++++++  +++++++++++++++++++++++",
"++++++++++++++++++++++ OO ++++++++++++++++++++++",
"++++++++++++++++++++++ oo ++++++++++++++++++++++",
"++++++++++++++++++++++ XX ++++++++++++++++++++++",
"+++++++++++++++++++++ XXo. +++++++++++++++++++++",
"+++++++++++++++++++++ OXo. +++++++++++++++++++++",
"+++++++++++++++++++++ OXo. +++++++++++++++++++++",
"+++++++++++++++++++++ OXo. +++++++++++++++++++++",
"+++++++++++++++++++++ OXo. +++++++++++++++++++++",
"+++++++++++++++++++++ OXo. +++++++++++++++++++++",
"+++++++++++++++++++++ OXo. +++++++++++++++++++++",
"+++++++++++++++++++++ OXo. +++++++++++++++++++++",
"++++++++++++++++++++++ XX ++++++++++++++++++++++",
"++++++++++++++++++++++ oo ++++++++++++++++++++++",
"++++++++++++++++++++++ .. ++++++++++++++++++++++",
"+++++++++++++++++++++++  +++++++++++++++++++++++",
"++++++++++++++++++++++++++++++++++++++++++++++++",
"++++++++++++++++++++++++++++++++++++++++++++++++",
"++++++++++++++++++++++++++++++++++++++++++++++++",
"++++++++++++++++++++++++++++++++++++++++++++++++",
"++++++++++++++++++++++++++++++++++++++++++++++++",
"++++++++++++++++++++++++++++++++++++++++++++++++",
"++++++++++++++++++++++++++++++++++++++++++++++++",
"++++++++++++++++++++++++++++++++++++++++++++++++",
"++++++++++++++++++++++++++++++++++++++++++++++++",
"++++++++++++++++++++++++++++++++++++++++++++++++",
"++++++++++++++++++++++++++++++++++++++++++++++++",
"++++++++++++++++++++++++++++++++++++++++++++++++",
"++++++++++++++++++++++++++++++++++++++++++++++++",
"++++++++++++++++++++++++++++++++++++++++++++++++",
"++++++++++++++++++++++++++++++++++++++++++++++++",
"++++++++++++++++++++++++++++++++++++++++++++++++"
};
