/* XPM */
static char *result[] = {
/* columns rows colors chars-per-pixel */
"48 48 180 2 ",
"   c #001100",
".  c #081100",
"X  c #081E00",
"o  c #281D00",
"O  c #002B00",
"+  c #003100",
"@  c #003800",
"#  c #003E00",
"$  c #083800",
"%  c #163A07",
"&  c #173B07",
"*  c #173C07",
"=  c #183E08",
"-  c #263907",
";  c #283C07",
":  c #004400",
">  c #084400",
",  c #0F4107",
"<  c #004A00",
"1  c #084A00",
"2  c #164B0E",
"3  c #005100",
"4  c #085100",
"5  c #005800",
"6  c #005E00",
"7  c #085E00",
"8  c #085F00",
"9  c #105800",
"0  c #105108",
"q  c #2C4A0E",
"w  c #215808",
"e  c #3B5615",
"r  c DarkGreen",
"t  c #006B00",
"y  c #086B00",
"u  c #086408",
"i  c #086B08",
"p  c #106408",
"a  c #106B08",
"s  c #007100",
"d  c #087100",
"f  c #087900",
"g  c #087A00",
"h  c #0F7C07",
"j  c #0F7F07",
"k  c #107108",
"l  c #17770F",
"z  c #107908",
"x  c #16780E",
"c  c #167C0F",
"v  c #177F0F",
"b  c #187110",
"n  c #187A10",
"m  c #2B740E",
"M  c #2C770E",
"N  c #2E7C0F",
"B  c #2F7F0F",
"V  c #474C1C",
"C  c #494F1D",
"Z  c #405C17",
"A  c #774907",
"S  c #7C4D07",
"D  c #67550F",
"F  c #7F570F",
"G  c #7C5015",
"H  c #7C5715",
"J  c #745B1D",
"K  c #46771C",
"L  c #47791C",
"P  c #487B1D",
"I  c #5B502A",
"U  c #587A28",
"Y  c #5A7B29",
"T  c #6B712F",
"R  c #6B752F",
"E  c #667828",
"W  c #657A28",
"Q  c #667B28",
"!  c #6B7D2A",
"~  c #6B7E2F",
"^  c #77753B",
"/  c #77763B",
"(  c #77793B",
")  c #835515",
"_  c #835715",
"`  c #835416",
"'  c #875617",
"]  c #8A5515",
"[  c #825E15",
"{  c #895E15",
"}  c #905A1C",
"|  c #90641C",
" . c #8F5F2F",
".. c #9B5C35",
"X. c #8D6C21",
"o. c #8F6D22",
"O. c #8F652F",
"+. c #89712F",
"@. c #89653B",
"#. c #956331",
"$. c #956535",
"%. c #9B6735",
"&. c #9B6B35",
"*. c #9B713B",
"=. c #956F41",
"-. c #8F7C41",
";. c #8F7D41",
":. c #957341",
">. c #9B7F41",
",. c #A76841",
"<. c #AD6D47",
"1. c #A17741",
"2. c #A77741",
"3. c #AD7741",
"4. c #AD7847",
"5. c #AD7D47",
"6. c #A1724D",
"7. c #A17E4D",
"8. c #B37347",
"9. c #B37E47",
"0. c #B3774D",
"q. c #B97E4D",
"w. c #B97753",
"e. c #B37E53",
"r. c #B97E53",
"t. c #B97D59",
"y. c #108308",
"u. c #188310",
"i. c #218110",
"p. c #298118",
"a. c #318310",
"s. c #5D802A",
"d. c #64852E",
"f. c #66842F",
"g. c #66872F",
"h. c #6B802A",
"j. c #6B812F",
"k. c #77862F",
"l. c #65902E",
"z. c #6A8731",
"x. c #6A8931",
"c. c #7D803B",
"v. c #7D863B",
"b. c #7D8F3B",
"n. c #89803B",
"m. c #898A3B",
"M. c #8F8A41",
"N. c #958341",
"B. c #9B8F41",
"V. c #A18447",
"C. c #A1834D",
"Z. c #A7814D",
"A. c #A7844D",
"S. c #A78B4D",
"D. c #B38347",
"F. c #B38F47",
"G. c #B9834D",
"H. c #B3894D",
"J. c #B9894D",
"K. c #A19047",
"L. c #A19747",
"P. c #A7974D",
"I. c #B3974D",
"U. c #AD8F53",
"Y. c #B98453",
"T. c #B38F53",
"R. c #B98953",
"E. c #B98A53",
"W. c #B98F53",
"Q. c #B98959",
"!. c #B98F59",
"~. c #AD9753",
"^. c #B39759",
"/. c #B99759",
"(. c #B39F59",
"). c #B99762",
"_. c #B99F62",
"`. c #B9A762",
"'. c #B9A76A",
"]. c None",
/* pixels */
"].].].@ @ < 4 < < < < < < < < < 4 < 4 < < < < < < < < < < < < < 4 4 4 4 < < 4 < < < @ @ @ ].].].",
"].].@ 4 r s s t t t t s s r t f s f s s f s s s s s t t r t t s z f z z s s s t t t t t < @ ].].",
"].@ a t t t t t r t s s t s s s s t s s s s s s s s t r t t t t s z z t t t t t r t s s t r @ ].",
"@ < s r t t t r r t s s s s t r t r t r t s t s s t t t t t t r t f s r t t t r r t s s s t @ @ ",
"O < r t t r t r r s z f t r t r t r r r t r t f s t t t t t r r t r r t t r t r r s z f t r < O ",
"O 4 t t t t s t z z z s t t t t r r r r r r t s t s s t t t t r t r t t t t s t z z z s t t 4 O ",
"O r s t t f f z z z s z f s t t r r r r r r s t s f s s r f t f s t s t t f f z z z s z f s r O ",
"O s f s z z z p.z s z p.f s s t t r r r r t s t f f s t t f f f s s f s z z z p.z s z p.f s t O ",
"@ f z z p.z p.p.f f p.f s s s t r r r t t s t f f s s t f f f f s f z z p.z p.p.f f p.f s s s O ",
"O z z p.z z p.z s p.z s s t t t t r t t t t s f s s t s f f f s f z z p.z z p.z s p.z s s t t O ",
"O z z p.z p.p.t z p.s t t t t r r r r t t t s f s s s f f f f f z z z p.z p.p.t z p.s t t t t O ",
"O f z z z p.s t z s r t r r r r r r r t t t s s s t f f f f f z z f z z z p.s t z s r t r r r O ",
"O s z f z f t r r r r t r r r r r r r t r s s t t t s s f f f z s s z f z f t r r r r t r r r   ",
"  f f s s t r r r r t t r r r r r r r r r s t t t t t t s f f f t f f s s t r r r r t t r r r   ",
"  s t t t s t r t t s t r r r t r r r r r t r t r t r t t t f s t s t t t s t r t t s t r r r   ",
"  t t t t z r s s t t r r r t t r r r r r r r r r t r t t f f t s t t t t z r s s t t r r r t   ",
". i z z d d z t t t t t d s k d z t z d s t s s s s t s t t t s z z z z d d z t t t t t d s u . ",
". u z z s d s t t t t d s t t d s d s s d d s s s s t t t t t s i.z z z s d s t t t t d s t 7 . ",
". p z t t t t t t t s s t s s s d t s d s s s s s s t t t t t t d z z t t t t t t t s s t s 5 . ",
". 3 s t t t t r t t s s s s t t t t t t t s t s d t t t t t t t t d s t t t t r t t s s s s < . ",
". # r t t t t r t s z d t r t t t r r r t t t d s t t t t t t r t t t t t t t r t s z d t r # . ",
". @ 5 t t t d t z z z s t t t t r r r t t r t s t s d t t t t r t r t t t t d t z z z s t 5 @ . ",
". @ @ : 6 t y b i.z s z d s t t r r r t r t s t s d s s t d t d s t d t t z z i.b k 6 u 3 @ @ . ",
". + # : > 1 1 1 3 3 3 0 3 < < < < < < < < < < < 3 3 < < < 3 3 3 < < 3 3 3 3 3 0 > : 1 1 : # + . ",
"X = = = = $ $ $ $ $ = = $ $ $ = = = = = $ $ $ $ $ $ = = $ $ = = = = = = = $ $ $ $ $ = = $ $ $ X ",
"o C C q - ; = = $ * % - 2 q q C C C C q - - * $ $ $ * - q C ! h.! C C q - ; = = $ * % - 2 q q o ",
"} ,.e.0.6.E q & - E n.>.>.9.r.t.t.r.r.w.e.n.E - , - I -.e.r.Q.!.E.w.e.0.6.E q & - E :.>.V.e.<.) ",
"[ &.J.R.R.Y.=.V T E.W.W.W.W.W.W.W.W.W.W.W.W.E.@.V / e.E.W.W.R.R.R.J.R.R.R.Y.=.V T E.W.W.W.W.1.[ ",
"` X.3.5.5.5.%...4.J.J.J.R.W.W.!.!.!.W.R.W.W.5.%.8.q.G.D.G.G.D.D.D.D.D.5.5.5.%...9.G.G.D.G.G.*.G ",
"H O.3.3.*.3.&.&.1.5.R.!.R.G.D.J.G.D.5.5.5.$.O.5.D.5.3.3.3.5.G.&.&.3.5.3.1.3.&.&.D.5.3.3.3.5.&.A ",
"[ 1./././._._.`.W._.`.`.`./.W.5.3.$.1.W.!./././.!./.!././.J.5.&.1._./././._._.`.!./.!././.J.O.A ",
"#.C./.).)._.`.`.`.'.'.'.'.'._.D.3.*.H.W.W.W.W.W.W.R.R.R.W.!.J.&.J._./.).)._.`.`.W.R.R.R.W.!.5._ ",
"#.H.).)././._.'.`.'.'.`.`.`._.J.5.5.R.!.!.!.W.W.W.R.R.R.R.W.W.3.!._.).)././._.'.W.R.R.R.R.W.H.H ",
"#.H.)././././.`.`.'.`._._._._.!.5.5.J.W.!.!.W.!.!.!.W.W.R.R.W.5.)._.)././././.`.!.!.W.W.R.R.H.[ ",
"#.H.).).)././._.`.'.`._./.)./.!.3.5.J.W.W.!.W.!.!.!.!.W.J.R.R.5./._.).).)././._.!.!.!.W.J.R.D.{ ",
"#.C.)./.!.!././.`.'.`._./.!.!.W.3.G.W.W.W.!.!.!.!.!.!.!.R.R.R.*./._.)./.!.!././.!.!.!.!.R.R.5.| ",
"#.C././././././.`.`._././.W.W.W.3.J.!.!.W.W.!.!.!.!.!.!.!.!.R.$._._././././././.!.!.!.!.!.W.5.{ ",
"[ ;._././././._._.`._././.!.W.W.5.G.J.W.!.!.W.W.W.R.R.R.R.W.J.$./.'._././././._.W.R.R.R.R.W.5._ ",
"G $._._./._._._._._._././././.W.1.3.G.J.R.R.R.R.R.H.H.G.H.T.5.&.H.`._._./._._._.R.H.H.G.H.T.&.G ",
"F  .H.T.T.T.T.F.F.T.T.T.T.T.D.&.O.$.*.5.D.5.5.5.5.5.D.D.D.5.2.$.$.5.H.T.T.T.T.F.5.5.D.D.D.5.O.A ",
"' o.5.2.2.2.2.2.2.1.*.1.1.*.O.&.&.1.*.*.O.O.O.O.O.&.1.*.*.2.2.2.5.5.5.2.2.2.2.2.O.&.1.*.*.1.X.S ",
"[ *.`.`._._.1.1.1.2.5.5.5.1.*.5.5.D.H.H.D.5.1.&.1.D.T.R.!.W.W./._._.`.`._._.1.1.1.D.T.R.!.W.&.H ",
"[ C.`._._.`.W.*.5.R.W.H.5.J.!.!.!.W.R.H.H.T.D.1.5.H././././././.~._.`._._.`.W.*.2.H././././.5.[ ",
"J M._._.P.`.'.*.5.W.H.G.W./.P.(./././.P.L.L.P.5.5./././././././.b.L._._.P.`.'.*.2././././.I.C.[ ",
"e T U.^.k.^.'.+.N.H.H./.(.K.c.^.P.~.~.m.c.R M.N.L.B.(._._.(.~.!.d.( U.^.k.^.'.+.B./._._.(.K.R ] ",
"Z m / / K l.j.Q Q 7.Q.V.S.~ U / d.( ( f.s.K T R v.( >.).~.M.R Z.L K / / K l.j.W R U.).A.S.T K D ",
"w l P P v v M v M ~ / U ^ Y N M c M M B a.B P P z.s.Y / g.x.K ^ M v P P v v M c m T / U ^ Y B 9 ",
"9 g u.u.y.y.u.y.v P M c x v u.y.u.y.y.y.y.y.y.y.y.y.v M v u.j x v y.u.u.y.y.u.y.v P M h x v n 8 "
};
