/* XPM */
static char *result[] = {
/* columns rows colors chars-per-pixel */
"48 48 9 1 ",
"  c #301818",
". c #584020",
"X c #885818",
"o c #A07018",
"O c #B08018",
"+ c #988048",
"@ c #C8B058",
"# c #E0C868",
"$ c None",
/* pixels */
"$$$$$$$$$$$$$$$$$$$$$$$$$$$$$$$$$$$$$$$$$$$$$$$$",
"$$$$$$$$$$$$$$$$$$$$$$$$$$$$$$$$$$$$$$$$$$$$$$$$",
"$$$$$$$$$$$$$$$$$$$$$$$$$$$$$$$$$$$$$$$$$$$$$$$$",
"$$$$$$$$$$$$$$$$$$$$$$$$$$$$$$$$$$$$$$$$$$$$$$$$",
"$$$$$$$$$$$$$$$$$$$$$$$$$$$$$$$$$$$$$$$$$$$$$$$$",
"$$$$$$$$$$$$$$$$$$$$$$$$$$$$$$$$$$$$$$$$$$$$$$$$",
"$$$$$$$$$$$$$$$$$$$$$$....$$$$$$$$$$$$$$$$$$$$$$",
"$$$$$$$$$$$$$$$$$$$$.....   $$$$$$$$$$$$$$$$$$$$",
"$$$$$$$$$$$$$$$$$$.....@@    $$$$$$$$$$$$$$$$$$$",
"$$$$$$$$$$$$$$$$$....###+@@    $$$$$$$$$$$$$$$$$",
"$$$$$$$$$$$$$$$$...######++X    $$$$$$$$$$$$$$$$",
"$$$$$$$$$$$$$$$...#######@@XXO   $  $$$$$$$$$$$$",
"$$$$$$$$$$$$$$...########@@XOOO      $$$$$$$$$$$",
"$$$$$$$$$$$$$$..########+++XXOOO ..   $$$$$$$$$$",
"$$$$$$$$$$$$$...#######@@+XOXOOOo X.  $$$$$$$$$$",
"$$$$$$$$$$$$$..#######@@@+XOOXOOOo .  $$$$$$$$$$",
"$$$$$$$$$$$$$..######+@#+XOOOOOOOoo  $$$$$$$$$$$",
"$$$$$$$$$$$$...#####@+++OOOOOOOOOoo   $$$$$$$$$$",
"$$$$$$$$$$$$..@@##+@@@XXOOOXOOOOOooo  $$$$$$$$$$",
"$$$$$$$$$$$$..@+@++@#+XOOOOOXXOOOoXo   $$$$$$$$$",
"$$$$$$$$$$$$$  @@++++XXXOOOOXXXOOoXXo   $$$$$$$$",
"$$$$$$$$$$$$$   +XXXOOOXXOOOOXXXOooXo   $$$$$$$$",
"$$$$$$$$$$$$$$   XXOOOOOOXOOOOXXXooXX+  $$$$$$$$",
"$$$$$$$$$$$$$$$  OOXOOOOOOOOOOOXXoooX   $$$$$$$$",
"$$$$$$$$$$$$$$$   OOOOOOOOOOOOOoXXooX+  $$$$$$$$",
"$$$$$$$$$$$$$$$$    .OOOXOOOOOOooXoo++  $$$$$$$$",
"$$$$$$$$$$$$$$$$   XXXOOOXXOOOoooooo+   $$$$$$$$",
"$$$$$$$$$$$$$$$   .XXX.OOOXXooooXXo+   $$$$$$$$$",
"$$$$$$$$$$$$$$   .XXXX ooooXXXooXX++   $$$$$$$$$",
"$$$$$$$$$$$$$   .OOX    ooooXXXoo++   $$$$$$$$$$",
"$$$$$$$$$$$$   .OOX       ooooo++    $$$$$$$$$$$",
"$$$$$$$$$$$   .OOX   $$    ++ ++    $$$$$$$$$$$$",
"$$$$$$$$$$   .OOX   $$$$           $$$$$$$$$$$$$",
"$$$$$$$$$   .OOX   $$$$$$$       $$$$$$$$$$$$$$$",
"$$$$$$$$   .OOX   $$$$$$$$$$$$$$$$$$$$$$$$$$$$$$",
"$$$$$$$   .OOX   $$$$$$$$$$$$$$$$$$$$$$$$$$$$$$$",
"$$$$$$$  .OOX   $$$$$$$$$$$$$$$$$$$$$$$$$$$$$$$$",
"$$$$$$$  .XX   $$$$$$$$$$$$$$$$$$$$$$$$$$$$$$$$$",
"$$$$$$$   ..  $$$$$$$$$$$$$$$$$$$$$$$$$$$$$$$$$$",
"$$$$$$$$     $$$$$$$$$$$$$$$$$$$$$$$$$$$$$$$$$$$",
"$$$$$$$$$   $$$$$$$$$$$$$$$$$$$$$$$$$$$$$$$$$$$$",
"$$$$$$$$$$$$$$$$$$$$$$$$$$$$$$$$$$$$$$$$$$$$$$$$",
"$$$$$$$$$$$$$$$$$$$$$$$$$$$$$$$$$$$$$$$$$$$$$$$$",
"$$$$$$$$$$$$$$$$$$$$$$$$$$$$$$$$$$$$$$$$$$$$$$$$",
"$$$$$$$$$$$$$$$$$$$$$$$$$$$$$$$$$$$$$$$$$$$$$$$$",
"$$$$$$$$$$$$$$$$$$$$$$$$$$$$$$$$$$$$$$$$$$$$$$$$",
"$$$$$$$$$$$$$$$$$$$$$$$$$$$$$$$$$$$$$$$$$$$$$$$$",
"$$$$$$$$$$$$$$$$$$$$$$$$$$$$$$$$$$$$$$$$$$$$$$$$"
};
