/* XPM */
static char *result[] = {
/* columns rows colors chars-per-pixel */
"48 48 88 1 ",
"  c #005600",
". c #015D01",
"X c #0A5A07",
"o c #016501",
"O c #086604",
"+ c #036C01",
"@ c #096C04",
"# c #0C6508",
"$ c #017401",
"% c #097504",
"& c #037D01",
"* c #097B04",
"= c #0D7409",
"- c #0F7D0A",
"; c #14710D",
": c #13790E",
"> c #1C6A14",
", c #1A7211",
"< c #5A4229",
"1 c #018301",
"2 c #0A8505",
"3 c #028C01",
"4 c #0B8B05",
"5 c #0F850A",
"6 c #12840C",
"7 c #19820F",
"8 c #108B0B",
"9 c #019401",
"0 c #0C9306",
"q c #019C00",
"w c #0C9B06",
"e c #129B0C",
"r c #1A9B0C",
"t c #218117",
"y c #24891A",
"u c #01A400",
"i c #0CA406",
"p c #02AC00",
"a c #0DAD06",
"s c #08AD08",
"d c #14A50D",
"f c #1CA60E",
"g c #14AD0D",
"h c #1CAA0E",
"j c #01B400",
"k c #0DB306",
"l c #01BB00",
"z c #0BBC03",
"x c #08BD08",
"c c #13B40B",
"v c #1EB50E",
"b c #16BC0E",
"n c #1CAF14",
"m c #1DB515",
"M c #1EBB15",
"N c #20BB0F",
"B c #21AF1B",
"V c #22BD12",
"C c #24BD1D",
"Z c #2ABB1C",
"A c #01C400",
"S c #0EC406",
"D c #00CD00",
"F c #0ECB06",
"G c #08C608",
"H c #15C40D",
"J c #1EC00E",
"K c #13CD0B",
"L c #10D608",
"P c #1AC512",
"I c #18CE10",
"U c #20CB0F",
"Y c #26C116",
"T c #20CB16",
"R c #28CB17",
"E c #25C21E",
"W c #2DC61E",
"Q c #22CE19",
"! c #2BCE1A",
"~ c #33C225",
"^ c #29D521",
"/ c #31D521",
"( c #37D128",
") c #39D629",
"_ c #38DC28",
"` c #9C8C18",
"' c #EFAD10",
"] c #FFF729",
/* pixels */
"GAlAlllllAAxzllAllllAAADAllAAAAlGAAllAlllAAxlllz",
"llAlllllALKAlllljjjllADAlAAAlljlllAlllllALHAlAAl",
"lAAllAlQHPAAlAllljlljAAlAAlAlllljAAllSlQPPAAllAl",
"lAAAFLQQQAIGAAlllllljAAlGlAjSjGAlAlALFIQQAKGAAll",
"AGAIQQ^QSI^DAAlljlljAllxlljjxSFAAGAIQR^QAQ^DAAAl",
"GIQ/I)/GF/KAAAAljpjjllxxljjxlSxlxIP/L)^GL/LAAAAl",
"II/QQ/IA^QAAAlAjjjjljjxjjllxbxlSIH/PQ/IA^QAAAAAl",
"II^LR!AH^AAAljjppppjpjpjjjkzSlAHHP!PRRlJ^AAAAlAj",
"LQKI!AlQSlljpppuuujuuppppjkjkjSHSYHHRAlQSlllljjj",
"SIDIFlllljljpppuuuuquuququupjjcjjbAHSjlllllljjjl",
"GDAAjljlljjpuupuqqq9u9999q9qpaausljjjjpjjlljjjll",
"AlAlAlljjjjpuuuq9339913113939iquuujpljjljzljjjzj",
"AlllJjkljkpuquw993111&<<<<110w9qqquacpkjjjjjjzzj",
"lAzUSlbjjjuuuw9324&1$<<<<<<153399qqvkacjjljplzjj",
"lANUjvxjauuqww926&$$+<<]]<<%=&433qrhufsjjppjkllc",
"AAHzkMjjauuw0938&$+o<<']]'<<$$7134e9wgpajpjacllH",
"ljlacjjpiuu09381$@O.<<]]]]<<o;:$&139wiuaupjallJA",
"lljjljlappq994*$+#.<<`]]]]`<<>+$$&119qppaljjjHxl",
"llljjjjhmqq94<<<<<<<<]]]]]]<<<<<<<<19qqfVpjjSSxz",
"AllljpkEp9w0<<<<<<<<']]]]]]'<<<<<<<<39iCjujbzxHH",
"LAljjzEkuiw4<<]]]]]]]]]]]]]]]]]]]]<<3qBsucxbkAHI",
"LAljjbbuid04<<']]]]]]<<]]<<]]]]]]'<<1rduacskzFTS",
"DlGlxsppg9342<<]]]]]]<<]]<<]]]]]]<<<10qigpazSTSl",
"AK_Jbppgi9411<<<]]]]]<<]]<<]]]]]<<<5839diapjzxxP",
"Q_FMjjcpq991&+<<<]]]]<<]]<<]]]]<<<%-13duuppjlxHK",
"_AH(xzkuq933*%O<<<]]]<<]]<<]]]<<<+=y30wqupjlkSGF",
"DG_Tbkkiqq91&+OX<<']]``]]``]]'<<.Ot680iwuplklxHH",
"G/QFSxcuqq91&%O<<<]]]]]]]]]]]]<<.,:240euupljjSSG",
"IQGPxbjuu9932*O<<`]]]]]]]]]]]]`<<;&63equupjjzHSH",
"LIPSzMppqqq31*@<<']]]]]]]]]]]]'<<=624equppllxSSK",
"KQHAAljpuuq91%<<<]]]]]]'']]]]]]<<<539quupjzlllHx",
"QIAlllppuuu33&<<`]]]]]<<<<]]]]]`<<119uqupjllzlAF",
"GAlljjppupu031<<]]]]`<<<<<<`]]]]<<139qqupllxjllz",
"llAlljjpjkiq91<<]]'<<<<. <<<<']]<<39qquujSzAllll",
"lAAllljMcgpq93<<<<<<<++oo+o<<<<<<<9qqppMbbljlllA",
"lAlAFHPPMpcsuq9<<<<$$$$$$$$$*<<<<99uakMMVlIGAAll",
"AGAPIQQYzMCjuu933111111*11&&33099qugmMCMzT^AAAAl",
"GIQ/P(/xSWzpppuq3333933333194wqqwgnZc~WxS!FlAAAl",
"II/QQ/HlEPljjpuqq99q990q9990iqqdggZmMWHlEQAAAAAA",
"II^LRRlb!ljjppuqqqqqquqquqissppgccEbCYjb!AAAAllj",
"KQILRAzPxjjppuuqqqpuquppppapspcxkmbbYljPzllljjjj",
"SIDIFlllljjjpuuuupuujpupujajjzcjjbAHHjjjjllljjjj",
"GDAAlljljjjpppjjuuuujppppjpjlzxpxAlljlplllljjjll",
"AlAlAllllxljppjppppjlujujjjjlHllljljAjlllxljjjll",
"AllAPlxlzljpjjjjpappjappjpjjzSAljjljJlxlzljjlzzj",
"lAzTSzHllljjlzkjczjlpjjpjjpAJAAAlAzUSzHllljllzlj",
"lANUANxlzjjjkzlkvjjjjjjllklGHlFAlANUlbxlzjjjcAlc",
"AzHSkPlzljAkcllJAjjjjjsAjjAHAx!AAzHzcHlzAjlcclzH"
};
