/* XPM */
static char *result[] = {
/* columns rows colors chars-per-pixel */
"48 48 215 2 ",
"   c #230C0B",
".  c #280F0D",
"X  c #2C110E",
"o  c #35160F",
"O  c #2D1315",
"+  c #3C1A13",
"@  c #351815",
"#  c #3D231B",
"$  c #341A30",
"%  c #3C2827",
"&  c #1D0909",
"*  c #441C12",
"=  c #421E19",
"-  c #431B0F",
";  c #681F06",
":  c #43241A",
">  c #4B2C1D",
",  c #49251C",
"<  c #5A291A",
"1  c #4F301F",
"2  c #69240A",
"3  c #732108",
"4  c #7B230C",
"5  c #722D0F",
"6  c #632B13",
"7  c #6B2E15",
"8  c #692F1D",
"9  c #69311B",
"0  c #753918",
"q  c #4D2C21",
"w  c #472727",
"e  c #5B2C25",
"r  c #562C25",
"t  c #593526",
"y  c #433231",
"u  c #4B3736",
"i  c #51372F",
"p  c #6A2F23",
"a  c #632D28",
"s  c #6B332C",
"d  c #683828",
"f  c #793929",
"g  c #643433",
"h  c #6A3738",
"j  c #723E39",
"k  c #612E3B",
"l  c #7B4A1E",
"z  c #75441A",
"x  c #68432B",
"c  c #6F4132",
"v  c #734C32",
"b  c #774635",
"n  c #7D5436",
"m  c #3D3276",
"M  c #382F66",
"N  c #3D3059",
"B  c #46335C",
"V  c #442F5A",
"C  c #6A3541",
"Z  c #4C3567",
"A  c #453677",
"S  c #54386D",
"D  c #6D6A5F",
"F  c #796C5F",
"G  c #534475",
"H  c #5A4E6B",
"J  c #704C74",
"K  c #6C6961",
"L  c #7C7965",
"P  c #716D60",
"I  c #970E0E",
"U  c #9D0E10",
"Y  c #891B19",
"T  c #961813",
"R  c #8D100C",
"E  c #A21514",
"W  c #83240D",
"Q  c #892A17",
"!  c #91331D",
"~  c #8A2D1A",
"^  c #A1301C",
"/  c #97272B",
"(  c #8A3A25",
")  c #943B27",
"_  c #8D243E",
"`  c #943832",
"'  c #933136",
"]  c #AB2B28",
"[  c #A43629",
"{  c #A83B34",
"}  c #B3342C",
"|  c #D11F30",
" . c #D42233",
".. c #DB2B3C",
"X. c #D72838",
"o. c #DA343D",
"O. c #D4353A",
"+. c #CE2D34",
"@. c #95551D",
"#. c #87451A",
"$. c #824829",
"%. c #95462C",
"&. c #8A5627",
"*. c #965826",
"=. c #884839",
"-. c #934534",
";. c #855A3A",
":. c #945536",
">. c #A75331",
",. c #8C613A",
"<. c #94683D",
"1. c #9D743E",
"2. c #97703B",
"3. c #A7622E",
"4. c #B67C34",
"5. c #B47332",
"6. c #B06B2C",
"7. c #C67D34",
"8. c #8E2744",
"9. c #DB2E41",
"0. c #DC3345",
"q. c #DB3A47",
"w. c #CD3A5F",
"e. c #D13A57",
"r. c #E03E46",
"t. c #CC3965",
"y. c #935245",
"u. c #8D4F42",
"i. c #9E714F",
"p. c #A27942",
"a. c #AF576A",
"s. c #DC4447",
"d. c #D54559",
"f. c #D95659",
"g. c #E04C45",
"h. c #D44764",
"j. c #DA566C",
"k. c #DD6268",
"l. c #DE6475",
"z. c #B9833C",
"x. c #BC8234",
"c. c #C18B3A",
"v. c #BB8042",
"b. c #848276",
"n. c #CB9945",
"m. c #C69541",
"M. c #D5B35A",
"N. c #D8AC65",
"B. c #D7B264",
"V. c #DAB165",
"C. c #DCB56B",
"Z. c #DEB96F",
"A. c #D7B66D",
"S. c #DEB576",
"D. c #DAAE72",
"F. c #E3B56B",
"G. c #E2B96E",
"H. c #E0B166",
"J. c #E3BD73",
"K. c #E2BC78",
"L. c #E4B771",
"P. c #E5C176",
"I. c #E6C479",
"U. c #E8C67A",
"Y. c #E8C478",
"T. c #3F3682",
"R. c #433687",
"E. c #5B4082",
"W. c #664885",
"Q. c #785187",
"!. c #7E7C86",
"~. c #4A3EEB",
"^. c #4D43EE",
"/. c #554CED",
"(. c #5E4DED",
"). c #5649E6",
"_. c #5C54ED",
"`. c #5B50E4",
"'. c #534BF1",
"]. c #5A54F2",
"[. c #4F46F0",
"{. c #764EE9",
"}. c #6758E7",
"|. c #7553EB",
" X c #6455F0",
".X c #6864E8",
"XX c #7966E8",
"oX c #7B71E7",
"OX c #AF7B83",
"+X c #856CE4",
"@X c #868698",
"#X c #998A9B",
"$X c #838083",
"%X c #B3B19B",
"&X c #A1A28D",
"*X c #8785A5",
"=X c #918AA3",
"-X c #B4B3AA",
";X c #AE859A",
":X c #DDBE97",
">X c #DCBFA3",
",X c #DFC19A",
"<X c #DEC1A2",
"1X c #DCCDB6",
"2X c #D3CBB3",
"3X c #D4D2BD",
"4X c #E1CDB7",
"5X c #E4D2BE",
"6X c #DBD8C5",
"7X c #DBDBCB",
"8X c #D8D7C4",
"9X c #DCDBD2",
"0X c #E1DBCC",
"qX c #E1DDD1",
"wX c None",
/* pixels */
"wXwXwXwXwXwXwXwXwXwXwXwXwXwXwXwXwXwXwX( ) %.) ) ! wXwXwXwXwXwXwXwXwXwXwXwXwXwXwXwXwXwXwXwXwXwXwX",
"wXwXwXwXwXwXwXwXwXwXwXwXwXwXwXwXwX0 ( ( ] ] ] ] ) ! Q wXwXwXwXwXwXwXwXwXwXwXwXwXwXwXwXwXwXwXwXwX",
"wXwXwXwXwXwXwXwXwXwXwXwXwXwXwXwX5 Y / O.o.s.s.q.0.] ! Q 4 wXwXwXwXwXwXwXwXwXwXwXwXwXwXwXwXwXwXwX",
"wXwXwXwXwXwXwXwXwXwXwXwXwXwXwXwX7 Q s.1X1X4X0Xs.q.0.X.E Q 4 wXwXwXwXwXwXwXwXwXwXwXwXwXwXwXwXwXwX",
"wXwXwXwXwXwXwXwXwXwXwXwXwXwXwX6 Y +.2X{ 1X} 4X4Xr.9.9. .U 4 3 wXwXwXwXwXwXwXwXwXwXwXwXwXwXwXwXwX",
"wXwXwXwXwXwXwXwXwXwXwXwXwXwXwX2 Y O.2X[ { { 4X4Xr.0.9... .U 4 3 wXwXwXwXwXwXwXwXwXwXwXwXwXwXwXwX",
"wXwXwXwXwXwXwXwXwXwXwX  . X @ = w ~ 1X` { { 5X4Xr.0.9...X.| I 4 wXwXwXwXwXwXwXwXwXwXwXwXwXwXwXwX",
"wXwXwXwXwXwXwXwXwXwX&   . X @ = = a s ( =.1X4Xg.r.0.9.9.X. .U W 3 wXwXwXwXwXwXwXwXwXwXwXwXwXwXwX",
"wXwXwXwXwXwXwXwXwXwXwX  X X + : q t s j j b =.g.r.q.9.9... . .U W wXwXwXwXwXwXwXwXwXwXwXwXwXwXwX",
"wXwXwXwXwXwXwXwXwXwXwXwXwXwX+ , r t x c $.=.=.-.} r.r.0...X. .E W 4 3 2 wXwXwXwXwXwXwXwXwXwXwXwX",
"wXwXwXwXwXwXwXwXwXwXwXwXwXwXwX> z N.C.C.D.=.;.=.u.` } r.9..... .E I R 3 2 wXwXwXwXwXwXwXwXwXwXwX",
"wXwXwXwXwXwXwXwXwXwXwXwXwXwXwXt $.n.C.Z.Z.J.L.G.-.-.-.` +.....X.E | | I 3 2 wXwXwXwXwXwXwXwXwXwX",
"wXwXwXwXwXwXwXwXwXwXwXwXwXq t x v n Z.Z.J.:.y.P.L.L.7.>.%.) o.X.X.+. .| R 2 wXwXwXwXwXwXwXwXwXwX",
"wXwXwXwXwXwXwXwXwXwXwXwX> l &.&.;.;.G.P.J.<.1.Y.J.L.L.L.7.%.) ] o.O.+.+.R 5 wXwXwXwXwXwXwXwXwXwX",
"wXwXwXwXwXwXwXwXwXwXwX: z n.Z.Z.z.2.Y.Y.Y.p.1.Y.Y.Y.J.L.F.F.3.) ) ] O.O.T 5 wXwXwXwXwXwXwXwXwXwX",
"wXwXwXwXwXwXwXwXwXwX: z c.Z.Z.P.U.U.U.U.Y.p.p.Y.Y.Y.Y.J.J.L.3.3.%.*.^ ! ~ 0 wXwXwXwXwXwXwXwXwXwX",
"wXwXwXwXwXwXwXwXwXwX# z M.C.Z.P.U.U.U.U.U.n.n.U.U.U.U.U.4.5.5.6.F.F.H.M.#.< wXwXwXwXwXwXwXwXwXwX",
"wXwXwXwXwXwXwXwXwXwX: z V.A.Z.P.U.U.U.U.I.I.U.U.I.U.U.I.z.4.4.Z.J.F.F.H.H.0 , wXwXwXwXwXwXwXwXwX",
"wXwXwXwXwXwXwXwXwXwX: z m.Z.Z.P.P.I.U.I.P.P.P.p.p.I.U.U.Y.z.n.I.G.c.c.V.M.z : wXwXwXwXwXwXwXwXwX",
"wXwXwXwXwXwXwXwXwXwXwX> z n.A.Z.Z.Z.P.P.P.P.,.2.2.p.I.I.U.U.Y.I.P.c.H.V.N.0 : wXwXwXwXwXwXwXwXwX",
"wXwXwXwXwXwXwXwXwXwXwXwX1 l n.A.A.Z.Z.Z.,.n ;.u.y.1.I.U.U.Y.Y.P.P.Z.V.B.z > # wXwXwXwXwXwXwXwXwX",
"wXwXwXwXwXwXwXwXwXwXwXwXwXq t x x v v v v n n ;.z.K.I.I.Y.I.P.G.G.V.B.l q : wXwXwXwXwXwXwXwXwXwX",
"wXwXwXwXwXwXwXwXwXwXwXwXwXwXq q i t d h c v v ;.P.P.P.P.P.P.Z.Z.&.&.l t : wXwXwXwXwXwXwXwXwXwXwX",
"wXwXwXwXwXwXwXwXwXwXwXwXwXwXwX: > q t t h v D.S.Z.K.K.K.S.P.*.&.x t 1 wXwXwXwXwXwXwXwXwXwXwXwXwX",
"wXwXwXwXwXwXwXwXwXwXwXwXwXwXwXwXwXw 0 3.N.D.D.S.S.:XS.7.y.:.b d wXwXwXwXwXwXwXwXwXwXwXwXwXwXwXwX",
"wXwXwXwXwXwXwXwXwXwXwXwXwXwXwXwXwXwXw f f b =.u.u.:.:.:.C j wXwXwXwXwXwXwXwXwXwXwXwXwXwXwXwXwXwX",
"wXwXwXwXwXwXwXwXwXwXwXwXwXwXwXwXwXwXV Z 8.8.w.d.J {.{.J 8.( wXwXwXwXwXwXwXwXwXwXwXwXwXwXwXwXwXwX",
"wXwXwXwXwXwXwXwXwXwXwXwXwXwXwXwXwXV Z 8.w.w.h.J {.{.{.J d._ ( wXwXwXwXwXwXwXwXwXwXwXwXwXwXwXwXwX",
"wXwXwXwXwXwXwXwXwXwXwXwXwXwXwXwXV Z 8.t.t.h.W.{.{.{.J h.d.e./ f wXwXwXwXwXwXwXwXwXwXwXwXwXwXwXwX",
"wXwXwXwXwXwXwXwXwXwXwXwXwXwXwXN B S G R.E.W.|.|.{.(.OXh.d.s.s./ f wXwXwXwXwXwXwXwXwXwXwXwXwXwXwX",
"wXwXwXwXwXwXwXwXwXwXwXwXwXwXe s M.).(.(.(.|.|.{.(.{.Q.j.j.f.f.` [ f wXwXwXwXwXwXwXwXwXwXwXwXwXwX",
"wXwXwXwXwXwXwXwXwXwXwXwXwXe a M.H.`.(.}.}.:X:XOX{.+X+Xa.l.k.k.k.y.F i wXwXwXwXwXwXwXwXwXwXwXwXwX",
"wXwXwXwXwXwXwXwXwXwXwXwXwXe g M.A.`.(.}.:X:X<X,XoXoX#X7X0X0X6X6X3X3XL i wXwXwXwXwXwXwXwXwXwXwXwX",
"wXwXwXwXwXwXwXwXwXwXwXwXwXt g B.i.`.]. X:X>X<X<XoX#X#X0XqXqX0X0X6X3XL i wXwXwXwXwXwXwXwXwXwXwXwX",
"wXwXwXwXwXwXwXwXwXwXwXwXwXwXM m ).[.'.]. X<X<X;XXX=X9XqXqXqXqX7X%X6X3XP % wXwXwXwXwXwXwXwXwXwXwX",
"wXwXwXwXwXwXwXwXwXwXwXwXwXwXM m ^.^.'.'._._..X.XXX*X9X9XqXqX-X7X%X3X3XP u wXwXwXwXwXwXwXwXwXwXwX",
"wXwXwXwXwXwXwXwXwXwXwXwXwXwXwXm T.~.^.[.'.]. X X.X*X9X9X9X9X-X7X7X3X3XK % wXwXwXwXwXwXwXwXwXwXwX",
"wXwXwXwXwXwXwXwXwXwXwXwXwXwX$ M m ~.~.[.[.].].]..X*X@X-X9X9X7X7X6X8XL K % wXwXwXwXwXwXwXwXwXwXwX",
"wXwXwXwXwXwXwXwXwXwXwXwXwX$ $ $ m T.~.~.[.[.'.(.]..X@X@X8X8X8X8X&XL P u wXwXwXwXwXwXwXwXwXwXwXwX",
"wXwXwXwXwXwXwXwXwXwXwXwXO O r g C m R.T.~.[.~.(.]._..X!.!.$Xb.b.L P u wXwXwXwXwXwXwXwXwXwXwXwXwX",
"wXwXwXwXwXwXwXwXwXwXwXwXO @ < e a k A A R.R.R.~.[._._.}..X}.K H n u y wXwXwXwXwXwXwXwXwXwXwXwXwX",
"wXwXwXwXwXwXwXwXwXwXwXwX. O 6 6 e a g k Z A A R.A A G G H G b b x % # wXwXwXwXwXwXwXwXwXwXwXwXwX",
"wXwXwXwXwXwXwXwXwXwXwXwXX X 5.6 6 p p s g k h C C C C b h j d x v.# % wXwXwXwXwXwXwXwXwXwXwXwXwX",
"wXwXwXwXwXwXwXwXwXwXwXwXX X o x.@.7 9 7 p s s s s s s d d 9 *.z.# # # wXwXwXwXwXwXwXwXwXwXwXwXwX",
"wXwXwXwXwXwXwXwXwXwXwXwXwXX o + + @.x.*.7 7 0 p p p p p *.z.: # @ O wXwXwXwXwXwXwXwXwXwXwXwXwXwX",
"wXwXwXwXwXwXwXwXwXwXwXwXwXwXwXo + * * * *.*.*.7 9 7 *.*.= = + @ wXwXwXwXwXwXwXwXwXwXwXwXwXwXwXwX",
"wXwXwXwXwXwXwXwXwXwXwXwXwXwXwXwXwX* * * - * * * * * * * : + wXwXwXwXwXwXwXwXwXwXwXwXwXwXwXwXwXwX",
"wXwXwXwXwXwXwXwXwXwXwXwXwXwXwXwXwXwXwXwX- - * * * * - - wXwXwXwXwXwXwXwXwXwXwXwXwXwXwXwXwXwXwXwX"
};
