/* XPM */
static char *result[] = {
/* columns rows colors chars-per-pixel */
"48 51 216 2 ",
"   c #250C0B",
".  c #2C0D0C",
"X  c #380D0E",
"o  c #2E120E",
"O  c #37170F",
"+  c #2C1215",
"@  c #3C1C12",
"#  c #361615",
"$  c #270F11",
"%  c #3D2313",
"&  c #3B2218",
"*  c #2C1828",
"=  c #2E1738",
"-  c #372427",
";  c #3F332D",
":  c #392739",
">  c #441E13",
",  c #451713",
"<  c #551812",
"1  c #4C130F",
"2  c #44230F",
"3  c #59250E",
"4  c #442413",
"5  c #4A2414",
"6  c #4A2918",
"7  c #582C1A",
"8  c #56311E",
"9  c #7A3508",
"0  c #6D3416",
"q  c #472928",
"w  c #40332F",
"e  c #4F302E",
"r  c #663D28",
"t  c #653E37",
"y  c #7B440D",
"u  c #78450B",
"i  c #6C4413",
"p  c #744B13",
"a  c #764818",
"s  c #7B5017",
"d  c #524334",
"f  c #6B4825",
"g  c #754627",
"h  c #6C4339",
"j  c #744939",
"k  c #725529",
"l  c #312D79",
"z  c #3A3678",
"x  c #302A6B",
"c  c #2F1E44",
"v  c #553948",
"b  c #452E50",
"n  c #473A77",
"m  c #543F7C",
"M  c #5E3F6E",
"N  c #5C5341",
"B  c #55465A",
"V  c #4F4D5D",
"C  c #6E4D4A",
"Z  c #544C78",
"A  c #565070",
"S  c #6A5667",
"D  c #5E6661",
"F  c #6B7166",
"G  c #9B1E0B",
"H  c #971D0B",
"J  c #A41F0D",
"K  c #AB1F0F",
"L  c #9B240D",
"P  c #84340A",
"I  c #8C350B",
"U  c #99370D",
"Y  c #82361E",
"T  c #AC200E",
"R  c #A1220D",
"E  c #A92410",
"W  c #B32110",
"Q  c #B92113",
"!  c #B93A18",
"~  c #AB3314",
"^  c #993826",
"/  c #91372F",
"(  c #A63728",
")  c #A93D33",
"_  c #C72419",
"`  c #C43E19",
"'  c #D1271E",
"]  c #DB2F2F",
"[  c #D9322F",
"{  c #DD3231",
"}  c #DC3B34",
"|  c #DC2F31",
" . c #E23335",
".. c #E43C36",
"X. c #E63439",
"o. c #E9353C",
"O. c #E63B39",
"+. c #E93A3D",
"@. c #824A0E",
"#. c #885318",
"$. c #8E4E17",
"%. c #AF731E",
"&. c #994929",
"*. c #985A28",
"=. c #8E5329",
"-. c #A75332",
";. c #94672D",
":. c #A46B23",
">. c #AA732A",
",. c #BC7B22",
"<. c #B97727",
"1. c #A97732",
"2. c #B36428",
"3. c #C5421B",
"4. c #C84724",
"5. c #E34437",
"6. c #E5443B",
"7. c #E54A3E",
"8. c #E8413D",
"9. c #C47D24",
"0. c #CB7B25",
"q. c #C57927",
"w. c #C37F32",
"e. c #D07F2F",
"r. c #8B334B",
"t. c #9D5844",
"y. c #AB584A",
"u. c #AF4E44",
"i. c #B27A42",
"p. c #9D7574",
"a. c #DA4C56",
"s. c #DB494D",
"d. c #C07E43",
"f. c #DA4A66",
"g. c #DD5767",
"h. c #D64878",
"j. c #DD5677",
"k. c #E06D79",
"l. c #DE6B6B",
"z. c #7B826E",
"x. c #BE8A39",
"c. c #C98429",
"v. c #C68837",
"b. c #D08935",
"n. c #CC9235",
"m. c #C8933C",
"M. c #D09338",
"N. c #878A79",
"B. c #C28642",
"V. c #C49042",
"C. c #C39352",
"Z. c #DAAA65",
"A. c #D8AD69",
"S. c #DAB26E",
"D. c #D7B06B",
"F. c #DDB572",
"G. c #DEB975",
"H. c #E2B676",
"J. c #E5BD7A",
"K. c #E4BA77",
"L. c #E6C17C",
"P. c #3A3585",
"I. c #3A3596",
"U. c #352F88",
"Y. c #453E89",
"T. c #443D95",
"R. c #50388B",
"E. c #4D4685",
"W. c #7C79BC",
"Q. c #3D3BEE",
"!. c #3F3DF2",
"~. c #463DED",
"^. c #543EEE",
"/. c #413EF3",
"(. c #4F3FF4",
"). c #533EF1",
"_. c #7B79C8",
"`. c #4B43EE",
"'. c #5846ED",
"]. c #5D53EC",
"[. c #4442F5",
"{. c #4B44F3",
"}. c #4C49F7",
"|. c #534CF5",
" X c #5547F6",
".X c #5955F6",
"XX c #6A4AEC",
"oX c #774AEC",
"OX c #7A53EC",
"+X c #6546F2",
"@X c #685BF4",
"#X c #6159EE",
"$X c #6A65F0",
"%X c #CC3A9C",
"&X c #8C75AF",
"*X c #93749A",
"=X c #D84E85",
"-X c #DE658B",
";X c #877AC1",
":X c #8252E8",
">X c #B0A9AF",
",X c #9C84A8",
"<X c #A9A2CE",
"1X c #C7C6CA",
"2X c #D3D2CB",
"3X c #DAD3CE",
"4X c #D5D3D3",
"5X c #DBD6D5",
"6X c #DBD5DB",
"7X c #DBD7DC",
"8X c #CAC8D0",
"9X c #E2D8D9",
"0X c #D4CFE4",
"qX c #D5D3E4",
"wX c #D9D6E3",
"eX c None",
/* pixels */
"eXeXeXeXeXeXeXeXeXeXeXeXeXeXeXeXeXeXeXeXI U U U U U eXeXeXeXeXeXeXeXeXeXeXeXeXeXeXeXeXeXeXeXeXeX",
"eXeXeXeXeXeXeXeXeXeXeXeXeXeXeXeXeXeXeXI J W Q Q W W U I eXeXeXeXeXeXeXeXeXeXeXeXeXeXeXeXeXeXeXeX",
"eXeXeXeXeXeXeXeXeXeXeXeXeXeXeXeXeXeXP K K |  . .{ Q T J P eXeXeXeXeXeXeXeXeXeXeXeXeXeXeXeXeXeXeX",
"eXeXeXeXeXeXeXeXeXeXeXeXeXeXeXeXeX9 J T ]  . . . . .] W J P eXeXeXeXeXeXeXeXeXeXeXeXeXeXeXeXeXeX",
"eXeXeXeXeXeXeXeXeXeXeXeXeXeXeXeXeXP J |  . .X.X.X. . .{ K G 9 eXeXeXeXeXeXeXeXeXeXeXeXeXeXeXeXeX",
"eXeXeXeXeXeXeXeXeXeXeXeXeXeXeXeX9 J ]  . . .o.o.X.X. .{ ] J P eXeXeXeXeXeXeXeXeXeXeXeXeXeXeXeXeX",
"eXeXeXeXeXeXeXeXeXeXeXeX  . X 1 H J |  . .X.o.o.o.X.X. .{ K J 9 eXeXeXeXeXeXeXeXeXeXeXeXeXeXeXeX",
"eXeXeXeXeXeXeXeXeXeXeX    X 1 1 G K {  .X.X.o.o.o.o.X.X. .] K G 9 eXeXeXeXeXeXeXeXeXeXeXeXeXeXeX",
"eXeXeXeXeXeXeXeXeXeXeX  . X , < H | | } o.o.o.o.o.o.o.o.X.| | K P eXeXeXeXeXeXeXeXeXeXeXeXeXeXeX",
"eXeXeXeXeXeXeXeXeXeXeXeX+ X 1 3 L | } X.o.o.+.+.o.o.o.o.X. .| K P eXeXeXeXeXeXeXeXeXeXeXeXeXeXeX",
"eXeXeXeXeXeXeXeXeXeXeXeXeX, < 3 0  .} o.o.o.o.+.o.o.o.o.X.| | Q U I 9 eXeXeXeXeXeXeXeXeXeXeXeXeX",
"eXeXeXeXeXeXeXeXeXeXeXeXeXeXeX7 0 0 } } O.+.+.+.+.o.o.o.' _ _ Q W J G 9 eXeXeXeXeXeXeXeXeXeXeXeX",
"eXeXeXeXeXeXeXeXeXeXeXeX4 6 7 i / &.Y s.5.6.+.+.+.+.' ' X.X. . .{ ] R G 9 eXeXeXeXeXeXeXeXeXeXeX",
"eXeXeXeXeXeXeXeXeXeXeX% p #.#.#.*.<.&.&.7.5.6.8.+.+.+.+.X.X.X. . .{ ] R L 9 eXeXeXeXeXeXeXeXeXeX",
"eXeXeXeXeXeXeXeXeXeX% p s D.S.*.w.w.q.&.-.7.7.7.8.8.+.+.+.o.o.X...} } [ L 9 eXeXeXeXeXeXeXeXeXeX",
"eXeXeXeXeXeXeXeXeXeX4 s D.S.F.H.v.v.>.2.4.2.4.7.6.5.8.....O.......} } } L 9 eXeXeXeXeXeXeXeXeXeX",
"eXeXeXeXeXeXeXeXeXeX% s D.S.G.L.v.1.K.K.K.b.4.4.4.6.8.8.8.8.5.5...5.} } E 9 eXeXeXeXeXeXeXeXeXeX",
"eXeXeXeXeXeXeXeXeXeX6 s D.G.G.m.1.L.J.J.K.K.b.b.b.3.` ` 5.5.5.5.5.} ~ ~ Z.u > eXeXeXeXeXeXeXeXeX",
"eXeXeXeXeXeXeXeXeXeX% s D.G.k m.1.L.L.J.L.K.n.b.b.e.0.0.` ` 3.3.` ! 0.Z.Z.u 2 eXeXeXeXeXeXeXeXeX",
"eXeXeXeXeXeXeXeXeXeX% i D.k k x.1.L.L.L.L.J.n.n.c.c.0.0.0.0.0.0.0.0.,.Z.Z.u 2 eXeXeXeXeXeXeXeXeX",
"eXeXeXeXeXeXeXeXeXeX% p s f k G.1.L.L.L.L.L.n.n.c.c.c.c.0.0.0.0.9.,.,.Z.@.u > eXeXeXeXeXeXeXeXeX",
"eXeXeXeXeXeXeXeXeXeXeX% p 8 k S.G.1.L.L.L.M.n.n.c.c.c.c.c.0.9.c.,.,.@.@.u 4 eXeXeXeXeXeXeXeXeXeX",
"eXeXeXeXeXeXeXeXeXeXeXeX4 6 d k F.G.1.1.m.n.n.n.c.c.c.,.c.c.c.,.,.%.$.@.5 eXeXeXeXeXeXeXeXeXeXeX",
"eXeXeXeXeXeXeXeXeXeXeXeXeXeX6 #.=.F.G.G.L.L.m.v.c.c.c.c.,.,.c.%.,.$.@.6 eXeXeXeXeXeXeXeXeXeXeXeX",
"eXeXeXeXeXeXeXeXeXeXeXeXeXeXeXe #.#.F.F.K.v.v.v.x.n.v.w.<.w.<.,.%.%.y 2 eXeXeXeXeXeXeXeXeXeXeXeX",
"eXeXeXeXeXeXeXeXeXeXeXeXeXeXeXeX8 a *.*.H.d.B.d.B.x.i.*.*.-.<.>.>.:.u 2 eXeXeXeXeXeXeXeXeXeXeXeX",
"eXeXeXeXeXeXeXeXeXeXeXeXeXeXeXeXeXeXg &.-.-.-.y.t.y.-.a.a.&.=.$.@.y 0 @ eXeXeXeXeXeXeXeXeXeXeXeX",
"eXeXeXeXeXeXeXeXeXeXeXeXeXeXeXeXeXC ( ) a.a.p.:XOXOXh.f.f.S / / g 6 % eXeXeXeXeXeXeXeXeXeXeXeXeX",
"eXeXeXeXeXeXeXeXeXeXeXeXeXeXeXeXv ^ ( s.a.f.f.:XoXoXh.h.h.XXM / g eXeXeXeXeXeXeXeXeXeXeXeXeXeXeX",
"eXeXeXeXeXeXeXeXeXeXeXeXeXeXeXv S ( ) s.f.f.h.:XoXXXoX%X+X^.m r.j eXeXeXeXeXeXeXeXeXeXeXeXeXeXeX",
"eXeXeXeXeXeXeXeXeXeXeXeXeXeXb v ( -.a.f.g.j.=XoX+X+X+X%X^.^.R.m r.h eXeXeXeXeXeXeXeXeXeXeXeXeXeX",
"eXeXeXeXeXeXeXeXeXeXeXeXeXeXM S -.u.g.g.j.=X*X:X+X^.+X).).^.^.R.r.F : eXeXeXeXeXeXeXeXeXeXeXeXeX",
"eXeXeXeXeXeXeXeXeXeXeXeXeXV F y.i.l.k.k.-X-X&XOX+X X X).{.`.`.T.E.8XD w eXeXeXeXeXeXeXeXeXeXeXeX",
"eXeXeXeXeXeXeXeXeXeXeXeXeXN N.2X5X9X9X7X9X,X&X@X+X|. X X[.{.{.`.T.1X1XD - eXeXeXeXeXeXeXeXeXeXeX",
"eXeXeXeXeXeXeXeXeXeXeXeXw p.2X3X9X7X7X7XwX0X&X@X.X X{./.[.}.}.`.T.1X1XD - eXeXeXeXeXeXeXeXeXeXeX",
"eXeXeXeXeXeXeXeXeXeXeX; z.2X1X>X7X7X9XwXwXqX;X@X.X|.{.[.[.[.[.[.T.Y.1XD - eXeXeXeXeXeXeXeXeXeXeX",
"eXeXeXeXeXeXeXeXeXeXeXw F 2X2X>X7X>XwXwXwX<X$X.X.X|.[.[.[.[.[.[.I.P.1XD * eXeXeXeXeXeXeXeXeXeXeX",
"eXeXeXeXeXeXeXeXeXeXeXw z.1X1X2X7X>XwXwXwXwX_.$X.X}.[.[.[.[.!.!.P.z A V * eXeXeXeXeXeXeXeXeXeXeX",
"eXeXeXeXeXeXeXeXeXeXeXeXd z.2X2X4X7XwXqXqXqX_..X.X}.[.!.[.!.!.Q.P.A c * eXeXeXeXeXeXeXeXeXeXeXeX",
"eXeXeXeXeXeXeXeXeXeXeXeXw d z.N.4X7X7XqXqX_.#X.X}.}.[.[.!.!.!.U.l c eXeXeXeXeXeXeXeXeXeXeXeXeXeX",
"eXeXeXeXeXeXeXeXeXeXeXeXeXeXN D eXeXeXeXeX$X]..X(.(./.Q.Q.~.T.l l eXeXeXeXeXeXeXeXeXeXeXeXeXeXeX",
"eXeXeXeXeXeXeXeXeXeXeXeXeXeXeXeXeXeX$X$X].].].|./.~.~.I.U.U.l x eXeXeXeXeXeXeXeXeXeXeXeXeXeXeXeX",
"eXeXeXeXeXeXeXeXeXeXeXeXeXeXeXe v A A ].].].|.`.{.~.~.U.U.l x = eXeXeXeXeXeXeXeXeXeXeXeXeXeXeXeX",
"eXeXeXeXeXeXeXeXeXeXeXeXeXeX6 w 1.i.C Z E.E.'.`.(.~.Y.Y.h t e * * eXeXeXeXeXeXeXeXeXeXeXeXeXeXeX",
"eXeXeXeXeXeXeXeXeXeXeXeXeX# & i >.C.j v t.C n m n n b t t r 7 + $ eXeXeXeXeXeXeXeXeXeXeXeXeXeXeX",
"eXeXeXeXeXeXeXeXeXeXeXeXeX# & i i a e g h j j C h h e r r 8 * + $ eXeXeXeXeXeXeXeXeXeXeXeXeXeXeX",
"eXeXeXeXeXeXeXeXeXeXeXeXeXo O x.i p a g g g g g r t : - # # 3 $ $ eXeXeXeXeXeXeXeXeXeXeXeXeXeXeX",
"eXeXeXeXeXeXeXeXeXeXeXeXeX$ % x.x.:.:.a a a g a g :.> 0 3 3 o o   eXeXeXeXeXeXeXeXeXeXeXeXeXeXeX",
"eXeXeXeXeXeXeXeXeXeXeXeXeXo O % 2 5 6 :.:.m.V.V.V.4 > @ # # o . eXeXeXeXeXeXeXeXeXeXeXeXeXeXeXeX",
"eXeXeXeXeXeXeXeXeXeXeXeXeXeXo % @ 2 5 5 5 5 5 6 5 > # # O . . eXeXeXeXeXeXeXeXeXeXeXeXeXeXeXeXeX",
"eXeXeXeXeXeXeXeXeXeXeXeXeXeXeXeXeXeXeX4 > 5 5 > > > eXeXeXeXeXeXeXeXeXeXeXeXeXeXeXeXeXeXeXeXeXeX"
};
