/* XPM */
static char *result[] = {
/* columns rows colors chars-per-pixel */
"59 67 229 2 ",
"   c #2D1B19",
".  c #281816",
"X  c #331E1C",
"o  c #3A1D18",
"O  c #3C231D",
"+  c #36201C",
"@  c #2C1E24",
"#  c #382525",
"$  c #392737",
"%  c #372B30",
"&  c #43261F",
"*  c #44281F",
"=  c #5E2E1B",
"-  c #672F1C",
";  c #732B1D",
":  c #6B331E",
">  c #64321D",
",  c #77331E",
"<  c #462B22",
"1  c #492925",
"2  c #562A28",
"3  c #4A3329",
"4  c #523429",
"5  c #5B3A2A",
"6  c #583428",
"7  c #483938",
"8  c #4A2F37",
"9  c #6C3623",
"0  c #613D2B",
"q  c #693627",
"w  c #733B23",
"e  c #773826",
"r  c #693733",
"t  c #743A35",
"y  c #6E2E28",
"u  c #6C191B",
"i  c #5F412E",
"p  c #66412C",
"a  c #6A442D",
"s  c #6F492E",
"d  c #734A2D",
"f  c #79462B",
"g  c #7D532F",
"h  c #6D4933",
"j  c #684533",
"k  c #734D33",
"l  c #744737",
"z  c #7C5334",
"x  c #775538",
"c  c #7E6437",
"v  c #2F3154",
"b  c #363357",
"n  c #3E2C42",
"m  c #393765",
"M  c #393A71",
"N  c #48334E",
"B  c #44365A",
"V  c #4D334A",
"C  c #6A3B44",
"Z  c #473867",
"A  c #48397A",
"S  c #583B6F",
"D  c #6F3E6A",
"F  c #755747",
"G  c #6C494F",
"H  c #6F635C",
"J  c #6E4468",
"K  c #6A6462",
"L  c #736A65",
"P  c #78736A",
"I  c #574560",
"U  c #8B1618",
"Y  c #961819",
"T  c #910F12",
"R  c #A91B1C",
"E  c #931C27",
"W  c #AC1E24",
"Q  c #9A2626",
"!  c #873826",
"~  c #963728",
"^  c #883A35",
"/  c #963937",
"(  c #8B2A29",
")  c #AA2524",
"_  c #B9282A",
"`  c #BB362C",
"'  c #AF2D37",
"]  c #8B211F",
"[  c #CA2A3D",
"{  c #C13636",
"}  c #844B2C",
"|  c #874734",
" . c #865933",
".. c #8F5230",
"X. c #A64B37",
"o. c #AA5434",
"O. c #896839",
"+. c #946537",
"@. c #92733B",
"#. c #A5683C",
"$. c #AF7E33",
"%. c #8D3C45",
"&. c #B2284E",
"*. c #BE3769",
"=. c #C82D44",
"-. c #D22E43",
";. c #CD3648",
":. c #D43345",
">. c #D93346",
",. c #D5354B",
"<. c #DB354C",
"1. c #D43A4B",
"2. c #DB3A4B",
"3. c #D33946",
"4. c #C7345A",
"5. c #DD3B52",
"6. c #D13553",
"7. c #C6366A",
"8. c #C5387A",
"9. c #8D5443",
"0. c #A94443",
"q. c #957945",
"w. c #8B704F",
"e. c #B67C43",
"r. c #B67E5D",
"t. c #8B7A6D",
"y. c #B67A76",
"u. c #AC7D71",
"i. c #DB434C",
"p. c #DA4659",
"a. c #CB434D",
"s. c #DC5465",
"d. c #DC4D61",
"f. c #E16567",
"g. c #DF6062",
"h. c #BB8A34",
"j. c #AE853D",
"k. c #C49335",
"l. c #CA9C34",
"z. c #CA9C3A",
"x. c #C49738",
"c. c #C08F33",
"v. c #CDA036",
"b. c #D2A435",
"n. c #D7AA36",
"m. c #D2A539",
"M. c #D5AB39",
"N. c #D9AD39",
"B. c #D9AD36",
"V. c #DDB336",
"C. c #DCB33A",
"Z. c #E4BC37",
"A. c #E4BD39",
"S. c #E0B736",
"D. c #E7C13B",
"F. c #9C8349",
"G. c #A3884B",
"H. c #AD934B",
"J. c #B99C57",
"K. c #AF914E",
"L. c #BEA15E",
"P. c #968B75",
"I. c #9B947B",
"U. c #858171",
"Y. c #A78B75",
"T. c #A7A07F",
"R. c #C78846",
"E. c #D4934C",
"W. c #CDA443",
"Q. c #D5AA41",
"!. c #DDB543",
"~. c #C5A55C",
"^. c #D3A65E",
"/. c #CFB25D",
"(. c #E2BC44",
"). c #C3A561",
"_. c #DBAC64",
"`. c #D8A761",
"'. c #DAB765",
"]. c #E4AB66",
"[. c #E3AD67",
"{. c #E2B169",
"}. c #CC9262",
"|. c #E6C243",
" X c #E8C647",
".X c #DBC365",
"XX c #E4CC65",
"oX c #E9D56C",
"OX c #EEDC72",
"+X c #F3E67A",
"@X c #F5E97E",
"#X c #F3E576",
"$X c #65438D",
"%X c #5D4185",
"&X c #4B4CDC",
"*X c #454ADB",
"=X c #554CDE",
"-X c #4E51DF",
";X c #6F4EDC",
":X c #484EE1",
">X c #4D52E4",
",X c #4F55E9",
"<X c #5253E4",
"1X c #5356EA",
"2X c #5B53E7",
"3X c #5A4FE1",
"4X c #6552E3",
"5X c #C43A86",
"6X c #A49E82",
"7X c #B5A98C",
"8X c #979289",
"9X c #D1BB9E",
"0X c #D0BDA0",
"qX c #F6EC82",
"wX c #F8EE85",
"eX c #F9EF88",
"rX c #F9F088",
"tX c #CEC7A7",
"yX c #DAD4B5",
"uX c #DDDABA",
"iX c #DAD7B6",
"pX c #D2CEAD",
"aX c #E4D2B5",
"sX c #E3DBBC",
"dX c #E5D6B9",
"fX c #E6CEB1",
"gX c #E4DFC0",
"hX c #E5E1C2",
"jX c None",
/* pixels */
"jXjXjXjXjXjXjXjXjXjXjXjXjXjXjXjXjXjXjXjXjXjXjXjXjXjXjXjXjXjXjXjXjXjXjXjXjXjXjXjXjXG.G.F.q.jXjXjXjXjXjXjXjXjXjXjXjXjXjX",
"jXjXjXjXjXjXjXjXjXjXjXjXjXjXjXjXjXjXjXjXjXjXjXjXjXjXjXjXjXjXjXjXjXjXjXjXjXjXjXH.G.H.K.H.w.w.x jXjXjXjXjXjXjXjXjXjXjXjX",
"jXjXjXjXjXjXjXjXjXjXjXjXjXjXjXjXjXjXjXjXjXjXjXjXjXjXjXjXjXjXjXjXjXjXjXjXjXF.G.K.H.L.OXoXq.q.z l jXjXjXjXjXjXjXjXjXjXjX",
"jXjXjXjXjXjXjXjXjXjXjXjXjXjXjXjXjXjXjXjXjXjXjXjXjXjXjXjXjXjXjXjXjXjXjXjXF.G.H.L.+X@X+X.XXXXXO. .k j jXjXjXjXjXjXjXjXjX",
"jXjXjXjXjXjXjXjXjXjXjXjXjXjXjXjXjXjXjXjXjXjXjXjXjXjXjXjXjXjXjXjXjXjXjXq.F.H.@XqXqXqX@X@X.X.Xx.O.x s i jXjXjXjXjXjXjXjX",
"jXjXjXjXjXjXjXjXjXjXjXjXjXjXjXjXjXjXjXjXjXjXjXjXjXjXjXjXjXjXjXjXjXjXq.F.H.+X@XqXqXqXqX@XoXoXW.R.b.z d p jX6 3 jXjXjXjX",
"jXjXjXjXjXjXjXjXjXjXjXjXjXjXjXjXjXjXjXjXjXjXjXjXjXjXjXjXjXjXjXjXjX@.F.G.+XqXqXwXrXwXqX@XOXOXW.C.M.b.g d p i 6 < jXjXjX",
"jXjXjXjXjXjXjXjXjXjXjXjXjXjXjXjXjXjXjXjXjXjXjXjXjXjXjXjXjXjXjXjXjXq.G.+X+XqXwXrXrXrXwXoXXXXXQ.W.C.B.n.g @. .0 = 4 jXjX",
"jXjXjXjXjXjXjXjXjXjXjXjXjXjXjXjXjXjXjXjXjXjXjXjXjXjXjXjXjXjXjXjXO.F.H.+XqXrXrXrXrXrX@X#XoX(.(.Q.S.V.n.l.g h. .5 6 jXjX",
"jXjXjXjXjXjXjXjXjXjXjXjXjXjXjXjXjXjXjXjXjXjXjXjXjXjXjXjXjXjXjXjXq.F.#X+X@XrXrXrXrX@X#X#XXX!.(.A.b.V.V.n.l.g @.p 5 jXjX",
"jXjXjXjXjXjXjXjXjXjXjXjXjXjXjXjXjXjXjXjXjXjXjXjXjXjXjXjXjXjXjXjXq.G.#XqXqXwXwXwXOX#X@XoX(. X|.D.Z.S.S.V.l.l.g a jXjXjX",
"jXjXjXjXjXjXjXjXjXjXjXjXjXjXjXjXjXjXjXjXjXjXjXjXjXjXjXjXjXjXjXc @.G.+X+X@XwXqX#XoXoXoX X X|.|.A.Z.Z.S.V.l.l. .g s jXjX",
"jXjXjXjXjXjXjXjXjXjXjXjXjXjXjXjXjXjXjXjXjXjXjXjXjXjXjXjXjXjXjX@.@.XXoX@X@XoX#X#X#X X|. X X XN.D.Z.Z.Z.S.b.v.l.} k jXjX",
"jXjXjXjXjXjXjXjXjXjXjXjXjXjXjXjXjXjXjXjXjXjXjXjXjXjXjXjXjXjXjXF @.XX/.oX.X.X#X#XXX!. X X XD.D.B.B.Z.S.S.n.k.l. .f s jX",
"jXjXjXjXjXjXjXjXjXjXjXjXjXjXjXjXjXjXjXjXjXjXjXjXjXjXjXjXjXjXjXjXj c XXoX.X.X.XXX!.!.!.|.D.D.D.B.n.n.Z.S.B.k.c.l. .k a ",
"jXjXjXjXjXjXjXjXjXjXjXjXjXjXjXjXjXjXjXjXjXjXjXjXjXjXjXjXjXjXjXjXi h c /.J.M.M.|.|.|.C.Q.D.D.D.D.n.n.b.S.B.b.k.l. .k s ",
"jXjXjXjXjXjXjXjXjXjXjXjXjXjXjXjXjXjXjXjXjXjXjXjXjXjXjXjXjXjXjXjXjXj x O.H.W.C.|.(.A.D.D.B.D.D.Z.D.n.b.v.B.m.x.h.).z l ",
"jXjXjXjXjXjXjXjXjXjXjXjXjXjX; ; ; ; ; jXjXjXjXjXjXjXjXjXjXjXjXjXjXjXh x n.Q.v.V.A.A.A.Z.D.Z.D.D.D.Z.b.b.N.m.b.c. . .k ",
"jXjXjXjXjXjXjXjXjXjXjXjX; ; T T T T T ; ; jXjXjXjXjXjXjXjXjXjXjXjXjXp k  .b.V.V.S.A.Z.Z.Z.Z.Z.Z.A.Z.V.v.z.M.m.x.).z l ",
"jXjXjXjXjXjXjXjXjXjXjXy Y Y =.[ [ [ [ Y T , jXjXjXjXjXjXjXjXjXjXjXjXjXs g O.O.h.C.C.Z.b.Z.Z.Z.Z.Z.Z.N.B.z.m.z.).).x l ",
"jXjXjXjXjXjX.   X jXe Y Y =.-.-.-.-.-.[ =.Y e jXjXjXjXjXjXjXjXjXjXjXjXh d  .h.h.k.V.V.S.b.b.Z.Z.Z.N.N.N.m.m.v.).z k l ",
"jXjXjXjXjX.   X o & Y E 9X-.-.>.:.-.:.;.,.Q | jXjXi 7 7 i jXi % 3 4 j h d +.h.h.c.j.B.B.V.l.l.B.N.N.M.x.x.z.).z k h jX",
"jXjXjXjXjX.   X 1 2 Q 9X3.,.<.<.<.<.,.6.6.4./ C G P P P P I L L L j h k +.h.h.h.h. .v.v.v.b.l.l.z.m.m.x.h.).L.k h 0 jX",
"jXjXjXjXjX    # 1 2 9X9X:.<.<.<.<.<.5.a.p.p.u.t.U.6X6X6XU.P t.8XF G l q.l.l.$.f g g  .l.l.l.v.h.k.k.v.l.).L.k a 0 jXjX",
"jXjXjXjXjXjXX O 1 2 9X>.,.,.<.5.5.5.5.p.s.u.u.7XyXyXyX7X7XpXpXL F F q.z.z.$.h s d s d d g l.l.l.l.x.L.~.k h j 5 jXjXjX",
"jXjXjXjXjXjX# < 2 2 =.,.,.<.5.<.<.5.p.d.s.y.7XiXyXuXgX7XuXiXiXP.t.F.W.m.$.l h r jXjXp p a d J.L.k L.J.h a 5 5 jXjXjXjX",
"jXjXjXjXjXjXjX1 2 2 Q :.,.,.<.<.5.5.p.d.y.Y.dXdXgXuXhXgXuXuXiXI.Y.^.~.K.F h j jXjXjXjX6 5 0 p a a a 0 0 5 4 jXjXjXjXjX",
"jXjXjXjXjXjXjX2 6 r y ;.,.>.<.<.5.5.d.s.y.fXdXdX0XhXhXhXgXsXsX6XI./.J.F G j jXjXjXjXjXjXjX6 6 6 6 5 6 4 jXjXjXjXjXjXjX",
"jXjXjX< < 3 4 5 r r t W :.:.<.<.5.5.p.y.y.fXdX9XhXhX0XgXgXgXuX6XI.P.w.F x K 3 jXjXjXjXjXjXjXjXjXjXjXjXjXjXjXjXjXjXjXjX",
"jXjX3 f f f g } | ..t ^ 3.:.>.<.5.5.{ a.fXaXdXdXhX0XgXgXgXgXgXuXiXI.pXtXP.K % jXjXjXjXjXjXjXjXjXjXjXjXjXjXjXjXjXjXjXjX",
"jX4 f f `.^.R.....`.X.^ ) 3.2.>.<.[ [ p.g.fXdXdXgXgXgXgXgXuXuXiXiXP.pXtXP.K % jXjXjXjXjXjXjXjXjXjXjXjXjXjXjXjXjXjXjXjX",
"3 f f `.`.`.`.+.]._.o...^ _ 3.2.[ _ <.p.s.f.fXdXuXgXaXgXgXuXiXyXP.T.I.P.K K % jXjXjXjXjXjXjXjXjXjXjXjXjXjXjXjXjXjXjXjX",
"3 f } `._._.+._.{.[.o.o.o.~ _ _ [ <.2.p.d.s.f.f.fXaXaXaXdX7XP.P.T.I.I.K K % jXjXjXjXjXjXjXjXjXjXjXjXjXjXjXjXjXjXjXjXjX",
"4 f  .`._.+.E._.{.#.{.].].o._ _ [ <.5.5.p.s.s.s.s.Y.u.P.u.t.0.9.P L L L % jXjXjXjXjXjXjXjXjXjXjXjXjXjXjXjXjXjXjXjXjXjX",
"3 f f R.h x ].#.#.{.].].].E._ >.2.>.<.2.2.p.p.` 0.&.0.0.0.%./ / H K % % jXjXjXjXjXjXjXjXjXjXjXjXjXjXjXjXjXjXjXjXjXjXjX",
"< f l i h k ].q.#.{.].].]._ { 2.<.>.>.<.<.2._ ` i.a.a.' ..( ( ( 3 3 jXjXjXjXjXjXjXjXjXjXjXjXjXjXjXjXjXjXjXjXjXjXjXjXjX",
"jX< f 5 i h '.+.#.{.{.[.E.{ i.i.>.>.>.>.[ R _ [ a.a.Q } } U t 9 jXjXjXjXjXjXjXjXjXjXjXjXjXjXjXjXjXjXjXjXjXjXjXjXjXjXjX",
"jXjX< 3 5 a _._.#.{.[.[.` i.i.2.>.>.>.[ R R R R R Y Y ! U 9 jXjXjXjXjXjXjXjXjXjXjXjXjXjXjXjXjXjXjXjXjXjXjXjXjXjXjXjXjX",
"jXjXjX3 4 p ^.].#.Q.[.` ` i.2.2.>.>.>.R ~ ~ ~ ! ! ! , , ; jXjXjXjXjXjXjXjXjXjXjXjXjXjXjXjXjXjXjXjXjXjXjXjXjXjXjXjXjXjX",
"jXjXjXjX1 ^ c.`.].o.E.` i.i.2.,.[ [ R ) ~ ~ ! ! , }.; & jXjXjXjXjXjXjXjXjXjXjXjXjXjXjXjXjXjXjXjXjXjXjXjXjXjXjXjXjXjXjX",
"jXjXjXjX< f } ^.].]._ ` 3.2.<.:.i.R ~ ~ ~ ! ! , , , - o jXjXjXjXjXjXjXjXjXjXjXjXjXjXjXjXjXjXjXjXjXjXjXjXjXjXjXjXjXjXjX",
"jXjXjXjXjX1 ! | R.R._ 3.2.1.<.,.W ~ ~ ! ! ! , , , ; - o jXjXjXjXjXjXjXjXjXjXjXjXjXjXjXjXjXjXjXjXjXjXjXjXjXjXjXjXjXjXjX",
"jXjXjXjXjXjX2 ! | ) ,.,.1.,.,.W ~ / ! ! ! ! , , : & o jXjXjXjXjXjXjXjXjXjXjXjXjXjXjXjXjXjXjXjXjXjXjXjXjXjXjXjXjXjXjXjX",
"jXjXjXjXjXjXjXq y ) ,.,.6.6.) %./ / | ^ e e , : > jXjXjXjXjXjXjXjXjXjXjXjXjXjXjXjXjXjXjXjXjXjXjXjXjXjXjXjXjXjXjXjXjXjX",
"jXjXjXjXjXjXjXC R 6.6.6.4.&.%.%.%.%.&.C e q 9 9 > jXjXjXjXjXjXjXjXjXjXjXjXjXjXjXjXjXjXjXjXjXjXjXjXjXjXjXjXjXjXjXjXjXjX",
"jXjXjXjXjXjXV =.E 6.4.4.&.%.;XD S a.4.C ] U u - jXjXjXjXjXjXjXjXjXjXjXjXjXjXjXjXjXjXjXjXjXjXjXjXjXjXjXjXjXjXjXjXjXjXjX",
"jXjXjXjXjXjXV =.4.4.4.7.7.D ;X;XJ *.*.B N U y jXjXjXjXjXjXjXjXjXjXjXjXjXjXjXjXjXjXjXjXjXjXjXjXjXjXjXjXjXjXjXjXjXjXjXjX",
"jXjXjXjXjXN V &.4.7.8.8.8.$X4X4X3X%X*.S B r jXjXjXjXjXjXjXjXjXjXjXjXjXjXjXjXjXjXjXjXjXjXjXjXjXjXjXjXjXjXjXjXjXjXjXjXjX",
"jXjXjXjXjXN B S 7.7.5X5X$X4X4X4X3X3XA Z Z N jXjXjXjXjXjXjXjXjXjXjXjXjXjXjXjXjXjXjXjXjXjXjXjXjXjXjXjXjXjXjXjXjXjXjXjXjX",
"jXjXjXjXjXN Z =XS %X$X$X4X2X2X2X<X=X<X&XB b jXjXjXjXjXjXjXjXjXjXjXjXjXjXjXjXjXjXjXjXjXjXjXjXjXjXjXjXjXjXjXjXjXjXjXjXjX",
"jXjXjXjXb m *X:X3X3X2X2X2X2X1X1X<X<X=X&XZ b jXjXjXjXjXjXjXjXjXjXjXjXjXjXjXjXjXjXjXjXjXjXjXjXjXjXjXjXjXjXjXjXjXjXjXjXjX",
"jXjXjXjXb m :X:X<X<X2X2X1X2X1X1X<X>X:X&Xm b jXjXjXjXjXjXjXjXjXjXjXjXjXjXjXjXjXjXjXjXjXjXjXjXjXjXjXjXjXjXjXjXjXjXjXjXjX",
"jXjXjXjXb m *X:X>X,X1X1X1X1X1X1X<X:X-X&Xm v jXjXjXjXjXjXjXjXjXjXjXjXjXjXjXjXjXjXjXjXjXjXjXjXjXjXjXjXjXjXjXjXjXjXjXjXjX",
"jXjXjXjXb M *X:X:X,X,X,X1X1X1X1X<X:X:X&Xb n $ @ jXjXjXjXjXjXjXjXjXjXjXjXjXjXjXjXjXjXjXjXjXjXjXjXjXjXjXjXjXjXjXjXjXjXjX",
"jXjXjXjXv m *X*X:X:X,X,X,X,X,XA Z Z B *Xn $ @ @   jXjXjXjXjXjXjXjXjXjXjXjXjXjXjXjXjXjXjXjXjXjXjXjXjXjXjXjXjXjXjXjXjXjX",
"jXjXjXjXjXb M *X:X:X:X>X>X,XA D J y.N N r r q @   jXjXjXjXjXjXjXjXjXjXjXjXjXjXjXjXjXjXjXjXjXjXjXjXjXjXjXjXjXjXjXjXjXjX",
"jXjXjXjXjXv v M *X:X:X-X-XZ J J r.C C 8 t q q   X jXjXjXjXjXjXjXjXjXjXjXjXjXjXjXjXjXjXjXjXjXjXjXjXjXjXjXjXjXjXjXjXjXjX",
"jXjXjXjXjXjXv m M M *X&X-XB C G r.G t 8 t q q X X jXjXjXjXjXjXjXjXjXjXjXjXjXjXjXjXjXjXjXjXjXjXjXjXjXjXjXjXjXjXjXjXjXjX",
"jXjXjXjXjXjXjXv v m m Z b N C 9.t 8 4 3 9 < # O X   jXjXjXjXjXjXjXjXjXjXjXjXjXjXjXjXjXjXjXjXjXjXjXjXjXjXjXjXjXjXjXjXjX",
"jXjXjXjXjXjXjXjXjXb b b $ 8 t t f e w f 1 9 : > X   jXjXjXjXjXjXjXjXjXjXjXjXjXjXjXjXjXjXjXjXjXjXjXjXjXjXjXjXjXjXjXjXjX",
"jXjXjXjXjXjXjXjXjXjXjX% 8 r t e.w f , w , * > > =   . jXjXjXjXjXjXjXjXjXjXjXjXjXjXjXjXjXjXjXjXjXjXjXjXjXjXjXjXjXjXjXjX",
"jXjXjXjXjXjXjXjXjXjXjX# # y q e.f w w , w < > > =     jXjXjXjXjXjXjXjXjXjXjXjXjXjXjXjXjXjXjXjXjXjXjXjXjXjXjXjXjXjXjXjX",
"jXjXjXjXjXjXjXjXjXjXjX# # q w e.f , w w : < > > =     jXjXjXjXjXjXjXjXjXjXjXjXjXjXjXjXjXjXjXjXjXjXjXjXjXjXjXjXjXjXjXjX",
"jXjXjXjXjXjXjXjXjXjXjX+ + q 9 w j.w w w : O > = +   . jXjXjXjXjXjXjXjXjXjXjXjXjXjXjXjXjXjXjXjXjXjXjXjXjXjXjXjXjXjXjXjX",
"jXjXjXjXjXjXjXjXjXjXjX  # O : 9 w , w : & O O +   . jXjXjXjXjXjXjXjXjXjXjXjXjXjXjXjXjXjXjXjXjXjXjXjXjXjXjXjXjXjXjXjXjX",
"jXjXjXjXjXjXjXjXjXjXjXjXX O O < * < < * & & o     jXjXjXjXjXjXjXjXjXjXjXjXjXjXjXjXjXjXjXjXjXjXjXjXjXjXjXjXjXjXjXjXjXjX",
"jXjXjXjXjXjXjXjXjXjXjXjXjX+ O O * * * O . . . jXjXjXjXjXjXjXjXjXjXjXjXjXjXjXjXjXjXjXjXjXjXjXjXjXjXjXjXjXjXjXjXjXjXjXjX"
};
