/* XPM */
static char *result[] = {
/* columns rows colors chars-per-pixel */
"57 54 227 2 ",
"   c #2B1B18",
".  c #321E1A",
"X  c #34201C",
"o  c #3B221E",
"O  c #2E201E",
"+  c #392725",
"@  c #3A2C32",
"#  c #301F20",
"$  c #792B1D",
"%  c #67361E",
"&  c #6D2D1E",
"*  c #432C24",
"=  c #462B27",
"-  c #4A362A",
";  c #5D3B2B",
":  c #54372B",
">  c #443834",
",  c #573C33",
"<  c #512F2C",
"1  c #623E29",
"2  c #6C3825",
"3  c #773823",
"4  c #673C37",
"5  c #753C38",
"6  c #712F20",
"7  c #7D181B",
"8  c #64431E",
"9  c #584338",
"0  c #514335",
"q  c #6B452C",
"w  c #694629",
"e  c #734C2B",
"r  c #794528",
"t  c #7A522C",
"y  c #77502A",
"u  c #6A4C3A",
"i  c #684536",
"p  c #754D33",
"a  c #78483A",
"s  c #7B5334",
"d  c #775439",
"f  c #6D533C",
"g  c #7E6036",
"h  c #37304F",
"j  c #363767",
"k  c #3A3C77",
"l  c #4F364C",
"z  c #6B3949",
"x  c #493767",
"c  c #503768",
"v  c #3D407D",
"b  c #594943",
"n  c #5E5649",
"m  c #674A41",
"M  c #784448",
"N  c #685146",
"B  c #7A5744",
"V  c #734658",
"C  c #7B775C",
"Z  c #736756",
"A  c #51476E",
"S  c #7E7E63",
"D  c #747561",
"F  c #6E6F60",
"G  c #67536C",
"H  c #9D1215",
"J  c #951718",
"K  c #8F1315",
"L  c #A5181C",
"P  c #84291F",
"I  c #9B271E",
"U  c #883526",
"Y  c #953227",
"T  c #8B2F23",
"R  c #A5332A",
"E  c #A93832",
"W  c #B5382F",
"Q  c #A91E21",
"!  c #CB2B3C",
"~  c #C8353F",
"^  c #834B2C",
"/  c #845B2E",
"(  c #884837",
")  c #914B38",
"_  c #845C33",
"`  c #8B5C34",
"'  c #87563A",
"]  c #955637",
"[  c #A74538",
"{  c #A75A35",
"}  c #8A612D",
"|  c #956A2E",
" . c #8A6838",
".. c #946839",
"X. c #8B7436",
"o. c #957A37",
"O. c #99792F",
"+. c #A96A37",
"@. c #AC743B",
"#. c #B17B3E",
"$. c #D94B3F",
"%. c #9C2C4E",
"&. c #D12E42",
"*. c #CC3743",
"=. c #D33245",
"-. c #D63948",
";. c #CF2C41",
":. c #834343",
">. c #875A42",
",. c #8C4C4B",
"<. c #AE4648",
"1. c #976C44",
"2. c #987645",
"3. c #8B6A4C",
"4. c #AC7848",
"5. c #8E7F65",
"6. c #CE4146",
"7. c #DB4B44",
"8. c #D74747",
"9. c #D45347",
"0. c #D34C58",
"q. c #CE4B6E",
"w. c #98833A",
"e. c #A28C3E",
"r. c #B78936",
"t. c #B88F30",
"y. c #C5992C",
"u. c #C5992A",
"i. c #C59437",
"p. c #CCA32B",
"a. c #CDA329",
"s. c #D3AB2C",
"d. c #D6AC2C",
"f. c #DBB32D",
"g. c #DCB72D",
"h. c #CDA333",
"j. c #D3AC32",
"k. c #D1A834",
"l. c #DBB530",
"z. c #DEB931",
"x. c #D8B43D",
"c. c #E1BD2D",
"v. c #E1BB31",
"b. c #E1BC39",
"n. c #E5C32D",
"m. c #E8C72F",
"M. c #EAC92E",
"N. c #E5C433",
"B. c #EACA33",
"V. c #EBCD3B",
"C. c #E6C636",
"Z. c #B38344",
"A. c #A99443",
"S. c #B19744",
"D. c #BDA74C",
"F. c #858269",
"G. c #98997C",
"H. c #8B8C73",
"J. c #968248",
"K. c #C79847",
"L. c #CE9446",
"P. c #C2AA4E",
"I. c #D7B644",
"U. c #C6AE51",
"Y. c #CCB354",
"T. c #CDBA5D",
"R. c #D3A84E",
"E. c #DAAD68",
"W. c #DBB46B",
"Q. c #DCB66B",
"!. c #DEBA71",
"~. c #DEB777",
"^. c #CEBD62",
"/. c #E2B56D",
"(. c #E2BD74",
"). c #E2BC7A",
"_. c #E1B575",
"`. c #E3C343",
"'. c #EDD241",
"]. c #D7C567",
"[. c #E7D46D",
"{. c #E3C177",
"}. c #E4C379",
"|. c #EADB74",
" X c #EBDC77",
".X c #E2CD68",
"XX c #F3E57C",
"oX c #EFE178",
"OX c #3C3F84",
"+X c #3E4187",
"@X c #404390",
"#X c #464ADB",
"$X c #5953DE",
"%X c #6957DB",
"&X c #735DDB",
"*X c #7864D7",
"=X c #484EE1",
"-X c #4A52E5",
";X c #4C54E9",
":X c #4751E4",
">X c #5453E5",
",X c #5754E7",
"<X c #6154E3",
"1X c #8467D2",
"2X c #999C82",
"3X c #A5A58A",
"4X c #B1B398",
"5X c #B8BBA1",
"6X c #DDB580",
"7X c #F4E984",
"8X c #F6EC8B",
"9X c #F8EE8E",
"0X c #F3E682",
"qX c #F9EF92",
"wX c #F7EE90",
"eX c #F9F092",
"rX c #F9F08F",
"tX c #DCC9B3",
"yX c #D5CCB5",
"uX c #CFD0B9",
"iX c #D4D3BC",
"pX c #D9D4BD",
"aX c #D1C6AF",
"sX c #E1C8B4",
"dX c #DBD9C4",
"fX c #D8D7C2",
"gX c None",
/* pixels */
"gXgXgXgXgXgXgXgXgXgXgXgXgXgXgXgXgXgXgXgXgXgXgXgXgXgXgXgXgXgXgXgXgXgXgXgXY Y Y Y Y 7 gXgXgXgXgXgXgXgXgXgXgXgXgXgXgX",
"gXgXgXgXgXgXgXgXgXgXgXgXgXgXgXgXgXgXgXgXgXgXgXgXgXgXgXgXgXgXgXgXgXgXU U L Q Q Q L Y T gXgXgXgXgXgXgXgXgXgXgXgXgXgX",
"gXgXgXgXgXgXgXgXgXgXgXgXgXgXgXgXgXgXgXgXgXgXgXgXgXgXgXgXgXgXgXgXgX3 J Q Q *.=.-.=.L L T P gXgXgXgXgXgXgXgXgXgXgXgX",
"gXgXgXgXgXgXgXgXgXgXgXgXgXgXgXgXgXgXgXgXgXgXgXgXgXgXgXgXgXgXgXgX2 J J *.=.-.-.-.=.=.;.L H $ gXgXgXgXgXgXgXgXgXgXgX",
"gXgXgXgXgXgXgXgXgXgXgXgXgXgXgXgXgXgXgXgXgXgXgXgXgXgXgXgXgXgXgXgX3 J =.*.-.8.7.8.-.-.=.&.L H $ gXgXgXgXgXgXgXgXgXgX",
"gXgXgXgXgXgXgXgXgXgXgXgXgXgXgXgXgXgXgXgXgXgXgXgXgXgXgXgXgXgXgX& K P *.-.7.7.7.7.-.-.-.=.;.H H K gXgXgXgXgXgXgXgXgX",
"gXgXgXgXgXgXgXgXgXgXgXgXgXgXgXgXgXgXgXgXgXgXgXgXgXgXgXgXgXgXgX& K ~ -.tXsXsXsX7.0.-.-.-.&.;.H H P gXgXgXgXgXgXgXgX",
"gXgXgXgXgXgXgXgXgXgXgXgXgXgXgXgXgXgXgXgXgXgXgXgXgXgXgXgXgXgXgX6 K *.aXR fXW sXtX7.7.-.-.&.&.;.H K P $ & gXgXgXgXgX",
"gXgXgXgXgXgXgXgXgXgXgXgXgXgXgXgXgXgXgXgXgXgXgXgXgXgXgXgXgXgXgX2 K *.aXE E E tXtX7.7.7.-.-.-.! ! L J K K $ & gXgXgX",
"gXgXgXgXgXgXgXgXgXgXgXgXgXgXgXgXgXgXgXgXgXgXgXgXgXgXgXgXgXgXgXgX2 J aXY E E tXtX7.7.7.$.$.-.-.-.! L ! ! K $ 6 gXgX",
"gXgXgXgXgXgXgXgXgXgXgXgXgXgXgXgXgXgXgXgXgXgXgXgXgXgXgXgXgXgXgXo = < , 4 z m a ( W 7.$.$.7.-.-.~ ~ ~ ! ! ~ J U gXgX",
"gXgXgXgXgXgXgXgXgXgXgXgXgXgXgXgXgXgXgXgXgXgXgXgXgXgXgXgXgX  . + = < : , i u M M M ) ) ) ^ ~ 7.7.7.6.6.~ ~ ~ J T gX",
"gXgXgXgXgXgXgXgXgXgXgXgXgXgXgXgXgXgXgXgXgXgXgXgXgXgXgXgX    . + = : , i i B d d ' >.>.) [ ) ] ] ) U R 8.*.6.I ^ gX",
"gXgXgXgXgXgXgXgXgXgXgXgXgXgXgXgXgXgXgXgXgXgXgXgXgXgXgXgXgXgXgXgXgX, ( ` E.W.Q.d +.!._._././._.L.+.{ ) Y ^ ] ^ 2 2 ",
"gXgXgXgXgXgXgXgXgXgXgXgXgXgXgXgXgXgXgXgXgXgXgXgXgXgXgXgXgXgXgXgX: 9 u f W.!.Q.3.1.(.(.(.(.(._./.+.+././.E.E.] ] q ",
"gXgXgXgXgXgXgXgXgXgXgXgXgXgXgXgXgXgXgXgXgXgXgXgXgXgXgXgXgXgXgX: / ' .. .!.~.{.1.1.}.(.}.}.(.(.R.@.@./././.E.E.] i ",
"gXgXgXgXgXgXgXgXgXgXgXgXgXgXgXgXgXgXgXgXgXgXgXgXgXgXgXgXgXgX- t K.Q.!.R.{.{.}.2.2.{.}.{.}.}.L.4.#.@.].+.+.W.E.] i ",
"gXgXgXgXgXgXgXgXgXgXgXgXgXgXgXgXgXgXgXgXgXgXgXgXgXgXgXgXgX* r K.W.Q.{.{.}.}.}.Z.J.}.}.}.}.}.4.r.#.#.(.+.Q.Q.E.` w ",
"gXgXgXgXgXgXgXgXgXgXgXgXgXgXgXgXgXgXgXgXgXgXgXgXgXgXgXgXgX* y E.W.!.].{.}.}.}.}.}.{.}.}.}.}.}.Z.4.{.(.Q.Q.W.` ^ , ",
"gXgXgXgXgXgXgXgXgXgXgXgXgXgXgXgXgXgXgXgXgXgXgXgXgXgXgXgXgX* r Y.W.!.(.{.}.}.}.}.{.{.o.2.}.6X}.}.{.(.!.Q.W./ ' 9 gX",
"gXgXgXgXgXgXgXgXgXgXgXgXgXgXgXgXgXgXgXgXgXgXgXgXgXgXgXgXgX+ y i.W.Q.!.{.{.(.(._.!.3.1.1.2.{.}.).).~.~...' 9 9 gXgX",
"gXgXgXgXgXgXgXgXgXgXgXgXgXgXgXgXgXgXgXgXgXgXgXgXgXgXgXgXgXgX- t K.Q.Q.!.!.!.!.R.d  .>.>.1.!.6X6X).~.1.>.u gXgXgXgX",
"gXgXgXgXgXgXgXgXgXgXgXgXgXgXgXgXgXgXgXgXgXgXgXgXgXgXgXgXgXgXgX: 9 } K.K.K.....d d >.>.>.~.~.).6X6X3.N N l gXgXgXgX",
"gXgXgXgXgXgXgXgXgXgXgXgXgXgXgXgXgXgXgXgXgXgXgXgXgXgXgXgXgXgXgXgX- 9 u f f d p u a d a _.~.~.6X1.5.V G A A gXgXgXgX",
"gXgXgXgXgXgXgXgXgXgXgXgXgXgXgXgXgXgXgXgXgXgXgXgXgXgXgXgXgXgXgXgXgX0 b i m m i M a E.E.~.[ <.<.1X1X&X%XA A A gXgXgX",
"gXgXgXgXgXgXgXgXgXX.w.w.w.o.o.X.gXgXgXgXgXgXgXgXgXgXgXgXgXgXgXgXgXgX9 b m m m a ) ] ] E 0.0.q.&X&X&X<X>Xx v j gXgX",
"gXgXgXgXgXgXw.w.e.e.e.A.A.e.e.w.w.X.gXgXgXgXgXgXgXgXgXgXgXgXgXgXgXb b n N m >.) R $.8.8.7.0.q.q.&X<X<X>X=Xv k j gX",
"gXgXgXgXw.w.e.A.A.|.D.|.|.].|.[.w.w.X.gXgXgXgXgXgXgXgXgXgX@ 0 b b n S 5.5.5.) 9.9.8.7.7.0.0.q.q.&X<X,X>X-X=X+Xk gX",
"gXgXw.w.A.A. X X X8X8X8X8X7X0XXXXX[.w. .gXgXgXgXgXgXgX@ 0 F D S F.H.3X3XiXiXiX[ 9.$.6.6.6.0.%.q.<X,X,X,X-X:X+X+Xk ",
"gXw.e.A.|.].7X8X8XqXwXwXwX9X8X8X0X^.w.X.gXgXgXgXgXgX@ n F 2XuXfXH.4XfXfXpXpXpXpX[ a 5 5 z %.q.%X<X,X,X;X>X-X:X+Xv ",
"gXA.A.|.0X7XwXwXqXeXeXeXeX9X8X8XXX].T.g u gXgXgXgX> F F 2XuXfXH.4XdXdXdXfXpXfX>.,.) ) :.:.z %X%X<X,X;X;X;X;X:X+X+X",
"A.A.|.0X7X8X8XwXeXeXeXeXeXwX8X8XoX|.T.X.s gXgXgXgX0 F G.uXfXfX2X5X5XdXdXdXfX3.1.{ ,.) ( M %.c <X,X,X;X;X;X;X;X@X+X",
"A.S.oX0X8X8X9XqXqXqXrXeXrXrX7X[.oX|.k.j.g e gXgXgX0 f B C iXpX2X5X5XdXdXdXdX2.1.1.) ( ( z ,.c <X$X>X;X;X;X:X:XOXOX",
"..S.].oXoX8X|.9XqX9XrX8XoXXXXXXX.Xx.C.x. .d e w u u B B 3.pXpX3X5X5XdXdXdX3.2.1.K.L.^ ( ( z z c >X>X>X-X-X:X:XOXOX",
"o.o.I.].oX.XXXXX0XXX7XXX|.[.[.C.I.C.C.z.s.} y y e f t.S.S.3X4XG.4XdXdXdXfXC 1...] ' i.( p M z c $X=X=X=X:X:XOXOXgX",
"..o.x.x.I..X[.[.[.XX[.[.`.`.`.V.C.C.C.c.g.} s t.t.r.k.x.I.I.iXpXG.4XpXdXfXN 1._ ' ^ ^ r.p %.l V x =X=X#X=X#XOXj gX",
" .| x.k.x.x.I.`.`.`.`.'.'.b.`.V.B.m.n.c.g.| / s.a.s.X.o.2.J.iXiXiXH.3X3XuXyXf ' ^ r r i.^ a l z l #X#X#X#Xk k gXgX",
"_ ..j.h.j.C.V.V.V.V.V.V.V.b.b.B.m.m.N.c.g.s.} O.O.X.X.u f f C S S F.S S C C 9 a r ^ r r i.< 5 5 z h #X#Xj j gXgXgX",
"w _ | v.k.N.C.C.V.V.B.V.B.B.v.B.M.M.n.c.c.s.} / e q i 4 9 i > 0 0 0 d d p y : : 3 r r 3 Z.r 5 4 z h h h h gXgXgXgX",
"8 _ } z.v.N.N.N.B.M.B.B.B.m.v.M.M.n.n.n.c.d.} t q w ; : gXgXgXgXgX> > i q 4 = = 2 3 3 3 r r.2 2 @ @ h h gXgXgXgXgX",
"% y } | c.c.n.n.M.v.M.M.M.M.M.M.M.f.n.n.f.d./ y gXgXgXgXgXgXgXgXgXgX+ + + + + + * % % % 3 r.% + + # gXgXgXgXgXgXgX",
"e y } | t.c.n.n.n.v.M.M.M.M.M.M.M.f.d.c.d.d.a.y gXgXgXgXgXgXgXgXgXgXgXO X X gXgXX o % % % % o + + gXgXgXgXgXgXgXgX",
"w y d.u.u.t.c.M.n.v.f.M.M.M.M.M.m.f.d.g.f.s.a.y 1 gXgXgXgXgXgXgXgXgXgXgXgXgXgXgXgX. . . . X .   gXgXgXgXgXgXgXgXgX",
"w y d.d.t.t.c.c.n.n.f.M.M.M.M.M.m.n.f.g.d.s.u.y 1 gXgXgXgXgXgXgXgXgXgXgXgXgXgXgXgXgX  . .     gXgXgXgXgXgXgXgXgXgX",
"gXw y s.u.| c.c.c.M.f.f.M.M.n.M.m.c.j.k.d.s.a.e ; gXgXgXgXgXgXgXgXgXgXgXgXgXgXgXgXgXgXgXgXgXgXgXgXgXgXgXgXgXgXgXgX",
"gX1 w y / a.a.c.c.v.d.f.M.M.B.v.v.z.s.h.s.a.D.w ; gXgXgXgXgXgXgXgXgXgXgXgXgXgXgXgXgXgXgXgXgXgXgXgXgXgXgXgXgXgXgXgX",
"gXgX2 w y a.d.u.f.v.v.d.d.v.v.v.z.g.k.p.s.p.D.w : gXgXgXgXgXgXgXgXgXgXgXgXgXgXgXgXgXgXgXgXgXgXgXgXgXgXgXgXgXgXgXgX",
"gXgXgXgXw ^ a.u.d.f.d.d.d.v.v.v.l.l.h.y.p.P.e 1 gXgXgXgXgXgXgXgXgXgXgXgXgXgXgXgXgXgXgXgXgXgXgXgXgXgXgXgXgXgXgXgXgX",
"gXgXgXgXw e u.a.u.d.d.l.h.k.l.l.l.j.p.t.U.D.w : gXgXgXgXgXgXgXgXgXgXgXgXgXgXgXgXgXgXgXgXgXgXgXgXgXgXgXgXgXgXgXgXgX",
"gXgXgXgXgXw y u.t.y.d.f.h.p.h.h.j.d.Y.U.P.e w gXgXgXgXgXgXgXgXgXgXgXgXgXgXgXgXgXgXgXgXgXgXgXgXgXgXgXgXgXgXgXgXgXgX",
"gXgXgXgXgX1 w y P.y.y.j.d.h.y.Y.Y.Y.U.s e w gXgXgXgXgXgXgXgXgXgXgXgXgXgXgXgXgXgXgXgXgXgXgXgXgXgXgXgXgXgXgXgXgXgXgX",
"gXgXgXgXgX: 1 w y _ U.Y.Y.Y.Y.Y.` _ s q 9 gXgXgXgXgXgXgXgXgXgXgXgXgXgXgXgXgXgXgXgXgXgXgXgXgXgXgXgXgXgXgXgXgXgXgXgX",
"gXgXgXgXgXgXgX1 p p s _ `  .` _ d s q gXgXgXgXgXgXgXgXgXgXgXgXgXgXgXgXgXgXgXgXgXgXgXgXgXgXgXgXgXgXgXgXgXgXgXgXgXgX",
"gXgXgXgXgXgXgXgXgXgXp s s s d s gXgXgXgXgXgXgXgXgXgXgXgXgXgXgXgXgXgXgXgXgXgXgXgXgXgXgXgXgXgXgXgXgXgXgXgXgXgXgXgXgX"
};
