/* XPM */
static char *result[] = {
/* columns rows colors chars-per-pixel */
"48 51 213 2 ",
"   c #250C0B",
".  c #2A0F0B",
"X  c #2D110D",
"o  c #34140E",
"O  c #3A170E",
"+  c #2C1216",
"@  c #3D1B13",
"#  c #351614",
"$  c #260E11",
"%  c #3C2017",
"&  c #32182E",
"*  c #3E2C2D",
"=  c #1D0909",
"-  c #431D12",
";  c #441E1A",
":  c #681F06",
">  c #5B240A",
",  c #4B2313",
"<  c #43241A",
"1  c #4B2C1D",
"2  c #4A261E",
"3  c #572816",
"4  c #4F301F",
"5  c #69240A",
"6  c #742109",
"7  c #7C230C",
"8  c #722D0F",
"9  c #662B14",
"0  c #772C14",
"q  c #6A3218",
"w  c #743B14",
"e  c #71371C",
"r  c #763814",
"t  c #6F350F",
"y  c #4D2C21",
"u  c #492427",
"i  c #5A2C25",
"p  c #522D22",
"a  c #5A3526",
"s  c #433234",
"d  c #4A3239",
"f  c #563736",
"g  c #4E2D2F",
"h  c #6B3A2D",
"j  c #663728",
"k  c #763929",
"l  c #632F39",
"z  c #693835",
"x  c #733D38",
"c  c #622D2B",
"v  c #7B4A1E",
"b  c #75441A",
"n  c #67442C",
"m  c #6F4132",
"M  c #764834",
"N  c #7D5436",
"B  c #342D6A",
"V  c #362E78",
"C  c #38316F",
"Z  c #3D3059",
"A  c #46335C",
"S  c #4A3047",
"D  c #703D40",
"F  c #4C3567",
"G  c #473779",
"H  c #54386D",
"J  c #6C6A5F",
"K  c #524477",
"L  c #4E4370",
"P  c #724675",
"I  c #686665",
"U  c #746D67",
"Y  c #767568",
"T  c #797971",
"R  c #980D0E",
"E  c #951B18",
"W  c #8E1311",
"Q  c #A21515",
"!  c #862B15",
"~  c #88341A",
"^  c #92331D",
"/  c #892513",
"(  c #A1301C",
")  c #8D243E",
"_  c #982936",
"`  c #943832",
"'  c #8F372E",
"]  c #A82523",
"[  c #A53529",
"{  c #A73935",
"}  c #B33A33",
"|  c #B32E26",
" . c #D21F30",
".. c #D42233",
"X. c #DB2B3C",
"o. c #D72838",
"O. c #DA343D",
"+. c #D3343A",
"@. c #CD2C34",
"#. c #98571A",
"$. c #86451A",
"%. c #95442C",
"&. c #895627",
"*. c #88473A",
"=. c #944533",
"-. c #865A3A",
";. c #945536",
":. c #8C5329",
">. c #A65232",
",. c #92673E",
"<. c #9E753F",
"1. c #8F613D",
"2. c #A9642E",
"3. c #B57934",
"4. c #C67D34",
"5. c #8E2745",
"6. c #DD2E43",
"7. c #DC3445",
"8. c #DB3B47",
"9. c #D23B57",
"0. c #E13D46",
"q. c #CD3868",
"w. c #CD3C73",
"e. c #925245",
"r. c #8C4D44",
"t. c #986C40",
"y. c #9E714F",
"u. c #A27942",
"i. c #806F63",
"p. c #AF5769",
"a. c #DD444A",
"s. c #D95658",
"d. c #D74659",
"f. c #E04246",
"g. c #D44466",
"h. c #DA566B",
"j. c #DD636B",
"k. c #7F8074",
"l. c #BC8435",
"z. c #C18936",
"x. c #BE8645",
"c. c #80817D",
"v. c #CB9945",
"b. c #C69541",
"n. c #D5B359",
"m. c #D8AC64",
"M. c #D6B263",
"N. c #DAB165",
"B. c #DCB56A",
"V. c #DFB96E",
"C. c #D7B66C",
"Z. c #DEB476",
"A. c #DAAE71",
"S. c #E4B66B",
"D. c #E3B96D",
"F. c #E0B165",
"G. c #E3BD72",
"H. c #E2B975",
"J. c #E5C276",
"K. c #E7C479",
"L. c #E8C679",
"P. c #E8C577",
"I. c #3B3284",
"U. c #43378A",
"Y. c #5B4082",
"T. c #674589",
"R. c #764D84",
"E. c #7C7C86",
"W. c #7F7EA5",
"Q. c #443DEC",
"!. c #4B44EE",
"~. c #4A44EA",
"^. c #584BEA",
"/. c #5C54EB",
"(. c #4D47F0",
"). c #534CF1",
"_. c #5A54F2",
"`. c #624EED",
"'. c #754EEB",
"]. c #794EE9",
"[. c #6658E7",
"{. c #7553EA",
"}. c #635DF3",
"|. c #6965EA",
" X c #7866E8",
".X c #7B71E7",
"XX c #AF7B82",
"oX c #856BE3",
"OX c #848597",
"+X c #998A9A",
"@X c #9EA08B",
"#X c #B2AE99",
"$X c #8C88A4",
"%X c #B3B3A9",
"&X c #AE8599",
"*X c #DDBE98",
"=X c #DBBEA4",
"-X c #DEC19D",
";X c #DCCCB5",
":X c #D4CBB2",
">X c #D3D3BD",
",X c #D9D3BC",
"<X c #DCC0A5",
"1X c #E1CDB6",
"2X c #E3D2BD",
"3X c #DDDCCD",
"4X c #D9D8C6",
"5X c #DCDBD1",
"6X c #D7D8D2",
"7X c #E1DBCB",
"8X c #E0DAC7",
"9X c #E1DED0",
"0X c None",
/* pixels */
"0X0X0X0X0X0X0X0X0X0X0X0X0X0X0X0X0X0X0X0X0X0X0X0X^ ^ ^ ^ ~ 0X0X0X0X0X0X0X0X0X0X0X0X0X0X0X0X0X0X0X",
"0X0X0X0X0X0X0X0X0X0X0X0X0X0X0X0X0X0X0X0X0X0X~ ^ ] ] ] ] ~ 0 0 0X0X0X0X0X0X0X0X0X0X0X0X0X0X0X0X0X",
"0X0X0X0X0X0X0X0X0X0X0X0X0X0X0X0X0X0X0X0X7 ! ^ ] 7.8.8.8._ E 0 0X0X0X0X0X0X0X0X0X0X0X0X0X0X0X0X0X",
"0X0X0X0X0X0X0X0X0X0X0X0X0X0X0X0X0X0X0X7 / E 6.7.7.8.8.8.+.8.E 0 0X0X0X0X0X0X0X0X0X0X0X0X0X0X0X0X",
"0X0X0X0X0X0X0X0X0X0X0X0X0X0X0X0X0X0X6 / Q 6.6.7.f.1X;X;X;X+.E q 0X0X0X0X0X0X0X0X0X0X0X0X0X0X0X0X",
"0X0X0X0X0X0X0X0X0X0X0X0X0X0X0X0X0X6 7 Q ..X.7.0.1X1X} ;X[ :X@./ 9 0X0X0X0X0X0X0X0X0X0X0X0X0X0X0X",
"0X0X0X0X0X0X0X0X0X0X0X0X0X0X0X0X6 7 R ..o.6.6.0.1X2X} { [ :X7.7 5 0X0X0X0X0X0X0X0X0X0X0X0X0X0X0X",
"0X0X0X0X0X0X0X0X0X0X0X0X0X0X0X0X6 R ..o.6.6.7.8.1X1X} { { >XE u ; # X     0X0X0X0X0X0X0X0X0X0X0X",
"0X0X0X0X0X0X0X0X0X0X0X0X0X0X0X6 W Q ..o.6.6.7.8.a.1X2Xx x h i 2 ; # X .   = 0X0X0X0X0X0X0X0X0X0X",
"0X0X0X0X0X0X0X0X0X0X0X0X0X0X0X/ R ....o.6.7.0.8.a.*.*.M x h c u < # o $   0X0X0X0X0X0X0X0X0X0X0X",
"0X0X0X0X0X0X0X0X0X0X0X0X5 6 7 / Q ..o.X.6.0.8.} *.r.M M M h j 1 1 @ 0X0X0X0X0X0X0X0X0X0X0X0X0X0X",
"0X0X0X0X0X0X0X0X0X0X0X: 5 R R Q ..o.6.6.0.| ` =.=.*.*.V.B.N.m.b 4 0X0X0X0X0X0X0X0X0X0X0X0X0X0X0X",
"0X0X0X0X0X0X0X0X0X0X5 5 R  . .Q o.X.O.| ` %.=.>.V.V.V.V.V.B.v.$.a 0X0X0X0X0X0X0X0X0X0X0X0X0X0X0X",
"0X0X0X0X0X0X0X0X0X0X5 W @. .o.+.X.O.` %.=.4.G.G.H.1.,.V.H.V.N M n a 4 0X0X0X0X0X0X0X0X0X0X0X0X0X",
"0X0X0X0X0X0X0X0X0X0X5 W @.@.+.O.| ^ %.4.S.G.G.G.J.t.t.J.J.J.-.N &.&.v 1 0X0X0X0X0X0X0X0X0X0X0X0X",
"0X0X0X0X0X0X0X0X0X0X8 E @.+.( ( %.>.S.S.G.G.G.J.J.u.<.J.K.L.t.l.J.V.z.v 1 0X0X0X0X0X0X0X0X0X0X0X",
"0X0X0X0X0X0X0X0X0X0Xr ~ ( [ $.%.2.2.S.G.J.J.P.P.K.<.u.L.L.L.P.P.J.V.M.b.b % 0X0X0X0X0X0X0X0X0X0X",
"0X0X0X0X0X0X0X0X0X0X3 $.n.F.S.S.2.3.3.3.K.K.K.K.L.v.v.L.L.*XL.P.J.V.B.n.b < 0X0X0X0X0X0X0X0X0X0X",
"0X0X0X0X0X0X0X0X0X< w m.F.S.D.D.G.3.4.3.K.L.K.K.L.K.L.K.L.L.L.P.J.V.V.C.b < 0X0X0X0X0X0X0X0X0X0X",
"0X0X0X0X0X0X0X0X0X< r m.N.z.z.J.P.v.x.L.L.K.K.u.<.J.J.J.J.P.P.J.J.V.B.z.b % 0X0X0X0X0X0X0X0X0X0X",
"0X0X0X0X0X0X0X0X0X< w M.M.D.z.J.P.P.L.L.L.P.u.t.,.,.G.K.J.J.J.V.V.C.v.v 1 0X0X0X0X0X0X0X0X0X0X0X",
"0X0X0X0X0X0X0X0X0X< 1 b M.B.D.D.G.P.P.P.L.P.u.t.N e.N N C.C.J.C.C.b.v 4 0X0X0X0X0X0X0X0X0X0X0X0X",
"0X0X0X0X0X0X0X0X0X0X< 4 $.M.N.J.G.J.J.P.P.K.J.l.,.N N M v M n n n a y 0X0X0X0X0X0X0X0X0X0X0X0X0X",
"0X0X0X0X0X0X0X0X0X0X0X< 4 v &.&.D.D.G.J.J.H.Z.Z.N N M m n n a a y 1 0X0X0X0X0X0X0X0X0X0X0X0X0X0X",
"0X0X0X0X0X0X0X0X0X0X0X0X0X4 a h &.;.S.H.H.H.*XH.Z.C.h h c a y 2 < 0X0X0X0X0X0X0X0X0X0X0X0X0X0X0X",
"0X0X0X0X0X0X0X0X0X0X0X0X0X0X0X0Xj m ;.;.u.Z.S.Z.Z.C.A.A.2.j u 0X0X0X0X0X0X0X0X0X0X0X0X0X0X0X0X0X",
"0X0X0X0X0X0X0X0X0X0X0X0X0X0X0X0X0X0Xx D e.e.e.e.r.M r.k k u 0X0X0X0X0X0X0X0X0X0X0X0X0X0X0X0X0X0X",
"0X0X0X0X0X0X0X0X0X0X0X0X0X0X0X0X0X0X' _ P oX].P g.q.5.5.F A 0X0X0X0X0X0X0X0X0X0X0X0X0X0X0X0X0X0X",
"0X0X0X0X0X0X0X0X0X0X0X0X0X0X0X0X0X~ _ 9.P ].'.'.T.q.q.q.) F A 0X0X0X0X0X0X0X0X0X0X0X0X0X0X0X0X0X",
"0X0X0X0X0X0X0X0X0X0X0X0X0X0X0X0Xk _ 9.d.g.P '.'.'.T.w.w.q.) A A 0X0X0X0X0X0X0X0X0X0X0X0X0X0X0X0X",
"0X0X0X0X0X0X0X0X0X0X0X0X0X0X0Xk _ 9.9.d.h.R.{.{.'.'.T.Y.U.H H F Z 0X0X0X0X0X0X0X0X0X0X0X0X0X0X0X",
"0X0X0X0X0X0X0X0X0X0X0X0X0X0Xm ' { s.s.h.h.R.{.{.{.[.{.[.'.^.^.n.z i 0X0X0X0X0X0X0X0X0X0X0X0X0X0X",
"0X0X0X0X0X0X0X0X0X0X0X0X0Xf i.>.s.j.j.j.p.oX X{.&X*X*X[.`.^.^.M.n.c i 0X0X0X0X0X0X0X0X0X0X0X0X0X",
"0X0X0X0X0X0X0X0X0X0X0X0Xd U >X>X8X8X8X8X5X@XoX X*X*X*X*X[./.[.N.n.a i 0X0X0X0X0X0X0X0X0X0X0X0X0X",
"0X0X0X0X0X0X0X0X0X0X0X0Xf Y ,X4X8X8X3X9X9X+X+X.X-X-X*X*X[._.^.y.n.z i 0X0X0X0X0X0X0X0X0X0X0X0X0X",
"0X0X0X0X0X0X0X0X0X0X0Xs J >X4X#X8X9X9X9X5X5X$X.X&X-X*X[._.).(.~.C B 0X0X0X0X0X0X0X0X0X0X0X0X0X0X",
"0X0X0X0X0X0X0X0X0X0X0Xs J >X4X#X3X%X9X9X5X6X$X|.|.|./._.).(.!.Q.V B 0X0X0X0X0X0X0X0X0X0X0X0X0X0X",
"0X0X0X0X0X0X0X0X0X0X0X* J >X>X4X3X%X9X3X5X6X$X|.}._._.).).!.Q.I.C 0X0X0X0X0X0X0X0X0X0X0X0X0X0X0X",
"0X0X0X0X0X0X0X0X0X0X0X* J Y >X4X4X3X3X6X%XW.W.|.}.).).(.!.!.Q.V B 0X0X0X0X0X0X0X0X0X0X0X0X0X0X0X",
"0X0X0X0X0X0X0X0X0X0X0X0X* I Y @X4X4X4X4XOXOX|._._.).!.!.Q.Q.V B 0X0X0X0X0X0X0X0X0X0X0X0X0X0X0X0X",
"0X0X0X0X0X0X0X0X0X0X0X0X0Xd I Y T k.OXk.E.[./._.Q.Q.Q.Q.I.I.V 0X0X0X0X0X0X0X0X0X0X0X0X0X0X0X0X0X",
"0X0X0X0X0X0X0X0X0X0X0X0X0X0Xs S I U [.[././.^.).`.U.U.I.V V & & 0X0X0X0X0X0X0X0X0X0X0X0X0X0X0X0X",
"0X0X0X0X0X0X0X0X0X0X0X0X0X0X0X0Xd F L K L Y.K U.U.H G F S l & & + 0X0X0X0X0X0X0X0X0X0X0X0X0X0X0X",
"0X0X0X0X0X0X0X0X0X0X0X0X0X0X0X0X* s s d d m D D D D S c c i 3 + + $ 0X0X0X0X0X0X0X0X0X0X0X0X0X0X",
"0X0X0X0X0X0X0X0X0X0X0X0X0X0X0X% % a j g h h x x.4.k h u q 3 3 > + $ 0X0X0X0X0X0X0X0X0X0X0X0X0X0X",
"0X0X0X0X0X0X0X0X0X0X0X0X0X0X0X+ # 9 q u e e k x.u.k 9 u 9 > > > X   0X0X0X0X0X0X0X0X0X0X0X0X0X0X",
"0X0X0X0X0X0X0X0X0X0X0X0X0X0X0X# X > 9 2 q e r w w 0 0 ; @ O o X X . 0X0X0X0X0X0X0X0X0X0X0X0X0X0X",
"0X0X0X0X0X0X0X0X0X0X0X0X0X0X0XX o 3.#.#.t t w w w t - ; 5 > > X .   0X0X0X0X0X0X0X0X0X0X0X0X0X0X",
"0X0X0X0X0X0X0X0X0X0X0X0X0X0X0X0Xo % - #.#.l.l.z.l.z.#., O O o X   0X0X0X0X0X0X0X0X0X0X0X0X0X0X0X",
"0X0X0X0X0X0X0X0X0X0X0X0X0X0X0X0X0XO @ - , > 3 > , , , O O o o X 0X0X0X0X0X0X0X0X0X0X0X0X0X0X0X0X",
"0X0X0X0X0X0X0X0X0X0X0X0X0X0X0X0X0X0X0X< , , 1 , , , - 0X0X0X0X0X0X0X0X0X0X0X0X0X0X0X0X0X0X0X0X0X"
};
