/* XPM */
static char *result[] = {
/* columns rows colors chars-per-pixel */
"57 54 222 2 ",
"   c #2B1B18",
".  c #321E1A",
"X  c #34201C",
"o  c #3B221E",
"O  c #2E201E",
"+  c #392725",
"@  c #3A2D31",
"#  c #301F20",
"$  c #792B1D",
"%  c #68361E",
"&  c #6D2D1E",
"*  c #432C24",
"=  c #462B27",
"-  c #4A372B",
";  c #5D3B2B",
":  c #54372B",
">  c #433933",
",  c #573C33",
"<  c #512F2C",
"1  c #623E29",
"2  c #6C3925",
"3  c #773823",
"4  c #673B37",
"5  c #753D38",
"6  c #712F20",
"7  c #65441F",
"8  c #584438",
"9  c #524334",
"0  c #6B452C",
"q  c #69472A",
"w  c #734D2B",
"e  c #794628",
"r  c #7B532C",
"t  c #76512A",
"y  c #684737",
"u  c #754D33",
"i  c #78483A",
"p  c #7B5434",
"a  c #785439",
"s  c #6D533C",
"d  c #7F6135",
"f  c #37304F",
"g  c #363767",
"h  c #3A3C77",
"j  c #4F364B",
"k  c #6B3949",
"l  c #493767",
"z  c #503768",
"x  c #3C407C",
"c  c #584B42",
"v  c #5F5649",
"b  c #654A43",
"n  c #784448",
"m  c #714F4D",
"M  c #78775B",
"N  c #6D6654",
"B  c #51476E",
"V  c #7B7C62",
"C  c #67536D",
"Z  c #981516",
"A  c #8F1315",
"S  c #A5181C",
"D  c #84291F",
"F  c #99261A",
"G  c #883526",
"H  c #953327",
"J  c #8B2F23",
"K  c #A63529",
"L  c #A93932",
"P  c #B5392F",
"I  c #AB221F",
"U  c #CB2B3C",
"Y  c #CA373D",
"T  c #D3393E",
"R  c #D02F3F",
"E  c #844B2C",
"W  c #845A2E",
"Q  c #884937",
"!  c #924B38",
"~  c #8B5C34",
"^  c #865838",
"/  c #945436",
"(  c #95502F",
")  c #A74538",
"_  c #B14A3E",
"`  c #8B622D",
"'  c #99742D",
"]  c #8B6639",
"[  c #966939",
"{  c #8C7632",
"}  c #937D36",
"|  c #967737",
" . c #956E2B",
".. c #AA6936",
"X. c #AC743A",
"o. c #B17A3E",
"O. c #D7473D",
"+. c #9D2C4F",
"@. c #D63741",
"#. c #CE2F41",
"$. c #834343",
"%. c #865347",
"&. c #996C43",
"*. c #987644",
"=. c #8B6F52",
"-. c #A17252",
";. c #807F64",
":. c #B04B48",
">. c #DD4442",
",. c #DC4B44",
"<. c #D74C46",
"1. c #D65347",
"2. c #D34956",
"3. c #D65356",
"4. c #CF4C6F",
"5. c #7D8067",
"6. c #998439",
"7. c #A38D3E",
"8. c #A0803C",
"9. c #B98836",
"0. c #B59234",
"q. c #B78B2B",
"w. c #C69A2C",
"e. c #C5992A",
"r. c #C59338",
"t. c #CCA32B",
"y. c #CCA227",
"u. c #D4AC2C",
"i. c #D5AC2C",
"p. c #DCB32D",
"a. c #DEBA2D",
"s. c #CEA433",
"d. c #D4AC32",
"f. c #D2A934",
"g. c #DCB530",
"h. c #DEBA31",
"j. c #D8B53B",
"k. c #E1BD2E",
"l. c #E1BB31",
"z. c #E2BE3A",
"x. c #E5C32D",
"c. c #E8C72F",
"v. c #EAC92E",
"b. c #E5C433",
"n. c #EACA33",
"m. c #EBCD3B",
"M. c #E5C537",
"N. c #B48344",
"B. c #A99442",
"V. c #B59B46",
"C. c #878268",
"Z. c #999A7D",
"A. c #8C8D74",
"S. c #A8954B",
"D. c #C89947",
"F. c #CF9546",
"G. c #C2AB4E",
"H. c #D8B744",
"J. c #C5AE51",
"K. c #CCB355",
"L. c #CCB95D",
"P. c #D3AE52",
"I. c #DAAE68",
"U. c #DBB46B",
"Y. c #DDB96F",
"T. c #DEBB72",
"R. c #DEB877",
"E. c #D7B66A",
"W. c #E1B56D",
"Q. c #E2BC74",
"!. c #E1B979",
"~. c #E3C343",
"^. c #EDD241",
"/. c #D8C568",
"(. c #E7D46D",
"). c #E2C177",
"_. c #E3C279",
"`. c #E9DA74",
"'. c #ECDE79",
"]. c #E6D571",
"[. c #E2CD69",
"{. c #F2E47C",
"}. c #EFE179",
"|. c #3C3F84",
" X c #3D4187",
".X c #404390",
"XX c #464ADB",
"oX c #5953DE",
"OX c #6958DB",
"+X c #745EDB",
"@X c #7865D8",
"#X c #484EE1",
"$X c #4A52E5",
"%X c #4C54E9",
"&X c #4751E4",
"*X c #5453E5",
"=X c #5754E7",
"-X c #6154E3",
";X c #8568D2",
":X c #9A9D83",
">X c #A6A68B",
",X c #B4B59B",
"<X c #ADAF95",
"1X c #B9BCA2",
"2X c #DEB781",
"3X c #E0B680",
"4X c #F4E884",
"5X c #F6EB8B",
"6X c #F5EA87",
"7X c #F9EF92",
"8X c #F7EE91",
"9X c #F9F093",
"0X c #DCC9B5",
"qX c #D4C9B3",
"wX c #D4D3BC",
"eX c #DAD2BD",
"rX c #D1CBB5",
"tX c #E1C8B5",
"yX c #DAD6C1",
"uX c #DCD9C5",
"iX c #DAD9C5",
"pX c None",
/* pixels */
"pXpXpXpXpXpXpXpXpXpXpXpXpXpXpXpXH H H H G pXpXpXpXpXpXpXpXpXpXpXpXpXpXpXpXpXpXpXpXpXpXpXpXpXpXpXpXpXpXpXpXpXpXpXpX",
"pXpXpXpXpXpXpXpXpXpXpXpXpXpXJ H S S I S S G G pXpXpXpXpXpXpXpXpXpXpXpXpXpXpXpXpXpXpXpXpXpXpXpXpXpXpXpXpXpXpXpXpXpX",
"pXpXpXpXpXpXpXpXpXpXpXpXD J S S @.T @.@.I S Z 3 pXpXpXpXpXpXpXpXpXpXpXpXpXpXpXpXpXpXpXpXpXpXpXpXpXpXpXpXpXpXpXpXpX",
"pXpXpXpXpXpXpXpXpXpXpXD Z S U T @.>.>.>.>.@.F A 6 pXpXpXpXpXpXpXpXpXpXpXpXpXpXpXpXpXpXpXpXpXpXpXpXpXpXpXpXpXpXpXpX",
"pXpXpXpXpXpXpXpXpXpX$ Z S #.@.O.>.>.,.,.>.O.@.A 3 pXpXpXpXpXpXpXpXpXpXpXpXpXpXpXpXpXpXpXpXpXpXpXpXpXpXpXpXpXpXpXpX",
"pXpXpXpXpXpXpXpXpX$ Z Z #.#.@.>.>.,.,.,.<.>.@.F A 6 pXpXpXpXpXpXpXpXpXpXpXpXpXpXpXpXpXpXpXpXpXpXpXpXpXpXpXpXpXpXpX",
"pXpXpXpXpXpXpXpXA A S U #.@.>.>.,.3.tX0X0X0XO.P A & pXpXpXpXpXpXpXpXpXpXpXpXpXpXpXpXpXpXpXpXpXpXpXpXpXpXpXpXpXpXpX",
"pXpXpXpXpX& $ D Z S U #.@.@.>.,.,.tXtXY 0XK qXY A 2 pXpXpXpXpXpXpXpXpXpXpXpXpXpXpXpXpXpXpXpXpXpXpXpXpXpXpXpXpXpXpX",
"pXpXpX& & A A Z Z U R T @.>.>.,.1.0X0XL L K qXY D & pXpXpXpXpXpXpXpXpXpXpXpXpXpXpXpXpXpXpXpXpXpXpXpXpXpXpXpXpXpXpX",
"pXpX$ $ A U U Z R T T O.O.,.,.,.1.0X0XL K H qXD 2 pXpXpXpXpXpXpXpXpXpXpXpXpXpXpXpXpXpXpXpXpXpXpXpXpXpXpXpXpXpXpXpX",
"pXpX3 Z U Y T T O.O.O.>.,.,.<.1.P $.i n k 4 , < = o pXpXpXpXpXpXpXpXpXpXpXpXpXpXpXpXpXpXpXpXpXpXpXpXpXpXpXpXpXpXpX",
"pX3 F Y Y O.O.O.O.O.O.P ! ! ! ! ^ n i n 4 , , < = o #   pXpXpXpXpXpXpXpXpXpXpXpXpXpXpXpXpXpXpXpXpXpXpXpXpXpXpXpXpX",
"pXE F O.O.O.I E ( ( _ ) / / / %.%.m p a y y , < = + X     pXpXpXpXpXpXpXpXpXpXpXpXpXpXpXpXpXpXpXpXpXpXpXpXpXpXpXpX",
"pX2 ( ( E W ( ....F.W.W.W.!.!.!...a Y.Y.U.^ E , pXpXpXpXpXpXpXpXpXpXpXpXpXpXpXpXpXpXpXpXpXpXpXpXpXpXpXpXpXpXpXpXpX",
"4 ( / I.I.W.W.....W.W.!.!.Q.Q.Q.&.] Y.Y.Y.s u 8 , pXpXpXpXpXpXpXpXpXpXpXpXpXpXpXpXpXpXpXpXpXpXpXpXpXpXpXpXpXpXpXpX",
"4 / U.W.W.W.W.X.o.H.!.Q.)._.Q._.*.*.T.R.R.]  .~ W : pXpXpXpXpXpXpXpXpXpXpXpXpXpXpXpXpXpXpXpXpXpXpXpXpXpXpXpXpXpXpX",
"y / I.U.' ..T.o.*.9.N._._._._._.*.*._._.).P.Q.U.D.r - pXpXpXpXpXpXpXpXpXpXpXpXpXpXpXpXpXpXpXpXpXpXpXpXpXpXpXpXpXpX",
"1 ~ I.Y.Y.X.Q.o.N.N.N._._._._._.*.N._._._.).).Y.E.D.t * pXpXpXpXpXpXpXpXpXpXpXpXpXpXpXpXpXpXpXpXpXpXpXpXpXpXpXpXpX",
", E ~ I.U.Y.T.).N.N._._._._._._._._._._._.).).T.U.E.e * pXpXpXpXpXpXpXpXpXpXpXpXpXpXpXpXpXpXpXpXpXpXpXpXpXpXpXpXpX",
"pX, ^ ~ U.Y.R.R._._.2X_._.*.*._._._._._.).).).Y.U.I.e + pXpXpXpXpXpXpXpXpXpXpXpXpXpXpXpXpXpXpXpXpXpXpXpXpXpXpXpXpX",
"pXpX8 y ] &.R.R.!._._._.&.&.=.| ).).Q.Q.).).T.Y.U.r.t + pXpXpXpXpXpXpXpXpXpXpXpXpXpXpXpXpXpXpXpXpXpXpXpXpXpXpXpXpX",
"pXpXpXpXy %.&.R.!.3X3X_.&.&.` a ] G.Q.Q.T.Y.Y.U.D.W - pXpXpXpXpXpXpXpXpXpXpXpXpXpXpXpXpXpXpXpXpXpXpXpXpXpXpXpXpXpX",
"pXpXpXpX, b m -.3X3X!.!.!.^ ^ m a a [ [ G.G.F.~ 9 : pXpXpXpXpXpXpXpXpXpXpXpXpXpXpXpXpXpXpXpXpXpXpXpXpXpXpXpXpXpXpX",
"pXpXpXpXB B C C -.-.3X!.!.Y.^ Q i y a s u y y 8 : pXpXpXpXpXpXpXpXpXpXpXpXpXpXpXpXpXpXpXpXpXpXpXpXpXpXpXpXpXpXpXpX",
"pXpXpXB B B OX+X;X;X:._ _ W.I.I.i y y y b y c 9 pXpXpXpXpXpXpXpXpXpXpXpXpXpXpXpXpXpXpXpXpXpXpXpXpXpXpXpXpXpXpXpXpX",
"pXpXh l h oX=XOX+X;X4.3.3.L / / ! y n b b c c pXpXpXpXpXpXpXpXpXpXpXpXpXpXpXpXpXpX{ } 6.6.6.*.} pXpXpXpXpXpXpXpXpX",
"pXg h x $XoX=XOX+X4.4.2.2.<.<.O.K ! %.a b c v c pXpXpXpXpXpXpXpXpXpXpXpXpXpXpX{ 6.6.7.S.B.B.B.7.7.6.6.pXpXpXpXpXpX",
"pXh  XXX$X*X=X=X-X4.4.4.2.,.<.<.1.1.) C.C.C.5.v c c 9 @ pXpXpXpXpXpXpXpXpXpX} 6.7.].`./.`.`.V.].V.B.7.6.6.pXpXpXpX",
"h  X X&X$X*X=X=XOX4.+.@.2.<.<.<.1.) eXwXyX>X>X5.5.5.V M 9 @ pXpXpXpXpXpXpX{ 6.(.{.4X6X6X8X8X5X4X4X`.`.B.B.6.6.pXpX",
"x  X&X&X%X%X=X=X-XOX4.+.k 5 5 $.! eXeXeXiXiXiX<X5.wXwX:XV N @ pXpXpXpXpXpX6.6.L.4X4X6X8X8X8X8X8X5X5X5X/.`.B.B.6.pX",
"x  X%X%X%X%X=X=X-X-XOXj +.Q ! ! [ %.eXeXiXiXiXiX1X:XwXwXZ.M M @ pXpXpXpXw d L./.4X5X8X8X9X9X9X8X8X8X5X5X4X`.V.7.pX",
" X X%X%X%X%X%X=X-X-Xz n +.i ! / [ &.=.yXiXiXiX1X1X:XwXwXrXZ.M 9 pXpXpXpXp ] L.`.'.5X5X8X9X9X9X9X8X8X5X5X4X4X`.B.7.",
" X X%X%X%X%X%X%X=XoXz +.n Q Q / [ &.-.eXuXuXuX1X1X>XwXwX=.a s 9 pXpXpXu d d.s.`.}.].4X8X8X8X9X9X7X7X8X5X5X4X`.V.7.",
"x  X&X&X$X%X*X*X*Xz m n n r E D.D.&.-.;.uXuXuX1X1X>XuXwX=.N s u y 0 w p ] h.z.j.[.}.{.{.'.4X9X9X7X7X`.5X}.'./.V.} ",
"pX|. X&X#X#X#X*XoXz k b i e F.E ^ [ &.=.eXuXuXuX1XZ.,X>XV.N.0.a u w p W u.h.M.M.z.~.].].`.{.{.4X4X{.{.].'.[.H.X.| ",
"pXg h &X#X#XXXXXl k j +.Q r.E E Q ] [ N eXeXuX,XZ.wXwXH.H.j.f.q.q.q.` ` h.k.b.M.m.m.~.~.^.(.`.{.(.(.(.[.H.j.j.| [ ",
"pXpXg h XXXXXXXXl k j i e F.e e Q ^ y rXwX>X>XA.eXwXwX6.6.*.| t.u.u.`  .a.k.b.b.M.m.z.M.^.^.~.~.~.~.H.j.j.f.j.| { ",
"pXpXpXg g XXXXf k 5 5 : r.3 E 3 e r 8 M V V 5.5.5.C.C.s s y { } ' 6.` u.k.k.x.c.c.n.z.z.m.m.m.m.m.m.m.M.f.s.d. .W ",
"pXpXpXpXf f f f 4 4 3 e 9.e 3 3 e < - u u a a 8 9 9 9 8 8 y q 0 w r ` i.a.x.x.c.c.n.l.n.n.n.m.m.n.n.M.b.f.h. .` q ",
"pXpXpXpXpXf f @ @ 2 2 9.e 3 0 3 0 = = 2 5 y > > pXpXpXpXpX: ; 1 q r ` i.k.x.x.c.v.n.x.n.n.n.n.v.n.b.b.b.l.h. .W 7 ",
"pXpXpXpXpXpXpX+ + + 2 9.% % % 2 * + + + + + + pXpXpXpXpXpXpXpXpXpXr ` i.p.c.k.p.v.v.v.v.n.v.n.a.v.x.x.x.a. .` W q ",
"pXpXpXpXpXpXpXpX# # o 2 % % % o o pXpX. O O pXpXpXpXpXpXpXpXpXpXpXt y.i.p.k.p.p.v.v.v.v.v.v.n.a.v.x.x.a.0. .` r 0 ",
"pXpXpXpXpXpXpXpXpX# # . X X . . pXpXpXpXpXpXpXpXpXpXpXpXpXpXpXpX1 t y.i.p.l.p.p.v.v.v.v.v.v.a.p.x.x.x.q.e.e.u.t 0 ",
"pXpXpXpXpXpXpXpXpXpX          pXpXpXpXpXpXpXpXpXpXpXpXpXpXpXpXpX1 w e.i.i.p.i.c.c.c.c.v.v.x.l.x.x.x.x.q.e.p.y.t 0 ",
"pXpXpXpXpXpXpXpXpXpXpXpXpXpXpXpXpXpXpXpXpXpXpXpXpXpXpXpXpXpXpXpX1 q y.u.i.i.i.l.c.c.c.c.x.l.i.k.x.x.k.' e.i.t 0 pX",
"pXpXpXpXpXpXpXpXpXpXpXpXpXpXpXpXpXpXpXpXpXpXpXpXpXpXpXpXpXpXpXpX; q G.y.i.f.f.l.l.l.c.c.v.p.p.c.x.k.i.y.W r q 1 pX",
"pXpXpXpXpXpXpXpXpXpXpXpXpXpXpXpXpXpXpXpXpXpXpXpXpXpXpXpXpXpXpXpX< q G.y.i.w.s.l.l.k.l.l.i.i.l.p.p.e.y.y.t q 1 pXpX",
"pXpXpXpXpXpXpXpXpXpXpXpXpXpXpXpXpXpXpXpXpXpXpXpXpXpXpXpXpXpXpXpXpXq w G.i.w.w.p.l.l.l.l.i.i.p.p.p.e.y.r w pXpXpXpX",
"pXpXpXpXpXpXpXpXpXpXpXpXpXpXpXpXpXpXpXpXpXpXpXpXpXpXpXpXpXpXpXpXpX: q G.J.w.w.j.g.g.g.s.i.p.p.i.w.t.y.w q pXpXpXpX",
"pXpXpXpXpXpXpXpXpXpXpXpXpXpXpXpXpXpXpXpXpXpXpXpXpXpXpXpXpXpXpXpXpXpX; q G.J.K.u.i.s.s.s.s.i.i.w.e.e.e 1 pXpXpXpXpX",
"pXpXpXpXpXpXpXpXpXpXpXpXpXpXpXpXpXpXpXpXpXpXpXpXpXpXpXpXpXpXpXpXpXpXpXq w r J.K.K.L.w.s.i.i.w.e.G.r q 1 pXpXpXpXpX",
"pXpXpXpXpXpXpXpXpXpXpXpXpXpXpXpXpXpXpXpXpXpXpXpXpXpXpXpXpXpXpXpXpXpXpXpXq u p p ] K.K.K.K.K.K.^ r 0 1 : pXpXpXpXpX",
"pXpXpXpXpXpXpXpXpXpXpXpXpXpXpXpXpXpXpXpXpXpXpXpXpXpXpXpXpXpXpXpXpXpXpXpXpXpXu s p ^ ] ~ ] W p u 0 1 pXpXpXpXpXpXpX",
"pXpXpXpXpXpXpXpXpXpXpXpXpXpXpXpXpXpXpXpXpXpXpXpXpXpXpXpXpXpXpXpXpXpXpXpXpXpXpXpXpXp p p p p p pXpXpXpXpXpXpXpXpXpX"
};
