/* XPM */
static char *result[] = {
/* columns rows colors chars-per-pixel */
"9 12 5 1 ",
"  c #313131",
". c gray39",
"X c gray68",
"o c gray84",
"O c None",
/* pixels */
"OO      O",
"O .XooX. ",
"O oX  XX ",
"O     .o ",
"OOO  .oX ",
"OOO ooo O",
"OOO   XX ",
"OOOOO .o ",
"    O .o ",
" oX. .o. ",
" .XooX. O",
"O      OO"
};
