/* XPM */
static char *result[] = {
/* columns rows colors chars-per-pixel */
"9 12 5 1 ",
"  c #313131",
". c gray39",
"X c gray68",
"o c gray84",
"O c None",
/* pixels */
"OO   OOOO",
"OO o    O",
"O .X  o O",
"O X. .o O",
" .o  XX O",
" XX  o. O",
" o. .o   ",
" .oooooo ",
"O   .X   ",
"OOO X. OO",
"OOO o OOO",
"OOO   OOO"
};
