/* XPM */
static char *result[] = {
/* columns rows colors chars-per-pixel */
"9 12 5 1 ",
"  c #313131",
". c gray39",
"X c gray68",
"o c gray84",
"O c None",
/* pixels */
"OO   OOOO",
"OO o     ",
"OO ooooo ",
"OO o     ",
"O .X   OO",
"O oooo. O",
"O o. .o. ",
"O   O .o ",
"    O .o ",
" oX. .o. ",
" .Xooo. O",
"O      OO"
};
