/* XPM */
static char *result[] = {
/* columns rows colors chars-per-pixel */
"9 12 5 1 ",
"  c #313131",
". c gray39",
"X c gray68",
"o c gray84",
"O c None",
/* pixels */
"OOO    OO",
"OO .XoX O",
"O .o..oX ",
"O o.   o ",
"O o    o ",
"O .o  .o ",
"OO .oooo ",
"     .o. ",
" o   XX O",
" o. Xo. O",
" .XoX. OO",
"O     OOO"
};
