/* XPM */
static char *result[] = {
/* columns rows colors chars-per-pixel */
"59 67 232 2 ",
"   c #2D1B19",
".  c #281917",
"X  c #331E1C",
"o  c #3A1D18",
"O  c #3C231D",
"+  c #36201C",
"@  c #2C1E24",
"#  c #382525",
"$  c #392737",
"%  c #372B30",
"&  c #43261F",
"*  c #44281F",
"=  c #5E2E1B",
"-  c #672F1C",
";  c #732B1D",
":  c #6B331E",
">  c #64321D",
",  c #77331E",
"<  c #462B22",
"1  c #492925",
"2  c #572A29",
"3  c #4A3329",
"4  c #523429",
"5  c #5B3A2A",
"6  c #583428",
"7  c #483938",
"8  c #4A2F37",
"9  c #6C3623",
"0  c #613D2B",
"q  c #693627",
"w  c #733B23",
"e  c #773826",
"r  c #693733",
"t  c #743A35",
"y  c #6E2E28",
"u  c #6C191B",
"i  c #5F412E",
"p  c #66412C",
"a  c #6A442D",
"s  c #6F492E",
"d  c #7A452A",
"f  c #734A2D",
"g  c #7C4C2C",
"h  c #744228",
"j  c #7D532F",
"k  c #6D4A33",
"l  c #674533",
"z  c #744D33",
"x  c #744737",
"c  c #7C5334",
"v  c #775538",
"b  c #7E6437",
"n  c #2F3154",
"m  c #363357",
"M  c #3E2C42",
"N  c #393765",
"B  c #393A71",
"V  c #48334E",
"C  c #44365A",
"Z  c #4D334A",
"A  c #6A3B44",
"S  c #473867",
"D  c #48397A",
"F  c #583B6F",
"G  c #6F3E6A",
"H  c #755747",
"J  c #6C494F",
"K  c #6F635C",
"L  c #6E4468",
"P  c #6A6462",
"I  c #736B65",
"U  c #78736A",
"Y  c #574560",
"T  c #8B1618",
"R  c #961819",
"E  c #910F12",
"W  c #A91B1C",
"Q  c #931C27",
"!  c #AC1E24",
"~  c #9A2626",
"^  c #873826",
"/  c #963728",
"(  c #883A35",
")  c #963937",
"_  c #8B2A29",
"`  c #AA2524",
"'  c #B9282A",
"]  c #BB362C",
"[  c #AF2D37",
"{  c #8B211F",
"}  c #CA2A3D",
"|  c #C13636",
" . c #844A2C",
".. c #874734",
"X. c #865933",
"o. c #8F5230",
"O. c #A64B37",
"+. c #A55936",
"@. c #BF402C",
"#. c #896839",
"$. c #946537",
"%. c #92733B",
"&. c #A5683C",
"*. c #AF7E33",
"=. c #8D3C45",
"-. c #B2284E",
";. c #BE3769",
":. c #C82D44",
">. c #D22E43",
",. c #CD3648",
"<. c #D43345",
"1. c #D93346",
"2. c #D5354B",
"3. c #DB354C",
"4. c #D43A4B",
"5. c #DB3A4B",
"6. c #D33946",
"7. c #C7345A",
"8. c #DD3B52",
"9. c #D13553",
"0. c #C6366A",
"q. c #C5387A",
"w. c #8D5443",
"e. c #A94443",
"r. c #947945",
"t. c #8B704F",
"y. c #B67C43",
"u. c #B67E5D",
"i. c #8B796D",
"p. c #B27A72",
"a. c #DB434C",
"s. c #DA4659",
"d. c #CB434D",
"f. c #DC4D61",
"g. c #DC5465",
"h. c #E16567",
"j. c #DF6062",
"k. c #BB8A34",
"l. c #AE853D",
"z. c #C49335",
"x. c #CA9C34",
"c. c #C79939",
"v. c #C08F33",
"b. c #CDA037",
"n. c #D2A435",
"m. c #D7AA36",
"M. c #D2A539",
"N. c #D5AB39",
"B. c #D9AD39",
"V. c #D9AD36",
"C. c #DDB336",
"Z. c #DCB33A",
"A. c #E4BC37",
"S. c #E4BD39",
"D. c #E0B736",
"F. c #E7C13B",
"G. c #9C8349",
"H. c #A3884B",
"J. c #AD944B",
"K. c #B99D59",
"L. c #B0924E",
"P. c #BDA15B",
"I. c #968B75",
"U. c #9B957A",
"Y. c #8B8170",
"T. c #A78173",
"R. c #AB8F73",
"E. c #A7A17F",
"W. c #C78946",
"Q. c #D4934C",
"!. c #CDA544",
"~. c #D5AA41",
"^. c #DDB543",
"/. c #D4A55E",
"(. c #CAAD5B",
"). c #E1BC44",
"_. c #C3A561",
"`. c #DBAC64",
"'. c #D8A861",
"]. c #DAB565",
"[. c #E4AC66",
"{. c #E4AC66",
"}. c #E2B169",
"|. c #CC9262",
" X c #E6C243",
".X c #E8C647",
"XX c #DBC465",
"oX c #E3CC64",
"OX c #E8D56B",
"+X c #EEDC72",
"@X c #F4E97D",
"#X c #F3E677",
"$X c #EFE072",
"%X c #65438D",
"&X c #5D4185",
"*X c #4B4CDC",
"=X c #454ADB",
"-X c #554CDE",
";X c #4E51DF",
":X c #6F4EDC",
">X c #484EE1",
",X c #4D52E4",
"<X c #4F55E9",
"1X c #5253E4",
"2X c #5D52E5",
"3X c #5356EA",
"4X c #5955E9",
"5X c #5A4FE1",
"6X c #6552E3",
"7X c #C43A86",
"8X c #A59E81",
"9X c #A8A688",
"0X c #B9AA8C",
"qX c #979289",
"wX c #D1BC9E",
"eX c #D0BEA0",
"rX c #F6EC82",
"tX c #F8EE85",
"yX c #F9EF88",
"uX c #F9F088",
"iX c #CEC8A7",
"pX c #DAD5B4",
"aX c #DEDBBA",
"sX c #D9D8B6",
"dX c #D2CFAD",
"fX c #E4D3B4",
"gX c #E3DCBC",
"hX c #E5D7B8",
"jX c #E5CDAF",
"kX c #E4E2C2",
"lX c #E8DFC0",
"zX c None",
/* pixels */
"zXzXzXzXzXzXzXzXzXzXzXzXzXzXG.H.H.H.zXzXzXzXzXzXzXzXzXzXzXzXzXzXzXzXzXzXzXzXzXzXzXzXzXzXzXzXzXzXzXzXzXzXzXzXzXzXzXzXzX",
"zXzXzXzXzXzXzXzXzXzXzXzXv H t.J.J.L.L.G.zXzXzXzXzXzXzXzXzXzXzXzXzXzXzXzXzXzXzXzXzXzXzXzXzXzXzXzXzXzXzXzXzXzXzXzXzXzXzX",
"zXzXzXzXzXzXzXzXzXzXzXv X.#.%.OX+XJ.J.J.H.r.zXzXzXzXzXzXzXzXzXzXzXzXzXzXzXzXzXzXzXzXzXzXzXzXzXzXzXzXzXzXzXzXzXzXzXzXzX",
"zXzXzXzXzXzXzXzXzXp z v t.OXOXXX@X@X@XP.L.H.r.zXzXzXzXzXzXzXzXzXzXzXzXzXzXzXzXzXzXzXzXzXzXzXzXzXzXzXzXzXzXzXzXzXzXzXzX",
"zXzXzXzXzXzXzXzXi s j t.c.].XX@X@XrX@XrX@XJ.G.r.zXzXzXzXzXzXzXzXzXzXzXzXzXzXzXzXzXzXzXzXzXzXzXzXzXzXzXzXzXzXzXzXzXzXzX",
"zXzXzXzX1 6 zXp s j M.k.!.OX$X@XrXtXtXrXrX#XJ.G.t.zXzXzXzXzXzXzXzXzXzXzXzXzXzXzXzXzXzXzXzXzXzXzXzXzXzXzXzXzXzXzXzXzXzX",
"zXzXzX4 6 > p f j m.N.^.M.+X$X@XtXtXtXtXtX@X#XJ.G.t.zXzXzXzXzXzXzXzXzXzXzXzXzXzXzXzXzXzXzXzXzXzXzXzXzXzXzXzXzXzXzXzXzX",
"zXzX1 6 0 #.#.X.m.m.Z.!.~.oXoXOXtXuXuXuXtXtX@X#XH.r.zXzXzXzXzXzXzXzXzXzXzXzXzXzXzXzXzXzXzXzXzXzXzXzXzXzXzXzXzXzXzXzXzX",
"zXzX6 0 X.k. .x.m.C.Z.!. X^.OX#X@X@XuXuXuXuX@X@XJ.G.t.zXzXzXzXzXzXzXzXzXzXzXzXzXzXzXzXzXzXzXzXzXzXzXzXzXzXzXzXzXzXzXzX",
"zXzX5 p #.j x.m.C.C.M.S. X^.oX#X@X@XuXuXuXuXtX@X$XG.%.zXzXzXzXzXzXzXzXzXzXzXzXzXzXzXzXzXzXzXzXzXzXzXzXzXzXzXzXzXzXzXzX",
"zXzXzXf j x.x.C.C.A.S. XF..X XOX@X@X+XuXuXtX@X@X#XH.r.zXzXzXzXzXzXzXzXzXzXzXzXzXzXzXzXzXzXzXzXzXzXzXzXzXzXzXzXzXzXzXzX",
"zXzXw f X.x.n.C.C.A.S.S.F. X.X.XoXOX+X@XtXtXtX@X#XH.r.#.zXzXzXzXzXzXzXzXzXzXzXzXzXzXzXzXzXzXzXzXzXzXzXzXzXzXzXzXzXzXzX",
"zXzXf j x.x.m.C.D.S.A.F.Z. X.X.X)..X@X@X#XOX@X@XOXOXG.b zXzXzXzXzXzXzXzXzXzXzXzXzXzXzXzXzXzXzXzXzXzXzXzXzXzXzXzXzXzXzX",
"zXf j X.x.z.m.D.A.S.V.B.F. X X.X.X^.XX@X$XoXXXOX(.oX%.b zXzXzXzXzXzXzXzXzXzXzXzXzXzXzXzXzXzXzXzXzXzXzXzXzXzXzXzXzXzXzX",
"a f c x.v.c.m.D.D.V.V.V.F.F.F. X^.^.^.XXXXXXXXOXoXb p zXzXzXzXzXzXzXzXzXzXzXzXzXzXzXzXzXzXzXzXzXzXzXzXzXzXzXzXzXzXzXzX",
"s c X.x.z.n.V.D.M.m.V.F.F.F.F.Z.Z. X X X~.!.b.(.b v i zXzXzXzXzXzXzXzXzXzXzXzXzXzXzXzXzXzXzXzXzXzXzXzXzXzXzXzXzXzXzXzX",
"z c _.z.c.M.B.n.M.m.A.F.A.F.C.S.S.F.).).).Q.k.#.v l zXzXzXzXzXzXzXzXzXzXzXzXzXzXzXzXzXzXzXzXzXzXzXzXzXzXzXzXzXzXzXzXzX",
"x c X.k.b.N.B.b.N.S.A.A.A.F.A.A.S.S.S.D.c.B.N.v v zXzXzXzXzXzXzXzXzXzXzXzXzXzXzX; ; ; ; ; zXzXzXzXzXzXzXzXzXzXzXzXzXzX",
"z X._.W.M.N.c.M.Z.D.S.A.F.A.A.A.S.S.D.D.B.m.X.z k zXzXzXzXzXzXzXzXzXzXzXzXzX; ; E E E E T , ; zXzXzXzXzXzXzXzXzXzXzXzX",
"z c P._.b.M.c.B.Z.D.S.A.A.A.A.m.S.D.B.H.$.X.c k zXzXzXzXzXzXzXzXzXzXzXzXzX, E E } } :.} } R E , zXzXzXzXzXzXzXzXzXzXzX",
"l z c _.x.M.M.B.B.Z.D.S.A.n.n.D.C.C.z.k.k.X.f s zXzXzXzXzXzXzXzXzXzXzXzXe R :.:.} >.>.>.:.} R R e zXo X . zXzXzXzXzXzX",
"zXk v c _.b.z.c.N.B.B.V.x.x.C.C.C.l.v.k.k.%.f z i i i % 7 zXi 7 Z i zXzX( ~ ,.,.1.1.1.>.<.<.wX~ T 1 # X   . zXzXzXzXzX",
"zX0 l z _._.v.z.N.M.x.x.x.n.x.x.x.X.k.k.*.k.%.z k l P U U Y U U U U J J ) 9.9.2.3.3.3.3.3.2.<.wXR 2 & X   . zXzXzXzXzX",
"zXzX0 l x P._.c.b.k.z.z.n.x.x.x.X.X.j g *.x.x.#.k v H qXU Y.Y.9XE.9XY.i.i.f.s.8.9.3.3.3.3.1.6.wXiX2 1 + @ . zXzXzXzXzX",
"zXzXzX0 0 k z P._.c.x.x.x.z.j g h s s s z *.x.!.t.H t.I dXsX9X0XpXpXpX0Xp.i.f.s.8.8.8.3.3.8.2.<.wX2 1 # + zXzXzXzXzXzX",
"zXzXzXzX5 0 l z K.K.z K.K.f a p p zXzXp l k *.!.!.r.t.I.sXaXsX0XaXaXhXpX0Xp.g.f.s.8.8.8.3.3.9.2.>.2 2 1 # zXzXzXzXzXzX",
"zXzXzXzXzX4 5 0 p a a a p 0 5 6 zXzXzXzXl l v J.(.(.T.U.aXaXaXkXgXkXgXaXhXR.p.f.s.8.8.3.3.3.3.>.~ y 2 1 zXzXzXzXzXzXzX",
"zXzXzXzXzXzXzX4 4 6 5 6 6 6 zXzXzXzXzXzXzXl H H W.^.U.E.aXaXkXkXkXkXeXaXhXfXp.g.s.8.8.3.3.3.1.1.t 2 6 zXzXzXzXzXzXzXzX",
"zXzXzXzXzXzXzXzXzXzXzXzXzXzXzXzXzXzXzXzX3 P k K t.I.U.E.gXkXkXkXdXlXlXwXhXfXp.p.f.8.8.3.1.1.6.` t y r 6 4 4 3 < zXzXzX",
"zXzXzXzXzXzXzXzXzXzXzXzXzXzXzXzXzXzXzXzX3 P U.iXdXI.sXaXaXkXkXkXlXeXlXlXhXfXjX4.[ 3.3.3.1.<.6.t t ..o... .g h h 3 zXzX",
"zXzXzXzXzXzXzXzXzXzXzXzXzXzXzXzXzXzXzXzX% P Y.iXdXI.sXsXaXgXgXgXlXlXhXhXhXjXj.f.| } 5.4.4.6.` ( O.'.o.o.W.(./.g h 4 zX",
"zXzXzXzXzXzXzXzXzXzXzXzXzXzXzXzXzXzXzXzX% P P I.U.9XI.dXsXaXgXgXgXhXhXhXjXh.g.f.5.' } 1.6.' ( O.+.'.{.$.'.'././.g d 4 ",
"zXzXzXzXzXzXzXzXzXzXzXzXzXzXzXzXzXzXzXzXzX% P I U.U.E.Y.I.0XpXpXhXfXfXh.h.g.f.s.8.3.} ' ' ` O.+.+.[.[.[.$.`.'.'.g d 4 ",
"zXzXzXzXzXzXzXzXzXzXzXzXzXzXzXzXzXzXzXzXzXzX% P P I U e.e.Y.p.T.T.p.h.g.g.f.s.8.5.5.1.' ] @.'.{.[.&.].}.Q.$.`.'. .d 4 ",
"zXzXzXzXzXzXzXzXzXzXzXzXzXzXzXzXzXzXzXzXzXzXzX% 7 K I ) ..=.e.e.e.e.[ [ s.s.8.5.1.1.1.a.] Q.{.{.}.}.&.&.`.v z L.c d 3 ",
"zXzXzXzXzXzXzXzXzXzXzXzXzXzXzXzXzXzXzXzXzXzXzXzXzX% 8 _ ) ~ ../ s.d.s.] ' 5.1.3.1.1.5.5.] ] {.{.}.}.&.&.].z l i h h < ",
"zXzXzXzXzXzXzXzXzXzXzXzXzXzXzXzXzXzXzXzXzXzXzXzXzXzXzX9 e { ..( ~ d.6.| ` ! <.1.1.1.1.5.a.| Q.{.}.}.&.&./.c l 5 h 3 zX",
"zXzXzXzXzXzXzXzXzXzXzXzXzXzXzXzXzXzXzXzXzXzXzXzXzXzXzXzXzX9 T e R R W W W W W >.1.1.1.5.a.a.| {.}.}.&.[.'.a 5 3 < zXzX",
"zXzXzXzXzXzXzXzXzXzXzXzXzXzXzXzXzXzXzXzXzXzXzXzXzXzXzXzXzXzX; ; , ^ ^ ^ / / / W } 5.} 5.5.a.] @.[.Q.&.'./.i 4 3 zXzXzX",
"zXzXzXzXzXzXzXzXzXzXzXzXzXzXzXzXzXzXzXzXzXzXzXzXzXzXzXzXzXzXzX& , |.{ ^ ^ / / / W } 5.1.5.a.a.] Q.+.'.'.W.g 3 zXzXzXzX",
"zXzXzXzXzXzXzXzXzXzXzXzXzXzXzXzXzXzXzXzXzXzXzXzXzXzXzXzXzXzXzX& : , , ^ ^ ^ ^ / / W } 1.1.5.a.] | {.'./. .h 1 zXzXzXzX",
"zXzXzXzXzXzXzXzXzXzXzXzXzXzXzXzXzXzXzXzXzXzXzXzXzXzXzXzXzXzXzX+ - : , , ^ ^ ^ ^ / / W 1.2.5.4.a.' y.W...^ 4 zXzXzXzXzX",
"zXzXzXzXzXzXzXzXzXzXzXzXzXzXzXzXzXzXzXzXzXzXzXzXzXzXzXzXzXzXzXzXo & - , e e ^ ^ ( ) ) ! 9.4.2.1.1.` ..( 2 zXzXzXzXzXzX",
"zXzXzXzXzXzXzXzXzXzXzXzXzXzXzXzXzXzXzXzXzXzXzXzXzXzXzXzXzXzXzXzXzXzX- : e e e t ( ( ) ) ! 9.9.2.5.W y q zXzXzXzXzXzXzX",
"zXzXzXzXzXzXzXzXzXzXzXzXzXzXzXzXzXzXzXzXzXzXzXzXzXzXzXzXzXzXzXzXzXzX> : 9 e t A ,.( ( =.=.-.9.9.6.,.Q A zXzXzXzXzXzXzX",
"zXzXzXzXzXzXzXzXzXzXzXzXzXzXzXzXzXzXzXzXzXzXzXzXzXzXzXzXzXzXzXzXzXzXzX> u T Q A -.0.G G :XG -.0.9.9.Q :.8 zXzXzXzXzXzX",
"zXzXzXzXzXzXzXzXzXzXzXzXzXzXzXzXzXzXzXzXzXzXzXzXzXzXzXzXzXzXzXzXzXzXzXzXy u Z Z 0.;.L 6X:X=.7X0.0.7.7.-.Z zXzXzXzXzXzX",
"zXzXzXzXzXzXzXzXzXzXzXzXzXzXzXzXzXzXzXzXzXzXzXzXzXzXzXzXzXzXzXzXzXzXzXzXzXr C F ;.F 4X6X:XG 7X7X0.0.7.7.Z V zXzXzXzXzX",
"zXzXzXzXzXzXzXzXzXzXzXzXzXzXzXzXzXzXzXzXzXzXzXzXzXzXzXzXzXzXzXzXzXzXzXzXzXV C S D -X2X6X6X6X%X7Xq.q.;.F V V zXzXzXzXzX",
"zXzXzXzXzXzXzXzXzXzXzXzXzXzXzXzXzXzXzXzXzXzXzXzXzXzXzXzXzXzXzXzXzXzXzXzXzXm S *X1X1X1X4X4X6X6X%X%X&XF -XS C zXzXzXzXzX",
"zXzXzXzXzXzXzXzXzXzXzXzXzXzXzXzXzXzXzXzXzXzXzXzXzXzXzXzXzXzXzXzXzXzXzXzXzXm S =X-X1X3X3X4X4X4X2X2X5X-X-X*XN m zXzXzXzX",
"zXzXzXzXzXzXzXzXzXzXzXzXzXzXzXzXzXzXzXzXzXzXzXzXzXzXzXzXzXzXzXzXzXzXzXzXzXm N *X;X1X3X3X3X3X4X4X4X5X5X>X*XN m zXzXzXzX",
"zXzXzXzXzXzXzXzXzXzXzXzXzXzXzXzXzXzXzXzXzXzXzXzXzXzXzXzXzXzXzXzXzXzXzXzXzXm S *X;X,X1X3X3X3X3X3X3X3X<X>X=XB n zXzXzXzX",
"zXzXzXzXzXzXzXzXzXzXzXzXzXzXzXzXzXzXzXzXzXzXzXzXzXzXzXzXzXzXzXzXzXzXzX@ @ $ N *X*X;X,X1X<X<X<X3X<X,X>X>X=XB N zXzXzXzX",
"zXzXzXzXzXzXzXzXzXzXzXzXzXzXzXzXzXzXzXzXzXzXzXzXzXzXzXzXzXzXzXzXzXzX  @ $ $ $ =XC S D D 1X,X,X,X,X,X>X=X=XN n zXzXzXzX",
"zXzXzXzXzXzXzXzXzXzXzXzXzXzXzXzXzXzXzXzXzXzXzXzXzXzXzXzXzXzXzXzXzXzX  @ 2 r r Z V T.L L D 1X,X,X,X>X>X=XB n zXzXzXzXzX",
"zXzXzXzXzXzXzXzXzXzXzXzXzXzXzXzXzXzXzXzXzXzXzXzXzXzXzXzXzXzXzXzXzXzX  X q q r 8 J A p.w.G D -X;X>X=X=XB N n zXzXzXzXzX",
"zXzXzXzXzXzXzXzXzXzXzXzXzXzXzXzXzXzXzXzXzXzXzXzXzXzXzXzXzXzXzXzXzXzX  # q q r 8 t t u.J G C *X*X=XB N N n zXzXzXzXzXzX",
"zXzXzXzXzXzXzXzXzXzXzXzXzXzXzXzXzXzXzXzXzXzXzXzXzXzXzXzXzXzXzXzXzX  X + # < 9 1 4 8 ..A t V m S N N m n zXzXzXzXzXzXzX",
"zXzXzXzXzXzXzXzXzXzXzXzXzXzXzXzXzXzXzXzXzXzXzXzXzXzXzXzXzXzXzXzXzX  + > : 9 1 w d e t x t 8 M m m n zXzXzXzXzXzXzXzXzX",
"zXzXzXzXzXzXzXzXzXzXzXzXzXzXzXzXzXzXzXzXzXzXzXzXzXzXzXzXzXzXzXzX.   = > : * w w w d w y.t r $ % zXzXzXzXzXzXzXzXzXzXzX",
"zXzXzXzXzXzXzXzXzXzXzXzXzXzXzXzXzXzXzXzXzXzXzXzXzXzXzXzXzXzXzXzX.   = > > < 9 , w w w y.w q # # zXzXzXzXzXzXzXzXzXzXzX",
"zXzXzXzXzXzXzXzXzXzXzXzXzXzXzXzXzXzXzXzXzXzXzXzXzXzXzXzXzXzXzXzX.   = = : * : h w h w *.w q # # zXzXzXzXzXzXzXzXzXzXzX",
"zXzXzXzXzXzXzXzXzXzXzXzXzXzXzXzXzXzXzXzXzXzXzXzXzXzXzXzXzXzXzXzX.   + > > O : , w w y.h 9 > + + zXzXzXzXzXzXzXzXzXzXzX",
"zXzXzXzXzXzXzXzXzXzXzXzXzXzXzXzXzXzXzXzXzXzXzXzXzXzXzXzXzXzXzXzXzX    + + & & : , , w : : O + X zXzXzXzXzXzXzXzXzXzXzX",
"zXzXzXzXzXzXzXzXzXzXzXzXzXzXzXzXzXzXzXzXzXzXzXzXzXzXzXzXzXzXzXzXzXzX  + + O & * * < * < O O + zXzXzXzXzXzXzXzXzXzXzXzX",
"zXzXzXzXzXzXzXzXzXzXzXzXzXzXzXzXzXzXzXzXzXzXzXzXzXzXzXzXzXzXzXzXzXzXzXzXzXzX  O * O O < O + zXzXzXzXzXzXzXzXzXzXzXzXzX"
};
