/* XPM */
static char *result[] = {
/* columns rows colors chars-per-pixel */
"57 54 222 2 ",
"   c #2B1B18",
".  c #321E1A",
"X  c #34201C",
"o  c #3B221E",
"O  c #2E201E",
"+  c #392725",
"@  c #3A2D31",
"#  c #301F20",
"$  c #792B1D",
"%  c #68361E",
"&  c #6D2D1E",
"*  c #432C24",
"=  c #462B27",
"-  c #4A372B",
";  c #5D3B2B",
":  c #54372B",
">  c #433933",
",  c #573C33",
"<  c #512F2C",
"1  c #623E29",
"2  c #6C3925",
"3  c #773823",
"4  c #673B37",
"5  c #753D38",
"6  c #712F20",
"7  c #65441F",
"8  c #574337",
"9  c #524334",
"0  c #6B452C",
"q  c #69472A",
"w  c #734D2B",
"e  c #794628",
"r  c #7B532C",
"t  c #76512A",
"y  c #684737",
"u  c #754D33",
"i  c #78483A",
"p  c #7B5434",
"a  c #785439",
"s  c #6D533C",
"d  c #7F6135",
"f  c #37304F",
"g  c #363767",
"h  c #3A3C77",
"j  c #4F364B",
"k  c #6B3949",
"l  c #493767",
"z  c #503768",
"x  c #3C407C",
"c  c #584B42",
"v  c #5F5649",
"b  c #654A43",
"n  c #784448",
"m  c #714F4D",
"M  c #78775B",
"N  c #6D6654",
"B  c #51476E",
"V  c #7B7C62",
"C  c #67536D",
"Z  c #981516",
"A  c #8F1315",
"S  c #A5181C",
"D  c #84291F",
"F  c #99261A",
"G  c #883526",
"H  c #953327",
"J  c #8B2F23",
"K  c #A63529",
"L  c #A93932",
"P  c #B5392F",
"I  c #AB221F",
"U  c #CB2B3C",
"Y  c #CA373D",
"T  c #D3393E",
"R  c #D02F3F",
"E  c #844B2C",
"W  c #845A2E",
"Q  c #884937",
"!  c #924B38",
"~  c #8B5C34",
"^  c #865838",
"/  c #945436",
"(  c #95502F",
")  c #A74538",
"_  c #B14A3E",
"`  c #8B622D",
"'  c #99742D",
"]  c #8B6639",
"[  c #966939",
"{  c #8C7632",
"}  c #937D36",
"|  c #967737",
" . c #956E2B",
".. c #AA6936",
"X. c #AC743A",
"o. c #B17A3E",
"O. c #D7473D",
"+. c #9D2C4F",
"@. c #D63741",
"#. c #CE2F41",
"$. c #834343",
"%. c #865347",
"&. c #996C43",
"*. c #987644",
"=. c #8B6F52",
"-. c #A17252",
";. c #807F64",
":. c #B04B48",
">. c #DD4442",
",. c #DC4B44",
"<. c #D74C46",
"1. c #D65347",
"2. c #D34956",
"3. c #D65356",
"4. c #CF4C6F",
"5. c #7D8067",
"6. c #998439",
"7. c #A38D3E",
"8. c #A0803C",
"9. c #B98836",
"0. c #B59234",
"q. c #B78B2B",
"w. c #C69A2C",
"e. c #C5992A",
"r. c #C59338",
"t. c #CCA32B",
"y. c #CCA227",
"u. c #D4AC2C",
"i. c #D5AC2C",
"p. c #DCB32D",
"a. c #DEBA2D",
"s. c #CEA433",
"d. c #D4AC32",
"f. c #D2A934",
"g. c #DCB530",
"h. c #DEBA31",
"j. c #D8B53B",
"k. c #E1BD2E",
"l. c #E1BB31",
"z. c #E2BE3A",
"x. c #E5C32D",
"c. c #E8C72F",
"v. c #EAC92E",
"b. c #E5C433",
"n. c #EACA33",
"m. c #EBCD3B",
"M. c #E5C537",
"N. c #B48344",
"B. c #A99442",
"V. c #B59B46",
"C. c #878268",
"Z. c #999A7D",
"A. c #8C8D74",
"S. c #A8954B",
"D. c #C89947",
"F. c #CF9546",
"G. c #C2AB4E",
"H. c #D8B744",
"J. c #C5AE51",
"K. c #CCB355",
"L. c #CCB95D",
"P. c #D3AE52",
"I. c #DAAE68",
"U. c #DBB46B",
"Y. c #DDB96F",
"T. c #DEBB72",
"R. c #DEB877",
"E. c #D7B66A",
"W. c #E1B56D",
"Q. c #E2BC74",
"!. c #E1B979",
"~. c #E3C343",
"^. c #EDD241",
"/. c #D8C568",
"(. c #E7D46D",
"). c #E2C177",
"_. c #E3C279",
"`. c #E9DA74",
"'. c #ECDE79",
"]. c #E6D571",
"[. c #E2CD69",
"{. c #F2E47C",
"}. c #EFE179",
"|. c #3C3F84",
" X c #3D4187",
".X c #404390",
"XX c #464ADB",
"oX c #5953DE",
"OX c #6958DB",
"+X c #745EDB",
"@X c #7865D8",
"#X c #484EE1",
"$X c #4A52E5",
"%X c #4C54E9",
"&X c #4751E4",
"*X c #5453E5",
"=X c #5754E7",
"-X c #6154E3",
";X c #8568D2",
":X c #9A9D83",
">X c #A6A68B",
",X c #B4B59B",
"<X c #ADAF95",
"1X c #B9BCA2",
"2X c #DEB781",
"3X c #E0B680",
"4X c #F4E884",
"5X c #F6EB8B",
"6X c #F5EA87",
"7X c #F9EF92",
"8X c #F7EE91",
"9X c #F9F093",
"0X c #DCC9B5",
"qX c #D4C9B3",
"wX c #D4D3BC",
"eX c #DAD2BD",
"rX c #D1CBB5",
"tX c #E1C8B5",
"yX c #DAD6C1",
"uX c #DCD9C5",
"iX c #DAD9C5",
"pX c None",
/* pixels */
"pXpXpXpXpXpXpXpXpXpXpXpXpXpXpXpXH H H H G pXpXpXpXpXpXpXpXpXpXpXpXpXpXpXpXpXpXpXpXpXpXpXpXpXpXpXpXpXpXpXpXpXpXpXpX",
"pXpXpXpXpXpXpXpXpXpXpXpXpXpXJ H S S I S S G G pXpXpXpXpXpXpXpXpXpXpXpXpXpXpXpXpXpXpXpXpXpXpXpXpXpXpXpXpXpXpXpXpXpX",
"pXpXpXpXpXpXpXpXpXpXpXpXD J S S @.T @.@.I S Z 3 pXpXpXpXpXpXpXpXpXpXpXpXpXpXpXpXpXpXpXpXpXpXpXpXpXpXpXpXpXpXpXpXpX",
"pXpXpXpXpXpXpXpXpXpXpXD Z S U T @.>.>.>.>.@.F A 6 pXpXpXpXpXpXpXpXpXpXpXpXpXpXpXpXpXpXpXpXpXpXpXpXpXpXpXpXpXpXpXpX",
"pXpXpXpXpXpXpXpXpXpX$ Z S #.@.O.>.>.,.,.>.O.@.A 3 pXpXpXpXpXpXpXpXpXpXpXpXpXpXpXpXpXpXpXpXpXpXpXpXpXpXpXpXpXpXpXpX",
"pXpXpXpXpXpXpXpXpX$ Z Z #.#.@.>.>.,.,.,.<.>.@.F A 6 pXpXpXpXpXpXpXpXpXpXpXpXpXpXpXpXpXpXpXpXpXpXpXpXpXpXpXpXpXpXpX",
"pXpXpXpXpXpXpXpXA A S U #.@.>.>.,.3.tX0X0X0XO.P A & pXpXpXpXpXpXpXpXpXpXpXpXpXpXpXpXpXpXpXpXpXpXpXpXpXpXpXpXpXpXpX",
"pXpXpXpXpX& $ D Z S U #.@.@.>.,.,.tXtXY 0XK qXY A 2 pXpXpXpXpXpXpXpXpXpXpXpXpXpXpXpXpXpXpXpXpXpXpXpXpXpXpXpXpXpXpX",
"pXpXpX& & A A Z Z U R T @.>.>.,.1.0X0XL L K qXY D & pXpXpXpXpXpXpXpXpXpXpXpXpXpXpXpXpXpXpXpXpXpXpXpXpXpXpXpXpXpXpX",
"pXpX$ $ A U U Z R T T O.O.,.,.,.1.0X0XL K H qXD 2 pXpXpXpXpXpXpXpXpXpXpXpXpXpXpXpXpXpXpXpXpXpXpXpXpXpXpXpXpXpXpXpX",
"pXpX3 Z U Y T T O.O.O.>.,.,.<.1.P $.i n k 4 , < = o pXpXpXpXpXpXpXpXpXpXpXpXpXpXpXpXpXpXpXpXpXpXpXpXpXpXpXpXpXpXpX",
"pX3 F Y Y O.O.O.O.O.O.P ! ! ! ! ^ n i n 4 , , < = o #   pXpXpXpXpXpXpXpXpXpXpXpXpXpXpXpXpXpXpXpXpXpXpXpXpXpXpXpXpX",
"pXE F O.O.O.I E ( ( _ ) / / / %.%.m p a y y , < = + X     pXpXpXpXpXpXpXpXpXpXpXpXpXpXpXpXpXpXpXpXpXpXpXpXpXpXpXpX",
"pX2 ( ( E W ( ....F.W.W.W.!.!.!...a Y.Y.E.^ E , pXpXpXpXpXpXpXpXpXpXpXpXpXpXpXpXpXpXpXpXpXpXpXpXpXpXpXpXpXpXpXpXpX",
"4 ( / I.I.W.W.....W.W.!.!.Q.Q.Q.&.] T.Y.E.a u 8 , pXpXpXpXpXpXpXpXpXpXpXpXpXpXpXpXpXpXpXpXpXpXpXpXpXpXpXpXpXpXpXpX",
"4 / U.W.W.W.W.X.o.H.!.Q.)._.Q._.*.*.T.R.T.] [ ~ W : pXpXpXpXpXpXpXpXpXpXpXpXpXpXpXpXpXpXpXpXpXpXpXpXpXpXpXpXpXpXpX",
"0 / U.U.' ..Y.o.-.9.N._._._._._.*.*._._.).P.Q.E.D.W - pXpXpXpXpXpXpXpXpXpXpXpXpXpXpXpXpXpXpXpXpXpXpXpXpXpXpXpXpXpX",
", ~ I.U.T.X.T.o.9.N.N._._._._._.*.N._._._.).).Y.U.r.e * pXpXpXpXpXpXpXpXpXpXpXpXpXpXpXpXpXpXpXpXpXpXpXpXpXpXpXpXpX",
"; ^ ~ I.U.W.Q.).N.N._.2X_._._._._._._._.).).).Q.U.I.w * pXpXpXpXpXpXpXpXpXpXpXpXpXpXpXpXpXpXpXpXpXpXpXpXpXpXpXpXpX",
"pX, ^ ~ U.T.R.!.)._._._._.*.*._._._._._.).).).Y.U.E.w * pXpXpXpXpXpXpXpXpXpXpXpXpXpXpXpXpXpXpXpXpXpXpXpXpXpXpXpXpX",
"pXpX, y ^ [ !.R.Q._._._.*.&.] } )./.).).).).Q.Y.U.r.t + pXpXpXpXpXpXpXpXpXpXpXpXpXpXpXpXpXpXpXpXpXpXpXpXpXpXpXpXpX",
"pXpXpXpXb [ &.R.3X2X!._.&.] ] %.m P.W.Q.T.Y.Y.E.D.E - pXpXpXpXpXpXpXpXpXpXpXpXpXpXpXpXpXpXpXpXpXpXpXpXpXpXpXpXpXpX",
"pXpXpXpXj b m &.2X3X3X!.!.%.^ m ^ a [ [ G.G.F.~ 8 - pXpXpXpXpXpXpXpXpXpXpXpXpXpXpXpXpXpXpXpXpXpXpXpXpXpXpXpXpXpXpX",
"pXpXpXpXB B C C -.-.3X!.W.R.^ Q u i s s u y y 8 : pXpXpXpXpXpXpXpXpXpXpXpXpXpXpXpXpXpXpXpXpXpXpXpXpXpXpXpXpXpXpXpX",
"pXpXpXB B B OX+X;X;X:._ _ W.I.I.i i n y b b 8 c pXpXpXpXpXpXpXpXpXpXpXpXpXpXpXpXpXpXpXpXpXpXpXpXpXpXpXpXpXpXpXpXpX",
"pXpXh l h oX=XOX+X;X4.3.3.L / / ! y y b y c pXpXpXpXpXpXpXpXpXpXpXpXpXpXpXpXpXpXpX{ } } 6.} 6.} pXpXpXpXpXpXpXpXpX",
"pXg h x $XoX=XOX+X4.4.2.2.<.<.O.H / %.s b v v c pXpXpXpXpXpXpXpXpXpXpXpXpXpXpX{ 6.6.7.S.B.B.B.7.7.6.6.pXpXpXpXpXpX",
"pXh  XXX$X*X=X=X-X4.4.4.2.,.<.<.1.3.) ;.C.C.5.v v 9 9 @ pXpXpXpXpXpXpXpXpXpX} 6.B.].]./.'.'.V.].V.B.7.6.6.pXpXpXpX",
"h  X X&X$X*X=X=XOX4.+.#.2.2.<.<.1.) wXwXiX>X>X5.5.5.V M 9 @ pXpXpXpXpXpXpX{ 6.].4X4X4X4X5X5X5X5X'.'.'.B.B.6.6.pXpX",
"x  X&X&X%X%X=X=X-XOX4.+.5 5 5 Q ) rXeXeXiXiXiX<XA.wXrX:XV N @ pXpXpXpXpXpX} 6.L.4X4X5X5X7X7X8X8X8X5X6X/.].B.B.6.pX",
"x  X%X%X%X%X=X=X-X-XOXk +.Q $./ [ %.eXeXiXiXiXiX,X:XwXwXZ.M M @ pXpXpXpXw d L./.4X5X8X8X9X9X9X9X8X8X5X6X4X`.B.B.pX",
" X X%X%X%X%X%X=X*X-Xz m +.i ! / [ &.=.eXiXiXiX1X,X:XyXwXrXZ.M 9 pXpXpXpXp ] L.].'.5X5X8X9X9X9X9X8X8X8X5X4X4X`.B.7.",
" X X%X%X%X%X%X%X=XoXz +.n Q Q / [ &.-.eXuXuXuXrX,X:XuXwX=.a s 9 pXpXpXu d d.s.`.}.].4X8X9X9X9X9X7X7X8X5X6X4X`.V.B.",
"x  X&X&X$X%X*X*X*Xz m n n r E D.F.&.-.;.uXuXuX,X,X>XiXeX=.m s s y 0 w p ] h.M.j.[.}.{.{.}.4X9X8X7X7X`.5X}.'./.V.} ",
"pX|. X&X#X#X#X*XoXz k b i e F.E ^ [ [ =.eXuXuXuX1XZ.<X<XV.V.0.a u t p W u.h.M.M.z.H.(.].`.{.{.4X4X{.{.].}./.H.X.| ",
"pXg h &X#X#XXXXXl k j +.Q r.E E ^ ] [ N eXuXuX<XZ.eXwXH.H.f.f.0.q.q.` ` a.h.b.M.m.^.~.~.^.(.`.{.(.(.(.[.H.j.j.| | ",
"pXpXg h XXXXXXXXl k j i e F.e e Q ^ y wXwX>X>XA.wXwXwX6.6.*.| t.u.u.W  .a.x.b.b.n.m.z.M.m.^.~.~.~.~.H.j.j.f.j.| ` ",
"pXpXpXg g XXXXf k 5 5 : r.3 E 3 e u 8 M V V 5.5.5.5.C.s s y { | ' } ` u.a.k.b.x.b.n.z.z.m.m.m.m.m.m.m.M.f.s.d. .] ",
"pXpXpXpXf f f f 4 4 2 e 9.e 3 e e < : a a a a 8 9 9 9 8 8 y q 0 t W ` u.a.x.x.c.b.n.k.n.n.m.m.m.n.n.M.b.f.h. .` 7 ",
"pXpXpXpXpXf f @ @ 2 2 9.e 3 3 2 2 = = 2 0 4 > > pXpXpXpXpX: ; 1 q r ` u.x.x.x.c.v.v.x.n.n.n.n.v.n.b.b.b.l.h. .W 7 ",
"pXpXpXpXpXpXpX+ + + 2 9.% % 2 % + + + + + + + pXpXpXpXpXpXpXpXpXpXt W i.l.k.k.p.v.v.v.v.n.v.n.l.v.x.x.x.a. .` W 7 ",
"pXpXpXpXpXpXpXpX# # o 2 % % % o o pXpXX X O pXpXpXpXpXpXpXpXpXpXpXr y.i.p.k.p.p.v.v.v.v.v.v.v.p.v.x.x.a.0. .` r 0 ",
"pXpXpXpXpXpXpXpXpX# X . . o . . pXpXpXpXpXpXpXpXpXpXpXpXpXpXpXpX2 t y.i.p.l.p.p.v.v.v.v.v.v.l.p.x.x.x.q.e.e.u.t 0 ",
"pXpXpXpXpXpXpXpXpXpX    .     pXpXpXpXpXpXpXpXpXpXpXpXpXpXpXpXpX1 w y.i.i.p.i.c.v.v.v.v.v.x.l.x.x.x.x.q.e.p.y.t 0 ",
"pXpXpXpXpXpXpXpXpXpXpXpXpXpXpXpXpXpXpXpXpXpXpXpXpXpXpXpXpXpXpXpX; w y.y.i.i.i.l.c.c.c.c.v.l.i.k.x.x.k.' e.i.t 0 pX",
"pXpXpXpXpXpXpXpXpXpXpXpXpXpXpXpXpXpXpXpXpXpXpXpXpXpXpXpXpXpXpXpX; q G.u.i.f.f.l.l.l.c.c.x.p.p.v.x.k.i.y.W r 0 1 pX",
"pXpXpXpXpXpXpXpXpXpXpXpXpXpXpXpXpXpXpXpXpXpXpXpXpXpXpXpXpXpXpXpX- q G.y.i.w.t.l.l.l.l.l.p.i.l.p.p.e.y.y.t q 1 pXpX",
"pXpXpXpXpXpXpXpXpXpXpXpXpXpXpXpXpXpXpXpXpXpXpXpXpXpXpXpXpXpXpXpXpX7 w G.s.w.t.p.l.l.p.l.i.i.l.i.p.e.y.r w pXpXpXpX",
"pXpXpXpXpXpXpXpXpXpXpXpXpXpXpXpXpXpXpXpXpXpXpXpXpXpXpXpXpXpXpXpXpX; q G.J.0.t.g.g.g.g.s.u.p.i.i.w.t.e.w 7 pXpXpXpX",
"pXpXpXpXpXpXpXpXpXpXpXpXpXpXpXpXpXpXpXpXpXpXpXpXpXpXpXpXpXpXpXpXpXpX; q G.J.K.f.i.s.s.s.s.i.d.e.e.y.w q pXpXpXpXpX",
"pXpXpXpXpXpXpXpXpXpXpXpXpXpXpXpXpXpXpXpXpXpXpXpXpXpXpXpXpXpXpXpXpXpXpXq w p J.K.K.K.s.s.d.i.w.e.J.t 0 ; pXpXpXpXpX",
"pXpXpXpXpXpXpXpXpXpXpXpXpXpXpXpXpXpXpXpXpXpXpXpXpXpXpXpXpXpXpXpXpXpXpXpX8 w p W ] K.K.K.P.K.K.W r 0 1 : pXpXpXpXpX",
"pXpXpXpXpXpXpXpXpXpXpXpXpXpXpXpXpXpXpXpXpXpXpXpXpXpXpXpXpXpXpXpXpXpXpXpXpXpXw s p ^ ] ~ ` ^ W u u 1 pXpXpXpXpXpXpX",
"pXpXpXpXpXpXpXpXpXpXpXpXpXpXpXpXpXpXpXpXpXpXpXpXpXpXpXpXpXpXpXpXpXpXpXpXpXpXpXpXpXa p p a p u pXpXpXpXpXpXpXpXpXpX"
};
