/* XPM */
static char *result[] = {
/* columns rows colors chars-per-pixel */
"48 51 216 2 ",
"   c #2C0D0C",
".  c #250C0B",
"X  c #380D0E",
"o  c #2D130E",
"O  c #37170E",
"+  c #2C1215",
"@  c #3C1B12",
"#  c #361616",
"$  c #270F11",
"%  c #3D2313",
"&  c #3B2218",
"*  c #2C1828",
"=  c #2E1738",
"-  c #372427",
";  c #3F332D",
":  c #392739",
">  c #441E13",
",  c #461412",
"<  c #541812",
"1  c #4C130F",
"2  c #44230F",
"3  c #442413",
"4  c #4A2414",
"5  c #492918",
"6  c #592915",
"7  c #56311E",
"8  c #57220D",
"9  c #7C3308",
"0  c #783409",
"q  c #6D3014",
"w  c #472928",
"e  c #592827",
"r  c #40332F",
"t  c #503430",
"y  c #663B30",
"u  c #7B430D",
"i  c #78440B",
"p  c #6C4313",
"a  c #744A13",
"s  c #7A4E16",
"d  c #754519",
"f  c #7D5017",
"g  c #50443C",
"h  c #6B4725",
"j  c #75452C",
"k  c #764624",
"l  c #744839",
"z  c #714F2E",
"x  c #322D78",
"c  c #342F71",
"v  c #2F1E44",
"b  c #573747",
"n  c #452E50",
"m  c #473A77",
"M  c #573E77",
"N  c #5C5241",
"B  c #55455A",
"V  c #4F4D5D",
"C  c #704E4B",
"Z  c #544B78",
"A  c #5D5574",
"S  c #524E6C",
"D  c #68576C",
"F  c #5E6561",
"G  c #747967",
"H  c #676B68",
"J  c #9B1D0B",
"K  c #961E0B",
"L  c #A41E0D",
"P  c #AB1F0E",
"I  c #AE1F10",
"U  c #9D240E",
"Y  c #84330A",
"T  c #8C340B",
"R  c #99360D",
"E  c #82351E",
"W  c #A8210E",
"Q  c #A82611",
"!  c #B42111",
"~  c #B92013",
"^  c #B93918",
"/  c #AB3214",
"(  c #993726",
")  c #91362F",
"_  c #A63628",
"`  c #A93C33",
"'  c #C72319",
"]  c #C43D19",
"[  c #D1261E",
"{  c #DB2E2F",
"}  c #DD2F31",
"|  c #DD3333",
" . c #DC3B34",
".. c #D9332F",
"X. c #E23235",
"o. c #E43D37",
"O. c #E63439",
"+. c #E9343C",
"@. c #E53B39",
"#. c #E93A3D",
"$. c #82490E",
"%. c #885218",
"&. c #8E4D17",
"*. c #AF721E",
"=. c #994829",
"-. c #985928",
";. c #8B562B",
":. c #A75232",
">. c #9E6A2B",
",. c #A66B23",
"<. c #BC7A23",
"1. c #B97627",
"2. c #A97632",
"3. c #B16F2C",
"4. c #C6431D",
"5. c #C84624",
"6. c #E34537",
"7. c #E5443B",
"8. c #E64A3E",
"9. c #E8413D",
"0. c #C47D24",
"q. c #CB7C25",
"w. c #C87927",
"e. c #C37E32",
"r. c #D07E2F",
"t. c #8B324B",
"y. c #9D5744",
"u. c #AB574A",
"i. c #AF4D44",
"p. c #B27942",
"a. c #9D7474",
"s. c #DA4B56",
"d. c #DB484D",
"f. c #C17E43",
"g. c #DA4966",
"h. c #DD5667",
"j. c #D74878",
"k. c #DD5A78",
"l. c #E06C79",
"z. c #DE6A6B",
"x. c #7B826F",
"c. c #BE8B3B",
"v. c #CC852C",
"b. c #C7842A",
"n. c #CB8D32",
"m. c #C4843C",
"M. c #C58938",
"N. c #D08835",
"B. c #CD943A",
"V. c #D09338",
"C. c #85887A",
"Z. c #C28B42",
"A. c #C4924A",
"S. c #D9AB67",
"D. c #DAB26E",
"F. c #D7B06B",
"G. c #DDB572",
"H. c #DEB975",
"J. c #E5BD7A",
"K. c #E3B877",
"L. c #E6C17C",
"P. c #362E85",
"I. c #393587",
"U. c #3A3596",
"Y. c #453E89",
"T. c #443D95",
"R. c #50388B",
"E. c #4E4585",
"W. c #7C78B4",
"Q. c #3D3BEE",
"!. c #3F3DF2",
"~. c #463DED",
"^. c #543EEE",
"/. c #413EF3",
"(. c #4F3FF4",
"). c #533EF1",
"_. c #7B79C8",
"`. c #4B43EE",
"'. c #5846ED",
"]. c #5D53EC",
"[. c #4442F5",
"{. c #4B44F3",
"}. c #4C49F7",
"|. c #534CF5",
" X c #5547F6",
".X c #5955F6",
"XX c #6A4AEC",
"oX c #774AEC",
"OX c #6546F2",
"+X c #685BF4",
"@X c #7255ED",
"#X c #6A65F0",
"$X c #CC399C",
"%X c #8C74AF",
"&X c #93739A",
"*X c #D84D85",
"=X c #DE648B",
"-X c #8252E8",
";X c #877AC1",
":X c #888D8F",
">X c #9085A4",
",X c #B0A9AF",
"<X c #A9A2CE",
"1X c #C7C6CA",
"2X c #D3D2CB",
"3X c #DAD3CE",
"4X c #D5D3D3",
"5X c #DBD6D5",
"6X c #DBD5DB",
"7X c #DBD7DC",
"8X c #CAC8D0",
"9X c #E2D8D9",
"0X c #D4CFE4",
"qX c #D5D3E4",
"wX c #D9D6E3",
"eX c None",
/* pixels */
"eXeXeXeXeXeXeXeXeXeXeXeXeXeXeXeXeXeXeXeXeXeXR R R R R T eXeXeXeXeXeXeXeXeXeXeXeXeXeXeXeXeXeXeXeX",
"eXeXeXeXeXeXeXeXeXeXeXeXeXeXeXeXeXeXeXeXT R P ! ~ ~ ! W T eXeXeXeXeXeXeXeXeXeXeXeXeXeXeXeXeXeXeX",
"eXeXeXeXeXeXeXeXeXeXeXeXeXeXeXeXeXeXeXY L ! ~ X.X.X.{ ! L Y eXeXeXeXeXeXeXeXeXeXeXeXeXeXeXeXeXeX",
"eXeXeXeXeXeXeXeXeXeXeXeXeXeXeXeXeXeXY L I } } X.X.X.X.{ P L Y eXeXeXeXeXeXeXeXeXeXeXeXeXeXeXeXeX",
"eXeXeXeXeXeXeXeXeXeXeXeXeXeXeXeXeX9 L L } X.X.O.O.O.O.} } L Y eXeXeXeXeXeXeXeXeXeXeXeXeXeXeXeXeX",
"eXeXeXeXeXeXeXeXeXeXeXeXeXeXeXeXeXY L { } X.O.O.O.O.O.X.} } L 9 eXeXeXeXeXeXeXeXeXeXeXeXeXeXeXeX",
"eXeXeXeXeXeXeXeXeXeXeXeXeXeXeXeX9 J P } X.O.O.+.+.O.O.O.X.} L K 1 X   . eXeXeXeXeXeXeXeXeXeXeXeX",
"eXeXeXeXeXeXeXeXeXeXeXeXeXeXeX9 J P } X.X.+.+.+.+.+.O.O.X.} L J 1 X X   . eXeXeXeXeXeXeXeXeXeXeX",
"eXeXeXeXeXeXeXeXeXeXeXeXeXeXeXY P { } X.+.+.+.+.+.+.+.+.| | } K 1 , X   . eXeXeXeXeXeXeXeXeXeXeX",
"eXeXeXeXeXeXeXeXeXeXeXeXeXeXeXT P } X.O.+.+.+.+.+.+.+.+.O.| } U q , X   eXeXeXeXeXeXeXeXeXeXeXeX",
"eXeXeXeXeXeXeXeXeXeXeXeXeX9 Y R ! } X.O.+.+.+.+.+.+.+.#.O.| | e < < > eXeXeXeXeXeXeXeXeXeXeXeXeX",
"eXeXeXeXeXeXeXeXeXeXeXeX9 J L ! ~ ' ' [ +.+.+.#.+.#.#.#.@.#.E q 6 eXeXeXeXeXeXeXeXeXeXeXeXeXeXeX",
"eXeXeXeXeXeXeXeXeXeXeX0 U L ..} } X.O.O.[ [ #.#.#.#.9.#.7.) q k p 7 5 2 eXeXeXeXeXeXeXeXeXeXeXeX",
"eXeXeXeXeXeXeXeXeXeX8 U W ....X.X.O.O.O.+.#.#.#.9.9.9.6.=.=.w.-.%.f %.a 5 eXeXeXeXeXeXeXeXeXeXeX",
"eXeXeXeXeXeXeXeXeXeX0 U .... .X.o.O.+.+.#.#.#.9.8.8.8.:.=.e.e.c.>.F.F.f s % eXeXeXeXeXeXeXeXeXeX",
"eXeXeXeXeXeXeXeXeXeX0 Q .. .o.o.o.O.o.O.#.9.9.8.8.4.:.:.3.,.M.b.H.H.D.D.f % eXeXeXeXeXeXeXeXeXeX",
"eXeXeXeXeXeXeXeXeXeX0 W  . .6.o.9.o.6.o.#.6.8.4.5.5.N.K.K.K.w.n.H.H.H.F.s % eXeXeXeXeXeXeXeXeXeX",
"eXeXeXeXeXeXeXeXeX2 i S./ / 6. .6.6.6.6.] ] 4.r.N.N.K.J.J.J.J.3.B.L.D.F.f 5 eXeXeXeXeXeXeXeXeXeX",
"eXeXeXeXeXeXeXeXeX> u S.S.w.^ ] ] ] ] 4.q.q.v.v.N.V.J.L.L.L.L.2.c.z D.F.s ; eXeXeXeXeXeXeXeXeXeX",
"eXeXeXeXeXeXeXeXeX3 9 S.S.<.0.0.q.q.q.q.q.v.v.v.N.V.L.L.L.L.L.2.B.z z F.a % eXeXeXeXeXeXeXeXeXeX",
"eXeXeXeXeXeXeXeXeX@ i $.S.0.0.0.q.q.0.0.q.b.b.n.n.B.L.L.L.L.L.2.H.z h a p % eXeXeXeXeXeXeXeXeXeX",
"eXeXeXeXeXeXeXeXeXeX3 i $.&.<.<.q.q.0.b.b.b.b.v.n.B.B.L.L.L.2.H.H.z 7 a % eXeXeXeXeXeXeXeXeXeXeX",
"eXeXeXeXeXeXeXeXeXeXeX4 i &.*.<.<.0.0.0.0.b.b.b.n.B.B.B.2.2.H.G.z 7 5 % eXeXeXeXeXeXeXeXeXeXeXeX",
"eXeXeXeXeXeXeXeXeXeXeXeX8 $.&.*.<.<.0.0.b.b.b.b.M.n.J.J.J.H.G.;.%.5 eXeXeXeXeXeXeXeXeXeXeXeXeXeX",
"eXeXeXeXeXeXeXeXeXeXeXeX4 u *.*.1.1.1.1.e.e.e.f.M.M.m.K.H.G.-.%.7 eXeXeXeXeXeXeXeXeXeXeXeXeXeXeX",
"eXeXeXeXeXeXeXeXeXeXeXeX2 i *.,.3.1.:.;.:.f.f.f.p.Z.m.K.-.-.h 7 eXeXeXeXeXeXeXeXeXeXeXeXeXeXeXeX",
"eXeXeXeXeXeXeXeXeXeXeXeXO 0 a s ;.;.=.d.s.y.i.y.u.:.:.-.=.y eXeXeXeXeXeXeXeXeXeXeXeXeXeXeXeXeXeX",
"eXeXeXeXeXeXeXeXeXeXeXeXeX3 5 k ( ) D g.g.j.-XoX-Xa.s.s._ _ C eXeXeXeXeXeXeXeXeXeXeXeXeXeXeXeXeX",
"eXeXeXeXeXeXeXeXeXeXeXeXeXeXeXj ) M oXg.*X*XoXoX-Xg.g.s.d._ _ b eXeXeXeXeXeXeXeXeXeXeXeXeXeXeXeX",
"eXeXeXeXeXeXeXeXeXeXeXeXeXeXeXl t.R.^.XX*XoXOXoX-Xj.g.s.d.` _ C b eXeXeXeXeXeXeXeXeXeXeXeXeXeXeX",
"eXeXeXeXeXeXeXeXeXeXeXeXeXeXl t.M R.^.^.$XOXOXOXoX*Xk.h.h.s.` ( B n eXeXeXeXeXeXeXeXeXeXeXeXeXeX",
"eXeXeXeXeXeXeXeXeXeXeXeXeX: D t.R.^.^.^.).).OXOXoX&X*Xk.h.h.i.i.D B eXeXeXeXeXeXeXeXeXeXeXeXeXeX",
"eXeXeXeXeXeXeXeXeXeXeXeX: F 8XE.E.{.{.(.(. XOXOX+X%X=X=X=Xl.z.p.u.F B eXeXeXeXeXeXeXeXeXeXeXeXeX",
"eXeXeXeXeXeXeXeXeXeXeX- F 2X1XY.`.`.{.(.(.{. X X+X%X%X9X9X9X9X9X2XC.N eXeXeXeXeXeXeXeXeXeXeXeXeX",
"eXeXeXeXeXeXeXeXeXeXeX- F 1X1XU.`.}.[.[.[.}. X+X@X%X9XwX9X7X7X7X3X3XG g eXeXeXeXeXeXeXeXeXeXeXeX",
"eXeXeXeXeXeXeXeXeXeXeX- F 1XY.T.[.}.[.[./.}.}..X+X;X0XwX7X7X7X7X,X2X2XG ; eXeXeXeXeXeXeXeXeXeXeX",
"eXeXeXeXeXeXeXeXeXeXeX- S 1XI.Y.[.[.[.[.[.[.}..X+X#X<XqXwXwX,X7X,X1X1XG ; eXeXeXeXeXeXeXeXeXeXeX",
"eXeXeXeXeXeXeXeXeXeXeX- V S I.I.!.!.!.[.[.[.}..X+X;XqXqXwXwX,X7X2X2X2XG ; eXeXeXeXeXeXeXeXeXeXeX",
"eXeXeXeXeXeXeXeXeXeXeXeX= : S I.!.!.!.[.[.[.}..X.X_.qXqXwXwX7X4X4X4Xx.g eXeXeXeXeXeXeXeXeXeXeXeX",
"eXeXeXeXeXeXeXeXeXeXeXeXeXeXv x P.!.!.!.!.[.}.}..X#X_.qXqX7X7X4XC.x.g r eXeXeXeXeXeXeXeXeXeXeXeX",
"eXeXeXeXeXeXeXeXeXeXeXeXeXeXeXc x P.Q.Q.!./.(.}..X].#XW.>X:X:Xx.C N eXeXeXeXeXeXeXeXeXeXeXeXeXeX",
"eXeXeXeXeXeXeXeXeXeXeXeXeXeXeXeXc x P.P.U./.~.(.}.|.]..X#X#XA A eXeXeXeXeXeXeXeXeXeXeXeXeXeXeXeX",
"eXeXeXeXeXeXeXeXeXeXeXeXeXeXeXeX= x x m U.~.~.~.`.|.].].].A Z b t eXeXeXeXeXeXeXeXeXeXeXeXeXeXeX",
"eXeXeXeXeXeXeXeXeXeXeXeXeXeXeX* = e e b x R.~.~.`.'.E.Z A C p.2.r - eXeXeXeXeXeXeXeXeXeXeXeXeXeX",
"eXeXeXeXeXeXeXeXeXeXeXeXeXeXeX+ * 6 e y b n m m S m C C b z A.>.a & + eXeXeXeXeXeXeXeXeXeXeXeXeX",
"eXeXeXeXeXeXeXeXeXeXeXeXeXeXeX$ + # e e y w y C l l l z j t k d p % o eXeXeXeXeXeXeXeXeXeXeXeXeX",
"eXeXeXeXeXeXeXeXeXeXeXeXeXeXeX$ + < # # w w j y j j j k d d d p c.@ o eXeXeXeXeXeXeXeXeXeXeXeXeX",
"eXeXeXeXeXeXeXeXeXeXeXeXeXeXeX.   # < 6 6 > ,.d k d k d a ,.,.c.c.% o eXeXeXeXeXeXeXeXeXeXeXeXeX",
"eXeXeXeXeXeXeXeXeXeXeXeXeXeXeXeXo o o # # @ 5 Z.Z.A.Z.,.,.5 4 3 % O o eXeXeXeXeXeXeXeXeXeXeXeXeX",
"eXeXeXeXeXeXeXeXeXeXeXeXeXeXeXeXeX  o O O , @ 5 4 6 5 4 4 4 2 > O o eXeXeXeXeXeXeXeXeXeXeXeXeXeX",
"eXeXeXeXeXeXeXeXeXeXeXeXeXeXeXeXeXeXeXeXeXo @ > > > > 4 2 @ eXeXeXeXeXeXeXeXeXeXeXeXeXeXeXeXeXeX"
};
