/* XPM */
static char *result[] = {
/* columns rows colors chars-per-pixel */
"48 51 217 2 ",
"   c #2B1C1B",
".  c #251919",
"X  c #311E1C",
"o  c #34211D",
"O  c #3C251E",
"+  c #3E2A1F",
"@  c #2B1D22",
"#  c #2E2027",
"$  c #3B2523",
"%  c #362D2D",
"&  c #382624",
"*  c #352737",
"=  c #3B3232",
"-  c #432C1E",
";  c #4A321F",
":  c #58341F",
">  c #6A2A19",
",  c #732E1D",
"<  c #432B23",
"1  c #482C28",
"2  c #592E28",
"3  c #4E332B",
"4  c #4A3323",
"5  c #56372D",
"6  c #463A38",
"7  c #5C3B33",
"8  c #573531",
"9  c #683728",
"0  c #743C28",
"q  c #673B37",
"w  c #723E35",
"e  c #7B2E26",
"r  c #5F4431",
"t  c #4A413E",
"y  c #6B422D",
"u  c #754423",
"i  c #744429",
"p  c #7B4928",
"a  c #7F512A",
"s  c #684636",
"d  c #764337",
"f  c #79583C",
"g  c #6D5235",
"h  c #36334A",
"j  c #383659",
"k  c #362943",
"l  c #3A396A",
"z  c #3C3C75",
"x  c #4B3847",
"c  c #583B49",
"v  c #453858",
"b  c #4D334B",
"n  c #6A3E47",
"m  c #423D6A",
"M  c #463C63",
"N  c #5A5549",
"B  c #554A4F",
"V  c #6E4645",
"C  c #724146",
"Z  c #66594C",
"A  c #775447",
"S  c #684255",
"D  c #714352",
"F  c #665E56",
"G  c #7C545B",
"H  c #67685C",
"J  c #756155",
"K  c #494369",
"L  c #4D4373",
"P  c #494379",
"I  c #5F466E",
"U  c #7A5669",
"Y  c #775775",
"T  c #695071",
"R  c #717564",
"E  c #890D0D",
"W  c #941514",
"Q  c #8B100F",
"!  c #B21A1F",
"~  c #AB181D",
"^  c #8D251B",
"/  c #861F21",
"(  c #B11D21",
")  c #8A2C2A",
"_  c #962A26",
"`  c #98332B",
"'  c #843F34",
"]  c #8F3530",
"[  c #AB292A",
"{  c #B42423",
"}  c #B22C25",
"|  c #A4362B",
" . c #B83727",
".. c #A93333",
"X. c #CB2B3B",
"o. c #C32937",
"O. c #D22D3F",
"+. c #C8323D",
"@. c #864729",
"#. c #84572D",
"$. c #894636",
"%. c #895B36",
"&. c #994C34",
"*. c #A6482E",
"=. c #BD432C",
"-. c #A54738",
";. c #AE4E32",
":. c #946939",
">. c #A87A3D",
",. c #D93446",
"<. c #D73749",
"1. c #D5394A",
"2. c #D93948",
"3. c #D93647",
"4. c #CE3249",
"5. c #885846",
"6. c #925943",
"7. c #844D53",
"8. c #AA5744",
"9. c #896648",
"0. c #996240",
"q. c #9E7240",
"w. c #A27744",
"e. c #824F60",
"r. c #DD4346",
"t. c #DA464D",
"y. c #D5564B",
"u. c #D74C58",
"i. c #CD5355",
"p. c #D3555A",
"a. c #CB484F",
"s. c #E04548",
"d. c #E35344",
"f. c #E4584C",
"g. c #E05D52",
"h. c #D86556",
"j. c #E36558",
"k. c #D65564",
"l. c #D2516D",
"z. c #DA7161",
"x. c #E36E62",
"c. c #E37768",
"v. c #E67F72",
"b. c #7D866A",
"n. c #BC8D3B",
"m. c #BF903C",
"M. c #C0903A",
"N. c #B58746",
"B. c #898C6F",
"V. c #958D72",
"C. c #949478",
"Z. c #8A9074",
"A. c #A69478",
"S. c #A6846C",
"D. c #D8BD5C",
"F. c #CFA64D",
"G. c #DAAF66",
"H. c #DDB166",
"J. c #DDBB6D",
"K. c #DAB769",
"L. c #DEB971",
"P. c #E2AF68",
"I. c #E2B16B",
"U. c #E4BD74",
"Y. c #E9BB73",
"T. c #E3C275",
"R. c #E5C679",
"E. c #E7C97B",
"W. c #EACC7E",
"Q. c #E8C478",
"!. c #D9C06C",
"~. c #4D4683",
"^. c #705284",
"/. c #474CDE",
"(. c #584BDA",
"). c #4D51DE",
"_. c #5154DD",
"`. c #6B5EDD",
"'. c #7A5DDC",
"]. c #6965D9",
"[. c #7769DC",
"{. c #7573DD",
"}. c #474FE3",
"|. c #4C53E4",
" X c #4C55E9",
".X c #4C56E9",
"XX c #5254E3",
"oX c #5559E4",
"OX c #545BEB",
"+X c #595AE7",
"@X c #534EE0",
"#X c #665AE6",
"$X c #5B61EC",
"%X c #5D61E5",
"&X c #6565E6",
"*X c #6972E3",
"=X c #706EE2",
"-X c #896A93",
";X c #959D81",
":X c #B9B69A",
">X c #A6AF93",
",X c #B8BDA1",
"<X c #9BA488",
"1X c #DEC898",
"2X c #DFC68D",
"3X c #ECCE81",
"4X c #ECD081",
"5X c #DDC8A6",
"6X c #D8D7BB",
"7X c #D9DDC1",
"8X c #E5DFC4",
"9X c #DDE5C9",
"0X c #D9E2C6",
"qX c #E5E5CA",
"wX c #E4E9CD",
"eX c #E7E4C9",
"rX c None",
/* pixels */
"rXrXrXrXrXrXrXrXrXrXrXrXrXrXrXrXrXrXrXrXrXrX' $.$.$.rXrXrXrXrXrXrXrXrXrXrXrXrXrXrXrXrXrXrXrXrXrX",
"rXrXrXrXrXrXrXrXrXrXrXrXrXrXrXrX$ 1 3 8 ' $.[ | | ..5.5.Z Z Z Z rXrXN N B t = rXrXrXrXrXrXrXrXrX",
"rXrXrXrXrXrXrXrXrXrXrXrXrXrX# & Z Z J _ _ | | y.h.h.8.8.C.Z.C.C.H H b.b.b.R H % rXrXrXrXrXrXrXrX",
"rXrXrXrXrXrXrXrXrXrXrXrXrX  B N V.V.V._ ` y.g.h.h.z.A.A.:X:X:X;X;X;X>X<XC.;XH % rXrXrXrXrXrXrXrX",
"rXrXrXrXrXrXrXrXrXrXrXrXrX    & < V.) a.a.6X6X7Xx.A.:X:X:X,X,X,X,X,X0X7X7X;XH % rXrXrXrXrXrXrXrX",
"rXrXrXrXrXrXrXrXrXrXrXrX.   X & $ 3 8 a.6X` 6X8XA.:X,XwX9XwXwXwX9X9X0X0X6X;XH % rXrXrXrXrXrXrXrX",
"rXrXrXrXrXrXrXrXrXrXrXrX.   X & < 1 8 8 ` ` 8.8.A.:XwXwXwXwXwXwX9X9X9X>Xb.R F % rXrXrXrXrXrXrXrX",
"rXrXrXrXrXrXrXrXrXrXrXrXrX  o O 1 1 8 7 y s -.7XA.eXwXwXwXwXwXwX9X0X;Xb.R = = rXrXrXrXrXrXrXrXrX",
"rXrXrXrXrXrXrXrXrXrXrXrXrXrX9 O 1 3 7 7 V V A 7XA.8X8XeXeXeXwXeX9X;XZ.N t rXrXrXrXrXrXrXrXrXrXrX",
"rXrXrXrXrXrXrXrXrXrXrXrXrXrX9 ^ 3 8 r r s V A 9.A.A.8X8XeXeXeXeXA.V.Z rXrXrXrXrXrXrXrXrXrXrXrXrX",
"rXrXrXrXrXrXrXrXrXrXrXrXrXrXi ^ 7 r K.J.f A A 5.0.x.c.P.v.eXeX;XV.A rXrXrXrXrXrXrXrXrXrXrXrXrXrX",
"rXrXrXrXrXrXrXrXrXrXrX< 4 3 r 7 r :.L.!.L.L.5.5.6.x.x.x.c.c.l.z.-.$.rXrXrXrXrXrXrXrXrXrXrXrXrXrX",
"rXrXrXrXrXrXrXrXrXrX< i a #.:.:.f f !.T.T.U.U.U.=.j.j.j.j.g.g...| ' rXrXrXrXrXrXrXrXrXrXrXrXrXrX",
"rXrXrXrXrXrXrXrXrX< i #.K.J.F.>.9.9.R.R.Y.w.6.Y.=.g.f.f.f.f.f.} 4.) rXrXrXrXrXrXrXrXrXrXrXrXrXrX",
"rXrXrXrXrXrXrXrX+ u a K.!.T.Q.R.N.N.E.E.Q.q.0.Y.=.g.f.d.t.2.{ ( O.W e rXrXrXrXrXrXrXrXrXrXrXrXrX",
"rXrXrXrXrXrXrXrX$ i #.J.T.E.E.W.W.W.W.W.N.w.0.Y.=.f.d.s.3.,.! ~ X.W Q , rXrXrXrXrXrXrXrXrXrXrXrX",
"rXrXrXrXrXrXrXrX& i #.J.!.E.W.4X4X4X4XW.w.w.Y.Y.+.d.s.2.,.,.! O.X.X.Q E > rXrXrXrXrXrXrXrXrXrXrX",
"rXrXrXrXrXrXrXrX+ i #.J.T.R.W.4X4X4XW.W.N.w.Y.Y.=.d.s.2.,.,.! O.X.o.W E > rXrXrXrXrXrXrXrXrXrXrX",
"rXrXrXrXrXrXrXrX& i a F.T.R.W.W.W.W.W.W.E.Y.Y.U.=.d.r.2.,.,.! _ +.+.+.Q > rXrXrXrXrXrXrXrXrXrXrX",
"rXrXrXrXrXrXrXrXrX4 p %.F.!.R.W.W.W.E.R.Q.U.U.=. .d.r.O.,.( ! ) e +.W Q > rXrXrXrXrXrXrXrXrXrXrX",
"rXrXrXrXrXrXrXrXrXrX4 p %.:.!.!.T.R.R.T.T.%.&. .d.r.2.2.,.{ *.*.) ^ W , rXrXrXrXrXrXrXrXrXrXrXrX",
"rXrXrXrXrXrXrXrXrXrXrX4 5 r g f T.!.f 5.f $.$.} r.O.2.2.3.{ *.P.P.@.9 , rXrXrXrXrXrXrXrXrXrXrXrX",
"rXrXrXrXrXrXrXrXrXrXrXrX4 3 5 s g g g d d d ' [ r.1.1.2.r.} P.I.H.G.@.1 rXrXrXrXrXrXrXrXrXrXrXrX",
"rXrXrXrXrXrXrXrXrXrXrXrXrX$ 3 5 8 r q s d d $.[ 1.1.1.1.1. .;.*.P.G.u < rXrXrXrXrXrXrXrXrXrXrXrX",
"rXrXrXrXrXrXrXrXrXrXrXrXrXrX< 1 3 7 y y d $.I.} 1.1.<.<.1.} ;.K.K.G.u - rXrXrXrXrXrXrXrXrXrXrXrX",
"rXrXrXrXrXrXrXrXrXrXrXrXrXrXrX0 w p G.K.G.I.I.} 1.1.1.1.[ } P.H.G.@.0 O rXrXrXrXrXrXrXrXrXrXrXrX",
"rXrXrXrXrXrXrXrXrXrXrXrXrXrXrX9 ) w $.$.L.I.7.[ r.t.1.1.[ *.P.@.@.0 < rXrXrXrXrXrXrXrXrXrXrXrXrX",
"rXrXrXrXrXrXrXrXrXrXrXrXrXrXrXx c _ ` t.7.G e...t.t.a.1.[ &.$.@.0 1 rXrXrXrXrXrXrXrXrXrXrXrXrXrX",
"rXrXrXrXrXrXrXrXrXrXrXrXrXrXb b ) a.i.p.u.e.e.u.u.u.u.1.[ 4.M c 1 rXrXrXrXrXrXrXrXrXrXrXrXrXrXrX",
"rXrXrXrXrXrXrXrXrXrXrXrXrXx c ] i.i.p.p.U '.U k.k.l.l.1.4.a.c c rXrXrXrXrXrXrXrXrXrXrXrXrXrXrXrX",
"rXrXrXrXrXrXrXrXrXrXrXrXrXx B B F U Y Y -X'.'.e.l.l.l.l.l.n c v rXrXrXrXrXrXrXrXrXrXrXrXrXrXrXrX",
"rXrXrXrXrXrXrXrXrXrXrXrXs V D.].#X].].{.[.=X'.'.^.^.^.I I (.M v rXrXrXrXrXrXrXrXrXrXrXrXrXrXrXrX",
"rXrXrXrXrXrXrXrXrXrXrX9 s D.K.].`.].{.3X2X-X[.#X#X#X#X#X/.(.m j rXrXrXrXrXrXrXrXrXrXrXrXrXrXrXrX",
"rXrXrXrXrXrXrXrXrXrXrX7 s K.!.].].{.1X1X1X1X=X&X#X#X#X+X}./.l j rXrXrXrXrXrXrXrXrXrXrXrXrXrXrXrX",
"rXrXrXrXrXrXrXrXrXrXrXq g D.J ].&X*X1X1X1X5X&X$X#X+X@X.X}./.z j rXrXrXrXrXrXrXrXrXrXrXrXrXrXrXrX",
"rXrXrXrXrXrXrXrXrXrXrXh v K _.oX%X*X*X5X5X-X$X$XOXOXOX X}./.l j rXrXrXrXrXrXrXrXrXrXrXrXrXrXrXrX",
"rXrXrXrXrXrXrXrXrXrXrXrXj M _._.%X%X%X*X*X$X$X$XOXOX.X X}.}.l j rXrXrXrXrXrXrXrXrXrXrXrXrXrXrXrX",
"rXrXrXrXrXrXrXrXrXrXrXrXh K K _.XX%X%X$X$X$X$XOXOXOX.X X}.}.l j rXrXrXrXrXrXrXrXrXrXrXrXrXrXrXrX",
"rXrXrXrXrXrXrXrXrXrXrXrXrXj m ).|.XX+XOX$XOXOXOXOXOX.X}.}.z l j rXrXrXrXrXrXrXrXrXrXrXrXrXrXrXrX",
"rXrXrXrXrXrXrXrXrXrXrXrXrXrXj m )._.XXXX+XOXOXOX.X.X X}./.z l rXrXrXrXrXrXrXrXrXrXrXrXrXrXrXrXrX",
"rXrXrXrXrXrXrXrXrXrXrXrXrXrXk l m m  X@XXXXX+XXXXXXX|.).z l j rXrXrXrXrXrXrXrXrXrXrXrXrXrXrXrXrX",
"rXrXrXrXrXrXrXrXrXrXrXrXrX% * * v m m ~.~.~.@X+X).).)./.m j h rXrXrXrXrXrXrXrXrXrXrXrXrXrXrXrXrX",
"rXrXrXrXrXrXrXrXrXrXrXrX@ # % 7 q n M M m L L L L L K m j j h rXrXrXrXrXrXrXrXrXrXrXrXrXrXrXrXrX",
"rXrXrXrXrXrXrXrXrXrXrXrX  # 2 2 q q x n D D D b D D D C * % # rXrXrXrXrXrXrXrXrXrXrXrXrXrXrXrXrX",
"rXrXrXrXrXrXrXrXrXrXrXrX.   2 > 9 * w w n w d V x n q q 7 # # rXrXrXrXrXrXrXrXrXrXrXrXrXrXrXrXrX",
"rXrXrXrXrXrXrXrXrXrXrXrX. . X 2 > < 9 w w w w d w 3 i y n.+ X rXrXrXrXrXrXrXrXrXrXrXrXrXrXrXrXrX",
"rXrXrXrXrXrXrXrXrXrXrXrXrX  X X o - 9 0 0 0 i i i u N.m.& o   rXrXrXrXrXrXrXrXrXrXrXrXrXrXrXrXrX",
"rXrXrXrXrXrXrXrXrXrXrXrXrXrX  X o O - u u u p m.m.n.; - O   rXrXrXrXrXrXrXrXrXrXrXrXrXrXrXrXrXrX",
"rXrXrXrXrXrXrXrXrXrXrXrXrXrXrXrXo O - M.n.M.M.: ; ; - O rXrXrXrXrXrXrXrXrXrXrXrXrXrXrXrXrXrXrXrX",
"rXrXrXrXrXrXrXrXrXrXrXrXrXrXrXrXrXo - - ; ; : - < - rXrXrXrXrXrXrXrXrXrXrXrXrXrXrXrXrXrXrXrXrXrX",
"rXrXrXrXrXrXrXrXrXrXrXrXrXrXrXrXrXrXrX- < < < rXrXrXrXrXrXrXrXrXrXrXrXrXrXrXrXrXrXrXrXrXrXrXrXrX"
};
