/* XPM */
static char *result[] = {
/* columns rows colors chars-per-pixel */
"48 48 213 2 ",
"   c #2E1C19",
".  c #261716",
"X  c #321F1A",
"o  c #35211C",
"O  c #3A221D",
"+  c #352221",
"@  c #3A2523",
"#  c #3C2923",
"$  c #392A2C",
"%  c #3A2A36",
"&  c #1D1313",
"*  c #6C2B1A",
"=  c #752C1C",
"-  c #7B2D1E",
";  c #65341C",
":  c #6B391D",
">  c #6A361F",
",  c #72321F",
"<  c #422C23",
"1  c #4C2E2B",
"2  c #452A27",
"3  c #4D352A",
"4  c #493327",
"5  c #56392C",
"6  c #473939",
"7  c #5B3C32",
"8  c #573A30",
"9  c #4C2E33",
"0  c #653422",
"q  c #693423",
"w  c #6C3923",
"e  c #6C3B2B",
"r  c #67372C",
"t  c #753927",
"y  c #6B3B34",
"u  c #663B36",
"i  c #723D35",
"p  c #5A4435",
"a  c #6D412F",
"s  c #7D4E2B",
"d  c #774728",
"f  c #6C4A3A",
"g  c #674637",
"h  c #724333",
"j  c #72423C",
"k  c #744C3A",
"l  c #7C4737",
"z  c #6F523A",
"x  c #78563D",
"c  c #7E502C",
"v  c #7F623F",
"b  c #3A385B",
"n  c #392A49",
"m  c #3B3A65",
"M  c #3C3E70",
"N  c #483846",
"B  c #523E52",
"V  c #493E53",
"C  c #693C47",
"Z  c #453E6C",
"A  c #3F4172",
"S  c #574756",
"D  c #4D444C",
"F  c #764845",
"G  c #7B5942",
"H  c #774854",
"J  c #77535E",
"K  c #6B524F",
"L  c #554965",
"P  c #494472",
"I  c #594C75",
"U  c #49496C",
"Y  c #76576B",
"T  c #705773",
"R  c #787366",
"E  c #656163",
"W  c #8B1615",
"Q  c #9A1518",
"!  c #A31C1B",
"~  c #89271C",
"^  c #A11E21",
"/  c #822E21",
"(  c #942827",
")  c #883628",
"_  c #95392B",
"`  c #942E34",
"'  c #983A36",
"]  c #8B3037",
"[  c #A62628",
"{  c #A6352B",
"}  c #B1332D",
"|  c #B13D34",
" . c #A83A35",
".. c #C82C3C",
"X. c #CA323E",
"o. c #80512D",
"O. c #8A463A",
"+. c #984C3C",
"@. c #885837",
"#. c #91573C",
"$. c #87482A",
"%. c #AB5038",
"&. c #966439",
"*. c #84653F",
"=. c #AA643A",
"-. c #A7733B",
";. c #B37C36",
":. c #CE2E41",
">. c #CD3543",
",. c #C93C44",
"<. c #D23345",
"1. c #D43C4B",
"2. c #D13847",
"3. c #D02F42",
"4. c #874E42",
"5. c #8A5342",
"6. c #835944",
"7. c #945B4A",
"8. c #965D50",
"9. c #896744",
"0. c #9C6742",
"q. c #957443",
"w. c #9B7A46",
"e. c #997744",
"r. c #82755E",
"t. c #B37C41",
"y. c #AE5B63",
"u. c #827E65",
"i. c #8E6878",
"p. c #CD464B",
"a. c #D5434A",
"s. c #D8464B",
"d. c #DA4E49",
"f. c #D54948",
"g. c #D8544A",
"h. c #C84A57",
"j. c #CD5259",
"k. c #D0585B",
"l. c #D2655E",
"z. c #CC5463",
"x. c #D25E65",
"c. c #D4676C",
"v. c #D56C75",
"b. c #B78235",
"n. c #B58445",
"m. c #87856C",
"M. c #888879",
"N. c #C49645",
"B. c #D3B357",
"V. c #D1B14D",
"C. c #D4AC63",
"Z. c #D7AD68",
"A. c #DAB46C",
"S. c #DBB66C",
"D. c #D8AE72",
"F. c #DCB573",
"G. c #DEBB72",
"H. c #DBB378",
"J. c #E1B46D",
"K. c #E1B770",
"L. c #E2BD74",
"P. c #E2BF78",
"I. c #E3C177",
"U. c #E4C278",
"Y. c #4A4FDC",
"T. c #4C53DF",
"R. c #5859DE",
"E. c #645DDC",
"W. c #655ED7",
"Q. c #7B5FD9",
"!. c #605ACF",
"~. c #5D65DA",
"^. c #6868D8",
"/. c #7661DD",
"(. c #7A62DC",
"). c #746AD7",
"_. c #7B78DC",
"`. c #6B74DD",
"'. c #4F55E2",
"]. c #575BE3",
"[. c #5C62E6",
"{. c #6263E3",
"}. c #656BE7",
"|. c #7479E0",
" X c #756DE0",
".X c #8E738D",
"XX c #857AD7",
"oX c #806FDF",
"OX c #7E8387",
"+X c #858A97",
"@X c #998F96",
"#X c #9A949C",
"$X c #888C90",
"%X c #B1AF98",
"&X c #9091A2",
"*X c #B6B7AA",
"=X c #D9BD89",
"-X c #D7BE93",
";X c #DBC18E",
":X c #DAC295",
">X c #D1C7AF",
",X c #DCCAB3",
"<X c #D1CFB8",
"1X c #D3D3BC",
"2X c #DAD4BF",
"3X c #CFD0B9",
"4X c #8282DB",
"5X c #D6D6C3",
"6X c #DCD9C5",
"7X c #DCDACC",
"8X c #D9D6C8",
"9X c #E0DCCC",
"0X c None",
/* pixels */
"0X0X0X0X0X0X0X0X0X0X0X0X0X0X0X0X0X0X0X0X) O.$.' _ 0X0X0X0X0X0X0X0X0X0X0X0X0X0X0X0X0X0X0X0X0X0X0X",
"0X0X0X0X0X0X0X0X0X0X0X0X0X0X0X0X0X0Xt ) ] [ [ [ [ _ ) 0X0X0X0X0X0X0X0X0X0X0X0X0X0X0X0X0X0X0X0X0X",
"0X0X0X0X0X0X0X0X0X0X0X0X0X0X0X0X0X0Xt ( [ p.a.a.a.[ ^ ) / 0X0X0X0X0X0X0X0X0X0X0X0X0X0X0X0X0X0X0X",
"0X0X0X0X0X0X0X0X0X0X0X0X0X0X0X0X0X, ( 2.p.f.f.d.s.1.1.^ ) / 0X0X0X0X0X0X0X0X0X0X0X0X0X0X0X0X0X0X",
"0X0X0X0X0X0X0X0X0X0X0X0X0X0X0X0X0Xt ~ ,.>X,X,X,Xs.s.1.<.^ ) = 0X0X0X0X0X0X0X0X0X0X0X0X0X0X0X0X0X",
"0X0X0X0X0X0X0X0X0X0X0X0X0X0X0X0Xq W ,.>X .,X| ,X2Xs.1.<.>.Q / = 0X0X0X0X0X0X0X0X0X0X0X0X0X0X0X0X",
"0X0X0X0X0X0X0X0X0X0X0X0X0X0X0X0Xq W ,.>X'  .| ,X,Xs.s.1.3.:.Q - = 0X0X0X0X0X0X0X0X0X0X0X0X0X0X0X",
"0X0X0X0X0X0X0X0X0X0X0X0X. . X X 2 1 / >X{  .| ,X,Xd.1.1.<.3...Q - 0X0X0X0X0X0X0X0X0X0X0X0X0X0X0X",
"0X0X0X0X0X0X0X0X0X0X0X& . .   + 2 1 8 g F l ,X,Xg.d.s.1.2.<...Q / - 0X0X0X0X0X0X0X0X0X0X0X0X0X0X",
"0X0X0X0X0X0X0X0X0X0X0X0X. . X @ 2 9 8 g F F x 5.g.d.s.1.1.<.3...Q / 0X0X0X0X0X0X0X0X0X0X0X0X0X0X",
"0X0X0X0X0X0X0X0X0X0X0X0X0X0X0X< 2 5 p g f k F 6.5.| d.f.1.1.<.X.Q ~ ~ = * 0X0X0X0X0X0X0X0X0X0X0X",
"0X0X0X0X0X0X0X0X0X0X0X0X0X0X0X0X3 s C.Z.A.A.@.6.5.5.+.} s.1.<.<.X.Q Q W - * 0X0X0X0X0X0X0X0X0X0X",
"0X0X0X0X0X0X0X0X0X0X0X0X0X0X0X0X7 @.N.A.A.F.F.J.K.#.5.+.' } 1.>.X.! ....W = * 0X0X0X0X0X0X0X0X0X",
"0X0X0X0X0X0X0X0X0X0X0X0X0X0X4 p g z x F.G.G.9.9.K.K.K.=.+.+.O.a.a.X.X.X...W , 0X0X0X0X0X0X0X0X0X",
"0X0X0X0X0X0X0X0X0X0X0X0X# 3 s @.&.v *.G.G.P.q.q.P.K.K.K.J.=.O.O.} a.,.X...W , 0X0X0X0X0X0X0X0X0X",
"0X0X0X0X0X0X0X0X0X0X0X0X4 s N.A.S.-.q.I.I.P.e.e.I.I.L.K.J.J.J.=.O.$.} ,.X.~ t 0X0X0X0X0X0X0X0X0X",
"0X0X0X0X0X0X0X0X0X0X0X4 s b.S.S.G.I.U.U.U.U.n.q.P.P.U.I.G.I.G.-.=.@.$.{ { $.- 0X0X0X0X0X0X0X0X0X",
"0X0X0X0X0X0X0X0X0X0X0X# s C.S.S.G.U.U.U.U.U.n.n.U.U.I.I.I.b.t.;.;.J.J.Z.B.$.5 0X0X0X0X0X0X0X0X0X",
"0X0X0X0X0X0X0X0X0X0X0X4 d C.C.G.G.U.U.U.I.I.U.P.P.G.I.U.U.n.t.t.K.K.K.C.C.C.) < 0X0X0X0X0X0X0X0X",
"0X0X0X0X0X0X0X0X0X0X0X# s n.S.S.G.G.I.I.P.P.P.P.m.-.I.I.U.U.n.t.I.I.-.=.Z.C.d < 0X0X0X0X0X0X0X0X",
"0X0X0X0X0X0X0X0X0X0X0X0X4 s N.S.S.G.L.L.G.G.G.9.q.e.w.I.U.U.U.U.I.S.-.S.C.C.d # 0X0X0X0X0X0X0X0X",
"0X0X0X0X0X0X0X0X0X0X0X0X0X3 c @.N.S.S.B.S.v 9.v 9.9.q.I.U.U.U.U.I.I.S.C.C.s 4 # 0X0X0X0X0X0X0X0X",
"0X0X0X0X0X0X0X0X0X0X0X0X0X0X4 8 p p g z z z G G 6.w.P.P.I.L.U.L.S.S.S.C.o.3 < 0X0X0X0X0X0X0X0X0X",
"0X0X0X0X0X0X0X0X0X0X0X0X0X0X0X4 p p p p z g z G @.F.G.K.P.L.L.K.S.&.@.o.3 < 0X0X0X0X0X0X0X0X0X0X",
"0X0X0X0X0X0X0X0X0X0X0X0X0X0X0X0X# 4 3 8 7 g f D.H.G.F.G.G.H.F.&.#.g p 3 0X0X0X0X0X0X0X0X0X0X0X0X",
"0X0X0X0X0X0X0X0X0X0X0X0X0X0X0X0X0X0X4 t l C.Z.D.D.H.H.F.0.0.7.f u 0X0X0X0X0X0X0X0X0X0X0X0X0X0X0X",
"0X0X0X0X0X0X0X0X0X0X0X0X0X0X0X0X0X0X0Xi i O.4.7.7.7.8.7.7.F f 0X0X0X0X0X0X0X0X0X0X0X0X0X0X0X0X0X",
"0X0X0X0X0X0X0X0X0X0X0X0X0X0X0X0X0X0X0XB S ] ` h.j.Y /.(.Y ' O.0X0X0X0X0X0X0X0X0X0X0X0X0X0X0X0X0X",
"0X0X0X0X0X0X0X0X0X0X0X0X0X0X0X0X0X0XN B ] h.h.z.Y Q.Q.Q.J j.` ) 0X0X0X0X0X0X0X0X0X0X0X0X0X0X0X0X",
"0X0X0X0X0X0X0X0X0X0X0X0X0X0X0X0X0XV B ] h.h.z.T Q././.i.j.p.h.` $.0X0X0X0X0X0X0X0X0X0X0X0X0X0X0X",
"0X0X0X0X0X0X0X0X0X0X0X0X0X0X0X0XN B S L I Y T Q././.oXT z.k.j.f.` l 0X0X0X0X0X0X0X0X0X0X0X0X0X0X",
"0X0X0X0X0X0X0X0X0X0X0X0X0X0X0Xr u B.!.E.E.E.^./././.oXT c.x.l.k.' ' l 0X0X0X0X0X0X0X0X0X0X0X0X0X",
"0X0X0X0X0X0X0X0X0X0X0X    # r a V.B.^.E./.).=X=Xi._.oXXXy.v.v.c.l.+.r.7 0X0X0X0X0X0X0X0X0X0X0X0X",
"0X0X0X0X0X0X0X0X0X0X  o O # $ 6 S C.!.E.^.=X=X;X;X_.XX@X7X7X8X5X2X1X1XR p 0X0X0X0X0X0X0X0X0X0X0X",
"0X0X0X0X0X0X0X0X0X    o 0 w e j 4.L E.E.^.;X;X:X:X4X@X@X7X7X7X7X6X6X1Xu.D % 0X0X0X0X0X0X0X0X0X0X",
"0X0X0X0X0X0X0X0X0X  X ; > t e j C H I E.^.^.-X:X.X4X#X6X7X7X7X7X6X%X1X1XR p 0X0X0X0X0X0X0X0X0X0X",
"0X0X0X0X0X0X0X0X0X  o b.: w h h 4.H I E.].}.}. X|._.&X7X7X7X7X*X6X%X1X3XR 6 $ 0X0X0X0X0X0X0X0X0X",
"0X0X0X0X0X0X0X0X0X  o : b.w t h C H I R.].{.}.}.}.|.&X8X7X7X7X*X9X6X1X3XR p $ 0X0X0X0X0X0X0X0X0X",
"0X0X0X0X0X0X0X0X0X  o ; : t t j C F Z E.].{.].[.}.`.+X&X*X7X7X8X6X1X1Xm.R 6 $ 0X0X0X0X0X0X0X0X0X",
"0X0X0X0X0X0X0X0X0X0Xo O : : t i i C Z Z '.].'.].[.}.`.+XOX7X8X8X5X%Xm.m.z 6 $ 0X0X0X0X0X0X0X0X0X",
"0X0X0X0X0X0X0X0X0X0Xo O : b.4 1 9 i C Z Y.'.Y.Y.'.~.~.~.OXOXM.M.M.m.u.g z a $ + 0X0X0X0X0X0X0X0X",
"0X0X0X0X0X0X0X0X0X0X  o O : , w y y C C Z Z Y.Y.T.T.].~.~.^.`.E E 9.x k a a o   0X0X0X0X0X0X0X0X",
"0X0X0X0X0X0X0X0X0X0X0Xo O ; : w q y u C N m M M A A U U U S S L F k k a a 0 +   0X0X0X0X0X0X0X0X",
"0X0X0X0X0X0X0X0X0X0X0X  o ; ;.: 0 r r % % n b m b A m m m D N 6 j h a a 0 ; o   0X0X0X0X0X0X0X0X",
"0X0X0X0X0X0X0X0X0X0X0X  o o ; ; 0 0 @ $ 0X0X0X0X0X0X0X0X0X0X% % e e e w 0 o X 0X0X0X0X0X0X0X0X0X",
"0X0X0X0X0X0X0X0X0X0X0X0X  X o o O + + 0X0X0X0X0X0X0X0X0X0X0X$ $ $ 0 0 0 O O   0X0X0X0X0X0X0X0X0X",
"0X0X0X0X0X0X0X0X0X0X0X0X0XX X o o o 0X0X0X0X0X0X0X0X0X0X0X0X0X+ + @ O o O   0X0X0X0X0X0X0X0X0X0X",
"0X0X0X0X0X0X0X0X0X0X0X0X0X0X0X0X0X0X0X0X0X0X0X0X0X0X0X0X0X0X0X0Xo + o o o 0X0X0X0X0X0X0X0X0X0X0X"
};
