/* XPM */
static char *result[] = {
/* columns rows colors chars-per-pixel */
"48 50 216 2 ",
"   c #290C0B",
".  c #380D0E",
"X  c #2C110D",
"o  c #37180E",
"O  c #3C1D10",
"+  c #351815",
"@  c #2D1315",
"#  c #3D2316",
"$  c #35262A",
"%  c #3B2937",
"&  c #3F322D",
"*  c #341C28",
"=  c #461C0E",
"-  c #4C120F",
";  c #441E11",
":  c #461412",
">  c #541712",
",  c #442313",
"<  c #4B2312",
"1  c #472818",
"2  c #592D19",
"3  c #54331E",
"4  c #7C3308",
"5  c #77360A",
"6  c #632916",
"7  c #6D3E18",
"8  c #702E13",
"9  c #41332D",
"0  c #4E3627",
"q  c #683D22",
"w  c #7B430D",
"e  c #78440C",
"r  c #744314",
"t  c #744A13",
"y  c #7A4E16",
"u  c #76431B",
"i  c #764619",
"p  c #784D16",
"a  c #4E4038",
"s  c #5D523C",
"d  c #6A462A",
"f  c #75442A",
"g  c #774725",
"h  c #6E5128",
"j  c #79552A",
"k  c #6C433B",
"l  c #75463C",
"z  c #764635",
"x  c #7E5334",
"c  c #392340",
"v  c #4B3250",
"b  c #513C77",
"n  c #56465B",
"m  c #5E5141",
"M  c #74484B",
"N  c #7D5244",
"B  c #744856",
"V  c #684652",
"C  c #4D4A76",
"Z  c #685266",
"A  c #5E6661",
"S  c #636769",
"D  c #737966",
"F  c #6E6978",
"G  c #9B1D0B",
"H  c #961E0B",
"J  c #A41E0D",
"K  c #AB1F0E",
"L  c #AE1F10",
"P  c #9D240E",
"I  c #84330A",
"U  c #8C340B",
"Y  c #99360D",
"T  c #82351E",
"R  c #A8210E",
"E  c #A82611",
"W  c #B42111",
"Q  c #B92013",
"!  c #B93918",
"~  c #AB3214",
"^  c #90362B",
"/  c #A6382A",
"(  c #AC3B34",
")  c #C72319",
"_  c #C43D19",
"`  c #D1261E",
"'  c #DB2E2F",
"]  c #DD2F31",
"[  c #DD3333",
"{  c #DC3B34",
"}  c #D9332F",
"|  c #E23235",
" . c #E43D37",
".. c #E63439",
"X. c #E9343C",
"o. c #E53B39",
"O. c #E93A3D",
"+. c #854B0F",
"@. c #895219",
"#. c #934D1B",
"$. c #99641C",
"%. c #A4691E",
"&. c #B1741F",
"*. c #994829",
"=. c #8D5C21",
"-. c #985726",
";. c #815D34",
":. c #935131",
">. c #A45635",
",. c #A94A31",
"<. c #84633F",
"1. c #A46923",
"2. c #AE722A",
"3. c #BD7A23",
"4. c #B97626",
"5. c #A97731",
"6. c #BC7B31",
"7. c #B36328",
"8. c #C6431D",
"9. c #C84624",
"0. c #E34537",
"q. c #E5443B",
"w. c #E64A3E",
"e. c #E8413D",
"r. c #C47D24",
"t. c #CB7C25",
"y. c #C77A27",
"u. c #C37F35",
"i. c #D07E2F",
"p. c #8B324A",
"a. c #8D5A49",
"s. c #AC5549",
"d. c #BF7C43",
"f. c #DB4A57",
"g. c #DC4C53",
"h. c #C17E42",
"j. c #DA4967",
"k. c #DE5769",
"l. c #D74878",
"z. c #DE5A79",
"x. c #E06C7A",
"c. c #DD6B6C",
"v. c #79806B",
"b. c #BF8C3C",
"n. c #CC852C",
"m. c #C78429",
"M. c #C58836",
"N. c #C4833B",
"B. c #C28D3C",
"V. c #C98A33",
"C. c #D08835",
"Z. c #CD9339",
"A. c #D09338",
"S. c #81846F",
"D. c #898977",
"F. c #DAAA65",
"G. c #D8AD69",
"H. c #DAB26E",
"J. c #D7B06B",
"K. c #DDB572",
"L. c #DEB975",
"P. c #E2BA76",
"I. c #E5BE7A",
"U. c #E4B876",
"Y. c #E6C17C",
"T. c #3F3887",
"R. c #463A86",
"E. c #453E93",
"W. c #49418F",
"Q. c #573EED",
"!. c #493FF2",
"~. c #533EF2",
"^. c #483EEE",
"/. c #7D79C3",
"(. c #4B43ED",
"). c #5749EC",
"_. c #4542F5",
"`. c #4B44F3",
"'. c #4B47F7",
"]. c #5448F5",
"[. c #5A53F6",
"{. c #5D50E9",
"}. c #6B49EC",
"|. c #7849EC",
" X c #7D52EC",
".X c #6546F2",
"XX c #665BF5",
"oX c #6D56EE",
"OX c #6E68EF",
"+X c #CC399D",
"@X c #8777B3",
"#X c #9579A8",
"$X c #93739A",
"%X c #D84C86",
"&X c #DE658B",
"*X c #877AC1",
"=X c #8652E8",
"-X c #814FEA",
";X c #8D8D86",
":X c #8A8B98",
">X c #9C83A8",
",X c #B4AFAD",
"<X c #A8A0CC",
"1X c #C9C7CB",
"2X c #D4D2CC",
"3X c #DBD6D3",
"4X c #DBD5DC",
"5X c #DCD8DD",
"6X c #DAD7D5",
"7X c #C3C2D2",
"8X c #E3D8D8",
"9X c #D5D2E4",
"0X c #DAD6E3",
"qX c #DCD8E2",
"wX c #D8CFE2",
"eX c None",
/* pixels */
"eXeXeXeXeXeXeXeXeXeXeXeXeXeXeXeXeXeXeXeXU Y Y Y Y Y eXeXeXeXeXeXeXeXeXeXeXeXeXeXeXeXeXeXeXeXeXeX",
"eXeXeXeXeXeXeXeXeXeXeXeXeXeXeXeXeXeXeXU K L Q Q W W Y U eXeXeXeXeXeXeXeXeXeXeXeXeXeXeXeXeXeXeXeX",
"eXeXeXeXeXeXeXeXeXeXeXeXeXeXeXeXeXeXI J L ] ] | ] Q W J I eXeXeXeXeXeXeXeXeXeXeXeXeXeXeXeXeXeXeX",
"eXeXeXeXeXeXeXeXeXeXeXeXeXeXeXeXeXI J L ] | | ] | ] ] K J I eXeXeXeXeXeXeXeXeXeXeXeXeXeXeXeXeXeX",
"eXeXeXeXeXeXeXeXeXeXeXeXeXeXeXeXeXI R ] ] ..| X...| | ] J J 4 eXeXeXeXeXeXeXeXeXeXeXeXeXeXeXeXeX",
"eXeXeXeXeXeXeXeXeXeXeXeXeXeXeXeX4 J ] ] | ....X.X.X.| ] ] J I eXeXeXeXeXeXeXeXeXeXeXeXeXeXeXeXeX",
"eXeXeXeXeXeXeXeXeXeXeXeX    . - H J ] ] ....X.X.X.X.| | ] K J 4 eXeXeXeXeXeXeXeXeXeXeXeXeXeXeXeX",
"eXeXeXeXeXeXeXeXeXeXeX    . - - G J ] | ..X.X.X.X...X...] ] J G 4 eXeXeXeXeXeXeXeXeXeXeXeXeXeXeX",
"eXeXeXeXeXeXeXeXeXeXeX  @ . : - H ] [ [ X.X.X.X.X.X.X.X.| ] ] J I eXeXeXeXeXeXeXeXeXeXeXeXeXeXeX",
"eXeXeXeXeXeXeXeXeXeXeXeX. . : 6 P [ [ ..X.X.X.X.X.X.X.X...| ] K U eXeXeXeXeXeXeXeXeXeXeXeXeXeXeX",
"eXeXeXeXeXeXeXeXeXeXeXeXeX+ > > 6 | { X.O.X.X.X.X.X.X.X...] ] W Y I 4 eXeXeXeXeXeXeXeXeXeXeXeXeX",
"eXeXeXeXeXeXeXeXeXeXeXeXeXeXeX6 q 8 { { o.O.O.O.X.X.X.X.` ) ) Q W J G 4 eXeXeXeXeXeXeXeXeXeXeXeX",
"eXeXeXeXeXeXeXeXeXeXeXeX, 1 2 7 ^ T ^ 0.0.q.O.O.O.X.` ` ....| | ' ' R H 4 eXeXeXeXeXeXeXeXeXeXeX",
"eXeXeXeXeXeXeXeXeXeXeX, t @.@.@.-.6.*.*.0.w.q.e.O.O.O...X.....| | ' } R H 8 eXeXeXeXeXeXeXeXeXeX",
"eXeXeXeXeXeXeXeXeXeX# t y J.H.$.6.u.u.*.,.w.w.w.e.e.O...X.X.....| { } } P 5 eXeXeXeXeXeXeXeXeXeX",
"eXeXeXeXeXeXeXeXeXeX, y J.H.K.U.M.N.2.7.9.7.9.w.w.e.e. . .o.o... . .{ { P 5 eXeXeXeXeXeXeXeXeXeX",
"eXeXeXeXeXeXeXeXeXeX# y J.H.L.Y.M.2.I.P.U.C.9.9.8.w.0.e.e.0.e.0. . .{ { P 5 eXeXeXeXeXeXeXeXeXeX",
"eXeXeXeXeXeXeXeXeXeX1 y J.K.L.B.5.Y.I.I.I.U.C.C.i.8.8.` 0.0.0.0. .{ ! ~ F.e ; eXeXeXeXeXeXeXeXeX",
"eXeXeXeXeXeXeXeXeXeX# p J.K.j Z.5.Y.Y.Y.I.I.A.n.C.i.t.t._ _ _ _ _ ! t.F.F.e = eXeXeXeXeXeXeXeXeX",
"eXeXeXeXeXeXeXeXeXeX# t J.h j b.5.Y.Y.Y.Y.I.A.A.n.n.t.t.t.t.t.t.t.t.3.F.F.e = eXeXeXeXeXeXeXeXeX",
"eXeXeXeXeXeXeXeXeXeX# t y h h L.5.Y.Y.Y.Y.Y.Z.V.n.m.m.r.t.t.t.r.3.3.&.F.w e O eXeXeXeXeXeXeXeXeX",
"eXeXeXeXeXeXeXeXeXeXeX# t 3 h H.L.5.Y.Y.Y.Z.Z.Z.n.m.m.m.t.t.r.r.3.3.+.+.e < eXeXeXeXeXeXeXeXeXeX",
"eXeXeXeXeXeXeXeXeXeXeXeX# 1 0 j K.L.5.5.Z.Z.B.V.n.n.m.r.m.3.r.3.3.3.#.e < eXeXeXeXeXeXeXeXeXeXeX",
"eXeXeXeXeXeXeXeXeXeXeXeXeXeX3 y =.K.L.L.I.I.Z.M.V.V.m.m.3.m.3.3.3.+.+.2 eXeXeXeXeXeXeXeXeXeXeXeX",
"eXeXeXeXeXeXeXeXeXeXeXeXeXeXeX3 @.=.K.U.U.C.N.C.M.b.b.6.6.u.4.4.4.&.e , eXeXeXeXeXeXeXeXeXeXeXeX",
"eXeXeXeXeXeXeXeXeXeXeXeXeXeXeXeX3 @.#.-.U.u.h.h.h.d.d.>.:.>.6.4.&.1.5 , eXeXeXeXeXeXeXeXeXeXeXeX",
"eXeXeXeXeXeXeXeXeXeXeXeXeXeXeXeXeX3 q -.>.>.>.>.s.s.>.f.f.:.:.:.#.u 7 ; eXeXeXeXeXeXeXeXeXeXeXeX",
"eXeXeXeXeXeXeXeXeXeXeXeXeXeXeXeXeXeXM / / g.g.=X X X Xj.j.f.b ^ ^ T 1 eXeXeXeXeXeXeXeXeXeXeXeXeX",
"eXeXeXeXeXeXeXeXeXeXeXeXeXeXeXeXv V / / g.f.j.j.|.|.|.%X%Xj.}.b ^ q eXeXeXeXeXeXeXeXeXeXeXeXeXeX",
"eXeXeXeXeXeXeXeXeXeXeXeXeXeXeXeXv B / ( f.j.j.l.|.|..X|.+X}.Q.b p.f eXeXeXeXeXeXeXeXeXeXeXeXeXeX",
"eXeXeXeXeXeXeXeXeXeXeXeXeXeXeXv n / ( g.k.k.l.%X-X|..XQ.+XQ.Q.R.W.p.k eXeXeXeXeXeXeXeXeXeXeXeXeX",
"eXeXeXeXeXeXeXeXeXeXeXeXeXeXeXn Z ,.s.k.k.z.%X$X|..X.X.X~.Q.Q.Q.W.p.S % eXeXeXeXeXeXeXeXeXeXeXeX",
"eXeXeXeXeXeXeXeXeXeXeXeXeXeXn S >.s.c.x.x.&X&X#X X.X[.~.!.`.~.`.E.W.1XS & eXeXeXeXeXeXeXeXeXeXeX",
"eXeXeXeXeXeXeXeXeXeXeXeXeXeXs D.3X3X8X8X8X8X#X@XXX.X].].`.`.'.`.].E.1X1XA $ eXeXeXeXeXeXeXeXeXeX",
"eXeXeXeXeXeXeXeXeXeXeXeXeXa v.3X3X3X5X5XqX5X0X@XXXXX].'._.'.'._.(.E.1X1XS $ eXeXeXeXeXeXeXeXeXeX",
"eXeXeXeXeXeXeXeXeXeXeXeX& D 2X3X,X6X5XqXqXqX9X*XXX[.].'._._._._.`.E.7X1XA $ eXeXeXeXeXeXeXeXeXeX",
"eXeXeXeXeXeXeXeXeXeXeXeX& D 1X2X,X6X,XqX0X9X<XOXXX[.'.'.'._._._.(.W.T.1XA $ eXeXeXeXeXeXeXeXeXeX",
"eXeXeXeXeXeXeXeXeXeXeXeX& D 2X2X2X5X,X0X0X9X9X/.XX[.'.'._._._._._.T.C A % eXeXeXeXeXeXeXeXeXeXeX",
"eXeXeXeXeXeXeXeXeXeXeXeXeXa v.2X6X6X4XqX0X9X9X/.XX[.'.'._._._._.(.T.C v eXeXeXeXeXeXeXeXeXeXeXeX",
"eXeXeXeXeXeXeXeXeXeXeXeXeX9 s v.D.2X6XqX0X0X:XXX[.[.'._._.!.!.^.T.c c eXeXeXeXeXeXeXeXeXeXeXeXeX",
"eXeXeXeXeXeXeXeXeXeXeXeXeXeXeXs S.D.D.;X:X:XOX{.[.].`.(.~.^.(.R.b k % * eXeXeXeXeXeXeXeXeXeXeXeX",
"eXeXeXeXeXeXeXeXeXeXeXeXeXeXeXa s <.F F OXOXXX[.).).(.Q.).(.B M k d q + @ eXeXeXeXeXeXeXeXeXeXeX",
"eXeXeXeXeXeXeXeXeXeXeXeXeXeX# 9 j j x N <.B XX{.{.).).(.B B M l q q 6 + @ eXeXeXeXeXeXeXeXeXeXeX",
"eXeXeXeXeXeXeXeXeXeXeXeXeXeX+ 1 t j j x ;.a.N N M B B M M l z q q q 2 + X eXeXeXeXeXeXeXeXeXeXeX",
"eXeXeXeXeXeXeXeXeXeXeXeXeXeX+ # $.t i g g :.z l l l l z z f g u 7 7 $.o X eXeXeXeXeXeXeXeXeXeXeX",
"eXeXeXeXeXeXeXeXeXeXeXeXeXeXX o $.b.r i i g g g f f f g f u 7 r B.$.o X X eXeXeXeXeXeXeXeXeXeXeX",
"eXeXeXeXeXeXeXeXeXeXeXeXeXeXeXo O , B.B.%.i u u u u u u r 1.B.B., O o X eXeXeXeXeXeXeXeXeXeXeXeX",
"eXeXeXeXeXeXeXeXeXeXeXeXeXeXeXeX+ O , , < b.%.1.r r w 1.%.< , ; = o eXeXeXeXeXeXeXeXeXeXeXeXeXeX",
"eXeXeXeXeXeXeXeXeXeXeXeXeXeXeXeXeXeXO ; ; < < < < < < < < = ; O eXeXeXeXeXeXeXeXeXeXeXeXeXeXeXeX",
"eXeXeXeXeXeXeXeXeXeXeXeXeXeXeXeXeXeXeXeXeX; = = = = = = = eXeXeXeXeXeXeXeXeXeXeXeXeXeXeXeXeXeXeX"
};
