/* XPM */
static char *_ee357326e6f4ee49f14e18c9873b770BzmnGaVso4XK5TNe[] = {
/* columns rows colors chars-per-pixel */
"48 48 32 1 ",
"  c #08C608",
". c #00C600",
"X c #00BD00",
"o c #00B500",
"O c #08C600",
"+ c #08BD08",
"@ c #08BD00",
"# c #00CE00",
"$ c #10CE08",
"% c #10C608",
"& c #21CE18",
"* c #18C610",
"= c #18CE10",
"- c #29D621",
"; c #31D621",
": c #39D629",
"> c #29CE18",
", c #10D608",
"< c #08CE00",
"1 c #08B500",
"2 c #21CE10",
"3 c #10BD08",
"4 c #10B508",
"5 c #21BD10",
"6 c #18BD10",
"7 c #08AD08",
"8 c black",
"9 c #FFFFAE",
"0 c #F8D820",
"q c #D8A038",
"w c #F8F800",
"e c #39DE29",
/* pixels */
" .XXXXoXXO.+@XX@XXXX...#.XX...XX .XXXXoXXO.+@XX@",
"XX.XXXXX.$%.XXXXoooXX.#.X...XXoXXX.XXXXX.$%.XXXX",
"o..XXOX&**.XXX@XXoXXo.#X.OX.XXXXo..XXOX&**.XXX@X",
"X.X.$$&&&.= ..XXXXXXX... ..X%X .X.X.$$&&&.= ..XX",
". .=&&-&O&-#..XXXXXX... O.XX  $.. .=&&-&O&-#..XX",
" =&;=:; $;$....XooXX..  ..X O$ . =&;=:; $;$....X",
"==;&&;=.-&.....XXXX... .... $ .$==;&&;=.-&.....X",
"==-=>>X*-...XXXooXX.X.O.#.$$,#<===-=>>X*-...XXXo",
"$&==>.@&%XXXoooooo.XX..#.<$< <,,$&==>.@&%XXXoooo",
"O=#=$XXXXXXXoooooXXo..X.X#O##<=.O=#=$XXXXXXXoooo",
" #..XXoXX@XoooXXoooo.XXXX.X.#$$X #..XXoXX@XoooXX",
".X.X.XXXX@Xooo@ooooX.oXoXX.X.$...X.X.XXXX@Xooo@o",
"XXX@*X+@@@ooo@@oo1ooX1ooXoXX%$..XXX@*X+@@@ooo@@o",
"X.@2%@*X@XooX31o43oX11o1X11.*...X.@2%@*X@XooX31o",
"X.52X5+X@ooo4@X46oo11ooXX1X *X$.X.52X5+X@ooo4@X4",
".@*@4*X@@oX44X@*Xo1ooo7Xo1.*.+>@.@*@4*X@@oX44X@*",
"X1X13@X@1oX4@X*.o34oXo8888O*X>&XX1X13@X@1oX4@X*.",
"XXo1XX.@@.X@X%+X@6@+88999988%: .XXo1XX.@@.X@X%+X",
"XXXXXX@5&X@@%%++**%89900000q8>= XXXXXX@5&X@@%%++",
".XXXXX%-Oo+%%+%**3X890w99w0q82;..XXXXX%-Oo+%%+%*",
"$.XoXO-$X%%%+O*=+X890w9w08w0q8,#$.XoXO-$X%%%+O*=",
",#XXX2=X%*++%$2%X%890w9w08w0q8#=,#XXX2=X%*++%$2%",
"<X O++X *@@% &%X*+890w9w08w0q8,,<X O++X *@@% &%X",
".=e**XX*@@+@%@+*%X890w9w08w0q8=<.=e**XX*@@+@%@+*",
"&e$*XX*.X@XX.+*$@%890w9w08w0q8..&e$*XX*.X@XX.+*$",
"e.*: %%XXXX.+% %**890w9w08w0q8o=e.*: %%XXXX.+% %",
"# e&*%%+XX.+@+%*%+8w0w9008w0q8@&# e&*%%+XX.+@+%*",
" ;&$% *XXX.X@%% %%8w0w9008w0q8*. ;&$% *XXX.X@%% ",
"=& *O*.XXXXX%%%*%% 80ww88w0q8X.#=& *O*.XXXXX%%%*",
"$=&%%*XXXX.O+%%%@%%8000000qq8X.=$=&%%*XXXX.O+%%%",
"$&=.O..XX.O.X@%+%++%88qqqq88X..&$&=.O..XX.O.X@%+",
"&=.X..XXX..X@@.%@%%...8888XX...O&=.X..XXX..X@@.%",
" .XXXXoXXO.+@XX@XXXX...#.XX...XX .XXXXoXXO.+@XX@",
"XX.XXXXX.$%.XXXXoooXX.#.X...XXoXXX.XXXXX.$%.XXXX",
"o..XXOX&**.XXX@XXoXXo.#X.OX.XXXXo..XXOX&**.XXX@X",
"X.X.$$&&&.= ..XXXXXXX... ..X%X .X.X.$$&&&.= ..XX",
". .=&&-&O&-#..XXXXXX... O.XX  $.. .=&&-&O&-#..XX",
" =&;=:; $;$....XooXX..  ..X O$ . =&;=:; $;$....X",
"==;&&;=.-&.....XXXX... .... $ .$==;&&;=.-&.....X",
"==-=>>X*-...XXXooXX.X.O.#.$$,#<===-=>>X*-...XXXo",
"$&==>.@&%XXXoooooo.XX..#.<$< <,,$&==>.@&%XXXoooo",
"O=#=$XXXXXXXoooooXXo..X.X#O##<=.O=#=$XXXXXXXoooo",
" #..XXoXX@XoooXXoooo.XXXX.X.#$$X #..XXoXX@XoooXX",
".X.X.XXXX@Xooo@ooooX.oXoXX.X.$...X.X.XXXX@Xooo@o",
"XXX@*X+@@@ooo@@oo1ooX1ooXoXX%$..XXX@*X+@@@ooo@@o",
"X.@2%@*X@XooX31o43oX11o1X11.*...X.@2%@*X@XooX31o",
"X.52X5+X@ooo4@X46oo11ooXX1X *X$.X.52X5+X@ooo4@X4",
".@*@4*X@@oX44X@*Xo1ooo7Xo1.*.+>@.@*@4*X@@oX44X@*"
};
