/* XPM */
static char *result[] = {
/* columns rows colors chars-per-pixel */
"48 48 108 2 ",
"   c #001700",
".  c #081700",
"X  c #082800",
"o  c #003800",
"O  c #292800",
"+  c #004000",
"@  c #004900",
"#  c #084900",
"$  c #005100",
"%  c #005900",
"&  c #085900",
"*  c #185108",
"=  c #105908",
"-  c #295108",
";  c #006100",
":  c #086100",
">  c #006A00",
",  c #086A00",
"<  c #106A08",
"1  c #007200",
"2  c #007A00",
"3  c #087A00",
"4  c #087B00",
"5  c #107300",
"6  c #186A10",
"7  c #217308",
"8  c #316A10",
"9  c #427B18",
"0  c #6B7310",
"q  c #527221",
"w  c #6B7A31",
"e  c #845208",
"r  c #845A10",
"t  c #8C5A18",
"y  c #8C6318",
"u  c #946318",
"i  c #946B18",
"p  c #9C6B18",
"a  c #847321",
"s  c #A57321",
"d  c #AD7339",
"f  c #008200",
"g  c #008B00",
"h  c #088B00",
"j  c #088208",
"k  c #088B08",
"l  c #108208",
"z  c #108B08",
"x  c #009300",
"c  c #089300",
"v  c #089B00",
"b  c #089C00",
"n  c #109308",
"m  c #109B08",
"M  c #189310",
"N  c #189C10",
"B  c #10A508",
"V  c #18A510",
"C  c #21A310",
"Z  c #29A318",
"A  c #31A510",
"S  c #52AD21",
"D  c #7BA531",
"F  c #6BB531",
"G  c #7BB539",
"H  c #7BC639",
"J  c #AD8429",
"K  c #BD9C42",
"L  c #94B542",
"P  c #BDA552",
"I  c #A5BD52",
"U  c #C68C42",
"Y  c #CE8C4A",
"T  c #D6944A",
"R  c #D69C52",
"E  c #C6AD5A",
"W  c #DEA55A",
"Q  c #CEB55A",
"!  c #E7A55A",
"~  c #EFA55A",
"^  c #DEB56B",
"/  c #EFAD63",
"(  c #F7B563",
")  c #FFB56B",
"_  c #F7BD6B",
"`  c #FFBD6B",
"'  c #FFBD73",
"]  c #94C642",
"[  c #A5CE42",
"{  c #ADC652",
"}  c #BDC652",
"|  c #C6C65A",
" . c #D6C65A",
".. c #DECE63",
"X. c #E7CE6B",
"o. c #F7C663",
"O. c #F7CE6B",
"+. c #EFCE73",
"@. c #F7C673",
"#. c #FFC673",
"$. c #FFC67B",
"%. c #FFCE7B",
"&. c #F7D67B",
"*. c #FFCE84",
"=. c #FFD684",
"-. c #FFDE84",
";. c #FFDE8C",
":. c None",
/* pixels */
":.:.:.@ @ ; , ; ; ; ; ; ; ; ; ; , ; , ; ; ; ; ; ; ; ; ; ; ; ; ; , , , , ; ; , ; ; ; @ @ @ :.:.:.",
":.:.@ , f x x g g g g x x f g v x v x x v x x x x x g g f g g x m v m m x x x g g g g g ; @ :.:.",
":.@ z g g g g g f g x x g x x x x g x x x x x x x x g f g g g g x m m g g g g g f g x x g f @ :.",
"@ ; x f g g g f f g x x x x g f g f g f g x g x x g g g g g g f g v x f g g g f f g x x x g @ @ ",
"o ; f g g f g f f x m v g f g f g f f f g f g v x g g g g g f f g f f g g f g f f x m v g f ; o ",
"o , g g g g x g m m m x g g g g f f f f f f g x g x x g g g g f g f g g g g x g m m m x g g , o ",
"o f x g g v v m m m x m v x g g f f f f f f x g x v x x f v g v x g x g g v v m m m x m v x f o ",
"o x v x m m m Z m x m Z v x x g g f f f f g x g v v x g g v v v x x v x m m m Z m x m Z v x g o ",
"@ v m m Z m Z Z v v Z v x x x g f f f g g x g v v x x g v v v v x v m m Z m Z Z v v Z v x x x o ",
"o m m Z m m Z m x Z m x x g g g g f g g g g x v x x g x v v v x v m m Z m m Z m x Z m x x g g o ",
"o m m Z m Z Z g m Z x g g g g f f f f g g g x v x x x v v v v v m m m Z m Z Z g m Z x g g g g o ",
"o v m m m Z x g m x f g f f f f f f f g g g x x x g v v v v v m m v m m m Z x g m x f g f f f o ",
"o x m v m v g f f f f g f f f f f f f g f x x g g g x x v v v m x x m v m v g f f f f g f f f   ",
"  v v x x g f f f f g g f f f f f f f f f x g g g g g g x v v v g v v x x g f f f f g g f f f   ",
"  x g g g x g f g g x g f f f g f f f f f g f g f g f g g g v x g x g g g x g f g g x g f f f   ",
"  g g g g m f x x g g f f f g g f f f f f f f f f g f g g v v g x g g g g m f x x g g f f f g   ",
". k m m c c m g g g g g c x n c m g m c x g x x x x g x g g g x m m m m c c m g g g g g c x j . ",
". j m m x c x g g g g c x g g c x c x x c c x x x x g g g g g x C m m m x c x g g g g c x g 3 . ",
". l m g g g g g g g x x g x x x c g x c x x x x x x g g g g g g c m m g g g g g g g x x g x 1 . ",
". > x g g g g f g g x x x x g g g g g g g x g x c g g g g g g g g c x g g g g f g g x x x x ; . ",
". $ f g g g g f g x m c g f g g g f f f g g g c x g g g g g g f g g g g g g g f g x m c g f $ . ",
". @ 1 g g g c g m m m x g g g g f f f g g f g x g x c g g g g f g f g g g g c g m m m x g 1 @ . ",
". @ @ % 2 g h M C m x m c x g g f f f g f g x g x c x x g c g c x g c g g m m C M n 2 j > @ @ . ",
". + $ % & : : : > > > < > ; ; ; ; ; ; ; ; ; ; ; > > ; ; ; > > > ; ; > > > > > < & % : : % $ + . ",
"X * * * * # # # # # * * # # # * * * * * # # # # # # * * # # * * * * * * * # # # # # * * # # # X ",
"O q q 8 - - * * # * * - 6 8 8 q q q q 8 - - * # # # * - 8 q D D D q q 8 - - * * # * * - 6 8 8 O ",
"s ! @._ ^ D 8 * - D }  . .o.#.$.$.#.#.' @.} D - = - w | @.#.$.$.#.' @._ ^ D 8 * - D Q  ...@./ i ",
"i T ` ' ' ' Q q L #.#.#.#.#.#.#.#.#.#.#.#.#.#.P q I @.#.#.#.' ' ' ` ' ' ' ' Q q L #.#.#.#.#.W i ",
"t J ~ / / / T T / ` ` ` ' #.#.$.$.$.#.' #.#./ T ( ) ) ( ) ) ( ( ( ( ( / / / T T ( ) ) ( ) ) R t ",
"y U ~ ~ R ~ T T W / ' $.' ) ( ` ) ( / / / Y U / ( / ~ ~ ~ / ) T T ~ / ~ W ~ T T ( / ~ ~ ~ / T e ",
"i W %.%.%.=.=.-.#.=.-.-.-.%.#./ ~ Y W #.$.%.%.%.$.%.$.%.%.` / T W =.%.%.%.=.=.-.$.%.$.%.%.` U e ",
"d ^ %.*.*.=.-.-.-.;.;.;.;.;.=.( ~ R _ #.#.#.#.#.#.' ' ' #.$.` T ` =.%.*.*.=.-.-.#.' ' ' #.$./ u ",
"d _ *.*.%.%.=.;.-.;.;.-.-.-.=.` / / ' $.$.$.#.#.#.' ' ' ' #.#.~ $.=.*.*.%.%.=.;.#.' ' ' ' #._ y ",
"d _ *.%.%.%.%.-.-.;.-.=.=.=.=.$./ / ` #.$.$.#.$.$.$.#.#.' ' #./ *.=.*.%.%.%.%.-.$.$.#.#.' ' _ i ",
"d _ *.*.*.%.%.=.-.;.-.=.%.*.%.$.~ / ` #.#.$.#.$.$.$.$.#.` ' ' / %.=.*.*.*.%.%.=.$.$.$.#.` ' ( p ",
"d ^ *.%.$.$.%.%.-.;.-.=.%.$.$.#.~ ) #.#.#.$.$.$.$.$.$.$.' ' ' R %.=.*.%.$.$.%.%.$.$.$.$.' ' / s ",
"d ^ %.%.%.%.%.%.-.-.=.%.%.#.#.#.~ ` $.$.#.#.$.$.$.$.$.$.$.$.' Y =.=.%.%.%.%.%.%.$.$.$.$.$.#./ p ",
"i E =.%.%.%.%.=.=.-.=.%.%.$.#.#./ ) ` #.$.$.#.#.#.' ' ' ' #.` Y %.;.=.%.%.%.%.=.#.' ' ' ' #./ u ",
"t Y =.=.%.=.=.=.=.=.=.%.%.%.%.#.W ~ ) ` ' ' ' ' ' _ _ ) _ @./ T _ -.=.=.%.=.=.=.' _ _ ) _ @.T t ",
"r d _ @.@.@.@.o.o.@.@.@.@.@.( T U Y R / ( / / / / / ( ( ( / ! Y Y / _ @.@.@.@.o./ / ( ( ( / U e ",
"t J / ! ! ! ! ! ! W R W W R U T T W R R U U U U U T W R R ! ! ! / / / ! ! ! ! ! U T W R R W J e ",
"i R -.-.=.=.W W W ! / / / W R / / ( _ _ ( / W T W ( @.' $.#.#.%.=.=.-.-.=.=.W W W ( @.' $.#.T y ",
"i ^ -.=.=.-.#.R / ' #._ / ` $.$.$.#.' _ _ @.( W / _ %.%.%.%.%.%.+.=.-.=.=.-.#.R ! _ %.%.%.%./ i ",
"a | =.=.X.-.;.R / #._ ) #.%.X.&.%.%.%.X.....X./ / %.%.%.%.%.%.%.{ ..=.=.X.-.;.R ! %.%.%.%.O.^ i ",
"9 L +.&.[ &.;.K Q _ _ %.&...{ &.X.+.+.} { L | Q .. .&.=.=.&.+.%.G I +.&.[ &.;.K  .%.=.=.&...L p ",
"9 A I I S H ] D D ^ $...X.] F I G I I G F S L L { I  .=.+.| L X.S S I I S H ] D L +.=.X.X.L S 0 ",
"7 N S S V V A V A ] I F I F A A V A A A A A S S G F F I G G S I A V S S V V A V A L I F I F A 5 ",
"5 b V V B B V B V S A V V V V B V B B B B B B B B B V A V V B V V B V V B B V B V S A B V V N 4 "
};
