/* XPM */
static char *result[] = {
/* columns rows colors chars-per-pixel */
"48 48 13 1 ",
"  c #000810",
". c #390810",
"X c #102131",
"o c #521818",
"O c #731818",
"+ c #29394A",
"@ c #425263",
"# c #526373",
"$ c #315284",
"% c #5A739C",
"& c #637384",
"* c #A5A59C",
"= c None",
/* pixels */
"================================================",
"================================================",
"================================================",
"================================================",
"================================================",
"================================================",
"================================================",
"================================================",
"================================================",
"================================================",
"=================  ===========   ===============",
"================    =========     ==============",
"================     =======      ==============",
"================      XXXXXX      ==============",
"==================    X@#@X    X================",
"==================X@+  ###  +@XX================",
"=================X+##@  #  @#@@XX===============",
"=================X##+XX # XX+#@+X===============",
"================X+&+***+#+***+@@XX==============",
"===============XX#+**+ +#+ +**+@@X==============",
"==============XXX@#**  +#+  **#@@XX=============",
"=============XXX#+***+ +#+ +***+@@XX============",
"=============XX#&+*****###*****+#@@XX===========",
"============XXX&X#+***&###&***+#X@@XX===========",
"============XX#@*X#############X*X@@XX==========",
"============XX&+**X###########X**X@@XX==========",
"============XX&+***X@+XXXXX+@X***X@@XX==========",
"=============X#+X***XXXXXXXXXX***X@@XX==========",
"===========.....XXXX@########@+XX@@@XX==========",
"==========..OOo. ###############@@@X ===========",
"==========.OOOOO. ++@@@@@@@+++@@@X   ===========",
"==========.ooOOOo$$$%%%%%%$X       =============",
"==========.oooooO$$%%%%%%%$.....================",
"===========..oooO$$%%%%%%%$OOOO..===============",
"============......$$$%%%%$oOOOOO.===============",
"================XXXX$$$$$ooOOOOo.===============",
"==================XXXXXX.oooooo..===============",
"========================........================",
"================================================",
"================================================",
"================================================",
"================================================",
"================================================",
"================================================",
"================================================",
"================================================",
"================================================",
"================================================"
};
