/* XPM */
static char *result[] = {
/* columns rows colors chars-per-pixel */
"59 67 20 1 ",
"  c #181010",
". c #301818",
"X c #202028",
"o c #600000",
"O c #482010",
"+ c #584020",
"@ c gray25",
"# c #686868",
"$ c #A81828",
"% c #885818",
"& c #A07018",
"* c #A06830",
"= c #B08018",
"- c #988048",
"; c #B88858",
": c #C8B058",
"> c #E0C868",
", c #2830C8",
"< c gray69",
"1 c None",
/* pixels */
"11111111111111111111111111111111111111111++++11111111111111",
"111111111111111111111111111111111111111+++++...111111111111",
"1111111111111111111111111111111111111+++++::....11111111111",
"111111111111111111111111111111111111++++>>>-::....111111111",
"11111111111111111111111111111111111+++>>>>>>--%....11111111",
"1111111111111111111111111111111111+++>>>>>>>::%%=...1..1111",
"111111111111111111111111111111111+++>>>>>>>>::%===......111",
"111111111111111111111111111111111++>>>>>>>>---%%===.++...11",
"11111111111111111111111111111111+++>>>>>>>::-%=%===&.%+..11",
"11111111111111111111111111111111++>>>>>>>:::-%==%===&.+..11",
"11111111111111111111111111111111++>>>>>>-:>-%=======&&..111",
"1111111111111111111111111111111+++>>>>>:---=========&&...11",
"1111111111111111111111111111111++::>>-:::%%===%=====&&&..11",
"1111111111111111111111111111111++:-:--:>-%=====%%===&%&...1",
"11111111111111111111111111111111..::----%%%====%%%==&%%&...",
"11111111111111111111111111111111...-%%%===%%====%%%=&&%&...",
"111111111111111111111111111111111...%%======%====%%%&&%%-..",
"11111111111111OOOOO111111111111111..==%===========%%&&&%...",
"111111111111OOoooooOO1111111111111...=============&%%&&%-..",
"11111111111Ooo$$$$$ooO1111111111111....+===%======&&%&&--..",
"111111   1Ooo$$$$$$$$oO111111111111...%%%===%%===&&&&&&-...",
"11111     oo<$$$$$$$$oO11    1    ...+%%%+===%%&&&&%%&-...1",
"11111     o<$$$$$$$$$$o  @@@@ @@@...+%%%%.&&&&%%%&&%%--...1",
"11111     <<$$$$$$$$$$@@@###@@@#...+==%....&&&&%%%&&--...11",
"111111    <$$$$$$$$$$@@#<<<##<<...+==%.......&&&&&--....111",
"111111    $$$$$$$$$$$@#<<<<#<<<@.+==%...11....--.--....1111",
"1111111   o$$$$$$$$$@@<<<<<<<<<@+==%...1111...........11111",
"11111111   $$$$$$$$$@<<<#<<<<<<@@=%...1111111.......1111111",
"111        o$$$$$$$@@<<#<<#<<<<@@@...@ 11111111111111111111",
"11 OOOOOOO  $$$$$$oo<<<<<#<<<<<<<@<<#@ 11111111111111111111",
"1 OO;;*OO;O o$$$$oo$$<<<<<<<<<<<<@<<#@ 11111111111111111111",
" OO;;;;O;;OO o$$oo$$$$<<<<<<<<<<@###@@ 11111111111111111111",
" OO;;;O;;;OOO ooo$$$$$$$<<<<<#@@###@@ 111111111111111111111",
" OO;;O*;;O;;;Ooo$$$$$$$$$@@@@@oo@@@@ 1111111111111111111111",
" OO*  ;OO;;;;*o$$$$$$$$ooooooooo@@  11111111111111111111111",
" OO   ;OO;;;;oo$$$$$$$oo$$$oOooo  1111111111111111111111111",
"1 O   ;OO;;;*o$$$$$$$oo$$$oOOoOO111111111111111111111111111",
"11    ;;O;;;o$$$$$$$oooooooOoO11111111111111111111111111111",
"111   ;;O*;oo$$$$$$oOOOOOOOOO111111111111111111111111111111",
"1111 O*;;O*o$$$$$$oOOOOOO;O 1111111111111111111111111111111",
"1111 OO;;;oo$$$$$oOOOOOOOOO 1111111111111111111111111111111",
"11111 OO**o$$$$$oOOOOOOOOOO 1111111111111111111111111111111",
"111111 OOo$$$$$oOOOOOOOOO  11111111111111111111111111111111",
"1111111  o$$$$oOOOOOOOOOO1111111111111111111111111111111111",
"1111111Xo$$$$oOOOO$XOOOOO1111111111111111111111111111111111",
"111111X$o$$$oX,XX$$XoooO11111111111111111111111111111111111",
"111111X$$$$$$X,,X$$XXoO111111111111111111111111111111111111",
"11111XX$$$$$$X,,,X$XXO1111111111111111111111111111111111111",
"11111XXX$$$$X,,,,,XXXX1111111111111111111111111111111111111",
"11111XX,XXXX,,,,,,,,XX1111111111111111111111111111111111111",
"1111XX,,,,,,,,,,,,,,XX1111111111111111111111111111111111111",
"1111XX,,,,,,,,,,,,,,XX1111111111111111111111111111111111111",
"1111XX,,,,,,,,,,,,,,XX1111111111111111111111111111111111111",
"1111XX,,,,,,,,,,,,,,X   11111111111111111111111111111111111",
"1111XX,,,,,,,,,    ,     1111111111111111111111111111111111",
"11111XX,,,,,,, OO*  OOO  1111111111111111111111111111111111",
"11111XXX,,,,, OO*OO OOO  1111111111111111111111111111111111",
"111111XXXX,,, OO*OO OOO  1111111111111111111111111111111111",
"1111111XXXXX  OOO   O     111111111111111111111111111111111",
"111111111XXX  OOOOOO OOO  111111111111111111111111111111111",
"11111111111  OO*OOOOO OOO  11111111111111111111111111111111",
"11111111111  OO*OOOOO OOO  11111111111111111111111111111111",
"11111111111  OO*OOOOO OOO  11111111111111111111111111111111",
"11111111111  OOO*OOOO OO   11111111111111111111111111111111",
"11111111111   OOOOOO      111111111111111111111111111111111",
"111111111111             1111111111111111111111111111111111",
"1111111111111       111111111111111111111111111111111111111"
};
