/* XPM */
static char *result[] = {
/* columns rows colors chars-per-pixel */
"61 72 227 2 ",
"   c #2D1B1A",
".  c #251716",
"X  c #331E1B",
"o  c #3B231D",
"O  c #36201C",
"+  c #2D1E25",
"@  c #382324",
"#  c #31243A",
"$  c #1E1414",
"%  c #47231E",
"&  c #67351E",
"*  c #722E1E",
"=  c #472A25",
"-  c #4C332A",
";  c #5C3B2A",
":  c #55362A",
">  c #5A3A35",
",  c #493132",
"<  c #6C3422",
"1  c #623D2A",
"2  c #693728",
"3  c #793624",
"4  c #683938",
"5  c #703D36",
"6  c #6F2D21",
"7  c #4D443C",
"8  c #594539",
"9  c #59412F",
"0  c #66422B",
"q  c #6B452C",
"w  c #6E4B2C",
"e  c #734C2C",
"r  c #77472F",
"t  c #7D542D",
"y  c #77522D",
"u  c #624432",
"i  c #6A4836",
"p  c #744D33",
"a  c #77483A",
"s  c #7D5333",
"d  c #775639",
"f  c #6C5136",
"g  c #7E6535",
"h  c #37345A",
"j  c #362B4A",
"k  c #3A396A",
"l  c #3C3C75",
"z  c #46344B",
"x  c #483957",
"c  c #55364C",
"v  c #673B47",
"b  c #463C68",
"n  c #4C3B6E",
"m  c #5C5343",
"M  c #534B42",
"N  c #694748",
"B  c #705546",
"V  c #5A446F",
"C  c #72506E",
"Z  c #757664",
"A  c #6F644A",
"S  c #8B1818",
"D  c #961D1F",
"F  c #A2191C",
"G  c #A9231D",
"H  c #961B27",
"J  c #9C2C29",
"K  c #883626",
"L  c #822E34",
"P  c #BA352B",
"I  c #A83832",
"U  c #AF2E30",
"Y  c #A01B25",
"T  c #C23B34",
"R  c #825A2E",
"E  c #864A3A",
"W  c #875834",
"Q  c #935039",
"!  c #896635",
"~  c #977A39",
"^  c #906E35",
"/  c #B56B2F",
"(  c #C14233",
")  c #A62F47",
"_  c #D42F44",
"`  c #CB3745",
"'  c #D43444",
"]  c #DC354A",
"[  c #DB3B49",
"{  c #D73749",
"}  c #CB3758",
"|  c #D13B55",
" . c #E03F48",
".. c #C43867",
"X. c #855942",
"o. c #864E4B",
"O. c #896642",
"+. c #997A45",
"@. c #936942",
"#. c #AA7F44",
"$. c #8B7D65",
"%. c #AF7F6B",
"&. c #B04940",
"*. c #DA4E49",
"=. c #D94846",
"-. c #DA524B",
";. c #C64857",
":. c #D55250",
">. c #E14A46",
",. c #E25147",
"<. c #E35954",
"1. c #D96258",
"2. c #E3625B",
"3. c #CC486A",
"4. c #E36F67",
"5. c #DE746A",
"6. c #7F8268",
"7. c #98843A",
"8. c #B68A27",
"9. c #BA8C35",
"0. c #B48B2D",
"q. c #C4992C",
"w. c #CA9C32",
"e. c #C49634",
"r. c #C28338",
"t. c #CCA42B",
"y. c #CCA526",
"u. c #D3AB2D",
"i. c #D1A72D",
"p. c #DDB82D",
"a. c #CDA333",
"s. c #CCAA3B",
"d. c #D2A534",
"f. c #D5AA35",
"g. c #D6AB37",
"h. c #DCB333",
"j. c #DAB537",
"k. c #E1BD2D",
"l. c #E2BB35",
"z. c #E1BD3A",
"x. c #E5C42E",
"c. c #E8C72F",
"v. c #E6C333",
"b. c #E9C631",
"n. c #E9C932",
"m. c #EACB3B",
"M. c #E6C43B",
"N. c #9B8745",
"B. c #A38849",
"V. c #AA9647",
"C. c #AE9453",
"Z. c #BEA84D",
"A. c #BFA457",
"S. c #87876A",
"D. c #928E72",
"F. c #A9856F",
"G. c #CA9C4A",
"H. c #CE9453",
"J. c #C3A75A",
"K. c #D7A15B",
"L. c #D4B048",
"P. c #D9AB68",
"I. c #DAB56C",
"U. c #DCB96E",
"Y. c #D5B167",
"T. c #DFBC72",
"R. c #D4BD75",
"E. c #CBB263",
"W. c #E4B46E",
"Q. c #E3BD73",
"!. c #E3B770",
"~. c #E4AE6A",
"^. c #E1BE48",
"/. c #E6C644",
"(. c #ECD047",
"). c #DBC869",
"_. c #E5D36A",
"`. c #E3C176",
"'. c #E5C57A",
"]. c #E5CB78",
"[. c #E9D777",
"{. c #E1CD68",
"}. c #F2E47C",
"|. c #474384",
" X c #715490",
".X c #4B4DDE",
"XX c #454DDD",
"oX c #524DDC",
"OX c #5756DA",
"+X c #4A52DF",
"@X c #765BDB",
"#X c #675CDC",
"$X c #6968DB",
"%X c #7164DA",
"&X c #4D53E4",
"*X c #4F57E9",
"=X c #535BEB",
"-X c #575AE7",
";X c #4C4FE1",
":X c #665AE4",
">X c #725DE1",
",X c #5C62E9",
"<X c #6565E6",
"1X c #865C80",
"2X c #9EA38A",
"3X c #BABBA3",
"4X c #A8A289",
"5X c #D7BD97",
"6X c #D8BC8A",
"7X c #D1BEA3",
"8X c #E8D782",
"9X c #F3E583",
"0X c #F4E984",
"qX c #F6EB8C",
"wX c #F6EB95",
"eX c #F6EB94",
"rX c #F9F095",
"tX c #D9C8B1",
"yX c #D6D4BE",
"uX c #CCC7AE",
"iX c #E4D3BE",
"pX c #DADAC4",
"aX c #D9D9C3",
"sX c #E5DBC7",
"dX c #E5E1CE",
"fX c #E7E3D1",
"gX c None",
/* pixels */
"gXgXgXgXgXgXgXgXgXgXgXgXgXgXgXgXgXgXgXgXgXgXgXgXgXgXgXgXgXgXgXgXgXgXgXgXgXgXgXgXgXgXgXB.B.+.+.gXgXgXgXgXgXgXgXgXgXgXgXgXgX",
"gXgXgXgXgXgXgXgXgXgXgXgXgXgXgXgXgXgXgXgXgXgXgXgXgXgXgXgXgXgXgXgXgXgXgXgXgXgXgXgXgXB.C.C.C.C.@.A d gXgXgXgXgXgXgXgXgXgXgXgX",
"gXgXgXgXgXgXgXgXgXgXgXgXgXgXgXgXgXgXgXgXgXgXgXgXgXgXgXgXgXgXgXgXgXgXgXgXgXgXgX+.B.C.C.C.8X6X+.O.W f gXgXgXgXgXgXgXgXgXgXgX",
"gXgXgXgXgXgXgXgXgXgXgXgXgXgXgXgXgXgXgXgXgXgXgXgXgXgXgXgXgXgXgXgXgXgXgXgXgXgX7.B.C.C.wXwXwX6X8X].O.d p 0 gXgXgXgXgXgXgXgXgX",
"gXgXgXgXgXgXgXgXgXgXgXgXgXgXgXgXgXgXgXgXgXgXgXgXgXgXgXgXgXgXgXgXgXgXgXgXgX7.B.V.qXwXwXwXwXwXR.R.G.! s w 1 gXgXgXgXgXgXgXgX",
"gXgXgXgXgXgXgXgXgXgXgXgXgXgXgXgXgXgXgXgXgXgXgXgXgXgXgXgXgXgXgXgXgXgXgXgX~ N.V.qXwXwXwXwXwXwX8X8XG.V.a.W e 0 gX: - gXgXgXgX",
"gXgXgXgXgXgXgXgXgXgXgXgXgXgXgXgXgXgXgXgXgXgXgXgXgXgXgXgXgXgXgXgXgXgXgX^ 7.V.0XqXrXwXwXwXwXwX8X8XL.L.g.d.s e 1 ; : % gXgXgX",
"gXgXgXgXgXgXgXgXgXgXgXgXgXgXgXgXgXgXgXgXgXgXgXgXgXgXgXgXgXgXgXgXgXgXgX7.V.9XqXqXwXrXwXrXwX].].].L.w.j.g.d.R ^ ! 2 1 - gXgX",
"gXgXgXgXgXgXgXgXgXgXgXgXgXgXgXgXgXgXgXgXgXgXgXgXgXgXgXgXgXgXgXgXgXgX^ N.V.0XqXrXrXrXrXrX0X9X].L.^.d.z.g.h.w.R / ! ; : gXgX",
"gXgXgXgXgXgXgXgXgXgXgXgXgXgXgXgXgXgXgXgXgXgXgXgXgXgXgXgXgXgXgXgXgXgX7.7.}.qXqXrXrXrXrX0X0X}.).^./.^.d.l.h.u.q.R ^ 1 ; gXgX",
"gXgXgXgXgXgXgXgXgXgXgXgXgXgXgXgXgXgXgXgXgXgXgXgXgXgXgXgXgXgXgXgXgXgX7.V.}.qXqXqXrXrX[.0XqX[.^.m./.z.l.z.l.f.w.w.t r gXgXgX",
"gXgXgXgXgXgXgXgXgXgXgXgXgXgXgXgXgXgXgXgXgXgXgXgXgXgXgXgXgXgXgXgXgX^ 7.7.}.0XqXrXrX}.[.[._.(.(.m.M.z.l.l.l.h.d.w.R e q gXgX",
"gXgXgXgXgXgXgXgXgXgXgXgXgXgXgXgXgXgXgXgXgXgXgXgXgXgXgXgXgXgXgXgXgX^ 7._._.0X0X_.}.}.}././.m.m.m.l.l.z.l.l.h.d.d.w.R e gXgX",
"gXgXgXgXgXgXgXgXgXgXgXgXgXgXgXgXgXgXgXgXgXgXgXgXgXgXgXgXgXgXgXgXgXg ^ {.).[.).{.}.}.{./.(.m.m.n.b.h.l.l.l.l.d.e.w.R r q gX",
"gXgXgXgXgXgXgXgXgXgXgXgXgXgXgXgXgXgXgXgXgXgXgXgXgXgXgXgXgXgXgXgXgXgXf g {._.).{._.{.z.z.z.m.n.n.b.h.h.g.l.l.f.e.e.e.s p q ",
"gXgXgXgXgXgXgXgXgXgXgXgXgXgXgXgXgXgXgXgXgXgXgXgXgXgXgXgXgXgXgXgXgXgXu f g E.s.s.j.m.m.m.j.j.n.n.b.l.h.g.d.l.f.d.e.w.W s r ",
"gXgXgXgXgXgXgXgXgXgXgXgXgXgXgXgXgXgXgXgXgXgXgXgXgXgXgXgXgXgXgXgXgXgXgXu f ! q.a.v.M.v.b.b.b.k.c.b.b.k.h.d.d.g.g.e.r.J.s p ",
"gXgXgXgXgXgXgXgXgXgXgXgXgXgXgXgXgXgXgXgXgXgXgXgXgXgXgXgXgXgXgXgXgXgXgXgXf t j.p.a.v.v.c.b.c.c.c.c.c.c.l.g.d.g.f.w.e.W W a ",
"gXgXgXgXgXgXgXgXgXgXgXgXgXgXgXgXgXgXgXgXgXgXgXgXgXgXgXgXgXgXgXgXgXgXgXgX0 e R p.p.p.v.v.b.c.c.c.c.c.c.l.h.d.w.f.d.r.J.E p ",
"gXgXgXgXgXgXgXgXgXgXgXgXgXgXgXgXgXgXgXgXgXgXgXgXgXgXgXgXgXgXgXgXgXgXgXgXgXq R R ^ 9.k.k.c.u.c.c.c.c.n.k.l.j.w.s.s.J.J.B p ",
"gXgXgXgXgXgXgXgXgXgXgXgXgXgXgXgXgXgXgXgXgXgXgXgXgXgXgXgXgXgXgXgXgXgXgXgXgXq e R 0.q.t.p.k.x.u.u.k.c.k.l.h.h.f.d.w.J.R p i ",
"gXgXgXgXgXgXgXgXgXgXgXgXgXgXgXgXgXgXgXgXgXgXgXgXgXgXgXgXgXgXgXgXgXgXgXgX9 q y ~ q.q.q.0.p.k.k.y.u.l.k.h.f.w.e.w.J.s a i gX",
"gXgXgXgXgXgXgXgXgXgXgXgXgXgX& 6 6 6 gXgXgXgXgXgXgXgX7 j M gXgXgXgXgXgX; 0 q ^ 8.8.8.8.^ u.u.u.u.i.i.i.f.u.w.e.J.J.p i 1 gX",
"gXgXgXgXgXgXgXgXgXgXgXgX6 3 S S S S 3 3 gXgXgX, 7 7 Z Z Z M M gXgXgXu u w ^ y.y.8.t t t R y.y.y.i.w.q.q.i.i.J.G.p i 1 gXgX",
"gXgXgXgXgXgXgXgXgXgXgX< S S D ` ` ` D D K > > M $.Z 2X2X2X6.6.m m N f f ! y.y.0.w q q w e y t y.y.y.y.y.J.J.p w 1 ; gXgXgX",
"gXgXgXgXgXgXgXgXgXgX6 S S ` =.` ` { ` J J E N $.S.aXaXaXaXaXaX6.S.B f ~ s.t.8.9 0 1 gXgX1 1 q e Z.Z.t Z.Z.e 0 ; ; gXgXgXgX",
"gXgXgXgXgX$ .     6 * T T tXuXtX;.=.=.=.I Q F.D.aXpXaXpX3XpXaXaXD.D.N.s.t.8.0 : ; gXgXgXgX; 1 1 0 q q q 0 0 ; : gXgXgXgXgX",
"gXgXgXgX$ . .     @ % ` uXJ tXtXtX=.=.:.-.&.F.yXpX3XpXdX3XdXpXpXyXD.A s.0.0 ; : gXgXgXgXgXgXgX: : : : : : - gXgXgXgXgXgXgX",
"gXgXgXgXgX. .   X % = > J J I U tX=.-.-.-.F.F.iXsX7XsXfXfXuXdXpXpXyXD.m 8 8 ; gXgXgXgXgXgXgXgXgXgXgXgXgXgXgXgXgXgXgXgXgXgX",
"gXgXgXgXgXgX  O @ = - ; 4 5 I tXtX=.-.-.-.F.yXiXsXpXuXfXfXfXdXdXpXyXS.m gXgXgXgXgXgXgXgXgXgXgXgXgXgXgXgXgXgXgXgXgXgXgXgXgX",
"gXgXgXgXgXgXgX@ @ = , > 4 v a tX*.*.*.-.<.F.iXiXsXsXfXfXfXfXdXdXpXpXS.m gXgXgXgXgXgXgXgXgXgXgXgXgXgXgXgXgXgXgXgXgXgXgXgXgX",
"gXgXgXgXgXgXgXgX, : > u 4 a a E *.*.*.-.-.=.4.iXsXsXsXfXfXdXsXpXpXyXS.7 gXgXgXgXgXgXgXgXgXgXgXgXgXgXgXgXgXgXgXgXgXgXgXgXgX",
"gXgXgXgXgXgXgXgX: > E.P.f a N a E *.*.*.-.` <.4.4.sXsXsXsXsXsXaXaXyX6.7 gXgXgXgXgXgXgXgXgXgXgXgXgXgXgXgXgXgXgXgXgXgXgXgXgX",
"gXgXgXgX- : > 1 8 W P.I.I.P.E o.E E =.:.P T <.<.4.4.5.sXsXsXaXyXyX6.7 gXgXgXgXgXgXgXgXgXgXgXgXgXgXgXgXgXgXgXgXgXgXgXgXgXgX",
"gXgX- : t R W ! f d I.I.I.I.W.I.E E I =.P ,.,.<.<.2.4.4.5.yXyX4X6.7 gXgXgXgXgXgXgXgXgXgXgXgXgXgXgXgXgXgXgXgXgXgXgXgXgXgXgX",
"gX; W W Y.I.G.~ O.O.T.T.Q.! @.W.W.Q Q =.P >.>.>.,.<.<.1.1.1.$.$.8 gXgXgXgXgXgXgXgXgXgXgXgXgXgXgXgXgXgXgXgXgXgXgXgXgXgXgXgX",
"9 W ! P.!.Q.Q.U.B.9.T.T.#.@.@.Q.W.W.Q P T ]  . .>.>.,.<.:.I N > gXgXgXgXgXgXgXgXgXgXgXgXgXgXgXgXgXgXgXgXgXgXgXgXgXgXgXgXgX",
"i ! G.!.Q.Q.'.'.'.'.Q.8X+.+.#.Q.!.W.~.T >. .] ]  . .[ { G E gXgXgXgXgXgXgXgXgXgXgXgXgXgXgXgXgXgXgXgXgXgXgXgXgXgXgXgXgXgXgX",
"i ^ !.T.Q.'.Q.8X'.'.8XQ.#.#.'.Q.!.~.~.T >. .] ] ] _ { ` Y 3 gXgXgXgXgXgXgXgXgXgXgXgXgXgXgXgXgXgXgXgXgXgXgXgXgXgXgXgXgXgXgX",
"i ! U.T.Q.'.Q.Q.8X'.'.6XQ.8XQ.Q.`.~.( T >. .] ] _ _ _ Y K gXgXgXgXgXgXgXgXgXgXgXgXgXgXgXgXgXgXgXgXgXgXgXgXgXgXgXgXgXgXgXgX",
"u Q G.Q.Q.`.].'.'.'.'.'.`.`.Q.Q.W.W.( ,.>.>._ _ ] _ F D 3 gXgXgXgXgXgXgXgXgXgXgXgXgXgXgXgXgXgXgXgXgXgXgXgXgXgXgXgXgXgXgXgX",
"gXu ! I.!.Q.`.`.`.'.'.'.`.Q.Q.Q.W.W.( ,.>.>. ._ _ _ F K * gXgXgXgXgXgXgXgXgXgXgXgXgXgXgXgXgXgXgXgXgXgXgXgXgXgXgXgXgXgXgXgX",
"gXgXu ! G.I.U.T.T.`.Q.Q.T.@.@.!.W.( ( >. . . ._ T F K K * gXgXgXgXgXgXgXgXgXgXgXgXgXgXgXgXgXgXgXgXgXgXgXgXgXgXgXgXgXgXgXgX",
"gXgXgX9 u f G.I.U.W.+.! O.X.X.X.W.( ,.>. . . ._ G F 6 3 gXgXgXgXgXgXgXgXgXgXgXgXgXgXgXgXgXgXgXgXgXgXgXgXgXgXgXgXgXgXgXgXgX",
"gXgXgXgX9 9 9 f f d d B B X.E Q ~.P >.=.'  .] ] G K.K % gXgXgXgXgXgXgXgXgXgXgXgXgXgXgXgXgXgXgXgXgXgXgXgXgXgXgXgXgXgXgXgXgX",
"gXgXgXgXgX- - 9 9 i N f a a W P.P P [ [  .T ] G K.K.3 % gXgXgXgXgXgXgXgXgXgXgXgXgXgXgXgXgXgXgXgXgXgXgXgXgXgXgXgXgXgXgXgXgX",
"gXgXgXgXgXgX- - ; > i i a P.~.~.P =.] ]  . .G G K.9.3 % gXgXgXgXgXgXgXgXgXgXgXgXgXgXgXgXgXgXgXgXgXgXgXgXgXgXgXgXgXgXgXgXgX",
"gXgXgXgXgXgXgXgX5 p P.P.P.P.P.P.U `  ._ ] T G K.K.3 % gXgXgXgXgXgXgXgXgXgXgXgXgXgXgXgXgXgXgXgXgXgXgXgXgXgXgXgXgXgXgXgXgXgX",
"gXgXgXgXgXgXgXgX5 r a E H.H.H.U U ] ] ] _ Y K.K K * % gXgXgXgXgXgXgXgXgXgXgXgXgXgXgXgXgXgXgXgXgXgXgXgXgXgXgXgXgXgXgXgXgXgX",
"gXgXgXgXgXgXgXz c N ;.X.o.B o.U | | | ] _ F K K = = gXgXgXgXgXgXgXgXgXgXgXgXgXgXgXgXgXgXgXgXgXgXgXgXgXgXgXgXgXgXgXgXgXgXgX",
"gXgXgXgXgXgXz c L ;.;.:.C @XC ) | | } } Y J : = gXgXgXgXgXgXgXgXgXgXgXgXgXgXgXgXgXgXgXgXgXgXgXgXgXgXgXgXgXgXgXgXgXgXgXgXgX",
"gXgXgXgXgXz x L } ;.;.C @X@XC ) | | } ] H 5 gXgXgXgXgXgXgXgXgXgXgXgXgXgXgXgXgXgXgXgXgXgXgXgXgXgXgXgXgXgXgXgXgXgXgXgXgXgXgX",
"gXgXgXgXj x x V V C C @X@X@XC ....3.} ..H c gXgXgXgXgXgXgXgXgXgXgXgXgXgXgXgXgXgXgXgXgXgXgXgXgXgXgXgXgXgXgXgXgXgXgXgXgXgXgX",
"gXgXgXgX> V OXOXOX$X$X%X@X@X@X X3.......n c gXgXgXgXgXgXgXgXgXgXgXgXgXgXgXgXgXgXgXgXgXgXgXgXgXgXgXgXgXgXgXgXgXgXgXgXgXgXgX",
"gXgXgX> 4 N OXOX$X$X6X6X1X>X@X>X:XV V n n c z gXgXgXgXgXgXgXgXgXgXgXgXgXgXgXgXgXgXgXgXgXgXgXgXgXgXgXgXgXgXgXgXgXgXgXgXgXgX",
"gXgXgXv N E.OX:X$X6X6X5X5X<X>X:X:X:X:XoXoXx h gXgXgXgXgXgXgXgXgXgXgXgXgXgXgXgXgXgXgXgXgXgXgXgXgXgXgXgXgXgXgXgXgXgXgXgXgXgX",
"gXgXgXN N E.OX,X$X5X5X5XuX$X<X<X:X=X&XoXoXn h gXgXgXgXgXgXgXgXgXgXgXgXgXgXgXgXgXgXgXgXgXgXgXgXgXgXgXgXgXgXgXgXgXgXgXgXgXgX",
"gXgXgXh b OXOX-X,X$X5X7X X<X,X,X-X-X*XoXXXl h gXgXgXgXgXgXgXgXgXgXgXgXgXgXgXgXgXgXgXgXgXgXgXgXgXgXgXgXgXgXgXgXgXgXgXgXgXgX",
"gXgXgXh h +XOX-X,X,X$X,X,X,X,X,X=X=X&X&X.Xb j # gXgXgXgXgXgXgXgXgXgXgXgXgXgXgXgXgXgXgXgXgXgXgXgXgXgXgXgXgXgXgXgXgXgXgXgXgX",
"gXgXgXgXh k +X+X,X-X,X,X,X,X=X=X*X*X&X&X.Xl j # + gXgXgXgXgXgXgXgXgXgXgXgXgXgXgXgXgXgXgXgXgXgXgXgXgXgXgXgXgXgXgXgXgXgXgXgX",
"gXgXgXgXh k XXXX&X*X=X*X=X=X=X=X=X*X&X;X.Xb v > # + gXgXgXgXgXgXgXgXgXgXgXgXgXgXgXgXgXgXgXgXgXgXgXgXgXgXgXgXgXgXgXgXgXgXgX",
"gXgXgXgXgXk k XXXX&X*X*X=X=X*X*X&X&X&X&X.Xb v 4 @ X gXgXgXgXgXgXgXgXgXgXgXgXgXgXgXgXgXgXgXgXgXgXgXgXgXgXgXgXgXgXgXgXgXgXgX",
"gXgXgXgXgXgXh k l XXXX&X;X*X*X*X&X&X.XoXb v v 4 @ O gXgXgXgXgXgXgXgXgXgXgXgXgXgXgXgXgXgXgXgXgXgXgXgXgXgXgXgXgXgXgXgXgXgXgX",
"gXgXgXgXgXgXgXh h l l l XXXX;X|.|.oXoXn c v 5 2 1 O O gXgXgXgXgXgXgXgXgXgXgXgXgXgXgXgXgXgXgXgXgXgXgXgXgXgXgXgXgXgXgXgXgXgX",
"gXgXgXgXgXgXgXgXgXh k k k l l n b n x z v 5 5 q < & X   gXgXgXgXgXgXgXgXgXgXgXgXgXgXgXgXgXgXgXgXgXgXgXgXgXgXgXgXgXgXgXgXgX",
"gXgXgXgXgXgXgXgXgXgXgXgXj h v v v v z v 5 5 3 < 0.& X   gXgXgXgXgXgXgXgXgXgXgXgXgXgXgXgXgXgXgXgXgXgXgXgXgXgXgXgXgXgXgXgXgX",
"gXgXgXgXgXgXgXgXgXgXgXgX# # v v v 4 = 4 2 q 3 0 < #.X   gXgXgXgXgXgXgXgXgXgXgXgXgXgXgXgXgXgXgXgXgXgXgXgXgXgXgXgXgXgXgXgXgX",
"gXgXgXgXgXgXgXgXgXgXgXgX+ + : 2 : 4 = 6 < 3 1 < & & X   gXgXgXgXgXgXgXgXgXgXgXgXgXgXgXgXgXgXgXgXgXgXgXgXgXgXgXgXgXgXgXgXgX",
"gXgXgXgXgXgXgXgXgXgXgXgXgX+ + ; 6 2 @ = < < & & & o O gXgXgXgXgXgXgXgXgXgXgXgXgXgXgXgXgXgXgXgXgXgXgXgXgXgXgXgXgXgXgXgXgXgX",
"gXgXgXgXgXgXgXgXgXgXgXgXgXgXX O + O o % % < 2 & o O X gXgXgXgXgXgXgXgXgXgXgXgXgXgXgXgXgXgXgXgXgXgXgXgXgXgXgXgXgXgXgXgXgXgX",
"gXgXgXgXgXgXgXgXgXgXgXgXgXgXgXX X o o @ o o o o O X gXgXgXgXgXgXgXgXgXgXgXgXgXgXgXgXgXgXgXgXgXgXgXgXgXgXgXgXgXgXgXgXgXgXgX",
"gXgXgXgXgXgXgXgXgXgXgXgXgXgXgXgXgXgXgXgXo o o o X gXgXgXgXgXgXgXgXgXgXgXgXgXgXgXgXgXgXgXgXgXgXgXgXgXgXgXgXgXgXgXgXgXgXgXgX"
};
