/* XPM */
static char *result[] = {
/* columns rows colors chars-per-pixel */
"59 67 20 1 ",
"  c #181010",
". c #301818",
"X c #202028",
"o c #600000",
"O c #482010",
"+ c #584020",
"@ c gray25",
"# c #686868",
"$ c #A81828",
"% c #885818",
"& c #A07018",
"* c #A06830",
"= c #B08018",
"- c #988048",
"; c #B88858",
": c #C8B058",
"> c #E0C868",
", c #2830C8",
"< c gray69",
"1 c None",
/* pixels */
"11111111111111++++11111111111111111111111111111111111111111",
"111111111111...+++++111111111111111111111111111111111111111",
"11111111111....::+++++1111111111111111111111111111111111111",
"111111111....::->>>++++111111111111111111111111111111111111",
"11111111....%-->>>>>>+++11111111111111111111111111111111111",
"1111..1...=%%::>>>>>>>+++1111111111111111111111111111111111",
"111......===%::>>>>>>>>+++111111111111111111111111111111111",
"11...++.===%%--->>>>>>>>++111111111111111111111111111111111",
"11..+%.&===%=%-::>>>>>>>+++11111111111111111111111111111111",
"11..+.&===%==%-:::>>>>>>>++11111111111111111111111111111111",
"111..&&=======%->:->>>>>>++11111111111111111111111111111111",
"11...&&=========---:>>>>>+++1111111111111111111111111111111",
"11..&&&=====%===%%:::->>::++1111111111111111111111111111111",
"1...&%&===%%=====%->:--:-:++1111111111111111111111111111111",
"...&%%&==%%%====%%%----::..11111111111111111111111111111111",
"...&%&&=%%%====%%===%%%-...11111111111111111111111111111111",
"..-%%&&%%%====%======%%...111111111111111111111111111111111",
"...%&&&%%===========%==..111111111111111OOOOO11111111111111",
"..-%&&%%&=============...1111111111111OOoooooOO111111111111",
"..--&&%&&======%===+....1111111111111Ooo$$$$$ooO11111111111",
"...-&&&&&&===%%===%%%...111111111111Oo$$$$$$$$ooO1   111111",
"1...-&%%&&&&%%===+%%%+...    1    11Oo$$$$$$$$<oo     11111",
"1...--%%&&%%%&&&&.%%%%+...@@@ @@@@  o$$$$$$$$$$<o     11111",
"11...--&&%%%&&&&....%==+...#@@@###@@@$$$$$$$$$$<<     11111",
"111....--&&&&&.......%==+...<<##<<<#@@$$$$$$$$$$<    111111",
"1111....--.--....11...%==+.@<<<#<<<<#@$$$$$$$$$$$    111111",
"11111...........1111...%==+@<<<<<<<<<@@$$$$$$$$$o   1111111",
"1111111.......1111111...%=@@<<<<<<#<<<@$$$$$$$$$   11111111",
"11111111111111111111 @...@@@<<<<#<<#<<@@$$$$$$$o        111",
"11111111111111111111 @#<<@<<<<<<<#<<<<<oo$$$$$$  OOOOOOO 11",
"11111111111111111111 @#<<@<<<<<<<<<<<<$$oo$$$$o O;OO*;;OO 1",
"11111111111111111111 @@###@<<<<<<<<<<$$$$oo$$o OO;;O;;;;OO ",
"111111111111111111111 @@###@@#<<<<<$$$$$$$ooo OOO;;;O;;;OO ",
"1111111111111111111111 @@@@oo@@@@@$$$$$$$$$ooO;;;O;;*O;;OO ",
"11111111111111111111111  @@ooooooooo$$$$$$$$o*;;;;OO;  *OO ",
"1111111111111111111111111  oooOo$$$oo$$$$$$$oo;;;;OO;   OO ",
"111111111111111111111111111OOoOOo$$$oo$$$$$$$o*;;;OO;   O 1",
"11111111111111111111111111111OoOooooooo$$$$$$$o;;;O;;    11",
"111111111111111111111111111111OOOOOOOOOo$$$$$$oo;*O;;   111",
"1111111111111111111111111111111 O;OOOOOOo$$$$$$o*O;;*O 1111",
"1111111111111111111111111111111 OOOOOOOOOo$$$$$oo;;;OO 1111",
"1111111111111111111111111111111 OOOOOOOOOOo$$$$$o**OO 11111",
"11111111111111111111111111111111  OOOOOOOOOo$$$$$oOO 111111",
"1111111111111111111111111111111111OOOOOOOOOOo$$$$o  1111111",
"1111111111111111111111111111111111OOOOOX$OOOOo$$$$oX1111111",
"11111111111111111111111111111111111OoooX$$XX,Xo$$$o$X111111",
"111111111111111111111111111111111111OoXX$$X,,X$$$$$$X111111",
"1111111111111111111111111111111111111OXX$X,,,X$$$$$$XX11111",
"1111111111111111111111111111111111111XXXX,,,,,X$$$$XXX11111",
"1111111111111111111111111111111111111XX,,,,,,,,XXXX,XX11111",
"1111111111111111111111111111111111111XX,,,,,,,,,,,,,,XX1111",
"1111111111111111111111111111111111111XX,,,,,,,,,,,,,,XX1111",
"1111111111111111111111111111111111111XX,,,,,,,,,,,,,,XX1111",
"11111111111111111111111111111111111   X,,,,,,,,,,,,,,XX1111",
"1111111111111111111111111111111111     ,    ,,,,,,,,,XX1111",
"1111111111111111111111111111111111  OOO  *OO ,,,,,,,XX11111",
"1111111111111111111111111111111111  OOO OO*OO ,,,,,XXX11111",
"1111111111111111111111111111111111  OOO OO*OO ,,,XXXX111111",
"111111111111111111111111111111111     O   OOO  XXXXX1111111",
"111111111111111111111111111111111  OOO OOOOOO  XXX111111111",
"11111111111111111111111111111111  OOO OOOOO*OO  11111111111",
"11111111111111111111111111111111  OOO OOOOO*OO  11111111111",
"11111111111111111111111111111111  OOO OOOOO*OO  11111111111",
"11111111111111111111111111111111   OO OOOO*OOO  11111111111",
"111111111111111111111111111111111      OOOOOO   11111111111",
"1111111111111111111111111111111111             111111111111",
"111111111111111111111111111111111111111       1111111111111"
};
