/* XPM */
static char *result[] = {
/* columns rows colors chars-per-pixel */
"54 45 212 2 ",
"   c #291817",
".  c #341D1B",
"X  c #3B1A1B",
"o  c #36221E",
"O  c #3A2323",
"+  c #392526",
"@  c #372535",
"#  c #29223B",
"$  c #481D1E",
"%  c #7B2A1C",
"&  c #74291B",
"*  c #6F2819",
"=  c #442C24",
"-  c #4B2723",
";  c #522D24",
":  c #5B2724",
">  c #46332A",
",  c #543429",
"<  c #472A36",
"1  c #553E36",
"2  c #683828",
"3  c #7C3C24",
"4  c #7D3D2B",
"5  c #733B2A",
"6  c #693836",
"7  c #783D36",
"8  c #742D24",
"9  c #4C1E20",
"0  c #544536",
"q  c #694528",
"w  c #774827",
"e  c #785428",
"r  c #664A39",
"t  c #7C4634",
"y  c #6A533A",
"u  c #765638",
"i  c #75693F",
"p  c #2C2543",
"a  c #33345B",
"s  c #392A4A",
"d  c #383867",
"f  c #393B72",
"g  c #3C3E7C",
"h  c #4A3556",
"j  c #523859",
"k  c #683B48",
"l  c #6A3D58",
"z  c #733E46",
"x  c #463C6E",
"c  c #6D3F72",
"v  c #3D417E",
"b  c #7A4346",
"n  c #765749",
"m  c #6A4D4E",
"M  c #7C6945",
"N  c #757357",
"B  c #7F724A",
"V  c #584476",
"C  c #664369",
"Z  c #6D4972",
"A  c #930C0F",
"S  c #940E12",
"D  c #9B0E12",
"F  c #9A1415",
"G  c #8D0E10",
"H  c #A41116",
"J  c #A91918",
"K  c #B8181D",
"L  c #8F261A",
"P  c #A92319",
"I  c #8B2E21",
"U  c #922F23",
"Y  c #843C25",
"T  c #8C3D26",
"R  c #863B2A",
"E  c #943A27",
"W  c #8D2F36",
"Q  c #AB3635",
"!  c #C41E22",
"~  c #CB293B",
"^  c #CD273B",
"/  c #D22B3D",
"(  c #D1273C",
")  c #DA3B36",
"_  c #D4313A",
"`  c #D9323C",
"'  c #DD3A3A",
"]  c #D53C35",
"[  c #CD3339",
"{  c #E23B3D",
"}  c #874528",
"|  c #954B2B",
" . c #83592C",
".. c #975B2B",
"X. c #874735",
"o. c #8A5639",
"O. c #965C36",
"+. c #A5592D",
"@. c #AE5334",
"#. c #8B6B2A",
"$. c #9A662D",
"%. c #8E752B",
"&. c #92792D",
"*. c #96772D",
"=. c #846636",
"-. c #9D6733",
";. c #947935",
":. c #A56635",
">. c #AA763A",
",. c #A1602D",
"<. c #DC433C",
"1. c #D9463D",
"2. c #E0403E",
"3. c #94264D",
"4. c #9B2B5D",
"5. c #E43D40",
"6. c #835544",
"7. c #8C7958",
"8. c #8F7E62",
"9. c #D94C4A",
"0. c #D7484E",
"q. c #DA524C",
"w. c #D54755",
"e. c #D85854",
"r. c #C64457",
"t. c #D9665D",
"y. c #C84567",
"u. c #D14565",
"i. c #CE4773",
"p. c #9C8333",
"a. c #9F832E",
"s. c #A28935",
"d. c #A7913D",
"f. c #CCA326",
"g. c #CEA629",
"h. c #D3AC2A",
"j. c #D0A827",
"k. c #D9B52D",
"l. c #DEBB2C",
"z. c #D7B12C",
"x. c #D9B532",
"c. c #DDBB31",
"v. c #D4B038",
"b. c #D2AD33",
"n. c #E1BC2D",
"m. c #E2BF31",
"M. c #E4C32D",
"N. c #E8C72F",
"B. c #E9CA2F",
"V. c #E4C432",
"C. c #EBCC31",
"Z. c #EACE3B",
"A. c #E6C93A",
"S. c #EED036",
"D. c #EED23B",
"F. c #A38D48",
"G. c #A89046",
"H. c #99977A",
"J. c #91896A",
"K. c #B9987C",
"L. c #D49B4E",
"P. c #CD9A49",
"I. c #D6A55C",
"U. c #D4AC63",
"Y. c #DDB56C",
"T. c #D9B369",
"R. c #DEBA70",
"E. c #DDB770",
"W. c #E0B56D",
"Q. c #E1BB71",
"!. c #E1B770",
"~. c #ECD141",
"^. c #E2CF5D",
"/. c #E5D363",
"(. c #E5D36B",
"). c #F2E47B",
"_. c #F5E87E",
"`. c #F1E377",
"'. c #3C3F83",
"]. c #673F80",
"[. c #3E4287",
"{. c #474487",
"}. c #65478D",
"|. c #494DDE",
" X c #544EDC",
".X c #5850DF",
"XX c #6750DB",
"oX c #6B50DA",
"OX c #454EE1",
"+X c #4B4FE1",
"@X c #4651E5",
"#X c #4A52E5",
"$X c #4B55EB",
"%X c #4C58EF",
"&X c #5352E4",
"*X c #5B52E4",
"=X c #5456EC",
"-X c #5B55E9",
";X c #5258EF",
":X c #4D58F1",
">X c #5059F1",
",X c #504FE1",
"<X c #6252E4",
"1X c #644FE0",
"2X c #B1A58B",
"3X c #A3A185",
"4X c #F6EA80",
"5X c #D5D1BC",
"6X c #DAD1BE",
"7X c #D9CDBB",
"8X c #DAD4C0",
"9X c None",
/* pixels */
"9X9X9X9X9X9X9X9X9X9X9X9X9X9X9X9XU U U U I 9X9X9X9X9X9X9X9X9X9X9X9X9X9X9X9X9X9X9X9X9X9X9X9X9X9X9X9X9X9X9X9X9X",
"9X9X9X9X9X9X9X9X9X9X9X9X9X9XI U H J H H D I 9X9X9X9X9X9X9X9X9X9X9X9X9X9X9X9X9X9X9X9X9X9X9X9X9X9X9X9X9X9X9X9X",
"9X9X9X9X9X9X9X9X9X9X9X9XI D H J / ( / ( H D % 9X9X9X9X9X9X9X9X9X9X9X9X9X9X9X9X9X9X9X9X9X9X9X9X9X9X9X9X9X9X9X",
"9X9X9X9X9X9X9X9X9X9X9X% S D ( / ` ` ` ` ~ H S % 9X9X9X9X9X9X9X9X9X9X9X9X9X9X9X9X9X9X9X9X9X9X9X9X9X9X9X9X9X9X",
"9X9X9X9X9X9X9X9X9X9X% D H ( ( ` ' ' ' ' / ^ D % 9X9X9X9X9X9X9X9X9X9X9X9X9X9X9X9X9X9X9X9X9X9X9X9X9X9X9X9X9X9X",
"9X9X9X9X9X9X9X9X9X% A D ( ( ` ) ' { { ` ` ( D S % 9X9X9X9X9X9X9X9X9X9X9X9X9X9X9X9X9X9X9X9X9X9X9X9X9X9X9X9X9X",
"9X9X9X9X9X9X9X9X% A D ^ ( ` ) { 5.{ { { ' _ ^ F % 9X9X9X9X9X9X9X9X9X9X9X9X9X9X9X9X9X9X9X9X9X9X9X9X9X9X9X9X9X",
"9X9X9X9X9X9X9X% A D ^ ( ` { { { { { { { ' ) / F % 9X9X9X9X9X9X9X9X9X9X9X9X9X9X9X9X9X9X9X9X9X9X9X9X9X9X9X9X9X",
"9X9X9X9X9X9X% A D H ( ( { { { { { 5.{ { ' ) [ ~ S 9 X     9X9X9X9X9X9X9X9X9X9X9X9X9X9X9X9X9X9X9X9X9X9X9X9X9X",
"9X9X9X9X* & A D H J K ! { { { { 5.5.5.5.' ' ~ ~ G 9 X .     9X9X9X9X9X9X9X9X9X9X9X9X9X9X9X9X9X9X9X9X9X9X9X9X",
"9X9X9X* A A A ^ ( ( ` ` ! ! { { 5.{ { ' ' ' [ ~ S 9 X .     9X9X9X9X9X9X9X9X9X9X9X9X9X9X9X9X9X9X9X9X9X9X9X9X",
"9X9X9X% A A ^ / ( ` { { { { { { 5.2.2.{ <.] [ ~ : - $ .   9X9X9X9X9X9X9X9X9X9X9X9X9X9X9X9X9X9X9X9X9X9X9X9X9X",
"9X9X9X% F [ ^ / ` ) { { { ) { <.2.' 9.' ] 1.] 8 : - = o 9X9X9X9X9X9X9X9X9X9X9X9X9X9X9X9X9X9X9X9X9X9X9X9X9X9X",
"9X9X9XY F [ _ ) ) ) ) ) { { { <.9.' <.<.1.R 5 6 : ; 9X9X9X9X9X9X9X9X9X9X9X9X9X9X9X9X9X9X9X9X9X9X9X9X9X9X9X9X",
"9X9 : F F [ ] ] ) ) ) { ) { <.<.<.9.| R X.t 7 2 6 , ; 9X9X9X9X9X9X9X9X9X9X9X9X9X9X9X9X9X9X9X9X9X9X9X9X9X9X9X",
"; 3 Y F F P ] ] ) ) ) ) ) { <.T | X.+.@.+.+..... .} w ; + 9X9X9X9X9X9X9X9X9X9X9X9X9X9X9X9X9X9X9X9X9X9X9X9X9X",
"; 3 } I.} J P P P J P J P P P +.+.+.:.W.Y.:.$.$.$.P.U.w 2 = 9X9X9X9X9X9X9X9X9X9X9X9X9X9X9X9X9X9X9X9X9X9X9X9X",
"; } I.I.T T T T E E E E E E | ..+.+.W.W.W.R.:.:.P.U.U.U.w o 9X9X9X9X9X9X9X9X9X9X9X9X9X9X9X9X9X9X9X9X9X9X9X9X",
"; } L.I.} T } E T T T E | E | ..,.W.W.!.Q.R.>.R.-.T.T.U.w = 9X9X9X9X9X9X9X9X9X9X9X9X9X9X9X9X9X9X9X9X9X9X9X9X",
"9X; w I.} Y Y Y Y T Y T T } | ..,.W.!.!.Q.R.>.R.;.T.U.U.w > 9X9X9X9X9X9X9X%.%.%.&.&.9X9X9X9X9X9X9X9X9X9X9X9X",
"9X; w 3 Y 3 Y Y Y Y Y R R X.} ..,.L.R.Q.Q.Q.>.R.u u T.U.w = 9X9X9X9X9X, q e *.p.a.s.s.p.9X9X9X9X9X9X9X9X9X9X",
"9X> w 3 3 3 3 R Y 3 4 4 X.R X...$.>.!.Q.Q.>.Q.R.u y U.t w = 9X9X9X2 q e g.j.h.h.c.).`.`.).d.9X9X9X9X9X9X9X9X",
"9X= 2 3 5 5 4 4 7 R 7 R X.t X.@...:.>.>.>.R.R.Y.u r  .w w > 9X9Xq q e g.j.z.k.m.V.`.)._._.).).d.9X9X9X9X9X9X",
"9X9X- 2 5 5 7 7 X.t z b b X.O.6.,.L.L.!.Q.!.E.n y r t w > 9X9Xq q e g.j.z.k.V.V.A.A._._._._.).).).9X9X9X9X9X",
"9X9X9X< < 7 7 W r.6.z z C C n 6.6.L.L.W.!.L.:.o.y X.0 1 9X9X9Xq e f.h.h.k.m.N.B.C.Z.Z.~.4X4X4X_.).).d.9X9X9X",
"9X9X9X9Xh j W r.r.u.C C oXoXoXm Q Q +.+.:.:.:.7.7.r 9X9X9X9Xr e f.h.h.n.m.N.N.C.Z.Z.D.D.~.4X4X4X).).`.s.9X9X",
"9X9X9Xh x 3.y.y.V V .X1XXXoXC w.9.q.@.[ K.2X8.8.y r r r 9X9Xe o.g.h.x.n.N.N.B.C.S.S.D.D.~.~.~._._.).`.;.s.9X",
"9X9Xd x x .Xx {..X*X*X1XXXZ w.w.0.9.2.q.Q Q @.6.J.8.8.N y u u #.h.z.k.n.N.N.C.C.S.C.S.D.D.D.D.Z.Z.A.V.c.%.9X",
"9Xd g x |.+X&X&X-X-X*X<X1X}.i.u.w.0.0.9.q.e.@.2X2X5X5XJ.n =.%.b.h.x.l.n.B.B.C.C.C.C.S.S.S.S.S.Z.A.A.A.m.*.9X",
"9Xf '.+X+X+X&X=X=X=X=X-X<X}.i.i.w.w.0.9.q.t.t.6X5X5X5XJ.i F.;.v.x.l.n.m.B.B.C.C.B.S.S.C.S.S.S.C.N.V.M.c.*.#.",
"f x [.@X+X=X$X=X>X=X-X-X<X}.4.i.u.w.0.0.q.e.t.6X6X8X5XH.B G.(.v.x.x.n.M.B.B.C.C.C.C.C.C.S.B.C.N.N.V.V.l.$.#.",
"'.[.+X@X$X$X$X%X>X>X>X;X;X<X}.c 4.4.Q w.e.t.t.6X6X8X5X2XH.B G.P.x.k.l.M.N.B.C.C.C.C.C.C.B.C.C.N.V.M.l.l.#. .",
"[.{.@X@X%X$X:X:X:X:X:X:X:X-X<X<X].c 3.Q Q e.7X6X8X8X8X5XJ.B F.d.(.x.c.c.V.N.N.C.C.C.B.B.B.B.B.M.M.l.l.#. .9X",
"v [.@X$X@X%X%X:X:X:X:X:X;X=X-X<X1X1Xc l z m M 6.6X6X8X5X5Xi 9Xd./.(.x.c.c.m.N.N.C.C.B.B.B.B.M.M.l.l.z. .e 9X",
"v [.@X@X$X$X%X:X:X:X:X:X;X=X=X*X*X1Xc k 6.o.6.n n 3X5X5X3XM 9Xs.p./.(.l.c.c.m.N.V.B.B.V.M.M.n.l.z.j. .e q 9X",
"d v [.@X@X$X@X:X%X%X:X:X;X%X=X-X*X.Xh z 6.X.O.o.m 0 3XH.N 0 9X9Xp.p././.x.x.c.c.l.c.M.M.M.l.z.h.j.e w q 9X9X",
"9Xf g OX@X@X@X$X$X$X%X%X%X=X&X&X*X.Xj z b t t u 0 0 N N 0 9X9X9X9Xp.p.s././.z.x.k.k.k.k.z.h.h.f.e q q 9X9X9X",
"9Xd f g OXOXOXOX@X$X$X$X$X#X#X#X*Xx h z 6 5 5 5 > @ + > 9X9X9X9X9X9X%.&.p.a././.z.z.z.h.j.j.f.e q q 9X9X9X9X",
"9X9Xd d f g OXOX@X@X@X#X#X#X&X#X,Xl m < 6 5 2 2 + + 9X9X9X9X9X9X9X9X9X9X%.&.*.a.a.^.^.a.^.e e q 9X9X9X9X9X9X",
"9X9X9Xa a d f g '.OXOX+X@X+X|. Xl k k 6 6 2 2 o o 9X9X9X9X9X9X9X9X9X9X9X9X9X9X&.&.&.&.%.%.#.9X9X9X9X9X9X9X9X",
"9X9X9X9Xp a d d f g g '.g |.|.l k k 6 6 2 : o o . 9X9X9X9X9X9X9X9X9X9X9X9X9X9X9X9X9X9X9X9X9X9X9X9X9X9X9X9X9X",
"9X9X9X9X9X# p a a d f f f x s k k 6 6 2 = X . . 9X9X9X9X9X9X9X9X9X9X9X9X9X9X9X9X9X9X9X9X9X9X9X9X9X9X9X9X9X9X",
"9X9X9X9X9X9X9X# p p p 9X9Xs s s 6 6 2 + O . 9X9X9X9X9X9X9X9X9X9X9X9X9X9X9X9X9X9X9X9X9X9X9X9X9X9X9X9X9X9X9X9X",
"9X9X9X9X9X9X9X9X9X9X9X9X9X9X@ @ @ @ + O . 9X9X9X9X9X9X9X9X9X9X9X9X9X9X9X9X9X9X9X9X9X9X9X9X9X9X9X9X9X9X9X9X9X",
"9X9X9X9X9X9X9X9X9X9X9X9X9X9X9X@ + + O 9X9X9X9X9X9X9X9X9X9X9X9X9X9X9X9X9X9X9X9X9X9X9X9X9X9X9X9X9X9X9X9X9X9X9X"
};
