/* XPM */
static char *result[] = {
/* columns rows colors chars-per-pixel */
"48 48 13 1 ",
"  c #181010",
". c #202028",
"X c #600000",
"o c #482010",
"O c gray25",
"+ c #686868",
"@ c #A81828",
"# c #A06830",
"$ c #C09830",
"% c #B88858",
"& c #2830C8",
"* c gray69",
"= c None",
/* pixels */
"================================================",
"======================ooooooo===================",
"====================oooXXXXooo==================",
"===================ooXX@@@@XXoo=================",
"==================ooX@@@@@@@@Xo=================",
"=================ooX@@@@****@Xoo================",
"=================oX@@@@**X*X*@Xo================",
"================oX@@@@@**XXX*@Xo================",
"===============ooX@@@@@**XXX*X      ============",
"===============oX@@@@@@@**           ===========",
"===============oX@@@@@@@            O===========",
"==============oX@@@@@@X      # ***OOOO==========",
"==============oX@@@@@     %%%% *****OO==========",
"===========oooX@@@@@   %%%%%%o ******OO=========",
"==========ooXXX@@@@  #%%  %%%  oooo**OO=========",
"==========oX@@X@@X  %%%%  %%%o#%%#oo*OO=========",
"=========oX@@@@@X o%%%%%  %%%%%%%%#o OO=========",
"=========oX@@@@X o%%%%%%  %%%%%%%%%o O==========",
"=========oX@@@X o%%%%%%%oo%%%%%%%%%o O==========",
"=========ooXX  oo%%%%%%%%%%%%%%%%%#o ===========",
"========= o%%%%oooo%%%  %%%%%%%%%#o ============",
"======== o%%%%%%ooo%%     o#%%%#oo =============",
"======== o%%oo%%oo%%%             ==============",
"======== o%%%o%%%%%%%%o         Xo==============",
"========  o%%%%%%%%%%%%        XXo==============",
"=========  o%%%%%%%%%%%%%     @Xo===============",
"==========  ooo%%%%%%%%%%%  %o@Xo===============",
"============   ooo%%%%%%%o  %o@Xo===============",
"=============oooXXooo%%%%  %o@Xo================",
"===========ooXX@@@@.&oo%%  %o@Xo================",
"==========ooX@@@XXOOOO&o%%%oX.Xo================",
"==========oX@@@@@O***OO&ooooX..=================",
"==========oX@@@@@****OOO&......o     ===========",
"==========oX@@@@@*****+OO&&&&&$o      ==========",
"==========oX@@@@@*******O$&&&&$.ooooo  =========",
"=========  oX@@@***+****O$$&&&.ooooooo  ========",
"=========  ooXX@****+**+O$$&&&.oooooo#  ========",
"========  ooooo***+****OO$&&&&.ooooo#o  ========",
"========  ooo.O+***+**OO&&&&&&.ooooooo  ========",
"========  o   &OO+***OO&&&&&&.. ooooo  =========",
"=======  oo oo.&&OOOOO&&&&&&&.oo   #o  =========",
"=======  ooooo.&&&&&&&&&&&&&&ooooooo  ==========",
"=======  oooooo.&&&&&&&&&....ooooooo  ==========",
"=======  ooooooo............. oooo#o  ==========",
"========  oooooo ........===   oooo  ===========",
"=========  oooo   ===========       ============",
"==========       ==============    =============",
"===========     ================================"
};
