/* XPM */
static char *result[] = {
/* columns rows colors chars-per-pixel */
"48 51 224 2 ",
"   c #290C0B",
".  c #380D0E",
"X  c #2E110D",
"o  c #3B1B0F",
"O  c #33140E",
"+  c #2E1217",
"@  c #3B1C11",
"#  c #341A17",
"$  c #3D2314",
"%  c #3E241B",
"&  c #361B25",
"*  c #301935",
"=  c #3B2A29",
"-  c #3C2733",
";  c #441E11",
":  c #461412",
">  c #541812",
",  c #4C130F",
"<  c #442412",
"1  c #4C2912",
"2  c #472817",
"3  c #572C16",
"4  c #54331E",
"5  c #4F301E",
"6  c #7C3308",
"7  c #783609",
"8  c #6B3E18",
"9  c #6D2B15",
"0  c #442B25",
"q  c #443028",
"w  c #4E3431",
"e  c #6D3F24",
"r  c #7B440D",
"t  c #79460C",
"y  c #744A13",
"u  c #7B4D15",
"i  c #774419",
"p  c #754B14",
"a  c #694827",
"s  c #764928",
"d  c #79572B",
"f  c #6D4637",
"g  c #765130",
"h  c #54443D",
"j  c #3E2C54",
"k  c #2C2975",
"l  c #352D77",
"z  c #332C6B",
"x  c #4E354E",
"c  c #533D76",
"v  c #603A4E",
"b  c #57465B",
"n  c #764B48",
"m  c #7C5349",
"M  c #725053",
"N  c #6F725D",
"B  c #62665F",
"V  c #715268",
"C  c #676965",
"Z  c #7B7C67",
"A  c #9B1D0B",
"S  c #961E0B",
"D  c #A41E0D",
"F  c #AB1F0E",
"G  c #AE1F10",
"H  c #9D240E",
"J  c #84330A",
"K  c #8C340B",
"L  c #99360D",
"P  c #82351E",
"I  c #A8210E",
"U  c #A82611",
"Y  c #B42111",
"T  c #B92013",
"R  c #B93918",
"E  c #AB3214",
"W  c #90352D",
"Q  c #A63829",
"!  c #AC3B33",
"~  c #C72319",
"^  c #C43D19",
"/  c #D1261E",
"(  c #DB2E2F",
")  c #DD2F31",
"_  c #DD3333",
"`  c #DC3B34",
"'  c #D9332F",
"]  c #E23235",
"[  c #E43C37",
"{  c #E63439",
"}  c #E9343C",
"|  c #E53B3A",
" . c #E93A3D",
".. c #854B0F",
"X. c #824C18",
"o. c #875218",
"O. c #98521B",
"+. c #99641C",
"@. c #A46D1B",
"#. c #AD6F1E",
"$. c #AB721D",
"%. c #A7701F",
"&. c #B5761F",
"*. c #984829",
"=. c #885624",
"-. c #995826",
";. c #815936",
":. c #935031",
">. c #A55635",
",. c #A74932",
"<. c #966B31",
"1. c #A76C23",
"2. c #AE7523",
"3. c #AC752C",
"4. c #BD7A23",
"5. c #B97627",
"6. c #A57531",
"7. c #AB7834",
"8. c #BC7B31",
"9. c #B36328",
"0. c #C84624",
"q. c #E5443B",
"w. c #E5463B",
"e. c #C47D24",
"r. c #CB7C25",
"t. c #C77A27",
"y. c #C37F33",
"u. c #D07E2F",
"i. c #C5431D",
"p. c #8B324A",
"a. c #8E5746",
"s. c #AD5548",
"d. c #8A6952",
"f. c #BF7C43",
"g. c #DB4A58",
"h. c #DB474E",
"j. c #C27E42",
"k. c #DA4968",
"l. c #DE5668",
"z. c #D84778",
"x. c #DE5979",
"c. c #E06C79",
"v. c #E15C56",
"b. c #7C806B",
"n. c #BF8D3B",
"m. c #CC852C",
"M. c #C78429",
"N. c #C4823B",
"B. c #C68A36",
"V. c #D08835",
"C. c #CC953D",
"Z. c #CB9237",
"A. c #D09338",
"S. c #BE8C40",
"D. c #888876",
"F. c #CB9745",
"G. c #C79757",
"H. c #D9AB67",
"J. c #DAB26E",
"K. c #D7B06B",
"L. c #DDB572",
"P. c #DEB975",
"I. c #E2BA76",
"U. c #E5BE7A",
"Y. c #E6B977",
"T. c #EABF6B",
"R. c #D5A25E",
"E. c #E6C17C",
"W. c #302E87",
"Q. c #38338A",
"!. c #2F2D88",
"~. c #4C3D8E",
"^. c #4D4392",
"/. c #4F4483",
"(. c #7B79B3",
"). c #3D3AEE",
"_. c #3F3CF0",
"`. c #423DEE",
"'. c #433EF2",
"]. c #4F3FF4",
"[. c #533EF2",
"{. c #553EEE",
"}. c #7C79C9",
"|. c #4A45EC",
" X c #534BEE",
".X c #5543ED",
"XX c #5953EB",
"oX c #4642F5",
"OX c #4B44F4",
"+X c #4E4BF4",
"@X c #4A45F8",
"#X c #4A48F8",
"$X c #5447F5",
"%X c #5957F5",
"&X c #6B49EC",
"*X c #7949EC",
"=X c #6646F2",
"-X c #675AF6",
";X c #7256ED",
":X c #6F69EF",
">X c #CC399C",
",X c #8E75B0",
"<X c #D94D88",
"1X c #DE648B",
"2X c #8653E8",
"3X c #834FEA",
"4X c #877AC1",
"5X c #8F9190",
"6X c #9386A4",
"7X c #B4ADB3",
"8X c #A8A1CE",
"9X c #CBC8C9",
"0X c #C6C4CD",
"qX c #D7D4CD",
"wX c #DAD6D3",
"eX c #DCD6DB",
"rX c #DCD8DB",
"tX c #D6D4D5",
"yX c #C6C3D1",
"uX c #E2D8D8",
"iX c #DAD6E3",
"pX c #D7D4E5",
"aX c #D7CEE1",
"sX c None",
/* pixels */
"sXsXsXsXsXsXsXsXsXsXsXsXsXsXsXsXsXsXsXsXsXsXsXL L L L L K sXsXsXsXsXsXsXsXsXsXsXsXsXsXsXsXsXsXsX",
"sXsXsXsXsXsXsXsXsXsXsXsXsXsXsXsXsXsXsXsXsXK L G Y T Y Y I K sXsXsXsXsXsXsXsXsXsXsXsXsXsXsXsXsXsX",
"sXsXsXsXsXsXsXsXsXsXsXsXsXsXsXsXsXsXsXsXJ D G T ] ] ) ) Y D K sXsXsXsXsXsXsXsXsXsXsXsXsXsXsXsXsX",
"sXsXsXsXsXsXsXsXsXsXsXsXsXsXsXsXsXsXsXJ D G ( ] ] ] ] ] ) F D J sXsXsXsXsXsXsXsXsXsXsXsXsXsXsXsX",
"sXsXsXsXsXsXsXsXsXsXsXsXsXsXsXsXsXsX6 D D ) ] ] { { } ) _ ) F J sXsXsXsXsXsXsXsXsXsXsXsXsXsXsXsX",
"sXsXsXsXsXsXsXsXsXsXsXsXsXsXsXsXsXsXJ D ) ) ] { { { { { ] ) ( D 6 sXsXsXsXsXsXsXsXsXsXsXsXsXsXsX",
"sXsXsXsXsXsXsXsXsXsXsXsXsXsXsXsXsX6 D F ) ] { } { } } { { ) ) D A , . X   sXsXsXsXsXsXsXsXsXsXsX",
"sXsXsXsXsXsXsXsXsXsXsXsXsXsXsXsX6 S D ) ] ] { } } } } } { ] ) D A , :       sXsXsXsXsXsXsXsXsXsX",
"sXsXsXsXsXsXsXsXsXsXsXsXsXsXsXsXJ D ( ) ] } } } } } } } } } _ _ D , , .     sXsXsXsXsXsXsXsXsXsX",
"sXsXsXsXsXsXsXsXsXsXsXsXsXsXsXsXK Y ( ] { } } } } } } } } } _ _ D 9 , .   sXsXsXsXsXsXsXsXsXsXsX",
"sXsXsXsXsXsXsXsXsXsXsXsXsXsX6 K L G ( ] } } } } } } } } } _ _ ` 9 > : : sXsXsXsXsXsXsXsXsXsXsXsX",
"sXsXsXsXsXsXsXsXsXsXsXsXsX6 A D G T ~ ~ / { } } } }  . . .| { e e 3 sXsXsXsXsXsXsXsXsXsXsXsXsXsX",
"sXsXsXsXsXsXsXsXsXsXsXsX6 S D ' ( ] ] ] } / / }  . . .q.| ` W X.i i 4 5 2 sXsXsXsXsXsXsXsXsXsXsX",
"sXsXsXsXsXsXsXsXsXsXsX9 S I ' _ ] ] ] } } } }  . . .q.w.h.*.*.t.O.o.o.u p 2 sXsXsXsXsXsXsXsXsXsX",
"sXsXsXsXsXsXsXsXsXsXsX7 H ' ` _ { { } } }  . . .q.q.w.w.,.:.y.8.M.=.K.K.u p $ sXsXsXsXsXsXsXsXsX",
"sXsXsXsXsXsXsXsXsXsXsX7 H ' ` ` [ [ [ [  .q.w.w.w.h.i.>.9.9.9.N.B.P.P.J.K.u 5 sXsXsXsXsXsXsXsXsX",
"sXsXsXsXsXsXsXsXsXsXsX3 H ' ` [ [ [ [ q.[ q.q.w.i.0.0.V.Y.Y.Y.8.n.P.J.J.J.u $ sXsXsXsXsXsXsXsXsX",
"sXsXsXsXsXsXsXsXsXsX; J H.E R ` w.w.w.w.q.^ ^ ^ u.V.V.Y.Y.Y.U.U.<.n.P.J.J.u 5 sXsXsXsXsXsXsXsXsX",
"sXsXsXsXsXsXsXsXsXsX; r H.R.t.R ^ ^ ^ ^ ^ r.r.r.m.V.A.T.E.E.E.E.n.n.d K.K.p $ sXsXsXsXsXsXsXsXsX",
"sXsXsXsXsXsXsXsXsXsX; ..H.H.5.t.r.r.r.r.r.r.m.M.V.V.A.T.E.E.E.E.n.n.d d K.y $ sXsXsXsXsXsXsXsXsX",
"sXsXsXsXsXsXsXsXsXsX@ t ..R.4.e.4.r.e.r.r.M.M.M.m.Z.C.U.E.E.E.E.6.P.d a y y $ sXsXsXsXsXsXsXsXsX",
"sXsXsXsXsXsXsXsXsXsXsX< r ....4.&.4.e.e.e.M.M.M.m.V.A.C.E.E.U.7.P.P.a 4 y $ sXsXsXsXsXsXsXsXsXsX",
"sXsXsXsXsXsXsXsXsXsXsXsX1 ..O.&.4.4.r.e.e.M.M.M.Z.B.Z.C.C.7.6.P.P.a 4 2 $ sXsXsXsXsXsXsXsXsXsXsX",
"sXsXsXsXsXsXsXsXsXsXsXsXsX1 ....&.4.4.e.e.M.M.M.B.B.Z.I.I.I.I.L.=.o.5 sXsXsXsXsXsXsXsXsXsXsXsXsX",
"sXsXsXsXsXsXsXsXsXsXsXsXsX2 t #.2.5.8.y.8.8.8.y.B.N.N.B.Y.I.L.=.o.5 sXsXsXsXsXsXsXsXsXsXsXsXsXsX",
"sXsXsXsXsXsXsXsXsXsXsXsXsX< t #.9.3.8.,.>.>.f.f.j.y.N.N.L.-.-.o.4 sXsXsXsXsXsXsXsXsXsXsXsXsXsXsX",
"sXsXsXsXsXsXsXsXsXsXsXsXsX@ 8 P X.:.:.:.g.g.a.s.s.>.>.>.-.*.e 3 sXsXsXsXsXsXsXsXsXsXsXsXsXsXsXsX",
"sXsXsXsXsXsXsXsXsXsXsXsXsXsX2 s W W b k.k.z.3X3X2X2Xg.g.! Q M sXsXsXsXsXsXsXsXsXsXsXsXsXsXsXsXsX",
"sXsXsXsXsXsXsXsXsXsXsXsXsXsXsXe W c *Xz.z.<X3X*X3Xk.g.h.h.Q Q v sXsXsXsXsXsXsXsXsXsXsXsXsXsXsXsX",
"sXsXsXsXsXsXsXsXsXsXsXsXsXsXf W p.c {.&X>X=X&X*X3Xz.k.k.h.! Q M x sXsXsXsXsXsXsXsXsXsXsXsXsXsXsX",
"sXsXsXsXsXsXsXsXsXsXsXsXsXsXf p.c ~.{.{.>X=X=X*X3X<Xx.l.l.g.! Q b x sXsXsXsXsXsXsXsXsXsXsXsXsXsX",
"sXsXsXsXsXsXsXsXsXsXsXsXsXw V p.~.{.{.{.[.[.=X=X;X<X<Xx.l.l.s.,.V b sXsXsXsXsXsXsXsXsXsXsXsXsXsX",
"sXsXsXsXsXsXsXsXsXsXsXsX- C 0X/.~.OXOX[.].$X$X=X;X,X1X1X1Xc.c.s.>.C b sXsXsXsXsXsXsXsXsXsXsXsXsX",
"sXsXsXsXsXsXsXsXsXsXsX= C 9X0X^..X$XOXOX].$X$X=X-X,X,XuXuXuXwXuXwXD.M sXsXsXsXsXsXsXsXsXsXsXsXsX",
"sXsXsXsXsXsXsXsXsXsXsX= B 9XyX^. XOXOX@X].@X$X-X;X4XiXuXrXrXrXrXqXqXb.h = sXsXsXsXsXsXsXsXsXsXsX",
"sXsXsXsXsXsXsXsXsXsXsXq C 0XyX^. XOXOXoX@X@X#X%X-X4XaXiXrXrXrXrX7XqXqXb.h = sXsXsXsXsXsXsXsXsXsX",
"sXsXsXsXsXsXsXsXsXsXsXq N 9Xc ^..XOXOX'.@X@X#X%X-X:X8XpXpXpX7XiX7X9XqXb.N = # sXsXsXsXsXsXsXsXsX",
"sXsXsXsXsXsXsXsXsXsXsX0 w x b c %X@XOX@X@X@X#X%X-X4XpXpXiXiX7XrXtXqXqXb.b.= % sXsXsXsXsXsXsXsXsX",
"sXsXsXsXsXsXsXsXsXsX% q d.S.a.M d.$XoX@X'.@X+X%X-X}.pXpXiXpXrXrXtXwXD.b.N = $ sXsXsXsXsXsXsXsXsX",
"sXsXsXsXsXsXsXsXsXsX$ 4 7.f.R.m V  XOXoX'.oX#X+X%X%X}.pXpXpXrXrXwXD.D.b.n.= # sXsXsXsXsXsXsXsXsX",
"sXsXsXsXsXsXsXsXsX$ 1 %.3.7.G.a.M V [.'.'.'.'.oX+XXX%X(.(.5X5X5XD.D.Z d 6.% # sXsXsXsXsXsXsXsXsX",
"sXsXsXsXsXsXsXsXsX< 1 %.2.6.G.g a.M .X`.`.`.'.'.+X+XXXXX%X:X:Xd.d.;.d 6.= $ sXsXsXsXsXsXsXsXsXsX",
"sXsXsXsXsXsXsXsXsX< 3 $.2.5.F.;.g n c ~.`.).).)._.|.|.XXXXXX-Xm ;.d d 5 $ # sXsXsXsXsXsXsXsXsXsX",
"sXsXsXsXsXsXsXsXo < @.$.2.F.3.X.s x * l l !.!.!.!.Q.Q.|.|.XXm f g g <.2 $ sXsXsXsXsXsXsXsXsXsXsX",
"sXsXsXsXsXsXsXsXo 1 @.$.2.C.o.u w 0 x z z k k k k l l l x e e f s y n.@ $ sXsXsXsXsXsXsXsXsXsXsX",
"sXsXsXsXsXsXsXsXo 1 @.$.$.C.o.o.p 0 * sXsXsXsXsXsXsXsX* * - e e 8 8 +.@ O sXsXsXsXsXsXsXsXsXsXsX",
"sXsXsXsXsXsXsXsXo $ @.@.$.Z.u t 1.% % sXsXsXsXsXsXsXsXsX* & & 3 +.+.O O X sXsXsXsXsXsXsXsXsXsXsX",
"sXsXsXsXsXsXsXsXo < @.@.C.$.u @.+.$ # sXsXsXsXsXsXsXsXsXsX+ # # # O O X sXsXsXsXsXsXsXsXsXsXsXsX",
"sXsXsXsXsXsXsXsXO ; 1 @.@.t t t < O sXsXsXsXsXsXsXsXsXsXsXsXsXX X X X sXsXsXsXsXsXsXsXsXsXsXsXsX",
"sXsXsXsXsXsXsXsXsX@ ; 1 3 1 1 1 o sXsXsXsXsXsXsXsXsXsXsXsXsXsXsXsXsXsXsXsXsXsXsXsXsXsXsXsXsXsXsX",
"sXsXsXsXsXsXsXsXsXsX@ < < < ; o sXsXsXsXsXsXsXsXsXsXsXsXsXsXsXsXsXsXsXsXsXsXsXsXsXsXsXsXsXsXsXsX"
};
