/* XPM */
static char *result[] = {
/* columns rows colors chars-per-pixel */
"42 51 13 1 ",
"  c #181010",
". c #202028",
"X c #600000",
"o c #482010",
"O c gray25",
"+ c #686868",
"@ c #A81828",
"# c #A06830",
"$ c #C09830",
"% c #B88858",
"& c #2830C8",
"* c gray69",
"= c None",
/* pixels */
"=======================   ================",
"=====================  ooo  ==============",
"==================== oo#%%#o =============",
"=================== o#%%%%%#o ============",
"=================== o%%%%%%%o ============",
"================== o%%%%%%%%o ============",
"================== o%%%%%%%%o ============",
"=============== == o%%%%%%%%o   ==========",
"===============    o%%%%%%%#o    =========",
"===============   oo%%%%%%%ooo    ========",
"==============      #%%%%%#ooo     =======",
"===========   o        ####oo      =======",
"========== ooooo                    ======",
"========= oo%oo%%   ##        o     ======",
"========= o%oo%%%%%%%%o       oo     =====",
"========= o%o%%%%%%%%%%oo    %%#     =====",
"========= o%o%%%%%#@X%%%%%%%%%%oo    =====",
"========= ooo%%%%#@@XX%%%%%%%ooooo   =====",
"========== oo%%%%@@@XX%%%%%%%ooo%oo  =====",
"=========== o%%%%X@XXX%%%%%%%%o%%%oo =====",
"=========== o#%%%XXXXX%%%%%%%%%%%%oo =====",
"============ o%%%%XXX%%%%%%%%%%%%%oo =====",
"============ o%%%%%%%%%%%%%%%%%%%%o ======",
"============= o%%%%%%%%%%%%%%#%%%oo ======",
"============== o%%%%%%%%%%%%#o##oo =======",
"=============== oo%%%%%%%%##oooo  ========",
"====    ====....oXXXXX....     ====    ===",
"==       .....o@@@@...&....ooo     OOOO ==",
"=   oooo  .$&......&&&.@@XXXXX OOO+***O ==",
"  o#ooooo $$&&&&&&&&&.@@@@@@@@******++O  =",
"  o#ooooo $o&&&&$$o&&.@@@@@@@@*+++******O ",
"  oo#oooo o&&&&$$$$&&.@XX@@@@*******+++O  ",
"  oo#ooo .&&&&&$$$$&&&.@XXX@@**+++******O ",
"  oo#oo  .&&&&&&$$o&&&&..XXXX******++OOOO ",
"  oo#oooo.&&&&&&&&&&&&&&&..  +*******+O  =",
"=  oo#ooo.&&&&&&&&&&&&&&&..= O*********O =",
"=  oo#oooo.&&&&&&&&&&&&&&..= O***+++***O =",
"=  oo#oooo.&&&&&&&&&&&&&..== O**+O   OOO =",
"=  ooooooo .&&&&&&&&&&&&..== O**O ===   ==",
"==  oo o   ...&&&&&&&&&.  === OO =========",
"==        ==...&&&&&&&.#  ====  ==========",
"===     ======..&&&&&.o#  ================",
"===============.     oo#  ================",
"===============  oooo oo  ================",
"==============  ooooooo#  ================",
"==============  ooooooo#  ================",
"==============  oooooo#o  ================",
"==============  oooooo#  =================",
"==============   ooooo   =================",
"===============         ==================",
"================      ===================="
};
