/* XPM */
static char *result[] = {
/* columns rows colors chars-per-pixel */
"57 54 226 2 ",
"   c #2B1B18",
".  c #321E1A",
"X  c #34201C",
"o  c #3B221E",
"O  c #2E201E",
"+  c #392725",
"@  c #3A2C32",
"#  c #301F20",
"$  c #792B1D",
"%  c #67361E",
"&  c #6D2D1E",
"*  c #432C24",
"=  c #462B27",
"-  c #4A362A",
";  c #5D3B2B",
":  c #54372B",
">  c #443834",
",  c #573C33",
"<  c #512F2C",
"1  c #623E29",
"2  c #6C3825",
"3  c #773823",
"4  c #673C37",
"5  c #753C38",
"6  c #712F20",
"7  c #64431E",
"8  c #584337",
"9  c #514335",
"0  c #6B452C",
"q  c #694629",
"w  c #734C2B",
"e  c #794528",
"r  c #7A522C",
"t  c #77502A",
"y  c #6A4C3A",
"u  c #684536",
"i  c #754D33",
"p  c #78483A",
"a  c #7B5334",
"s  c #775439",
"d  c #6D533C",
"f  c #7E6036",
"g  c #37304F",
"h  c #363767",
"j  c #3A3C77",
"k  c #4F364C",
"l  c #6B3949",
"z  c #493767",
"x  c #503768",
"c  c #3D407D",
"v  c #594943",
"b  c #5E5649",
"n  c #674A41",
"m  c #784448",
"M  c #685146",
"N  c #7A5744",
"B  c #734658",
"V  c #7B775C",
"C  c #736756",
"Z  c #51476E",
"A  c #7E7E63",
"S  c #747561",
"D  c #6E6F60",
"F  c #67536C",
"G  c #9D1215",
"H  c #951718",
"J  c #8F1315",
"K  c #A5181C",
"L  c #84291F",
"P  c #9B271E",
"I  c #883526",
"U  c #953227",
"Y  c #8B2F23",
"T  c #A5332A",
"R  c #A93832",
"E  c #B5382F",
"W  c #A91E21",
"Q  c #CB2B3C",
"!  c #C8353F",
"~  c #834B2C",
"^  c #845B2E",
"/  c #884837",
"(  c #914B38",
")  c #845C33",
"_  c #8B5C34",
"`  c #87563A",
"'  c #955637",
"]  c #A74538",
"[  c #A75A35",
"{  c #8A612D",
"}  c #956A2E",
"|  c #8A6838",
" . c #946839",
".. c #8B7436",
"X. c #957A37",
"o. c #99792F",
"O. c #A96A37",
"+. c #AC743B",
"@. c #B17B3E",
"#. c #D94B3F",
"$. c #9C2C4E",
"%. c #D12E42",
"&. c #CC3743",
"*. c #D33245",
"=. c #D63948",
"-. c #CF2C41",
";. c #834343",
":. c #875A42",
">. c #8C4C4B",
",. c #AE4648",
"<. c #976C44",
"1. c #987645",
"2. c #8B6A4C",
"3. c #AC7848",
"4. c #8E7F65",
"5. c #CE4146",
"6. c #DB4B44",
"7. c #D74747",
"8. c #D45347",
"9. c #D34C58",
"0. c #CE4B6E",
"q. c #98833A",
"w. c #A28C3E",
"e. c #B78936",
"r. c #B88F30",
"t. c #C5992C",
"y. c #C5992A",
"u. c #C59437",
"i. c #CCA32B",
"p. c #CDA329",
"a. c #D3AB2C",
"s. c #D6AC2C",
"d. c #DBB32D",
"f. c #DCB72D",
"g. c #CDA333",
"h. c #D3AC32",
"j. c #D1A834",
"k. c #DBB530",
"l. c #DEB931",
"z. c #D8B43D",
"x. c #E1BD2D",
"c. c #E1BB31",
"v. c #E1BC39",
"b. c #E5C32D",
"n. c #E8C72F",
"m. c #EAC92E",
"M. c #E5C433",
"N. c #EACA33",
"B. c #EBCD3B",
"V. c #E6C636",
"C. c #B38344",
"Z. c #A99443",
"A. c #B19744",
"S. c #BDA74C",
"D. c #858269",
"F. c #98997C",
"G. c #8B8C73",
"H. c #968248",
"J. c #C79847",
"K. c #CE9446",
"L. c #C2AA4E",
"P. c #D7B644",
"I. c #C6AE51",
"U. c #CCB354",
"Y. c #CDBA5D",
"T. c #D3A84E",
"R. c #DAAD68",
"E. c #DBB46B",
"W. c #DCB66B",
"Q. c #DEBA71",
"!. c #DEB777",
"~. c #CEBD62",
"^. c #E2B56D",
"/. c #E2BD74",
"(. c #E2BC7A",
"). c #E1B575",
"_. c #E3C343",
"`. c #EDD241",
"'. c #D7C567",
"]. c #E7D46D",
"[. c #E3C177",
"{. c #E4C379",
"}. c #EADB74",
"|. c #EBDC77",
" X c #E2CD68",
".X c #F3E57C",
"XX c #EFE178",
"oX c #3C3F84",
"OX c #3E4187",
"+X c #404390",
"@X c #464ADB",
"#X c #5953DE",
"$X c #6957DB",
"%X c #735DDB",
"&X c #7864D7",
"*X c #484EE1",
"=X c #4A52E5",
"-X c #4C54E9",
";X c #4751E4",
":X c #5453E5",
">X c #5754E7",
",X c #6154E3",
"<X c #8467D2",
"1X c #999C82",
"2X c #A5A58A",
"3X c #B1B398",
"4X c #B8BBA1",
"5X c #DDB580",
"6X c #F4E984",
"7X c #F6EC8B",
"8X c #F8EE8E",
"9X c #F3E682",
"0X c #F9EF92",
"qX c #F7EE90",
"wX c #F9F092",
"eX c #F9F08F",
"rX c #DCC9B3",
"tX c #D5CCB5",
"yX c #CFD0B9",
"uX c #D4D3BC",
"iX c #D9D4BD",
"pX c #D1C6AF",
"aX c #E1C8B4",
"sX c #DBD9C4",
"dX c #D8D7C2",
"fX c None",
/* pixels */
"fXfXfXfXfXfXfXfXfXfXfXfXfXfXfXfXfXfXfXfXfXfXfXfXfXfXfXfXfXfXfXfXfXfXfXfXU U U U U fXfXfXfXfXfXfXfXfXfXfXfXfXfXfXfX",
"fXfXfXfXfXfXfXfXfXfXfXfXfXfXfXfXfXfXfXfXfXfXfXfXfXfXfXfXfXfXfXfXfXfXI I K K W W K U Y fXfXfXfXfXfXfXfXfXfXfXfXfXfX",
"fXfXfXfXfXfXfXfXfXfXfXfXfXfXfXfXfXfXfXfXfXfXfXfXfXfXfXfXfXfXfXfXfX3 H H W *.=.*.*.K K Y $ fXfXfXfXfXfXfXfXfXfXfXfX",
"fXfXfXfXfXfXfXfXfXfXfXfXfXfXfXfXfXfXfXfXfXfXfXfXfXfXfXfXfXfXfXfX2 J W &.=.=.=.=.=.*.-.K G L fXfXfXfXfXfXfXfXfXfXfX",
"fXfXfXfXfXfXfXfXfXfXfXfXfXfXfXfXfXfXfXfXfXfXfXfXfXfXfXfXfXfXfXfX3 H &.=.=.7.6.7.=.=.*.%.K G $ fXfXfXfXfXfXfXfXfXfX",
"fXfXfXfXfXfXfXfXfXfXfXfXfXfXfXfXfXfXfXfXfXfXfXfXfXfXfXfXfXfXfX& J L &.=.6.6.6.6.=.=.=.*.-.G G L fXfXfXfXfXfXfXfXfX",
"fXfXfXfXfXfXfXfXfXfXfXfXfXfXfXfXfXfXfXfXfXfXfXfXfXfXfXfXfXfXfX& J ! =.rXaXaXaX6.7.=.=.=.%.-.G G L fXfXfXfXfXfXfXfX",
"fXfXfXfXfXfXfXfXfXfXfXfXfXfXfXfXfXfXfXfXfXfXfXfXfXfXfXfXfXfXfX6 J &.pXR iXE rXaX6.6.=.=.%.%.-.G G L $ & fXfXfXfXfX",
"fXfXfXfXfXfXfXfXfXfXfXfXfXfXfXfXfXfXfXfXfXfXfXfXfXfXfXfXfXfXfX6 J &.pXT R R rXrX6.6.7.7.=.*.Q Q H H J J $ & fXfXfX",
"fXfXfXfXfXfXfXfXfXfXfXfXfXfXfXfXfXfXfXfXfXfXfXfXfXfXfXfXfXfXfXfX2 H pXU R R rXrX6.6.6.6.=.=.=.*.%.K Q Q H $ $ fXfX",
"fXfXfXfXfXfXfXfXfXfXfXfXfXfXfXfXfXfXfXfXfXfXfXfXfXfXfXfXfXfXfX+ = < , 4 l p m p E 8.6.6.#.6.6.=.! ! Q ! ! H 3 fXfX",
"fXfXfXfXfXfXfXfXfXfXfXfXfXfXfXfXfXfXfXfXfXfXfXfXfXfXfXfXfX  . o = < , , u n m p / >.U ( ( E 6.6.6.7.! ! ! ! H I fX",
"fXfXfXfXfXfXfXfXfXfXfXfXfXfXfXfXfXfXfXfXfXfXfXfXfXfXfXfX    . + = : , u y p s N N ` :.( [ ( ( ( ( I T 5.=.5.P ~ fX",
"fXfXfXfXfXfXfXfXfXfXfXfXfXfXfXfXfXfXfXfXfXfXfXfXfXfXfXfXfXfXfXfXfX; / ) R.E.E.a O.!./.).^.^.^.K.O.[ ( U ~ ' ( 3 fX",
"fXfXfXfXfXfXfXfXfXfXfXfXfXfXfXfXfXfXfXfXfXfXfXfXfXfXfXfXfXfXfXfX, 8 y d W.!.W.2.<././.)././.).).O.O.^.^.R.R.[ ~ 4 ",
"fXfXfXfXfXfXfXfXfXfXfXfXfXfXfXfXfXfXfXfXfXfXfXfXfXfXfXfXfXfXfX: ^ `  .| Q.Q.Q.1.<./.{.{./././.T.+.+.^.^.E.R.R._ 0 ",
"fXfXfXfXfXfXfXfXfXfXfXfXfXfXfXfXfXfXfXfXfXfXfXfXfXfXfXfXfXfX- r J.E.W.T.[.[.{.1.1.[.{.[.{.(.@.@.@.+.Q.O.O.W.R.' u ",
"fXfXfXfXfXfXfXfXfXfXfXfXfXfXfXfXfXfXfXfXfXfXfXfXfXfXfXfXfX* e J.E.Q.[.[.{.{.{.C.H.{.{.{.{.{.K.3.e.@.Q.O.W.W.R._ q ",
"fXfXfXfXfXfXfXfXfXfXfXfXfXfXfXfXfXfXfXfXfXfXfXfXfXfXfXfXfX* t R.E.'.[.{.{.{.{.{.{.{.{.{.{.{.{.C.3.Q.Q.Q.W.R._ ~ , ",
"fXfXfXfXfXfXfXfXfXfXfXfXfXfXfXfXfXfXfXfXfXfXfXfXfXfXfXfXfX* e U.E.Q.Q.[.{.{.{.[.[.[.1.1.|.5X{.{.[.[.Q.W.E.{ ` 8 fX",
"fXfXfXfXfXfXfXfXfXfXfXfXfXfXfXfXfXfXfXfXfXfXfXfXfXfXfXfXfX+ t u.E.W.[.[.[./.Q.!.Q.| 1.1.<.[.5X{.!.!.!. .` 8 8 fXfX",
"fXfXfXfXfXfXfXfXfXfXfXfXfXfXfXfXfXfXfXfXfXfXfXfXfXfXfXfXfXfX- r u.W.W.W.Q.Q.Q.T.f :.:.:.<./.5X5X!.5X<.2.y fXfXfXfX",
"fXfXfXfXfXfXfXfXfXfXfXfXfXfXfXfXfXfXfXfXfXfXfXfXfXfXfXfXfXfXfX: 8 ^ J.J.J. . .` N :.:.:.!.!.).5X5X2.M v k fXfXfXfX",
"fXfXfXfXfXfXfXfXfXfXfXfXfXfXfXfXfXfXfXfXfXfXfXfXfXfXfXfXfXfXfXfX, 9 y d d s d p d p p E.!.).5X<.2.B F F Z fXfXfXfX",
"fXfXfXfXfXfXfXfXfXfXfXfXfXfXfXfXfXfXfXfXfXfXfXfXfXfXfXfXfXfXfXfXfX9 v u n u n 5 p R.R.).] ,.,.<X<X%X$XZ Z Z fXfXfX",
"fXfXfXfXfXfXfXfXfX..q.q.q.X.X...fXfXfXfXfXfXfXfXfXfXfXfXfXfXfXfXfXfXfXv n n u n ( ' ' R 9.9.0.%X%X,X>X>XZ c h fXfX",
"fXfXfXfXfXfXq.q.w.w.w.Z.Z.w.w.q.q...fXfXfXfXfXfXfXfXfXfXfXfXfXfXfXv b v M M :.' T #.7.7.6.9.0.0.%X,X,X>X*Xc j h fX",
"fXfXfXfXq.q.w.Z.Z.}.S.}.}.'.}.].q.q...fXfXfXfXfXfXfXfXfXfX@ 9 v v b A 4.4.4.( 7.8.7.6.6.9.9.0.0.%X,X>X>X*X*XOXj fX",
"fXfXq.q.Z.Z.|.|.|.7X7X7X7X6X9X.X.X].q.| fXfXfXfXfXfXfX@ 9 D S A D.G.2X2XuXrXiX] 8.#.5.5.5.9.$.0.,X>X>X>X:X;XOXOXj ",
"fXq.w.Z.}.'.6X7X7X0XqXqXqX8X7X7X9X~.q...fXfXfXfXfXfX@ b D 1XyXdXG.3XdXdXdXiXiXiX] p 5 5 l $.0.$X,X>X>X-X-X=X;XOXc ",
"fXZ.Z.}.9X6XqXqX0XwXwXwXwX8X7X7X.X'.Y.f y fXfXfXfX> D D 1XyXdXG.3XsXsXsXsXiXiX:.>.( ( ;.;.l $X$X,X>X-X-X-X-X;XOXOX",
"Z.Z.}.9X6X7X7XqXwXwXwXwXwXqX7X7XXX}.Y...a fXfXfXfX9 D F.yXdXdX1X4X4XsXsXsXdX2.<. .>.( / m $.x ,X>X>X-X-X-X-X-X+XOX",
"Z.A.XX9X7X7X8X0X0X0XeXwXeXeX6X].XX}.j.h.f w fXfXfX9 d N V uXiX1X4X4XsXsXsXsX3.<. .( / / $.m x #X#X:X-X-X-X;X;XoXoX",
" .A.'.XXXX7X}.8X0X8XeX7XXX.X.X.X Xz.V.z.| s w q y y N N 2.iXiX2X4X4XsXsXsX2.1.1.J.J.~ / i m l x :X:X:X=X=X;X;XoXoX",
"X.X.P.'.XX X.X.X9X.X6X.X}.].].V.P.V.V.l.a.{ t t w d r.A.A.2X3XF.3XsXsXsXiXC <.| ' ` K.~ / ;.B x #X*X*X*X;X;XoXoXfX",
" .X.z.z.P. X].].]..X].]._._._.B.V.V.V.x.f.{ a r.r.e.j.z.P.P.uXiXF.3XiXsXyXC <.` ` ~ e e.e l k B z *X*X@X*X@XoXh fX",
"| } z.j.z.z.P._._._._.`.`.v._.B.N.n.b.x.f.} ^ a.p.a...X.1.H.uXuXuXG.2X2XyXtXd ` ~ ~ ~ u.~ p k l k @X@X@X@Xj j fXfX",
")  .h.g.h.V.B.B.B.B.B.B.B.v.v.N.n.n.M.x.f.a.{ o.o.....y d d V A A D.A A V V 8 p e e 3 e C.; 5 5 l g @X@Xh h fXfXfX",
"q ) } c.j.M.V.V.B.B.N.B.N.N.c.N.m.m.b.x.x.a.{ ^ w 0 u 4 8 u > 9 9 9 s s i t : : e 3 3 e K.e 5 4 l g g g g fXfXfXfX",
"7 ) { l.c.M.M.M.N.m.N.N.N.n.c.m.m.b.b.b.x.s.{ r 0 q ; : fXfXfXfXfX> > u 0 4 = = 2 2 2 3 2 e.2 2 @ @ g g fXfXfXfXfX",
"% t { } x.x.b.b.m.c.m.m.m.m.m.m.m.d.b.b.d.s.^ t fXfXfXfXfXfXfXfXfXfX+ + + + + + * % % 2 3 e.% + + # fXfXfXfXfXfXfX",
"w t { } r.x.b.b.b.c.m.m.m.m.m.m.m.d.s.x.s.s.p.t fXfXfXfXfXfXfXfXfXfXfXO X X fXfXo o % % % % o X + fXfXfXfXfXfXfXfX",
"q t s.y.y.r.x.m.b.c.d.m.m.m.m.m.n.d.s.f.d.a.p.t q fXfXfXfXfXfXfXfXfXfXfXfXfXfXfXfX. . X X X . . fXfXfXfXfXfXfXfXfX",
"q t s.s.r.r.x.x.b.b.d.m.m.m.m.m.n.b.d.f.s.a.y.t ; fXfXfXfXfXfXfXfXfXfXfXfXfXfXfXfXfX          fXfXfXfXfXfXfXfXfXfX",
"fXq t a.y.} x.x.x.m.d.d.m.m.b.m.n.x.h.j.s.a.p.w ; fXfXfXfXfXfXfXfXfXfXfXfXfXfXfXfXfXfXfXfXfXfXfXfXfXfXfXfXfXfXfXfX",
"fX1 q t ^ p.p.x.x.c.s.d.m.m.N.c.c.l.a.g.a.p.S.q ; fXfXfXfXfXfXfXfXfXfXfXfXfXfXfXfXfXfXfXfXfXfXfXfXfXfXfXfXfXfXfXfX",
"fXfX2 q t p.s.y.d.c.c.s.s.c.c.c.l.f.j.i.a.i.S.q : fXfXfXfXfXfXfXfXfXfXfXfXfXfXfXfXfXfXfXfXfXfXfXfXfXfXfXfXfXfXfXfX",
"fXfXfXfXq ~ p.y.s.d.s.s.s.c.c.c.k.k.g.t.i.L.w 1 fXfXfXfXfXfXfXfXfXfXfXfXfXfXfXfXfXfXfXfXfXfXfXfXfXfXfXfXfXfXfXfXfX",
"fXfXfXfXq w y.p.y.s.s.k.g.j.k.k.k.h.t.r.I.S.q ; fXfXfXfXfXfXfXfXfXfXfXfXfXfXfXfXfXfXfXfXfXfXfXfXfXfXfXfXfXfXfXfXfX",
"fXfXfXfXfXq t y.r.t.s.d.g.i.g.g.h.a.U.L.L.w ; fXfXfXfXfXfXfXfXfXfXfXfXfXfXfXfXfXfXfXfXfXfXfXfXfXfXfXfXfXfXfXfXfXfX",
"fXfXfXfXfX1 q t L.t.t.h.s.g.t.U.U.U.I.a w q fXfXfXfXfXfXfXfXfXfXfXfXfXfXfXfXfXfXfXfXfXfXfXfXfXfXfXfXfXfXfXfXfXfXfX",
"fXfXfXfXfX: 1 q t ) I.U.U.U.U.U.| ) r i 8 fXfXfXfXfXfXfXfXfXfXfXfXfXfXfXfXfXfXfXfXfXfXfXfXfXfXfXfXfXfXfXfXfXfXfXfX",
"fXfXfXfXfXfXfX1 i i a ) _ | _ ) a i i fXfXfXfXfXfXfXfXfXfXfXfXfXfXfXfXfXfXfXfXfXfXfXfXfXfXfXfXfXfXfXfXfXfXfXfXfXfX",
"fXfXfXfXfXfXfXfXfXfXi a a a s a fXfXfXfXfXfXfXfXfXfXfXfXfXfXfXfXfXfXfXfXfXfXfXfXfXfXfXfXfXfXfXfXfXfXfXfXfXfXfXfXfX"
};
