/* XPM */
static char *result[] = {
/* columns rows colors chars-per-pixel */
"59 67 230 2 ",
"   c #2D1B19",
".  c #281815",
"X  c #331E1C",
"o  c #3A1D18",
"O  c #3C241D",
"+  c #36201C",
"@  c #2D1E27",
"#  c #382525",
"$  c #392638",
"%  c #352933",
"&  c #4D1E16",
"*  c #43261F",
"=  c #43291D",
"-  c #58381D",
";  c #5A2F1B",
":  c #672F1C",
">  c #732B1D",
",  c #6B331E",
"<  c #64321D",
"1  c #77331E",
"2  c #462B22",
"3  c #4C2D23",
"4  c #462726",
"5  c #562927",
"6  c #4C3125",
"7  c #4B362B",
"8  c #553425",
"9  c #5B3A2A",
"0  c #563827",
"q  c #462B37",
"w  c #483A37",
"e  c #542936",
"r  c #662828",
"t  c #613D2B",
"y  c #6A3625",
"u  c #733B23",
"i  c #773826",
"p  c #693733",
"a  c #733A35",
"s  c #762E26",
"d  c #7F161B",
"f  c #63421F",
"g  c #5D4129",
"h  c #66412C",
"j  c #6A442D",
"k  c #674829",
"l  c #734A2D",
"z  c #79462B",
"x  c #7D532F",
"c  c #6D4933",
"v  c #684533",
"b  c #734D33",
"n  c #744737",
"m  c #7C5334",
"M  c #765538",
"N  c #6F522D",
"B  c #7C6238",
"V  c #2C2245",
"C  c #363357",
"Z  c #352C4B",
"A  c #393765",
"S  c #393A71",
"D  c #48334E",
"F  c #44365A",
"G  c #4D334A",
"H  c #6A3B44",
"J  c #473867",
"K  c #4D3976",
"L  c #6F3E6A",
"P  c #73444A",
"I  c #755747",
"U  c #6A4B50",
"Y  c #6F635C",
"T  c #6E4468",
"R  c #6A6462",
"E  c #766E67",
"W  c #57495A",
"Q  c #8B1618",
"!  c #961819",
"~  c #910F12",
"^  c #A91B1C",
"/  c #931C27",
"(  c #AC1E24",
")  c #9A2626",
"_  c #873826",
"`  c #963728",
"'  c #883A35",
"]  c #963937",
"[  c #8B2A29",
"{  c #AA2524",
"}  c #B9282A",
"|  c #BB362C",
" . c #AF2D37",
".. c #8B211F",
"X. c #CA2A3D",
"o. c #C13636",
"O. c #844B2C",
"+. c #874734",
"@. c #865933",
"#. c #8F5230",
"$. c #A64B37",
"%. c #AA5434",
"&. c #896839",
"*. c #936B39",
"=. c #A5683C",
"-. c #AF7E33",
";. c #8D3C45",
":. c #B2284E",
">. c #BE3769",
",. c #C82D44",
"<. c #D22E43",
"1. c #CD3648",
"2. c #D43345",
"3. c #D93346",
"4. c #D5354B",
"5. c #DB354C",
"6. c #D43A4B",
"7. c #DB3A4B",
"8. c #D33946",
"9. c #C7345A",
"0. c #DD3B52",
"q. c #D13553",
"w. c #C6366A",
"e. c #C5387A",
"r. c #8D5443",
"t. c #A94443",
"y. c #937A45",
"u. c #957845",
"i. c #8B714E",
"p. c #B67C48",
"a. c #8B7A6D",
"s. c #B07C73",
"d. c #DB434C",
"f. c #DA4659",
"g. c #CB434D",
"h. c #DC5465",
"j. c #DC4D61",
"k. c #E16567",
"l. c #DF6062",
"z. c #BB8A34",
"x. c #AE853D",
"c. c #C49335",
"v. c #CA9C34",
"b. c #C79939",
"n. c #C08F33",
"m. c #CDA036",
"M. c #D2A435",
"N. c #D7AA36",
"B. c #D2A539",
"V. c #D5AB39",
"C. c #D9AD39",
"Z. c #D9AD36",
"A. c #DDB336",
"S. c #DCB33A",
"D. c #E4BC37",
"F. c #E4BD39",
"G. c #E0B736",
"H. c #E7C13B",
"J. c #9A8248",
"K. c #A3884B",
"L. c #AD934B",
"P. c #B99C57",
"I. c #AF914E",
"U. c #BEA15E",
"Y. c #968B75",
"T. c #9B947B",
"R. c #858171",
"E. c #A78B75",
"W. c #A7A07F",
"Q. c #C78846",
"!. c #D4934C",
"~. c #CDA443",
"^. c #D5AA41",
"/. c #DDB543",
"(. c #C5A55C",
"). c #D3A65E",
"_. c #CFB25D",
"`. c #E2BC44",
"'. c #C3A561",
"]. c #DBAC64",
"[. c #D8A761",
"{. c #DAB765",
"}. c #E4AC67",
"|. c #E2B169",
" X c #CC9262",
".X c #E6C243",
"XX c #E8C647",
"oX c #DBC365",
"OX c #E4CC65",
"+X c #E9D56C",
"@X c #EEDC72",
"#X c #F3E67A",
"$X c #F5E97E",
"%X c #F3E576",
"&X c #65438D",
"*X c #5D4185",
"=X c #4B4CDC",
"-X c #454ADB",
";X c #554CDE",
":X c #4E51DF",
">X c #6F4EDC",
",X c #484EE1",
"<X c #4D52E4",
"1X c #4F55E9",
"2X c #5253E4",
"3X c #5356EA",
"4X c #5B53E7",
"5X c #5A4FE1",
"6X c #6552E3",
"7X c #C43A86",
"8X c #A49E82",
"9X c #B5A98C",
"0X c #979289",
"qX c #D1BB9E",
"wX c #D0BDA0",
"eX c #F6EC82",
"rX c #F8EE85",
"tX c #F9EF88",
"yX c #F9F088",
"uX c #DAD4B5",
"iX c #DDDABA",
"pX c #DAD7B6",
"aX c #CFCAAA",
"sX c #E4D2B5",
"dX c #E3DBBC",
"fX c #E5D6B9",
"gX c #E6CEB1",
"hX c #E4DFC0",
"jX c #E5E1C2",
"kX c None",
/* pixels */
"kXkXkXkXkXkXkXkXkXkXkXkXkXkXkXkXkXkXkXkXkXkXkXkXkXkXkXkXkXkXkXkXkXkXkXkXkXkXJ.J.y.K.J.J.y.B M N kXkXkXkXkXkXkXkXkXkXkX",
"kXkXkXkXkXkXkXkXkXkXkXkXkXkXkXkXkXkXkXkXkXkXkXkXkXkXkXkXkXkXkXkXkXkXkXkXkXJ.J.J.I.I.I.I.i.r.M N k kXkXkXkXkXkXkXkXkXkX",
"kXkXkXkXkXkXkXkXkXkXkXkXkXkXkXkXkXkXkXkXkXkXkXkXkXkXkXkXkXkXkXkXkXkXkXkXJ.J.J.L.L.P.+X@Xy.i.m M k k kXkXkXkXkXkXkXkXkX",
"kXkXkXkXkXkXkXkXkXkXkXkXkXkXkXkXkXkXkXkXkXkXkXkXkXkXkXkXkXkXkXkXkXkXkXkXJ.K.L.P.#X$X$XoX+X+X&.M N h k kXkXkXkXkXkXkXkX",
"kXkXkXkXkXkXkXkXkXkXkXkXkXkXkXkXkXkXkXkXkXkXkXkXkXkXkXkXkXkXkXkXkXkXkXJ.J.L.$XeX$X$X$X$XoX_.b.i.m l h f kXkXkXkXkXkXkX",
"kXkXkXkXkXkXkXkXkXkXkXkXkXkXkXkXkXkXkXkXkXkXkXkXkXkXkXkXkXkXkXkXkXkXy.J.L.#X$XeXrXeXrX$X@X@Xb.z.M.m k k f 8 3 kXkXkXkX",
"kXkXkXkXkXkXkXkXkXkXkXkXkXkXkXkXkXkXkXkXkXkXkXkXkXkXkXkXkXkXkXkXkX&.J.K.#XeXeXrXyXrXrX$X%X+X~./.V.N.x N h g 8 3 kXkXkX",
"kXkXkXkXkXkXkXkXkXkXkXkXkXkXkXkXkXkXkXkXkXkXkXkXkXkXkXkXkXkXkXkXkXy.J.#X#XeXrXyXyXyXrX+XOXOX^.~.S.V.N.x *.@.t - 3 kXkX",
"kXkXkXkXkXkXkXkXkXkXkXkXkXkXkXkXkXkXkXkXkXkXkXkXkXkXkXkXkXkXkXkXy.y.L.#X$XyXyXyXyXyX$X%XOX`.`.^.G.A.N.v.x z.@.y 0 kXkX",
"kXkXkXkXkXkXkXkXkXkXkXkXkXkXkXkXkXkXkXkXkXkXkXkXkXkXkXkXkXkXkXkXy.J.%X#X$XrXyXyXyX$X%X%XOX/..XF.M.A.A.N.v.x &.k 9 ; kX",
"kXkXkXkXkXkXkXkXkXkXkXkXkXkXkXkXkXkXkXkXkXkXkXkXkXkXkXkXkXkXkXkX*.K.#X$XrXrXrXrX@X%X$X+X`.XX.XF.D.D.G.A.v.v.x l - - 3 ",
"kXkXkXkXkXkXkXkXkXkXkXkXkXkXkXkXkXkXkXkXkXkXkXkXkXkXkXkXkXkXkXB y.K.%X$XrX$XrX#X+X+X+XXXXXXX.XH.D.G.G.G.v.v.@.N l - - ",
"kXkXkXkXkXkXkXkXkXkXkXkXkXkXkXkXkXkXkXkXkXkXkXkXkXkXkXkXkXkXkX&.*.+X+X$XeXOX%X%X%XXX/.XXXXXXC.H.D.D.D.A.M.m.v.O.l t - ",
"kXkXkXkXkXkXkXkXkXkXkXkXkXkXkXkXkXkXkXkXkXkXkXkXkXkXkXkXkXkXkXB &.OX_.+XoXoX@X#XOX/.XXXXXXH.H.Z.Z.D.D.A.N.c.v.@.z j - ",
"kXkXkXkXkXkXkXkXkXkXkXkXkXkXkXkXkXkXkXkXkXkXkXkXkXkXkXkXkXkXkXkXN B OX+XoXoXOXOX/././..XH.H.H.A.N.N.D.A.N.c.z.v.@.l j ",
"kXkXkXkXkXkXkXkXkXkXkXkXkXkXkXkXkXkXkXkXkXkXkXkXkXkXkXkXkXkXkXkXg M B _.P.V.V..X.X.X/.C.H.H.H.H.N.N.N.D.N.N.c.b.@.x l ",
"kXkXkXkXkXkXkXkXkXkXkXkXkXkXkXkXkXkXkXkXkXkXkXkXkXkXkXkXkXkXkXkXkXv x &.z.~./.S.`..XF.F.A.H.F.F.D.N.M.M.C.B.c.z.'.m n ",
"kXkXkXkXkXkXkXkXkXkXkXkXkXkX> > > > > kXkXkXkXkXkXkXkXkXkXkXkXkXkXk v M B./.m.S.F.F.F.D.D.H.H.D.D.D.B.M.C.V.B.n.@.@.M ",
"kXkXkXkXkXkXkXkXkXkXkXkXs > ~ ~ ~ ~ ~ > > kXkXkXkXkXkXkXkXkXkXkXkXg j b M C.N.A.G.F.D.D.D.F.D.D.F.F.S.m.b.V.B.c.'.@.n ",
"kXkXkXkXkXkXkXkXkXkXr s Q ! X.X.<.X.X.~ ~ s kXkXkXkXkXkXkXkXkXkX7 g g b M @.*.z.A.G.D.M.D.D.D.D.F.G.S.C.b.B.B.'.'.n n ",
"kXkXkXkXkXkX.   o 5 s ! ! ,.<.<.<.<.<.,.,.! i a kXkXkXkXkXkXkXw g g 7 k N @.z.n.c.G.S.G.M.M.G.G.G.S.Z.C.B.m.m.'.M x v ",
"kXkXkXkXkX.   X o 4 ! ! qX<.<.3.3.<.<.1.1.) ' P U g g D g W w w % g v N l *.z.z.n.-.Z.C.G.v.m.Z.Z.C.V.b.b.m.'.m b c 0 ",
"kXkXkXkXkX.   X 4 5 ! qX2.6.5.5.5.3.4.4.f.q.] P U E E E E W E E R v c c *.z.-.z.z.@.m.m.M.M.b.b.b.B.B.b.z.'.U.b v h 0 ",
"kXkXkXkXkX    # 4 5 aXqX8.4.5.5.5.5.0.6.f.f.a.a.Y.8X8X0XR.R.E 0XI n I *.v.v.-.x x @.O.v.v.v.m.c.c.c.m.b.'.U.c v h 0 0 ",
"kXkXkXkXkXkXX o 5 r wX8.4.4.5.5.0.0.0.0.h.s.s.9XgXuXuX9X9XpXaXE Y I u.~.b.-.n j l l l z x c.v.v.b.b.'.U.b c h g 0 kXkX",
"kXkXkXkXkXX # 4 4 5 1.1.4.5.0.0.0.0.0.j.h.s.9XsXuXiXhX9XpXpXpXY.a.K.~.B.-.n c h g f t k k l P.P.b U.P.c j t 9 kXkXkXkX",
"kXkXkXkXkX* # 4 5 5 ) 1.4.3.5.5.0.0.j.h.s.E.fXfXiXjXhXjXiXiXpXT.E._.).I.I v v 0 0 - - 0 9 t h j j h t t 9 8 kXkXkXkXkX",
"kXkXkXkX6 3 3 5 e p s 2.4.5.5.5.0.0.0.h.s.gXfXhXwXhXjXjXhXdXiX8XY.).I.I I v g 0 0 kXkXkXkX8 0 0 0 9 0 8 kXkXkXkXkXkXkX",
"kXkX8 2 2 7 0 9 t a a { 8.2.5.5.0.0.f.s.s.gXfXqXhXjXwXjXjXhXhX8XP.T.E I U Y # g kXkXkXkXkXkXkXkXkXkXkXkXkXkXkXkXkXkXkX",
"8 0 2 z z z z O.+.#.i ' 8.4.3.3.0.0.o.g.gXfXfXfXjXwXhXhXhXhXiXiXpXT.aXaXY.R % kXkXkXkXkXkXkXkXkXkXkXkXkXkXkXkXkXkXkXkX",
"8 7 z O.[.).Q.#.#.).$.a { 8.7.7.0.} ,.j.h.gXfXfXhXhXhXhXhXhXiXuXpXR.aXaXY.R % kXkXkXkXkXkXkXkXkXkXkXkXkXkXkXkXkXkXkXkX",
"6 z z ).).[.].*.].].%.$.' } 8.3.} X.0.f.h.k.gXfXiXhXhXsXhXiXuXuXY.W.T.T.R Y % kXkXkXkXkXkXkXkXkXkXkXkXkXkXkXkXkXkXkXkX",
"8 z x [.[.[.=.].}.|.%.%.%.` } } X.7.0.f.j.h.k.k.sXsXsXuXfX9XY.Y.W.T.T.R R % kXkXkXkXkXkXkXkXkXkXkXkXkXkXkXkXkXkXkXkXkX",
"7 z O.[.].&.!.].|.=.}.}.}.%.} } 3.5.7.0.f.j.h.l.h.s.E.E.s.a.t.r.E E E R % kXkXkXkXkXkXkXkXkXkXkXkXkXkXkXkXkXkXkXkXkXkX",
"6 z b Q.c M ].=.=.|.}.}.}.!.} 3.3.3.5.5.0.f.f.| $.:.:.$.t.] ] ] E R g % kXkXkXkXkXkXkXkXkXkXkXkXkXkXkXkXkXkXkXkXkXkXkX",
"2 z z h v M ].u.-.|.}.}.}.} o.d.3.3.3.3.5.7.{ | d.g.g.] r.[ [ [ 7 # kXkXkXkXkXkXkXkXkXkXkXkXkXkXkXkXkXkXkXkXkXkXkXkXkX",
"O 6 z 0 v c ].=.=.|.}.}.!.o.d.7.3.3.3.3.X.} ^ 8.g.g.) O._ ..u y kXkXkXkXkXkXkXkXkXkXkXkXkXkXkXkXkXkXkXkXkXkXkXkXkXkXkX",
"O = 2 7 9 v ].].=.}.}.}.| d.d.7.3.3.3.X.^ ^ ^ ^ ^ ! ! _ Q i 5 kXkXkXkXkXkXkXkXkXkXkXkXkXkXkXkXkXkXkXkXkXkXkXkXkXkXkXkX",
"kX= 6 2 0 g ).].=.!.}.| | d.7.7.3.3.X.^ ` ` _ _ _ _ 1 1 > & kXkXkXkXkXkXkXkXkXkXkXkXkXkXkXkXkXkXkXkXkXkXkXkXkXkXkXkXkX",
"kXkXkX6 3 z Q.].].%.!.| d.d.7.3.3.3.^ ` ` ` .._ _  X> * & kXkXkXkXkXkXkXkXkXkXkXkXkXkXkXkXkXkXkXkXkXkXkXkXkXkXkXkXkXkX",
"kXkXkXkX2 z O.).}.}.} | 8.7.6.3.X.^ ` ` _ _ _ 1 1 1 > o kXkXkXkXkXkXkXkXkXkXkXkXkXkXkXkXkXkXkXkXkXkXkXkXkXkXkXkXkXkXkX",
"kXkXkXkXkX6 _ O.p.!.} 7.8.7.5.4.} ` ` _ _ _ _ 1 1 , : o kXkXkXkXkXkXkXkXkXkXkXkXkXkXkXkXkXkXkXkXkXkXkXkXkXkXkXkXkXkXkX",
"kXkXkXkXkXy 5 _ +.{ 6.4.6.4.4.( ` ] _ _ _ i 1 1 , O o kXkXkXkXkXkXkXkXkXkXkXkXkXkXkXkXkXkXkXkXkXkXkXkXkXkXkXkXkXkXkXkX",
"kXkXkXkXkXkXr r r { 4.4.6.q.( ;.] ] ' ' i 1 1 , < & kXkXkXkXkXkXkXkXkXkXkXkXkXkXkXkXkXkXkXkXkXkXkXkXkXkXkXkXkXkXkXkXkX",
"kXkXkXkXkXkXr H ^ q.q.q.9.:.;.;.;.r.9.H i y y , < kXkXkXkXkXkXkXkXkXkXkXkXkXkXkXkXkXkXkXkXkXkXkXkXkXkXkXkXkXkXkXkXkXkX",
"kXkXkXkXkXkXG ,./ q.9.9.:.;.>XT L 9.:.G / Q Q : kXkXkXkXkXkXkXkXkXkXkXkXkXkXkXkXkXkXkXkXkXkXkXkXkXkXkXkXkXkXkXkXkXkXkX",
"kXkXkXkXkXe G ,.9.9.9.w.w.L >X>XK w.w.W D Q r kXkXkXkXkXkXkXkXkXkXkXkXkXkXkXkXkXkXkXkXkXkXkXkXkXkXkXkXkXkXkXkXkXkXkXkX",
"kXkXkXkXkXD G :.9.w.e.e.e.&X>X6X>XK w.J F p $ kXkXkXkXkXkXkXkXkXkXkXkXkXkXkXkXkXkXkXkXkXkXkXkXkXkXkXkXkXkXkXkXkXkXkXkX",
"kXkXkXkXkXD F J w.w.7X7X&X6X4X6X5X5XK J J D $ kXkXkXkXkXkXkXkXkXkXkXkXkXkXkXkXkXkXkXkXkXkXkXkXkXkXkXkXkXkXkXkXkXkXkXkX",
"kXkXkXkXkXF J ;XK &X&X&X4X6X4X4X2X;X2X=XF C Z kXkXkXkXkXkXkXkXkXkXkXkXkXkXkXkXkXkXkXkXkXkXkXkXkXkXkXkXkXkXkXkXkXkXkXkX",
"kXkXkXkXZ A ,X,X6X5X4X4X4X4X4X3X2X2X=X=XA C V kXkXkXkXkXkXkXkXkXkXkXkXkXkXkXkXkXkXkXkXkXkXkXkXkXkXkXkXkXkXkXkXkXkXkXkX",
"kXkXkXkXC A ,X,X5X5X4X4X4X3X3X3X2X<X<X=XJ C V kXkXkXkXkXkXkXkXkXkXkXkXkXkXkXkXkXkXkXkXkXkXkXkXkXkXkXkXkXkXkXkXkXkXkXkX",
"kXkXkXkXC S -X,X<X1X1X1X3X3X3X3X2X<X=X=XA C V kXkXkXkXkXkXkXkXkXkXkXkXkXkXkXkXkXkXkXkXkXkXkXkXkXkXkXkXkXkXkXkXkXkXkXkX",
"kXkXkXkXC A -X-X,X1X1X1X3X3X1X3X2X=X=X=XF $ % @ kXkXkXkXkXkXkXkXkXkXkXkXkXkXkXkXkXkXkXkXkXkXkXkXkXkXkXkXkXkXkXkXkXkXkX",
"kXkXkXkXC A -X-X,X<X1X1X1X1X3XK J J F -XZ $ @ @   kXkXkXkXkXkXkXkXkXkXkXkXkXkXkXkXkXkXkXkXkXkXkXkXkXkXkXkXkXkXkXkXkXkX",
"kXkXkXkXkXA A -X,X,X,X1X,X1XK T L s.D D p p 9 X   kXkXkXkXkXkXkXkXkXkXkXkXkXkXkXkXkXkXkXkXkXkXkXkXkXkXkXkXkXkXkXkXkXkX",
"kXkXkXkXkXC A S -X,X,X,X:XJ T T s.H H G p t 5 # X kXkXkXkXkXkXkXkXkXkXkXkXkXkXkXkXkXkXkXkXkXkXkXkXkXkXkXkXkXkXkXkXkXkX",
"kXkXkXkXkXkXZ A S S -X=X=XF P P I.n ' e y y y + X kXkXkXkXkXkXkXkXkXkXkXkXkXkXkXkXkXkXkXkXkXkXkXkXkXkXkXkXkXkXkXkXkXkX",
"kXkXkXkXkXkXkXC C A A J D G H P a e 7 6 y 4 * + X   kXkXkXkXkXkXkXkXkXkXkXkXkXkXkXkXkXkXkXkXkXkXkXkXkXkXkXkXkXkXkXkXkX",
"kXkXkXkXkXkXkXkXkXC C C Z q n a n i i u 3 y , < X   kXkXkXkXkXkXkXkXkXkXkXkXkXkXkXkXkXkXkXkXkXkXkXkXkXkXkXkXkXkXkXkXkX",
"kXkXkXkXkXkXkXkXkXV % % 4 p a I.i z i u u = < < - X . kXkXkXkXkXkXkXkXkXkXkXkXkXkXkXkXkXkXkXkXkXkXkXkXkXkXkXkXkXkXkXkX",
"kXkXkXkXkXkXkXkXkXkX@ # # y s p.u u z 1 1 = < < ;   . kXkXkXkXkXkXkXkXkXkXkXkXkXkXkXkXkXkXkXkXkXkXkXkXkXkXkXkXkXkXkXkX",
"kXkXkXkXkXkXkXkXkXkXkX# # y 1 -.u z u u y = < < ;   . kXkXkXkXkXkXkXkXkXkXkXkXkXkXkXkXkXkXkXkXkXkXkXkXkXkXkXkXkXkXkXkX",
"kXkXkXkXkXkXkXkXkXkXkXX O y y i -.u u 1 , * < < +   . kXkXkXkXkXkXkXkXkXkXkXkXkXkXkXkXkXkXkXkXkXkXkXkXkXkXkXkXkXkXkXkX",
"kXkXkXkXkXkXkXkXkXkXkX  + O , u u u , u * o o +   . kXkXkXkXkXkXkXkXkXkXkXkXkXkXkXkXkXkXkXkXkXkXkXkXkXkXkXkXkXkXkXkXkX",
"kXkXkXkXkXkXkXkXkXkXkXkX+ O O 2 = 2 = * * * + X X kXkXkXkXkXkXkXkXkXkXkXkXkXkXkXkXkXkXkXkXkXkXkXkXkXkXkXkXkXkXkXkXkXkX",
"kXkXkXkXkXkXkXkXkXkXkXkX. + O O * 2 * O . . . . . kXkXkXkXkXkXkXkXkXkXkXkXkXkXkXkXkXkXkXkXkXkXkXkXkXkXkXkXkXkXkXkXkXkX"
};
