/* XPM */
static char *result[] = {
/* columns rows colors chars-per-pixel */
"54 45 218 2 ",
"   c #2B1815",
".  c #371B1B",
"X  c #38221E",
"o  c #241E3B",
"O  c #281C2F",
"+  c #3B2323",
"@  c #392427",
"#  c #362336",
"$  c #29223B",
"%  c #481D1E",
"&  c #5A1917",
"*  c #641A17",
"=  c #7A1518",
"-  c #47271C",
";  c #59321C",
":  c #7B2A1C",
">  c #74291B",
",  c #6F2819",
"<  c #442C24",
"1  c #4B2822",
"2  c #562A24",
"3  c #473329",
"4  c #543825",
"5  c #533D34",
"6  c #472A36",
"7  c #683828",
"8  c #7C3C24",
"9  c #7D3D2B",
"0  c #733B2A",
"q  c #693836",
"w  c #783D36",
"e  c #742D24",
"r  c #4C1E20",
"t  c #68461D",
"y  c #734F1F",
"u  c #564636",
"i  c #53432F",
"p  c #694528",
"a  c #774827",
"s  c #785428",
"d  c #664A39",
"f  c #7C4634",
"g  c #6A533A",
"h  c #765638",
"j  c #7A693F",
"k  c #23214B",
"l  c #2C2443",
"z  c #362647",
"x  c #272559",
"c  c #35325A",
"v  c #252765",
"b  c #383867",
"n  c #393B72",
"m  c #3C3E7C",
"M  c #281F42",
"N  c #4A3556",
"B  c #523859",
"V  c #683B48",
"C  c #6A3D58",
"Z  c #733E46",
"A  c #463C6E",
"S  c #6D3F72",
"D  c #3D417E",
"F  c #7A4346",
"G  c #655742",
"H  c #765749",
"J  c #6B4853",
"K  c #7A6845",
"L  c #757357",
"P  c #7F724A",
"I  c #584476",
"U  c #664369",
"Y  c #6D4972",
"T  c #930C0F",
"R  c #940E12",
"E  c #9B0E12",
"W  c #9A1415",
"Q  c #881013",
"!  c #A41116",
"~  c #A91918",
"^  c #B8181D",
"/  c #8F261A",
"(  c #A92319",
")  c #8B2E21",
"_  c #922F23",
"`  c #843C25",
"'  c #8C3D26",
"]  c #863B2A",
"[  c #943A27",
"{  c #8D2F36",
"}  c #AB3635",
"|  c #C41E22",
" . c #CB293B",
".. c #CD273B",
"X. c #D22B3D",
"o. c #D1273C",
"O. c #DA3B36",
"+. c #D4313A",
"@. c #D9323C",
"#. c #DD3A3A",
"$. c #D53C35",
"%. c #CD3339",
"&. c #E23B3D",
"*. c #874528",
"=. c #83592C",
"-. c #975B2B",
";. c #874735",
":. c #8A5639",
">. c #965C36",
",. c #954B2B",
"<. c #A5592D",
"1. c #AE5334",
"2. c #8B6A2A",
"3. c #9A662D",
"4. c #8E752B",
"5. c #92792D",
"6. c #96772D",
"7. c #846736",
"8. c #9D6733",
"9. c #957835",
"0. c #A56635",
"q. c #AA763A",
"w. c #A1602D",
"e. c #DC433C",
"r. c #D9463D",
"t. c #E0403E",
"y. c #94264D",
"u. c #9B2B5D",
"i. c #E43D40",
"p. c #835544",
"a. c #8C7958",
"s. c #8F7E62",
"d. c #D84B4C",
"f. c #D54755",
"g. c #D85854",
"h. c #D04B52",
"j. c #D9665D",
"k. c #C84567",
"l. c #D0466A",
"z. c #9D8535",
"x. c #9F832E",
"c. c #A28836",
"v. c #A7913D",
"b. c #CCA326",
"n. c #CEA629",
"m. c #D3AC2A",
"M. c #D0A827",
"N. c #D9B52D",
"B. c #DEBB2C",
"V. c #D7B12C",
"C. c #D9B532",
"Z. c #DDBB31",
"A. c #D4B038",
"S. c #D2AD33",
"D. c #E1BC2D",
"F. c #E2BF31",
"G. c #E4C32D",
"H. c #E8C72F",
"J. c #E9CA2F",
"K. c #E4C432",
"L. c #EBCC31",
"P. c #E9CD3B",
"I. c #EED036",
"U. c #EED23B",
"Y. c #A78E47",
"T. c #948D6F",
"R. c #B9987C",
"E. c #D49B4E",
"W. c #CD9A49",
"Q. c #D6A55C",
"!. c #D4AC63",
"~. c #DDB56C",
"^. c #D9B369",
"/. c #DEBA70",
"(. c #DDB770",
"). c #E0B56D",
"_. c #E1BB71",
"`. c #E1B770",
"'. c #ECD141",
"]. c #E2CF5D",
"[. c #E5D363",
"{. c #E5D36B",
"}. c #F2E47B",
"|. c #F5E87E",
" X c #F1E377",
".X c #3C3F83",
"XX c #673F80",
"oX c #3E4287",
"OX c #474487",
"+X c #65478D",
"@X c #494DDE",
"#X c #544EDC",
"$X c #5850DF",
"%X c #6750DB",
"&X c #6B50DA",
"*X c #484EE1",
"=X c #4651E5",
"-X c #4A52E5",
";X c #4B55EB",
":X c #4C58EF",
">X c #5352E4",
",X c #5B52E4",
"<X c #5456EC",
"1X c #5B55E9",
"2X c #5258EF",
"3X c #4D58F1",
"4X c #5059F1",
"5X c #504FE1",
"6X c #6252E4",
"7X c #644FE0",
"8X c #B1A58B",
"9X c #A3A185",
"0X c #F6EA80",
"qX c #D5D1BC",
"wX c #DAD1BE",
"eX c #D9CDBB",
"rX c #DAD4C0",
"tX c None",
/* pixels */
"tXtXtXtXtXtXtXtXtXtXtXtXtX= = Q { _ _ _ ) = * tXtXtXtXtXtXtXtXtXtXtXtXtXtXtXtXtXtXtXtXtXtXtXtXtXtXtXtXtXtXtX",
"tXtXtXtXtXtXtXtXtXtXtXtX= Q ) _ ! ! ~ ! E ) = tXtXtXtXtXtXtXtXtXtXtXtXtXtXtXtXtXtXtXtXtXtXtXtXtXtXtXtXtXtXtX",
"tXtXtXtXtXtXtXtXtXtXtXQ : E W ~ X.X.X.o.! R : tXtXtXtXtXtXtXtXtXtXtXtXtXtXtXtXtXtXtXtXtXtXtXtXtXtXtXtXtXtXtX",
"tXtXtXtXtXtXtXtXtXtXtX: W ! o.X.@.@.@.X.X.! R : tXtXtXtXtXtXtXtXtXtXtXtXtXtXtXtXtXtXtXtXtXtXtXtXtXtXtXtXtXtX",
"tXtXtXtXtXtXtXtXtXtX: E ! o.o.@.#.#.#.#.X...E : tXtXtXtXtXtXtXtXtXtXtXtXtXtXtXtXtXtXtXtXtXtXtXtXtXtXtXtXtXtX",
"tXtXtXtXtXtXtXtXtX: T E ..o.@.@.#.&.&.@.@.X.W R : tXtXtXtXtXtXtXtXtXtXtXtXtXtXtXtXtXtXtXtXtXtXtXtXtXtXtXtXtX",
"tXtXtXtXtXtXtXtX> T ! ..o.@.&.&.&.&.&.&.O.X...E : * tXtXtXtXtXtXtXtXtXtXtXtXtXtXtXtXtXtXtXtXtXtXtXtXtXtXtXtX",
"tXtXtXtXtXtXtX: T E ..o.+.&.&.&.i.i.&.&.O.#.+.E : & tXtXtXtXtXtXtXtXtXtXtXtXtXtXtXtXtXtXtXtXtXtXtXtXtXtXtXtX",
"tXtXtXtXtXtX: T E ! o.@.&.&.&.&.&.i.i.&.#.O.%. .R % . .   tXtXtXtXtXtXtXtXtXtXtXtXtXtXtXtXtXtXtXtXtXtXtXtXtX",
"tXtXtXtX, , T E ! ! ^ ^ &.&.&.&.i.i.&.&.t.#. . .R r . .     tXtXtXtXtXtXtXtXtXtXtXtXtXtXtXtXtXtXtXtXtXtXtXtX",
"tXtXtX, T T E ..o.o.@.&.| | &.&.i.i.@.&.#.$.+. .Q r %       tXtXtXtXtXtXtXtXtXtXtXtXtXtXtXtXtXtXtXtXtXtXtXtX",
"tXtX* : T E ....o.@.@.&.&.&.&.&.i.i.t.t.t.$.%.%.2 r % .   tXtXtXtXtXtXtXtXtXtXtXtXtXtXtXtXtXtXtXtXtXtXtXtXtX",
"tX* * ` R  ...o.&.&.&.O.&.&.&.e.t.#.e.e.#.r.$.e 2 1 - . tXtXtXtXtXtXtXtXtXtXtXtXtXtXtXtXtXtXtXtXtXtXtXtXtXtX",
"& & * ) E %.%.O.O.O.O.&.O.&.&.e.e.d.e.e.r.] q 7 2 2 - - + tXtXtXtXtXtXtXtXtXtXtXtXtXtXtXtXtXtXtXtXtXtXtXtXtX",
"; 2 & W W %.e.$.O.O.O.O.&.&.O.e.e.d.;.[ ;.9 w 7 q 2 2 < < tXtXtXtXtXtXtXtXtXtXtXtXtXtXtXtXtXtXtXtXtXtXtXtXtX",
"- 8 ` / W ( $.$.O.O.O.O.O.O.e.' ,.;.1.<.w.<.-.-.=.;.a < < tXtXtXtXtXtXtXtXtXtXtXtXtXtXtXtXtXtXtXtXtXtXtXtXtX",
"; y ' Q.*.W ( ( ( ~ ( ~ ( ( ( <.<.<.0.).~.0.w.3.3.W.!.a 7 X tXtXtXtXtXtXtXtXtXtXtXtXtXtXtXtXtXtXtXtXtXtXtXtX",
"2 ` Q.Q.*.' ' [ [ [ [ [ [ [ ,.-.<.<.).)././.0.8.W.!.!.!.a - tXtXtXtXtXtXtXtXtXtXtXtXtXtXtXtXtXtXtXtXtXtXtXtX",
"2 ` Q.Q.*.' *.[ ' [ [ ' [ ,.,.-.w.).).`./._.q./.8.^.^.!.a < tXtXtXtXtXtXtXtXtXtXtXtXtXtXtXtXtXtXtXtXtXtXtXtX",
"- ; y Q.*.' ` ' ` ` ` ` ' ' ,.-.w.).`._._./.q./.9.^.!.!.a 3 tXtXtXtXtXtXtX2.4.4.5.5.tXtXtXtXtXtXtXtXtXtXtXtX",
"- 4 a a 8 ` ` ` ` ` 8 ` *.*.*.-.w.E._._._.{.q./.=.h ^.!.a < 4 tXtXtXtX4 p s 6.c.z.c.z.z.z.tXtXtXtXtXtXtXtXtX",
"- 1 8 8 8 9 8 8 ` ` ] 9 f ;.:.-.3.0.`.`.(.q._.`.h g !.s a 3 4 ; t 7 p s b.n.m.V.B. X X X}.v.z.tXtXtXtXtXtXtX",
"X < , 0 0 0 9 ] w f w f f f ;.>.3.0.q.q.q.(.(.(.h d =.a p 3 4 t p p s b.M.V.N.F.K. X}.}.|.}.}.Y.c.tXtXtXtXtX",
"X - < 7 0 0 w w f f { Z y.;.>.>.w.E.E.`.`.`.(.H d d f a 3 - 4 p p s b.M.V.N.F.K.P.P.|.|.|.|.}.}.}.v.tXtXtXtX",
"+ @ # 6 6 w w { h.Z Z p.U C F H p.E.E.~.).E.0.:.d :.5 5 3 4 4 p s n.M.V.N.F.J.J.P.P.U.'.0X0X0X}.}. Xv.Y.tXtX",
"O # # # N B { f.h.k.U I %X&X&XH } } <.w.0.0.0.s.a.d 5 5 5 4 d s b.m.V.N.F.H.H.L.L.P.U.U.'.0X0X0X}.}. Xv.c.9.",
"l z z N N y.k.k.I I $X7X%X&XU f.d.d.} r.R.R.s.s.G G d d u i s =.n.m.V.D.H.H.H.L.L.U.U.U.'.'.'.0X|. X X9.c.9.",
"x z b A A 5XA .X,X$X6X6X7XS l.f.d.d.d.i.} 1.1.p.s.s.s.L g h 7.2.m.V.N.D.H.H.L.L.L.I.I.U.U.U.U.P.P.P.F.Z.6.2.",
"x b A .X*X5X>X<X1X1X1X6X6X+Xl.l.f.f.d.d.d.g.1.8X8XqXqXT.g 7.7.S.V.C.D.D.J.J.L.L.L.L.I.I.I.I.U.U.P.P.K.Z.6.2.",
"v n .X*X-X5X5X<X2X1X<X1X6X+Xl.l.f.f.d.d.g.g.j.wXrXqXqXT.K Y.9.A.C.N.D.F.J.J.L.L.L.I.I.L.I.I.L.L.K.K.K.F.3.2.",
"A .XoX-X-X<X;X<X4X1X4X1X1X+Xu.l.l.f.f.d.g.g.j.wXrXrXrXT.P Y.{.A.C.C.D.D.J.J.L.L.L.L.L.L.L.L.L.J.K.K.F.Z.2.2.",
"m .X*X-X;X;X;X3X4X4X4X1X1X1X+XXXu.y.} f.g.g.j.wXrXrXrX8XT.P Y.A.C.B.D.G.J.J.L.L.L.L.L.L.J.L.L.J.G.G.D.D.2.=.",
".XoX;X;X;X3X:X:X:X3X3X3X3X1X6X6XXXS y.} } f.wXwXwXrXrXqXT.j Y.v.[.C.Z.Z.K.J.J.I.L.J.J.J.J.J.H.G.G.B.B.4.=.y ",
"A oX*X;X;X3X:X:X3X3X3X3X4X<X1X6X7X7XS C F J p.K qXwXrXqXqXK P v.[.{.C.Z.Z.F.K.K.J.L.L.H.J.H.G.G.G.N.V.=.y t ",
"m .X=X=X;X=X3X3X3X3X3X3X:X<X<X,X,X7XU V p.:.p.H G 9XqXqX9XG K z.c.[.[.C.Z.Z.F.J.J.J.K.H.H.G.G.B.V.M.=.s p t ",
"n .XoX=X=X;X=X:X:X3X:X3X2X<X<X1X,X$XB Z ;.p.>.:.G G 9XT.L u K P z.z.[.[.C.C.Z.Z.Z.B.G.G.G.N.V.m.M.s a p t tX",
"v n m =X=X=X=X=X;X;X:X:X:X<X;X$X>X$XB Z F f f a 5 u L L i G tXtXj z.z.c.].[.V.V.N.N.N.N.V.V.M.b.s p p t tXtX",
"v b n m *X*X=X=X;X;X;X;X;X;X>X-X,XA N Z q w p 0 5 # @ i tXtXtXtXtXtX4.5.x.c.[.[.V.V.V.m.M.M.b.s p p tXtXtXtX",
"x v c b n D *X=X=X=X=X=X-X-X-X5X5XC J 6 q 0 7 7 @ @ @ tXtXtXtXtXtXtXtXtX4.5.6.x.x.].].x.].s y p tXtXtXtXtXtX",
"tXtXv c v b n n .X=X@X=X*X-X@X#XC Z V q q 7 7 X + X tXtXtXtXtXtXtXtXtXtXtXtXtX5.5.5.5.4.4.2.tXtXtXtXtXtXtXtX",
"tXtXtXx l c b n n n m m m @X@XC C V q q 7 ; X X . tXtXtXtXtXtXtXtXtXtXtXtXtXtXtXtXtXtXtXtXtXtXtXtXtXtXtXtXtX",
"tXtXtXtXtXo $ c c b n n n b c V V q q 7 + . X . tXtXtXtXtXtXtXtXtXtXtXtXtXtXtXtXtXtXtXtXtXtXtXtXtXtXtXtXtXtX",
"tXtXtXtXtXtXk $ k l l x x z z N q q 7 @ + .   tXtXtXtXtXtXtXtXtXtXtXtXtXtXtXtXtXtXtXtXtXtXtXtXtXtXtXtXtXtXtX",
"tXtXtXtXtXtXtXtXk k k k M M O # # @ @ + .     tXtXtXtXtXtXtXtXtXtXtXtXtXtXtXtXtXtXtXtXtXtXtXtXtXtXtXtXtXtXtX",
"tXtXtXtXtXtXtXtXtXtXo M o o O @ @ @ +       tXtXtXtXtXtXtXtXtXtXtXtXtXtXtXtXtXtXtXtXtXtXtXtXtXtXtXtXtXtXtXtX"
};
