/* XPM */
static char *result[] = {
/* columns rows colors chars-per-pixel */
"54 45 218 2 ",
"   c #2B1815",
".  c #371B1B",
"X  c #37221D",
"o  c #241E3B",
"O  c #281C2F",
"+  c #3B2322",
"@  c #392427",
"#  c #372336",
"$  c #29223B",
"%  c #481D1E",
"&  c #5B1A17",
"*  c #641A17",
"=  c #7A1518",
"-  c #47271C",
";  c #59321C",
":  c #7B2A1C",
">  c #74291B",
",  c #6F2819",
"<  c #442C24",
"1  c #4B2822",
"2  c #572A24",
"3  c #473329",
"4  c #543725",
"5  c #533D34",
"6  c #472A36",
"7  c #683828",
"8  c #7C3C24",
"9  c #7D3D2B",
"0  c #733B2A",
"q  c #693836",
"w  c #783D36",
"e  c #742D24",
"r  c #4C1E20",
"t  c #68461D",
"y  c #724F1E",
"u  c #564636",
"i  c #53432F",
"p  c #694528",
"a  c #774827",
"s  c #785428",
"d  c #664A39",
"f  c #7C4634",
"g  c #6A533A",
"h  c #765638",
"j  c #7A693F",
"k  c #23214B",
"l  c #2C2443",
"z  c #362647",
"x  c #272559",
"c  c #35325A",
"v  c #252765",
"b  c #383867",
"n  c #393B72",
"m  c #3C3E7C",
"M  c #281F42",
"N  c #4A3556",
"B  c #523859",
"V  c #683B48",
"C  c #6A3D58",
"Z  c #733E46",
"A  c #463C6E",
"S  c #6D3F72",
"D  c #3D417D",
"F  c #7A4346",
"G  c #655742",
"H  c #765749",
"J  c #6B4853",
"K  c #7A6845",
"L  c #757357",
"P  c #7F724A",
"I  c #584476",
"U  c #664369",
"Y  c #6D4972",
"T  c #930C0F",
"R  c #940E12",
"E  c #9B0E12",
"W  c #9A1415",
"Q  c #881013",
"!  c #A41116",
"~  c #A91918",
"^  c #B8181D",
"/  c #8F261A",
"(  c #A92319",
")  c #8B2E21",
"_  c #922F23",
"`  c #843C25",
"'  c #8C3D26",
"]  c #863B2A",
"[  c #943A27",
"{  c #8D2F36",
"}  c #AB3635",
"|  c #C41E22",
" . c #CB293B",
".. c #CD273B",
"X. c #D22B3D",
"o. c #D1273C",
"O. c #DA3B36",
"+. c #D4313A",
"@. c #D9323C",
"#. c #DD3A3A",
"$. c #D53C35",
"%. c #CD3339",
"&. c #E23B3D",
"*. c #874528",
"=. c #83592C",
"-. c #975B2B",
";. c #874735",
":. c #8A5639",
">. c #965C36",
",. c #954B2B",
"<. c #A5592D",
"1. c #AE5334",
"2. c #8B6A2A",
"3. c #9A662D",
"4. c #8E752B",
"5. c #92792D",
"6. c #96772D",
"7. c #846736",
"8. c #9D6733",
"9. c #957835",
"0. c #A56635",
"q. c #AA763A",
"w. c #A1602D",
"e. c #DC433C",
"r. c #D9463D",
"t. c #E0403E",
"y. c #94264D",
"u. c #9B2B5D",
"i. c #E43D40",
"p. c #835544",
"a. c #8C7958",
"s. c #8F7E62",
"d. c #D84B4C",
"f. c #D54755",
"g. c #D85854",
"h. c #D04B52",
"j. c #D9665D",
"k. c #C84567",
"l. c #D0466A",
"z. c #9D8535",
"x. c #9F832E",
"c. c #A28836",
"v. c #A7913D",
"b. c #CCA326",
"n. c #CEA629",
"m. c #D3AC2A",
"M. c #D0A827",
"N. c #D9B52D",
"B. c #DEBB2C",
"V. c #D7B12C",
"C. c #D9B532",
"Z. c #DDBB31",
"A. c #D4B038",
"S. c #D2AD33",
"D. c #E1BC2D",
"F. c #E2BF31",
"G. c #E4C32D",
"H. c #E8C72F",
"J. c #E9CA2F",
"K. c #E4C432",
"L. c #EBCC31",
"P. c #E9CD3B",
"I. c #EED036",
"U. c #EED23B",
"Y. c #A78E47",
"T. c #948D6F",
"R. c #B9987C",
"E. c #D49B4E",
"W. c #CD9A49",
"Q. c #D6A55C",
"!. c #D4AC63",
"~. c #DDB56C",
"^. c #D9B369",
"/. c #DEBA70",
"(. c #DDB770",
"). c #E0B56D",
"_. c #E1BB71",
"`. c #E1B770",
"'. c #ECD141",
"]. c #E2CF5D",
"[. c #E5D363",
"{. c #E5D36B",
"}. c #F2E47B",
"|. c #F5E87E",
" X c #F1E377",
".X c #3C3F83",
"XX c #673F80",
"oX c #3E4287",
"OX c #474487",
"+X c #65478D",
"@X c #494DDE",
"#X c #544EDC",
"$X c #5850DF",
"%X c #6750DB",
"&X c #6B50DA",
"*X c #484EE1",
"=X c #4651E5",
"-X c #4A52E5",
";X c #4B55EB",
":X c #4C58EF",
">X c #5352E4",
",X c #5B52E4",
"<X c #5456EC",
"1X c #5B55E9",
"2X c #5258EF",
"3X c #4D58F1",
"4X c #5059F1",
"5X c #504FE1",
"6X c #6252E4",
"7X c #644FE0",
"8X c #B1A58B",
"9X c #A3A185",
"0X c #F6EA80",
"qX c #D5D1BC",
"wX c #DAD1BE",
"eX c #D9CDBB",
"rX c #DAD4C0",
"tX c None",
/* pixels */
"tXtXtXtXtXtXtXtXtXtXtXtXtXtXtXtXtXtXtXtXtXtXtXtXtXtXtXtXtXtXtX= = ) ) _ _ _ Q = = tXtXtXtXtXtXtXtXtXtXtXtXtX",
"tXtXtXtXtXtXtXtXtXtXtXtXtXtXtXtXtXtXtXtXtXtXtXtXtXtXtXtXtXtXtX= ) E E ! ~ ~ _ ) = = tXtXtXtXtXtXtXtXtXtXtXtX",
"tXtXtXtXtXtXtXtXtXtXtXtXtXtXtXtXtXtXtXtXtXtXtXtXtXtXtXtXtXtXtX: E ! o.o.o.X.! ! E : = tXtXtXtXtXtXtXtXtXtXtX",
"tXtXtXtXtXtXtXtXtXtXtXtXtXtXtXtXtXtXtXtXtXtXtXtXtXtXtXtXtXtX: R ! o.+.+.@.+.X.X.! R ) tXtXtXtXtXtXtXtXtXtXtX",
"tXtXtXtXtXtXtXtXtXtXtXtXtXtXtXtXtXtXtXtXtXtXtXtXtXtXtXtXtXtX: E ..+.O.O.@.#.@.o.o.E R : tXtXtXtXtXtXtXtXtXtX",
"tXtXtXtXtXtXtXtXtXtXtXtXtXtXtXtXtXtXtXtXtXtXtXtXtXtXtXtXtX> R ! o.+.&.&.&.&.&.@.X.o.E R : tXtXtXtXtXtXtXtXtX",
"tXtXtXtXtXtXtXtXtXtXtXtXtXtXtXtXtXtXtXtXtXtXtXtXtXtXtXtX* : R  .X.&.&.&.&.&.#.#.@.X.o.E R > tXtXtXtXtXtXtXtX",
"tXtXtXtXtXtXtXtXtXtXtXtXtXtXtXtXtXtXtXtXtXtXtXtXtXtXtXtX& : W X.O.&.&.&.&.&.&.&.&.X.X.o.E R : tXtXtXtXtXtXtX",
"tXtXtXtXtXtXtXtXtXtXtXtXtXtXtXtXtXtXtXtXtXtXtXtXtX  . . % R ....#.#.&.&.i.i.i.&.&.@.o.o.! E T : tXtXtXtXtXtX",
"tXtXtXtXtXtXtXtXtXtXtXtXtXtXtXtXtXtXtXtXtXtXtXtX    . . r R  .X.#.#.&.&.i.i.i.&.&.&.^ ^ ! ! E T : , tXtXtXtX",
"tXtXtXtXtXtXtXtXtXtXtXtXtXtXtXtXtXtXtXtXtXtXtXtX    . . r R  .%.$.t.#.&.i.i.i.i.| | #.@.o.o...E T T , tXtXtX",
"tXtXtXtXtXtXtXtXtXtXtXtXtXtXtXtXtXtXtXtXtXtXtXtXtX  . + 1 2 %.+.#.#.#.#.t.&.&.#.&.&.&.&.O.o.....T T : * tXtX",
"tXtXtXtXtXtXtXtXtXtXtXtXtXtXtXtXtXtXtXtXtXtXtXtXtXtX. % 1 2 e r.#.r.#.e.t.t.t.t.&.&.&.O.O.@.o... .T ) * & tX",
"tXtXtXtXtXtXtXtXtXtXtXtXtXtXtXtXtXtXtXtXtXtXtXtXtXX X - 2 2 e q 9 d.d.r.e.e.t.t.&.O.&.O.&.O.O.+.%.W ) * * & ",
"tXtXtXtXtXtXtXtXtXtXtXtXtXtXtXtXtXtXtXtXtXtXtXtXtX- 1 4 4 7 q w ;.] ;.[ r.e.t.O.&.&.O.O.O.O.$.$.%.W / 2 ; & ",
"tXtXtXtXtXtXtXtXtXtXtXtXtXtXtXtXtXtXtXtXtXtXtXtXtX< 3 a f *.-.-.<.<.<.<.,.,.[ O.O.O.O.O.$.O.$.$.~ W / ' 8 - ",
"tXtXtXtXtXtXtXtXtXtXtXtXtXtXtXtXtXtXtXtXtXtXtXtX+ p y Q.W.2.3.w.0.(.~.<.1.<.<.( ( ( ( ( ~ ( ( ( ( ' Q.` 8 ; ",
"tXtXtXtXtXtXtXtXtXtXtXtXtXtXtXtXtXtXtXtXtXtXtXtX- a !.!.!.W.8.0.`.(.).).0.<.<.,.[ [ [ [ [ [ [ ' ` *.Q.Q.a 4 ",
"tXtXtXtXtXtXtXtXtXtXtXtXtXtXtXtXtXtXtXtXtXtXtXtX< a !.^.^.0./.q._._.`.`.).w.-.,.,.' [ [ ' ' ' ' ` *.Q.Q.` 4 ",
"tXtXtXtXtXtXtXtXtXtXtXtX5.5.4.4.2.tXtXtXtXtXtXtX3 a !.!.^.9./.q._._._.`.~.w.-.,.' ' ` ` ` ' ' ` ` *.Q.*.; - ",
"tXtXtXtXtXtXtXtXtXz.z.z.z.z.x.x.s y 4 tXtXtXtX4 < a !.^.h 7./.q.{.`._.(.E.3.-.,.*.` 9 ` ` ` ` ` ` 8 ` y 4 - ",
"tXtXtXtXtXtXtXz.v.}.}.}. XZ.V.m.n.b.s p 4 t 4 4 3 a a !.g h /./.q.`._._.8.3.>.,.;.] *.` 9 9 8 ` a 8 8 8 < - ",
"tXtXtXtXtXz.v.}.}.}.|.}. XF.F.V.m.n.b.s p p 4 ; < a f s d h ^././.q.q.0.0.8.>.;.f f w f w w 9 8 8 0 > 7 X - ",
"tXtXtXtXz.}.}.|.|.|.|.|.P.P.K.K.C.V.m.b.s a p 4 4 3 a f d g h /./.`.`.E.E.8.>.>.;.F y.d w ;.w w 0 0 0 - X X ",
"tXtXY.v. X X0X0X0X0X'.U.U.U.H.H.G.N.V.M.n.s a ; 4 3 5 5 f g h 8.E.).).E.E.p.F J J U J F Z  .{ w q 6 6 @ @ @ ",
"9.Y.c.}. X|.|.0X|.'.U.U.U.I.L.J.H.G.N.V.n.n.s d 4 4 5 5 d a.s.8.0.<.1.0.} } p.&X&X7XU U k.k.k.Z B B # # # O ",
"9.c.9.}.}.|.|.'.U.U.I.I.I.I.J.J.H.G.B.V.m.n.h s u i u u d H s.s.R.R.$.} d.d.f.Y &X%X%X%XI I k.k.y.c N l z $ ",
"2.6.Z.F.P.P.P.U.U.I.I.I.I.L.I.J.J.H.D.B.V.S.2.7.h g T.a.s.s.p.1.1.1.r.d.d.d.f.k.Y 7X,X,X,X%X+XA @XI I c x x ",
"2.6.Z.K.K.P.P.P.I.I.I.I.I.L.L.L.H.H.D.D.C.V.S.7.j g T.qXrX8X8X1.g.g.d.d.f.l.l.l.Y 6X1X,X>X,X>X>X5X5XA m A x ",
"2.6.Z.K.K.P.P.L.I.L.I.I.I.L.J.J.J.J.F.D.C.C.S.9.Y.K T.rXwXwXeXj.g.d.d.d.f.l.l.l.+X1X1X1X<X<X<X>X-X-X=XA b v ",
"2.2.B.K.G.K.J.J.L.L.L.L.L.L.L.L.L.K.F.D.C.C.S.{.Y.P R.rXrXwXwXj.j.g.f.i.f.l.l.u.+X6X1X<X<X3X<X;X;X-X=XoX.Xm ",
"s 3.B.D.G.H.J.J.L.L.L.L.L.L.L.L.L.F.F.D.C.C.A.Y.P T.8XrXrXwXwXj.g.f.f.} y.u.+X+X1X1X<X2X<X3X3X<X;X;X-X=X.XA ",
"s 2.2.N.B.G.G.G.J.J.J.J.J.J.J.J.J.F.Z.Z.C.{.v.Y.K T.qXqXrXrXeXeXg.} y.y.S S 6X6X<X<X2X4X4X3X3X3X=X3X=X=XoXoX",
"t a =.N.B.G.G.G.G.J.J.J.J.J.J.J.F.Z.Z.C.{.{.v.K j qXqXqXrXwXK H F F J Y 7X7X6X1X<X2X4X4X4X3X3X3X3X3X=X=XoXoX",
"t p s =.M.m.B.G.G.G.H.G.J.K.J.K.Z.Z.C.[.[.z.z.K G 9XqXqX9XH H p.>.p.V U 7X7X1X<X<X2X4X3X3X3X;X3X=X=X=X=XoXD ",
"tXt 7 s s M.m.V.B.G.G.G.B.B.Z.Z.C.C.[.].z.z.K K u L 9XT.G g 7.:.p.F F B $X,X,X<X<X4X4X3X;X3X;X;X=X=X=X.XD D ",
"tXtXt p p s b.M.m.N.N.N.N.C.V.C.[.].c.x.5.7.tXtXG i L L u u s f w Z Z N $X$X>X-X;X3X3X;X;X3X;X=X=X=X*Xm n v ",
"tXtXtXtXp p s b.M.m.m.m.V.V.[.[.c.z.5.5.tXtXtXtXtXtX3 3 3 # q a w w w N A 5X>X-X;X;X=X=X;X=X=X=X=X*Xn n b v ",
"tXtXtXtXtXtXp a s ].x.].].x.x.5.5.5.tXtXtXtXtXtXtXtXtX3 # @ p 4 7 q N V C ,X5X5X=X=X=X=X=X=X=X=Xm n b b v x ",
"tXtXtXtXtXtXtXtX2.4.5.5.5.5.5.tXtXtXtXtXtXtXtXtXtXtXtXtXX X X p 7 7 7 Z C C 5X5X*X=X*X*X*X.X.Xn b b c x tXtX",
"tXtXtXtXtXtXtXtXtXtXtXtXtXtXtXtXtXtXtXtXtXtXtXtXtXtXtXtXtXX X X 2 7 q q V V C #X*X.Xm m m n b b c l x tXtXtX",
"tXtXtXtXtXtXtXtXtXtXtXtXtXtXtXtXtXtXtXtXtXtXtXtXtXtXtXtXtXtX  X + @ 7 q q V V c A b A n b c c M $ tXtXtXtXtX",
"tXtXtXtXtXtXtXtXtXtXtXtXtXtXtXtXtXtXtXtXtXtXtXtXtXtXtXtXtXtXtX  . . @ 7 q q z z z x x k l l o k tXtXtXtXtXtX",
"tXtXtXtXtXtXtXtXtXtXtXtXtXtXtXtXtXtXtXtXtXtXtXtXtXtXtXtXtXtXtX    + @ @ @ # # # M k k k k k tXtXtXtXtXtXtXtX",
"tXtXtXtXtXtXtXtXtXtXtXtXtXtXtXtXtXtXtXtXtXtXtXtXtXtXtXtXtXtXtXtX      X @ @ # O o o o o tXtXtXtXtXtXtXtXtXtX"
};
