/* XPM */
static char *result[] = {
/* columns rows colors chars-per-pixel */
"61 72 226 2 ",
"   c #2D1B19",
".  c #281713",
"X  c #331F1B",
"o  c #35231A",
"O  c #3A241D",
"+  c #3D2A1E",
"@  c #2D1E24",
"#  c #362A28",
"$  c #312533",
"%  c #1E1414",
"&  c #422B1D",
"*  c #5B3C1D",
"=  c #53371C",
"-  c #49301D",
";  c #482C26",
":  c #563925",
">  c #492A30",
",  c #67302E",
"<  c #542E1D",
"1  c #69491D",
"2  c #794B1E",
"3  c #73511E",
"4  c #4C4524",
"5  c #584827",
"6  c #5B532A",
"7  c #505137",
"8  c #67472A",
"9  c #754B29",
"0  c #6C5B2B",
"q  c #665529",
"w  c #765629",
"e  c #694D34",
"r  c #744E33",
"t  c #695836",
"y  c #735434",
"u  c #795836",
"i  c #75622C",
"p  c #7C662C",
"a  c #6C6233",
"s  c #786739",
"d  c #6F622F",
"f  c #51411E",
"g  c #363559",
"h  c #30274E",
"j  c #3A3969",
"k  c #363671",
"l  c #403C6C",
"z  c #3E415A",
"x  c #585749",
"c  c #4D4E4F",
"v  c #6B5648",
"b  c #745845",
"n  c #685A54",
"m  c #6C564D",
"M  c #596243",
"N  c #666946",
"B  c #766C48",
"V  c #48486A",
"C  c #575A67",
"Z  c #454870",
"A  c #655A76",
"S  c #736871",
"D  c #983518",
"F  c #8C3315",
"G  c #AA371B",
"H  c #B33C1E",
"J  c #923C35",
"K  c #A63726",
"L  c #844D1F",
"P  c #894E22",
"I  c #855529",
"U  c #835D39",
"Y  c #965E3A",
"T  c #955027",
"R  c #A7452A",
"E  c #B34D32",
"W  c #846B2E",
"Q  c #896739",
"!  c #95683B",
"~  c #8A7837",
"^  c #967737",
"/  c #8B702F",
"(  c #AF7F2C",
")  c #C6512E",
"_  c #C75733",
"`  c #C44B30",
"'  c #B15048",
"]  c #8A6844",
"[  c #8D7744",
"{  c #957946",
"}  c #8E674E",
"|  c #85656A",
" . c #925F42",
".. c #DC4D43",
"X. c #D54E44",
"o. c #CB5443",
"O. c #DB5245",
"+. c #DC5B4C",
"@. c #D9564A",
"#. c #D85953",
"$. c #CD5555",
"%. c #E2554A",
"&. c #E25C4D",
"*. c #E05347",
"=. c #E25D54",
"-. c #E14E47",
";. c #DB6154",
":. c #DC6459",
">. c #DE695F",
",. c #DB604F",
"<. c #E2624F",
"1. c #E3655C",
"2. c #CB5A66",
"3. c #D0576D",
"4. c #D96C65",
"5. c #E36D64",
"6. c #E47C74",
"7. c #E3756D",
"8. c #7A846C",
"9. c #96863C",
"0. c #B79034",
"q. c #C49A2F",
"w. c #C79A33",
"e. c #CFA82E",
"r. c #CCA233",
"t. c #CEA936",
"y. c #D3AB34",
"u. c #D4AB36",
"i. c #DBB435",
"p. c #DEB936",
"a. c #DDB83A",
"s. c #D1AB2D",
"d. c #E3BD36",
"f. c #E4BE39",
"g. c #E5C236",
"h. c #E6C23B",
"j. c #E9C638",
"k. c #998843",
"l. c #9B8C54",
"z. c #A3864C",
"x. c #B28A4D",
"c. c #A7964A",
"v. c #A58951",
"b. c #AF9853",
"n. c #B6A255",
"m. c #878B75",
"M. c #93947B",
"N. c #8D8B74",
"B. c #B18B79",
"V. c #CB9651",
"C. c #CEA744",
"Z. c #DAB74A",
"A. c #C6AA5A",
"S. c #C9B15D",
"D. c #D2AA4D",
"F. c #E1BE46",
"G. c #E4847C",
"H. c #D9A668",
"J. c #D9AE76",
"K. c #DAB476",
"L. c #DBB67B",
"P. c #DDB97C",
"I. c #D4B974",
"U. c #CAB065",
"Y. c #E3B47B",
"T. c #E2B176",
"R. c #E0AE79",
"E. c #DF8077",
"W. c #E7C645",
"Q. c #E7C753",
"!. c #DCC675",
"~. c #E4CD77",
"^. c #E5D37A",
"/. c #474583",
"(. c #726385",
"). c #7B5AAA",
"_. c #484DDE",
"`. c #5559DC",
"'. c #4A52DF",
"]. c #5C62DA",
"[. c #786BDD",
"{. c #6868DB",
"}. c #4D53E4",
"|. c #4F57E9",
" X c #565AE8",
".X c #4C4FE1",
"XX c #645DE4",
"oX c #5C62EA",
"OX c #6663E7",
"+X c #7268E1",
"@X c #8C6F88",
"#X c #816AD8",
"$X c #A4A497",
"%X c #B8B4B5",
"&X c #A49681",
"*X c #DCB582",
"=X c #DFBA85",
"-X c #D5B59A",
";X c #E1BB83",
":X c #E2BD8A",
">X c #E1B383",
",X c #E1AF81",
"<X c #D4B5A8",
"1X c #C9B7B7",
"2X c #E4C386",
"3X c #E9D784",
"4X c #F2E48C",
"5X c #F3E693",
"6X c #F6EA9C",
"7X c #F6EB99",
"8X c #D9C7BD",
"9X c #F8EEA1",
"0X c #F7EDA0",
"qX c #D4D3CC",
"wX c #DBD4CC",
"eX c #D6D4D3",
"rX c #DDDADA",
"tX c #DAD5D4",
"yX c #CBC8C7",
"uX c #E3D4D2",
"iX c #E3DBDC",
"pX c #E6D8D5",
"aX c #E4D2CB",
"sX c #E3E0E0",
"dX c #E4DFE0",
"fX c None",
/* pixels */
"fXfXfXfXfXfXfXfXfXfXfXq y s { v.l.l.~ [ [ fXfXfXfXfXfXfXfXfXfXfXfXfXfXfXfXfXfXfXfXfXfXfXfXfXfXfXfXfXfXfXfXfXfXfXfXfXfXfXfX",
"fXfXfXfXfXfXfXfXfXfX8 y y U } v.b.b.x.v.k.{ fXfXfXfXfXfXfXfXfXfXfXfXfXfXfXfXfXfXfXfXfXfXfXfXfXfXfXfXfXfXfXfXfXfXfXfXfXfXfX",
"fXfXfXfXfXfXfXfXfX8 8 y u [ { 3X3Xn.n.b.c.k.k.fXfXfXfXfXfXfXfXfXfXfXfXfXfXfXfXfXfXfXfXfXfXfXfXfXfXfXfXfXfXfXfXfXfXfXfXfXfX",
"fXfXfXfXfXfXfXfX8 8 9 u ] !.3X!.5X5X7Xn.b.c.k.fXfXfXfXfXfXfXfXfXfXfXfXfXfXfXfXfXfXfXfXfXfXfXfXfXfXfXfXfXfXfXfXfXfXfXfXfXfX",
"fXfXfXfXfXfXfX* * 9 u Q V.I.!.5X5X6X5X5X5Xn.c.9.fXfXfXfXfXfXfXfXfXfXfXfXfXfXfXfXfXfXfXfXfXfXfXfXfXfXfXfXfXfXfXfXfXfXfXfXfX",
"fXfXfXfX; : 1 8 r u t.w.C.^.3X5X6X7X6X6X5X4Xn.c.k.fXfXfXfXfXfXfXfXfXfXfXfXfXfXfXfXfXfXfXfXfXfXfXfXfXfXfXfXfXfXfXfXfXfXfXfX",
"fXfXfX< : : 8 9 I t.u.Z.D.3X3X6X7X0X0X0X7X7X4Xn.c.9.fXfXfXfXfXfXfXfXfXfXfXfXfXfXfXfXfXfXfXfXfXfXfXfXfXfXfXfXfXfXfXfXfXfXfX",
"fXfX; : , W ! I y.u.a.t.Z.!.!.3X0X0X0X0X0X7X5X4Xc.k.fXfXfXfXfXfXfXfXfXfXfXfXfXfXfXfXfXfXfXfXfXfXfXfXfXfXfXfXfXfXfXfXfXfXfX",
"fXfX: , Y ( T w.u.i.a.C.W.F.^.4X5X0X0X0X0X0X6X5Xn.c.9.fXfXfXfXfXfXfXfXfXfXfXfXfXfXfXfXfXfXfXfXfXfXfXfXfXfXfXfXfXfXfXfXfXfX",
"fX= : 8 / P q.i.i.d.u.W.W.F.~.4X4X5X0X0X0X0X6X5X4Xc.k.fXfXfXfXfXfXfXfXfXfXfXfXfXfXfXfXfXfXfXfXfXfXfXfXfXfXfXfXfXfXfXfXfXfX",
"- * : 9 9 w.r.i.d.f.f.f.W.W.Z.~.7X5X3X0X0X0X7X5X4Xc.9.fXfXfXfXfXfXfXfXfXfXfXfXfXfXfXfXfXfXfXfXfXfXfXfXfXfXfXfXfXfXfXfXfXfX",
"< * 9 9 I e.s.i.d.d.f.f.W.W.W.Q.^.^.3X4X0X7X7X5X4Xc.k.9.fXfXfXfXfXfXfXfXfXfXfXfXfXfXfXfXfXfXfXfXfXfXfXfXfXfXfXfXfXfXfXfXfX",
"= * 9 I w.r.s.d.d.f.j.f.f.j.W.Q.F.Q.4X4X4X3X5X5X^.^.9.9.fXfXfXfXfXfXfXfXfXfXfXfXfXfXfXfXfXfXfXfXfXfXfXfXfXfXfXfXfXfXfXfXfX",
"* 8 9 U w.w.u.d.d.f.d.i.j.h.W.W.W.Q.^.5X3X!.!.^.I.~.9.p fXfXfXfXfXfXfXfXfXfXfXfXfXfXfXfXfXfXfXfXfXfXfXfXfXfXfXfXfXfXfXfXfX",
"9 9 I w.q.w.i.d.d.d.d.i.j.j.j.W.F.F.F.!.!.!.!.^.^.~ a fXfXfXfXfXfXfXfXfXfXfXfXfXfXfXfXfXfXfXfXfXfXfXfXfXfXfXfXfXfXfXfXfXfX",
"r u U r.w.u.i.d.i.i.d.j.f.f.j.f.p.W.W.F.Z.Z.C.U.9.s a fXfXfXfXfXfXfXfXfXfXfXfXfXfXfXfXfXfXfXfXfXfXfXfXfXfXfXfXfXfXfXfXfXfX",
"r r A.w.V.u.i.i.i.i.g.g.f.j.d.j.j.f.h.W.F.C.t.~ s i fXfXfXfXfXfXfXfXfXfXfXfXfXfXfXfXfXfXfXfXfXfXfXfXfXfXfXfXfXfXfXfXfXfXfX",
"r U U w.w.u.i.u.i.g.g.g.f.g.g.g.f.j.h.h.t.p.p.s i q fXfXfXfXfXfXfXfXfXfXfXfXfXfXfXfXfXfXfXfXfXfXfXfXfXfXfXfXfXfXfXfXfXfXfX",
"r u A.0.u.u.u.u.d.h.g.h.f.f.d.g.j.g.g.h.p.p.~ p 0 1 fXfXfXfXfXfXfXfXfXfXfXfXfXfXfXfXfXfXfXfXfXfXfXfXfXfXfXfXfXfXfXfXfXfXfX",
"r I A.H.u.i.r.d.p.g.g.g.g.g.g.i.f.f.d.0.^ ~ W i 8 : fXfXfXfXfXfXfXfXfXfXfXfXfXfXfXfXfXfXfXfXfXfXfXfXfXfXfXfXfXfXfXfXfXfXfX",
"e y u A.t.u.i.a.p.p.g.g.g.i.s.g.d.d.e.e.r./ W i * : fXfXfXfXfXfXfXfXfXfXfXfXfXfXfXfXfXfXfXfXfXfXfXfXfXfXfXfXfXfXfXfXfXfXfX",
"* y u W U.u.w.u.a.a.p.p.y.s.g.d.p.0.q.q.q.9.p w 0 : fXfXfXfXfXfXfXfXfXfXfXfXfXfXfXfXfXfXfXfXfXfXfXfXfXfXfXfXfXfXfXfXfXfXfX",
": 8 y u S.S.w.t.i.i.y.y.t.i.i.s.s./ q.q.q.0.9.i 0 q : 7 fXfXfXfX7 7 7 fXfXfXfXfXfXfXfX2 2 2 2 fXfXfXfXfXfXfXfXfXfXfXfXfXfX",
": : q y i A.S.y.y.r.r.t.s.s.s.s./ / W p q.s.s./ i d t x n N M M 8.8.8.M x 7 e , , 9 P D D D D I 9 fXfXfXfXfXfXfXfXfXfXfXfX",
"fXfX5 q 0 w W S.S.t.t.s.e.e.W p p i i i i 0.s.e./ a s B M N 8.M.$X$X$X8.8.M N t I T G X.o.X.D D D 2 fXfXfXfXfXfXfXfXfXfXfX",
"fXfXfXfXq q d i A.A.p A.A.p i 3 3 1 * 0 0 0 0.e.s.9.B N M.M.rXqXqXyXqXqX&X8.b ] R R o.X.@.o.o.o.D F 9 O fXfXfXfXfXfXfXfXfX",
"fXfXfXfXfX6 q q 0 0 i d 0 q q q * * * * q q 0 0.t.Z.l.M.M.eXeXeX%XeXeXeXeX&XM.E E $.#.@.@.8X8X8Xo._ F 1 o   % % fXfXfXfXfX",
"fXfXfXfXfXfXfX6 q q 6 q q 6 fXfXfXfXfXfXfX6 q a 0.Z.B M.eXeXeXrX%XrXrX%XwXwXB.' :.;.,.+.8X8X8XR 8Xo.4 ; o     % % fXfXfXfX",
"fXfXfXfXfXfXfXfXfXfXfXfXfXfXfXfXfXfXfXfXfXfX6 t N N M.qXwXrXrX8XsXsXrX1XtXwX&XB.>.:.;.;.8XE E R K 6 5 4 o     . fXfXfXfXfX",
"fXfXfXfXfXfXfXfXfXfXfXfXfXfXfXfXfXfXfXfXfXfXfXt v N M.qXqXrXrXsXsXsX1XiXrXaXaXB.>.:.:.;.8XqXE u t e 5 4 + o   fXfXfXfXfXfX",
"fXfXfXfXfXfXfXfXfXfXfXfXfXfXfXfXfXfXfXfXfXfXfXfXn N M.qXeXrXsXsXsXdXiXpXuXuXaXB.1.>.;.;.;.8XU b t t 6 4 - # o fXfXfXfXfXfX",
"fXfXfXfXfXfXfXfXfXfXfXfXfXfXfXfXfXfXfXfXfXfXfXfXfXM m.qXeXrXrXrXiXiXpXuXuXaX7.@.>.1.#.;.;.Q U s a t q 7 4 ; + & fXfXfXfXfX",
"fXfXfXfXfXfXfXfXfXfXfXfXfXfXfXfXfXfXfXfXfXfXfXfXfX7 8.qXqXtXtXrXiXpXpXuXG.7.5.o.:.+.;.;.Q  .] u s J.I.6 6 : : : ; fXfXfXfX",
"fXfXfXfXfXfXfXfXfXfXfXfXfXfXfXfXfXfXfXfXfXfXfXfXfXfXM m.yXqXeXuXuXuXG.G.7.5.5._ ` =.;.Y ] Q Q K.I.J.L.Q a t 6 6 6 6 fXfXfX",
"fXfXfXfXfXfXfXfXfXfXfXfXfXfXfXfXfXfXfXfXfXfXfXfXfXfXfXN N.$XwXwX6.6.6.5.5.1.1.=.` &.Y ! ] L.L.L.L.L.L.s s ^ Q / W 6 6 8 8 ",
"fXfXfXfXfXfXfXfXfXfXfXfXfXfXfXfXfXfXfXfXfXfXfXfXfXfXfXfXN | N.4.4.7.>.5.1.=.=.&.` =.Y ! R.Y.{ [ P.*X;X{ { { D.K.J.~ Q q e ",
"fXfXfXfXfXfXfXfXfXfXfXfXfXfXfXfXfXfXfXfXfXfXfXfXfXfXfXfXfXt b E :.#.=.=.=.=.%.%.` ) E Y.Y.Y.{ { x.2X;Xx.x.=X=XP.L.L.^ ^ t ",
"fXfXfXfXfXfXfXfXfXfXfXfXfXfXfXfXfXfXfXfXfXfXfXfXfXfXfXfXfXfXb T R #.#.@.-.-.%.%.&.) Y.Y.,X:Xx.z.l.2X:X2X2X2X=X*XP.P.V.^ a ",
"fXfXfXfXfXfXfXfXfXfXfXfXfXfXfXfXfXfXfXfXfXfXfXfXfXfXfXfXfXfXfXT G X.....-.-.%.%.<.) Y.,X,X>X2Xz.v.2X:X2X:X:X:X=X*X*XP.^ a ",
"fXfXfXfXfXfXfXfXfXfXfXfXfXfXfXfXfXfXfXfXfXfXfXfXfXfXfXfXfXfXfX, T G ....-.-.%.%.<.) _ Y.>X>X:X;X2X:X:X:X2X:X:X:X*X*XY.^ a ",
"fXfXfXfXfXfXfXfXfXfXfXfXfXfXfXfXfXfXfXfXfXfXfXfXfXfXfXfXfXfXfXfXP T G ` ..-.-.%.<.<._ Y.,X>X>X:X:X:X:X:X:X:X;X=X*XP.D.^ t ",
"fXfXfXfXfXfXfXfXfXfXfXfXfXfXfXfXfXfXfXfXfXfXfXfXfXfXfXfXfXfXfXfX2 P G -...-.*.%.&.<._ Y.Y.;X;X;X*X=X=X;X=X:X*XP.P.K.^ a y ",
"fXfXfXfXfXfXfXfXfXfXfXfXfXfXfXfXfXfXfXfXfXfXfXfXfXfXfXfXfXfXfXfX2 L R G -.-.O.%.&.<._ _ Y.Y.{ { ;X=X2X;X*X*XP.P.A.^ a y e ",
"fXfXfXfXfXfXfXfXfXfXfXfXfXfXfXfXfXfXfXfXfXfXfXfXfXfXfXfXfXfXfXfXfXL 9 G H _ %.%.*.<.<._ T. .{ [ [ [ { P.L.L.A.s y q e fXfX",
"fXfXfXfXfXfXfXfXfXfXfXfXfXfXfXfXfXfXfXfXfXfXfXfXfXfXfXfXfXfXfXfXfX* P H.H O.O.%.*.&.<.) T.! ! Q Q ] B s s a a 6 6 e fXfXfX",
"fXfXfXfXfXfXfXfXfXfXfXfXfXfXfXfXfXfXfXfXfXfXfXfXfXfXfXfXfXfXfXfXfX= P H.H.H O.O.*.*._ ) ) T.Q Q s s s s a 6 6 7 5 fXfXfXfX",
"fXfXfXfXfXfXfXfXfXfXfXfXfXfXfXfXfXfXfXfXfXfXfXfXfXfXfXfXfXfXfXfXfX- 3 w.H.H H @.*.&.*.+.E T.J.T.s a a t t 5 4 : fXfXfXfXfX",
"fXfXfXfXfXfXfXfXfXfXfXfXfXfXfXfXfXfXfXfXfXfXfXfXfXfXfXfXfXfXfXfXfXfXf I H.H.H O.O.O.*.+.` T.J.J.J.J.J.p p > > fXfXfXfXfXfX",
"fXfXfXfXfXfXfXfXfXfXfXfXfXfXfXfXfXfXfXfXfXfXfXfXfXfXfXfXfXfXfXfXfXfX& 2 I T H.H ....-.#.` E H.V.V. .Q U u > > fXfXfXfXfXfX",
"fXfXfXfXfXfXfXfXfXfXfXfXfXfXfXfXfXfXfXfXfXfXfXfXfXfXfXfXfXfXfXfXfXfXfX& : P T K X...$.-.#.K | | } } $.U x x $ fXfXfXfXfXfX",
"fXfXfXfXfXfXfXfXfXfXfXfXfXfXfXfXfXfXfXfXfXfXfXfXfXfXfXfXfXfXfXfXfXfXfXfXfX: , T K -.$.#.3.' | #XS 2.2.2.J c x $ fXfXfXfXfX",
"fXfXfXfXfXfXfXfXfXfXfXfXfXfXfXfXfXfXfXfXfXfXfXfXfXfXfXfXfXfXfXfXfXfXfXfXfX, , T K $.-.$.3.' | #X#XS 2.2.2.U x c fXfXfXfXfX",
"fXfXfXfXfXfXfXfXfXfXfXfXfXfXfXfXfXfXfXfXfXfXfXfXfXfXfXfXfXfXfXfXfXfXfXfXfXfX, m J $.3.3.3.3.).#X[.[.S S S C x c c fXfXfXfX",
"fXfXfXfXfXfXfXfXfXfXfXfXfXfXfXfXfXfXfXfXfXfXfXfXfXfXfXfXfXfXfXfXfXfXfXfXfXfX> c n 3.3.3.3.@X+X+X[.[.[.{.{.].].C e fXfXfXfX",
"fXfXfXfXfXfXfXfXfXfXfXfXfXfXfXfXfXfXfXfXfXfXfXfXfXfXfXfXfXfXfXfXfXfXfXfXfXfXc m V A /.(.+X+XOX#X@X-X-X+XOX].].m v e fXfXfX",
"fXfXfXfXfXfXfXfXfXfXfXfXfXfXfXfXfXfXfXfXfXfXfXfXfXfXfXfXfXfXfXfXfXfXfXfXfXfXh z `.XXXXXXOXOXOXOX-X-X-X-XOX].].I.m v fXfXfX",
"fXfXfXfXfXfXfXfXfXfXfXfXfXfXfXfXfXfXfXfXfXfXfXfXfXfXfXfXfXfXfXfXfXfXfXfXfXfXg l _..X X XXXXXOXOX<X<X<X-XoX].].I.m v fXfXfX",
"fXfXfXfXfXfXfXfXfXfXfXfXfXfXfXfXfXfXfXfXfXfXfXfXfXfXfXfXfXfXfXfXfXfXfXfXfXh g l _..X}. X X XoXoX).1X<XOXoXoX`.`.V z fXfXfX",
"fXfXfXfXfXfXfXfXfXfXfXfXfXfXfXfXfXfXfXfXfXfXfXfXfXfXfXfXfXfXfXfXfXfXfXfXfX$ h l _.}.|.|. X XoXoXoXoXoXoXoX`.'.'.g g fXfXfX",
"fXfXfXfXfXfXfXfXfXfXfXfXfXfXfXfXfXfXfXfXfXfXfXfXfXfXfXfXfXfXfXfXfXfXfXfX$ $ h l _.}.}.|.|. X X XoXoXoX XoX'.'.j g fXfXfXfX",
"fXfXfXfXfXfXfXfXfXfXfXfXfXfXfXfXfXfXfXfXfXfXfXfXfXfXfXfXfXfXfXfXfXfXfX@ # e m V '..X}.|.|.|.|.|. X XoX|.}.'._.j g fXfXfXfX",
"fXfXfXfXfXfXfXfXfXfXfXfXfXfXfXfXfXfXfXfXfXfXfXfXfXfXfXfXfXfXfXfXfXfXfX@ # y b V `.}.}.}.|.|.|.|.|.|.}.}._._.j g fXfXfXfXfX",
"fXfXfXfXfXfXfXfXfXfXfXfXfXfXfXfXfXfXfXfXfXfXfXfXfXfXfXfXfXfXfXfXfXfXfXo # y y b C ].'.}.|.|.}.}.}.|._._.k j g fXfXfXfXfXfX",
"fXfXfXfXfXfXfXfXfXfXfXfXfXfXfXfXfXfXfXfXfXfXfXfXfXfXfXfXfXfXfXfXfXfXo + 3 y u b c C ].`././.'.'._.k k k j g fXfXfXfXfXfXfX",
"fXfXfXfXfXfXfXfXfXfXfXfXfXfXfXfXfXfXfXfXfXfXfXfXfXfXfXfXfXfXfXfXfX  o 1 3 w u u u x c C V Z Z j j j k g fXfXfXfXfXfXfXfXfX",
"fXfXfXfXfXfXfXfXfXfXfXfXfXfXfXfXfXfXfXfXfXfXfXfXfXfXfXfXfXfXfXfXfX  o 3 0.w w w u b c b m m b V h h h fXfXfXfXfXfXfXfXfXfX",
"fXfXfXfXfXfXfXfXfXfXfXfXfXfXfXfXfXfXfXfXfXfXfXfXfXfXfXfXfXfXfXfXfXX o 0.w 3 w I w y 4 y y e t $ $ h fXfXfXfXfXfXfXfXfXfXfX",
"fXfXfXfXfXfXfXfXfXfXfXfXfXfXfXfXfXfXfXfXfXfXfXfXfXfXfXfXfXfXfXfXfX  o 1 1 3 3 w w y 4 y q y e # $ fXfXfXfXfXfXfXfXfXfXfXfX",
"fXfXfXfXfXfXfXfXfXfXfXfXfXfXfXfXfXfXfXfXfXfXfXfXfXfXfXfXfXfXfXfXfXfXo & 1 3 3 3 3 4 ; 8 1 1 # @ fXfXfXfXfXfXfXfXfXfXfXfXfX",
"fXfXfXfXfXfXfXfXfXfXfXfXfXfXfXfXfXfXfXfXfXfXfXfXfXfXfXfXfXfXfXfXfXfXX o & 3 3 3 & & & & + +   fXfXfXfXfXfXfXfXfXfXfXfXfXfX",
"fXfXfXfXfXfXfXfXfXfXfXfXfXfXfXfXfXfXfXfXfXfXfXfXfXfXfXfXfXfXfXfXfXfX. X o + & & & X & X o   . fXfXfXfXfXfXfXfXfXfXfXfXfXfX",
"fXfXfXfXfXfXfXfXfXfXfXfXfXfXfXfXfXfXfXfXfXfXfXfXfXfXfXfXfXfXfXfXfXfXfX. o O O # O . . . . . fXfXfXfXfXfXfXfXfXfXfXfXfXfXfX"
};
