/* XPM */
static char *result[] = {
/* columns rows colors chars-per-pixel */
"57 54 223 2 ",
"   c #2B1B18",
".  c #331E1A",
"X  c #34201C",
"o  c #3B221E",
"O  c #2E201E",
"+  c #392725",
"@  c #3A2D31",
"#  c #301F20",
"$  c #7A181A",
"%  c #593A1D",
"&  c #4E201F",
"*  c #792B1D",
"=  c #68361E",
"-  c #6C271D",
";  c #442C25",
":  c #4B3629",
">  c #5D3C2B",
",  c #55382A",
"<  c #443734",
"1  c #563C34",
"2  c #512F2C",
"3  c #623E29",
"4  c #6C3825",
"5  c #773823",
"6  c #673B37",
"7  c #753D38",
"8  c #6E2D21",
"9  c #67451E",
"0  c #5C432A",
"q  c #574438",
"w  c #4D4337",
"e  c #6B452C",
"r  c #674628",
"t  c #734D2B",
"y  c #794628",
"u  c #7B532C",
"i  c #76512A",
"p  c #684737",
"a  c #774938",
"s  c #7B5434",
"d  c #785439",
"f  c #6E5235",
"g  c #7F6135",
"h  c #342E50",
"j  c #363767",
"k  c #262A76",
"l  c #3A3C77",
"z  c #262864",
"x  c #4C374B",
"c  c #6B3949",
"v  c #493767",
"b  c #503768",
"n  c #3C407C",
"m  c #564A43",
"M  c #5F5649",
"N  c #654A43",
"B  c #784448",
"V  c #714F4D",
"C  c #78775B",
"Z  c #6D6654",
"A  c #51476E",
"S  c #7B7C62",
"D  c #67536D",
"F  c #981516",
"G  c #8F1315",
"H  c #A5181C",
"J  c #8D281D",
"K  c #883526",
"L  c #953327",
"P  c #8B2F23",
"I  c #A63529",
"U  c #A93932",
"Y  c #B5392F",
"T  c #AB221F",
"R  c #CB2B3C",
"E  c #CA373D",
"W  c #D3393E",
"Q  c #D02F3F",
"!  c #844B2C",
"~  c #845A2E",
"^  c #884937",
"/  c #924B38",
"(  c #8B5C34",
")  c #865838",
"_  c #945436",
"`  c #95502F",
"'  c #A74538",
"]  c #B14A3E",
"[  c #8B622D",
"{  c #99742D",
"}  c #8B6639",
"|  c #966939",
" . c #8C7536",
".. c #947A36",
"X. c #956E2B",
"o. c #AA6936",
"O. c #AC743A",
"+. c #B17A3E",
"@. c #D7473D",
"#. c #9D2C4F",
"$. c #D63741",
"%. c #CE2F41",
"&. c #834343",
"*. c #865347",
"=. c #996C43",
"-. c #977644",
";. c #8B6F52",
":. c #A17252",
">. c #807F64",
",. c #B04B48",
"<. c #DD4442",
"1. c #DC4B44",
"2. c #D74C46",
"3. c #D65347",
"4. c #D34956",
"5. c #D65356",
"6. c #CF4C6F",
"7. c #7D8067",
"8. c #998439",
"9. c #A38C3E",
"0. c #B98836",
"q. c #B59234",
"w. c #B78B2B",
"e. c #C69A2C",
"r. c #C5992A",
"t. c #C59338",
"y. c #CCA32B",
"u. c #CCA227",
"i. c #D4AC2C",
"p. c #D5AC2C",
"a. c #DCB32D",
"s. c #DEBA2D",
"d. c #CEA433",
"f. c #D4AC32",
"g. c #D2A934",
"h. c #DCB530",
"j. c #DEBA31",
"k. c #D8B53B",
"l. c #E1BD2E",
"z. c #E1BB31",
"x. c #E2BE3A",
"c. c #E5C32D",
"v. c #E8C72F",
"b. c #EAC92E",
"n. c #E5C433",
"m. c #EACA33",
"M. c #EBCD3B",
"N. c #E5C537",
"B. c #B48344",
"V. c #A99442",
"C. c #B59B46",
"Z. c #878268",
"A. c #999A7D",
"S. c #8C8D74",
"D. c #A8954B",
"F. c #C89947",
"G. c #CF9546",
"H. c #C2AB4E",
"J. c #D8B744",
"K. c #C5AE51",
"L. c #CCB355",
"P. c #CCB95D",
"I. c #D3AE52",
"U. c #DAAE68",
"Y. c #DBB46B",
"T. c #DDB96F",
"R. c #DEBB72",
"E. c #DEB877",
"W. c #D7B66A",
"Q. c #E1B56D",
"!. c #E2BC74",
"~. c #E1B979",
"^. c #E3C343",
"/. c #EDD241",
"(. c #D8C568",
"). c #E7D46D",
"_. c #E2C177",
"`. c #E3C279",
"'. c #E9DA74",
"]. c #ECDE79",
"[. c #E6D571",
"{. c #E2CD69",
"}. c #F2E47C",
"|. c #EFE179",
" X c #3C3F84",
".X c #3D4187",
"XX c #404390",
"oX c #464ADB",
"OX c #5953DE",
"+X c #6958DB",
"@X c #745EDB",
"#X c #7865D8",
"$X c #484EE1",
"%X c #4A52E5",
"&X c #4C54E9",
"*X c #4751E4",
"=X c #5453E5",
"-X c #5754E7",
";X c #6154E3",
":X c #8568D2",
">X c #9A9D83",
",X c #A6A68B",
"<X c #B4B59B",
"1X c #ADAF95",
"2X c #B9BCA2",
"3X c #DEB781",
"4X c #E0B680",
"5X c #F4E884",
"6X c #F6EB8B",
"7X c #F5EA87",
"8X c #F9EF92",
"9X c #F7EE91",
"0X c #F9F093",
"qX c #DCC9B5",
"wX c #D4C9B3",
"eX c #D4D3BC",
"rX c #DAD2BD",
"tX c #D1CBB5",
"yX c #E1C8B5",
"uX c #DAD6C1",
"iX c #DCD9C5",
"pX c #DAD9C5",
"aX c None",
/* pixels */
"aXaXaXaXaXaXaXaXaXaXaXaXaX$ $ $ L L L L P $ $ - aXaXaXaXaXaXaXaXaXaXaXaXaXaXaXaXaXaXaXaXaXaXaXaXaXaXaXaXaXaXaXaXaX",
"aXaXaXaXaXaXaXaXaXaXaXaX$ $ P L H H T H H K K $ aXaXaXaXaXaXaXaXaXaXaXaXaXaXaXaXaXaXaXaXaXaXaXaXaXaXaXaXaXaXaXaXaX",
"aXaXaXaXaXaXaXaXaXaXaX$ P J H H $.$.$.$.T F F 5 aXaXaXaXaXaXaXaXaXaXaXaXaXaXaXaXaXaXaXaXaXaXaXaXaXaXaXaXaXaXaXaXaX",
"aXaXaXaXaXaXaXaXaXaXaXJ G H R $.$.<.<.<.2.$.H G * aXaXaXaXaXaXaXaXaXaXaXaXaXaXaXaXaXaXaXaXaXaXaXaXaXaXaXaXaXaXaXaX",
"aXaXaXaXaXaXaXaXaXaXP F H %.$.@.<.<.1.1.1.$.E G 5 aXaXaXaXaXaXaXaXaXaXaXaXaXaXaXaXaXaXaXaXaXaXaXaXaXaXaXaXaXaXaXaX",
"aXaXaXaXaXaXaXaX$ $ G F %.%.$.<.1.1.5.1.1.1.@.J G 8 aXaXaXaXaXaXaXaXaXaXaXaXaXaXaXaXaXaXaXaXaXaXaXaXaXaXaXaXaXaXaX",
"aXaXaXaXaXaXaX$ G G H Q %.$.<.<.1.1.yXyXyXqX@.%.G 8 aXaXaXaXaXaXaXaXaXaXaXaXaXaXaXaXaXaXaXaXaXaXaXaXaXaXaXaXaXaXaX",
"aXaXaXaXaX- * P F H R %.%.$.<.1.1.yXyXY qXI wXE J 8 aXaXaXaXaXaXaXaXaXaXaXaXaXaXaXaXaXaXaXaXaXaXaXaXaXaXaXaXaXaXaX",
"aXaXaX- - G G F F R Q W $.<.1.1.3.qXqXU I I tX%.G = aXaXaXaXaXaXaXaXaXaXaXaXaXaXaXaXaXaXaXaXaXaXaXaXaXaXaXaXaXaXaX",
"aXaX* * G R R F W W W @.<.<.1.1.3.qXqXU U L tXJ 4 & aXaXaXaXaXaXaXaXaXaXaXaXaXaXaXaXaXaXaXaXaXaXaXaXaXaXaXaXaXaXaX",
"- 8 5 F R E W W @.@.@.<.1.1.3.3.Y &.&.a 6 1 > 2 ; o aXaXaXaXaXaXaXaXaXaXaXaXaXaXaXaXaXaXaXaXaXaXaXaXaXaXaXaXaXaXaX",
"- 5 G @.E @.@.@.@.@.@.Y / / / / *.B a c N 6 1 2 ; # #   aXaXaXaXaXaXaXaXaXaXaXaXaXaXaXaXaXaXaXaXaXaXaXaXaXaXaXaXaX",
"8 ! T @.@.@.T ! ` ` ] ' _ / *./ ) d d d p p 1 2 ; o .     aXaXaXaXaXaXaXaXaXaXaXaXaXaXaXaXaXaXaXaXaXaXaXaXaXaXaXaX",
"4 4 ` ` u u ` o.o.G.Q.Q.!.!.!.!.o.V T.T.Y.) ! 1 , : aXaXaXaXaXaXaXaXaXaXaXaXaXaXaXaXaXaXaXaXaXaXaXaXaXaXaXaXaXaXaX",
"6 ^ _ U.Y.Q.Q.o.o.Q.Q.!.!.!.~.!.=.} T.E.Y.d f q , , : aXaXaXaXaXaXaXaXaXaXaXaXaXaXaXaXaXaXaXaXaXaXaXaXaXaXaXaXaXaX",
"6 ` Y.Q.Y.Q.Q.O.+.J.~.~.!.!.`.`.-.-.R.!.R.} | ( ~ , > aXaXaXaXaXaXaXaXaXaXaXaXaXaXaXaXaXaXaXaXaXaXaXaXaXaXaXaXaXaX",
"e _ Y.Y.| O.!.O.+.B.B.`.`.`.`.`.-.-.`.`._.I.R.T.F.u : aXaXaXaXaXaXaXaXaXaXaXaXaXaXaXaXaXaXaXaXaXaXaXaXaXaXaXaXaXaX",
"r ( U.Y.Y.O.T.+.+.B.B.`.`.`.`.`.-.B.`.`.`._._.T.W.F.i ; aXaXaXaXaXaXaXaXaXaXaXaXaXaXaXaXaXaXaXaXaXaXaXaXaXaXaXaXaX",
"1 ! ( U.Q.T._._.B.B.`.`.`.`.`.`.`.`.`.`.`._._.R.W.U.i + aXaXaXaXaXaXaXaXaXaXaXaXaXaXaXaXaXaXaXaXaXaXaXaXaXaXaXaXaX",
"0 1 ) ( Y.T.E.~.`.`.`.`.`.-.-._.`.`.`.`._._._.R.Y.U.y ; aXaXaXaXaXaXaXaXaXaXaXaXaXaXaXaXaXaXaXaXaXaXaXaXaXaXaXaXaX",
", 1 1 p ) =.E.E.E.`.`.`.=.-.=.-._._.!.!.`.!.R.T.W.t.i + aXaXaXaXaXaXaXaXaXaXaXaXaXaXaXaXaXaXaXaXaXaXaXaXaXaXaXaXaX",
"< 1 1 m p | =.E.E.3X3X`.=.} } d ) H.T.!.R.R.R.W.F.! : aXaXaXaXaXaXaXaXaXaXaXaXaXaXaXaXaXaXaXaXaXaXaXaXaXaXaXaXaXaX",
"aX< x x x N V =.3X4X3X~.E.*.*.d d V { | H.F.F.( 0 : aXaXaXaXaXaXaXaXaXaXaXaXaXaXaXaXaXaXaXaXaXaXaXaXaXaXaXaXaXaXaX",
"aXh h x A A D D :.:.4X~.E.Y.) ^ a a d f a f p q 0 q aXaXaXaXaXaXaXaXaXaXaXaXaXaXaXaXaXaXaXaXaXaXaXaXaXaXaXaXaXaXaX",
"h h j v A A +X@X:X:X,.,.] Q.Y.Y.a p N p N p q w q q aXaXaXaXaXaXaXaXaXaXaXaXaXaXaXaXaXaXaXaXaXaXaXaXaXaXaXaXaXaXaX",
"z z j l v =X-X+X@X:X6.5.4.U _ _ / B p p N m m m m w aXaXaXaXaXaXaXaXaXaXaXaXaXaXaX ...8.8.8.8. .aXaXaXaXaXaXaXaXaX",
"z j l l %X-X-X+X@X6.6.$.4.2.2.@.I _ ) V N N M m m m m aXaXaXaXaXaXaXaXaXaXaXaX .8.8.9.9.V.V.V.D.8.8.8.aXaXaXaXaXaX",
"z j  X$X%X&X-X;X;X6.6.6.4.<.2.2.3.3.' Z.Z.Z.7.M M m w @ aXaXaXaXaXaXaXaXaXaX .8.V.[.'.(.'.'.D.[.C.C.9.8.8.aXaXaXaX",
"l .X.X*X%X&X-X;X+X6.#.4.4.2.2.2.3.' eXeXpX,X,X7.7.7.S C w @ aXaXaXaXaXaXaX .8.[.|.5X5X6X9X6X6X6X5X'.'.V.V.8.8.8.aX",
"n .X*X*X&X&X-X-X;X+X6.#.c c 7 ^ / qXrXrXpXpXpX1XS.eXeX>XS Z @ aXaXaXaXaXaX8.8.P.5X7X6X9X0X0X9X9X6X6X6X(.'.V.9.8.-.",
".X.X&X&X&X&X-X-X;X;X+Xc #.^ / / | *.rXuXpXpXpXpX<X>XeXeXA.C C @ aXaXaXf f s P.(.5X7X6X9X0X0X9X9X9X9X6X5X5X'.C.9. .",
".X.X&X&X&X&X&X-X;X;Xb &.c ^ / / | =.;.uXpXpXpX2X<X>XeXeXtXA.C w 0 0 r i u  .P.'.].7X9X9X0X0X0X9X9X9X9X6X6X5X'.C.9.",
".X.X*X&X&X&X&X=X=XOXb #.B ^ ^ _ | =.:.iXiXiXiX2X2X,XeXeX;.d f w 0 0 r t g f.d.'.].[.}.9X0X0X0X0X8X9X9X6X6X5X'.C.V.",
"n .X*X*X%X%X&X=XOXb V &.B ^ ! F.F.=.:.;.iXiXiX2X2X,XpXeX;.V V f f e e u } j.N.J.{.|.}.5X].5X0X0X9X9X'.6X|.|.{.C...",
"k .X.X*X*X%X$XOXOXv B c 7 ! F.! ) | =.;.uXpXpXiX<XA.1X1XC.C.q.d f u s [ i.j.N.N.x.^.{.[.'.}.}.5X5X}.}.[.|.(.J.-.{ ",
"k j l *XoX$X$X$Xv c x B ! t.! ! ) } | Z rXuXpX1XA.eXrXJ.J.g.g.w.w.w.s [ s.j.n.N.M.M.^.^./.).'.}.).[.).{.J.k.k.{ | ",
"k k j l oXoXoXoXv c x a y 0.! y ^ ) p tXtX,X1XS.rXeXeX8.8.8.{ i.i.i.[ X.s.l.n.n.N.M.x.N.M./.^.^.^.^.k.k.k.g.k...| ",
"aXaXk j z oXoXx c 7 7 , G.5 ! y y a q C C Z.7.7.Z.7.7.d M p  . .{ { [ i.s.c.v.b.v.m.x.x.M.M.M.M.M.M.M.N.g.d.f.X.~ ",
"aXaXaXaXh h h h 6 6 y y 0.y 5 5 y 1 , t s d d w w w w q q 6 e p i u [ p.l.l.c.c.v.m.l.m.m.M.M.M.m.M.N.n.g.j.X.[ r ",
"aXaXaXaXaXh h @ @ 6 4 0.5 e 5 5 4 ; ; 6 e e < < q q q q , > > r t s [ p.l.c.c.b.b.m.c.m.m.b.m.m.m.n.n.n.z.j.X.[ 9 ",
"aXaXaXaXaXaXaX+ # ; 4 0.= 4 = = o o + + + + + aXaXaXaXaXaXaX> % 9 i ~ p.z.l.l.a.b.b.b.b.b.m.m.j.b.c.c.l.l.{ [ u 9 ",
"aXaXaXaXaXaXaXaX# # o 4 = = = o o X o X O O aXaXaXaXaXaXaXaXaXr 9 u u.p.a.l.a.a.b.b.b.b.b.b.b.a.b.c.c.s.w.X.[ i e ",
"aXaXaXaXaXaXaXaXaX. . . X . . . aXaXaXaXaXaXaXaXaXaXaXaXaXaXaXaX4 i u.p.a.z.a.a.b.b.v.b.b.b.j.a.c.c.c.w.u.r.i.i e ",
"aXaXaXaXaXaXaXaXaXaX      .   aXaXaXaXaXaXaXaXaXaXaXaXaXaXaXaXaX3 i u.p.p.a.a.c.v.b.b.b.b.b.a.v.c.c.c.w.w.a.i.i e ",
"aXaXaXaXaXaXaXaXaXaXaXaXaXaXaXaXaXaXaXaXaXaXaXaXaXaXaXaXaXaXaXaX> t u.u.p.g.p.l.b.b.b.c.v.z.p.c.c.c.s.{ r.p.i e % ",
"aXaXaXaXaXaXaXaXaXaXaXaXaXaXaXaXaXaXaXaXaXaXaXaXaXaXaXaXaXaXaXaX> r H.i.p.y.g.z.z.l.c.c.v.a.a.l.c.l.p.u.~ i r 3 % ",
"aXaXaXaXaXaXaXaXaXaXaXaXaXaXaXaXaXaXaXaXaXaXaXaXaXaXaXaXaXaXaXaX, r H.u.p.d.d.z.z.z.z.z.p.p.l.z.a.r.i.u.i e 3 % % ",
"aXaXaXaXaXaXaXaXaXaXaXaXaXaXaXaXaXaXaXaXaXaXaXaXaXaXaXaXaXaXaXaXaX> t H.y.e.y.a.z.z.z.z.p.p.z.p.i.u.u.i y 9 9 aXaX",
"aXaXaXaXaXaXaXaXaXaXaXaXaXaXaXaXaXaXaXaXaXaXaXaXaXaXaXaXaXaXaXaXaX> e H.K.e.e.f.h.z.h.g.d.z.p.p.e.y.r.i = 9 aXaXaX",
"aXaXaXaXaXaXaXaXaXaXaXaXaXaXaXaXaXaXaXaXaXaXaXaXaXaXaXaXaXaXaXaXaXaX0 e H.K.L.f.f.y.d.y.d.p.f.r.r.u.i 3 9 aXaXaXaX",
"aXaXaXaXaXaXaXaXaXaXaXaXaXaXaXaXaXaXaXaXaXaXaXaXaXaXaXaXaXaXaXaXaXaXaXr t u K.L.L.L.e.d.p.f.e.r.H.u e > aXaXaXaXaX",
"aXaXaXaXaXaXaXaXaXaXaXaXaXaXaXaXaXaXaXaXaXaXaXaXaXaXaXaXaXaXaXaXaXaXaXaX0 f s ) } L.P.L.I.L.L.~ u e 3 , aXaXaXaXaX",
"aXaXaXaXaXaXaXaXaXaXaXaXaXaXaXaXaXaXaXaXaXaXaXaXaXaXaXaXaXaXaXaXaXaXaXaXr r f f s ( } ( [ ( s t e r % aXaXaXaXaXaX",
"aXaXaXaXaXaXaXaXaXaXaXaXaXaXaXaXaXaXaXaXaXaXaXaXaXaXaXaXaXaXaXaXaXaXaXaXaXr r r r d d s d s a r r % > aXaXaXaXaXaX"
};
