/* XPM */
static char *result[] = {
/* columns rows colors chars-per-pixel */
"59 67 233 2 ",
"   c #2D1B19",
".  c #281815",
"X  c #331E1C",
"o  c #3A1D18",
"O  c #3C241D",
"+  c #36201C",
"@  c #2D1E27",
"#  c #382525",
"$  c #392638",
"%  c #352933",
"&  c #4D1E16",
"*  c #43261F",
"=  c #43291E",
"-  c #58381D",
";  c #5A2F1B",
":  c #672F1C",
">  c #732B1D",
",  c #6B331E",
"<  c #64321D",
"1  c #77331E",
"2  c #462B22",
"3  c #4C2D23",
"4  c #462726",
"5  c #562927",
"6  c #4C3225",
"7  c #4B362B",
"8  c #553525",
"9  c #5B3A2A",
"0  c #563827",
"q  c #462B37",
"w  c #483A37",
"e  c #542936",
"r  c #662828",
"t  c #613D2B",
"y  c #6A3625",
"u  c #733B23",
"i  c #773826",
"p  c #693733",
"a  c #733A35",
"s  c #762E26",
"d  c #7F161B",
"f  c #63421F",
"g  c #5D4129",
"h  c #66412C",
"j  c #6A442D",
"k  c #674829",
"l  c #734A2D",
"z  c #79472A",
"x  c #7D532F",
"c  c #6D4A33",
"v  c #674533",
"b  c #744D33",
"n  c #744737",
"m  c #7C5334",
"M  c #765538",
"N  c #6F522D",
"B  c #7C6238",
"V  c #2C2245",
"C  c #363357",
"Z  c #352C4B",
"A  c #393765",
"S  c #393A71",
"D  c #48334E",
"F  c #44365A",
"G  c #4D334A",
"H  c #6A3B44",
"J  c #473867",
"K  c #4D3976",
"L  c #6F3E6A",
"P  c #73444A",
"I  c #755747",
"U  c #6A4B50",
"Y  c #6F635C",
"T  c #6E4468",
"R  c #6A6462",
"E  c #736B65",
"W  c #78736A",
"Q  c #57495A",
"!  c #8B1618",
"~  c #961819",
"^  c #910F12",
"/  c #A91B1C",
"(  c #931C27",
")  c #AC1E24",
"_  c #9A2626",
"`  c #873826",
"'  c #963728",
"]  c #883A35",
"[  c #963937",
"{  c #8B2A29",
"}  c #AA2524",
"|  c #B9282A",
" . c #BB362C",
".. c #AF2D37",
"X. c #8B211F",
"o. c #CA2A3D",
"O. c #C13636",
"+. c #844A2C",
"@. c #874734",
"#. c #865933",
"$. c #8F5230",
"%. c #A64B37",
"&. c #AA5434",
"*. c #896839",
"=. c #946537",
"-. c #92733B",
";. c #A5683C",
":. c #AF7E33",
">. c #8D3C45",
",. c #B2284E",
"<. c #BE3769",
"1. c #C82D44",
"2. c #D22E43",
"3. c #CD3648",
"4. c #D43345",
"5. c #D93346",
"6. c #D5354B",
"7. c #DB354C",
"8. c #D43A4B",
"9. c #DB3A4B",
"0. c #D33946",
"q. c #C7345A",
"w. c #DD3B52",
"e. c #D13553",
"r. c #C6366A",
"t. c #C5387A",
"y. c #8D5443",
"u. c #A94443",
"i. c #937A45",
"p. c #957845",
"a. c #8B714D",
"s. c #B67C48",
"d. c #8B796D",
"f. c #B27A72",
"g. c #DB434C",
"h. c #DA4659",
"j. c #CB434D",
"k. c #DC5465",
"l. c #DC4D61",
"z. c #E16567",
"x. c #DF6062",
"c. c #BB8A34",
"v. c #AE853D",
"b. c #C49335",
"n. c #CA9C34",
"m. c #C79939",
"M. c #C08F33",
"N. c #CDA037",
"B. c #D2A435",
"V. c #D7AA36",
"C. c #D2A539",
"Z. c #D5AB39",
"A. c #D9AD39",
"S. c #D9AD36",
"D. c #DDB336",
"F. c #DCB33A",
"G. c #E4BC37",
"H. c #E4BD39",
"J. c #E0B736",
"K. c #E7C13B",
"L. c #9A8248",
"P. c #A3884B",
"I. c #AD944B",
"U. c #B99D59",
"Y. c #B0924E",
"T. c #BDA15B",
"R. c #968B75",
"E. c #9B957A",
"W. c #8B8170",
"Q. c #A78173",
"!. c #AB8F73",
"~. c #A7A17F",
"^. c #C78946",
"/. c #D4934C",
"(. c #CDA544",
"). c #D5AA41",
"_. c #DDB543",
"`. c #D4A55E",
"'. c #CAAD5B",
"]. c #E1BC44",
"[. c #C3A561",
"{. c #DBAC64",
"}. c #D8A861",
"|. c #DAB565",
" X c #E4AC66",
".X c #E2B169",
"XX c #CC9262",
"oX c #E6C243",
"OX c #E8C647",
"+X c #DBC465",
"@X c #E3CC64",
"#X c #E8D56B",
"$X c #EEDC72",
"%X c #F4E97D",
"&X c #F3E677",
"*X c #EFE072",
"=X c #65438D",
"-X c #5D4185",
";X c #4B4CDC",
":X c #454ADB",
">X c #554CDE",
",X c #4E51DF",
"<X c #6F4EDC",
"1X c #484EE1",
"2X c #4D52E4",
"3X c #4F55E9",
"4X c #5253E4",
"5X c #5356EA",
"6X c #5B53E7",
"7X c #5A4FE1",
"8X c #6552E3",
"9X c #C43A86",
"0X c #A59E81",
"qX c #A8A688",
"wX c #B9AA8C",
"eX c #979289",
"rX c #D1BC9E",
"tX c #D0BEA0",
"yX c #F6EC82",
"uX c #F8EE85",
"iX c #F9EF88",
"pX c #F9F088",
"aX c #DAD5B4",
"sX c #DEDBBA",
"dX c #D9D8B6",
"fX c #CFCBAA",
"gX c #E4D3B4",
"hX c #E3DCBC",
"jX c #E5D7B8",
"kX c #E5CDAF",
"lX c #E4E2C2",
"zX c #E8DFC0",
"xX c None",
/* pixels */
"xXxXxXxXxXxXxXxXxXxXxXN N B L.P.L.P.i.a.i.xXxXxXxXxXxXxXxXxXxXxXxXxXxXxXxXxXxXxXxXxXxXxXxXxXxXxXxXxXxXxXxXxXxXxXxXxXxX",
"xXxXxXxXxXxXxXxXxXxXk N M I a.I.I.I.P.P.L.i.xXxXxXxXxXxXxXxXxXxXxXxXxXxXxXxXxXxXxXxXxXxXxXxXxXxXxXxXxXxXxXxXxXxXxXxXxX",
"xXxXxXxXxXxXxXxXxXk N b #.*.p.#X#XT.I.I.P.L.L.xXxXxXxXxXxXxXxXxXxXxXxXxXxXxXxXxXxXxXxXxXxXxXxXxXxXxXxXxXxXxXxXxXxXxXxX",
"xXxXxXxXxXxXxXxXk t l M a.#X#X+X%X%X%XT.Y.P.i.xXxXxXxXxXxXxXxXxXxXxXxXxXxXxXxXxXxXxXxXxXxXxXxXxXxXxXxXxXxXxXxXxXxXxXxX",
"xXxXxXxXxXxXxXf h N x *.m.|.+X&X%XyXyX%X%XI.L.p.xXxXxXxXxXxXxXxXxXxXxXxXxXxXxXxXxXxXxXxXxXxXxXxXxXxXxXxXxXxXxXxXxXxXxX",
"xXxXxXxX3 8 f k l x Z.I.(.#X$X%XyXuXyXyX%X%XI.L.p.xXxXxXxXxXxXxXxXxXxXxXxXxXxXxXxXxXxXxXxXxXxXxXxXxXxXxXxXxXxXxXxXxXxX",
"xXxXxX3 8 9 t l x B.Z.F.C.$X$X%XyXuXiXiXuX%X&XI.i.*.xXxXxXxXxXxXxXxXxXxXxXxXxXxXxXxXxXxXxXxXxXxXxXxXxXxXxXxXxXxXxXxXxX",
"xXxX3 0 t =.=.#.B.V.F.(.(.@X#X#XuXpXiXpXuXyX%X&XP.i.xXxXxXxXxXxXxXxXxXxXxXxXxXxXxXxXxXxXxXxXxXxXxXxXxXxXxXxXxXxXxXxXxX",
"xXxX- t #.c.+.n.S.D.F.(.oX_.#X*X&XpXpXpXpXpXyX%XI.L.*.xXxXxXxXxXxXxXxXxXxXxXxXxXxXxXxXxXxXxXxXxXxXxXxXxXxXxXxXxXxXxXxX",
"xX; t f *.+.n.V.D.D.C.].OX_.@X&X%X&XpXpXpXpXyXyX&XL.i.xXxXxXxXxXxXxXxXxXxXxXxXxXxXxXxXxXxXxXxXxXxXxXxXxXxXxXxXxXxXxXxX",
"3 - f l x n.n.D.D.D.K.H.OXOXoX#XyX&X$XpXpXpXyX%X&XP.i.xXxXxXxXxXxXxXxXxXxXxXxXxXxXxXxXxXxXxXxXxXxXxXxXxXxXxXxXxXxXxXxX",
"- - f N x n.B.D.D.K.K.K.K.K.OXOX#X#X#X%XuXyXyX&X&XP.i.*.xXxXxXxXxXxXxXxXxXxXxXxXxXxXxXxXxXxXxXxXxXxXxXxXxXxXxXxXxXxXxX",
"- - l #.n.B.B.J.G.G.H.H.F.oXOXOXOX].%X&X&X#X%X%X#X#X-.B xXxXxXxXxXxXxXxXxXxXxXxXxXxXxXxXxXxXxXxXxXxXxXxXxXxXxXxXxXxXxX",
"- j l #.n.b.B.J.G.G.A.A.K.K.oXOXOX_.@X%X*X@X+X#X'.@X-.B xXxXxXxXxXxXxXxXxXxXxXxXxXxXxXxXxXxXxXxXxXxXxXxXxXxXxXxXxXxXxX",
"j l #.n.M.m.V.J.G.V.V.S.K.K.K.OX_._.F.@X+X+X+X#X@XB N xXxXxXxXxXxXxXxXxXxXxXxXxXxXxXxXxXxXxXxXxXxXxXxXxXxXxXxXxXxXxXxX",
"l l #.n.b.B.V.J.B.V.V.K.K.K.K.F.).oXoXoX).(.(.'.B N v xXxXxXxXxXxXxXxXxXxXxXxXxXxXxXxXxXxXxXxXxXxXxXxXxXxXxXxXxXxXxXxX",
"b m [.b.m.C.A.C.C.V.H.K.G.K.D.H.K.H.].].]./.c.*.M v xXxXxXxXxXxXxXxXxXxXxXxXxXxXxXxXxXxXxXxXxXxXxXxXxXxXxXxXxXxXxXxXxX",
"n #.#.M.m.A.A.N.C.G.G.G.K.K.G.G.H.H.H.J.m.A.Z.M N k xXxXxXxXxXxXxXxXxXxXxXxXxXxX> > > > > xXxXxXxXxXxXxXxXxXxXxXxXxXxX",
"n m [.c.C.A.m.B.F.H.G.G.G.G.G.G.H.H.J.S.V.Z.#.b v g xXxXxXxXxXxXxXxXxXxXxXxX> 1 ^ ^ ^ ^ ^ s > xXxXxXxXxXxXxXxXxXxXxXxX",
"b m [.[.N.C.m.A.A.G.G.G.G.G.G.V.H.J.A.Y.=.#.m c g 7 g xXxXxXxXxXxXxXxXxXxXs ^ ^ o.o.o.o.o.~ ! i r xXxXxXxXxXxXxXxXxXxX",
"c n m [.m.C.C.A.A.A.G.G.J.B.B.D.D.D.b.c.c.#.l l g w 7 g xXxXxXxXxXxXxXa i ( o.1.2.2.2.2.1.o.~ ! s 5 +   . xXxXxXxXxXxX",
"0 c b #.[.N.m.m.Z.A.A.S.N.n.D.V.S.v.M.c.c.-.b l g g % g g R w w w G I P ] _ 3.1.2.2.5.5.4.4.rX/ ! 4 O X   . xXxXxXxXxX",
"0 h v b [.[.M.b.C.Z.m.n.n.B.B.B.n.#.c.c.c.c.-.c v v E R R Q W W E d.U P [ h.e.6.6.7.7.7.6.6.4.rX~ 5 4 X   . xXxXxXxXxX",
"8 0 9 v n T.[.m.n.b.b.b.N.n.n.n.#.#.x z :.n.n.*.I M I eXW.W W.qX~.qXd.d.d.h.h.e.w.7.7.7.7.9.5.rXtX5 4 # @ . xXxXxXxXxX",
"xXxXg 9 v c b T.[.m.n.n.n.b.x z l l l l c v.m.m.p.y.Y a.fXdXqXqXaXaXaXwXf.d.l.w.w.w.w.w.7.7.6.3.rX5 5 # X xXxXxXxXxXxX",
"xXxXxXxX9 9 h c U.U.m U.U.l j j f - f h v c v.(.(.d.a.R.dXsXsXwXsXsXsXaXwXf.k.l.h.w.w.7.7.7.7.1.3.5 5 4 # + xXxXxXxXxX",
"xXxXxXxXxX0 9 9 t j h j t t t 0 - - 8 0 g v M I.(.'.!.E.dXsXsXlXsXlXsXsXgX!.f.k.h.w.w.7.7.7.7.e._ r 5 3 * O xXxXxXxXxX",
"xXxXxXxXxXxXxX8 0 9 0 0 0 8 xXxXxXxX6 g g v I I Y._.E.~.sXlXlXlXlXlXfXjXjXgXf.k.h.w.w.7.7.7.7.2.s p 5 3 8 = 6 xXxXxXxX",
"xXxXxXxXxXxXxXxXxXxXxXxXxXxXxXxXxXxXxXg % E N Y a.R.E.~.sXlXlXlXfXzXzXrXjXgXf.f.l.w.w.7.7.7.4.} a s p 9 0 7 2 # 8 xXxX",
"xXxXxXxXxXxXxXxXxXxXxXxXxXxXxXxXxXxXxXxX% Y R.fXaXR.dXdXsXhXlXlXzXkXzXjXjXgXkX8.1.w.w.7.4.4.0.a a @.@.@.+.z z z 6 8 8 ",
"xXxXxXxXxXxXxXxXxXxXxXxXxXxXxXxXxXxXxXxX# R E.fXfXR.aXdXsXhXhXzXzXhXzXjXjXkXx.l. .| 9.5.5.0.| ] %.`.$.$.^.'.`.z z 6 0 ",
"xXxXxXxXxXxXxXxXxXxXxXxXxXxXxXxXxXxXxXxX# R R E.E.qXR.aXdXsXsXhXjXjXjXjXkXz.k.l.9.o.| 9.0.| @.$.&.{.{.=.{.{.`.}.z z 7 ",
"xXxXxXxXxXxXxXxXxXxXxXxXxXxXxXxXxXxXxXxXxX% R E E.E.qXW.d.rXaXsXgXgXaXz.z.k.l.h.9.9.o.| | } &.&.&. X X X=.{.}.}.x z 7 ",
"xXxXxXxXxXxXxXxXxXxXxXxXxXxXxXxXxXxXxXxXxXxX% R R E W u.u.d.R.Q.Q.f.z.x.k.h.h.w.9.9.5.| | &. X X X;..X|./.=.}.}.+.z 0 ",
"xXxXxXxXxXxXxXxXxXxXxXxXxXxXxXxXxXxXxXxXxXxXxX% w R E [ [ %.,.%.u.u.,...h.h.w.9.5.5.5.9. ./. X X.X{.;.;.|.m b Y.b z 6 ",
"xXxXxXxXxXxXxXxXxXxXxXxXxXxXxXxXxXxXxXxXxXxXxXxXxX4 q { { { $.' j.j.h. .| 9.7.7.5.5.9.9.|  . X X.X.X:.;.{.b v v z z 4 ",
"xXxXxXxXxXxXxXxXxXxXxXxXxXxXxXxXxXxXxXxXxXxXxXxXxXxXxXy i X.+.] ' O.o.o.} ) 5.5.5.5.5.g.g.O./. X.X.X;.;.{.c v 7 j 6 = ",
"xXxXxXxXxXxXxXxXxXxXxXxXxXxXxXxXxXxXxXxXxXxXxXxXxXxXxXxX5 s ! i ~ / } ~ / / / o.5.5.5.5.9.g.O. X X.X;.{.}.j 9 7 2 = O ",
"xXxXxXxXxXxXxXxXxXxXxXxXxXxXxXxXxXxXxXxXxXxXxXxXxXxXxXxXxX& : 1 ` ` ` ` ' ' ' / o.5.5.5.9.g. .%. X/.;. X}.g 0 6 3 = xX",
"xXxXxXxXxXxXxXxXxXxXxXxXxXxXxXxXxXxXxXxXxXxXxXxXxXxXxXxXxXxX& & 1 XX` ` ' ' ' ' / 5.5.5.9.g.g. ./.&.{.`.^.z 6 6 xXxXxX",
"xXxXxXxXxXxXxXxXxXxXxXxXxXxXxXxXxXxXxXxXxXxXxXxXxXxXxXxXxXxXxXO : 1 1 ` ` ` ` ' ' / 5.5.6.9.9. .|  X}.}.@.i 3 xXxXxXxX",
"xXxXxXxXxXxXxXxXxXxXxXxXxXxXxXxXxXxXxXxXxXxXxXxXxXxXxXxXxXxXxXo : : 1 1 1 ` ` ` ' ' ) 4.6.7.8.g.| /.s.+.z 6 xXxXxXxXxX",
"xXxXxXxXxXxXxXxXxXxXxXxXxXxXxXxXxXxXxXxXxXxXxXxXxXxXxXxXxXxXxXxXo o : 1 1 ` ` ` ` [ [ ) 2.e.6.6.o.| @.] 5 y xXxXxXxXxX",
"xXxXxXxXxXxXxXxXxXxXxXxXxXxXxXxXxXxXxXxXxXxXxXxXxXxXxXxXxXxXxXxXxX& : , s i i a ] ] [ [ ..e.6.6.0.} s r r xXxXxXxXxXxX",
"xXxXxXxXxXxXxXxXxXxXxXxXxXxXxXxXxXxXxXxXxXxXxXxXxXxXxXxXxXxXxXxXxXxX< , y i i H q.] ] >.>.,.e.e.8.3.( H r xXxXxXxXxXxX",
"xXxXxXxXxXxXxXxXxXxXxXxXxXxXxXxXxXxXxXxXxXxXxXxXxXxXxXxXxXxXxXxXxXxXxX< d ! X.G <.<.L T <XL ,.w.e.e.( 1.e xXxXxXxXxXxX",
"xXxXxXxXxXxXxXxXxXxXxXxXxXxXxXxXxXxXxXxXxXxXxXxXxXxXxXxXxXxXxXxXxXxXxXxXy d D L <.q.T <X<XL t.r.q.q.q.,.G e xXxXxXxXxX",
"xXxXxXxXxXxXxXxXxXxXxXxXxXxXxXxXxXxXxXxXxXxXxXxXxXxXxXxXxXxXxXxXxXxXxXxX# p F J <.K 7X8X<XL 9Xt.t.r.q.q.G D xXxXxXxXxX",
"xXxXxXxXxXxXxXxXxXxXxXxXxXxXxXxXxXxXxXxXxXxXxXxXxXxXxXxXxXxXxXxXxXxXxXxX$ D F J K 7X5X8X8X8X=X9Xt.t.<.J F D xXxXxXxXxX",
"xXxXxXxXxXxXxXxXxXxXxXxXxXxXxXxXxXxXxXxXxXxXxXxXxXxXxXxXxXxXxXxXxXxXxXxXV C J ;X4X4X5X8X6X6X8X=X=X-XK >XJ D xXxXxXxXxX",
"xXxXxXxXxXxXxXxXxXxXxXxXxXxXxXxXxXxXxXxXxXxXxXxXxXxXxXxXxXxXxXxXxXxXxXxXV C J ;X,X4X5X5X5X6X6X8X6X7X<X>X;XA C xXxXxXxX",
"xXxXxXxXxXxXxXxXxXxXxXxXxXxXxXxXxXxXxXxXxXxXxXxXxXxXxXxXxXxXxXxXxXxXxXxXV C A ;X;X4X5X5X5X5X5X5X6X5X>X>X;XS C xXxXxXxX",
"xXxXxXxXxXxXxXxXxXxXxXxXxXxXxXxXxXxXxXxXxXxXxXxXxXxXxXxXxXxXxXxXxXxXxXxXV C A ;X;X2X4X5X5X5X5X5X5X5X3X1X:XS C xXxXxXxX",
"xXxXxXxXxXxXxXxXxXxXxXxXxXxXxXxXxXxXxXxXxXxXxXxXxXxXxXxXxXxXxXxXxXxXxX@ % $ C ;X;X4X4X4X4X5X3X5X5X2X1X1X:XS A xXxXxXxX",
"xXxXxXxXxXxXxXxXxXxXxXxXxXxXxXxXxXxXxXxXxXxXxXxXxXxXxXxXxXxXxXxXxXxX  @ % $ $ :XF S K K 2X2X2X3X2X3X1X:X:XA V xXxXxXxX",
"xXxXxXxXxXxXxXxXxXxXxXxXxXxXxXxXxXxXxXxXxXxXxXxXxXxXxXxXxXxXxXxXxXxX  @ 5 p p D D f.T T K 4X2X2X1X1X1X:XS C xXxXxXxXxX",
"xXxXxXxXxXxXxXxXxXxXxXxXxXxXxXxXxXxXxXxXxXxXxXxXxXxXxXxXxXxXxXxXxXxX  # r 9 p q H H XXT T J ,X,X1X:X:XS A C xXxXxXxXxX",
"xXxXxXxXxXxXxXxXxXxXxXxXxXxXxXxXxXxXxXxXxXxXxXxXxXxXxXxXxXxXxXxXxXxXX + y y u q n H f.H H F ;X:X:XS S C Z xXxXxXxXxXxX",
"xXxXxXxXxXxXxXxXxXxXxXxXxXxXxXxXxXxXxXxXxXxXxXxXxXxXxXxXxXxXxXxXxX  X X = 4 y 7 5 7 n H H D D J A A C C xXxXxXxXxXxXxX",
"xXxXxXxXxXxXxXxXxXxXxXxXxXxXxXxXxXxXxXxXxXxXxXxXxXxXxXxXxXxXxXxXxXX X < < y 3 i z i a a ] G Z D C Z xXxXxXxXxXxXxXxXxX",
"xXxXxXxXxXxXxXxXxXxXxXxXxXxXxXxXxXxXxXxXxXxXxXxXxXxXxXxXxXxXxXxX.   ; < , * u i 1 z u s.a a $ % % V xXxXxXxXxXxXxXxXxX",
"xXxXxXxXxXxXxXxXxXxXxXxXxXxXxXxXxXxXxXxXxXxXxXxXxXxXxXxXxXxXxXxX. . < < < 2 , 1 z 1 z :.u y # # @ xXxXxXxXxXxXxXxXxXxX",
"xXxXxXxXxXxXxXxXxXxXxXxXxXxXxXxXxXxXxXxXxXxXxXxXxXxXxXxXxXxXxXxX.   ; < , = u , 1 z i :.t y #   xXxXxXxXxXxXxXxXxXxXxX",
"xXxXxXxXxXxXxXxXxXxXxXxXxXxXxXxXxXxXxXxXxXxXxXxXxXxXxXxXxXxXxXxX.     < < O , z u u s.z , , # # xXxXxXxXxXxXxXxXxXxXxX",
"xXxXxXxXxXxXxXxXxXxXxXxXxXxXxXxXxXxXxXxXxXxXxXxXxXxXxXxXxXxXxXxXxX  + + O O = , 1 1 u , , O +   xXxXxXxXxXxXxXxXxXxXxX",
"xXxXxXxXxXxXxXxXxXxXxXxXxXxXxXxXxXxXxXxXxXxXxXxXxXxXxXxXxXxXxXxXxXxX    + O * = = = 2 = O O + xXxXxXxXxXxXxXxXxXxXxXxX",
"xXxXxXxXxXxXxXxXxXxXxXxXxXxXxXxXxXxXxXxXxXxXxXxXxXxXxXxXxXxXxXxXxXxX. . . . . = * * = * O O . xXxXxXxXxXxXxXxXxXxXxXxX"
};
