/* XPM */
static char *result[] = {
/* columns rows colors chars-per-pixel */
"59 46 225 2 ",
"   c #281815",
".  c #321E18",
"X  c #3B241F",
"o  c #34211E",
"O  c #2D211F",
"+  c #241C2D",
"@  c #372626",
"#  c #3D3433",
"$  c #382935",
"%  c #7A191B",
"&  c #502E1F",
"*  c #6E2E1C",
"=  c #432C23",
"-  c #492D26",
";  c #4D3324",
":  c #4B362C",
">  c #573B27",
",  c #483937",
"<  c #553A33",
"1  c #4C2E30",
"2  c #673826",
"3  c #743825",
"4  c #683D34",
"5  c #703225",
"6  c #63431F",
"7  c #5E4124",
"8  c #5C422E",
"9  c #49423B",
"0  c #574339",
"q  c #634424",
"w  c #6A472A",
"e  c #734C2D",
"r  c #7B4C2C",
"t  c #774328",
"y  c #7C542C",
"u  c #76532C",
"i  c #684837",
"p  c #744837",
"a  c #795536",
"s  c #6F5332",
"d  c #7E6433",
"f  c #38255A",
"g  c #322D51",
"h  c #3D3D75",
"j  c #383769",
"k  c #7B1E50",
"l  c #4D3249",
"z  c #693A4B",
"x  c #433E79",
"c  c #443E68",
"v  c #3D407E",
"b  c #564846",
"n  c #504549",
"m  c #764645",
"M  c #7B5943",
"N  c #6D4D4E",
"B  c #726D5C",
"V  c #534571",
"C  c #6D4C72",
"Z  c #777964",
"A  c #6D6763",
"S  c #881718",
"D  c #981418",
"F  c #880E0F",
"G  c #A6191D",
"H  c #90221C",
"J  c #812D21",
"K  c #8A3125",
"L  c #963328",
"P  c #923E36",
"I  c #A93933",
"U  c #AF362D",
"Y  c #A91E21",
"T  c #CA2A3C",
"R  c #C7313D",
"E  c #845A2C",
"W  c #87493A",
"Q  c #934B39",
"!  c #855938",
"~  c #96523A",
"^  c #8A492B",
"/  c #A75637",
"(  c #AA4237",
")  c #8B622E",
"_  c #8C6335",
"`  c #876937",
"'  c #986B37",
"]  c #8D7835",
"[  c #937D37",
"{  c #967834",
"}  c #99732E",
"|  c #AC6738",
" . c #AB733C",
".. c #B16E3C",
"X. c #D84A3E",
"o. c #8B2A47",
"O. c #A52A4F",
"+. c #CF2C40",
"@. c #D22E43",
"#. c #CB3743",
"$. c #D43246",
"%. c #D73948",
"&. c #8B5144",
"*. c #A6454D",
"=. c #886441",
"-. c #997744",
";. c #906C4F",
":. c #A66849",
">. c #AD7943",
",. c #8C7D64",
"<. c #875B64",
"1. c #DC4B45",
"2. c #DB4748",
"3. c #DB5249",
"4. c #D74955",
"5. c #DA5758",
"6. c #CD4144",
"7. c #DB635A",
"8. c #CD466C",
"9. c #D04B6D",
"0. c #DD6B69",
"q. c #E0726C",
"w. c #7F8166",
"e. c #99853A",
"r. c #B78A2A",
"t. c #A78B3A",
"y. c #BA8736",
"u. c #BA922F",
"i. c #C69B2D",
"p. c #C59D32",
"a. c #CEA42C",
"s. c #D3AB2C",
"d. c #D3A92E",
"f. c #DBB32D",
"g. c #DDB82D",
"h. c #CDA534",
"j. c #D5AD32",
"k. c #D2A833",
"l. c #DBB431",
"z. c #DEB932",
"x. c #D6B237",
"c. c #E2BE2D",
"v. c #E1BC32",
"b. c #E5C32E",
"n. c #E8C72F",
"m. c #EAC92E",
"M. c #E5C432",
"N. c #E9CA33",
"B. c #EACD3B",
"V. c #E8C733",
"C. c #9C874D",
"Z. c #B78546",
"A. c #A89443",
"S. c #B09345",
"D. c #BCA54A",
"F. c #888569",
"G. c #978777",
"H. c #928E72",
"J. c #C79947",
"K. c #D79A4B",
"L. c #C6AA4A",
"P. c #C6AD51",
"I. c #CBB457",
"U. c #D2B957",
"Y. c #D4AC4C",
"T. c #E1BE41",
"R. c #D8AD66",
"E. c #DBB36B",
"W. c #DAB96B",
"Q. c #DEBA71",
"!. c #DDB573",
"~. c #CFBE63",
"^. c #E2B46D",
"/. c #E2BC74",
"(. c #E2BC7A",
"). c #E2B672",
"_. c #E1AF6B",
"`. c #E3C344",
"'. c #EDD244",
"]. c #D5C467",
"[. c #E6D46D",
"{. c #E3C177",
"}. c #E4C379",
"|. c #EADB75",
" X c #E9DA74",
".X c #E1CD6A",
"XX c #F2E47C",
"oX c #3E3F80",
"OX c #3F4181",
"+X c #414388",
"@X c #654889",
"#X c #554FDD",
"$X c #6853DC",
"%X c #7759DA",
"&X c #764EDD",
"*X c #4C53E5",
"=X c #4F54E8",
"-X c #5353E4",
";X c #5B53E4",
":X c #5354E8",
">X c #4E4EE1",
",X c #6351E2",
"<X c #6F4EE0",
"1X c #7D68CD",
"2X c #8469CF",
"3X c #A3A58B",
"4X c #B2AE95",
"5X c #A5A78D",
"6X c #BFC0A9",
"7X c #F4E984",
"8X c #F6EB8B",
"9X c #F7EC8B",
"0X c #F9EF91",
"qX c #F7EE90",
"wX c #F9F194",
"eX c #DCC9B3",
"rX c #D5D4BD",
"tX c #CDC6AE",
"yX c #E1C8B4",
"uX c #DBDAC5",
"iX c #DAD8C4",
"pX c #E2DDCA",
"aX c #E2D7C5",
"sX c #E3E1CE",
"dX c None",
/* pixels */
"dXdXdXdXdXdXdXdXdXdXdXdXdXdXdXdX% % S P L L L L % % % dXdXdXdXdXdXdXdXdXdXdXdXdXdXdXdXdXdXdXdXdXdXdXdXdXdXdXdXdXdXdXdX",
"dXdXdXdXdXdXdXdXdXdXdXdXdXdXdX% S K L G Y G G G K 3 % dXdXdXdXdXdXdXdXdXdXdXdXdXdXdXdXdXdXdXdXdXdXdXdXdXdXdXdXdXdXdXdX",
"dXdXdXdXdXdXdXdXdXdXdXdXdXdXS J K G G $.$.$.$.Y G D 3 dXdXdXdXdXdXdXdXdXdXdXdXdXdXdXdXdXdXdXdXdXdXdXdXdXdXdXdXdXdXdXdX",
"dXdXdXdXdXdXdXdXdXdXdXdXdXdXJ K G @.$.%.2.%.%.$.T G D * dXdXdXdXdXdXdXdXdXdXdXdXdXdXdXdXdXdXdXdXdXdXdXdXdXdXdXdXdXdXdX",
"dXdXdXdXdXdXdXdXdXdXdXdXdXS G T +.$.%.2.2.2.1.2.#.#.D 5 dXdXdXdXdXdXdXdXdXdXdXdXdXdXdXdXdXdXdXdXdXdXdXdXdXdXdXdXdXdXdX",
"dXdXdXdXdXdXdXdXdXdXdXdXJ D T @.$.$.%.2.2.1.1.1.4.6.D S * dXdXdXdXdXdXdXdXdXdXdXdXdXdXdXdXdXdXdXdXdXdXdXdXdXdXdXdXdXdX",
"dXdXdXdXdXdXdXdXdXdXdXK D T @.@.$.%.%.2.3.yXyXyXeX6.#.S 5 dXdXdXdXdXdXdXdXdXdXdXdXdXdXdXdXdXdXdXdXdXdXdXdXdXdXdXdXdXdX",
"dXdXdXdXdXdXdXdXdXS J D T T @.$.%.%.4.3.yXyXR yXU tX#.S * dXdXdXdXdXdXdXdXdXdXdXdXdXdXdXdXdXdXdXdXdXdXdXdXdXdXdXdXdXdX",
"dXdXdXdXdXdXdX* J J D T T @.$.%.%.2.1.3.eXeXI I L eX#.S 5 dXdXdXdXdXdXdXdXdXdXdXdXdXdXdXdXdXdXdXdXdXdXdXdXdXdXdXdXdXdX",
"dXdXdXdXdX* * F D D T T $.R %.%.2.1.1.3.eXeXI I L tXS 5 & dXdXdXdXdXdXdXdXdXdXdXdXdXdXdXdXdXdXdXdXdXdXdXdXdXdXdXdXdXdX",
"dXdXdXdX* F F R T Y T $.$.%.%.1.2.1.1.I &.m m p 4 < 1 - X dXdXdXdXdXdXdXdXdXdXdXdXdXdXdXdXdXdXdXdXdXdXdXdXdXdXdXdXdXdX",
"dXdXdXdX* F R R R R R %.%.X.1.1.U Q W W &.m m i 4 < 1 - o .   dXdXdXdXdXdXdXdXdXdXdXdXdXdXdXdXdXdXdXdXdXdXdXdXdXdXdXdX",
"dXdXdXdX5 S R R %.%.6.X.X.U Q Q Q &.&.! a M p i i < : = @ .     dXdXdXdXdXdXdXdXdXdXdXdXdXdXdXdXdXdXdXdXdXdXdXdXdXdXdX",
"dXdXdX* 3 H R %.U ^ P ^ Q ~ ~ ~ | K.).).!.!.!.R.R.^ : ; = dXdXdXdXdXdXdXdXdXdXdXdXdXdXdXdXdXdXdXdXdXdXdXdXdXdXdXdXdXdX",
"dXdXdX5 2 ^ ^ t ^ / / | K.^.).^.)././.>.=.Q.!.W.! ! > > ; dXdXdXdXdXdXdXdXdXdXdXdXdXdXdXdXdXdXdXdXdXdXdXdXdXdXdXdXdXdX",
"dXdXdX- 3 ^ R._.R._.| ..^.)./././././.-.-.Q.Q.Q.a s i < 8 dXdXdXdXdXdXdXdXdXdXdXdXdXdXdXdXdXdXdXdXdXdXdXdXdXdXdXdXdXdX",
"dXdXdX; ^ R.R.R.^.^. ...Y.).{./.}.}.}.-.-.}.}./.` ' ! E > > dXdXdXdXdXdXdXdXdXdXdXdXdXdXdXdXdXdXdXdXdXdXdXdXdXdXdXdXdX",
"dXdXdX- r R.R.'  .{. ...>.Z.{.}.}.}.}.-.C.}.}.}.Y./.W.J.E ; dXdXdXdXdXdXdXdXdXdXdXdXdX[ ] ] e.[ [ dXdXdXdXdXdXdXdXdXdX",
"dXdXdX: r R.R.!. .^.>.Z.Z.Z.{.}.}.}.}.C.Z.}.}.}.}./.Q.E.J.t = dXdXdXdXdXdXdXdXdX] e.e.A.A.A.A.A.A.e.e.] dXdXdXdXdXdXdX",
"dXdXdX1 e W R.!.Q.{.(.>.Z.}.}.}.}.}.}.}.}.}.}.}.}.(./.W.R.e - dXdXdXdXdXdXdX] e.e.A.A. X X X XD.|.A.A.A.e.[ dXdXdXdXdX",
"dXdXdX< 1 &.&.).Q.Q.7X!.}.}.}.}.-.-.}.}.}.}.}.}.{.Q.W.W.R.t = dXdXdXdXdXdX] e.t. X X].8X9X8X8X8X8X7X7X].A.e.e.dXdXdXdX",
"dXdXl l z l N =.:.!.(.!.(.(.}. .' -.=.Q.Q.{././.{.Q.W.R.u.e = dXdXdXdXdX` e.I.[.].7X8X9XqX0XqXqX9X9X7X7XXX.Xe.] dXdXdX",
"dXdXl l z P o.2X<.:.(.(.(./.(.| =.=.M ! L.).).).W.Q.W.J.y : dXdXdXdXdXd ] D.[.|.7X8X9X0XwXwXwXwXqXqX8X7X7X]..Xe.] dXdX",
"dXf f z o.o.$X%X2X:.:.(.(./.).).=.&.a M a ' J.L.J.! s 8 : dXdXdXdXdXdXd ] ].~.].8X8X0XwXwXwXwXwXwXwXqX8X7XXX[.t.[ ` dX",
"f f k k >X#X$X&X2X<.*.:...)._._.E.W a p p i a i s i 8 : 8 dXdXdXdXdXdX` [ I.[.XX7X9X0XwXwXqXwXwXwXwX9X9X7X].~.t.e.d dX",
"f z k x #X#X$X%X<.9.5.5./ | .._._._.R.p i i m i 0 0 , < : dXdXdXdXdXdXs e.t.~.|.[.XX9X0XwXXXwXwXqXqX X7X|.|.S.t.d d s ",
"j j oX>X>X,X,XC 8.4.8.4.3.3./ / / ~ ~ ~ &.m i i i 0 < < , dXdXdXdXdXq w y ] S.Y.].XXXXXX X|.7X7X7XXXXX[.|.D.k.[ y u u ",
"h oX+X>X>X;X,XV 8.8.4.%.2.2.1.1.U &.I I I Q P Q b 0 9 : # : dXdXdX6 w e d h.h.x.L..X[.[.`.[.XX[.[.XX.XY.x.x.z.] ) u w ",
"oX+X>X*X;X;X;X@X8.8.O.8.2.2.2.1.3.3.( ( :.G./ *.F.Z B B A @ : ; ; 6 6 u ) g.h.x.B.'.T.T.T.`.'.`.`.T.T.'.x.v.z.p.! s q ",
"+X+X*X*X:X;X;X@X8.8.O.O.4.2.2.3.3.5.7.7.4XrXG.H.H.F.w.H.8 : : 7 > 2 w y u.g.z.j.N.N.B.z.Y.B.B.B.B.B.B.N.x.M.z.l.) r 6 ",
"+X+X*X=X:X:X;X;X@X8.8.O.+.8.4.4.5.7.q.q.aXaXrXiXrXrX3XF.M b 8 8 w w e y a.g.v.M.V.V.B.z.z.B.B.B.B.N.N.V.x.c.z.g.) y 6 ",
"+X+X*X=X:X:X:X;X<X@X@XC O.O.4.4.5.7.q.aXaXaXsXpXaXrXrXF.M a i s w u y E s.g.c.M.M.V.N.V.z.N.m.N.V.N.V.V.b.c.g.} ) y e ",
"oX+X*X*X*X=X:X:X;X,X,X<X&XO.O.5.0.q.aXaXpXpXsXsXpX6X4XG.S.y.t.r.r.r.r.) s.g.b.b.c.n.m.m.g.m.m.m.c.m.m.n.c.c.u.i.f.E r ",
"h oX+X*X*X*X=X:X;X;X;X$X<X&XO.*.9.q.aXpXpXeXsXsXpX5X3XR.L.L.h.p.u.i.i.) s.g.c.b.c.m.m.m.v.n.m.m.v.n.m.n.n.c.u.i.f.E e ",
"j h oX*X*X*X:X-X:X:X;X$X,X%X%X*.G.aXiXiXpXsXtXsXsXpXG.H.C.C.[ ] { } } ) s.f.g.b.f.n.n.m.m.m.m.m.f.n.m.n.c.c.u.i.s.E r ",
"g j h h >X>X*X-X:X;X;X;X,X,X$XC ,.iXiXiX6XsXsXsXsXsXsXH.H.M s s e e y E a.s.b.b.f.b.n.m.m.m.m.m.v.m.n.b.c.c.c.' ) y e ",
"g g j h h >X#X#X:X;X;X,XV V C A A 3XiXiXuX6XsXsX6XuXrXrXw.w.i i w i e y a.s.f.b.j.c.n.m.m.m.m.c.v.c.n.n.s.c.s.s.E y 6 ",
"g + g j j V x x V V V V V V N n N N 3XiXuXuXuXuXuX4XrXrXw.Z B 8 > > w u u.s.s.g.d.j.n.m.m.m.b.v.l.n.b.c.s.s.s.s.E t 6 ",
"+ + + $ $ g l N N N z m l m m m n b A 5XiXiXiX4XrXiX3Xw.B 9 , 9 ; 7 6 w y i.s.s.d.j.v.c.b.n.n.f.f.b.c.c.a.s.s.u.y e 6 ",
"+ + + g 4 , z p z J.J.p z < 4 m i n n w.w.w.5X5Xw.5X3XA 9 9 dXdXdXdX7 7 e } a.s.a.d.v.v.v.v.v.j.s.v.f.s.i.s.a.y e 6 7 ",
"  + o @ 4 $ i 3 4 J.Z.e 4 1 4 4 w , , n 9 w.Z w.Z Z A A , dXdXdXdXdXdX> w D.P.k.i.k.l.f.z.g.z.d.d.v.j.a.i.d.i.y w 6 2 ",
"dX  o @ 2 - 3 w 4 P t t 3 : - - # @ 1 , n 9 9 9 9 9 # # dXdXdXdXdXdXdXdXq w P.P.i.i.l.f.l.z.l.k.k.f.j.i.i.P.P.e w q dX",
"dX  O o * 2 3 t 3 ^ t 3 - = 2 2 @ @ @ # 9 n dXdXdXdXdXdXdXdXdXdXdXdXdXdX> w e P.I.Y.j.j.l.f.l.h.h.j.j.i.P.P.u w q dXdX",
"dX  . o X = y.r.p...y.t 5 = @ . @ O O @ dXdXdXdXdXdXdXdXdXdXdXdXdXdXdXdXdX< w u ! t.I.I.U.U.U.U.U.I.I.I.{ y w 4 > dXdX",
"dXdX  o X X & & ; ; & = = X X o     dXdXdXdXdXdXdXdXdXdXdXdXdXdXdXdXdXdXdX7 q s s ! ` ' t.t.y.t.t._ _ E s e w q dXdXdX",
"dXdX    . o = = & = & & = X         dXdXdXdXdXdXdXdXdXdXdXdXdXdXdXdXdXdXdXdX8 q w e a ! _ _ _ _ _ ! ! s w q > > dXdXdX"
};
