/* XPM */
static char *result[] = {
/* columns rows colors chars-per-pixel */
"61 72 229 2 ",
"   c #2D1B1A",
".  c #281713",
"X  c #331E1B",
"o  c #3B231D",
"O  c #37221C",
"+  c #2D1E25",
"@  c #382324",
"#  c #31243A",
"$  c #1E1414",
"%  c #46241F",
"&  c #59391D",
"*  c #4E301C",
"=  c #67361E",
"-  c #722E1E",
";  c #472A26",
":  c #4C332A",
">  c #543426",
",  c #5C3B2A",
"<  c #563829",
"1  c #5A3A35",
"2  c #492C35",
"3  c #672927",
"4  c #762C22",
"5  c #6C3422",
"6  c #623D2A",
"7  c #693728",
"8  c #793624",
"9  c #683939",
"0  c #703D36",
"q  c #461C1B",
"w  c #63421E",
"e  c #5B412E",
"r  c #4D443C",
"t  c #594539",
"y  c #65422B",
"u  c #6B452C",
"i  c #684929",
"p  c #734C2C",
"a  c #77472F",
"s  c #7C532D",
"d  c #624432",
"f  c #6B4A34",
"g  c #694837",
"h  c #744D33",
"j  c #77483A",
"k  c #7D5333",
"l  c #765638",
"z  c #6D5132",
"x  c #7C6337",
"c  c #37345A",
"v  c #31284D",
"b  c #3A396A",
"n  c #383771",
"m  c #46344B",
"M  c #483957",
"N  c #55364C",
"B  c #673B47",
"V  c #463C68",
"C  c #4C3B6E",
"Z  c #5C5343",
"A  c #534B42",
"S  c #694748",
"D  c #6C574A",
"F  c #5A446F",
"G  c #72506E",
"H  c #757664",
"J  c #6F644A",
"K  c #8B1818",
"L  c #961D1F",
"P  c #A2191C",
"I  c #A9231D",
"U  c #961B27",
"Y  c #9C2C29",
"T  c #883626",
"R  c #822E34",
"E  c #BA352B",
"W  c #A83832",
"Q  c #AF2E30",
"!  c #A01B25",
"~  c #C23B34",
"^  c #825A2E",
"/  c #864A3A",
"(  c #875834",
")  c #935039",
"_  c #896635",
"`  c #977A39",
"'  c #906E35",
"]  c #B56B2F",
"[  c #C14233",
"{  c #A62F47",
"}  c #D42F44",
"|  c #CB3745",
" . c #D43444",
".. c #DC354A",
"X. c #DB3B49",
"o. c #D73749",
"O. c #CB3758",
"+. c #D13B55",
"@. c #E03F48",
"#. c #C43867",
"$. c #855942",
"%. c #854B49",
"&. c #896642",
"*. c #977A44",
"=. c #926D42",
"-. c #AA7F44",
";. c #8B7D65",
":. c #AF6D5C",
">. c #DA4E49",
",. c #D94846",
"<. c #DA524B",
"1. c #C64857",
"2. c #D55250",
"3. c #E14A46",
"4. c #E25147",
"5. c #E35954",
"6. c #D96258",
"7. c #E3625B",
"8. c #CC486A",
"9. c #E36F67",
"0. c #DE746A",
"q. c #7F8268",
"w. c #98843A",
"e. c #B68A27",
"r. c #BA8C35",
"t. c #B48B2D",
"y. c #C4992C",
"u. c #CA9C32",
"i. c #C49634",
"p. c #C28338",
"a. c #CCA42B",
"s. c #CCA526",
"d. c #D3AB2D",
"f. c #D1A72D",
"g. c #DDB82D",
"h. c #CDA333",
"j. c #CCAA3B",
"k. c #D2A534",
"l. c #D5AA35",
"z. c #D6AB37",
"x. c #DCB333",
"c. c #DAB537",
"v. c #E1BD2D",
"b. c #E2BB35",
"n. c #E1BD3A",
"m. c #E7C52F",
"M. c #E6C333",
"N. c #E9C631",
"B. c #E9C932",
"V. c #EACB3B",
"C. c #E6C43B",
"Z. c #998346",
"A. c #A38849",
"S. c #AA9647",
"D. c #AE9453",
"F. c #BEA84D",
"G. c #BFA457",
"H. c #87876A",
"J. c #928E72",
"K. c #A9856F",
"L. c #CA9C4A",
"P. c #CE9453",
"I. c #C3A75A",
"U. c #D7A15B",
"Y. c #D4B048",
"T. c #D9AB68",
"R. c #DAB56C",
"E. c #DCB96E",
"W. c #D5B167",
"Q. c #DFBC72",
"!. c #D4BD75",
"~. c #CBB263",
"^. c #E4B46E",
"/. c #E3BD73",
"(. c #E3B770",
"). c #E4AE6A",
"_. c #E1BE48",
"`. c #E6C644",
"'. c #ECD047",
"]. c #DBC869",
"[. c #E5D36A",
"{. c #E3C176",
"}. c #E5C57A",
"|. c #E5CB78",
" X c #E9D777",
".X c #E1CD68",
"XX c #F2E47C",
"oX c #474384",
"OX c #715490",
"+X c #494DDE",
"@X c #524DDC",
"#X c #5756DA",
"$X c #4A52DF",
"%X c #765BDB",
"&X c #675CDC",
"*X c #6968DB",
"=X c #7164DA",
"-X c #4D53E4",
";X c #4F57E9",
":X c #565AE8",
">X c #4C4FE1",
",X c #665AE4",
"<X c #725DE1",
"1X c #5C62E9",
"2X c #6565E6",
"3X c #865C80",
"4X c #9EA38A",
"5X c #BABBA3",
"6X c #A8A289",
"7X c #D7BD97",
"8X c #D8BC8A",
"9X c #D1BEA3",
"0X c #E8D782",
"qX c #F3E583",
"wX c #F4E984",
"eX c #F6EB8C",
"rX c #F6EB95",
"tX c #F6EB94",
"yX c #F9F095",
"uX c #D9C8B1",
"iX c #D6D4BE",
"pX c #CCC7AE",
"aX c #E4D3BE",
"sX c #DADAC4",
"dX c #D9D9C3",
"fX c #E5DBC7",
"gX c #E5E1CE",
"hX c #E7E3D1",
"jX c None",
/* pixels */
"jXjXjXjXjXjXjXjXjXjXjXjXjXjXjXjXjXjXjXjXjXjXjXjXjXjXjXjXjXjXjXjXjXjXjXjXjXjXjXjX=.*.*.Z.A.H.*.( l f jXjXjXjXjXjXjXjXjXjXjX",
"jXjXjXjXjXjXjXjXjXjXjXjXjXjXjXjXjXjXjXjXjXjXjXjXjXjXjXjXjXjXjXjXjXjXjXjXjXjXjXZ.Z.A.A.D.D.D.=.J l z i jXjXjXjXjXjXjXjXjXjX",
"jXjXjXjXjXjXjXjXjXjXjXjXjXjXjXjXjXjXjXjXjXjXjXjXjXjXjXjXjXjXjXjXjXjXjXjXjXjXZ.*.A.D.D.D.0X0X=.&.l h z i jXjXjXjXjXjXjXjXjX",
"jXjXjXjXjXjXjXjXjXjXjXjXjXjXjXjXjXjXjXjXjXjXjXjXjXjXjXjXjXjXjXjXjXjXjXjXjXjXw.A.D.D.rXrXrX!.0X}.=.l z y y jXjXjXjXjXjXjXjX",
"jXjXjXjXjXjXjXjXjXjXjXjXjXjXjXjXjXjXjXjXjXjXjXjXjXjXjXjXjXjXjXjXjXjXjXjXjXw.Z.S.eXrXrXrXrXrX!.!.L._ l z 6 w jXjXjXjXjXjXjX",
"jXjXjXjXjXjXjXjXjXjXjXjXjXjXjXjXjXjXjXjXjXjXjXjXjXjXjXjXjXjXjXjXjXjXjXjX` A.S.eXrXrXrXrXrXrX0X XL.r.k.k p y w > ; jXjXjXjX",
"jXjXjXjXjXjXjXjXjXjXjXjXjXjXjXjXjXjXjXjXjXjXjXjXjXjXjXjXjXjXjXjXjXjXjX' w.S.wXeXrXyXrXrXrXrX0X0XY.c.j.k.s a y 6 > > jXjXjX",
"jXjXjXjXjXjXjXjXjXjXjXjXjXjXjXjXjXjXjXjXjXjXjXjXjXjXjXjXjXjXjXjXjXjXjXw.S.wXeXeXrXyXrXrXrX0X|.].Y.L.c.z.f.^ ' ^ 6 > > jXjX",
"jXjXjXjXjXjXjXjXjXjXjXjXjXjXjXjXjXjXjXjXjXjXjXjXjXjXjXjXjXjXjXjXjXjX` w.S.wXeXyXyXyXyXyXwXqX|._.`.L.n.c.l.u.^ ] _ 7 > jXjX",
"jXjXjXjXjXjXjXjXjXjXjXjXjXjXjXjXjXjXjXjXjXjXjXjXjXjXjXjXjXjXjXjXjXjX` S.XXwXeXyXyXyXyXwXwXwX|.Y.C._.k.x.b.d.y.^ ' 6 6 * jX",
"jXjXjXjXjXjXjXjXjXjXjXjXjXjXjXjXjXjXjXjXjXjXjXjXjXjXjXjXjXjXjXjXjXjXw.w.wXwXeXeXyXyX XwXeX[._.`.C.n.n.b.x.x.u.u.s u = & * ",
"jXjXjXjXjXjXjXjXjXjXjXjXjXjXjXjXjXjXjXjXjXjXjXjXjXjXjXjXjXjXjXjXjXx w.S.XXwXeXyXeXwX X X[.'.'.V.C.C.b.b.b.x.k.u.^ p i & * ",
"jXjXjXjXjXjXjXjXjXjXjXjXjXjXjXjXjXjXjXjXjXjXjXjXjXjXjXjXjXjXjXjXjX_ w..X[.wXwX[.XXXXXX`.`.V.V.V.b.C.b.b.b.x.k.k.u.k p = & ",
"jXjXjXjXjXjXjXjXjXjXjXjXjXjXjXjXjXjXjXjXjXjXjXjXjXjXjXjXjXjXjXjXjXx ` [.~. X].[.XXXX[._.'.V.V.B.b.x.x.N.b.b.k.i.u.^ s u & ",
"jXjXjXjXjXjXjXjXjXjXjXjXjXjXjXjXjXjXjXjXjXjXjXjXjXjXjXjXjXjXjXjXjXjXz x [.[..X].[.[.n.n.c.V.V.B.N.x.x.z.b.b.z.i.i.y.k h u ",
"jXjXjXjXjXjXjXjXjXjXjXjXjXjXjXjXjXjXjXjXjXjXjXjXjXjXjXjXjXjXjXjXjXjXt z x ~.j.c.c.V.V.V.c.v.B.B.N.b.x.z.k.b.z.k.i.u.( h a ",
"jXjXjXjXjXjXjXjXjXjXjXjXjXjXjXjXjXjXjXjXjXjXjXjXjXjXjXjXjXjXjXjXjXjXjXi z _ h.h.M.C.B.B.m.B.v.B.N.N.v.x.k.k.z.z.i.p.I.j j ",
"jXjXjXjXjXjXjXjXjXjXjXjXjXjXjXjXjXjXjXjXjXjXjXjXjXjXjXjXjXjXjXjXjXjXjXi z l d.g.h.M.M.N.B.m.m.B.N.N.N.b.z.k.z.z.h.i.( k l ",
"jXjXjXjXjXjXjXjXjXjXjXjXjXjXjXjXjXjXjXjXjXjXjXjXjXjXjXjXjXjXjXjXjXjXjXy y p ^ g.g.g.b.m.m.m.m.m.m.m.N.b.x.h.h.l.k.p.~.k j ",
"jXjXjXjXjXjXjXjXjXjXjXjXjXjXjXjXjXjXjXjXjXjXjXjXjXjXjXjXjXjXjXjXjXjXjX& y u s _ ' r.v.v.m.g.m.m.m.N.N.N.b.x.u.k.h.I.I.j h ",
"jXjXjXjXjXjXjXjXjXjXjXjXjXjXjXjXjXjXjXjXjXjXjXjXjXjXjXjXjXjXjXjXjXjXjX< = i p ^ t.y.a.v.v.m.d.d.m.v.v.b.x.l.k.k.h.I.k h f ",
"jXjXjXjXjXjXjXjXjXjXjXjXjXjXjXjXjXjXjXjXjXjXjXjXjXjXjXjXjXjXjXjXjXjXjX& 6 u p ` t.a.y.t.g.v.v.s.d.v.g.g.x.u.y.u.I.k h g , ",
"jXjXjXjXjXjXjXjXjXjXjXjXjXjX- - 4 5 jXjXjXjXjXjXjXjXr # m jXjXjXjXt e , y i ' e.e.e.e.' d.d.d.d.f.f.f.d.d.i.i.I.I.h u y > ",
"jXjXjXjXjXjXjXjXjXjXjXjX5 8 K K K K 8 8 3 9 g 2 r r H H H A r H D t t d i ' s.s.e.s s s ^ s.s.s.f.y.u.u.f.k.I.I.h d y < & ",
"jXjXjXjXjXjXjXjXjXjXjX5 K K Y | | | U L / 1 1 t ;.H 4X4X4Xq.q.Z Z S g z x a.s.t.p i u i p s s s.a.s.a.a.I.I.s f 6 6 , jXjX",
"jXjXjXjXjXjXjXjXjX% 5 K K | | | | | | Y Y %.S ;.H.dXdXdXdXdXdXq.q.z D w.d.a.e.e 6 6 = w 6 y u p F.F.s L.F.z y , , jXjXjXjX",
"jXjXjXjXjX$ $   X 3 4 ~ ~ uXpXuX,.,.X.,.W W ;.J.dXsXdXsX5XsXdXdXJ.J.Z.j.a.t.e w , & & & & , 6 6 i i y u i , , > jXjXjXjXjX",
"jXjXjXjX$ $     X @ q ~ pXY uXuXpX,.,.2.2.[ K.iXsX5XsXgX5XgXsXsXsXJ.J j.w.i , > jXjXjXjXjXjXjX> > < , , > * jXjXjXjXjXjXjX",
"jXjXjXjXjX.     @ q ; , Y Y W Q uX>.<.<.<.K.K.aXsX9XfXhXhXpXgXsXsXiXH.D z t < jXjXjXjXjXjXjXjXjXjXjXjXjXjXjXjXjXjXjXjXjXjX",
"jXjXjXjXjXjX  O @ ; : 1 9 0 W uXuX>.<.<.5.K.aXfXfXsXuXhXhXhXgXgXsXdXH.Z D g jXjXjXjXjXjXjXjXjXjXjXjXjXjXjXjXjXjXjXjXjXjXjX",
"jXjXjXjXjXjXO o ; ; 1 1 9 j j uX2.>.>.<.<.K.fXaXfXfXhXhXhXhXgXhXsXdXH.Z D jXjXjXjXjXjXjXjXjXjXjXjXjXjXjXjXjXjXjXjXjXjXjXjX",
"jXjXjXjXjX@ % o ; 2 < t g B 0 / >.>.>.<.5.[ 7.fXfXfXfXhXhXhXsXsXsXiXq.A jXjXjXjXjXjXjXjXjXjXjXjXjXjXjXjXjXjXjXjXjXjXjXjXjX",
"jXjXjXjX: : < > < 1 ~.W.g j / S / >.>.>.<.| 5.9.9.fXfXfXfXfXfXsXiXiXq.r jXjXjXjXjXjXjXjXjXjXjXjXjXjXjXjXjXjXjXjXjXjXjXjXjX",
"jXjXjXe : < < d t ( T.T.R.R.k / / / ,.>.E ~ 5.5.9.9.0.fXfXfXiXiXiXq.r jXjXjXjXjXjXjXjXjXjXjXjXjXjXjXjXjXjXjXjXjXjXjXjXjXjX",
"y d > < s ^ ( ( l l R.E.E.E.R.)./ / W ,.E 4.3.5.5.7.9.9.0.iXiX6Xq.Z jXjXjXjXjXjXjXjXjXjXjXjXjXjXjXjXjXjXjXjXjXjXjXjXjXjXjX",
"y e ^ ( W.R.L.` x &.Q.E.Q.&.&.(.R.) ) ,.~ ,.3.3.4.5.5.7.6.6.;.;.r jXjXjXjXjXjXjXjXjXjXjXjXjXjXjXjXjXjXjXjXjXjXjXjXjXjXjXjX",
"e ( _ ^.^.(.]./.-.-./.{.-.' =./.(.^.) ~ ~ ..@.@.3.3.4.5.2.W g 9 jXjXjXjXjXjXjXjXjXjXjXjXjXjXjXjXjXjXjXjXjXjXjXjXjXjXjXjXjX",
"g ( L.E./.{.{.}.0X/.}.}.:.*.-./.(.(.).~ 3.@...@.@.@.o.o.Q R S jXjXjXjXjXjXjXjXjXjXjXjXjXjXjXjXjXjXjXjXjXjXjXjXjXjXjXjXjXjX",
"g ' (.E./.}.}.}.}.}.0X/.-.-.}./.{.).).~ 3.@.......} o.| ! 8 jXjXjXjXjXjXjXjXjXjXjXjXjXjXjXjXjXjXjXjXjXjXjXjXjXjXjXjXjXjXjX",
"g _ E.{.}.}.}.}.}.8X/.0X/.0X/./.^.).~ E 3.@.....} } } ! T 4 jXjXjXjXjXjXjXjXjXjXjXjXjXjXjXjXjXjXjXjXjXjXjXjXjXjXjXjXjXjXjX",
"y ( L.E.{.{.}.|.}.}.}.}.}.{././.(.^.[ 4.3.3. .} } } P T T jXjXjXjXjXjXjXjXjXjXjXjXjXjXjXjXjXjXjXjXjXjXjXjXjXjXjXjXjXjXjXjX",
"h f _ E.E./.{.{.}.}.}.{.{.Q./.(.^.^.[ 4.3.3.@.} } } P L - jXjXjXjXjXjXjXjXjXjXjXjXjXjXjXjXjXjXjXjXjXjXjXjXjXjXjXjXjXjXjXjX",
"f l d ( L.R.Q.Q.Q.{././.Q.=.=.^.^.[ [ 3.@.@.@.} ~ I T T - jXjXjXjXjXjXjXjXjXjXjXjXjXjXjXjXjXjXjXjXjXjXjXjXjXjXjXjXjXjXjXjX",
"jXjXh e t z L.R.E.^.*._ &.$.$.$.^.[ 4.3.@.@.@.} I P 3 4 jXjXjXjXjXjXjXjXjXjXjXjXjXjXjXjXjXjXjXjXjXjXjXjXjXjXjXjXjXjXjXjXjX",
"jXjXjXf < e t z z l l D D $./ ) ).E ,.@. .@. .~ I U.T * jXjXjXjXjXjXjXjXjXjXjXjXjXjXjXjXjXjXjXjXjXjXjXjXjXjXjXjXjXjXjXjXjX",
"jXjXjXjXe : < < t g S h j l / ).E E @...@. .@.I U.U.8 % jXjXjXjXjXjXjXjXjXjXjXjXjXjXjXjXjXjXjXjXjXjXjXjXjXjXjXjXjXjXjXjXjX",
"jXjXjXjXjX: ; : , , g f j T.).T.E X.@.....@.I I U.p.8 ; jXjXjXjXjXjXjXjXjXjXjXjXjXjXjXjXjXjXjXjXjXjXjXjXjXjXjXjXjXjXjXjXjX",
"jXjXjXjXjXjX: : 0 a T.T.T.T.R.T.Q | @...~ ..I U.U.8 % jXjXjXjXjXjXjXjXjXjXjXjXjXjXjXjXjXjXjXjXjXjXjXjXjXjXjXjXjXjXjXjXjXjX",
"jXjXjXjXjXjX; 2 0 a j / P.P.P.Q Q ........! U.T T 8 X jXjXjXjXjXjXjXjXjXjXjXjXjXjXjXjXjXjXjXjXjXjXjXjXjXjXjXjXjXjXjXjXjXjX",
"jXjXjXjXjXjX# N N 0 1.$.%.D %.Q +.+.O...} P T 8 ; % jXjXjXjXjXjXjXjXjXjXjXjXjXjXjXjXjXjXjXjXjXjXjXjXjXjXjXjXjXjXjXjXjXjXjX",
"jXjXjXjXjX2 m m R 1.1.2.G %XG { +.+.#...! R 3 ; jXjXjXjXjXjXjXjXjXjXjXjXjXjXjXjXjXjXjXjXjXjXjXjXjXjXjXjXjXjXjXjXjXjXjXjXjX",
"jXjXjXjXjXm M R #.1.1.G %X%XG { +.+.O...U R 3 3 jXjXjXjXjXjXjXjXjXjXjXjXjXjXjXjXjXjXjXjXjXjXjXjXjXjXjXjXjXjXjXjXjXjXjXjXjX",
"jXjXjXjXc m M F F G G =X%X%XG 8.8.#.#.O.U N 3 jXjXjXjXjXjXjXjXjXjXjXjXjXjXjXjXjXjXjXjXjXjXjXjXjXjXjXjXjXjXjXjXjXjXjXjXjXjX",
"jXjXjXjX1 F #X#X#X*X*X=X%X%X%XOX#.#.#.#.C M 2 jXjXjXjXjXjXjXjXjXjXjXjXjXjXjXjXjXjXjXjXjXjXjXjXjXjXjXjXjXjXjXjXjXjXjXjXjXjX",
"jXjXjX1 9 S @X&X*X*X8X8X3X<X%X<X,XF F C C N m jXjXjXjXjXjXjXjXjXjXjXjXjXjXjXjXjXjXjXjXjXjXjXjXjXjXjXjXjXjXjXjXjXjXjXjXjXjX",
"jXjXjXB S ~.#X,X*X8X8X7X7X<X,X,X,X,X,X@X@XM c jXjXjXjXjXjXjXjXjXjXjXjXjXjXjXjXjXjXjXjXjXjXjXjXjXjXjXjXjXjXjXjXjXjXjXjXjXjX",
"jXjXjXS S ~.#X1X*X7X7X7X9X2X2X2X:X:X:X@X@XC c jXjXjXjXjXjXjXjXjXjXjXjXjXjXjXjXjXjXjXjXjXjXjXjXjXjXjXjXjXjXjXjXjXjXjXjXjXjX",
"jXjXjXc b #X#X#X1X*X7XpXOX2X2X1X:X:X@X>X>Xn c v jXjXjXjXjXjXjXjXjXjXjXjXjXjXjXjXjXjXjXjXjXjXjXjXjXjXjXjXjXjXjXjXjXjXjXjXjX",
"jXjXjXc V $X$X1X1X1X1X*X1X1X1X1X:X;X-X>X>Xn v # jXjXjXjXjXjXjXjXjXjXjXjXjXjXjXjXjXjXjXjXjXjXjXjXjXjXjXjXjXjXjXjXjXjXjXjXjX",
"jXjXjXjXc b $X$X#X1X1X1X1X1X:X;X;X;X;X-X+XC v # + jXjXjXjXjXjXjXjXjXjXjXjXjXjXjXjXjXjXjXjXjXjXjXjXjXjXjXjXjXjXjXjXjXjXjXjX",
"jXjXjXjXc b +X+X-X;X;X;X:X;X;X;X:X;X;X>X+XV B 1 # + jXjXjXjXjXjXjXjXjXjXjXjXjXjXjXjXjXjXjXjXjXjXjXjXjXjXjXjXjXjXjXjXjXjXjX",
"jXjXjXjXjXc b +X+X-X;X;X;X;X;X;X-X-X-X-X+XV B 9 @   jXjXjXjXjXjXjXjXjXjXjXjXjXjXjXjXjXjXjXjXjXjXjXjXjXjXjXjXjXjXjXjXjXjXjX",
"jXjXjXjXjXjXc n n +X;X-X>X;X;X;X-X-X>X@XC B B 7 @ @ jXjXjXjXjXjXjXjXjXjXjXjXjXjXjXjXjXjXjXjXjXjXjXjXjXjXjXjXjXjXjXjXjXjXjX",
"jXjXjXjXjXjXjXc b n n n +X-X;XoXoX@X@XC N B 9 7 7 O X jXjXjXjXjXjXjXjXjXjXjXjXjXjXjXjXjXjXjXjXjXjXjXjXjXjXjXjXjXjXjXjXjXjX",
"jXjXjXjXjXjXjXjXjXc b n n n C C V C c m g 0 0 0 = = O . jXjXjXjXjXjXjXjXjXjXjXjXjXjXjXjXjXjXjXjXjXjXjXjXjXjXjXjXjXjXjXjXjX",
"jXjXjXjXjXjXjXjXjXjXv v v b N B B B m B 0 0 7 5 r.= O   jXjXjXjXjXjXjXjXjXjXjXjXjXjXjXjXjXjXjXjXjXjXjXjXjXjXjXjXjXjXjXjXjX",
"jXjXjXjXjXjXjXjXjXjXjXv # v 1 9 9 9 2 0 0 8 7 7 = ] O   jXjXjXjXjXjXjXjXjXjXjXjXjXjXjXjXjXjXjXjXjXjXjXjXjXjXjXjXjXjXjXjXjX",
"jXjXjXjXjXjXjXjXjXjXjXjX+ + 3 1 7 9 ; 5 u 5 5 5 = = O . jXjXjXjXjXjXjXjXjXjXjXjXjXjXjXjXjXjXjXjXjXjXjXjXjXjXjXjXjXjXjXjXjX",
"jXjXjXjXjXjXjXjXjXjXjXjXjX+ X > 3 , @ ; 5 5 5 = = O O jXjXjXjXjXjXjXjXjXjXjXjXjXjXjXjXjXjXjXjXjXjXjXjXjXjXjXjXjXjXjXjXjXjX",
"jXjXjXjXjXjXjXjXjXjXjXjXjXjX  O X @ o % % = 5 = o O   jXjXjXjXjXjXjXjXjXjXjXjXjXjXjXjXjXjXjXjXjXjXjXjXjXjXjXjXjXjXjXjXjXjX",
"jXjXjXjXjXjXjXjXjXjXjXjXjXjX. O X X o % o % o o O O   jXjXjXjXjXjXjXjXjXjXjXjXjXjXjXjXjXjXjXjXjXjXjXjXjXjXjXjXjXjXjXjXjXjX",
"jXjXjXjXjXjXjXjXjXjXjXjXjXjXjX. . . . . o o o O O . jXjXjXjXjXjXjXjXjXjXjXjXjXjXjXjXjXjXjXjXjXjXjXjXjXjXjXjXjXjXjXjXjXjXjX"
};
