/* XPM */
static char *result[] = {
/* columns rows colors chars-per-pixel */
"61 72 21 1 ",
"  c #181010",
". c #301818",
"X c #202028",
"o c #600000",
"O c #482010",
"+ c #584020",
"@ c gray25",
"# c #686868",
"$ c #A81828",
"% c #885818",
"& c #A07018",
"* c #A06830",
"= c #B08018",
"- c #C09830",
"; c #988048",
": c #B88858",
"> c #C8B058",
", c #E0C868",
"< c #2830C8",
"1 c gray69",
"2 c None",
/* pixels */
"2222222222222222222222222222222222222222222++++22222222222222",
"22222222222222222222222222222222222222222+++++...222222222222",
"222222222222222222222222222222222222222+++++>>....22222222222",
"22222222222222222222222222222222222222++++,,,;>>....222222222",
"2222222222222222222222222222222222222+++,,,,,,;;%....22222222",
"222222222222222222222222222222222222+++,,,,,,,>>%%=...2..2222",
"22222222222222222222222222222222222+++,,,,,,,,>>%===......222",
"22222222222222222222222222222222222++,,,,,,,,;;;%%===.++...22",
"2222222222222222222222222222222222+++,,,,,,,>>;%=%===&.%+..22",
"2222222222222222222222222222222222++,,,,,,,>>>;%==%===&.+..22",
"2222222222222222222222222222222222++,,,,,,;>,;%=======&&..222",
"222222222222222222222222222222222+++,,,,,>;;;=========&&...22",
"222222222222222222222222222222222++>>,,;>>>%%===%=====&&&..22",
"222222222222222222222222222222222++>;>;;>,;%=====%%===&%&...2",
"2222222222222222222222222222222222..>>;;;;%%%====%%%==&%%&...",
"2222222222222222222222222222222222...;%%%===%%====%%%=&&%&...",
"22222222222222222222222222222222222...%%======%====%%%&&%%;..",
"222222222222222222222222222222222222..==%===========%%&&&%...",
"222222222222222222222222222222222222...=============&%%&&%;..",
"2222222222222222222222222222222222222....+===%======&&%&&;;..",
"2222222222222222222222222222222222222...%%%===%%===&&&&&&;...",
"222222222222222222222222222222222222...+%%%+===%%&&&&%%&;...2",
"22222222222222OOOO22222222   222222...+%%%%.&&&&%%%&&%%;;...2",
"222222222222OOooooOO222   @@@  222...+==%....&&&&%%%&&;;...22",
"22222222222Oooo$$$ooO   @@###@@  ...+==%.......&&&&&;;....222",
"2222222222Ooo$$$$$$ooO @@111111@@ .+==%...22....;;.;;....2222",
"22222    Oo$$111$$$$oo@@1111#111@@+==%...2222...........22222",
"2222       $1o111$$$$o@11#11#1111@ =%...2222222.......2222222",
"22222       oooo1$$$$@@11#111#1111@ ...2222222222222222222222",
"222222        o11$$$$@1111#1111111@ 2222222222222222222222222",
"2222222        1$$$$$@111111111111@ 2222222222222222222222222",
"22222222        $$$$$o$11111111111@ 2222222222222222222222222",
"22222222  ::     $$$$o$$$111111111@ 2222222222222222222222222",
"2222     O::::    $$oo$$$$$111111@ 22222222222222222222222222",
"22  OOOO  ::::::   $o$$$$$$$$11#@ 222222222222222222222222222",
"2 OO::*O  :::  ::  $o$$$$$$$$$@@ 2222222222222222222222222222",
" OO:::::OO::O  ::: oo$$$$$$$$o  22222222222222222222222222222",
" O*:::::::::  O::::o$$$$$$$$oO2222222222222222222222222222222",
" O::::::::::  :::::o$$$$$$$$oO2222222222222222222222222222222",
" O::::::::::::::::oo$$$$$$$oO22222222222222222222222222222222",
" O*:::::::::::::::o$$$$$$$oOO22222222222222222222222222222222",
"2 O:::::::::::::::o$$$$$$$oOO22222222222222222222222222222222",
"22 O*::::::::  ::oo$$$$$$oOOO22222222222222222222222222222222",
"222   *:::O     :o$$$$$$oo O222222222222222222222222222222222",
"2222            :o$$$$$$o:O 222222222222222222222222222222222",
"22222          :oo$$$$$o::O 222222222222222222222222222222222",
"222222       :::o$$$$$oo:*O 222222222222222222222222222222222",
"22222222OO::::::o$$$$$o::O 2222222222222222222222222222222222",
"22222222OOOO***oo$$$$o:OOO 2222222222222222222222222222222222",
"2222222XXO$OOXXo$$$$$oOO  22222222222222222222222222222222222",
"222222XXo$$$X<Xo$$$$oO  2222222222222222222222222222222222222",
"22222XXo$$$X<<Xo$$$$oO222222222222222222222222222222222222222",
"2222XXXXXXX<<<X$$$$$oX222222222222222222222222222222222222222",
"2222OX<<<<<<<<<X$$$$XX222222222222222222222222222222222222222",
"222OOO<<<<--O<<<<XXXXXX22222222222222222222222222222222222222",
"222OO-<<<----<<<<<<<<XX22222222222222222222222222222222222222",
"222OO-<<<----<<<<<<<<XX22222222222222222222222222222222222222",
"222XX<<<<<--O<<<<<<<<XX22222222222222222222222222222222222222",
"222XX<<<<<<<<<<<<<<<<X  2222222222222222222222222222222222222",
"2222XX<<<<<<<<<<<<<<<X   222222222222222222222222222222222222",
"2222XX<<<<<<<<<<<<<<<XOO  22222222222222222222222222222222222",
"22222XX<<<<<<<<<<<<<<XOO  22222222222222222222222222222222222",
"222222XXX<<<<<<<<<<<XOOO  22222222222222222222222222222222222",
"2222222XXXXX<<<XX<<X OOOO  2222222222222222222222222222222222",
"222222222XXXXXXXXX  OOOOOO  222222222222222222222222222222222",
"222222222222 XOOOO OOOOO*O  222222222222222222222222222222222",
"222222222222  OOOO OOOOOO*  222222222222222222222222222222222",
"222222222222  OOOO OOOOOOO  222222222222222222222222222222222",
"2222222222222  OOO  OOOOO  2222222222222222222222222222222222",
"22222222222222       OOO   2222222222222222222222222222222222",
"222222222222222           22222222222222222222222222222222222",
"22222222222222222222     222222222222222222222222222222222222"
};
