/* XPM */
static char *result[] = {
/* columns rows colors chars-per-pixel */
"59 46 224 2 ",
"   c #281815",
".  c #321E18",
"X  c #3B241F",
"o  c #34211E",
"O  c #2D211F",
"+  c #241C2B",
"@  c #372626",
"#  c #3D3433",
"$  c #342737",
"%  c #7A191B",
"&  c #53321F",
"*  c #702B1C",
"=  c #432C23",
"-  c #492D26",
";  c #4D3324",
":  c #4B362C",
">  c #573B27",
",  c #483937",
"<  c #553A33",
"1  c #4C2E30",
"2  c #673826",
"3  c #743825",
"4  c #683D34",
"5  c #703225",
"6  c #63421E",
"7  c #5E4124",
"8  c #5C422E",
"9  c #49423B",
"0  c #574339",
"q  c #644523",
"w  c #6A472B",
"e  c #744C2D",
"r  c #794629",
"t  c #7C542C",
"y  c #76532C",
"u  c #684837",
"i  c #744837",
"p  c #795536",
"a  c #6F5231",
"s  c #7E6433",
"d  c #352A54",
"f  c #3E3D75",
"g  c #383468",
"h  c #7B1E50",
"j  c #4D3249",
"k  c #693A4B",
"l  c #433E79",
"z  c #443E68",
"x  c #3D417E",
"c  c #564846",
"v  c #504549",
"b  c #764645",
"n  c #7B5943",
"m  c #6D4D4E",
"M  c #726D5C",
"N  c #534571",
"B  c #6D4C72",
"V  c #777964",
"C  c #6D6763",
"Z  c #881718",
"A  c #981418",
"S  c #880E0F",
"D  c #A6191D",
"F  c #90221C",
"G  c #812D21",
"H  c #8A3125",
"J  c #963328",
"K  c #923E36",
"L  c #A93933",
"P  c #AF362D",
"I  c #A91E21",
"U  c #CA2A3C",
"Y  c #C7313D",
"T  c #845A2C",
"R  c #87493A",
"E  c #934B39",
"W  c #855938",
"Q  c #96523A",
"!  c #8A492B",
"~  c #A75637",
"^  c #AA4237",
"/  c #8B622E",
"(  c #8C6335",
")  c #876937",
"_  c #986B37",
"`  c #8D7835",
"'  c #937D37",
"]  c #967834",
"[  c #99732E",
"{  c #AC6738",
"}  c #AB733C",
"|  c #B16E3C",
" . c #D84A3E",
".. c #8B2A47",
"X. c #A52A4F",
"o. c #CF2C40",
"O. c #D22E43",
"+. c #CB3743",
"@. c #D43246",
"#. c #D73948",
"$. c #8B5144",
"%. c #A6454D",
"&. c #886441",
"*. c #997744",
"=. c #906C4F",
"-. c #A66849",
";. c #AD7943",
":. c #8C7D64",
">. c #875B64",
",. c #DC4B45",
"<. c #DB4748",
"1. c #DB5249",
"2. c #D74955",
"3. c #DA5758",
"4. c #CD4144",
"5. c #DB635A",
"6. c #CD466C",
"7. c #D04B6D",
"8. c #DD6867",
"9. c #DD726C",
"0. c #E0726C",
"q. c #7F8166",
"w. c #99853A",
"e. c #B78A2A",
"r. c #A78B3A",
"t. c #BA8736",
"y. c #BA922F",
"u. c #C69B2D",
"i. c #C59D32",
"p. c #CEA42C",
"a. c #D3AB2C",
"s. c #D3A92E",
"d. c #DBB32D",
"f. c #DDB82D",
"g. c #CDA534",
"h. c #D5AD32",
"j. c #D2A833",
"k. c #DBB431",
"l. c #DEB932",
"z. c #D6B237",
"x. c #E2BE2D",
"c. c #E1BC32",
"v. c #E5C32E",
"b. c #E8C72F",
"n. c #EAC92E",
"m. c #E5C432",
"M. c #E9CA33",
"N. c #EACD3B",
"B. c #E8C733",
"V. c #9C874D",
"C. c #B78546",
"Z. c #A89443",
"A. c #B09345",
"S. c #BCA54A",
"D. c #888569",
"F. c #978777",
"G. c #928E72",
"H. c #C79947",
"J. c #D79A4B",
"K. c #C6AA4A",
"L. c #C6AD51",
"P. c #CBB457",
"I. c #D2B957",
"U. c #D4AC4C",
"Y. c #E1BE41",
"T. c #D8AD66",
"R. c #DBB36B",
"E. c #DAB96B",
"W. c #DEBA71",
"Q. c #DDB573",
"!. c #CFBE63",
"~. c #E2B46D",
"^. c #E2BC74",
"/. c #E2BC7A",
"(. c #E2B672",
"). c #E1AF6B",
"_. c #E3C344",
"`. c #EDD244",
"'. c #D5C467",
"]. c #E6D46D",
"[. c #E3C177",
"{. c #E4C379",
"}. c #EADB75",
"|. c #E9DA74",
" X c #E1CD6A",
".X c #F2E47C",
"XX c #3E3F80",
"oX c #3F4181",
"OX c #414389",
"+X c #654889",
"@X c #554FDD",
"#X c #6853DC",
"$X c #7759DA",
"%X c #764EDD",
"&X c #4C53E5",
"*X c #4F54E8",
"=X c #5353E4",
"-X c #5B53E4",
";X c #5354E8",
":X c #4E4EE1",
">X c #6351E2",
",X c #6F4EE0",
"<X c #7D68CD",
"1X c #8469CF",
"2X c #A3A58B",
"3X c #B2AE95",
"4X c #A5A78D",
"5X c #BFC0A9",
"6X c #F4E984",
"7X c #F6EB8B",
"8X c #F7EC8B",
"9X c #F9EF91",
"0X c #F7EE90",
"qX c #F9F194",
"wX c #DCC9B3",
"eX c #D5D4BD",
"rX c #CDC6AE",
"tX c #E1C8B4",
"yX c #DBDAC5",
"uX c #DAD8C4",
"iX c #E2DDCA",
"pX c #E2D7C5",
"aX c #E3E1CE",
"sX c None",
/* pixels */
"sXsXsXsXsXsXsXsXsXsXsXsXsXsXsXsXsXsXsXsXsXsXsXsXsXsXsXsXsXsXsXsX% % % H H J J J % % % sXsXsXsXsXsXsXsXsXsXsXsXsXsXsXsX",
"sXsXsXsXsXsXsXsXsXsXsXsXsXsXsXsXsXsXsXsXsXsXsXsXsXsXsXsXsXsXsXsX% G H D I I I D J H Z Z sXsXsXsXsXsXsXsXsXsXsXsXsXsXsX",
"sXsXsXsXsXsXsXsXsXsXsXsXsXsXsXsXsXsXsXsXsXsXsXsXsXsXsXsXsXsXsXsX3 A D I @.#.@.@.D D H 3 Z sXsXsXsXsXsXsXsXsXsXsXsXsXsX",
"sXsXsXsXsXsXsXsXsXsXsXsXsXsXsXsXsXsXsXsXsXsXsXsXsXsXsXsXsXsXsX* A A +.#.#.#.#.#.@.O.D H G sXsXsXsXsXsXsXsXsXsXsXsXsXsX",
"sXsXsXsXsXsXsXsXsXsXsXsXsXsXsXsXsXsXsXsXsXsXsXsXsXsXsXsXsXsXsX3 A +.#.4.,.<.<.<.@.@.O.O.D Z sXsXsXsXsXsXsXsXsXsXsXsXsX",
"sXsXsXsXsXsXsXsXsXsXsXsXsXsXsXsXsXsXsXsXsXsXsXsXsXsXsXsXsXsX* Z F 4.4.1.<.,.,.,.#.#.@.O.o.A G sXsXsXsXsXsXsXsXsXsXsXsX",
"sXsXsXsXsXsXsXsXsXsXsXsXsXsXsXsXsXsXsXsXsXsXsXsXsXsXsXsXsXsX* Z Y 4.wXwXtXtX,.<.2.#.@.@.o.o.A Z sXsXsXsXsXsXsXsXsXsXsX",
"sXsXsXsXsXsXsXsXsXsXsXsXsXsXsXsXsXsXsXsXsXsXsXsXsXsXsXsXsXsX5 Z Y rXP wXY tXtX1.<.#.#.@.o.o.U A 3 Z sXsXsXsXsXsXsXsXsX",
"sXsXsXsXsXsXsXsXsXsXsXsXsXsXsXsXsXsXsXsXsXsXsXsXsXsXsXsXsXsX5 Z +.rXL L P tXwX,.,.<.#.#.@.O.U U A G % * sXsXsXsXsXsXsX",
"sXsXsXsXsXsXsXsXsXsXsXsXsXsXsXsXsXsXsXsXsXsXsXsXsXsXsXsXsXsX- 3 F rXJ L L wXwX1.,.,.<.U @.@.@.@.o.A A A * * sXsXsXsXsX",
"sXsXsXsXsXsXsXsXsXsXsXsXsXsXsXsXsXsXsXsXsXsXsXsXsXsXsXsXsXsX. - 1 < 4 4 b R $.^ ,.,. . .#.#.#.U U D U U S S * sXsXsXsX",
"sXsXsXsXsXsXsXsXsXsXsXsXsXsXsXsXsXsXsXsXsXsXsXsXsXsXsXsX  . . - 1 < 4 b b b b R E E Y ,.,.,.,.Y @.+.Y Y Y S * sXsXsXsX",
"sXsXsXsXsXsXsXsXsXsXsXsXsXsXsXsXsXsXsXsXsXsXsXsXsXsXsX    o @ = - < w u b p n R $.$.Q E E P ,.,.4.#.Y Y Y Z 5 sXsXsXsX",
"sXsXsXsXsXsXsXsXsXsXsXsXsXsXsXsXsXsXsXsXsXsXsXsXsXsXsXsXsXsX- - : t T.T.E.R.~.Q.(.J.| Q E Q E ! K ! P #.Y F 5 * sXsXsX",
"sXsXsXsXsXsXsXsXsXsXsXsXsXsXsXsXsXsXsXsXsXsXsXsXsXsXsXsXsXsX; > 0 W W E.W.Q.&.} ^.^.(.^.~.~.g.{ ~ Q ! r Q ! & 5 sXsXsX",
"sXsXsXsXsXsXsXsXsXsXsXsXsXsXsXsXsXsXsXsXsXsXsXsXsXsXsXsXsXsX> < u p p W.W.^.*.*.{.^.[.(.^.(.~.{ { R.R.T.T.! r & sXsXsX",
"sXsXsXsXsXsXsXsXsXsXsXsXsXsXsXsXsXsXsXsXsXsXsXsXsXsXsXsXsX8 > W / _ ) ^.[.[.*.*.{.{.{.[.^.^.U.r.} ~.R.T.T.T.! ; sXsXsX",
"sXsXsXsXsXsXsXsXsXsX' ` ' ' ' ` sXsXsXsXsXsXsXsXsXsXsXsXsX: t H.E.^.T.[.{.[.;.V.{.{.{.[.{.;.;.5.} Q.} _ T.T.t - sXsXsX",
"sXsXsXsXsXsXsX' w.w.Z.Z.Z.Z.Z.Z.w.w.' sXsXsXsXsXsXsXsXsXX r H.T.E.[.[.{.{.{.C.V.{.{.{.{.{.C.C.C.;.^.} R.T.T.t 1 sXsXsX",
"sXsXsXsXsX' w.w.Z.A.|.S.|.|.|.|.Z.Z.r.' ` sXsXsXsXsXsXsX= e T.E.W.[.{.{.{.{.{.{.{.{.{.{.{.^.C.;.^.^.Q.Q.T.R i 1 sXsXsX",
"sXsXsXsXw.w.Z.'.6X6X7X7X8X8X6X6X X|.|.Z.' ) sXsXsXsXsXsX= y P.R.W.W.[.[.{.[.[.[.[.*.*.{.{.{.{.{././.Q.Q.W $.1 4 sXsXsX",
"sXsXsX' w. X.X6X7X8X0X0XqX8X0X8X7X7X'.].P.w.) sXsXsXsXsX; e H.T.W.~.[.[.[.[.W./.&.` &.*.[.{././././.-.=.m k j j j sXsX",
"sXsX` w.].'.6X7X7XqX0XqXqXqXqXqX0X7X6X|.].!.` s sXsXsXsXsX; y i.E.W.W.^.W.W.U.p &.) &._ ^.^.^./.Q.-.-.<X....k j j sXsX",
"sXs ' r.]..X6X7X7XqXqXqXqXqXqXqX0X7X7X'.'.S.` s sXsXsXsXsXsX: < u ( H.H.H._ p n n $.$.W.(.^././.-.-.1X#X,X....k d d sX",
"sXs w.r.I.'.6X8X8X9X9XqXqXqXqXqX8X7X7X}.].P.w.) sXsXsXsXsXsX8 : 0 0 a u a i i i p T ~.~.(.(.;.-.-.>.1X$X#X@X@X..k d d ",
"y p T r.A.|.}.8X|.8X9X9X9X.X9XqX0X6X X}.'.r.w.w sXsXsXsXsXsX: < < 0 u u u m u i ).T.).).{ { ~ 3.3.7.B #X#X@X@Xl h z g ",
"w s s ` g.S.}.]..X.X.X6X.X}.}..X.X.X'.Y.r.' p w w sXsXsXsXsX, 9 < < c u c i $.Q Q ~ ~ ~ 4.,.2.2.2.2.7.B ,X@X@X:XXXg g ",
"q y t ` l.z.l.U.]..X|.|..X|._.]. X XK.z.g.g./ w q 7 sXsXsX: = : , u u K K ^ L L L $.P ,.,.,.2.#.2.6.6.+X>X@X:X:XXXf x ",
"q y ) y.l.Y.z.N.m._._._.`._.U.Y.m.`.m.g.g.f./ a 6 6 > ; : # C M M :.D.Q %.:.;.^ P 1.<.,.#.2.<.2.X.6.6.+X>X-X:X:X&XOXoX",
"6 y / d.l.m.z.N.N.N.N.N.N.N.U.Y.`.B.N.z.x.f.y.t e 6 > ; 8 : 9 G.D.D.D.G.F.pX3X5.5.3.2.1.2.#.2.U X.6.6.+X-X-X*X*X&XOXOX",
"6 t / f.f.x.h.B.N.N.M.N.N.N.l.l.M.M.m.l.f.f.p.T e q w 4 u c a q.2XeXyXpXpXpXpX0.8.5.3.3.#.2.X.X.6.6.+X>X-X;X*X*X&XOXoX",
"e t / ] f.x.m.B.n.M.M.M.M.n.l.M.M.B.m.m.v.f.a.T t e w u a p n D.eXeXyXpXpXiXpXpX0.8.3.2.6.X.X.+X+X+X>X-X;X*X*X*X&XOXoX",
"y T d.u.y.v.v.v.b.n.x.M.M.M.x.B.n.b.x.v.x.x.a./ u.e.e.e.t.r.S.F.3X3XaXaXaXaXyXyXpX8.8.7.X.X.%X,X>X>X-X;X;X*X&X&X&XOXXX",
"e T d.u.y.x.v.v.n.b.x.n.n.n.c.n.b.n.x.v.x.x.a./ e.u.u.u.i.S.K.P.G.3XaXaXaXeXaXaXiX9.0.X.X.%X,X>X>X-X-X;X*X*X&X&XOXXXf ",
"r T d.u.e.x.v.v.b.n.f.n.n.n.b.b.n.b.d.v.x.d.a.T ] ] [ ` ' V.Z.G.G.aXaXaX5XaXaXaXyXpXF.%.$X$X>X>X-X-X;X*X*X&X&X&XXXx g ",
"e T T [ x.x.v.v.b.b.f.n.n.n.n.n.n.n.h.x.x.a.p.T T e w w n n G.G.aXaXaXaXaXaX5XyXuXuX:.B $X>X>X-X-X-X=X&X=X:X:Xf f g d ",
"2 e T a.a.x.a.v.n.n.c.x.n.n.n.b.n.x.h.v.d.a.p.t e w w u u q.D.eXyXyX5XaXaX5XyXyXuXD.C B B N N -X>X@X@X*X:X:Xf z g g d ",
"6 e T a.a.d.p.v.x.x.d.d.b.b.b.b.b.h.a.d.a.a.y.y w > 8 : M V q.eXyX3XyXaXyXyXyXyX4XC m m m N N N l +XN N N z z z g + $ ",
"6 e t y.a.a.p.x.n.c.d.d.b.b.b.v.x.h.p.d.a.u.y w q > > : # 9 M V 2XeXyX3XeXyXyX4Xm c j b b b j b m m m k j d d $ $ + + ",
"> 6 e t p.a.u.p.c.c.h.s.c.c.c.c.f.a.p.a.p.[ e 4 2 sXsXsXsXc 9 V G.4Xq.4X4Xq.q.q.c v i b 4 , b i H.C.b b 4 , 4 $ + + + ",
"> q w y p.p.u.p.d.c.h.h.c.d.c.d.k.p.i.s.L.S.w > sXsXsXsXsXsX# C C V q.q.q.q.c v v , u 4 3 1 u i C.C.r i 4 1 2 @ O O + ",
"sX7 w e K.L.u.i.h.k.j.j.d.c.k.d.h.p.u.L.L.y 2 sXsXsXsXsXsXsXsX# # 9 9 9 # 9 v , # @ = @ = 1 3 3 r r r 3 4 1 2 o O   sX",
"sXsXq w e L.L.u.h.h.g.i.k.k.h.h.h.P.L.L.e w > sXsXsXsXsXsXsXsXsXsXsXsXsXsXv , # @ @ @ 2 2 = - r r r r r 5 2 * o o   sX",
"sXsX7 2 u y ] P.U.I.I.I.I.I.I.I.P.r.T y w < sXsXsXsXsXsXsXsXsXsXsXsXsXsXsXsXsX@ O @ o o X = 2 3 t.t.t.t.t.= X o .   sX",
"sXsXsXq w u y t ( ( r.r.r.t.r._ ( W a u w 7 sXsXsXsXsXsXsXsXsXsXsXsXsXsXsXsXsXsXsX  . o X X = & & & & & = = X o   sXsX",
"sXsXsX> q q w p p W ( ( ( ( ( W p a w q 7 sXsXsXsXsXsXsXsXsXsXsXsXsXsXsXsXsXsXsXsX        X X = = & = = = . .     sXsX"
};
