/* XPM */
static char *result[] = {
/* columns rows colors chars-per-pixel */
"57 54 226 2 ",
"   c #2B1B18",
".  c #331E1A",
"X  c #34201C",
"o  c #3B221E",
"O  c #2E201E",
"+  c #392725",
"@  c #3A2C32",
"#  c #301F20",
"$  c #7A181A",
"%  c #59391D",
"&  c #4E201F",
"*  c #792B1D",
"=  c #67361E",
"-  c #6C271D",
";  c #432C24",
":  c #462B27",
">  c #4A3428",
",  c #5D3C2B",
"<  c #55382A",
"1  c #453734",
"2  c #563C34",
"3  c #512F2C",
"4  c #623E29",
"5  c #6C3825",
"6  c #773823",
"7  c #673C37",
"8  c #753C38",
"9  c #6E2E21",
"0  c #66441E",
"q  c #5C432A",
"w  c #584438",
"e  c #4D4237",
"r  c #64432A",
"t  c #6B452C",
"y  c #674726",
"u  c #734C2B",
"i  c #794528",
"p  c #7A522C",
"a  c #77502A",
"s  c #684737",
"d  c #754D33",
"f  c #78483A",
"g  c #7B5334",
"h  c #775439",
"j  c #6E5233",
"k  c #7E6036",
"l  c #342E50",
"z  c #363767",
"x  c #272B76",
"c  c #3A3C77",
"v  c #262865",
"b  c #4C374B",
"n  c #6B3949",
"m  c #493767",
"M  c #503768",
"N  c #3D407D",
"B  c #584944",
"V  c #5E5649",
"C  c #784448",
"Z  c #685146",
"A  c #7A5744",
"S  c #6E484E",
"D  c #7B775C",
"F  c #736756",
"G  c #51476E",
"H  c #7C7C63",
"J  c #6E6F60",
"K  c #67536C",
"L  c #981517",
"P  c #8F1315",
"I  c #A5181C",
"U  c #84291F",
"Y  c #9B271E",
"T  c #883526",
"R  c #953227",
"E  c #8B2F23",
"W  c #A5332A",
"Q  c #A93832",
"!  c #B5382F",
"~  c #A91E21",
"^  c #CB2B3C",
"/  c #C8353F",
"(  c #834B2C",
")  c #845B2E",
"_  c #884837",
"`  c #914B38",
"'  c #845C33",
"]  c #8B5C34",
"[  c #87563A",
"{  c #955637",
"}  c #A74538",
"|  c #A75A35",
" . c #8A612D",
".. c #956A2E",
"X. c #8A6838",
"o. c #946839",
"O. c #8B7338",
"+. c #957A37",
"@. c #99792F",
"#. c #A96A37",
"$. c #AC743B",
"%. c #B17B3E",
"&. c #D94B3F",
"*. c #9C2C4E",
"=. c #D12E42",
"-. c #CC3743",
";. c #D33245",
":. c #D63948",
">. c #CF2C41",
",. c #834343",
"<. c #875A42",
"1. c #8C4C4B",
"2. c #AE4648",
"3. c #976C44",
"4. c #977645",
"5. c #8B6A4C",
"6. c #AC7848",
"7. c #8E7F65",
"8. c #DB4B44",
"9. c #D74747",
"0. c #D45347",
"q. c #D14851",
"w. c #CE4B6E",
"e. c #98833A",
"r. c #A28C3E",
"t. c #B78936",
"y. c #B88F30",
"u. c #C5992B",
"i. c #C59437",
"p. c #CCA32B",
"a. c #CDA329",
"s. c #D3AB2C",
"d. c #D6AC2C",
"f. c #DBB32D",
"g. c #DCB72D",
"h. c #CDA333",
"j. c #D3AC32",
"k. c #D1A834",
"l. c #DBB530",
"z. c #DAB637",
"x. c #E1BD2D",
"c. c #E1BB31",
"v. c #E1BC39",
"b. c #E5C32D",
"n. c #E8C72F",
"m. c #EAC92E",
"M. c #E5C433",
"N. c #EACA33",
"B. c #EBCD3B",
"V. c #E6C636",
"C. c #B38344",
"Z. c #A99443",
"A. c #B19744",
"S. c #BDA74C",
"D. c #858269",
"F. c #98997C",
"G. c #8B8C73",
"H. c #968248",
"J. c #C79847",
"K. c #CE9446",
"L. c #C2AA4E",
"P. c #D7B644",
"I. c #C6AE51",
"U. c #CCB354",
"Y. c #CDBA5D",
"T. c #D3A84E",
"R. c #DAAD68",
"E. c #DBB46B",
"W. c #DCB66B",
"Q. c #DEBA71",
"!. c #DEB777",
"~. c #CEBD62",
"^. c #E2B56D",
"/. c #E2BD74",
"(. c #E2BC7A",
"). c #E1B575",
"_. c #E3C343",
"`. c #EDD241",
"'. c #D7C567",
"]. c #E7D46D",
"[. c #E3C177",
"{. c #E4C379",
"}. c #EADB74",
"|. c #EBDC77",
" X c #E2CD68",
".X c #F3E57C",
"XX c #EFE178",
"oX c #3C3F84",
"OX c #3E4187",
"+X c #404390",
"@X c #464ADB",
"#X c #5953DE",
"$X c #6957DB",
"%X c #735DDB",
"&X c #7864D7",
"*X c #484EE1",
"=X c #4A52E5",
"-X c #4C54E9",
";X c #4751E4",
":X c #5453E5",
">X c #5754E7",
",X c #6154E3",
"<X c #8467D2",
"1X c #999C82",
"2X c #A5A58A",
"3X c #B1B398",
"4X c #B8BBA1",
"5X c #DDB580",
"6X c #F4E984",
"7X c #F6EC8B",
"8X c #F8EE8E",
"9X c #F3E682",
"0X c #F9EF92",
"qX c #F7EE90",
"wX c #F9F092",
"eX c #F9F08F",
"rX c #DCC9B3",
"tX c #D5CCB5",
"yX c #CFD0B9",
"uX c #D4D3BC",
"iX c #D9D4BD",
"pX c #D1C6AF",
"aX c #E1C8B4",
"sX c #DBD9C4",
"dX c #D8D7C2",
"fX c None",
/* pixels */
"fXfXfXfXfXfXfXfXfXfXfXfXfXfXfXfXfXfXfXfXfXfXfXfXfXfXfXfXfXfXfXfXfX$ $ $ R R R R R $ $ $ fXfXfXfXfXfXfXfXfXfXfXfXfX",
"fXfXfXfXfXfXfXfXfXfXfXfXfXfXfXfXfXfXfXfXfXfXfXfXfXfXfXfXfXfXfXfXfX$ 6 T I I ~ ~ I R E $ $ fXfXfXfXfXfXfXfXfXfXfXfX",
"fXfXfXfXfXfXfXfXfXfXfXfXfXfXfXfXfXfXfXfXfXfXfXfXfXfXfXfXfXfXfXfXfX6 L ~ ~ ;.;.:.;.I I E U $ fXfXfXfXfXfXfXfXfXfXfX",
"fXfXfXfXfXfXfXfXfXfXfXfXfXfXfXfXfXfXfXfXfXfXfXfXfXfXfXfXfXfXfXfX9 P Y -.:.:.:.:.;.=.>.I L U fXfXfXfXfXfXfXfXfXfXfX",
"fXfXfXfXfXfXfXfXfXfXfXfXfXfXfXfXfXfXfXfXfXfXfXfXfXfXfXfXfXfXfXfX5 L -.-.:.9.8.8.:.:.;.;.I I $ fXfXfXfXfXfXfXfXfXfX",
"fXfXfXfXfXfXfXfXfXfXfXfXfXfXfXfXfXfXfXfXfXfXfXfXfXfXfXfXfXfXfX9 P P -.:.8.8.8.8.:.:.:.;.>.I P P $ fXfXfXfXfXfXfXfX",
"fXfXfXfXfXfXfXfXfXfXfXfXfXfXfXfXfXfXfXfXfXfXfXfXfXfXfXfXfXfXfX9 U -.-.rXaXaXaX8.q.:.:.:.>.>.I L U $ fXfXfXfXfXfXfX",
"fXfXfXfXfXfXfXfXfXfXfXfXfXfXfXfXfXfXfXfXfXfXfXfXfXfXfXfXfXfXfX9 P -.tXQ rX! aXaX8.8.:.:.>.>.^ L L * * * fXfXfXfXfX",
"fXfXfXfXfXfXfXfXfXfXfXfXfXfXfXfXfXfXfXfXfXfXfXfXfXfXfXfXfXfXfX9 P -.pXR Q Q rXrX8.8.8.:.:.;.^ ^ L L L P * * fXfXfX",
"fXfXfXfXfXfXfXfXfXfXfXfXfXfXfXfXfXfXfXfXfXfXfXfXfXfXfXfXfXfXfX& 5 L pXR Q Q tXtX8.8.8.&.8.:.:.:.^ I ^ ^ P 6 9 fXfX",
"fXfXfXfXfXfXfXfXfXfXfXfXfXfXfXfXfXfXfXfXfXfXfXfXfXfXfXfXfXfXfXo : 3 2 7 C 8 f _ ! 0.&.&.&.:.:./ :./ ^ ^ / L U - - ",
"fXfXfXfXfXfXfXfXfXfXfXfXfXfXfXfXfXfXfXfXfXfXfXfXfXfXfXfXfX  . + : 3 2 2 s S C C ,.` ` ` ( ^ 8.&.&.9./ / / / L 6 9 ",
"fXfXfXfXfXfXfXfXfXfXfXfXfXfXfXfXfXfXfXfXfXfXfXfXfXfXfXfX    . + : 3 2 s f Z h A <.<.<.` } { ` ` _ T W 9.-.-.Y ( 9 ",
"fXfXfXfXfXfXfXfXfXfXfXfXfXfXfXfXfXfXfXfXfXfXfXfXfXfXfXfXfXfXfX> < 2 ( ] R.E.E.k #.Q.).).^.^.).T.#.| ` R ( { ` 6 5 ",
"fXfXfXfXfXfXfXfXfXfXfXfXfXfXfXfXfXfXfXfXfXfXfXfXfXfXfXfXfXfX> < 2 q Z j E.Q.Q.<.3./././././.^.).#.#.^.^.E.R.{ ( 7 ",
"fXfXfXfXfXfXfXfXfXfXfXfXfXfXfXfXfXfXfXfXfXfXfXfXfXfXfXfXfXfX, < [ ] ] X.Q.Q.Q.4.3./.{./.{././.T.$.$.^.^.^.R.^.{ r ",
"fXfXfXfXfXfXfXfXfXfXfXfXfXfXfXfXfXfXfXfXfXfXfXfXfXfXfXfXfXfX> p J.E.Q.T.[.[.{.4.4.{.{.{.{.(.K.%.%.$.Q.#.#.E.R.{ 4 ",
"fXfXfXfXfXfXfXfXfXfXfXfXfXfXfXfXfXfXfXfXfXfXfXfXfXfXfXfXfX; i J.~.W.[.[.{.{.{.C.4.{.{.{.{.{.6.%.t.%./.#.W.E.R.] , ",
"fXfXfXfXfXfXfXfXfXfXfXfXfXfXfXfXfXfXfXfXfXfXfXfXfXfXfXfXfX; i R.W.Q.[.[.{.{.{.{.{.{.{.{.{.{.{.C.6.Q.Q.Q.W.E.] ( , ",
"fXfXfXfXfXfXfXfXfXfXfXfXfXfXfXfXfXfXfXfXfXfXfXfXfXfXfXfXfX; i Y.E.Q.Q.[.{.{.{.[.[.{.4.4.{.|.5X{.{.Q.Q.W.E.) [ 2 q ",
"fXfXfXfXfXfXfXfXfXfXfXfXfXfXfXfXfXfXfXfXfXfXfXfXfXfXfXfXfX+ a i.E.E.Q.[.[.(.Q./.Q.O.3.4.4.Q.5X{.(.!.!.3.X.s 2 q 2 ",
"fXfXfXfXfXfXfXfXfXfXfXfXfXfXfXfXfXfXfXfXfXfXfXfXfXfXfXfXfXfX> p J.E.W.Q.Q.Q.Q.T.<.' <.<.3.(.5X5X!.!.3.<.s w b 2 > ",
"fXfXfXfXfXfXfXfXfXfXfXfXfXfXfXfXfXfXfXfXfXfXfXfXfXfXfXfXfXfXfX< q ] J.J.T.o.o.h A A <.<.!.!.).5X5X3.Z V b b b 1 fX",
"fXfXfXfXfXfXfXfXfXfXfXfXfXfXfXfXfXfXfXfXfXfXfXfXfXfXfXfXfXfXfXw e w s s j j d s d h f ^.!.).5X3.3.K K G G b l l fX",
"fXfXfXfXfXfXfXfXfXfXfXfXfXfXfXfXfXfXfXfXfXfXfXfXfXfXfXfXfXfXfXw e e w s Z s s C _ R.R.^.2.2.2.<X<X%X$XG G m z v l ",
"fXfXfXfXfXfXfXfXfXe.e.+.+.e.O.O.fXfXfXfXfXfXfXfXfXfXfXfXfXfXfXw B B w B Z B s C ` { ` Q 0.q.w.%X%X%X,X>XG c z v v ",
"fXfXfXfXfXfXe.e.r.r.r.Z.Z.r.r.e.e.O.fXfXfXfXfXfXfXfXfXfXfXfXB B B B B V Z Z ` { W 0.0.9.q.q.w.w.%X,X>X>X*XN z z v ",
"fXfXfXfXe.e.r.Z.Z.}.S.}.}.'.}.}.e.e.O.fXfXfXfXfXfXfXfXfXfX@ B B B V D.7.7.7.` 0.0.9.8.8.8.w.w.w.$X,X>X>X=X=XN c v ",
"fX4.e.e.Z.Z.}.|.|.7X7X7X7X6X6X6X.X Xe.X.fXfXfXfXfXfXfX@ e J H H D.G.2X2XuXuXuX} 0.&.9.q.q.q.*.w.,X>X>X>X=X=XOXOXc ",
"O.e.r.Z.}.'.6X7X7XqXqXqXeX7X7X6X9X'.r.O.fXfXfXfXfXfX@ V J 1XyXdXG.3XdXdXiXiXuXuX} f 8 7 n *.w.$X,X>X>X-X-X=X;XOXN ",
"4.r.Z.}.9X6X7XqXqXwXwXwXwXeX7X6X.X~.U.k j j fXfXfX1 J J 1XyXyX1X3XsXsXsXsXiXiX<.1.` _ T ,.n $X,X,X>X-X-X-X-X=XOXOX",
"r.Z.}.6X6X7XqXqXwXwXwXwXwXeXeX7X.X}.Y.X.p j y q q 1 J F.yXyXdX1X4X4XsXsXsXiX5.6.{ 1.` 1.,.*.M ,X>X>X-X-X-X-X-XOXOX",
"Z.A.|.6X6X7X8X0X0X0XwXwXeXeX.X}.XXXXk.j.k j y q q w j A F iXsX1X4X4XsXsXsXiX6.3.{ { _ _ C *.m #X:X:X:X-X-X=X;XoXoX",
"+.A.'.XXXX7X}.8X8X0XeX6XXX.X.XXX'.P.v.z.X.p j t t s h F 5.dXiX2X4X4XsXsXiX7.4.3.J.J._ T f C S m :X:X=X=X=X;X;XoXoX",
"+.e.j.'.XX]..X.X9X6X.X.X}.}.]._.z.V.V.c.s. .g a j j t.A.A.2X3XF.3XsXsXsXiXF 3.3.[ [ i._ d *.S M #X*X=X=X;X;XoXc x ",
"o.+.z.P.P. X].].]..X}.]._._.v.B.B.V.V.g.g. .p y.y.t.k.k.z.P.iXuXF.3XsXiXuXF X.[ [ ( ( i.a 8 M S m #X@X@X*X@Xc c x ",
"] +.z.k.P.P.P._._._._.`.`.v.v.B.N.N.b.M.g...) s.s.p.+.+.4.H.uXuXuXG.2X2XyXyXj [ ( ( i i.i f b n m @X@X@X@Xc v oXx ",
"g o.j.h.k.V.V.B.B.B.B.B.B.v.v.N.n.n.b.g.g.s. .@.@.O.X.s Z j D H H D.D.H D D w f i ( 6 ( t.2 8 n n l @X@Xz z x fXfX",
"y ' o.g.k.M.V.N.B.N.N.B.B.N.c.N.m.m.b.b.x.d. .) u t s 7 w w e e e e h h g d < > 6 6 6 i t.i 6 8 n @ l l l fXfXfXfX",
"y ) ..f.c.M.M.M.N.N.N.N.N.m.c.m.m.b.b.x.x.s. .p u 4 4 < , w w B w 1 1 s r 5 > : r 6 y 6 6 t.6 7 @ @ l l fXfXfXfXfX",
"0 p ) ..x.x.b.b.m.c.m.m.m.m.m.m.m.f.b.b.f.s. .u 0 q , fXfXfXfXfXfXfX+ + + + o ; ; = = 5 6 t.= + + # fXfXfXfXfXfXfX",
"i a  ...y.x.x.b.m.c.m.m.m.m.m.m.m.f.d.x.d.s.a.a 0 0 fXfXfXfXfXfXfXfXfXO O X X X o o = = = = o . + fXfXfXfXfXfXfXfX",
"y a d.u.u.y.b.b.b.c.f.m.m.m.m.m.m.f.d.g.f.s.a.u r fXfXfXfXfXfXfXfXfXfXfXfXfXfXfXfX. . X X X X   fXfXfXfXfXfXfXfXfX",
"y i a.d.u.y.x.x.b.b.f.m.m.m.m.m.m.m.d.f.d.s.a.u 4 fXfXfXfXfXfXfXfXfXfXfXfXfXfXfXfXfX          fXfXfXfXfXfXfXfXfXfX",
"% y a s.u...x.x.m.x.f.f.m.m.m.m.M.x.d.k.d.s.a.u , fXfXfXfXfXfXfXfXfXfXfXfXfXfXfXfXfXfXfXfXfXfXfXfXfXfXfXfXfXfXfXfX",
"% 4 y a ) a.a.x.x.c.d.f.m.m.m.c.M.g.j.h.s.p.S.t , fXfXfXfXfXfXfXfXfXfXfXfXfXfXfXfXfXfXfXfXfXfXfXfXfXfXfXfXfXfXfXfX",
"% % 5 t p a.d.u.f.c.c.d.d.c.c.c.g.l.k.p.s.p.S.y < fXfXfXfXfXfXfXfXfXfXfXfXfXfXfXfXfXfXfXfXfXfXfXfXfXfXfXfXfXfXfXfX",
"fXfX0 0 y ( a.u.d.f.f.k.d.c.f.c.l.l.h.u.p.L.u 4 fXfXfXfXfXfXfXfXfXfXfXfXfXfXfXfXfXfXfXfXfXfXfXfXfXfXfXfXfXfXfXfXfX",
"fXfXfX0 4 u u.a.u.d.d.f.k.k.l.l.l.j.u.y.U.S.y , fXfXfXfXfXfXfXfXfXfXfXfXfXfXfXfXfXfXfXfXfXfXfXfXfXfXfXfXfXfXfXfXfX",
"fXfXfXfX0 r a u.y.u.d.f.u.p.h.h.f.j.U.I.S.u q fXfXfXfXfXfXfXfXfXfXfXfXfXfXfXfXfXfXfXfXfXfXfXfXfXfXfXfXfXfXfXfXfXfX",
"fXfXfXfXfX5 y p L.i.u.k.f.h.u.U.U.U.I.p j r fXfXfXfXfXfXfXfXfXfXfXfXfXfXfXfXfXfXfXfXfXfXfXfXfXfXfXfXfXfXfXfXfXfXfX",
"fXfXfXfXfX< 4 t a ) I.U.U.U.U.U.] ' g s r fXfXfXfXfXfXfXfXfXfXfXfXfXfXfXfXfXfXfXfXfXfXfXfXfXfXfXfXfXfXfXfXfXfXfXfX",
"fXfXfXfXfXfX% r t u ' ' ' o.' ' g h j y y fXfXfXfXfXfXfXfXfXfXfXfXfXfXfXfXfXfXfXfXfXfXfXfXfXfXfXfXfXfXfXfXfXfXfXfX",
"fXfXfXfXfXfX% , r r d g g h g g y y r r fXfXfXfXfXfXfXfXfXfXfXfXfXfXfXfXfXfXfXfXfXfXfXfXfXfXfXfXfXfXfXfXfXfXfXfXfX"
};
