/* XPM */
static char *result[] = {
/* columns rows colors chars-per-pixel */
"48 51 13 1 ",
"  c #181010",
". c #202028",
"X c #600000",
"o c #482010",
"O c gray25",
"+ c #686868",
"@ c #A81828",
"# c #A06830",
"$ c #C09830",
"% c #B88858",
"& c #2830C8",
"* c gray69",
"= c None",
/* pixels */
"======================ooooo=====================",
"====================ooXXXXXoo===================",
"===================oXXX@@@XXXo==================",
"==================oXX@**@@@@XXo=================",
"=============    oXX@*X**@@@@Xo=================",
"============       @*XXXX*@@@XXo================",
"============        XXXX**@@@@Xo================",
"=============         X**@@@@@Xo================",
"==============         *@@@@@@Xo================",
"===============         @@@@@@XXo===============",
"=============== oo##o    @@@@@@Xo===============",
"===========     oo%%%#o   @@@@@Xo===============",
"========== ooooo  %%%%%#   @@@@Xo===============",
"========= oo%%#o  %%%  %#  X@@@XXo==============",
"======== oo%%%%%oo%%o  %%#  @@@@XXo=============",
"======== oo%%%%%%%%%  o%%%o X@@@XXXo============",
"======== oo%%%%%%%%%  %%%%%o @@@X@XXo===========",
"======== oo%%%%%%%%%%%%%%%%%o @@@@@Xo===========",
"======== oo#%%%%%%%%%%%%%%%%%o @@@@Xo===========",
"========= oo#%%%%%%%%%%%%%oooo  X@XXo===========",
"==========  oo##%%%%#  %%%oooo%%% Xo============",
"===========     ###     %%%oo%%%%% o============",
"===========             %%%%o%oo%%o ============",
"========== OO          o%%%%%%o%%%o ============",
"========= O**OO       %%%%%%%%%%%oo ============",
"========= O***OOOo##%%%%%%##%%%%oo =============",
"========== O***+OOOOOOO###ooooooo ==============",
"==========oO**********OOoooooo   ===============",
"=========oO***********OO.@@@Xo==================",
"========oXO**+****+OOOO&.X@@@Xo=================",
"========oXO*+****++OO.&&.X@@@@Xo================",
"========oX@***+**++O&&&&&.X@@@@Xo===============",
"========oX@@*+***++O$$o&&&X@@@@@X   ============",
"=========oX@@**+++OO$$$&&&&X@@@@*+O     ========",
"==========oXXXXOOOO$$$$&&&&X@@@***++OOOO =======",
"===========o...&&&&&$$o&&&&&X+***+**+++O =======",
"============..&&&&&&&&&&&&&& +****+***++O ======",
"============..&&&&&&&&&&&&&& O**********O ======",
"=============..&&&&&&&&&&&&&. O***OOO+**O ======",
"=============...&&&&&&&&&&&&. O+**O  OOOO ======",
"==============....&&&&&&&&&&.. O**O =    =======",
"=============   .....&&&&&&..= O*+O ============",
"============  oooo.     &&&. == OOO ============",
"===========  ooooo ooooo  oo ===   =============",
"===========  oooo oo##ooo oo  ==================",
"===========  oooo oo##ooo oo  ==================",
"===========       ooooooo oo  ==================",
"===========   ooo  oooooooo#  ==================",
"============      o#####oo   ===================",
"=============               ====================",
"==================        ======================"
};
