/* XPM */
static char *result[] = {
/* columns rows colors chars-per-pixel */
"48 51 13 1 ",
"  c #181010",
". c #202028",
"X c #600000",
"o c #482010",
"O c gray25",
"+ c #686868",
"@ c #A81828",
"# c #A06830",
"$ c #C09830",
"% c #B88858",
"& c #2830C8",
"* c gray69",
"= c None",
/* pixels */
"=====================ooooo======================",
"===================ooXXXXXoo====================",
"==================oXXX@@@XXXo===================",
"=================oXX@@@@**@XXo==================",
"=================oX@@@@**X*@XXo    =============",
"================oXX@@@*XXXX*@       ============",
"================oX@@@@**XXXX        ============",
"================oX@@@@@**X         =============",
"================oX@@@@@@*         ==============",
"===============oXX@@@@@@         ===============",
"===============oX@@@@@@    o##oo ===============",
"===============oX@@@@@   o#%%%oo     ===========",
"===============oX@@@@   #%%%%%  ooooo ==========",
"==============oXX@@@X  #%  %%%  o#%%oo =========",
"=============oXX@@@@  #%%  o%%oo%%%%%oo ========",
"============oXXX@@@X o%%%o  %%%%%%%%%oo ========",
"===========oXX@X@@@ o%%%%%  %%%%%%%%%oo ========",
"===========oX@@@@@ o%%%%%%%%%%%%%%%%%oo ========",
"===========oX@@@@ o%%%%%%%%%%%%%%%%%#oo ========",
"===========oXX@X  oooo%%%%%%%%%%%%%#oo =========",
"============oX %%%oooo%%%  #%%%%##oo  ==========",
"============o %%%%%oo%%%     ###     ===========",
"============ o%%oo%o%%%%             ===========",
"============ o%%%o%%%%%%o          OO ==========",
"============ oo%%%%%%%%%%%       OO**O =========",
"============= oo%%%%##%%%%%%##oOOO***O =========",
"============== ooooooo###OOOOOOO+***O ==========",
"===============   ooooooOO**********Oo==========",
"==================oX@@@.OO***********Oo=========",
"=================oX@@@X.&OOOO+****+**OXo========",
"================oX@@@@X.&&.OO++****+*OXo========",
"===============oX@@@@X.&&&&&O++**+***@Xo========",
"============   X@@@@@X&&&o$$O++***+*@@Xo========",
"========     O+*@@@@X&&&&$$$OO+++**@@Xo=========",
"======= OOOO++***@@@X&&&&$$$$OOOOXXXXo==========",
"======= O+++**+***+X&&&&&o$$&&&&&...o===========",
"====== O++***+****+ &&&&&&&&&&&&&&..============",
"====== O**********O &&&&&&&&&&&&&&..============",
"====== O**+OOO***O .&&&&&&&&&&&&&..=============",
"====== OOOO  O**+O .&&&&&&&&&&&&...=============",
"=======    = O**O ..&&&&&&&&&&....==============",
"============ O+*O =..&&&&&&.....   =============",
"============ OOO == .&&&     .oooo  ============",
"=============   === oo  ooooo ooooo  ===========",
"==================  oo ooo##oo oooo  ===========",
"==================  oo ooo##oo oooo  ===========",
"==================  oo ooooooo       ===========",
"==================  #oooooooo  ooo   ===========",
"===================   oo#####o      ============",
"====================               =============",
"======================        =================="
};
