/* XPM */
static char *result[] = {
/* columns rows colors chars-per-pixel */
"48 51 219 2 ",
"   c #250C0B",
".  c #2A0F0B",
"X  c #240E07",
"o  c #2D110C",
"O  c #33150E",
"+  c #38190D",
"@  c #2C1216",
"#  c #3C1B13",
"$  c #351614",
"%  c #260E11",
"&  c #3C2017",
"*  c #301830",
"=  c #3E2C2F",
"-  c #1D0909",
";  c #431D12",
":  c #441E1A",
">  c #581E1B",
",  c #7B1A17",
"<  c #681F06",
"1  c #5B240A",
"2  c #4B2313",
"3  c #43241A",
"4  c #4B2C1D",
"5  c #4A261E",
"6  c #572816",
"7  c #4F301F",
"8  c #69240A",
"9  c #742109",
"0  c #7C230C",
"q  c #722D0F",
"w  c #662B14",
"e  c #782818",
"r  c #6A3218",
"t  c #743B14",
"y  c #71371C",
"u  c #763814",
"i  c #6F350F",
"p  c #4D2C21",
"a  c #482427",
"s  c #5A2C25",
"d  c #522D22",
"f  c #5A3825",
"g  c #583326",
"h  c #452735",
"j  c #433234",
"k  c #4A3239",
"l  c #563736",
"z  c #562E2A",
"x  c #6B3A2D",
"c  c #663728",
"v  c #733C2D",
"b  c #763828",
"n  c #632F39",
"m  c #693835",
"M  c #743A37",
"N  c #6F2927",
"B  c #77461B",
"V  c #67442C",
"C  c #6F4132",
"Z  c #774834",
"A  c #7D5436",
"S  c #74462C",
"D  c #251952",
"F  c #281E61",
"G  c #342D6A",
"H  c #362E78",
"J  c #38316F",
"K  c #3D3059",
"L  c #493C42",
"P  c #46335C",
"I  c #492C4A",
"U  c #703D40",
"Y  c #4C3567",
"T  c #473779",
"R  c #54386D",
"E  c #6C6A5F",
"W  c #524477",
"Q  c #4E4370",
"!  c #724675",
"~  c #686665",
"^  c #767568",
"/  c #75716A",
"(  c #980D0E",
")  c #841B19",
"_  c #951B18",
"`  c #930F0D",
"'  c #A21515",
"]  c #862B15",
"[  c #88341A",
"{  c #92331D",
"}  c #892513",
"|  c #982936",
" . c #943832",
".. c #8E3033",
"X. c #A82523",
"o. c #A53529",
"O. c #A73935",
"+. c #B33A33",
"@. c #B32E26",
"#. c #A1301C",
"$. c #D21F30",
"%. c #D42233",
"&. c #DB2B3C",
"*. c #D72838",
"=. c #DA343D",
"-. c #D3343A",
";. c #CD2C34",
":. c #98571A",
">. c #86451A",
",. c #95442C",
"<. c #895627",
"1. c #88473A",
"2. c #944533",
"3. c #865A3A",
"4. c #945536",
"5. c #8C5329",
"6. c #A65232",
"7. c #92673E",
"8. c #9E753F",
"9. c #8F613D",
"0. c #A9642E",
"q. c #B57934",
"w. c #C67D34",
"e. c #8E2745",
"r. c #DD2E43",
"t. c #DC3445",
"y. c #DB3B47",
"u. c #D23B57",
"i. c #E13D46",
"p. c #CD3868",
"a. c #CD3C73",
"s. c #925245",
"d. c #8C4D44",
"f. c #986C40",
"g. c #9E714F",
"h. c #A27942",
"j. c #806F63",
"k. c #AF5769",
"l. c #DD444A",
"z. c #D95658",
"x. c #D74659",
"c. c #E04246",
"v. c #D44466",
"b. c #DA566B",
"n. c #DD636B",
"m. c #7F8074",
"M. c #BC8435",
"N. c #C18936",
"B. c #BE8645",
"V. c #80817D",
"C. c #CB9945",
"Z. c #C69541",
"A. c #D5B359",
"S. c #D8AC64",
"D. c #DAB165",
"F. c #DCB56A",
"G. c #DFB96E",
"H. c #D6B365",
"J. c #DEB476",
"K. c #DAAE71",
"L. c #E4B66B",
"P. c #E3B96D",
"I. c #E0B165",
"U. c #E3BD72",
"Y. c #E2B975",
"T. c #E5C276",
"R. c #E7C479",
"E. c #E8C679",
"W. c #E8C577",
"Q. c #3B3284",
"!. c #43378A",
"~. c #5B4082",
"^. c #674589",
"/. c #764D84",
"(. c #7C7C86",
"). c #7F7EA5",
"_. c #443DEC",
"`. c #4B44EE",
"'. c #4A44EA",
"]. c #584BEA",
"[. c #5C54EB",
"{. c #4D47F0",
"}. c #534CF1",
"|. c #5A54F2",
" X c #624EED",
".X c #764EEA",
"XX c #6658E7",
"oX c #7553EA",
"OX c #635DF3",
"+X c #6965EA",
"@X c #7866E8",
"#X c #7B71E7",
"$X c #AF7B82",
"%X c #856BE3",
"&X c #848597",
"*X c #998A9A",
"=X c #9EA08B",
"-X c #B2AE99",
";X c #8C88A4",
":X c #B3B3A9",
">X c #AE8599",
",X c #DDBE98",
"<X c #DBBEA4",
"1X c #DEC19D",
"2X c #DCCCB5",
"3X c #D4CBB2",
"4X c #D3D3BD",
"5X c #D9D3BC",
"6X c #DCC0A5",
"7X c #E1CDB6",
"8X c #E3D2BD",
"9X c #DDDCCD",
"0X c #D9D8C6",
"qX c #DCDBD1",
"wX c #D7D8D2",
"eX c #E1DBCB",
"rX c #E0DAC7",
"tX c #E1DED0",
"yX c None",
/* pixels */
"yXyXyXyXyXyXyXyXyXyXyXyXyXyXyXyXyXyXyXyXyX, , , {  .[ [ [ e e yXyXyXyXyXyXyXyXyXyXyXyXyXyXyXyXyX",
"yXyXyXyXyXyXyXyXyXyXyXyXyXyXyXyXyXyXyXyX, ) [ { X.X.X.X.[ [ e yXyXyXyXyXyXyXyXyXyXyXyXyXyXyXyXyX",
"yXyXyXyXyXyXyXyXyXyXyXyXyXyXyXyXyXyXyX, e ] { X.t.t.y.t.X.} e N yXyXyXyXyXyXyXyXyXyXyXyXyXyXyXyX",
"yXyXyXyXyXyXyXyXyXyXyXyXyXyXyXyXyXyXyX0 } _ r.t.t.l.y.y.y.t._ q yXyXyXyXyXyXyXyXyXyXyXyXyXyXyXyX",
"yXyXyXyXyXyXyXyXyXyXyXyXyXyXyXyXyXyX9 } ( &.r.t.c.7X2X2X3Xt.) r > yXyXyXyXyXyXyXyXyXyXyXyXyXyXyX",
"yXyXyXyXyXyXyXyXyXyXyXyXyXyXyXyXyX9 ) ' *.t.r.i.7X7X+.2Xo.3X;.) 8 yXyXyXyXyXyXyXyXyXyXyXyXyXyXyX",
"yXyXyXyXyXyXyXyXyXyXyXyXyXyXyXyX9 0 ( %.*.r.r.i.7X8X+.O.o.3X-.) w ; yXyXyXyXyXyXyXyXyXyXyXyXyXyX",
"yXyXyXyXyXyXyXyXyXyXyXyXyXyXyXyX9 ( $.*.*.r.i.i.7X7X+.O.O.5X_ 5 : $ o     yXyXyXyXyXyXyXyXyXyXyX",
"yXyXyXyXyXyXyXyXyXyXyXyXyXyXyX9 ` ' %.*.r.t.t.i.l.7X5XZ M x s a : $ o .   - yXyXyXyXyXyXyXyXyXyX",
"yXyXyXyXyXyXyXyXyXyXyXyXyXyX, } ( %.%.*.r.t.t.y.l.1.1.M M x s 5 3 $ O %   yXyXyXyXyXyXyXyXyXyXyX",
"yXyXyXyXyXyXyXyXyXyXyXyX< 9 } } ' %.*.r.r.i.i.+.1.1.1.Z Z x c d 5 # # yXyXyXyXyXyXyXyXyXyXyXyXyX",
"yXyXyXyXyXyXyXyXyXyXyX< < ` ` ' %.%.&.r.i.@. .2.4.1.3.K.F.D.S.B 7 4 3 yXyXyXyXyXyXyXyXyXyXyXyXyX",
"yXyXyXyXyXyXyXyXyXyX1 8 ` $.%.' &.=.=.@. . .2.4.P.U.G.G.G.G.C.B f f 7 yXyXyXyXyXyXyXyXyXyXyXyXyX",
"yXyXyXyXyXyXyXyXyXyX8 ` $.$.*.*.&.=. . .6.w.P.U.Y.9.9.G.G.G.A Z V f 7 f yXyXyXyXyXyXyXyXyXyXyXyX",
"yXyXyXyXyXyXyXyXyXyX8 _ ;.;.-.&.@.{ ,.w.L.U.U.U.U.f.7.T.T.T.3.A <.<.B 4 yXyXyXyXyXyXyXyXyXyXyXyX",
"yXyXyXyXyXyXyXyXyXyXq _ ;.-.#.:.,.0.L.L.U.U.U.T.T.h.8.R.R.E.f.N.G.F.C.B 4 yXyXyXyXyXyXyXyXyXyXyX",
"yXyXyXyXyXyXyXyXyXyXi [ #.#.5.,.6.0.L.U.T.R.R.R.R.8.h.E.E.E.E.R.U.G.H.N.B & yXyXyXyXyXyXyXyXyXyX",
"yXyXyXyXyXyXyXyXyXyX6 >.I.I.I.I.0.q.q.q.R.E.R.R.E.C.C.E.E.E.E.E.R.G.F.H.B 4 yXyXyXyXyXyXyXyXyXyX",
"yXyXyXyXyXyXyXyXyX5 u D.I.L.I.T.U.q.w.M.E.E.R.R.W.R.R.R.R.R.E.R.T.G.G.H.B & yXyXyXyXyXyXyXyXyXyX",
"yXyXyXyXyXyXyXyXyX3 u A.D.M.N.T.T.C.M.R.E.E.R.h.8.R.T.T.R.R.R.T.T.G.H.C.B & yXyXyXyXyXyXyXyXyXyX",
"yXyXyXyXyXyXyXyXyX3 t H.D.L.M.T.W.W.E.E.E.R.h.f.f.7.T.R.U.U.T.G.G.G.C.B 4 yXyXyXyXyXyXyXyXyXyXyX",
"yXyXyXyXyXyXyXyXyX& 4 B D.P.T.P.T.W.W.R.E.R.f.f.A s.A A G.G.G.G.H.Z.B 7 yXyXyXyXyXyXyXyXyXyXyXyX",
"yXyXyXyXyXyXyXyXyXyX3 7 B A.F.T.U.T.T.R.R.R.U.N.9.A A Z A S V V V f p yXyXyXyXyXyXyXyXyXyXyXyXyX",
"yXyXyXyXyXyXyXyXyXyXyX3 7 B <.<.P.U.U.U.T.U.Y.J.A A C V V c l f p 4 yXyXyXyXyXyXyXyXyXyXyXyXyXyX",
"yXyXyXyXyXyXyXyXyXyXyXyXyX7 c c <.4.Y.Y.Y.P.Y.Y.J.J.M x g s d p 3 yXyXyXyXyXyXyXyXyXyXyXyXyXyXyX",
"yXyXyXyXyXyXyXyXyXyXyXyXyXyXS Z c v 4.4.h.Y.,XJ.J.K.K.S.0.c 5 a yXyXyXyXyXyXyXyXyXyXyXyXyXyXyXyX",
"yXyXyXyXyXyXyXyXyXyXyXyXyXyXyXb S Z M U 4.s.s.s.d.Z 1.S b a a = yXyXyXyXyXyXyXyXyXyXyXyXyXyXyXyX",
"yXyXyXyXyXyXyXyXyXyXyXyXyXyXyXyXN M ..| ! %XoX! v.p.e.e.R P h * yXyXyXyXyXyXyXyXyXyXyXyXyXyXyXyX",
"yXyXyXyXyXyXyXyXyXyXyXyXyXyXyXyXM b | u.! .X.X.X/.a.p.p.| P I h yXyXyXyXyXyXyXyXyXyXyXyXyXyXyXyX",
"yXyXyXyXyXyXyXyXyXyXyXyXyXyXyXM b | u.u.v.! .X.X.X^.a.p.p.e.Y P yXyXyXyXyXyXyXyXyXyXyXyXyXyXyXyX",
"yXyXyXyXyXyXyXyXyXyXyXyXyXyXyXb | u.u.x.v./..X.X.X X^.~.^.R T P K yXyXyXyXyXyXyXyXyXyXyXyXyXyXyX",
"yXyXyXyXyXyXyXyXyXyXyXyXyXyXv  .O.l.z.b.n./.oXoXoXoXXX.X X_.].S.m s yXyXyXyXyXyXyXyXyXyXyXyXyXyX",
"yXyXyXyXyXyXyXyXyXyXyXyXyXl j.6.z.n.n.n.k.%X@X@X$X,X,XXX X].[.A.A.g s yXyXyXyXyXyXyXyXyXyXyXyXyX",
"yXyXyXyXyXyXyXyXyXyXyXyXk E 5X0XrXeXrXrX9X=X%X@X1X,X,X,XXX[.].F.A.m s yXyXyXyXyXyXyXyXyXyXyXyXyX",
"yXyXyXyXyXyXyXyXyXyXyXyXl / 4X0XrXeX9X9XeX*X*X#X1X1X,X,XXX|.].g.A.m s yXyXyXyXyXyXyXyXyXyXyXyXyX",
"yXyXyXyXyXyXyXyXyXyXyXj E 5X0X-XrXtXtXtXqXqX;X#X>X6X<XXX|.}.{.'.J G yXyXyXyXyXyXyXyXyXyXyXyXyXyX",
"yXyXyXyXyXyXyXyXyXyXyXj E 4X4X-X9X:XtXtXqXwX;X#X+X+X X|.}.{.`._.J G yXyXyXyXyXyXyXyXyXyXyXyXyXyX",
"yXyXyXyXyXyXyXyXyXyXyX= E 4X0X0X0X:XtXtXqXwX).+XOX|.|.}.{.{._.Q.J yXyXyXyXyXyXyXyXyXyXyXyXyXyXyX",
"yXyXyXyXyXyXyXyXyXyXyX= E ^ 4X0X0X9X9X9X:X).).+X|.|.}.}.`._._.H G yXyXyXyXyXyXyXyXyXyXyXyXyXyXyX",
"yXyXyXyXyXyXyXyXyXyXyXyX= ~ ^ =X4X0XwXwX&X&X+X|.|.}.`._.`._.H G F yXyXyXyXyXyXyXyXyXyXyXyXyXyXyX",
"yXyXyXyXyXyXyXyXyXyXyXyXyXj ~ ^ ^ j.&Xm.(.[.[.[.]._._._.Q.Q.H D D yXyXyXyXyXyXyXyXyXyXyXyXyXyXyX",
"yXyXyXyXyXyXyXyXyXyXyXyXyXyXj L ~ / +XXX[.[.].}.{.!.!.!.H H * * * yXyXyXyXyXyXyXyXyXyXyXyXyXyXyX",
"yXyXyXyXyXyXyXyXyXyXyXyXyXyXL L j Q Q W Q W ~.!.T T T H I n * * @ yXyXyXyXyXyXyXyXyXyXyXyXyXyXyX",
"yXyXyXyXyXyXyXyXyXyXyXyXyXyXyX= j a k k L M U U U U h n N w 6 @ @ % yXyXyXyXyXyXyXyXyXyXyXyXyXyX",
"yXyXyXyXyXyXyXyXyXyXyXyXyXyXyX& & f c h x v v B.w.m N a w 6 6 1 @ % yXyXyXyXyXyXyXyXyXyXyXyXyXyX",
"yXyXyXyXyXyXyXyXyXyXyXyXyXyXyX@ & 6 w a y c b B.Z.N c : w w 1 1 %   yXyXyXyXyXyXyXyXyXyXyXyXyXyX",
"yXyXyXyXyXyXyXyXyXyXyXyXyXyXyX@ O 1 w : i y t t t r q : + + + o .   yXyXyXyXyXyXyXyXyXyXyXyXyXyX",
"yXyXyXyXyXyXyXyXyXyXyXyXyXyXyX@ O q.:.:.i u u u t i 2 ; 8 1 1 o .   yXyXyXyXyXyXyXyXyXyXyXyXyXyX",
"yXyXyXyXyXyXyXyXyXyXyXyXyXyXyXyXO # & :.:.M.N.N.N.M.:.; + + O o . yXyXyXyXyXyXyXyXyXyXyXyXyXyXyX",
"yXyXyXyXyXyXyXyXyXyXyXyXyXyXyXyXO + + 2 2 6 6 1 2 2 2 ; + + O o yXyXyXyXyXyXyXyXyXyXyXyXyXyXyXyX",
"yXyXyXyXyXyXyXyXyXyXyXyXyXyXyXyXyX+ + ; 2 2 2 2 2 2 + + O X X X yXyXyXyXyXyXyXyXyXyXyXyXyXyXyXyX"
};
