/* XPM */
static char *result[] = {
/* columns rows colors chars-per-pixel */
"48 51 214 2 ",
"   c #250C0B",
".  c #2C0D0C",
"X  c #380D0E",
"o  c #2D130E",
"O  c #37170E",
"+  c #2C1215",
"@  c #3C1C12",
"#  c #361615",
"$  c #270F11",
"%  c #3D2313",
"&  c #3B2218",
"*  c #2C1828",
"=  c #2E1738",
"-  c #372427",
";  c #3F332D",
":  c #392739",
">  c #441E13",
",  c #451713",
"<  c #551812",
"1  c #4C130F",
"2  c #44230F",
"3  c #59250E",
"4  c #442413",
"5  c #4A2414",
"6  c #4A2918",
"7  c #582C1A",
"8  c #56311E",
"9  c #7A3508",
"0  c #6D3416",
"q  c #472928",
"w  c #40332F",
"e  c #4F302E",
"r  c #663D28",
"t  c #653E37",
"y  c #7B440D",
"u  c #78450B",
"i  c #6C4413",
"p  c #744B13",
"a  c #764818",
"s  c #7B5017",
"d  c #524334",
"f  c #6B4825",
"g  c #754627",
"h  c #6C4339",
"j  c #744939",
"k  c #725529",
"l  c #312D79",
"z  c #3A3678",
"x  c #302A6B",
"c  c #2F1E44",
"v  c #553948",
"b  c #452E50",
"n  c #473A77",
"m  c #573F77",
"M  c #55465A",
"N  c #58514A",
"B  c #6E4D4A",
"V  c #544C78",
"C  c #5C5574",
"Z  c #524E6C",
"A  c #68586C",
"S  c #5E6661",
"D  c #6B7166",
"F  c #9B1E0B",
"G  c #971D0B",
"H  c #A41F0D",
"J  c #AB1F0F",
"K  c #9B240D",
"L  c #84340A",
"P  c #8C350B",
"I  c #99370D",
"U  c #82361E",
"Y  c #AC200E",
"T  c #A1220D",
"R  c #A92410",
"E  c #B32110",
"W  c #B92113",
"Q  c #B93A18",
"!  c #AB3314",
"~  c #993826",
"^  c #91372F",
"/  c #A63728",
"(  c #A93D33",
")  c #C72419",
"_  c #C43E19",
"`  c #D1271E",
"'  c #DB2F2F",
"]  c #D9322F",
"[  c #DD3231",
"{  c #DC3B34",
"}  c #DC2F31",
"|  c #E23335",
" . c #E43C36",
".. c #E63439",
"X. c #E9353C",
"o. c #E63B39",
"O. c #E93A3D",
"+. c #824A0E",
"@. c #885318",
"#. c #8E4E17",
"$. c #AF731E",
"%. c #994929",
"&. c #985A28",
"*. c #8E5329",
"=. c #A75332",
"-. c #94672D",
";. c #A46B23",
":. c #AA732A",
">. c #BC7B22",
",. c #B97727",
"<. c #A97732",
"1. c #B36428",
"2. c #C5421B",
"3. c #C84724",
"4. c #E34437",
"5. c #E5443B",
"6. c #E54A3E",
"7. c #E8413D",
"8. c #C47D24",
"9. c #CB7B25",
"0. c #C57927",
"q. c #C37F32",
"w. c #D07F2F",
"e. c #8B334B",
"r. c #9D5844",
"t. c #AB584A",
"y. c #AF4E44",
"u. c #B27A42",
"i. c #9D7574",
"p. c #DA4C56",
"a. c #DB494D",
"s. c #C07E43",
"d. c #DA4A66",
"f. c #DD5767",
"g. c #D64878",
"h. c #DD5677",
"j. c #E06D79",
"k. c #DE6B6B",
"l. c #7B826E",
"z. c #BE8A39",
"x. c #C98429",
"c. c #C68837",
"v. c #D08935",
"b. c #CC9235",
"n. c #C8933C",
"m. c #D09338",
"M. c #85897A",
"N. c #C28642",
"B. c #C49042",
"V. c #C39352",
"C. c #D9AB67",
"Z. c #DAB26E",
"A. c #D7B06B",
"S. c #DDB572",
"D. c #DEB975",
"F. c #E5BD7A",
"G. c #E3B877",
"H. c #E6C17C",
"J. c #3A3585",
"K. c #3A3596",
"L. c #352F88",
"P. c #453E89",
"I. c #443D95",
"U. c #50388B",
"Y. c #4D4685",
"T. c #7C78B4",
"R. c #3D3BEE",
"E. c #3F3DF2",
"W. c #463DED",
"Q. c #543EEE",
"!. c #413EF3",
"~. c #4F3FF4",
"^. c #533EF1",
"/. c #7B79C8",
"(. c #4B43EE",
"). c #5846ED",
"_. c #5D53EC",
"`. c #4442F5",
"'. c #4B44F3",
"]. c #4C49F7",
"[. c #534CF5",
"{. c #5547F6",
"}. c #5955F6",
"|. c #6A4AEC",
" X c #774AEC",
".X c #7A53EC",
"XX c #6546F2",
"oX c #685BF4",
"OX c #6159EE",
"+X c #6A65F0",
"@X c #CC3A9C",
"#X c #8C75AF",
"$X c #93749A",
"%X c #D84E85",
"&X c #DE658B",
"*X c #877AC1",
"=X c #8252E8",
"-X c #888E8F",
";X c #9085A4",
":X c #B0A9AF",
">X c #A9A2CE",
",X c #C7C6CA",
"<X c #D3D2CB",
"1X c #DAD3CE",
"2X c #D5D3D3",
"3X c #DBD6D5",
"4X c #DBD5DB",
"5X c #DBD7DC",
"6X c #CAC8D0",
"7X c #E2D8D9",
"8X c #D4CFE4",
"9X c #D5D3E4",
"0X c #D9D6E3",
"qX c None",
/* pixels */
"qXqXqXqXqXqXqXqXqXqXqXqXqXqXqXqXqXqXqXqXP I I I I I qXqXqXqXqXqXqXqXqXqXqXqXqXqXqXqXqXqXqXqXqXqX",
"qXqXqXqXqXqXqXqXqXqXqXqXqXqXqXqXqXqXqXP J E E E E E I P qXqXqXqXqXqXqXqXqXqXqXqXqXqXqXqXqXqXqXqX",
"qXqXqXqXqXqXqXqXqXqXqXqXqXqXqXqXqXqXL J E } | | | E E J L qXqXqXqXqXqXqXqXqXqXqXqXqXqXqXqXqXqXqX",
"qXqXqXqXqXqXqXqXqXqXqXqXqXqXqXqXqX9 H Y } } | | | | ' Y H L qXqXqXqXqXqXqXqXqXqXqXqXqXqXqXqXqXqX",
"qXqXqXqXqXqXqXqXqXqXqXqXqXqXqXqXqXL H } [ ..| ....| | [ J G 9 qXqXqXqXqXqXqXqXqXqXqXqXqXqXqXqXqX",
"qXqXqXqXqXqXqXqXqXqXqXqXqXqXqXqX9 H } } | ..X.X.X.X.| [ ' J L qXqXqXqXqXqXqXqXqXqXqXqXqXqXqXqXqX",
"qXqXqXqXqXqXqXqXqXqXqXqX  . X 1 G H } | | ..X.X.X...| | [ J H 9 qXqXqXqXqXqXqXqXqXqXqXqXqXqXqXqX",
"qXqXqXqXqXqXqXqXqXqXqX  . X 1 < F J [ | ..X.X.X.X.X.X.| | ' J F 9 qXqXqXqXqXqXqXqXqXqXqXqXqXqXqX",
"qXqXqXqXqXqXqXqXqXqXqX  . X , < G } | ..X.X.X.X.X.X.X.X...} } H L qXqXqXqXqXqXqXqXqXqXqXqXqXqXqX",
"qXqXqXqXqXqXqXqXqXqXqXqXo X , 3 K } | { X.O.X.O.X.X.X.X...| } J P qXqXqXqXqXqXqXqXqXqXqXqXqXqXqX",
"qXqXqXqXqXqXqXqXqXqXqXqXqX, < < 0 { { o.X.X.X.O.X.X.X.X.| | | E I P L qXqXqXqXqXqXqXqXqXqXqXqXqX",
"qXqXqXqXqXqXqXqXqXqXqXqXqXqXqX7 0 0 { o.{ O.O.O.O.X.X.X.` ) ) W Y H F 9 qXqXqXqXqXqXqXqXqXqXqXqX",
"qXqXqXqXqXqXqXqXqXqXqXqX4 6 7 i ^ U %.{ 4.7.O.O.O.O.` ` ....| | [ ' T K 9 qXqXqXqXqXqXqXqXqXqXqX",
"qXqXqXqXqXqXqXqXqXqXqX% p @.@.@.&.,.%.%.4.4.6.7.O.O.O.O.......| | ' ' T K 9 qXqXqXqXqXqXqXqXqXqX",
"qXqXqXqXqXqXqXqXqXqX% p s A.Z.&.q.q.q.%.=.6.6.6.7.7.7.....X..... .{ { ] K 9 qXqXqXqXqXqXqXqXqXqX",
"qXqXqXqXqXqXqXqXqXqX4 s A.Z.S.G.c.c.:.1.1.3.3.6.6.7.7. . .o.o.o. .{ { { K 9 qXqXqXqXqXqXqXqXqXqX",
"qXqXqXqXqXqXqXqXqXqX% s A.Z.D.H.n.<.G.G.G.v.3.3._ 7.7.7.7.4.7.4. .4.{ ] I 9 qXqXqXqXqXqXqXqXqXqX",
"qXqXqXqXqXqXqXqXqXqX6 s Z.D.D.B.<.F.F.F.F.F.v.v.v.3._ _ 4.4.4.4.4.{ Q ! C.y > qXqXqXqXqXqXqXqXqX",
"qXqXqXqXqXqXqXqXqXqX% s A.Z.k n.<.H.H.H.F.F.b.v.x.w.9.9._ _ 2._ Q Q 9.C.C.y 2 qXqXqXqXqXqXqXqXqX",
"qXqXqXqXqXqXqXqXqXqX% p A.k k z.<.H.H.H.H.F.b.b.v.x.9.9.9.9.9.9.9.9.0.C.C.9 2 qXqXqXqXqXqXqXqXqX",
"qXqXqXqXqXqXqXqXqXqX% p s f k D.<.F.H.H.H.H.b.b.x.x.x.x.9.x.9.9.8.>.>.C.+.u > qXqXqXqXqXqXqXqXqX",
"qXqXqXqXqXqXqXqXqXqXqX% p 8 k Z.D.<.H.H.H.m.b.b.x.x.x.>.x.9.8.8.>.>.+.+.u 4 qXqXqXqXqXqXqXqXqXqX",
"qXqXqXqXqXqXqXqXqXqXqXqX% 6 f k S.D.<.<.n.n.b.b.x.x.x.x.x.>.x.>.>.$.#.+.5 qXqXqXqXqXqXqXqXqXqXqX",
"qXqXqXqXqXqXqXqXqXqXqXqXqXqX6 s *.S.D.D.H.H.b.c.b.x.x.x.>.x.>.>.>.#.+.6 qXqXqXqXqXqXqXqXqXqXqXqX",
"qXqXqXqXqXqXqXqXqXqXqXqXqXqXqX8 @.@.S.G.G.N.N.c.z.x.q.q.,.z.,.,.$.$.y 2 qXqXqXqXqXqXqXqXqXqXqXqX",
"qXqXqXqXqXqXqXqXqXqXqXqXqXqXqXqX8 a &.&.G.q.N.u.N.z.s.&.=.=.,.:.:.;.u 2 qXqXqXqXqXqXqXqXqXqXqXqX",
"qXqXqXqXqXqXqXqXqXqXqXqXqXqXqXqXqXqXg %.=.=.=.t.r.t.r.p.p.%.*.+.+.y 0 @ qXqXqXqXqXqXqXqXqXqXqXqX",
"qXqXqXqXqXqXqXqXqXqXqXqXqXqXqXqXqXB / ( p.p.i.=X.X.Xd.d.d.A ^ ~ g 6 % qXqXqXqXqXqXqXqXqXqXqXqXqX",
"qXqXqXqXqXqXqXqXqXqXqXqXqXqXqXqXv ~ / a.p.d.d.=X X Xg.g.g.|.m ~ g qXqXqXqXqXqXqXqXqXqXqXqXqXqXqX",
"qXqXqXqXqXqXqXqXqXqXqXqXqXqXqXv B ( ( p.d.d.h.=X X X X@XXXQ.m e.j qXqXqXqXqXqXqXqXqXqXqXqXqXqXqX",
"qXqXqXqXqXqXqXqXqXqXqXqXqXqXb M ~ ( p.d.f.h.%X=XXXXXXX@XQ.Q.U.m e.h qXqXqXqXqXqXqXqXqXqXqXqXqXqX",
"qXqXqXqXqXqXqXqXqXqXqXqXqXqXM A y.y.f.f.h.%X$X XXXQ.^.^.^.^.^.U.e.D : qXqXqXqXqXqXqXqXqXqXqXqXqX",
"qXqXqXqXqXqXqXqXqXqXqXqXqXM D t.u.k.j.j.&X&X#X XXX{.{.^.'.'.'.I.Y.6XS : qXqXqXqXqXqXqXqXqXqXqXqX",
"qXqXqXqXqXqXqXqXqXqXqXqXqXN M.<X7X7X7X5X7X;X#XoXXX}.{.~.'.(.'.(.P.,X,XS - qXqXqXqXqXqXqXqXqXqXqX",
"qXqXqXqXqXqXqXqXqXqXqXqXd D <X<X5X7X5X5X0X0X#XoXoX].].!.`.].].(.I.,X,XS - qXqXqXqXqXqXqXqXqXqXqX",
"qXqXqXqXqXqXqXqXqXqXqX; D <X<X:X5X5X7X5X0X8X*XoX}.{.`.~.`.`.`.`.I.P.,XS - qXqXqXqXqXqXqXqXqXqXqX",
"qXqXqXqXqXqXqXqXqXqXqX; D <X<X:X5X:X0X0X9X>X+X+X}.].`.`.`.`.`.`.K.J.,XS * qXqXqXqXqXqXqXqXqXqXqX",
"qXqXqXqXqXqXqXqXqXqXqX; l.<X<X<X5X:X0X0X9X9X/.+X}.].`.`.`.`.E.E.J.z Z Z * qXqXqXqXqXqXqXqXqXqXqX",
"qXqXqXqXqXqXqXqXqXqXqXqXd l.<X<X2X5X9X9X9X9X/.}.}.].`.`.E.E.E.E.J.Z c - qXqXqXqXqXqXqXqXqXqXqXqX",
"qXqXqXqXqXqXqXqXqXqXqXqX; d M.M.2X5X5X9X9X/.OX}.].].`.E.E.E.E.L.l c qXqXqXqXqXqXqXqXqXqXqXqXqXqX",
"qXqXqXqXqXqXqXqXqXqXqXqXqXqXN B -X-X-X-XT._.}.}.'.~.!.!.!.W.L.l x qXqXqXqXqXqXqXqXqXqXqXqXqXqXqX",
"qXqXqXqXqXqXqXqXqXqXqXqXqXqXqXqXD Y.+X+X_._._.[.~.!.W.I.K.L.l x qXqXqXqXqXqXqXqXqXqXqXqXqXqXqXqX",
"qXqXqXqXqXqXqXqXqXqXqXqXqXqXqXw M Z C _._._.).(.~.!.W.L.L.x x = qXqXqXqXqXqXqXqXqXqXqXqXqXqXqXqX",
"qXqXqXqXqXqXqXqXqXqXqXqXqXqX; e -.<.r.C Y.Y.).(.W.W.L.P.h t e * * qXqXqXqXqXqXqXqXqXqXqXqXqXqXqX",
"qXqXqXqXqXqXqXqXqXqXqXqXqX# & i -.V.j v B B m n n n b t t r 7 * + qXqXqXqXqXqXqXqXqXqXqXqXqXqXqX",
"qXqXqXqXqXqXqXqXqXqXqXqXqXo & i i a e g *.j B j j h q r r 8 # + $ qXqXqXqXqXqXqXqXqXqXqXqXqXqXqX",
"qXqXqXqXqXqXqXqXqXqXqXqXqXo O z.i a a g g g g h h g : q # # 3 + $ qXqXqXqXqXqXqXqXqXqXqXqXqXqXqX",
"qXqXqXqXqXqXqXqXqXqXqXqXqXo % z.c.;.;.a a a a g a &.& 0 3 3 o o   qXqXqXqXqXqXqXqXqXqXqXqXqXqXqX",
"qXqXqXqXqXqXqXqXqXqXqXqXqXo O % 4 5 5 ;.;.n.B.B.B.4 @ @ # X o   qXqXqXqXqXqXqXqXqXqXqXqXqXqXqXqX",
"qXqXqXqXqXqXqXqXqXqXqXqXqXqXo @ @ 4 5 5 6 3 6 4 4 > @ # O + . qXqXqXqXqXqXqXqXqXqXqXqXqXqXqXqXqX",
"qXqXqXqXqXqXqXqXqXqXqXqXqXqXqXqXqXqXO 4 > 5 5 > > > o qXqXqXqXqXqXqXqXqXqXqXqXqXqXqXqXqXqXqXqXqX"
};
