/* XPM */
static char *result[] = {
/* columns rows colors chars-per-pixel */
"48 51 221 2 ",
"   c #2C0D0C",
".  c #240C0A",
"X  c #380D0E",
"o  c #2D120C",
"O  c #391B0D",
"+  c #36160E",
"@  c #2C1215",
"#  c #3C1C12",
"$  c #361615",
"%  c #270F11",
"&  c #3D2313",
"*  c #3B2218",
"=  c #2C1828",
"-  c #28173C",
";  c #372427",
":  c #392739",
">  c #3F332D",
",  c #441E13",
"<  c #451713",
"1  c #551812",
"2  c #540F0F",
"3  c #7B0F0F",
"4  c #750F0E",
"5  c #6D0D10",
"6  c #59250E",
"7  c #442313",
"8  c #4A2414",
"9  c #4A2918",
"0  c #572A18",
"q  c #4D2A16",
"w  c #7A3508",
"e  c #6D3416",
"r  c #472828",
"t  c #5C2826",
"y  c #40332F",
"u  c #462737",
"i  c #51362C",
"p  c #682925",
"a  c #653A27",
"s  c #653E37",
"d  c #7A450C",
"f  c #6C4413",
"g  c #744B13",
"h  c #764818",
"j  c #7B5017",
"k  c #524334",
"l  c #6B4825",
"z  c #754627",
"x  c #6C4339",
"c  c #744939",
"v  c #725529",
"b  c #291C4B",
"n  c #2A255C",
"m  c #312D79",
"M  c #3A3678",
"N  c #302A6B",
"B  c #452948",
"V  c #553948",
"C  c #473453",
"Z  c #473A77",
"A  c #573F77",
"S  c #564759",
"D  c #584E4C",
"F  c #6E4D4A",
"G  c #544C78",
"H  c #5C5574",
"J  c #524E6C",
"K  c #68586C",
"L  c #5E6661",
"P  c #6B7166",
"I  c #9B1E0B",
"U  c #971D0B",
"Y  c #801011",
"T  c #A41F0D",
"R  c #AB1F0F",
"E  c #9B240D",
"W  c #84340A",
"Q  c #8C350B",
"!  c #99370D",
"~  c #82361E",
"^  c #AC200E",
"/  c #A1220D",
"(  c #A92410",
")  c #B32110",
"_  c #B92113",
"`  c #B93A18",
"'  c #AB3314",
"]  c #993826",
"[  c #91372F",
"{  c #A63728",
"}  c #A93D33",
"|  c #C72419",
" . c #C43E19",
".. c #D1271E",
"X. c #DB2F2F",
"o. c #D9322F",
"O. c #DD3231",
"+. c #DC3B34",
"@. c #DC2F31",
"#. c #E23335",
"$. c #E43C36",
"%. c #E63439",
"&. c #E9353C",
"*. c #E63B39",
"=. c #E93A3D",
"-. c #824A0E",
";. c #885318",
":. c #8E4E17",
">. c #AF731E",
",. c #994929",
"<. c #985A28",
"1. c #8E5329",
"2. c #A75332",
"3. c #94672D",
"4. c #A46B23",
"5. c #AA732A",
"6. c #BC7B22",
"7. c #B97727",
"8. c #A97732",
"9. c #B36428",
"0. c #C5421B",
"q. c #C84724",
"w. c #E34437",
"e. c #E5443B",
"r. c #E54A3E",
"t. c #E8413D",
"y. c #C47D24",
"u. c #CB7B25",
"i. c #C57927",
"p. c #C37F32",
"a. c #D07F2F",
"s. c #8B334B",
"d. c #9D5844",
"f. c #AB584A",
"g. c #AF4E44",
"h. c #B27A42",
"j. c #9D7574",
"k. c #DA4C56",
"l. c #DB494D",
"z. c #C07E43",
"x. c #DA4A66",
"c. c #DD5767",
"v. c #D64878",
"b. c #DD5677",
"n. c #E06D79",
"m. c #DE6B6B",
"M. c #7B826E",
"N. c #BE8A39",
"B. c #C98429",
"V. c #C68837",
"C. c #D08935",
"Z. c #CC9235",
"A. c #C8933C",
"S. c #D09338",
"D. c #85897A",
"F. c #C28642",
"G. c #C39147",
"H. c #D9AB67",
"J. c #DAB26E",
"K. c #D7B06B",
"L. c #DDB572",
"P. c #DEB975",
"I. c #E5BD7A",
"U. c #E3B877",
"Y. c #E6C17C",
"T. c #3A3585",
"R. c #3A3596",
"E. c #352F88",
"W. c #453E89",
"Q. c #443D95",
"!. c #50388B",
"~. c #4D4685",
"^. c #7C78B4",
"/. c #3D3BEE",
"(. c #3F3DF2",
"). c #463DED",
"_. c #413EF3",
"`. c #4F3FF4",
"'. c #533EF1",
"]. c #543EEE",
"[. c #7B79C8",
"{. c #4B43EE",
"}. c #5846ED",
"|. c #5D53EC",
" X c #4442F5",
".X c #4B44F3",
"XX c #4C49F7",
"oX c #534CF5",
"OX c #5547F6",
"+X c #5955F6",
"@X c #6A4AEC",
"#X c #774AEC",
"$X c #7A53EC",
"%X c #6546F2",
"&X c #685BF4",
"*X c #6159EE",
"=X c #6A65F0",
"-X c #CC3A9C",
";X c #8C75AF",
":X c #93749A",
">X c #D84E85",
",X c #DE658B",
"<X c #8252E8",
"1X c #877AC1",
"2X c #888E8F",
"3X c #9085A4",
"4X c #B0A9AF",
"5X c #A9A2CE",
"6X c #C7C6CA",
"7X c #D3D2CB",
"8X c #DAD3CE",
"9X c #D5D3D3",
"0X c #DBD6D5",
"qX c #DBD5DB",
"wX c #DBD7DC",
"eX c #CAC8D0",
"rX c #E2D8D9",
"tX c #D5D3E4",
"yX c #D9D6E3",
"uX c #D4CFE4",
"iX c None",
/* pixels */
"iXiXiXiXiXiXiXiXiXiXiXiXiXiXiXiXiXiX4 3 Q ! ! ! ! ! 3 3 4 iXiXiXiXiXiXiXiXiXiXiXiXiXiXiXiXiXiXiX",
"iXiXiXiXiXiXiXiXiXiXiXiXiXiXiXiXiXiX3 Q T ) _ ) ) ) ! Q 3 iXiXiXiXiXiXiXiXiXiXiXiXiXiXiXiXiXiXiX",
"iXiXiXiXiXiXiXiXiXiXiXiXiXiXiXiXiX4 W T ) @.@.#.#._ ^ ^ W 3 iXiXiXiXiXiXiXiXiXiXiXiXiXiXiXiXiXiX",
"iXiXiXiXiXiXiXiXiXiXiXiXiXiXiXiXiXW T ^ @.#.#.#.#.#.X.^ T W iXiXiXiXiXiXiXiXiXiXiXiXiXiXiXiXiXiX",
"iXiXiXiXiXiXiXiXiXiXiXiXiXiXiXiX5 W T @.#.#.#.%.%.#.#.O.R I w iXiXiXiXiXiXiXiXiXiXiXiXiXiXiXiXiX",
"iXiXiXiXiXiXiXiXiXiXiXiXiXiXiX2 w T @.@.#.%.&.&.%.%.#.O.X.T W iXiXiXiXiXiXiXiXiXiXiXiXiXiXiXiXiX",
"iXiXiXiXiXiXiXiXiXiXiXiX.   X 2 U T @.#.#.%.&.&.&.&.%.#.O.R T w iXiXiXiXiXiXiXiXiXiXiXiXiXiXiXiX",
"iXiXiXiXiXiXiXiXiXiXiX.   X X 1 I T O.#.&.&.&.&.&.&.&.#.#.X.R I w iXiXiXiXiXiXiXiXiXiXiXiXiXiXiX",
"iXiXiXiXiXiXiXiXiXiXiX.   X < 1 U o.O.O.&.&.&.&.&.&.&.&.%.@.@.R W iXiXiXiXiXiXiXiXiXiXiXiXiXiXiX",
"iXiXiXiXiXiXiXiXiXiXiXiX  X < 5 E o.%.%.&.=.&.=.&.&.&.&.%.#.@.R Q 3 iXiXiXiXiXiXiXiXiXiXiXiXiXiX",
"iXiXiXiXiXiXiXiXiXiXiXiX+ < 1 1 p +.+.*.&.&.=.=.&.&.&.&.#.#.@.) ! Q w iXiXiXiXiXiXiXiXiXiXiXiXiX",
"iXiXiXiXiXiXiXiXiXiXiXiX8 8 8 p e ~ +.*.+.=.=.=.=.&.&.&...| | _ ^ R I w iXiXiXiXiXiXiXiXiXiXiXiX",
"iXiXiXiXiXiXiXiXiXiXiXiX7 q 0 f a [ ,.w.w.e.=.=.=.=.....#.#.%.#.X.o.T I w iXiXiXiXiXiXiXiXiXiXiX",
"iXiXiXiXiXiXiXiXiXiXiX& j j ;.;.<.u.,.,.w.r.e.t.t.&.=.&.&.&.%.%.#.o.o./ E w iXiXiXiXiXiXiXiXiXiX",
"iXiXiXiXiXiXiXiXiXiX& g j K.J.<.V.7.i.,.2.r.r.t.t.t.=.*.$.&.%.#.$.+.+.o.E w iXiXiXiXiXiXiXiXiXiX",
"iXiXiXiXiXiXiXiXiXiX7 j K.J.U.L.N.V.5.9.q.9.q.r.r.t.t.$.*.=.$.$.$.$.+.+.E w iXiXiXiXiXiXiXiXiXiX",
"iXiXiXiXiXiXiXiXiXiX& j K.J.P.Y.V.8.U.U.U.C.q.q.0.r.t.t.w.t.w.w.$.+.w.+./ w iXiXiXiXiXiXiXiXiXiX",
"iXiXiXiXiXiXiXiXiXiX> j K.P.P.N.8.I.I.I.I.U.C.C.C.0. . .w.w.w.w.w.w.' ' H.d , iXiXiXiXiXiXiXiXiX",
"iXiXiXiXiXiXiXiXiXiX& j K.P.3.N.8.Y.Y.Y.Y.I.Z.C.C.a.u.u. . .0. .` ` u.H.H.d , iXiXiXiXiXiXiXiXiX",
"iXiXiXiXiXiXiXiXiXiX& f K.v v N.8.Y.Y.Y.Y.I.Z.Z.B.a.u.u.u.u.u.u.u.u.6.H.H.d , iXiXiXiXiXiXiXiXiX",
"iXiXiXiXiXiXiXiXiXiX& g j f v P.8.Y.Y.Y.Y.Y.Z.Z.B.B.B.B.u.B.u.u.y.6.>.H.-.d & iXiXiXiXiXiXiXiXiX",
"iXiXiXiXiXiXiXiXiXiXiX& g k l P.P.8.Y.Y.Y.S.Z.Z.B.B.B.B.B.u.y.y.y.6.:.-.d 7 iXiXiXiXiXiXiXiXiXiX",
"iXiXiXiXiXiXiXiXiXiXiXiX& 9 k v L.P.8.8.A.Z.Z.Z.B.B.B.6.B.B.B.6.6.>.:.-.8 iXiXiXiXiXiXiXiXiXiXiX",
"iXiXiXiXiXiXiXiXiXiXiXiXiXiXq ;.1.P.P.U.Y.Y.Z.V.Z.B.B.B.6.6.B.>.y.-.-.q 0 iXiXiXiXiXiXiXiXiXiXiX",
"iXiXiXiXiXiXiXiXiXiXiXiXiXiXi 0 ;.<.J.U.U.F.F.V.N.B.p.7.p.7.N.7.>.>.d 8 iXiXiXiXiXiXiXiXiXiXiXiX",
"iXiXiXiXiXiXiXiXiXiXiXiXiXiXiXp 0 l <.<.U.C.z.F.F.N.z.<.2.2.7.5.>.4.d O iXiXiXiXiXiXiXiXiXiXiXiX",
"iXiXiXiXiXiXiXiXiXiXiXiXiXiXiXt a p z ,.2.2.2.g.d.f.d.k.k.,.1.-.-.h w O iXiXiXiXiXiXiXiXiXiXiXiX",
"iXiXiXiXiXiXiXiXiXiXiXiXiXiXiXp p F { { k.k.j.<X$X$Xx.x.x.K [ [ z 9 * iXiXiXiXiXiXiXiXiXiXiXiXiX",
"iXiXiXiXiXiXiXiXiXiXiXiXiXiXiXp V ] { l.k.x.x.<X#X#X>Xv.v.#XA ] z u r iXiXiXiXiXiXiXiXiXiXiXiXiX",
"iXiXiXiXiXiXiXiXiXiXiXiXiXiXiXV F { } l.x.x.v.<X%X#X%X>X%X].A s.x B u iXiXiXiXiXiXiXiXiXiXiXiXiX",
"iXiXiXiXiXiXiXiXiXiXiXiXiXiXC S } } k.x.c.b.v.#X%X%X%X-X].].!.A s.F B iXiXiXiXiXiXiXiXiXiXiXiXiX",
"iXiXiXiXiXiXiXiXiXiXiXiXiXiXC K 2.2.c.b.b.>X:X#X%X%X'.'.'.`.].!.s.P u iXiXiXiXiXiXiXiXiXiXiXiXiX",
"iXiXiXiXiXiXiXiXiXiXiXiXiXS L f.h.m.n.n.,X,X;X#X%XOXOX`..X.X{.Q.~.6XL : iXiXiXiXiXiXiXiXiXiXiXiX",
"iXiXiXiXiXiXiXiXiXiXiXiXiXD D.8XrXrXrX0XrX3X;X$X&XOXOX`..X.X.X{.W.eX6XL ; iXiXiXiXiXiXiXiXiXiXiX",
"iXiXiXiXiXiXiXiXiXiXiXiXk P 7X8XwXwXwXwXyXuX;X&X+XOX X`. XXX{.XXQ.6X6XL ; iXiXiXiXiXiXiXiXiXiXiX",
"iXiXiXiXiXiXiXiXiXiXiX> P 7X7X4XwXwXrXwXyXyX1X&X+XXXXX_. X X X XR.~.6XL ; iXiXiXiXiXiXiXiXiXiXiX",
"iXiXiXiXiXiXiXiXiXiXiXy P 7X7X4XwX4XyXyXyX5X=X=X+XoX X X X X X XR.~.6XL = iXiXiXiXiXiXiXiXiXiXiX",
"iXiXiXiXiXiXiXiXiXiXiX> M.7X7X7XwX4XyXyXtXtX[.*X+XXX X(. X X(.(.T.M J J = iXiXiXiXiXiXiXiXiXiXiX",
"iXiXiXiXiXiXiXiXiXiXiXiXk M.7X7X9XwXyXtXtXtX[.+X+XXX X X(.(.(.(.E.J b ; iXiXiXiXiXiXiXiXiXiXiXiX",
"iXiXiXiXiXiXiXiXiXiXiXiX> k M.D.9XwXwXtXtX[.=X+XXXXX X X(.(.(.E.m b n iXiXiXiXiXiXiXiXiXiXiXiXiX",
"iXiXiXiXiXiXiXiXiXiXiXiXiXD D L 2X2X2X2X^.|.+XoXXX_._._./.(.E.m N n iXiXiXiXiXiXiXiXiXiXiXiXiXiX",
"iXiXiXiXiXiXiXiXiXiXiXiXiXD D D P ~.=X=X|.|.|.oX.X`._.R.R.E.m N n iXiXiXiXiXiXiXiXiXiXiXiXiXiXiX",
"iXiXiXiXiXiXiXiXiXiXiXiXiXiXi i V J H |.|.+XoX{.`.).).E.T.m N - - iXiXiXiXiXiXiXiXiXiXiXiXiXiXiX",
"iXiXiXiXiXiXiXiXiXiXiXiXiXiX; y 8.h.c G G ~.}.{.).).W.M x s t = = iXiXiXiXiXiXiXiXiXiXiXiXiXiXiX",
"iXiXiXiXiXiXiXiXiXiXiXiXiX$ * f 5.G.c V d.F Z Z Z Z B s s a 0 = % iXiXiXiXiXiXiXiXiXiXiXiXiXiXiX",
"iXiXiXiXiXiXiXiXiXiXiXiXiX+ $ f f h i c x c c c c x u s a t $ @ % iXiXiXiXiXiXiXiXiXiXiXiXiXiXiX",
"iXiXiXiXiXiXiXiXiXiXiXiXiX@ # N.f g h z z z z c s z r ; * $ 6 @ . iXiXiXiXiXiXiXiXiXiXiXiXiXiXiX",
"iXiXiXiXiXiXiXiXiXiXiXiXiXo # N.N.4.4.h h z h z h 3.7 e 6 6   o . iXiXiXiXiXiXiXiXiXiXiXiXiXiXiX",
"iXiXiXiXiXiXiXiXiXiXiXiXiXo O & 7 7 q 4.4.A.A.F.A.7 # # $ X o . iXiXiXiXiXiXiXiXiXiXiXiXiXiXiXiX",
"iXiXiXiXiXiXiXiXiXiXiXiXiXiXo O O 7 8 8 q q 9 8 , , # $ + @ o iXiXiXiXiXiXiXiXiXiXiXiXiXiXiXiXiX",
"iXiXiXiXiXiXiXiXiXiXiXiXiXiXO O O O O , , 8 7 , , , o o . . . iXiXiXiXiXiXiXiXiXiXiXiXiXiXiXiXiX"
};
