/* XPM */
static char *result[] = {
/* columns rows colors chars-per-pixel */
"48 51 217 2 ",
"   c #250C0B",
".  c #2A0F0B",
"X  c #240E07",
"o  c #2D110C",
"O  c #33150E",
"+  c #38190D",
"@  c #2C1216",
"#  c #3C1B13",
"$  c #351614",
"%  c #260E11",
"&  c #3C2017",
"*  c #301830",
"=  c #3E2C2F",
"-  c #1D0909",
";  c #431D12",
":  c #441E1A",
">  c #581E1B",
",  c #7B1A17",
"<  c #681F06",
"1  c #5B240A",
"2  c #4B2313",
"3  c #43241A",
"4  c #4B2C1D",
"5  c #4A261E",
"6  c #572816",
"7  c #4F301F",
"8  c #69240A",
"9  c #742109",
"0  c #7C230C",
"q  c #722D0F",
"w  c #662B14",
"e  c #782818",
"r  c #6A3218",
"t  c #743B14",
"y  c #71371C",
"u  c #763814",
"i  c #6F350F",
"p  c #4D2C21",
"a  c #482427",
"s  c #5A2C25",
"d  c #522D22",
"f  c #5A3825",
"g  c #583326",
"h  c #452735",
"j  c #433234",
"k  c #4A3239",
"l  c #563736",
"z  c #562E2A",
"x  c #6B3A2D",
"c  c #663728",
"v  c #733C2D",
"b  c #763828",
"n  c #632F39",
"m  c #693835",
"M  c #743A37",
"N  c #6F2927",
"B  c #77461B",
"V  c #67442C",
"C  c #6F4132",
"Z  c #774834",
"A  c #7D5436",
"S  c #74462C",
"D  c #251952",
"F  c #281E61",
"G  c #342D6A",
"H  c #362E78",
"J  c #38316F",
"K  c #3D3059",
"L  c #493C42",
"P  c #46335C",
"I  c #492C4A",
"U  c #703D40",
"Y  c #4C3567",
"T  c #473779",
"R  c #54386D",
"E  c #6C6A5F",
"W  c #524477",
"Q  c #4E4370",
"!  c #724875",
"~  c #686665",
"^  c #767568",
"/  c #75716A",
"(  c #980D0E",
")  c #841B19",
"_  c #951B18",
"`  c #930F0D",
"'  c #A21515",
"]  c #862B15",
"[  c #88341A",
"{  c #92331D",
"}  c #892513",
"|  c #982936",
" . c #943832",
".. c #8E3033",
"X. c #A82523",
"o. c #A53529",
"O. c #A73935",
"+. c #B33A33",
"@. c #B32E26",
"#. c #A1301C",
"$. c #D21F30",
"%. c #D42233",
"&. c #DB2B3C",
"*. c #D72838",
"=. c #DA343D",
"-. c #D3343A",
";. c #CD2C34",
":. c #98571A",
">. c #86451A",
",. c #95442C",
"<. c #895627",
"1. c #88473A",
"2. c #944533",
"3. c #865A3A",
"4. c #945536",
"5. c #8C5329",
"6. c #A65232",
"7. c #92673E",
"8. c #9D743E",
"9. c #8F613D",
"0. c #A9642E",
"q. c #B57934",
"w. c #C67D34",
"e. c #8E2745",
"r. c #DD2E43",
"t. c #DC3445",
"y. c #DB3B47",
"u. c #D23C58",
"i. c #E13D46",
"p. c #CC3868",
"a. c #CD3C73",
"s. c #925245",
"d. c #8D4F42",
"f. c #976A40",
"g. c #9E714F",
"h. c #A27942",
"j. c #986366",
"k. c #DD444A",
"l. c #D6475A",
"z. c #D95658",
"x. c #E04246",
"c. c #D84E67",
"v. c #DD636B",
"b. c #7F8074",
"n. c #BC8435",
"m. c #C18936",
"M. c #BE8645",
"N. c #80817D",
"B. c #CB9945",
"V. c #C69541",
"C. c #D5B359",
"Z. c #D8AC64",
"A. c #DAB165",
"S. c #DCB56A",
"D. c #DFB96E",
"F. c #D6B365",
"G. c #DEB476",
"H. c #DAAE71",
"J. c #E4B66B",
"K. c #E3B96D",
"L. c #E0B165",
"P. c #E3BD72",
"I. c #E2B975",
"U. c #E5C276",
"Y. c #E7C479",
"T. c #E8C679",
"R. c #E8C577",
"E. c #3B3284",
"W. c #43378A",
"Q. c #5B4082",
"!. c #65458B",
"~. c #764D84",
"^. c #7C7C86",
"/. c #7F7EA5",
"(. c #443DEC",
"). c #4B44EE",
"_. c #4A44EA",
"`. c #584BEA",
"'. c #5C54EB",
"]. c #4D47F0",
"[. c #534CF1",
"{. c #5A54F2",
"}. c #624EED",
"|. c #764EEA",
" X c #6658E7",
".X c #7553EA",
"XX c #635DF3",
"oX c #6965EA",
"OX c #7866E8",
"+X c #7B71E7",
"@X c #AF7B82",
"#X c #856BE3",
"$X c #848597",
"%X c #998A9A",
"&X c #9EA08B",
"*X c #B2AE99",
"=X c #8C88A4",
"-X c #B3B3A9",
";X c #AE8599",
":X c #DDBE98",
">X c #DBBEA4",
",X c #DEC19D",
"<X c #DCCCB5",
"1X c #D4CBB2",
"2X c #D3D3BD",
"3X c #D9D3BC",
"4X c #DCC0A5",
"5X c #E1CDB6",
"6X c #E3D2BD",
"7X c #DDDCCD",
"8X c #D9D8C6",
"9X c #DCDBD1",
"0X c #D7D8D2",
"qX c #E1DBCB",
"wX c #E0DAC7",
"eX c #E1DED0",
"rX c None",
/* pixels */
"rXrXrXrXrXrXrXrXrXrXrXrXrXrXrXrXrXe N ] [ { { { , e , rXrXrXrXrXrXrXrXrXrXrXrXrXrXrXrXrXrXrXrXrX",
"rXrXrXrXrXrXrXrXrXrXrXrXrXrXrXrXrXe [ { X.X.X.X.{ ] ) , rXrXrXrXrXrXrXrXrXrXrXrXrXrXrXrXrXrXrXrX",
"rXrXrXrXrXrXrXrXrXrXrXrXrXrXrXrXN q _ X.t.y.y.t.X.{ ] e , rXrXrXrXrXrXrXrXrXrXrXrXrXrXrXrXrXrXrX",
"rXrXrXrXrXrXrXrXrXrXrXrXrXrXrXrXw ) y.y.y.x.y.y.r.r.' ] e rXrXrXrXrXrXrXrXrXrXrXrXrXrXrXrXrXrXrX",
"rXrXrXrXrXrXrXrXrXrXrXrXrXrXrX> q _ -.1X<X<X5Xx.t.r.r.' } 9 rXrXrXrXrXrXrXrXrXrXrXrXrXrXrXrXrXrX",
"rXrXrXrXrXrXrXrXrXrXrXrXrXrXrX8 ) ;.1Xo.<X+.5X5Xy.r.r.%.( } 9 rXrXrXrXrXrXrXrXrXrXrXrXrXrXrXrXrX",
"rXrXrXrXrXrXrXrXrXrXrXrXrXrX; w ) -.1Xo.O.+.6X5Xi.i.r.&.%.( 0 8 rXrXrXrXrXrXrXrXrXrXrXrXrXrXrXrX",
"rXrXrXrXrXrXrXrXrXrXrX  . o O : a _ 3XO.O.+.6X5Xi.r.r.&.%.$.( 0 rXrXrXrXrXrXrXrXrXrXrXrXrXrXrXrX",
"rXrXrXrXrXrXrXrXrXrX-   . @ $ : 5 z x M M 6X5Xk.y.i.r.r.*.$.' ` 9 rXrXrXrXrXrXrXrXrXrXrXrXrXrXrX",
"rXrXrXrXrXrXrXrXrXrXrX  . o # : 5 g m M Z 1.1.k.u.t.r.r.*.*.$.( } 9 rXrXrXrXrXrXrXrXrXrXrXrXrXrX",
"rXrXrXrXrXrXrXrXrXrXrXrXrX& # 5 d c m S Z 1.1.1.+.i.i.i.&.*.%.' } 0 9 8 rXrXrXrXrXrXrXrXrXrXrXrX",
"rXrXrXrXrXrXrXrXrXrXrXrXrX3 7 p B Z.A.S.S.1.3.2. . .@.t.r.&.*.%.( ` ` 9 < rXrXrXrXrXrXrXrXrXrXrX",
"rXrXrXrXrXrXrXrXrXrXrXrXrXd f f >.B.S.D.K.K.I.I.4.2.,. .@.=.&.*.' %.$.` 8 8 rXrXrXrXrXrXrXrXrXrX",
"rXrXrXrXrXrXrXrXrXrXrXrXf 7 f V Z A D.D.R.s.4.U.I.J.w.6.,. .=.=.*.%.;.$.` 8 rXrXrXrXrXrXrXrXrXrX",
"rXrXrXrXrXrXrXrXrXrXrXrX4 B <.<.A 3.P.U.P.f.f.P.P.P.J.J.w.,. .@.=.=.;.;.` 8 rXrXrXrXrXrXrXrXrXrX",
"rXrXrXrXrXrXrXrXrXrXrX4 B V.S.D.n.7.Y.Y.P.h.h.T.T.P.P.P.J.J.:.,.,.#.-.-._ q rXrXrXrXrXrXrXrXrXrX",
"rXrXrXrXrXrXrXrXrXrX& B m.F.D.U.T.T.T.T.U.n.8.Y.Y.Y.U.U.U.S.0.0.,.5.#.#.[ i rXrXrXrXrXrXrXrXrXrX",
"rXrXrXrXrXrXrXrXrXrX& B S.S.D.U.T.T.:XT.,XB.V.Y.Y.Y.Y.Y.n.q.q.0.J.L.J.L.>.6 rXrXrXrXrXrXrXrXrXrX",
"rXrXrXrXrXrXrXrXrXrX4 B F.D.D.U.R.T.T.T.Y.Y.Y.Y.Y.Y.,XY.n.n.q.K.K.J.J.A.Z.u 2 rXrXrXrXrXrXrXrXrX",
"rXrXrXrXrXrXrXrXrXrX& B m.S.D.U.U.R.T.T.U.U.Y.f.n.Y.D.Y.T.n.m.U.U.m.n.L.Z.B 3 rXrXrXrXrXrXrXrXrX",
"rXrXrXrXrXrXrXrXrXrXrX7 B B.D.D.D.U.U.U.D.U.f.f.f.8.Y.T.T.T.T.R.U.m.C.A.Z.t 3 rXrXrXrXrXrXrXrXrX",
"rXrXrXrXrXrXrXrXrXrXrXrXd B B.S.F.D.D.D.A A A f.7.8.Y.Y.T.T.R.U.U.K.L.F.B 4 & rXrXrXrXrXrXrXrXrX",
"rXrXrXrXrXrXrXrXrXrXrXrXrX7 f V V V A S A A A d.n.Y.Y.Y.U.U.U.P.U.S.S.B 7 3 rXrXrXrXrXrXrXrXrXrX",
"rXrXrXrXrXrXrXrXrXrXrXrXrXrX3 p f f V V V Z A A G.U.P.U.U.U.D.D.<.<.B 7 3 rXrXrXrXrXrXrXrXrXrXrX",
"rXrXrXrXrXrXrXrXrXrXrXrXrXrXrX3 p d z c x C H.H.G.G.I.I.I.P.4.<.x f 7 rXrXrXrXrXrXrXrXrXrXrXrXrX",
"rXrXrXrXrXrXrXrXrXrXrXrXrXrXrXrXa 5 N 0.Z.H.H.H.G.G.I.M.4.4.S V Z S rXrXrXrXrXrXrXrXrXrXrXrXrXrX",
"rXrXrXrXrXrXrXrXrXrXrXrXrXrXrXrXa a a b M Z d.d.s.s.s.4.C m M v b rXrXrXrXrXrXrXrXrXrXrXrXrXrXrX",
"rXrXrXrXrXrXrXrXrXrXrXrXrXrXrXrX* = P Y | e.l.l.! .X.X! e...M v rXrXrXrXrXrXrXrXrXrXrXrXrXrXrXrX",
"rXrXrXrXrXrXrXrXrXrXrXrXrXrXrXrXh P Y e.p.p.p.! |.|.|.! u.| [ n rXrXrXrXrXrXrXrXrXrXrXrXrXrXrXrX",
"rXrXrXrXrXrXrXrXrXrXrXrXrXrXrXrXP Y e.p.p.a.!.|.|.|.~.c.l.u.| [ M rXrXrXrXrXrXrXrXrXrXrXrXrXrXrX",
"rXrXrXrXrXrXrXrXrXrXrXrXrXrXrXP P Y R W.!.!..X.X|.|.~.c.l.l.u.| b rXrXrXrXrXrXrXrXrXrXrXrXrXrXrX",
"rXrXrXrXrXrXrXrXrXrXrXrXrXrXs m C.`.`.|.}..X X.X.X.X~.c.c.z.z. . .S rXrXrXrXrXrXrXrXrXrXrXrXrXrX",
"rXrXrXrXrXrXrXrXrXrXrXrXrX7 c C.F.'.}.}. X:X:Xj.#XOX#Xj.v.v.v.z.6.j.j rXrXrXrXrXrXrXrXrXrXrXrXrX",
"rXrXrXrXrXrXrXrXrXrXrXrXrXg n C.F.'.}. X:X:X,X,X#X#X;XeXwXwXqXwX8X2X^ j rXrXrXrXrXrXrXrXrXrXrXrX",
"rXrXrXrXrXrXrXrXrXrXrXrXrXs l C.g.'.{. X:X:X,X4X#X%X%XeXeXwXeXwX8X3X^ l rXrXrXrXrXrXrXrXrXrXrXrX",
"rXrXrXrXrXrXrXrXrXrXrXrXrXrXK T _._.[.{. X:X>X;X+X=X0XeXeXeXqXwX*X8X2XE j rXrXrXrXrXrXrXrXrXrXrX",
"rXrXrXrXrXrXrXrXrXrXrXrXrXrXG J (._.].[.{.XXXXoXoX=X0X0X9X9X-XwX*X8X2XE = rXrXrXrXrXrXrXrXrXrXrX",
"rXrXrXrXrXrXrXrXrXrXrXrXrXrXrXJ E.(.).].[.{.}.XXoX=X0X0X9X9X-X7XwX2X2XE = rXrXrXrXrXrXrXrXrXrXrX",
"rXrXrXrXrXrXrXrXrXrXrXrXrXrXrXG H (.(.).).[.{.{.XX/.=X-X9X7X7X8X8X2X^ E = rXrXrXrXrXrXrXrXrXrXrX",
"rXrXrXrXrXrXrXrXrXrXrXrXrXrXrXF H H (.(.).].}.}.XXoX$X$X0X8X8X8X&Xb.E = rXrXrXrXrXrXrXrXrXrXrXrX",
"rXrXrXrXrXrXrXrXrXrXrXrXrXrXrXD D Y H E.(.(.(.(.[.'. X^.^.b.N.^ ^ ~ L rXrXrXrXrXrXrXrXrXrXrXrXrX",
"rXrXrXrXrXrXrXrXrXrXrXrXrXrXrX* * D H H W.W.W.(.`.`.{. X X X/ ~ L j rXrXrXrXrXrXrXrXrXrXrXrXrXrX",
"rXrXrXrXrXrXrXrXrXrXrXrXrXrXrX@ * * n I Y T T W.W.W W W Q Q Q j L L rXrXrXrXrXrXrXrXrXrXrXrXrXrX",
"rXrXrXrXrXrXrXrXrXrXrXrXrXrX% @ @ 6 w N n h U U U U U L k k j = = rXrXrXrXrXrXrXrXrXrXrXrXrXrXrX",
"rXrXrXrXrXrXrXrXrXrXrXrXrXrX% @ 1 1 6 s h N x M.V.x v x j c r & & rXrXrXrXrXrXrXrXrXrXrXrXrXrXrX",
"rXrXrXrXrXrXrXrXrXrXrXrXrXrX  @ 1 1 1 w : r y M.M.b b N & r 6 $ @ rXrXrXrXrXrXrXrXrXrXrXrXrXrXrX",
"rXrXrXrXrXrXrXrXrXrXrXrXrXrX  . O O # # : i i t t u i r & w 6 O @ rXrXrXrXrXrXrXrXrXrXrXrXrXrXrX",
"rXrXrXrXrXrXrXrXrXrXrXrXrXrX  . o 1 1 8 ; : i t t t t i :.:.n.+ o rXrXrXrXrXrXrXrXrXrXrXrXrXrXrX",
"rXrXrXrXrXrXrXrXrXrXrXrXrXrXrX. o O + ; ; :.m.w.m.m.n.:.:.+ + + rXrXrXrXrXrXrXrXrXrXrXrXrXrXrXrX",
"rXrXrXrXrXrXrXrXrXrXrXrXrXrXrXrX. O + + ; ; 2 2 2 6 1 2 2 ; + + rXrXrXrXrXrXrXrXrXrXrXrXrXrXrXrX",
"rXrXrXrXrXrXrXrXrXrXrXrXrXrXrXrXX X X o O ; 2 2 1 2 2 ; # + + rXrXrXrXrXrXrXrXrXrXrXrXrXrXrXrXrX"
};
