/* XPM */
static char *result[] = {
/* columns rows colors chars-per-pixel */
"48 48 213 2 ",
"   c #2E1C19",
".  c #261716",
"X  c #321F1A",
"o  c #35211C",
"O  c #3A221D",
"+  c #352221",
"@  c #3A2523",
"#  c #3C2923",
"$  c #392A2C",
"%  c #3A2A36",
"&  c #1D1313",
"*  c #6C2B1A",
"=  c #752C1C",
"-  c #7B2D1E",
";  c #65341C",
":  c #6B391D",
">  c #6A361F",
",  c #72321F",
"<  c #422C23",
"1  c #4C2E2B",
"2  c #452A27",
"3  c #4D352A",
"4  c #493327",
"5  c #56392C",
"6  c #473939",
"7  c #5B3C32",
"8  c #573A30",
"9  c #4C2E33",
"0  c #653422",
"q  c #693423",
"w  c #6C3923",
"e  c #6C3B2B",
"r  c #67372C",
"t  c #753927",
"y  c #6B3B34",
"u  c #663B36",
"i  c #723D35",
"p  c #5A4435",
"a  c #6D412F",
"s  c #7D4E2B",
"d  c #774728",
"f  c #6C4A3A",
"g  c #674637",
"h  c #724333",
"j  c #72423C",
"k  c #744C3A",
"l  c #7C4737",
"z  c #6F523A",
"x  c #78563D",
"c  c #7E502C",
"v  c #7F623F",
"b  c #3A385B",
"n  c #392A49",
"m  c #3B3A65",
"M  c #3C3E70",
"N  c #483846",
"B  c #523E52",
"V  c #493E53",
"C  c #693C47",
"Z  c #453E6C",
"A  c #3F4172",
"S  c #574756",
"D  c #4D444C",
"F  c #764845",
"G  c #7B5942",
"H  c #774854",
"J  c #77535E",
"K  c #6B524F",
"L  c #554965",
"P  c #494472",
"I  c #594C75",
"U  c #49496C",
"Y  c #76576B",
"T  c #705773",
"R  c #787366",
"E  c #656163",
"W  c #8B1615",
"Q  c #9A1518",
"!  c #A31C1B",
"~  c #89271C",
"^  c #A11E21",
"/  c #822E21",
"(  c #942827",
")  c #883628",
"_  c #95392B",
"`  c #942E34",
"'  c #983A36",
"]  c #8B3037",
"[  c #A62628",
"{  c #A6352B",
"}  c #B1332D",
"|  c #B13D34",
" . c #A83A35",
".. c #C82C3C",
"X. c #CA323E",
"o. c #80512D",
"O. c #8A463A",
"+. c #984C3C",
"@. c #885837",
"#. c #91573C",
"$. c #87482A",
"%. c #AB5038",
"&. c #966439",
"*. c #84653F",
"=. c #AA643A",
"-. c #A7733B",
";. c #B37C36",
":. c #CE2E41",
">. c #CD3543",
",. c #C93C44",
"<. c #D23345",
"1. c #D43C4B",
"2. c #D13847",
"3. c #D02F42",
"4. c #874E42",
"5. c #8A5342",
"6. c #835944",
"7. c #945B4A",
"8. c #965D50",
"9. c #896744",
"0. c #9C6742",
"q. c #957443",
"w. c #9B7A46",
"e. c #997744",
"r. c #82755E",
"t. c #B37C41",
"y. c #AE5B63",
"u. c #827E65",
"i. c #8E6878",
"p. c #CD464B",
"a. c #D5434A",
"s. c #D8464B",
"d. c #DA4E49",
"f. c #D54948",
"g. c #D8544A",
"h. c #C84A57",
"j. c #CD5259",
"k. c #D0585B",
"l. c #D2655E",
"z. c #CC5463",
"x. c #D25E65",
"c. c #D4676C",
"v. c #D56C75",
"b. c #B78235",
"n. c #B58445",
"m. c #87856C",
"M. c #888879",
"N. c #C49645",
"B. c #D3B357",
"V. c #D1B14D",
"C. c #D4AC63",
"Z. c #D7AD68",
"A. c #DAB46C",
"S. c #DBB66C",
"D. c #D8AE72",
"F. c #DCB573",
"G. c #DEBB72",
"H. c #DBB378",
"J. c #E1B46D",
"K. c #E1B770",
"L. c #E2BD74",
"P. c #E2BF78",
"I. c #E3C177",
"U. c #E4C278",
"Y. c #4A4FDC",
"T. c #4C53DF",
"R. c #5859DE",
"E. c #645DDC",
"W. c #655ED7",
"Q. c #7B5FD9",
"!. c #605ACF",
"~. c #5D65DA",
"^. c #6868D8",
"/. c #7661DD",
"(. c #7A62DC",
"). c #746AD7",
"_. c #7B78DC",
"`. c #6B74DD",
"'. c #4F55E2",
"]. c #575BE3",
"[. c #5C62E6",
"{. c #6263E3",
"}. c #656BE7",
"|. c #7479E0",
" X c #756DE0",
".X c #8E738D",
"XX c #857AD7",
"oX c #806FDF",
"OX c #7E8387",
"+X c #858A97",
"@X c #998F96",
"#X c #9A949C",
"$X c #888C90",
"%X c #B1AF98",
"&X c #9091A2",
"*X c #B6B7AA",
"=X c #D9BD89",
"-X c #D7BE93",
";X c #DBC18E",
":X c #DAC295",
">X c #D1C7AF",
",X c #DCCAB3",
"<X c #D1CFB8",
"1X c #D3D3BC",
"2X c #DAD4BF",
"3X c #CFD0B9",
"4X c #8282DB",
"5X c #D6D6C3",
"6X c #DCD9C5",
"7X c #DCDACC",
"8X c #D9D6C8",
"9X c #E0DCCC",
"0X c None",
/* pixels */
"0X0X0X0X0X0X0X0X0X0X0X0X0X0X0X0X0X0X0X0X0X0X0X_ ' O.) $.0X0X0X0X0X0X0X0X0X0X0X0X0X0X0X0X0X0X0X0X",
"0X0X0X0X0X0X0X0X0X0X0X0X0X0X0X0X0X0X0X0X0X) _ [ [ [ [ _ ) t 0X0X0X0X0X0X0X0X0X0X0X0X0X0X0X0X0X0X",
"0X0X0X0X0X0X0X0X0X0X0X0X0X0X0X0X0X0X0Xt ] ^ [ a.a.a.a.[ ^ t 0X0X0X0X0X0X0X0X0X0X0X0X0X0X0X0X0X0X",
"0X0X0X0X0X0X0X0X0X0X0X0X0X0X0X0X0X0X/ ) ^ 1.1.s.d.d.p.p.,.( t 0X0X0X0X0X0X0X0X0X0X0X0X0X0X0X0X0X",
"0X0X0X0X0X0X0X0X0X0X0X0X0X0X0X0X0X- ) ^ <.1.s.d.,X,X<X>X,.( q 0X0X0X0X0X0X0X0X0X0X0X0X0X0X0X0X0X",
"0X0X0X0X0X0X0X0X0X0X0X0X0X0X0X0X= / Q 3.<.1.s.,X,X| ,X{ >X,.W q 0X0X0X0X0X0X0X0X0X0X0X0X0X0X0X0X",
"0X0X0X0X0X0X0X0X0X0X0X0X0X0X0X= - Q ..<.1.1.d.,X,X|  .{ >X,.W 0 0X0X0X0X0X0X0X0X0X0X0X0X0X0X0X0X",
"0X0X0X0X0X0X0X0X0X0X0X0X0X0X0X- Q ..3.<.1.1.d.,X,X|  ._ >X( 1 2 +   . . 0X0X0X0X0X0X0X0X0X0X0X0X",
"0X0X0X0X0X0X0X0X0X0X0X0X0X0X- / Q 3.<.<.1.s.d.g.,X<Xk j g 7 9 2 o   . & & 0X0X0X0X0X0X0X0X0X0X0X",
"0X0X0X0X0X0X0X0X0X0X0X0X0X0X/ Q ..3.<.1.1.a.d.g.4.4.F F u 7 1 2 @ o   . 0X0X0X0X0X0X0X0X0X0X0X0X",
"0X0X0X0X0X0X0X0X0X0X0X* = ~ ~ ! 3.<.2.1.s.d.| #.4.F x k g p 3 1 # 0X0X0X0X0X0X0X0X0X0X0X0X0X0X0X",
"0X0X0X0X0X0X0X0X0X0X* = W Q ! X.<.<.a.a.} O.5.5.6.G A.A.Z.Z.s 3 0X0X0X0X0X0X0X0X0X0X0X0X0X0X0X0X",
"0X0X0X0X0X0X0X0X0X* = W ....! X.2.2.} +.O.5.7.K.G.S.S.S.A.N.@.p 0X0X0X0X0X0X0X0X0X0X0X0X0X0X0X0X",
"0X0X0X0X0X0X0X0X0X* W ....X.X.2.a.O.O.+.=.K.J.J.9.9.G.G.S.x z g p 3 0X0X0X0X0X0X0X0X0X0X0X0X0X0X",
"0X0X0X0X0X0X0X0X0X, W X.X.,.f.} O.+.=.J.K.L.L.L.q.q.G.I.G.v v &.@.c 3 # 0X0X0X0X0X0X0X0X0X0X0X0X",
"0X0X0X0X0X0X0X0X0Xt ~ X.,.{ $.O.=.J.J.J.L.L.L.I.e.e.I.I.I.q.-.S.S.N.c 4 0X0X0X0X0X0X0X0X0X0X0X0X",
"0X0X0X0X0X0X0X0X0Xt $.[ { $.O.=.=.K.L.L.L.U.I.U.e.w.U.U.U.U.I.G.S.S.N.d # 0X0X0X0X0X0X0X0X0X0X0X",
"0X0X0X0X0X0X0X0X0X; $.C.Z.J.J.;.;.-.t.L.U.U.U.U.n.n.U.U.U.U.I.I.G.S.B.d < 0X0X0X0X0X0X0X0X0X0X0X",
"0X0X0X0X0X0X0X0X< d C.Z.J.J.K.I.t.t.n.U.U.U.U.U.U.U.P.I.I.I.I.G.G.B.C.d < 0X0X0X0X0X0X0X0X0X0X0X",
"0X0X0X0X0X0X0X0X4 d Z.B.&.-.K.L.t.N.U.U.U.U.e.q.P.P.P.P.I.I.I.G.G.S.n.d < 0X0X0X0X0X0X0X0X0X0X0X",
"0X0X0X0X0X0X0X0X< d C.C.A.-.G.I.P.U.U.U.U.w.e.q.*.G.G.G.G.G.G.S.S.N.s 4 0X0X0X0X0X0X0X0X0X0X0X0X",
"0X0X0X0X0X0X0X0XO 4 s C.Z.S.G.L.P.U.U.I.I.e.9.9.9.v v S.S.S.S.N.@.c 4 0X0X0X0X0X0X0X0X0X0X0X0X0X",
"0X0X0X0X0X0X0X0X0X< 3 o.B.A.S.K.L.P.P.I.I.L.w.6.G G z z z g z p 8 4 0X0X0X0X0X0X0X0X0X0X0X0X0X0X",
"0X0X0X0X0X0X0X0X0X0X4 3 c @.&.S.K.L.K.P.L.L.K.6.G z z g p p p 4 4 0X0X0X0X0X0X0X0X0X0X0X0X0X0X0X",
"0X0X0X0X0X0X0X0X0X0X0X0X3 p g @.&.A.K.K.H.F.F.D.D.f u 7 8 3 4 < 0X0X0X0X0X0X0X0X0X0X0X0X0X0X0X0X",
"0X0X0X0X0X0X0X0X0X0X0X0X0X0X0Xg f 7.0.0.H.H.H.D.D.Z.Z.d h 1 0X0X0X0X0X0X0X0X0X0X0X0X0X0X0X0X0X0X",
"0X0X0X0X0X0X0X0X0X0X0X0X0X0X0X0X0XF F 7.8.8.7.7.5.4.F l i 0X0X0X0X0X0X0X0X0X0X0X0X0X0X0X0X0X0X0X",
"0X0X0X0X0X0X0X0X0X0X0X0X0X0X0X0X0XO.' H Q.oXY z.j.' ` S N 0X0X0X0X0X0X0X0X0X0X0X0X0X0X0X0X0X0X0X",
"0X0X0X0X0X0X0X0X0X0X0X0X0X0X0X0Xi ` f.Y Q.(.Q.Y z.h.h.] B N 0X0X0X0X0X0X0X0X0X0X0X0X0X0X0X0X0X0X",
"0X0X0X0X0X0X0X0X0X0X0X0X0X0X0X) ` p.j.j.Y (.(./.T z.h.h.] B V 0X0X0X0X0X0X0X0X0X0X0X0X0X0X0X0X0X",
"0X0X0X0X0X0X0X0X0X0X0X0X0X0Xi ` f.j.k.z.T (././.E.T T L L S B N 0X0X0X0X0X0X0X0X0X0X0X0X0X0X0X0X",
"0X0X0X0X0X0X0X0X0X0X0X0X0XO.' +.k.x.x.x.i.(. X(.).).Q.E.W.R.V.h r 0X0X0X0X0X0X0X0X0X0X0X0X0X0X0X",
"0X0X0X0X0X0X0X0X0X0X0X0Xp u.5.k.v.v.v.y.4X X_.i.=X=X).^.E.W.B.V.i r @ +   0X0X0X0X0X0X0X0X0X0X0X",
"0X0X0X0X0X0X0X0X0X0X0X6 R 3X2X6X5X7X5X5X@X4XXX;X=X=X=X^.E.E.B.S 9 2 # o o . 0X0X0X0X0X0X0X0X0X0X",
"0X0X0X0X0X0X0X0X0X0X6 p u.2X2X6X7X7X7X7X#X@X4X:X;X-X=X^.{.E.L C j e r ; o     0X0X0X0X0X0X0X0X0X",
"0X0X0X0X0X0X0X0X0X0X6 R <X2X%X6X7X7X7X7X7X#X4X.X:X-X).{.{.I 4.4.j e w q ; X   0X0X0X0X0X0X0X0X0X",
"0X0X0X0X0X0X0X0X0X$ % R <X5X%X9X*X7X7X7X7X&X|.|.`.}.{.{.].I H C j i w : b.o   0X0X0X0X0X0X0X0X0X",
"0X0X0X0X0X0X0X0X0X% p R 1X1X6X6X*X7X7X7X7X&X|.}.}.}.{.E.R.I H O.l t t b.: o X 0X0X0X0X0X0X0X0X0X",
"0X0X0X0X0X0X0X0X0X$ p R m.1X5X6X7X7X7X*XOXOX`.}.[.[.].].R.I C C i d w : ; o   0X0X0X0X0X0X0X0X0X",
"0X0X0X0X0X0X0X0X0X$ 3 x R m.%X5X7X7X7X&XOX|.}.[.].].].'.Z B B i e t w > O o 0X0X0X0X0X0X0X0X0X0X",
"0X0X0X0X0X0X0X0X# $ a z p u.m.m.m.M.OXOX`.~.[.'.'.Y.Y.Y.Z C i 9 1 1 b.: O X 0X0X0X0X0X0X0X0X0X0X",
"0X0X0X0X0X0X0X0X  # w a k G 6.E E `.^.~.~.T.T.T.Y.Y.Z Z C C y i w : : O o   0X0X0X0X0X0X0X0X0X0X",
"0X0X0X0X0X0X0X0X  + p a h k F G L L U U A U A A M M m n C y y q w : ; O X 0X0X0X0X0X0X0X0X0X0X0X",
"0X0X0X0X0X0X0X0X  X ; : e a h j N N D V b b b b b b b % % r r q : ;.; X X 0X0X0X0X0X0X0X0X0X0X0X",
"0X0X0X0X0X0X0X0X0XX o 0 w w e y % % 0X0X0X0X0X0X0X0X0X0X$ + 0 q ; ; o X   0X0X0X0X0X0X0X0X0X0X0X",
"0X0X0X0X0X0X0X0X0X  o O ; 0 0 # $ $ 0X0X0X0X0X0X0X0X0X0X0X+ + + O O X   0X0X0X0X0X0X0X0X0X0X0X0X",
"0X0X0X0X0X0X0X0X0X0XX o O + @ + + 0X0X0X0X0X0X0X0X0X0X0X0X0XX X X X X 0X0X0X0X0X0X0X0X0X0X0X0X0X",
"0X0X0X0X0X0X0X0X0X0X0XX o + o + 0X0X0X0X0X0X0X0X0X0X0X0X0X0X0X0X0X0X0X0X0X0X0X0X0X0X0X0X0X0X0X0X"
};
