/* XPM */
static char *result[] = {
/* columns rows colors chars-per-pixel */
"48 50 219 2 ",
"   c #290C0B",
".  c #380D0E",
"X  c #2C110D",
"o  c #3A1B0C",
"O  c #36170E",
"+  c #3B1C10",
"@  c #341716",
"#  c #2D1315",
"$  c #3C2316",
"%  c #321C2B",
"&  c #34252A",
"*  c #392638",
"=  c #3F322D",
"-  c #461C0E",
";  c #4C0F11",
":  c #441E11",
">  c #461412",
",  c #571312",
"<  c #7B0F0F",
"1  c #750F0E",
"2  c #6D0D10",
"3  c #442313",
"4  c #4B2312",
"5  c #472818",
"6  c #5A2916",
"7  c #54331E",
"8  c #6B2309",
"9  c #752408",
"0  c #693618",
"q  c #733314",
"w  c #5F2B22",
"e  c #41322D",
"r  c #593522",
"t  c #4E3D35",
"y  c #48292D",
"u  c #693626",
"i  c #7A440B",
"p  c #74420C",
"a  c #734313",
"s  c #7A4E15",
"d  c #75421B",
"f  c #764915",
"g  c #724914",
"h  c #55483A",
"j  c #694927",
"k  c #764423",
"l  c #754329",
"z  c #784B25",
"x  c #79542A",
"c  c #6B423A",
"v  c #744537",
"b  c #7E553A",
"n  c #6E5026",
"m  c #362745",
"M  c #3F2A52",
"N  c #3E397B",
"B  c #472B48",
"V  c #4F3652",
"C  c #513C77",
"Z  c #603A4F",
"A  c #574752",
"S  c #6F464E",
"D  c #764948",
"F  c #734755",
"G  c #694754",
"H  c #57556A",
"J  c #685166",
"K  c #5E6561",
"L  c #767C68",
"P  c #6B6B6C",
"I  c #930F0B",
"U  c #9A110C",
"Y  c #95110C",
"T  c #88110E",
"R  c #A51D0C",
"E  c #AC1E0E",
"W  c #B51F11",
"Q  c #9C230D",
"!  c #843209",
"~  c #8B330A",
"^  c #98350C",
"/  c #81341D",
"(  c #B4200F",
")  c #B83817",
"_  c #A82710",
"`  c #893D21",
"'  c #97322F",
"]  c #A63628",
"[  c #AA3D34",
"{  c #C72218",
"}  c #C33C18",
"|  c #D1251D",
" . c #DC2E2E",
".. c #D9312E",
"X. c #DE2E31",
"o. c #DD3432",
"O. c #DD3B34",
"+. c #E12F32",
"@. c #E43235",
"#. c #E53B36",
"$. c #E63439",
"%. c #E9343B",
"&. c #E93B3C",
"*. c #E43B3A",
"=. c #854B0E",
"-. c #88531B",
";. c #93511B",
":. c #98631B",
">. c #A2671E",
",. c #B7761F",
"<. c #AC701E",
"1. c #984728",
"2. c #855D28",
"3. c #975526",
"4. c #925030",
"5. c #A45536",
"6. c #A9522D",
"7. c #83623E",
"8. c #A76A24",
"9. c #A7732F",
"0. c #BD7B23",
"q. c #B97626",
"w. c #A97730",
"e. c #B7712E",
"r. c #C6411E",
"t. c #C64724",
"y. c #E44436",
"u. c #E5443C",
"i. c #E6473D",
"p. c #C37C23",
"a. c #CA7B24",
"s. c #C87826",
"d. c #C27E37",
"f. c #D07D2E",
"g. c #8A3149",
"h. c #8C5948",
"j. c #AA564A",
"k. c #AE4D43",
"l. c #BF7C43",
"z. c #DB4A57",
"x. c #DB484E",
"c. c #C17E42",
"v. c #DA4866",
"b. c #DE5668",
"n. c #D74777",
"m. c #DE5978",
"M. c #E06B79",
"N. c #DD6A6B",
"B. c #7F836E",
"V. c #BE8B3B",
"C. c #CC842B",
"Z. c #C68329",
"A. c #C48439",
"S. c #C18D3C",
"D. c #C78A33",
"F. c #D08734",
"G. c #CC9339",
"H. c #D09237",
"J. c #888876",
"K. c #80826D",
"L. c #D9AB66",
"P. c #DAB26D",
"I. c #D7B06A",
"U. c #DDB571",
"Y. c #DEB974",
"T. c #E3BB76",
"R. c #E5BE7A",
"E. c #E4B875",
"W. c #E6C17B",
"Q. c #E7C077",
"!. c #3F3887",
"~. c #453986",
"^. c #453E93",
"/. c #48418F",
"(. c #573EED",
"). c #493FF2",
"_. c #533EF2",
"`. c #483EEE",
"'. c #7D79C3",
"]. c #4B43ED",
"[. c #5749EC",
"{. c #4542F5",
"}. c #4B44F3",
"|. c #4B47F7",
" X c #5448F5",
".X c #5A53F6",
"XX c #5D50E9",
"oX c #6A48EC",
"OX c #7749EC",
"+X c #7D51EB",
"@X c #6546F2",
"#X c #665BF5",
"$X c #6C56EE",
"%X c #6E67EE",
"&X c #CC399D",
"*X c #8C7AB0",
"=X c #927299",
"-X c #D84B85",
";X c #DE648A",
":X c #877AC1",
">X c #8551E7",
",X c #814FEA",
"<X c #8B8B8E",
"1X c #B4B0AD",
"2X c #9F8AA7",
"3X c #A8A0CC",
"4X c #C8C6CA",
"5X c #D5D3CB",
"6X c #DCD5CF",
"7X c #DAD6D4",
"8X c #DCD9D4",
"9X c #DAD5DC",
"0X c #DCD8DC",
"qX c #C3C2D2",
"wX c #E2D7D8",
"eX c #D5D2E4",
"rX c #DBD6E2",
"tX c #DCD8E2",
"yX c None",
/* pixels */
"yXyXyXyXyXyXyXyXyXyXyXyXyXyXyXyXyXyXyX1 1 < ^ ^ ^ ^ ^ ~ < 1 yXyXyXyXyXyXyXyXyXyXyXyXyXyXyXyXyXyX",
"yXyXyXyXyXyXyXyXyXyXyXyXyXyXyXyXyXyXyX< ~ ^ E ( W W ( R ~ < yXyXyXyXyXyXyXyXyXyXyXyXyXyXyXyXyXyX",
"yXyXyXyXyXyXyXyXyXyXyXyXyXyXyXyXyXyX< ~ R E W +.+.+.+.( R ~ 1 yXyXyXyXyXyXyXyXyXyXyXyXyXyXyXyXyX",
"yXyXyXyXyXyXyXyXyXyXyXyXyXyXyXyXyXyX! U E +.+.+.@.@.+. .E U 9 yXyXyXyXyXyXyXyXyXyXyXyXyXyXyXyXyX",
"yXyXyXyXyXyXyXyXyXyXyXyXyXyXyXyXyX9 U R  .+.@.%.@.@.@.X.X.R ! 2 yXyXyXyXyXyXyXyXyXyXyXyXyXyXyXyX",
"yXyXyXyXyXyXyXyXyXyXyXyXyXyXyXyXyX! R  .+.+.+.%.%.%.$.@.X. .U 9 , yXyXyXyXyXyXyXyXyXyXyXyXyXyXyX",
"yXyXyXyXyXyXyXyXyXyXyXyXyXyXyXyX9 U E +.@.@.%.%.%.%.$.@.X.X.R I ; .     yXyXyXyXyXyXyXyXyXyXyXyX",
"yXyXyXyXyXyXyXyXyXyXyXyXyXyXyX9 Y R  .+.@.%.%.%.%.%.$.$.@.X.R I ; >       yXyXyXyXyXyXyXyXyXyXyX",
"yXyXyXyXyXyXyXyXyXyXyXyXyXyXyXq E  .+.+.%.%.%.%.%.%.%.%.o.X.X.T ; > .     yXyXyXyXyXyXyXyXyXyXyX",
"yXyXyXyXyXyXyXyXyXyXyXyXyXyXT ~ E +.+.+.%.%.%.%.%.%.%.%.$.o.X.Q 8 > . X yXyXyXyXyXyXyXyXyXyXyXyX",
"yXyXyXyXyXyXyXyXyXyXyXyXyX9 ~ ^ (  .+.%.%.%.%.%.%.%.%.%.%.o.o.w , , - o yXyXyXyXyXyXyXyXyXyXyXyX",
"yXyXyXyXyXyXyXyXyXyXyXyX9 I R ( W { { | %.%.%.%.%.%.&.%.$.o./ q w 4 : 3 yXyXyXyXyXyXyXyXyXyXyXyX",
"yXyXyXyXyXyXyXyXyXyXyX8 Y R  . .+.@.@.%.| | %.&.&.&.&.y.*.` u q 0 6 5 3 yXyXyXyXyXyXyXyXyXyXyXyX",
"yXyXyXyXyXyXyXyXyXyX8 T Q .. .o.+.@.%.@.%.&.&.&.&.u.u.y.1.1.f.3.-.-.s s 5 yXyXyXyXyXyXyXyXyXyXyX",
"yXyXyXyXyXyXyXyXyXyX9 Q ..o.O.+.@.%.%.%.&.&.&.u.u.u.i.6.1.d.d.0.:.I.I.s g $ yXyXyXyXyXyXyXyXyXyX",
"yXyXyXyXyXyXyXyXyXyXq _ ..O.#.#.#.#.#.%.&.&.u.u.i.t.6.6.e.8.A.S.Y.Y.P.I.s 5 yXyXyXyXyXyXyXyXyXyX",
"yXyXyXyXyXyXyXyXyXyX8 _ ..O.O.#.#.#.y.#.&.y.i.} t.t.F.E.E.R.s.A.Q.Y.U.I.s $ yXyXyXyXyXyXyXyXyXyX",
"yXyXyXyXyXyXyXyXyX4 q L._ ) y.#.y.y.y.y.} } r.C.F.F.E.R.R.R.R.e.V.Q.U.I.s 5 yXyXyXyXyXyXyXyXyXyX",
"yXyXyXyXyXyXyXyXyX4 i L.L.p.) ) } } r.} a.a.C.F.F.F.R.Q.W.W.W.w.V.x P.I.s $ yXyXyXyXyXyXyXyXyXyX",
"yXyXyXyXyXyXyXyXyX: i L.L.,.s.s.a.a.a.a.a.a.C.C.H.H.Q.Q.W.W.W.w.V.x n I.g $ yXyXyXyXyXyXyXyXyXyX",
"yXyXyXyXyXyXyXyXyX+ p =.L.p.p.s.a.a.p.a.Z.Z.Z.C.H.G.W.W.W.W.W.9.Y.n j g a $ yXyXyXyXyXyXyXyXyXyX",
"yXyXyXyXyXyXyXyXyXyX3 i =.=.,.,.p.p.p.p.p.Z.Z.Z.D.G.G.W.W.W.9.Y.U.j 7 g $ yXyXyXyXyXyXyXyXyXyXyX",
"yXyXyXyXyXyXyXyXyXyXyX4 i ;.,.,.,.p.p.p.Z.Z.Z.D.D.G.G.G.w.9.Y.Y.n r 5 $ yXyXyXyXyXyXyXyXyXyXyXyX",
"yXyXyXyXyXyXyXyXyXyXyX6 4 =.=.,.,.p.p.p.p.Z.Z.D.D.D.T.T.T.Y.U.2.s 7 yXyXyXyXyXyXyXyXyXyXyXyXyXyX",
"yXyXyXyXyXyXyXyXyXyXyXyX4 i <.q.q.q.V.e.e.d.d.A.A.A.D.E.E.U.-.-.r r yXyXyXyXyXyXyXyXyXyXyXyXyXyX",
"yXyXyXyXyXyXyXyXyXyXyXyX3 a 8.8.w.e.6.5.5.l.l.l.e.A.d.E.3.;.-.7 r yXyXyXyXyXyXyXyXyXyXyXyXyXyXyX",
"yXyXyXyXyXyXyXyXyXyXyXyX+ 0 d =.-.4.4.z.z.h.k.j.j.5.3.3.3.u r w yXyXyXyXyXyXyXyXyXyXyXyXyXyXyXyX",
"yXyXyXyXyXyXyXyXyXyXyXyXyX: d ' ' J v.v.v.>X,X>X>Xz.z.[ ] S w w yXyXyXyXyXyXyXyXyXyXyXyXyXyXyXyX",
"yXyXyXyXyXyXyXyXyXyXyXyXyXy u ' C oXv.n.-XOXOX,Xv.v.z.x.] ] Z B yXyXyXyXyXyXyXyXyXyXyXyXyXyXyXyX",
"yXyXyXyXyXyXyXyXyXyXyXyXB V u g.~.oXoX&XoX@XOXOXn.v.v.z.[ ] G Z yXyXyXyXyXyXyXyXyXyXyXyXyXyXyXyX",
"yXyXyXyXyXyXyXyXyXyXyXyXV u g.~.~.(.(.&X@X@XOX,X-Xn.b.b.z.[ ] A V yXyXyXyXyXyXyXyXyXyXyXyXyXyXyX",
"yXyXyXyXyXyXyXyXyXyXyXyXB P g.~._._.(.(. X@X@X>X=X-Xm.b.b.k.5.J A yXyXyXyXyXyXyXyXyXyXyXyXyXyXyX",
"yXyXyXyXyXyXyXyXyXyXyX= P 4X/./.}.}.]._. X X@X$X*X;X;X;XM.N.j.5.K A yXyXyXyXyXyXyXyXyXyXyXyXyXyX",
"yXyXyXyXyXyXyXyXyXyX& K 4XqX/.].].{.}._. X X@X#X*X2XwXwXwXwX6X8XJ.A yXyXyXyXyXyXyXyXyXyXyXyXyXyX",
"yXyXyXyXyXyXyXyXyXyX& K 4XqX/.|.|.|.{.{.|. X#X#X*XrXwXtX0X8X8X5X5XB.h yXyXyXyXyXyXyXyXyXyXyXyXyX",
"yXyXyXyXyXyXyXyXyXyX& K 4XqX/.|.|.|.{.{.). X.X#X:XrXtXtX0X8X8X1X5X5XP = yXyXyXyXyXyXyXyXyXyXyXyX",
"yXyXyXyXyXyXyXyXyXyX& H 4X!.^.].{.{.{.{.|.|..X%X%X3XrXtXtX1X8X1X5X5XP = yXyXyXyXyXyXyXyXyXyXyXyX",
"yXyXyXyXyXyXyXyXyXyXyX* H N !.{.{.{.{.{.|.|..X#X:XrXrXeXtX1X0X8X5X5XL = yXyXyXyXyXyXyXyXyXyXyXyX",
"yXyXyXyXyXyXyXyXyXyXyXm m H !.].`.{.{.{.|.|..X.X:XeXeXeXrX9X7X8X5XL h yXyXyXyXyXyXyXyXyXyXyXyXyX",
"yXyXyXyXyXyXyXyXyXyXyX* m * M !.`.{.{.|.|.|.[..X#X*XeXeX0X9X5XJ.B.h = yXyXyXyXyXyXyXyXyXyXyXyXyX",
"yXyXyXyXyXyXyXyXyXyXyX% % * S C ~.].`.).}.]. X.X#X%X<X<X<X<XJ.B.h A yXyXyXyXyXyXyXyXyXyXyXyXyXyX",
"yXyXyXyXyXyXyXyXyXyXyX# @ w c u S F [.].(. X X[..X.X%X%XP P b c h h yXyXyXyXyXyXyXyXyXyXyXyXyXyX",
"yXyXyXyXyXyXyXyXyXyXyX# @ 6 r l c D F F [.[.[.XXXXXXh.h.7.7.x x 5 $ yXyXyXyXyXyXyXyXyXyXyXyXyXyX",
"yXyXyXyXyXyXyXyXyXyXyXX @ 6 0 0 l v c D S S D F D D D b x x n g $ @ yXyXyXyXyXyXyXyXyXyXyXyXyXyX",
"yXyXyXyXyXyXyXyXyXyXyXX O :.0 0 d k l l v D v v b v x z z g a :.$ @ yXyXyXyXyXyXyXyXyXyXyXyXyXyX",
"yXyXyXyXyXyXyXyXyXyXyXX X + :.V.0 d d k k l l l z z z d d a V.:.@ X yXyXyXyXyXyXyXyXyXyXyXyXyXyX",
"yXyXyXyXyXyXyXyXyXyXyXyXX O o 3 V.S.8.a q d d d d d d >.S.V.3 $ O yXyXyXyXyXyXyXyXyXyXyXyXyXyXyX",
"yXyXyXyXyXyXyXyXyXyXyXyXyXo o o - 3 4 >.>.f a i >.>.S.4 3 3 o o yXyXyXyXyXyXyXyXyXyXyXyXyXyXyXyX",
"yXyXyXyXyXyXyXyXyXyXyXyXyXyXo o o : - - 4 4 4 4 4 4 4 - : o o o yXyXyXyXyXyXyXyXyXyXyXyXyXyXyXyX",
"yXyXyXyXyXyXyXyXyXyXyXyXyXyXyXo o o O - - - - - - - - o o o o yXyXyXyXyXyXyXyXyXyXyXyXyXyXyXyXyX"
};
