/* XPM */
static char *result[] = {
/* columns rows colors chars-per-pixel */
"48 48 217 2 ",
"   c #230C0B",
".  c #280F0D",
"X  c #2C110E",
"o  c #36190B",
"O  c #36180D",
"+  c #2D1315",
"@  c #361A13",
"#  c #3B1B13",
"$  c #351815",
"%  c #3D231B",
"&  c #321A32",
"*  c #3C2827",
"=  c #1D0909",
"-  c #441C12",
";  c #421E19",
":  c #4C1D15",
">  c #7A1815",
",  c #681F06",
"<  c #43241A",
"1  c #4B2C1D",
"2  c #49251C",
"3  c #5A291A",
"4  c #4F301F",
"5  c #69240A",
"6  c #732108",
"7  c #7B230C",
"8  c #722D0F",
"9  c #632B13",
"0  c #6B2E15",
"q  c #692F1D",
"w  c #69311B",
"e  c #753918",
"r  c #7C211D",
"t  c #4D2C21",
"y  c #462627",
"u  c #5B2C25",
"i  c #562C25",
"p  c #5A3825",
"a  c #583325",
"s  c #442335",
"d  c #433231",
"f  c #4B3737",
"g  c #513630",
"h  c #6A2F23",
"j  c #652B26",
"k  c #782925",
"l  c #6B332C",
"z  c #673828",
"x  c #77392A",
"c  c #643533",
"v  c #6B3638",
"b  c #743B37",
"n  c #6A2E37",
"m  c #7B4A1E",
"M  c #75441A",
"N  c #68432B",
"B  c #6F4132",
"V  c #764834",
"C  c #7D5436",
"Z  c #74462C",
"A  c #362750",
"S  c #3D3276",
"D  c #382F66",
"F  c #46335C",
"G  c #442F5A",
"H  c #6A3541",
"J  c #4C3567",
"K  c #453677",
"L  c #54386D",
"P  c #716A5E",
"I  c #534475",
"U  c #5A4E6B",
"Y  c #6E4B73",
"T  c #6C6963",
"R  c #7A7768",
"E  c #766C60",
"W  c #534948",
"Q  c #970E0E",
"!  c #9D0E10",
"~  c #871C1A",
"^  c #961813",
"/  c #8D100C",
"(  c #A21514",
")  c #83240D",
"_  c #892A17",
"`  c #91331D",
"'  c #8A2D1A",
"]  c #A1301C",
"[  c #8A3A25",
"{  c #943B27",
"}  c #8D243E",
"|  c #982936",
" . c #943832",
".. c #91302C",
"X. c #AB2B28",
"o. c #A43529",
"O. c #A83B34",
"+. c #B33A33",
"@. c #B32E26",
"#. c #D11F30",
"$. c #D42233",
"%. c #DB2B3C",
"&. c #D72838",
"*. c #DA343D",
"=. c #D4353A",
"-. c #CD2D34",
";. c #95551D",
":. c #86451A",
">. c #824829",
",. c #95462C",
"<. c #895627",
"1. c #965826",
"2. c #88473A",
"3. c #944533",
"4. c #865A3A",
"5. c #945536",
"6. c #A65232",
"7. c #92673E",
"8. c #9D743E",
"9. c #8F613C",
"0. c #A9642E",
"q. c #B67C34",
"w. c #B47332",
"e. c #C67D34",
"r. c #8E2745",
"t. c #DB2E41",
"y. c #DC3345",
"u. c #DB3B48",
"i. c #D23C58",
"p. c #E03E46",
"a. c #CC3868",
"s. c #CD3C73",
"d. c #925245",
"f. c #8D4F42",
"g. c #976A40",
"h. c #9E714E",
"j. c #A27942",
"k. c #AF5769",
"l. c #DC4549",
"z. c #D6475A",
"x. c #D95658",
"c. c #D84E67",
"v. c #DD636B",
"b. c #B9833C",
"n. c #BC8234",
"m. c #C18B3A",
"M. c #BB8042",
"N. c #848275",
"B. c #CB9945",
"V. c #C69541",
"C. c #D5B359",
"Z. c #D8AC64",
"A. c #DAB165",
"S. c #DCB56A",
"D. c #DFB96E",
"F. c #D7B365",
"G. c #DEB476",
"H. c #DAAE71",
"J. c #E4B56B",
"K. c #E3B96D",
"L. c #E0B165",
"P. c #E3BD72",
"I. c #E2B975",
"U. c #E5C276",
"Y. c #E7C479",
"T. c #E8C679",
"R. c #E8C577",
"E. c #3F3682",
"W. c #433687",
"Q. c #5B4082",
"!. c #65458B",
"~. c #764D84",
"^. c #7E7C85",
"/. c #4A3EEB",
"(. c #4D43EE",
"). c #554CED",
"_. c #594BE9",
"`. c #5C54ED",
"'. c #5B50E4",
"]. c #534BF1",
"[. c #5A54F2",
"{. c #4F46F0",
"}. c #764EEA",
"|. c #6757E7",
" X c #7553EA",
".X c #6455F0",
"XX c #6864E7",
"oX c #7866E8",
"OX c #7B71E7",
"+X c #AF7B82",
"@X c #856BE3",
"#X c #868697",
"$X c #998A9A",
"%X c #838082",
"&X c #ADAC95",
"*X c #8785A4",
"=X c #918AA2",
"-X c #B4B3A9",
";X c #AE8599",
":X c #DDBE98",
">X c #DBBEA5",
",X c #DEC19D",
"<X c #DCCDB5",
"1X c #D3CBB2",
"2X c #D3D3BD",
"3X c #DCD3BD",
"4X c #DDC1A6",
"5X c #E1CDB6",
"6X c #E4D2BD",
"7X c #DAD8C5",
"8X c #DCDBCC",
"9X c #D8D7C5",
"0X c #DCDBD2",
"qX c #E2DCCC",
"wX c #E0DAC7",
"eX c #E1DED0",
"rX c None",
/* pixels */
"rXrXrXrXrXrXrXrXrXrXrXrXrXrXrXrXrXrXrXrX> r k { { { { [ [ k k rXrXrXrXrXrXrXrXrXrXrXrXrXrXrXrXrX",
"rXrXrXrXrXrXrXrXrXrXrXrXrXrXrXrXrXrXrX> r ' ` ..X.@.X.X.[ [ e h rXrXrXrXrXrXrXrXrXrXrXrXrXrXrXrX",
"rXrXrXrXrXrXrXrXrXrXrXrXrXrXrXrXrXrX> ) _ ` X.y.u.l.l.l.*...~ 8 rXrXrXrXrXrXrXrXrXrXrXrXrXrXrXrX",
"rXrXrXrXrXrXrXrXrXrXrXrXrXrXrXrXrXrX6 _ ! t.t.y.p.6X5X<X3Xu.~ 8 3 rXrXrXrXrXrXrXrXrXrXrXrXrXrXrX",
"rXrXrXrXrXrXrXrXrXrXrXrXrXrXrXrXrX6 ~ ( &.%.y.p.5X5X+.<Xo.1X-.~ 5 rXrXrXrXrXrXrXrXrXrXrXrXrXrXrX",
"rXrXrXrXrXrXrXrXrXrXrXrXrXrXrXrX6 7 ! $.&.t.y.p.5X6X+.O.o.1X-.~ 5 - rXrXrXrXrXrXrXrXrXrXrXrXrXrX",
"rXrXrXrXrXrXrXrXrXrXrXrXrXrXrXrX7 Q #.$.%.t.p.p.5XwXO.O.o.1X' y ; $ X     rXrXrXrXrXrXrXrXrXrXrX",
"rXrXrXrXrXrXrXrXrXrXrXrXrXrXrX6 ) ! $.&.%.t.y.u.l.5X<XV [ l u i ; @ X .   = rXrXrXrXrXrXrXrXrXrX",
"rXrXrXrXrXrXrXrXrXrXrXrXrXrX> ) ! $.$.%.t.y.u.u.u.2.V V b v a i < @ + .   rXrXrXrXrXrXrXrXrXrXrX",
"rXrXrXrXrXrXrXrXrXrXrXrX5 6 7 ) ( $.%.%.y.p.u.+.2.2.2.V B z z 4 < # # rXrXrXrXrXrXrXrXrXrXrXrXrX",
"rXrXrXrXrXrXrXrXrXrXrX, 6 / Q ( $.&.%.%.p.@. .3.3.2.4.H.S.A.Z.M 1 1 < rXrXrXrXrXrXrXrXrXrXrXrXrX",
"rXrXrXrXrXrXrXrXrXrX, 5 / #.$.( &.%.p.@. . .3.6.I.I.J.J.D.S.B.>.p p p rXrXrXrXrXrXrXrXrXrXrXrXrX",
"rXrXrXrXrXrXrXrXrXrX5 / #.-.-.&.%.*.{  .3.e.K.P.P.9.9.D.P.D.C N N p 4 p rXrXrXrXrXrXrXrXrXrXrXrX",
"rXrXrXrXrXrXrXrXrXrX6 ) -.-.&.*.@.{ ,.e.J.K.P.P.U.g.g.U.P.P.9.C <.<.m 1 rXrXrXrXrXrXrXrXrXrXrXrX",
"rXrXrXrXrXrXrXrXrXrX8 ^ =.*.@.[ ,.6.J.K.P.P.P.U.Y.8.8.T.Y.Y.7.m.D.S.V.m 1 rXrXrXrXrXrXrXrXrXrXrX",
"rXrXrXrXrXrXrXrXrXrX8 [ ] ] ;.,.6.0.K.P.P.R.R.Y.Y.j.j.T.T.T.T.T.U.D.F.m.M < rXrXrXrXrXrXrXrXrXrX",
"rXrXrXrXrXrXrXrXrXrX3 :.C.L.J.K.w.w.w.q.U.Y.T.T.Y.B.B.T.T.T.T.Y.U.D.S.F.M % rXrXrXrXrXrXrXrXrXrX",
"rXrXrXrXrXrXrXrXrX2 e Z.L.J.J.K.J.q.q.e.T.T.T.Y.Y.Y.T.T.T.T.T.Y.U.D.S.F.M < rXrXrXrXrXrXrXrXrXrX",
"rXrXrXrXrXrXrXrXrX< e C.L.n.m.K.R.B.b.R.T.T.T.j.8.U.U.U.Y.Y.Y.U.U.D.S.V.M % rXrXrXrXrXrXrXrXrXrX",
"rXrXrXrXrXrXrXrXrX< e C.A.J.m.U.R.R.T.T.T.T.8.g.7.7.P.P.D.P.U.P.D.S.B.m 1 rXrXrXrXrXrXrXrXrXrXrX",
"rXrXrXrXrXrXrXrXrX% 1 M F.S.K.K.U.R.R.R.T.Y.8.9.g.f.4.C D.D.D.D.S.B.m 4 rXrXrXrXrXrXrXrXrXrXrXrX",
"rXrXrXrXrXrXrXrXrXrX< 4 m A.S.D.K.U.U.Y.Y.U.U.V.C C C C V N N N p p 4 rXrXrXrXrXrXrXrXrXrXrXrXrX",
"rXrXrXrXrXrXrXrXrXrXrX1 4 m <.1.K.U.U.P.U.Y.I.G.C C V B N z p g t t rXrXrXrXrXrXrXrXrXrXrXrXrXrX",
"rXrXrXrXrXrXrXrXrXrXrXrXrX4 p z <.1.D.I.I.G.I.G.G.H.B v p g 4 4 < rXrXrXrXrXrXrXrXrXrXrXrXrXrXrX",
"rXrXrXrXrXrXrXrXrXrXrXrXrXrXZ V z B 5.6.j.I.:XI.G.H.H.Z.1.x 2 y rXrXrXrXrXrXrXrXrXrXrXrXrXrXrXrX",
"rXrXrXrXrXrXrXrXrXrXrXrXrXrXrXx x b v b 6.d.3.d.f.f.2.Z l y y y rXrXrXrXrXrXrXrXrXrXrXrXrXrXrXrX",
"rXrXrXrXrXrXrXrXrXrXrXrXrXrXrXrXb v ..r.Y @X}.~.z.i.r.} J G s s rXrXrXrXrXrXrXrXrXrXrXrXrXrXrXrX",
"rXrXrXrXrXrXrXrXrXrXrXrXrXrXrXrXn [ | a.Y }.}.}.Y s.a.a.} J G s rXrXrXrXrXrXrXrXrXrXrXrXrXrXrXrX",
"rXrXrXrXrXrXrXrXrXrXrXrXrXrXrXn k | i.i.c.!.}.}.}.!.s.a.a.r.J G rXrXrXrXrXrXrXrXrXrXrXrXrXrXrXrX",
"rXrXrXrXrXrXrXrXrXrXrXrXrXrXrXx ..u.z.z.c.~.}.}.}.}.!.Y I L J J G rXrXrXrXrXrXrXrXrXrXrXrXrXrXrX",
"rXrXrXrXrXrXrXrXrXrXrXrXrXrXv  .O.x.x.c.c.~.oX X.X X}.'..X_._.Z.c a rXrXrXrXrXrXrXrXrXrXrXrXrXrX",
"rXrXrXrXrXrXrXrXrXrXrXrXrXg h.5.x.v.v.v.k.@XoXOXk.:X:X|..X_.'.A.C.c 3 rXrXrXrXrXrXrXrXrXrXrXrXrX",
"rXrXrXrXrXrXrXrXrXrXrXrXf E 2X3X7X7XeXwXqX$XOXOX,X,X:X:X|.`.'.H.C.c i rXrXrXrXrXrXrXrXrXrXrXrXrX",
"rXrXrXrXrXrXrXrXrXrXrXrXf R 3X7XwXqXqXqXqX$X#XOX,X,X>X:X`.`.'.h.F.c i rXrXrXrXrXrXrXrXrXrXrXrXrX",
"rXrXrXrXrXrXrXrXrXrXrXd P 2X9X&X8XeXeXeXeX0X=XOX;X4X>X|.`.).).(.K D rXrXrXrXrXrXrXrXrXrXrXrXrXrX",
"rXrXrXrXrXrXrXrXrXrXrXd P 3X7X&X8X-XeXeXeXeX=XOXXXXX`.[.).{.(./.S D rXrXrXrXrXrXrXrXrXrXrXrXrXrX",
"rXrXrXrXrXrXrXrXrXrXrXf T 2X9X9X8X-X8XeX0X0X=XXX.X[.[.].].{./.E.D A A rXrXrXrXrXrXrXrXrXrXrXrXrX",
"rXrXrXrXrXrXrXrXrXrXrX* T R 2X9X7X8X8X8X-X*X*XXX[.[.].{.(.(./.S D & & rXrXrXrXrXrXrXrXrXrXrXrXrX",
"rXrXrXrXrXrXrXrXrXrXrXrX* R R &X9X9X9X9X#X#XXX`.[.].].(.(./.E.S A & + rXrXrXrXrXrXrXrXrXrXrXrXrX",
"rXrXrXrXrXrXrXrXrXrXrXrXW * T R N.N.%X%X^.'.`.].].].(.(.E.E.S n u 3 + + rXrXrXrXrXrXrXrXrXrXrXrX",
"rXrXrXrXrXrXrXrXrXrXrXrXrXd f C U U XXXX|.'.].).{.W.W.K K K v u q 3 $ . rXrXrXrXrXrXrXrXrXrXrXrX",
"rXrXrXrXrXrXrXrXrXrXrXrXrX* * N B V U U I I I K K K K K H c j j 3 3 + . rXrXrXrXrXrXrXrXrXrXrXrX",
"rXrXrXrXrXrXrXrXrXrXrXrXrX% * M.N x B b v v H H H H c n j j w 9 9 q.O . rXrXrXrXrXrXrXrXrXrXrXrX",
"rXrXrXrXrXrXrXrXrXrXrXrXrX+ % % b.1.z l z v b l n l l h h w 0 ;.q.O + + rXrXrXrXrXrXrXrXrXrXrXrX",
"rXrXrXrXrXrXrXrXrXrXrXrXrXrX+ @ ; < b.1.q h h q q q 0 0 ;.n.;.- o O X rXrXrXrXrXrXrXrXrXrXrXrXrX",
"rXrXrXrXrXrXrXrXrXrXrXrXrXrXrX@ @ # ; ; 1.1.0 8 0 1.1.1.2 - - o O o rXrXrXrXrXrXrXrXrXrXrXrXrXrX",
"rXrXrXrXrXrXrXrXrXrXrXrXrXrXrXrXO @ # # - - - - - - - - - - # o o rXrXrXrXrXrXrXrXrXrXrXrXrXrXrX",
"rXrXrXrXrXrXrXrXrXrXrXrXrXrXrXrXrXo o O # - - - : - - - o o o o rXrXrXrXrXrXrXrXrXrXrXrXrXrXrXrX"
};
