/* XPM */
static char *result[] = {
/* columns rows colors chars-per-pixel */
"48 51 221 2 ",
"   c #290C0B",
".  c #380D0E",
"X  c #2C110E",
"o  c #32160D",
"O  c #38180E",
"+  c #2D1316",
"@  c #3D1C11",
"#  c #361916",
"$  c #3D2314",
"%  c #331B2F",
"&  c #34252C",
"*  c #3F322D",
"=  c #3A2738",
"-  c #451E11",
";  c #461412",
":  c #541812",
">  c #540F0F",
",  c #7B0F0F",
"<  c #750F0E",
"1  c #6D0D10",
"2  c #442213",
"3  c #4A2313",
"4  c #4A2817",
"5  c #562A15",
"6  c #57331E",
"7  c #7C3308",
"8  c #77360A",
"9  c #683A18",
"0  c #6D2B15",
"q  c #593622",
"w  c #502D2F",
"e  c #693E28",
"r  c #672723",
"t  c #7A440D",
"y  c #6E4318",
"u  c #744A13",
"i  c #7A4E16",
"p  c #75441B",
"a  c #774519",
"s  c #7E5219",
"d  c #4F433B",
"f  c #6A4726",
"g  c #754424",
"h  c #73442A",
"j  c #6E4436",
"k  c #734636",
"l  c #73542A",
"z  c #2B1C51",
"x  c #3F3144",
"c  c #352149",
"v  c #2D2A6B",
"b  c #312D79",
"n  c #363579",
"m  c #452B45",
"M  c #4E3250",
"N  c #553D78",
"B  c #643861",
"V  c #56455B",
"C  c #564C4A",
"Z  c #6A434B",
"A  c #724746",
"S  c #6E4759",
"D  c #575665",
"F  c #4C447A",
"G  c #4D486F",
"H  c #685266",
"J  c #5F6663",
"K  c #636769",
"L  c #757B68",
"P  c #6E7662",
"I  c #9B1D0B",
"U  c #961E0B",
"Y  c #801011",
"T  c #A41E0D",
"R  c #AB1F0E",
"E  c #AE1F10",
"W  c #9D240E",
"Q  c #84330A",
"!  c #8C340B",
"~  c #99360D",
"^  c #82351E",
"/  c #A8210E",
"(  c #A82611",
")  c #B42111",
"_  c #B92013",
"`  c #B93918",
"'  c #AB3214",
"]  c #90362B",
"[  c #A63829",
"{  c #AC3B33",
"}  c #C72319",
"|  c #C43D19",
" . c #D1261E",
".. c #DB2E2F",
"X. c #DD2F31",
"o. c #DD3333",
"O. c #DC3B34",
"+. c #D9332F",
"@. c #E23235",
"#. c #E43D37",
"$. c #E63439",
"%. c #E9343C",
"&. c #E53B3A",
"*. c #E93A3D",
"=. c #854B0F",
"-. c #895218",
";. c #934D1B",
":. c #9A641D",
">. c #AE711F",
",. c #984829",
"<. c #985825",
"1. c #8E562C",
"2. c #A55635",
"3. c #A54B31",
"4. c #A56A25",
"5. c #AB722B",
"6. c #BD7A23",
"7. c #B97626",
"8. c #A97731",
"9. c #BC7B31",
"0. c #B36329",
"q. c #C84624",
"w. c #E34537",
"e. c #E5443B",
"r. c #E7463D",
"t. c #C47D24",
"y. c #CB7C25",
"u. c #C87927",
"i. c #C37F36",
"p. c #D07E2F",
"a. c #C5431D",
"s. c #8B324A",
"d. c #9C5645",
"f. c #AD5548",
"g. c #BF7C43",
"h. c #9B6E6F",
"j. c #DB4B58",
"k. c #DB4B51",
"l. c #C27E43",
"z. c #DA4967",
"x. c #DD5767",
"c. c #D74877",
"v. c #DE5A78",
"b. c #E06C7A",
"n. c #E15C56",
"m. c #7B8374",
"M. c #BD8A3D",
"N. c #CC852C",
"B. c #C78429",
"V. c #C48339",
"C. c #C38D3B",
"Z. c #C78934",
"A. c #D08835",
"S. c #CD9438",
"D. c #D09338",
"F. c #858778",
"G. c #C18E40",
"H. c #C49040",
"J. c #D9AB67",
"K. c #DAB26E",
"L. c #D7B06B",
"P. c #DDB572",
"I. c #DEB975",
"U. c #E2BA76",
"Y. c #E5BE7A",
"T. c #E4B876",
"R. c #E6C17C",
"E. c #383687",
"W. c #38338B",
"Q. c #463F94",
"!. c #4F378B",
"~. c #4E478A",
"^. c #7976AF",
"/. c #3E3BED",
"(. c #3F3BF0",
"). c #4239EE",
"_. c #423EF2",
"`. c #4C3FF2",
"'. c #533EF2",
"]. c #543EEE",
"[. c #7A78C6",
"{. c #4A43EE",
"}. c #5145EC",
"|. c #5647EB",
" X c #5C57ED",
".X c #4443F5",
"XX c #4B44F4",
"oX c #4C49F6",
"OX c #534CF4",
"+X c #5545F6",
"@X c #5A55F6",
"#X c #6A49EC",
"$X c #7849EC",
"%X c #6546F2",
"&X c #665CF5",
"*X c #7852EE",
"=X c #736BF4",
"-X c #CC399C",
";X c #8D76B0",
":X c #94739A",
">X c #D84D85",
",X c #DE658B",
"<X c #8351E8",
"1X c #877AC1",
"2X c #7E829A",
"3X c #828A8B",
"4X c #B3AFAD",
"5X c #9C84A8",
"6X c #A79FCC",
"7X c #C7C6CB",
"8X c #D4D2CC",
"9X c #D9D3CD",
"0X c #D6D5D3",
"qX c #DCD4DC",
"wX c #DBD6D9",
"eX c #C7C6D1",
"rX c #E1D8D7",
"tX c #D4D2E4",
"yX c #DBD7E2",
"uX c #D4CFE5",
"iX c None",
/* pixels */
"iXiXiXiXiXiXiXiXiXiXiXiXiXiXiXiXiXiX< , ! ~ ~ ~ ~ ~ , , < iXiXiXiXiXiXiXiXiXiXiXiXiXiXiXiXiXiXiX",
"iXiXiXiXiXiXiXiXiXiXiXiXiXiXiXiXiXiX, ! R E _ _ ) E ~ ! , iXiXiXiXiXiXiXiXiXiXiXiXiXiXiXiXiXiXiX",
"iXiXiXiXiXiXiXiXiXiXiXiXiXiXiXiXiX< Q T E X.@.X.X._ E T Q , iXiXiXiXiXiXiXiXiXiXiXiXiXiXiXiXiXiX",
"iXiXiXiXiXiXiXiXiXiXiXiXiXiXiXiXiXQ T / X.@.@.@.@.@.X.E T Q iXiXiXiXiXiXiXiXiXiXiXiXiXiXiXiXiXiX",
"iXiXiXiXiXiXiXiXiXiXiXiXiXiXiXiX1 Q T X.X.$.$.$.@.@.@.X.R I 7 iXiXiXiXiXiXiXiXiXiXiXiXiXiXiXiXiX",
"iXiXiXiXiXiXiXiXiXiXiXiXiXiXiX> 7 T X.X.@.$.$.%.%.%.@.X...T Q iXiXiXiXiXiXiXiXiXiXiXiXiXiXiXiXiX",
"iXiXiXiXiXiXiXiXiXiXiXiX  . . ; U T X.@.@.$.%.%.%.$.$.@.X.R T 7 iXiXiXiXiXiXiXiXiXiXiXiXiXiXiXiX",
"iXiXiXiXiXiXiXiXiXiXiX    . . : I T X.@.$.%.%.%.%.%.%.@.@.X.T I 7 iXiXiXiXiXiXiXiXiXiXiXiXiXiXiX",
"iXiXiXiXiXiXiXiXiXiXiX    . ; : U ..o.o.%.%.%.%.%.%.%.%.@.X.X.T Q iXiXiXiXiXiXiXiXiXiXiXiXiXiXiX",
"iXiXiXiXiXiXiXiXiXiXiXiXX . ; 1 W o.$.$.%.%.%.%.%.%.%.%.@.@.X.E ! , iXiXiXiXiXiXiXiXiXiXiXiXiXiX",
"iXiXiXiXiXiXiXiXiXiXiXiXO @ - : r o.&.o.*.%.%.*.%.%.%.%.@.X.X._ ~ ! 7 iXiXiXiXiXiXiXiXiXiXiXiXiX",
"iXiXiXiXiXiXiXiXiXiXiXiX2 : 5 r e 0 O.O.&.*.*.*.%.%.%.%. .} } _ E T I 7 iXiXiXiXiXiXiXiXiXiXiXiX",
"iXiXiXiXiXiXiXiXiXiXiXiX4 4 5 y ^ ^ ] e.*.*.*.*.*.%. . .$.@.@.@.X.+./ U 7 iXiXiXiXiXiXiXiXiXiXiX",
"iXiXiXiXiXiXiXiXiXiXiX2 u s -.-.<.u.,.,.e.e.r.*.e.*.%.%.%.$.%.@.@.X.+./ U 0 iXiXiXiXiXiXiXiXiXiX",
"iXiXiXiXiXiXiXiXiXiX$ u s L.K.<.9.i.i.,.,.r.r.r.e.*.*.%.*.$.%.$.@.O.+.+.W 8 iXiXiXiXiXiXiXiXiXiX",
"iXiXiXiXiXiXiXiXiXiX2 i L.K.P.T.Z.Z.5.0.u.3.q.r.r.r.w.#.*.$.&.$.#.#.O.O.W 8 iXiXiXiXiXiXiXiXiXiX",
"iXiXiXiXiXiXiXiXiXiX$ i L.L.I.R.C.5.U.U.T.A.q.q.a.r.e.*.w.*.#.w.w.#.O.+.( 8 iXiXiXiXiXiXiXiXiXiX",
"iXiXiXiXiXiXiXiXiXiX4 i L.I.I.H.8.Y.Y.Y.R.T.A.A.N.a.| | w.r.w.w.w.w.` ' J.t - iXiXiXiXiXiXiXiXiX",
"iXiXiXiXiXiXiXiXiXiX$ u L.I.l S.8.R.R.R.R.U.D.N.N.p.y.y.| | | | _ ` y.J.J.t - iXiXiXiXiXiXiXiXiX",
"iXiXiXiXiXiXiXiXiXiX$ u L.l l M.8.R.R.R.R.R.D.D.N.N.p.y.y.y.y.y.y.u.y.J.J.t @ iXiXiXiXiXiXiXiXiX",
"iXiXiXiXiXiXiXiXiXiX$ u u f l I.8.R.R.R.R.R.D.N.N.B.B.t.y.y.y.y.t.6.>.J.t t $ iXiXiXiXiXiXiXiXiX",
"iXiXiXiXiXiXiXiXiXiXiX$ y f f I.I.8.R.R.R.S.D.S.N.B.B.B.y.y.t.t.6.6.=.=.t 3 iXiXiXiXiXiXiXiXiXiX",
"iXiXiXiXiXiXiXiXiXiXiXiX$ 4 q l P.I.8.8.S.S.S.Z.N.B.B.t.B.6.t.6.6.>.:.t 3 iXiXiXiXiXiXiXiXiXiXiX",
"iXiXiXiXiXiXiXiXiXiXiXiXiXiX4 s 1.P.I.I.Y.Y.C.Z.Z.N.B.B.6.B.6.6.6.=.=.5 5 iXiXiXiXiXiXiXiXiXiXiX",
"iXiXiXiXiXiXiXiXiXiXiXiXiXiXq 6 -.-.K.U.T.V.H.p.Z.Z.i.i.9.9.7.7.>.>.=.3 iXiXiXiXiXiXiXiXiXiXiXiX",
"iXiXiXiXiXiXiXiXiXiXiXiXiXiXiXq q -.<.<.T.p.l.l.g.V.M.2.2.2.9.5.5.0.t @ iXiXiXiXiXiXiXiXiXiXiXiX",
"iXiXiXiXiXiXiXiXiXiXiXiXiXiXiXiXq q g ;.,.2.2.2.f.d.d.j.j.,.1.,.=.9 9 - iXiXiXiXiXiXiXiXiXiXiXiX",
"iXiXiXiXiXiXiXiXiXiXiXiXiXiXiXiXr r A [ { k.j.h.<X<X*Xz.z.z.N ] [ e 4 iXiXiXiXiXiXiXiXiXiXiXiXiX",
"iXiXiXiXiXiXiXiXiXiXiXiXiXiXiXiXM Z [ [ k.k.j.z.<X$X$Xc.c.c.#XN ] e w iXiXiXiXiXiXiXiXiXiXiXiXiX",
"iXiXiXiXiXiXiXiXiXiXiXiXiXiXiXiXM S [ [ j.j.z.c.$X$X#X#X>X+X].N s.h m m iXiXiXiXiXiXiXiXiXiXiXiX",
"iXiXiXiXiXiXiXiXiXiXiXiXiXiXiXM B { 3.j.x.x.c.>X$X%X%X%X-X%X].!.!.s.j M iXiXiXiXiXiXiXiXiXiXiXiX",
"iXiXiXiXiXiXiXiXiXiXiXiXiXiXiXV H 3.f.x.v.v.>X:X<X%X%X'.].].].].Q.s.K x iXiXiXiXiXiXiXiXiXiXiXiX",
"iXiXiXiXiXiXiXiXiXiXiXiXiXiXD K d.g.b.b.b.,X,X;X*X%X+X+X'.`.XX+XQ.~.7XK * iXiXiXiXiXiXiXiXiXiXiX",
"iXiXiXiXiXiXiXiXiXiXiXiXiXiXd F.9XrX8XrXrXwX5X;X&X%X+X+XXX.XXXXXXXQ.eX7XJ & iXiXiXiXiXiXiXiXiXiX",
"iXiXiXiXiXiXiXiXiXiXiXiXiXd F.9X9XrXrXyXwXyXuX1X&X@XOXoX.XoXoX.XXXQ.eX7XK & iXiXiXiXiXiXiXiXiXiX",
"iXiXiXiXiXiXiXiXiXiXiXiX* P 8X9X4XrXwXyXqXyXuX;X&X@X+XoX.X.X.XoX.XQ.eX7XK & iXiXiXiXiXiXiXiXiXiX",
"iXiXiXiXiXiXiXiXiXiXiXiX* P 8X8X4X0X4XyXtXtX6X=X&X&X@X.X.X.X.X.X{.W.E.7XJ & iXiXiXiXiXiXiXiXiXiX",
"iXiXiXiXiXiXiXiXiXiXiXiX* P 8X8X0XwX4XyXyXtXtX[.@X@XoX.X.X.X.X.X.XW.n G % iXiXiXiXiXiXiXiXiXiXiX",
"iXiXiXiXiXiXiXiXiXiXiXiXiXd L 8X0XwXtXyXtXtXuX[.@X@XoX.X(..X(.(..XE.b = iXiXiXiXiXiXiXiXiXiXiXiX",
"iXiXiXiXiXiXiXiXiXiXiXiXiX* d m.m.0X0XyXtXtX2X X@X@X.X.X(.(.(.(.E.b v iXiXiXiXiXiXiXiXiXiXiXiXiX",
"iXiXiXiXiXiXiXiXiXiXiXiXiXiXiXd C m.2X2X2X^. X@XOXOXXX_.)././.W.E.v iXiXiXiXiXiXiXiXiXiXiXiXiXiX",
"iXiXiXiXiXiXiXiXiXiXiXiXiXiXiXiXD C D K  X X X X}.{.`.`.)./.W.b v z iXiXiXiXiXiXiXiXiXiXiXiXiXiX",
"iXiXiXiXiXiXiXiXiXiXiXiXiXiXiXiXiXV G F F |.|.OX{.}.].].B B c c z iXiXiXiXiXiXiXiXiXiXiXiXiXiXiX",
"iXiXiXiXiXiXiXiXiXiXiXiXiXiXiXiXiX= x = G F F }.}.|.S S Z Z = % % iXiXiXiXiXiXiXiXiXiXiXiXiXiXiX",
"iXiXiXiXiXiXiXiXiXiXiXiXiXiXiXiXiX& & w j k A M M M A A j e e % + iXiXiXiXiXiXiXiXiXiXiXiXiXiXiX",
"iXiXiXiXiXiXiXiXiXiXiXiXiXiXiXiXiX+ # e f h k k w k k e f e r # + iXiXiXiXiXiXiXiXiXiXiXiXiXiXiX",
"iXiXiXiXiXiXiXiXiXiXiXiXiXiXiXiXiXX # 5 9 y g g g h h g y y M.# + iXiXiXiXiXiXiXiXiXiXiXiXiXiXiX",
"iXiXiXiXiXiXiXiXiXiXiXiXiXiXiXiXiXX O :.9 p p g -.a a 4.M.M.$ o + iXiXiXiXiXiXiXiXiXiXiXiXiXiXiX",
"iXiXiXiXiXiXiXiXiXiXiXiXiXiXiXiXiXX o $ :.C.C.H.C.H.4.4 3 2 @ o iXiXiXiXiXiXiXiXiXiXiXiXiXiXiXiX",
"iXiXiXiXiXiXiXiXiXiXiXiXiXiXiXiXiXiXo O 2 3 4 4 3 5 3 3 - O O o iXiXiXiXiXiXiXiXiXiXiXiXiXiXiXiX",
"iXiXiXiXiXiXiXiXiXiXiXiXiXiXiXiXiXiXo O - - 3 3 3 - - - O o o iXiXiXiXiXiXiXiXiXiXiXiXiXiXiXiXiX"
};
