/* XPM */
static char *result[] = {
/* columns rows colors chars-per-pixel */
"48 51 228 2 ",
"   c #290C0B",
".  c #380D0E",
"X  c #2E110D",
"o  c #3A1B0E",
"O  c #35160E",
"+  c #2D1216",
"@  c #3B1C11",
"#  c #341A17",
"$  c #3D2314",
"%  c #3E241B",
"&  c #361B25",
"*  c #2E1A39",
"=  c #311931",
"-  c #3B2A29",
";  c #3C2733",
":  c #441E11",
">  c #461412",
",  c #541812",
"<  c #540F0F",
"1  c #7B0F0F",
"2  c #750F0E",
"3  c #6D0D10",
"4  c #442412",
"5  c #4A2512",
"6  c #4C2912",
"7  c #46271A",
"8  c #572A15",
"9  c #54331E",
"0  c #4F301E",
"q  c #7C3308",
"w  c #783609",
"e  c #6B3E18",
"r  c #6D2B15",
"t  c #452A26",
"y  c #453128",
"u  c #583424",
"i  c #472939",
"p  c #4D3A34",
"a  c #632925",
"s  c #6D3F24",
"d  c #7B440D",
"f  c #79460C",
"g  c #744A13",
"h  c #7B4D15",
"j  c #774419",
"k  c #754B14",
"l  c #694827",
"z  c #764928",
"x  c #79572B",
"c  c #6D4637",
"v  c #765130",
"b  c #54443D",
"n  c #26194D",
"m  c #3E2C54",
"M  c #241D68",
"N  c #2C2975",
"B  c #352D77",
"V  c #332C6B",
"C  c #4D344E",
"Z  c #533D76",
"A  c #603A4E",
"S  c #57465B",
"D  c #764B48",
"F  c #7C5349",
"G  c #705154",
"H  c #6F725D",
"J  c #62665F",
"K  c #715268",
"L  c #676965",
"P  c #7B7C67",
"I  c #9A1D0B",
"U  c #801011",
"Y  c #A41E0D",
"T  c #AB1F0E",
"R  c #AE1F10",
"E  c #9D240E",
"W  c #84330A",
"Q  c #8C340B",
"!  c #99360D",
"~  c #82351E",
"^  c #A82611",
"/  c #B42111",
"(  c #B92013",
")  c #B93918",
"_  c #A92610",
"`  c #90352D",
"'  c #A63829",
"]  c #AC3B33",
"[  c #C72319",
"{  c #C43D19",
"}  c #D1261E",
"|  c #DB2E2F",
" . c #DD2F31",
".. c #DD3333",
"X. c #DC3B34",
"o. c #D9332F",
"O. c #E23235",
"+. c #E43C37",
"@. c #E63439",
"#. c #E9343C",
"$. c #E53B3A",
"%. c #E93A3D",
"&. c #854B0F",
"*. c #824C18",
"=. c #875218",
"-. c #98521B",
";. c #99641C",
":. c #A46D1B",
">. c #AD6F1E",
",. c #AB721D",
"<. c #A7701F",
"1. c #B5761F",
"2. c #984829",
"3. c #885624",
"4. c #995826",
"5. c #815936",
"6. c #935031",
"7. c #A55635",
"8. c #A74932",
"9. c #966B31",
"0. c #A76C23",
"q. c #AE7523",
"w. c #AC752C",
"e. c #BD7A23",
"r. c #B97627",
"t. c #A87633",
"y. c #BC7B31",
"u. c #B36328",
"i. c #C84624",
"p. c #E5443B",
"a. c #E5463B",
"s. c #C47D24",
"d. c #CB7C25",
"f. c #C77A27",
"g. c #C37F33",
"h. c #D07E2F",
"j. c #C5431D",
"k. c #8B324A",
"l. c #8E5746",
"z. c #AD5548",
"x. c #8A6952",
"c. c #BF7C43",
"v. c #DB4A58",
"b. c #DB474E",
"n. c #C27E42",
"m. c #DA4968",
"M. c #DE5668",
"N. c #D84778",
"B. c #DE5979",
"V. c #E06C79",
"C. c #E15C56",
"Z. c #7C806B",
"A. c #BF8D3B",
"S. c #CC852C",
"D. c #C78429",
"F. c #C4823B",
"G. c #C68A36",
"H. c #D08835",
"J. c #CC953D",
"K. c #CB9237",
"L. c #D09338",
"P. c #888876",
"I. c #BE8C40",
"U. c #CB9745",
"Y. c #C79757",
"T. c #D9AB67",
"R. c #DAB26E",
"E. c #D7B06B",
"W. c #DDB572",
"Q. c #DEB975",
"!. c #E2BA76",
"~. c #E5BE7A",
"^. c #E6B977",
"/. c #EABF6B",
"(. c #D5A25E",
"). c #E6C17C",
"_. c #38338A",
"`. c #302D87",
"'. c #4C3D8E",
"]. c #4D4392",
"[. c #4F4483",
"{. c #7B79B3",
"}. c #3D3AEE",
"|. c #3F3CF0",
" X c #423DEE",
".X c #453EF2",
"XX c #533EF2",
"oX c #553EEE",
"OX c #7C79C9",
"+X c #4A45EC",
"@X c #534BEE",
"#X c #5543ED",
"$X c #5953EB",
"%X c #4642F5",
"&X c #4B44F4",
"*X c #4E4BF4",
"=X c #4A45F8",
"-X c #4A48F8",
";X c #5447F5",
":X c #5957F5",
">X c #6B49EC",
",X c #7949EC",
"<X c #6646F2",
"1X c #675AF6",
"2X c #7256ED",
"3X c #6F69EF",
"4X c #CC399C",
"5X c #8E75B0",
"6X c #D94D88",
"7X c #DE648B",
"8X c #8653E8",
"9X c #834FEA",
"0X c #877AC1",
"qX c #8F9190",
"wX c #9386A4",
"eX c #B4ADB3",
"rX c #A8A1CE",
"tX c #CAC8CA",
"yX c #D7D4CD",
"uX c #DAD6D3",
"iX c #DCD6DB",
"pX c #D9D6D8",
"aX c #C6C3D1",
"sX c #E2D8D8",
"dX c #DAD6E3",
"fX c #D7D4E5",
"gX c #D7CEE1",
"hX c None",
/* pixels */
"hXhXhXhXhXhXhXhXhXhXhXhXhXhXhXhXhXhXhXhX2 1 1 ! ! ! ! ! Q 1 1 hXhXhXhXhXhXhXhXhXhXhXhXhXhXhXhXhX",
"hXhXhXhXhXhXhXhXhXhXhXhXhXhXhXhXhXhXhXhX1 Q ! T / ( / / T Q 1 hXhXhXhXhXhXhXhXhXhXhXhXhXhXhXhXhX",
"hXhXhXhXhXhXhXhXhXhXhXhXhXhXhXhXhXhXhX1 Q Y R (  .O. . .T T W 1 hXhXhXhXhXhXhXhXhXhXhXhXhXhXhXhX",
"hXhXhXhXhXhXhXhXhXhXhXhXhXhXhXhXhXhXhXW Y T  .O.O.O.O.O. .T I W hXhXhXhXhXhXhXhXhXhXhXhXhXhXhXhX",
"hXhXhXhXhXhXhXhXhXhXhXhXhXhXhXhXhXhXq Y T | O.O.#.O.O.O. . .T W 3 hXhXhXhXhXhXhXhXhXhXhXhXhXhXhX",
"hXhXhXhXhXhXhXhXhXhXhXhXhXhXhXhXhXhXW Y |  .O.@.@.#.#.O.@. .| Y W < hXhXhXhXhXhXhXhXhXhXhXhXhXhX",
"hXhXhXhXhXhXhXhXhXhXhXhXhXhXhXhXhXq Y T  .O.@.@.#.#.#.#.O. . .Y I > .     hXhXhXhXhXhXhXhXhXhXhX",
"hXhXhXhXhXhXhXhXhXhXhXhXhXhXhXhXq I Y | O.@.@.@.#.#.#.#.#.O. .Y I < > X     hXhXhXhXhXhXhXhXhXhX",
"hXhXhXhXhXhXhXhXhXhXhXhXhXhXhXhXW Y | | @.#.#.#.#.#.#.#.#.@... .I , > .     hXhXhXhXhXhXhXhXhXhX",
"hXhXhXhXhXhXhXhXhXhXhXhXhXhXhXU Q R | O.@.#.#.#.#.#.%.#.#.#.....E r > . X hXhXhXhXhXhXhXhXhXhXhX",
"hXhXhXhXhXhXhXhXhXhXhXhXhXhXq Q ! /  .O.@.@.#.#.#.%.#.#.#.....X.a 3 > > O hXhXhXhXhXhXhXhXhXhXhX",
"hXhXhXhXhXhXhXhXhXhXhXhXhXq I Y R ( [ } } @.#.#.#.#.%.#.$.$.@.s r 8 8 5 : hXhXhXhXhXhXhXhXhXhXhX",
"hXhXhXhXhXhXhXhXhXhXhXhXq I Y |  .O.O.O.#.} } #.%.%.%.p.$.X.` *.j e 9 8 6 hXhXhXhXhXhXhXhXhXhXhX",
"hXhXhXhXhXhXhXhXhXhXhXr I E o.o.O.O.@.@.#.#.#.%.%.%.a.a.b.2.2.f.4.=.=.*.k 7 hXhXhXhXhXhXhXhXhXhX",
"hXhXhXhXhXhXhXhXhXhXhXw E o.X.O.@.+.@.#.%.#.%.%.a.b.a.a.2.6.g.g.D.=.R.E.h k $ hXhXhXhXhXhXhXhXhX",
"hXhXhXhXhXhXhXhXhXhXhXw E o.X.X.+.+.@.+.p.%.a.a.a.a.i.8.u.u.u.F.A.Q.Q.R.E.h 0 hXhXhXhXhXhXhXhXhX",
"hXhXhXhXhXhXhXhXhXhXhX8 E p.X.+.+.+.+.+.%.p.a.a.j.i.i.H.^.^.^.y.A.R.R.R.R.h $ hXhXhXhXhXhXhXhXhX",
"hXhXhXhXhXhXhXhXhXhX: W T._ ) ..a.a.a.a.p.{ { { h.H.H./.^.^.~.~.9.A.Q.R.R.h 0 hXhXhXhXhXhXhXhXhX",
"hXhXhXhXhXhXhXhXhXhX5 d T.(.f.) { { { { { d.d.S.S.H.L./.).).).).A.A.x R.E.k $ hXhXhXhXhXhXhXhXhX",
"hXhXhXhXhXhXhXhXhXhX: d T.T.r.s.d.d.d.d.d.d.d.D.S.H.L.).).).).).A.J.x l E.g $ hXhXhXhXhXhXhXhXhX",
"hXhXhXhXhXhXhXhXhXhX@ f &.(.1.s.e.d.s.d.d.D.D.D.S.H.J.).).).).).t.Q.x l g g $ hXhXhXhXhXhXhXhXhX",
"hXhXhXhXhXhXhXhXhXhXhX4 f &.&.e.e.e.s.s.s.D.D.D.S.K.L.J.~.).).t.Q.R.l 9 g $ hXhXhXhXhXhXhXhXhXhX",
"hXhXhXhXhXhXhXhXhXhXhXhX5 &.-.e.1.e.d.D.s.D.D.D.K.K.K.J.J.t.t.Q.Q.x u 7 $ hXhXhXhXhXhXhXhXhXhXhX",
"hXhXhXhXhXhXhXhXhXhXhXhX8 8 &.&.1.e.e.s.e.D.D.D.D.G.G.^.^.!.!.W.3.h 0 hXhXhXhXhXhXhXhXhXhXhXhXhX",
"hXhXhXhXhXhXhXhXhXhXhXhXhX7 d >.q.r.r.g.y.y.g.g.F.F.F.G.!.W.W.3.=.0 hXhXhXhXhXhXhXhXhXhXhXhXhXhX",
"hXhXhXhXhXhXhXhXhXhXhXhXhX4 d 0.>.w.y.8.7.7.c.y.c.U.n.g.!.4.4.=.9 u hXhXhXhXhXhXhXhXhXhXhXhXhXhX",
"hXhXhXhXhXhXhXhXhXhXhXhXhX> e j *.2.6.6.v.m.l.z.z.7.7.7.4.-.s a a hXhXhXhXhXhXhXhXhXhXhXhXhXhXhX",
"hXhXhXhXhXhXhXhXhXhXhXhXhXt 4 j ` ` Z m.m.m.9X,X9X8Xv.b.] ' D a a hXhXhXhXhXhXhXhXhXhXhXhXhXhXhX",
"hXhXhXhXhXhXhXhXhXhXhXhXhXi i s ` Z ,Xm.6X6X,X,X9Xm.v.v.b.' ' A a hXhXhXhXhXhXhXhXhXhXhXhXhXhXhX",
"hXhXhXhXhXhXhXhXhXhXhXhXhXi s ` k.'.oX>X6X<X<X,X9XN.m.v.v.] ' G C hXhXhXhXhXhXhXhXhXhXhXhXhXhXhX",
"hXhXhXhXhXhXhXhXhXhXhXhXhXC c k.Z '.oX<X4X<X<X<X,X6XN.M.m.v.] ' S C hXhXhXhXhXhXhXhXhXhXhXhXhXhX",
"hXhXhXhXhXhXhXhXhXhXhXhXhX; K k.'.oXoXoXXX<X<X<X9X6X7XB.M.M.z.8.K S hXhXhXhXhXhXhXhXhXhXhXhXhXhX",
"hXhXhXhXhXhXhXhXhXhXhXhX; L tX[.'.&X&XXXXX;X;X<X2X5X7X7X7XV.V.z.7.L S hXhXhXhXhXhXhXhXhXhXhXhXhX",
"hXhXhXhXhXhXhXhXhXhXhX- L tXaX'.@X+X&XXXXX=X;X<X1X5X5XsXsXsXuXsXuXP.c J hXhXhXhXhXhXhXhXhXhXhXhX",
"hXhXhXhXhXhXhXhXhXhXhX- L tXaX].@X&X&X&X%X=X;X1X2X0XdXsXsXiXpXpXyXyXZ.S - hXhXhXhXhXhXhXhXhXhXhX",
"hXhXhXhXhXhXhXhXhXhXhX- L tXaX].;X;X&X%X%X=X;X:X1X0XdXdXdXiXpXpXeXyXyXZ.p - hXhXhXhXhXhXhXhXhXhX",
"hXhXhXhXhXhXhXhXhXhXhX- J tXZ [.;X;X&X%X-X-X*X:X1X3XrXfXfXfXtXpXeXtXyXZ.H - # hXhXhXhXhXhXhXhXhX",
"hXhXhXhXhXhXhXhXhXhXy t p S S Z $X;X&X%X=X-X-X*X1X0XfXfXdXfXeXpXyXyXyXZ.H - % hXhXhXhXhXhXhXhXhX",
"hXhXhXhXhXhXhXhXhXhX% 0 l.Y.v x.K $X=X%X%X=X*X:X1XOXfXfXfXdXdXpXyXuXP.Z.H - $ hXhXhXhXhXhXhXhXhX",
"hXhXhXhXhXhXhXhXhXhX7 9 t.c.Y.G K $X&X%X|.%X-X*X:X:XOXfXfXfXpXpXpXP.P.Z.U.- # hXhXhXhXhXhXhXhXhX",
"hXhXhXhXhXhXhXhXhX@ 6 0.w.t.Y.l.D K #X.X X X%X%X:X:X:X{.{.wXqXqXP.P.P x 9.% # hXhXhXhXhXhXhXhXhX",
"hXhXhXhXhXhXhXhXhX4 6 ,.q.t.Y.v l.G #X X X X.X.X+X*X$X$X$X3X3Xx.x.5.x t.y $ hXhXhXhXhXhXhXhXhXhX",
"hXhXhXhXhXhXhXhXhX4 6 ,.q.w.U.5.v D Z '.}.}.}.}.|.+X*X@X$X$X1Xl.5.x v y % o hXhXhXhXhXhXhXhXhXhX",
"hXhXhXhXhXhXhXhXo 5 :.,.q.U.q.3.z i m B `.`.`.`.`._.B +X+X$XD v v x 0.% $ hXhXhXhXhXhXhXhXhXhXhX",
"hXhXhXhXhXhXhXhXo 6 :.,.1.J.=.=.u t V m V V N N N N N B m c c l z g A.@ $ hXhXhXhXhXhXhXhXhXhXhX",
"hXhXhXhXhXhXhXhXo 6 :.,.,.J.=.h j t & n n M hXhXhXN M * * ; e e e e ;.O O hXhXhXhXhXhXhXhXhXhXhX",
"hXhXhXhXhXhXhXhXo 4 :.<.,.K.h f 0.% % = hXhXhXhXhXhXhXn = & & 8 ;.;.@ X # hXhXhXhXhXhXhXhXhXhXhX",
"hXhXhXhXhXhXhXhXo $ :.:.K.,.h :.;.$ # hXhXhXhXhXhXhXhXhXhX+ # # # O O X hXhXhXhXhXhXhXhXhXhXhXhX",
"hXhXhXhXhXhXhXhXO : 6 :.:.f f f 4 o # hXhXhXhXhXhXhXhXhXhXhX+ X X X X hXhXhXhXhXhXhXhXhXhXhXhXhX",
"hXhXhXhXhXhXhXhXhXo 4 5 6 6 5 : o o hXhXhXhXhXhXhXhXhXhXhXhXhXhXhXhXhXhXhXhXhXhXhXhXhXhXhXhXhXhX",
"hXhXhXhXhXhXhXhXhXo o 4 5 5 : : o O hXhXhXhXhXhXhXhXhXhXhXhXhXhXhXhXhXhXhXhXhXhXhXhXhXhXhXhXhXhX"
};
