/* XPM */
static char *result[] = {
/* columns rows colors chars-per-pixel */
"48 51 225 2 ",
"   c #290C0B",
".  c #380D0E",
"X  c #2E110D",
"o  c #3A1B0E",
"O  c #35160E",
"+  c #2D1216",
"@  c #341914",
"#  c #3B1C11",
"$  c #351A19",
"%  c #3D2314",
"&  c #3E241B",
"*  c #371B25",
"=  c #2E1A39",
"-  c #311931",
";  c #3B2A29",
":  c #3C2733",
">  c #441E11",
",  c #461412",
"<  c #551812",
"1  c #540F0F",
"2  c #7B0F0F",
"3  c #750F0E",
"4  c #6D0D10",
"5  c #442412",
"6  c #4A2512",
"7  c #4C2912",
"8  c #46271A",
"9  c #552914",
"0  c #54331E",
"q  c #4E301D",
"w  c #7A3408",
"e  c #683D18",
"r  c #6E2F17",
"t  c #452A26",
"y  c #463228",
"u  c #472939",
"i  c #53362C",
"p  c #632925",
"a  c #79450C",
"s  c #6B4217",
"d  c #7B4E14",
"f  c #754815",
"g  c #7B5017",
"h  c #5B4B2F",
"j  c #694726",
"k  c #744726",
"l  c #79562C",
"z  c #6D4737",
"x  c #765230",
"c  c #26194D",
"v  c #3E2C54",
"b  c #241D68",
"n  c #2C2975",
"m  c #352D77",
"M  c #332C6B",
"N  c #4E354E",
"B  c #533D76",
"V  c #54485D",
"C  c #7C5348",
"Z  c #6E4E52",
"A  c #6F735D",
"S  c #62675F",
"D  c #725468",
"F  c #676A65",
"G  c #7B7D66",
"H  c #9B1E0B",
"J  c #971D0B",
"K  c #801011",
"L  c #A41F0D",
"P  c #AB1F0F",
"I  c #9B240D",
"U  c #84340A",
"Y  c #8C350B",
"T  c #99370D",
"R  c #82361E",
"E  c #AC200E",
"W  c #A1220D",
"Q  c #A92410",
"!  c #B32110",
"~  c #B92113",
"^  c #B93A18",
"/  c #AB3314",
"(  c #90362D",
")  c #A63929",
"_  c #AC3C33",
"`  c #C72419",
"'  c #C43E19",
"]  c #D1271E",
"[  c #DB2F2F",
"{  c #D9322F",
"}  c #DD3231",
"|  c #DC3B34",
" . c #DC2F31",
".. c #E23335",
"X. c #E43B36",
"o. c #E63439",
"O. c #E9353C",
"+. c #E63B39",
"@. c #E93A3C",
"#. c #824B0E",
"$. c #865318",
"%. c #8F5018",
"&. c #99651C",
"*. c #A46E1B",
"=. c #AB731D",
"-. c #A6701C",
";. c #B5771F",
":. c #984929",
">. c #885724",
",. c #995926",
"<. c #8D5334",
"1. c #A55735",
"2. c #A74A32",
"3. c #916931",
"4. c #A86B23",
"5. c #AE7623",
"6. c #AB752B",
"7. c #BC7B22",
"8. c #B97728",
"9. c #A57631",
"0. c #AB7934",
"q. c #BC7C31",
"w. c #B36428",
"e. c #C4421B",
"r. c #C84724",
"t. c #E34337",
"y. c #E5443B",
"u. c #E64A3D",
"i. c #E8413D",
"p. c #C47D24",
"a. c #CB7B25",
"s. c #C47A27",
"d. c #CB7F31",
"f. c #8B334A",
"g. c #8E5846",
"h. c #AD5648",
"j. c #8A6A52",
"k. c #BF7D43",
"l. c #DB4A58",
"z. c #DC4C53",
"x. c #C27F42",
"c. c #DA4A68",
"v. c #DE5768",
"b. c #D84878",
"n. c #DE5A79",
"m. c #E06D79",
"M. c #E15D56",
"N. c #7C816B",
"B. c #BF8E3B",
"V. c #C98429",
"C. c #C3833B",
"Z. c #C68935",
"A. c #D08935",
"S. c #CC953D",
"D. c #C89138",
"F. c #D09338",
"G. c #878775",
"H. c #8E907C",
"J. c #BE8D40",
"K. c #CB9745",
"L. c #C79757",
"P. c #C28043",
"I. c #D9AB67",
"U. c #DAB26E",
"Y. c #D7B06B",
"T. c #DDB572",
"R. c #DEB975",
"E. c #E2BA76",
"W. c #E5BE7A",
"Q. c #E6B977",
"!. c #EABF6B",
"~. c #D5A25E",
"^. c #E6C17C",
"/. c #38338A",
"(. c #302D87",
"). c #4C3D8E",
"_. c #4D4392",
"`. c #4F4483",
"'. c #7B79B3",
"]. c #3D3AEE",
"[. c #3F3CF0",
"{. c #423DEE",
"}. c #453EF2",
"|. c #533EF2",
" X c #553EEE",
".X c #7C79C9",
"XX c #4A45EC",
"oX c #534BEE",
"OX c #5543ED",
"+X c #5953EB",
"@X c #4642F5",
"#X c #4B44F4",
"$X c #4E4BF4",
"%X c #4A45F8",
"&X c #4A48F8",
"*X c #5447F5",
"=X c #5957F5",
"-X c #6B49EC",
";X c #7747EC",
":X c #6646F2",
">X c #675AF6",
",X c #7356ED",
"<X c #6F69EF",
"1X c #CC399C",
"2X c #8F75B0",
"3X c #D94E88",
"4X c #DE658B",
"5X c #8753E8",
"6X c #824FEB",
"7X c #877AC1",
"8X c #8F9190",
"9X c #9386A4",
"0X c #B4ADB3",
"qX c #A8A1CE",
"wX c #CAC8CA",
"eX c #D7D4CD",
"rX c #DAD6D3",
"tX c #DCD6DB",
"yX c #D9D6D8",
"uX c #C6C3D1",
"iX c #E2D8D8",
"pX c #DAD6E3",
"aX c #D7D4E5",
"sX c #D7CEE1",
"dX c None",
/* pixels */
"dXdXdXdXdXdXdXdXdXdXdXdXdXdXdXdXdX3 2 Y T T T T T 2 2 3 dXdXdXdXdXdXdXdXdXdXdXdXdXdXdXdXdXdXdXdX",
"dXdXdXdXdXdXdXdXdXdXdXdXdXdXdXdXdX2 Y E ! ! ~ ~ E T Y 2 dXdXdXdXdXdXdXdXdXdXdXdXdXdXdXdXdXdXdXdX",
"dXdXdXdXdXdXdXdXdXdXdXdXdXdXdXdX2 U W E  . .....! E P U 2 dXdXdXdXdXdXdXdXdXdXdXdXdXdXdXdXdXdXdX",
"dXdXdXdXdXdXdXdXdXdXdXdXdXdXdXdXU L P } ..........[ E L U dXdXdXdXdXdXdXdXdXdXdXdXdXdXdXdXdXdXdX",
"dXdXdXdXdXdXdXdXdXdXdXdXdXdXdX4 U L  .....o......... .P H U dXdXdXdXdXdXdXdXdXdXdXdXdXdXdXdXdXdX",
"dXdXdXdXdXdXdXdXdXdXdXdXdXdX1 w L [  .....O.O.O.o.....[ L U dXdXdXdXdXdXdXdXdXdXdXdXdXdXdXdXdXdX",
"dXdXdXdXdXdXdXdXdXdXdX  . . , J L  .....O.O.O.O.o.o... .P L w dXdXdXdXdXdXdXdXdXdXdXdXdXdXdXdXdX",
"dXdXdXdXdXdXdXdXdXdX      , < I L  ...o.O.O.O.O.o.o.....[ P H w dXdXdXdXdXdXdXdXdXdXdXdXdXdXdXdX",
"dXdXdXdXdXdXdXdXdXdX    . , < I  .| | O.O.O.O.O.O.O.o... .[ L U dXdXdXdXdXdXdXdXdXdXdXdXdXdXdXdX",
"dXdXdXdXdXdXdXdXdXdXdXX . , 4 I  .} o.O.O.O.O.O.O.O.O..... .P Y K dXdXdXdXdXdXdXdXdXdXdXdXdXdXdX",
"dXdXdXdXdXdXdXdXdXdXdXo , , p r | } O.@.@.O.@.O.O.O.O.o... .! T U U dXdXdXdXdXdXdXdXdXdXdXdXdXdX",
"dXdXdXdXdXdXdXdXdXdXdX> 8 < r r r | @.@.@.@.@.O.O.O.O.] ` ` ~ E L H w dXdXdXdXdXdXdXdXdXdXdXdXdX",
"dXdXdXdXdXdXdXdXdXdXdX5 q 0 s e <.( t.t.i.i.@.@.@.] ] O.o..... .[ L J w dXdXdXdXdXdXdXdXdXdXdXdX",
"dXdXdXdXdXdXdXdXdXdX5 f d %.$.%.q.( :.u.i.i.i.i.@.@.O.o.o.o.....} { W I w dXdXdXdXdXdXdXdXdXdXdX",
"dXdXdXdXdXdXdXdXdX% f g Y.U.,.V.d.Z.:.2.u.i.i.y.@.X.@.@.@.o.o.X.X.| | I w dXdXdXdXdXdXdXdXdXdXdX",
"dXdXdXdXdXdXdXdXdX8 d Y.U.U.E.Z.C.4.w.w.w.r.u.u.y.i.X.X.X.o.X.X.| | | I w dXdXdXdXdXdXdXdXdXdXdX",
"dXdXdXdXdXdXdXdXdX% g Y.Y.R.R.B.6.E.E.Q.A.r.r.' u.y.i.y.i.t.t.X.X.t.| W 9 dXdXdXdXdXdXdXdXdXdXdX",
"dXdXdXdXdXdXdXdXdX% g Y.R.R.B.3.W.W.W.Q.!.A.A.A.r.' ' i.y.t.y.t.| ^ / ~.a 6 dXdXdXdXdXdXdXdXdXdX",
"dXdXdXdXdXdXdXdXdXq g Y.Y.l B.B.^.^.W.^.!.A.A.V.a.a.a.' ' ' e.' ^ 7.~.I.a 6 dXdXdXdXdXdXdXdXdXdX",
"dXdXdXdXdXdXdXdXdX% g Y.l l B.-.^.^.^.^.^.F.F.F.V.V.a.a.a.a.a.a.a.a.I.~.w 5 dXdXdXdXdXdXdXdXdXdX",
"dXdXdXdXdXdXdXdXdX% f g j l R.B.^.^.^.^.^.S.V.V.V.V.a.7.a.p.p.p.p.;.~.#.a > dXdXdXdXdXdXdXdXdXdX",
"dXdXdXdXdXdXdXdXdXdX% f 0 j U.R.9.W.^.^.S.F.F.D.V.V.V.V.a.V.a.;.7.%.#.#.5 dXdXdXdXdXdXdXdXdXdXdX",
"dXdXdXdXdXdXdXdXdXdXdX% q h j R.R.9.0.S.S.F.Z.V.V.V.7.V.V.7.7.;.;.%.#.7 dXdXdXdXdXdXdXdXdXdXdXdX",
"dXdXdXdXdXdXdXdXdXdXdXdXdXq $.>.R.R.Q.Q.E.D.Z.Z.V.V.V.V.7.V.7.;.%.#.7 9 dXdXdXdXdXdXdXdXdXdXdXdX",
"dXdXdXdXdXdXdXdXdXdXdXdXdXdX0 $.%.E.T.Q.P.A.C.C.B.C.C.q.q.8.8.5.5.a 6 dXdXdXdXdXdXdXdXdXdXdXdXdX",
"dXdXdXdXdXdXdXdXdXdXdXdXdXdXp 0 $.%.,.T.C.x.d.x.k.q.1.,.1.q.8.5.4.a > dXdXdXdXdXdXdXdXdXdXdXdXdX",
"dXdXdXdXdXdXdXdXdXdXdXdXdXdXdXp j e ,.,.1.1.h.h.g.g.l.l.g.2.:.f %.r > dXdXdXdXdXdXdXdXdXdXdXdXdX",
"dXdXdXdXdXdXdXdXdXdXdXdXdXdXdXp p Z ) _ z.l.5X5X6X6Xc.c.c.D ( ( e 8 & dXdXdXdXdXdXdXdXdXdXdXdXdX",
"dXdXdXdXdXdXdXdXdXdXdXdXdXdXdXp Z ) ) z.z.l.c.5X;X;Xb.b.b.;XB ( e N u dXdXdXdXdXdXdXdXdXdXdXdXdX",
"dXdXdXdXdXdXdXdXdXdXdXdXdXdXdXV Z ) ) l.v.c.b.6X;X;X;X1X X X).( ( e u dXdXdXdXdXdXdXdXdXdXdXdXdX",
"dXdXdXdXdXdXdXdXdXdXdXdXdXdXN V ) _ l.c.n.b.3X6X-X:X:X1X:X X).B f.Z N dXdXdXdXdXdXdXdXdXdXdXdXdX",
"dXdXdXdXdXdXdXdXdXdXdXdXdXdXV D 2.h.v.v.n.3X3X;X;X X X X X X X).f.F : dXdXdXdXdXdXdXdXdXdXdXdXdX",
"dXdXdXdXdXdXdXdXdXdXdXdXdXV F g.k.m.m.m.4X4X2X,X:X*X|.|.|.#XOX)._.wXF : dXdXdXdXdXdXdXdXdXdXdXdX",
"dXdXdXdXdXdXdXdXdXdXdXdXS Z G.eXiXiXyXrXtX9X2X>X>X:X%X|.#X*X#XXX).uXwXS ; dXdXdXdXdXdXdXdXdXdXdX",
"dXdXdXdXdXdXdXdXdXdXdX; Z j.eXeXyXiXyXyXpXsX2X>X>X*X%X|.@X#X#XOX_.uXwXF ; dXdXdXdXdXdXdXdXdXdXdX",
"dXdXdXdXdXdXdXdXdXdX; h N.eXeX0XyXiXpXpXpXaX7X>X=X*X%X%X@X#X$XoX_.uXwXA ; dXdXdXdXdXdXdXdXdXdXdX",
"dXdXdXdXdXdXdXdXdX@ ; A N.eXeX0XyXwXyXyXaXqX<X=X=X&X%X%X@X%X*XoX_.B wXA ; dXdXdXdXdXdXdXdXdXdXdX",
"dXdXdXdXdXdXdXdXdX% ; A N.eXeXeXpX0XaXaXaXaX.X<X=X&X%X@X@X%X*X+XB V N N t y dXdXdXdXdXdXdXdXdXdX",
"dXdXdXdXdXdXdXdXdX& ; N.N.8XyXeXyXaXaXaXaXaX.X=X=X&X%X@X%X#XoXD Z C L.9.q & dXdXdXdXdXdXdXdXdXdX",
"dXdXdXdXdXdXdXdXdX$ & L.N.N.N.yXyXyXaXaXaX.X=X=X&X&X%X}.}.#X+XD g.L.k.9.q 8 dXdXdXdXdXdXdXdXdXdX",
"dXdXdXdXdXdXdXdXdX$ & 9.l N.N.H.8X8X9X'.'.<X=X$X@X}.{.{.{.|.D Z <.L.0.9.5.7 % dXdXdXdXdXdXdXdXdX",
"dXdXdXdXdXdXdXdXdXdX% y 9.l 3.j.j.<X<X+X+XoX$X$X}.{.{.{.{.|.g.g.<.L.0.5.-.7 # dXdXdXdXdXdXdXdXdX",
"dXdXdXdXdXdXdXdXdXdX% & y g x C g.+X+XoXoXXXXX[.[.[.].]./.B C z l L.5.5.=.7 % dXdXdXdXdXdXdXdXdX",
"dXdXdXdXdXdXdXdXdXdXdX% & 9.k x x C +XXXXX/./.(.(.(.(.n m v u >.>.5.K.5.=.=.6 o dXdXdXdXdXdXdXdX",
"dXdXdXdXdXdXdXdXdXdXdX@ % J.s k z z z N m n n n n n n M v M t i g $.S.5.=.*.6 o dXdXdXdXdXdXdXdX",
"dXdXdXdXdXdXdXdXdXdXdXO o &.s s e e : = = b n dXdXdXb c c * t f d $.S.=.=.*.6 o dXdXdXdXdXdXdXdX",
"dXdXdXdXdXdXdXdXdXdXdXX O o &.&.e $ * - c dXdXdXdXdXdXdX- * 8 -.d d S.=.-.*.6 @ dXdXdXdXdXdXdXdX",
"dXdXdXdXdXdXdXdXdXdXdXdX  X O O $ + + dXdXdXdXdXdXdXdXdXdX$ % &.*.d =.S.*.*.5 # dXdXdXdXdXdXdXdX",
"dXdXdXdXdXdXdXdXdXdXdXdXdXX X O X + dXdXdXdXdXdXdXdXdXdXdX@ o 5 a a #.*.*.7 > O dXdXdXdXdXdXdXdX",
"dXdXdXdXdXdXdXdXdXdXdXdXdXdXdXdXdXdXdXdXdXdXdXdXdXdXdXdXdXdXo o 5 6 7 7 7 5 o dXdXdXdXdXdXdXdXdX",
"dXdXdXdXdXdXdXdXdXdXdXdXdXdXdXdXdXdXdXdXdXdXdXdXdXdXdXdXdXdXO o o > 6 > > o o dXdXdXdXdXdXdXdXdX"
};
