/* XPM */
static char *result[] = {
/* columns rows colors chars-per-pixel */
"48 51 220 2 ",
"   c #240C0C",
".  c #280F0C",
"X  c #2D120C",
"o  c #2B1107",
"O  c #34140D",
"+  c #3A1B0E",
"@  c #2C1217",
"#  c #3B1B13",
"$  c #351613",
"%  c #250E12",
"&  c #3F200F",
"*  c #3C2017",
"=  c #391B20",
"-  c #2C1632",
";  c #3B262A",
":  c #3F3236",
">  c #1D0909",
",  c #431D12",
"<  c #431D18",
"1  c #4D1E15",
"2  c #7C1917",
"3  c #681F06",
"4  c #59230B",
"5  c #4A2412",
"6  c #43251A",
"7  c #4B2C1D",
"8  c #482418",
"9  c #5A2617",
"0  c #4F301F",
"q  c #68280B",
"w  c #732109",
"e  c #7C230C",
"r  c #722D0F",
"t  c #6E340D",
"y  c #682C16",
"u  c #762916",
"i  c #6D3415",
"p  c #68321D",
"a  c #743A17",
"s  c #401E34",
"d  c #4D2C21",
"f  c #482426",
"g  c #5A2C25",
"h  c #562A24",
"j  c #5A3825",
"k  c #583326",
"l  c #452636",
"z  c #433234",
"x  c #4A3434",
"c  c #563736",
"v  c #572E2B",
"b  c #672B24",
"n  c #683729",
"m  c #77392A",
"M  c #683735",
"N  c #743A37",
"B  c #702B2C",
"V  c #7B4A1E",
"C  c #75441A",
"Z  c #67442C",
"A  c #6F4132",
"S  c #774834",
"D  c #7D5436",
"F  c #74462C",
"G  c #2A1B4A",
"H  c #342859",
"J  c #352B66",
"K  c #362D73",
"L  c #3A3475",
"P  c #46335C",
"I  c #48314C",
"U  c #6B3841",
"Y  c #4A3765",
"T  c #46377A",
"R  c #4D356E",
"E  c #6A695F",
"W  c #504771",
"Q  c #724875",
"!  c #767468",
"~  c #706D68",
"^  c #49404A",
"/  c #980D0E",
"(  c #851B19",
")  c #961B19",
"_  c #930F0D",
"`  c #A31616",
"'  c #852817",
"]  c #86331A",
"[  c #92331C",
"{  c #892513",
"}  c #982936",
"|  c #943832",
" . c #8F3033",
".. c #A82423",
"X. c #A63529",
"o. c #A73934",
"O. c #B33A33",
"+. c #B42F26",
"@. c #A1301C",
"#. c #D21F30",
"$. c #D52233",
"%. c #DB2B3C",
"&. c #D72838",
"*. c #DA343D",
"=. c #D3343A",
"-. c #CE2C34",
";. c #95452B",
":. c #895627",
">. c #88473A",
",. c #944532",
"<. c #865A3A",
"1. c #945536",
"2. c #8C5329",
"3. c #A5502F",
"4. c #92673E",
"5. c #9D743E",
"6. c #8F613C",
"7. c #A9642E",
"8. c #B57834",
"9. c #86451A",
"0. c #C67D34",
"q. c #8E2745",
"w. c #DD2E42",
"e. c #DC3445",
"r. c #DC3C45",
"t. c #DA3A48",
"y. c #D23C58",
"u. c #E13E46",
"i. c #CC3868",
"p. c #CD3C73",
"a. c #925245",
"s. c #8D4F42",
"d. c #976A40",
"f. c #9E714F",
"g. c #A27942",
"h. c #806F63",
"j. c #AF5769",
"k. c #DE444A",
"l. c #D6475A",
"z. c #D95658",
"x. c #E04147",
"c. c #D84E67",
"v. c #DD636B",
"b. c #7E8074",
"n. c #BD8432",
"m. c #B88239",
"M. c #BB812F",
"N. c #C18B3A",
"B. c #BB8042",
"V. c #80807D",
"C. c #CB9945",
"Z. c #C69541",
"A. c #D5B35B",
"S. c #D8AC64",
"D. c #DAB165",
"F. c #DCB56A",
"G. c #DFB96E",
"H. c #D7B366",
"J. c #DEB476",
"K. c #DAAE71",
"L. c #E4B66B",
"P. c #E3B96D",
"I. c #E1B363",
"U. c #E3BD72",
"Y. c #E2B975",
"T. c #E5C276",
"R. c #E7C579",
"E. c #E8C679",
"W. c #E8C577",
"Q. c #3B3284",
"!. c #382F80",
"~. c #42368A",
"^. c #5B4082",
"/. c #65458B",
"(. c #764D84",
"). c #7C7B8D",
"_. c #7F7DA5",
"`. c #443DEC",
"'. c #4B43EE",
"]. c #4942EA",
"[. c #574BEA",
"{. c #5B53ED",
"}. c #5E55E7",
"|. c #4D48F1",
" X c #534DF1",
".X c #5A54F2",
"XX c #624EED",
"oX c #764EEA",
"OX c #6658E8",
"+X c #7553EA",
"@X c #635DF3",
"#X c #6966EA",
"$X c #7866E8",
"%X c #7B71E7",
"&X c #AF7B82",
"*X c #856BE3",
"=X c #998A9A",
"-X c #868798",
";X c #9DA08B",
":X c #B2AE99",
">X c #8C88A4",
",X c #B3B3A9",
"<X c #AE8599",
"1X c #DDBE98",
"2X c #DBBEA5",
"3X c #DEC19D",
"4X c #DACCB4",
"5X c #D3D3BD",
"6X c #DAD2BB",
"7X c #DDC1A6",
"8X c #E2CDB7",
"9X c #E3D2BC",
"0X c #DCDBCD",
"qX c #D9D8C5",
"wX c #DCDBD2",
"eX c #D7D8D2",
"rX c #E1DBCB",
"tX c #E0DAC7",
"yX c #E1DED0",
"uX c None",
/* pixels */
"uXuXuXuXuXuXuXuXuXuXuXuXuXuXuXuXuXuXuXuXuX2 2 ( [ | ] ] ] B 2 uXuXuXuXuXuXuXuXuXuXuXuXuXuXuXuXuX",
"uXuXuXuXuXuXuXuXuXuXuXuXuXuXuXuXuXuXuXuX2 ( ] [ ........` ] u uXuXuXuXuXuXuXuXuXuXuXuXuXuXuXuXuX",
"uXuXuXuXuXuXuXuXuXuXuXuXuXuXuXuXuXuXuX( u ' ` ..w.t.e.e...) u b uXuXuXuXuXuXuXuXuXuXuXuXuXuXuXuX",
"uXuXuXuXuXuXuXuXuXuXuXuXuXuXuXuXuXuXuXe ' ` w.e.t.r.r.k.t.=.) u uXuXuXuXuXuXuXuXuXuXuXuXuXuXuXuX",
"uXuXuXuXuXuXuXuXuXuXuXuXuXuXuXuXuXuXw { / %.w.e.x.9X8X4X6X=.' u 9 uXuXuXuXuXuXuXuXuXuXuXuXuXuXuX",
"uXuXuXuXuXuXuXuXuXuXuXuXuXuXuXuXuXw ( ` &.%.w.u.8X8XO.4XX.4X-.( q uXuXuXuXuXuXuXuXuXuXuXuXuXuXuX",
"uXuXuXuXuXuXuXuXuXuXuXuXuXuXuXuXw e / $.&.w.e.u.8X8XO.o.X.4X=.( q < uXuXuXuXuXuXuXuXuXuXuXuXuXuX",
"uXuXuXuXuXuXuXuXuXuXuXuXuXuXuXuXw / #.&.%.w.u.u.8X8XO.o.} 4X[ f < $ X .   uXuXuXuXuXuXuXuXuXuXuX",
"uXuXuXuXuXuXuXuXuXuXuXuXuXuXuXw _ / $.$.w.u.e.u.k.8X9X>.N n g f < $ X     > uXuXuXuXuXuXuXuXuXuX",
"uXuXuXuXuXuXuXuXuXuXuXuXuXuX2 e / $.&.%.w.e.e.t.k.,.>.N N n g 7 6 # O .   uXuXuXuXuXuXuXuXuXuXuX",
"uXuXuXuXuXuXuXuXuXuXuXuXq w e { ` &.%.%.w.u.u.O.s.>.S S S n n d 6 * * uXuXuXuXuXuXuXuXuXuXuXuXuX",
"uXuXuXuXuXuXuXuXuXuXuX3 w _ / ` $.&.%.w.e.+.| ,.>.>.<.I.F.D.S.V 0 7 6 uXuXuXuXuXuXuXuXuXuXuXuXuX",
"uXuXuXuXuXuXuXuXuXuXq q _ #.$.` &.*.*.+.| | ,.1.U.U.G.G.G.F.C.V j j 0 uXuXuXuXuXuXuXuXuXuXuXuXuX",
"uXuXuXuXuXuXuXuXuXuXq _ #.#.$.&.%.*.[ 3.3.0.P.P.U.6.6.U.G.G.D S Z j 0 j uXuXuXuXuXuXuXuXuXuXuXuX",
"uXuXuXuXuXuXuXuXuXuXq _ -.-.=.*.+.| ;.0.L.U.U.U.U.d.4.T.T.T.<.D :.:.V 7 uXuXuXuXuXuXuXuXuXuXuXuX",
"uXuXuXuXuXuXuXuXuXuXr ) -.=.@.;.;.3.L.L.U.U.U.T.T.5.5.T.R.E.d.N.T.G.N.V 7 uXuXuXuXuXuXuXuXuXuXuX",
"uXuXuXuXuXuXuXuXuXuXr ] @.X.2.;.3.7.P.P.T.T.T.W.W.g.g.E.E.1XW.W.T.G.H.N.C * uXuXuXuXuXuXuXuXuXuX",
"uXuXuXuXuXuXuXuXuXuXy 9.I.D.I.L.7.8.8.0.W.E.W.E.R.C.C.E.E.E.W.W.T.G.F.H.V * uXuXuXuXuXuXuXuXuXuX",
"uXuXuXuXuXuXuXuXuX8 a A.S.I.P.P.W.8.8.m.E.E.R.R.R.R.R.R.E.E.W.W.T.G.F.H.C 6 uXuXuXuXuXuXuXuXuXuX",
"uXuXuXuXuXuXuXuXuX8 a S.S.N.N.P.W.C.m.E.E.E.R.g.5.T.T.T.T.W.W.W.U.G.F.Z.C * uXuXuXuXuXuXuXuXuXuX",
"uXuXuXuXuXuXuXuXuX6 C S.D.L.N.T.W.W.W.W.E.E.5.5.d.d.T.R.T.U.T.G.G.F.C.V 0 uXuXuXuXuXuXuXuXuXuXuX",
"uXuXuXuXuXuXuXuXuX* 7 C A.F.L.T.T.W.W.W.E.W.5.4.D s.D D G.G.G.H.F.Z.V 0 uXuXuXuXuXuXuXuXuXuXuXuX",
"uXuXuXuXuXuXuXuXuXuX6 0 V D.I.T.P.T.T.T.W.R.G.B.D E D S S S Z Z Z j 0 uXuXuXuXuXuXuXuXuXuXuXuXuX",
"uXuXuXuXuXuXuXuXuXuXuX6 0 V :.:.P.P.T.T.T.U.R.J.<.:.S Z Z Z j j d 7 uXuXuXuXuXuXuXuXuXuXuXuXuXuX",
"uXuXuXuXuXuXuXuXuXuXuXuXuXd j n :.1.P.Y.Y.L.Y.Y.F.F.M n n g h d 6 uXuXuXuXuXuXuXuXuXuXuXuXuXuXuX",
"uXuXuXuXuXuXuXuXuXuXuXuXuXuXF S n N 1.1.g.1XY.Y.K.K.K.S.4.a f f uXuXuXuXuXuXuXuXuXuXuXuXuXuXuXuX",
"uXuXuXuXuXuXuXuXuXuXuXuXuXuXuXm F S N U 1.a.a.a.s.>.>.S B f f ; uXuXuXuXuXuXuXuXuXuXuXuXuXuXuXuX",
"uXuXuXuXuXuXuXuXuXuXuXuXuXuXuXuXm B  .} Q *X+XQ l.i.q.} Y P l f uXuXuXuXuXuXuXuXuXuXuXuXuXuXuXuX",
"uXuXuXuXuXuXuXuXuXuXuXuXuXuXuXuXB  .} y.Q oXoXoXQ i.i.i.} P P s uXuXuXuXuXuXuXuXuXuXuXuXuXuXuXuX",
"uXuXuXuXuXuXuXuXuXuXuXuXuXuXuXm m } y.y.i.(.oXoXoX/.i.p.i.q.R P uXuXuXuXuXuXuXuXuXuXuXuXuXuXuXuX",
"uXuXuXuXuXuXuXuXuXuXuXuXuXuXuXm } y.y.l.c.(.+X+XoXXX/./.^.R R P H uXuXuXuXuXuXuXuXuXuXuXuXuXuXuX",
"uXuXuXuXuXuXuXuXuXuXuXuXuXuXm | | z.z.z.v.(.+X+X+X+XOXoXXX[.[.A.M g uXuXuXuXuXuXuXuXuXuXuXuXuXuX",
"uXuXuXuXuXuXuXuXuXuXuXuXuXc h.3.z.v.v.v.j.*X$X+X<X1X1X$XXXXX}.D.A.k h uXuXuXuXuXuXuXuXuXuXuXuXuX",
"uXuXuXuXuXuXuXuXuXuXuXuXx ~ 5XqXtXrXtXtX0X;X*X$X1X1X1X1XOX{.[.D.A.n g uXuXuXuXuXuXuXuXuXuXuXuXuX",
"uXuXuXuXuXuXuXuXuXuXuXuXc ! 6XqXtXrX0XyXrX=X=X%X3X1X1X1XOX.X Xf.A.M g uXuXuXuXuXuXuXuXuXuXuXuXuX",
"uXuXuXuXuXuXuXuXuXuXuXz E 5XqX:XtXrXyXyXwXwX>X%X<X3X1X}.{. X|.].L J uXuXuXuXuXuXuXuXuXuXuXuXuXuX",
"uXuXuXuXuXuXuXuXuXuXuXz E 5X6X:X0X,XyXyXwXeX>X%X#X#X.X.X X|.|.].L J uXuXuXuXuXuXuXuXuXuXuXuXuXuX",
"uXuXuXuXuXuXuXuXuXuXuX: E 5XqXqXqX,XyXyXeXeX>X#X@X.X.X X|.'.`.Q.J J uXuXuXuXuXuXuXuXuXuXuXuXuXuX",
"uXuXuXuXuXuXuXuXuXuXuX; E ! 5XqXqXeXeXeX,X-X_..X.X X X|.'.].`.K J H uXuXuXuXuXuXuXuXuXuXuXuXuXuX",
"uXuXuXuXuXuXuXuXuXuXuXuX: ~ ! ;XqXqXqXqX-X_.#X.X.X X'.'.].`.!.K G G uXuXuXuXuXuXuXuXuXuXuXuXuXuX",
"uXuXuXuXuXuXuXuXuXuXuXuXuXz ~ ~ b.b.b.b.).}.{. X`.`.`.`.Q.!.J G - G uXuXuXuXuXuXuXuXuXuXuXuXuXuX",
"uXuXuXuXuXuXuXuXuXuXuXuXuXuXz I W W #X}.}.{.[.[.[.~.~.~.K R J - - @ uXuXuXuXuXuXuXuXuXuXuXuXuXuX",
"uXuXuXuXuXuXuXuXuXuXuXuXuXuXuX^ Y W W W W W ^.T T T T K K B v h @ % % uXuXuXuXuXuXuXuXuXuXuXuXuX",
"uXuXuXuXuXuXuXuXuXuXuXuXuXuXuX: ; ; z M M U U H U U U B - v b 9 4 @ % uXuXuXuXuXuXuXuXuXuXuXuXuX",
"uXuXuXuXuXuXuXuXuXuXuXuXuXuXuXuX; ; k n n n l n B M b b p $ 9 4 4 %   uXuXuXuXuXuXuXuXuXuXuXuXuX",
"uXuXuXuXuXuXuXuXuXuXuXuXuXuXuXuX@ # 8.p p f m n b u p y y # 4 4 . . . uXuXuXuXuXuXuXuXuXuXuXuXuX",
"uXuXuXuXuXuXuXuXuXuXuXuXuXuXuXuX@ $ # 8.n.i i i i y r y q # + O X . uXuXuXuXuXuXuXuXuXuXuXuXuXuX",
"uXuXuXuXuXuXuXuXuXuXuXuXuXuXuXuXuX@ $ # 6 n.n.n.t t t t q + O o . uXuXuXuXuXuXuXuXuXuXuXuXuXuXuX",
"uXuXuXuXuXuXuXuXuXuXuXuXuXuXuXuXuXuX& $ & 5 5 5 n.n.n.M., + + o uXuXuXuXuXuXuXuXuXuXuXuXuXuXuXuX",
"uXuXuXuXuXuXuXuXuXuXuXuXuXuXuXuXuXuXuX& & * 6 5 5 5 5 , + O O o uXuXuXuXuXuXuXuXuXuXuXuXuXuXuXuX",
"uXuXuXuXuXuXuXuXuXuXuXuXuXuXuXuXuXuXuXuX+ & & & , , , + O o o uXuXuXuXuXuXuXuXuXuXuXuXuXuXuXuXuX"
};
