/* XPM */
static char *result[] = {
/* columns rows colors chars-per-pixel */
"48 51 218 2 ",
"   c #240C0C",
".  c #280F0C",
"X  c #2D110E",
"o  c #34140D",
"O  c #3C180F",
"+  c #2C1217",
"@  c #331512",
"#  c #3C1B13",
"$  c #371815",
"%  c #250E12",
"&  c #3C2017",
"*  c #391B20",
"=  c #2F162F",
"-  c #3B262A",
";  c #3F3030",
":  c #1D0909",
">  c #431E11",
",  c #431D18",
"<  c #411D0F",
"1  c #681F06",
"2  c #59230B",
"3  c #4A2412",
"4  c #43241A",
"5  c #4B2C1D",
"6  c #482418",
"7  c #5A2617",
"8  c #4F301F",
"9  c #68280B",
"0  c #732109",
"q  c #7C230C",
"w  c #722D0F",
"e  c #6E340D",
"r  c #682C16",
"t  c #772B14",
"y  c #6D3415",
"u  c #68321D",
"i  c #743A17",
"p  c #401E34",
"a  c #4D2C21",
"s  c #4A2425",
"d  c #5A2C25",
"f  c #562A24",
"g  c #5A3526",
"h  c #462936",
"j  c #433234",
"k  c #4A3434",
"l  c #563736",
"z  c #572E2B",
"x  c #652E25",
"c  c #683729",
"v  c #793929",
"b  c #683735",
"n  c #733D38",
"m  c #652F33",
"M  c #7B4A1E",
"N  c #75441A",
"B  c #67442C",
"V  c #6F4132",
"C  c #774834",
"Z  c #7D5436",
"A  c #311A40",
"S  c #362C67",
"D  c #362D73",
"F  c #3A3475",
"G  c #3D3059",
"H  c #46335C",
"J  c #48314C",
"K  c #6B3841",
"L  c #4A3765",
"P  c #46377A",
"I  c #4D356E",
"U  c #6A695F",
"Y  c #504576",
"T  c #50486F",
"R  c #724875",
"E  c #767468",
"W  c #706D68",
"Q  c #980D0E",
"!  c #961B19",
"~  c #8E1311",
"^  c #A31616",
"/  c #872A15",
"(  c #86331A",
")  c #92331C",
"_  c #892513",
"`  c #A1301C",
"'  c #8D243E",
"]  c #982936",
"[  c #943832",
"{  c #8F372E",
"}  c #A82423",
"|  c #A63529",
" . c #A73934",
".. c #B33A33",
"X. c #B42F26",
"o. c #D21F30",
"O. c #D52233",
"+. c #DB2B3C",
"@. c #D72838",
"#. c #DA343D",
"$. c #D3343A",
"%. c #CE2C34",
"&. c #95452B",
"*. c #895627",
"=. c #88473A",
"-. c #944532",
";. c #865A3A",
":. c #945536",
">. c #8C5329",
",. c #A5502F",
"<. c #92673E",
"1. c #9D743E",
"2. c #8F613C",
"3. c #A9642E",
"4. c #B57834",
"5. c #86451A",
"6. c #C67D34",
"7. c #8E2745",
"8. c #DD2E42",
"9. c #DC3445",
"0. c #DC3C45",
"q. c #DA3A48",
"w. c #D23C58",
"e. c #E13E46",
"r. c #CC3868",
"t. c #CD3C73",
"y. c #925245",
"u. c #8D4F42",
"i. c #976A40",
"p. c #9E714F",
"a. c #A27942",
"s. c #806F63",
"d. c #AF5769",
"f. c #DE444A",
"g. c #D6475A",
"h. c #D95658",
"j. c #E04147",
"k. c #D84E67",
"l. c #DD636B",
"z. c #7E8074",
"x. c #BD8432",
"c. c #B88239",
"v. c #BB812F",
"b. c #C18B3A",
"n. c #BB8042",
"m. c #80807D",
"M. c #CB9945",
"N. c #C69541",
"B. c #D5B35B",
"V. c #D8AC64",
"C. c #DAB165",
"Z. c #DCB56A",
"A. c #DFB96E",
"S. c #D7B366",
"D. c #DEB476",
"F. c #DAAE71",
"G. c #E4B66B",
"H. c #E3B96D",
"J. c #E1B363",
"K. c #E3BD72",
"L. c #E2B975",
"P. c #E5C276",
"I. c #E7C579",
"U. c #E8C679",
"Y. c #E8C577",
"T. c #3B3284",
"R. c #382F80",
"E. c #42368A",
"W. c #5B4082",
"Q. c #65458B",
"!. c #764D84",
"~. c #7C7B8D",
"^. c #7F7DA5",
"/. c #443DEC",
"(. c #4B43EE",
"). c #4942EA",
"_. c #574BEA",
"`. c #5B53ED",
"'. c #5E55E7",
"]. c #4D48F1",
"[. c #534DF1",
"{. c #5A54F2",
"}. c #624EED",
"|. c #764EEA",
" X c #625CEC",
".X c #6757E7",
"XX c #7553EA",
"oX c #635DF3",
"OX c #6966EA",
"+X c #7866E8",
"@X c #7B71E7",
"#X c #AF7B82",
"$X c #856BE3",
"%X c #998A9A",
"&X c #868798",
"*X c #9DA08B",
"=X c #B2AE99",
"-X c #8C88A4",
";X c #B3B3A9",
":X c #AE8599",
">X c #DDBE9C",
",X c #DDBD92",
"<X c #DBBEA5",
"1X c #DEC19D",
"2X c #DACCB4",
"3X c #D3D3BD",
"4X c #DAD2BB",
"5X c #DDC1A6",
"6X c #E2CDB7",
"7X c #E3D2BC",
"8X c #DCDBCD",
"9X c #D9D8C5",
"0X c #DCDBD2",
"qX c #D7D8D2",
"wX c #E1DBCB",
"eX c #E0DAC7",
"rX c #E1DED0",
"tX c None",
/* pixels */
"tXtXtXtXtXtXtXtXtXtXtXtXtXtXtXtXtXtXtX( ) ) ) ) tXtXtXtXtXtXtXtXtXtXtXtXtXtXtXtXtXtXtXtXtXtXtXtX",
"tXtXtXtXtXtXtXtXtXtXtXtXtXtXtXtXtXt ( ! } } } } ) / tXtXtXtXtXtXtXtXtXtXtXtXtXtXtXtXtXtXtXtXtXtX",
"tXtXtXtXtXtXtXtXtXtXtXtXtXtXtXtXtXt ! } q.q.9.8.} ^ / t tXtXtXtXtXtXtXtXtXtXtXtXtXtXtXtXtXtXtXtX",
"tXtXtXtXtXtXtXtXtXtXtXtXtXtXtXtXr _ 9.q.0.0.0.e.9.+.^ / t tXtXtXtXtXtXtXtXtXtXtXtXtXtXtXtXtXtXtX",
"tXtXtXtXtXtXtXtXtXtXtXtXtXtXtXtXt ! $.2X2X2XeXe.8.8.8.^ _ 0 tXtXtXtXtXtXtXtXtXtXtXtXtXtXtXtXtXtX",
"tXtXtXtXtXtXtXtXtXtXtXtXtXtXtX9 ~ $.2X| 2X..6X6Xq.8.8.@.Q _ 0 tXtXtXtXtXtXtXtXtXtXtXtXtXtXtXtXtX",
"tXtXtXtXtXtXtXtXtXtXtXtXtXtXtX9 t 9.3X|  ...6X6Xe.8.8.@.O.Q q 0 tXtXtXtXtXtXtXtXtXtXtXtXtXtXtXtX",
"tXtXtXtXtXtXtXtXtXtXtX  . + @ , s ! 2X[  ...6X6Xe.e.8.+.@.o.Q 0 tXtXtXtXtXtXtXtXtXtXtXtXtXtXtXtX",
"tXtXtXtXtXtXtXtXtXtX:   . X $ , s d b n C 7X6Xf.q.9.8.8.O.O.^ ~ 0 tXtXtXtXtXtXtXtXtXtXtXtXtXtXtX",
"tXtXtXtXtXtXtXtXtXtXtX  . @ $ , f g c V n =.=.f.w.9.e.8.+.O.o.Q q tXtXtXtXtXtXtXtXtXtXtXtXtXtXtX",
"tXtXtXtXtXtXtXtXtXtXtXtXtXtX, 5 a c c C =.C u.=...e.e.8.+.@.O.^ _ q 0 9 tXtXtXtXtXtXtXtXtXtXtXtX",
"tXtXtXtXtXtXtXtXtXtXtXtXtXtXtXa N V.C.Z.J.=.=.-.[ [ X.e.8.+.@.O.Q Q Q 0 9 tXtXtXtXtXtXtXtXtXtXtX",
"tXtXtXtXtXtXtXtXtXtXtXtXtXtXtXg 5.M.S.A.G.H.L.K.:.-.-.[ X.8.+.@.^ O.o.~ 0 1 tXtXtXtXtXtXtXtXtXtX",
"tXtXtXtXtXtXtXtXtXtXtXtXtXa g B C Z A.A.K.<.:.K.K.G.6.,.,.) #.#.@.%.O.o.~ 9 tXtXtXtXtXtXtXtXtXtX",
"tXtXtXtXtXtXtXtXtXtXtXtX5 M *.*.Z ;.P.P.K.i.p.K.K.K.H.G.b.&.{ X.$.@.%.O.~ 9 tXtXtXtXtXtXtXtXtXtX",
"tXtXtXtXtXtXtXtXtXtXtX5 M N.S.A.x.<.I.I.K.1.1.Y.Y.K.K.G.J.G.,.&.&.X.$.$._ w tXtXtXtXtXtXtXtXtXtX",
"tXtXtXtXtXtXtXtXtXtX& N N.S.A.K.U.U.U.U.U.c.c.I.I.I.I.P.A.A.3.3.&.&.| ` ( i tXtXtXtXtXtXtXtXtXtX",
"tXtXtXtXtXtXtXtXtXtX& N S.Z.A.P.U.U.,XU.U.n.N.1XI.I.I.I.c.1.4.3.G.G.C.B.5.7 tXtXtXtXtXtXtXtXtXtX",
"tXtXtXtXtXtXtXtXtXtX5 N S.Z.A.P.Y.U.U.U.I.I.I.I.I.P.I.I.x.x.4.P.H.G.G.J.V.i 3 tXtXtXtXtXtXtXtXtX",
"tXtXtXtXtXtXtXtXtXtX& N N.S.A.P.Y.Y.U.U.I.P.I.i.c.P.I.I.U.b.b.P.H.b.x.Z.V.N 6 tXtXtXtXtXtXtXtXtX",
"tXtXtXtXtXtXtXtXtXtXtX8 M M.A.A.A.P.P.P.P.A.i.i.<.1.U.U.U.U.Y.P.P.b.Z.C.B.N 4 tXtXtXtXtXtXtXtXtX",
"tXtXtXtXtXtXtXtXtXtXtXtX8 M N.Z.S.A.A.A.Z ;.Z i.<.1.I.U.U.Y.Y.P.H.H.C.B.N 5 & tXtXtXtXtXtXtXtXtX",
"tXtXtXtXtXtXtXtXtXtXtXtXtX8 g B B B Z B Z Z Z u.c.I.I.P.I.P.P.H.H.Z.S.M 5 4 tXtXtXtXtXtXtXtXtXtX",
"tXtXtXtXtXtXtXtXtXtXtXtXtXtX4 a g g B B B C Z Z A.P.L.P.P.P.H.A.*.*.M 8 5 tXtXtXtXtXtXtXtXtXtXtX",
"tXtXtXtXtXtXtXtXtXtXtXtXtXtXtX4 a a z g c V F.F.D.L.L.L.L.L.:.*.c g 8 tXtXtXtXtXtXtXtXtXtXtXtXtX",
"tXtXtXtXtXtXtXtXtXtXtXtXtXtXtXtXtX4 v ,.V.F.F.F.D.D.D.N.:.:.V c tXtXtXtXtXtXtXtXtXtXtXtXtXtXtXtX",
"tXtXtXtXtXtXtXtXtXtXtXtXtXtXtXtXtXtXz v n =.u.u.y.y.y.:.n b tXtXtXtXtXtXtXtXtXtXtXtXtXtXtXtXtXtX",
"tXtXtXtXtXtXtXtXtXtXtXtXtXtXtXtXtXtXJ L ' 7.g.g.R XXXXR ] =.tXtXtXtXtXtXtXtXtXtXtXtXtXtXtXtXtXtX",
"tXtXtXtXtXtXtXtXtXtXtXtXtXtXtXtXtXH H ' r.r.r.R |.|.|.R w.] { tXtXtXtXtXtXtXtXtXtXtXtXtXtXtXtXtX",
"tXtXtXtXtXtXtXtXtXtXtXtXtXtXtXtXH L ' r.t.t.Q.|.|.|.!.w.g.w.] v tXtXtXtXtXtXtXtXtXtXtXtXtXtXtXtX",
"tXtXtXtXtXtXtXtXtXtXtXtXtXtXtXH H I P E.Q.Q.}.XX|.|.!.k.g.w.q.] v tXtXtXtXtXtXtXtXtXtXtXtXtXtXtX",
"tXtXtXtXtXtXtXtXtXtXtXtXtXtXd b B._.}.|..X.XXXXXXXXX!.l.k.h.h.[ [ C tXtXtXtXtXtXtXtXtXtXtXtXtXtX",
"tXtXtXtXtXtXtXtXtXtXtXtXtX7 g B.S._.}..X.X,X,Xd.@X+X$Xd.l.l.l.h.,.s.l tXtXtXtXtXtXtXtXtXtXtXtXtX",
"tXtXtXtXtXtXtXtXtXtXtXtXtXg b B.Z.'.}..X,X,X>X1X@X$X%X0XeXeXwXeX9X3XE k tXtXtXtXtXtXtXtXtXtXtXtX",
"tXtXtXtXtXtXtXtXtXtXtXtXtXd l S.p._.{.'.>X1X1X5X@X%X%XrXrXeXeXeXeX3XE l tXtXtXtXtXtXtXtXtXtXtXtX",
"tXtXtXtXtXtXtXtXtXtXtXtXtXtXG F ).[.[.{.'.5X5X:X@X-X0XrXrXrXrXeX=X3X3XU j tXtXtXtXtXtXtXtXtXtXtX",
"tXtXtXtXtXtXtXtXtXtXtXtXtXtXS F ).(.].[.{.}.oXOX+X-XqXqX8XrX;X8X=X9X3XU ; tXtXtXtXtXtXtXtXtXtXtX",
"tXtXtXtXtXtXtXtXtXtXtXtXtXtXtXD T.(.(.].[.{.oXoXOX-XqXqX8XrX;X8XeX3X3XU ; tXtXtXtXtXtXtXtXtXtXtX",
"tXtXtXtXtXtXtXtXtXtXtXtXtXtXtXS D /./.].].[.{.{.oX^.&X;XqXqX8X9X9X3XE U ; tXtXtXtXtXtXtXtXtXtXtX",
"tXtXtXtXtXtXtXtXtXtXtXtXtXtXtXtXD T./././.(.}.}.{.oX^.&X8X9X9X9X*Xz.U ; tXtXtXtXtXtXtXtXtXtXtXtX",
"tXtXtXtXtXtXtXtXtXtXtXtXtXtXtX= A D R.T././././.`.`.'.~.m.z.z.z.W W j tXtXtXtXtXtXtXtXtXtXtXtXtX",
"tXtXtXtXtXtXtXtXtXtXtXtXtXtX+ = = S D P E.E.E./.].[.`.`.'.OXT T J j tXtXtXtXtXtXtXtXtXtXtXtXtXtX",
"tXtXtXtXtXtXtXtXtXtXtXtXtX% + + 7 z m I D P P E.P Y Y Y T T T G tXtXtXtXtXtXtXtXtXtXtXtXtXtXtXtX",
"tXtXtXtXtXtXtXtXtXtXtXtXtX% + 3 7 f f = m m m K J K K K b j ; - tXtXtXtXtXtXtXtXtXtXtXtXtXtXtXtX",
"tXtXtXtXtXtXtXtXtXtXtXtXtX. . 2 2 r * u x x m v m h v c c g * * tXtXtXtXtXtXtXtXtXtXtXtXtXtXtXtX",
"tXtXtXtXtXtXtXtXtXtXtXtXtX  . X 2 2 # r w u u x c u s u u c.& + tXtXtXtXtXtXtXtXtXtXtXtXtXtXtXtX",
"tXtXtXtXtXtXtXtXtXtXtXtXtXtX. X o o # 9 9 y y y y y u c.c.$ @ + tXtXtXtXtXtXtXtXtXtXtXtXtXtXtXtX",
"tXtXtXtXtXtXtXtXtXtXtXtXtXtXtXX X o O 9 9 e e e x.b.x.> & $ X tXtXtXtXtXtXtXtXtXtXtXtXtXtXtXtXtX",
"tXtXtXtXtXtXtXtXtXtXtXtXtXtXtXtXtXo O < v.v.x.x.3 3 3 # O tXtXtXtXtXtXtXtXtXtXtXtXtXtXtXtXtXtXtX",
"tXtXtXtXtXtXtXtXtXtXtXtXtXtXtXtXtXtXo O > 3 3 3 3 3 # tXtXtXtXtXtXtXtXtXtXtXtXtXtXtXtXtXtXtXtXtX",
"tXtXtXtXtXtXtXtXtXtXtXtXtXtXtXtXtXtXtXtX< > > > tXtXtXtXtXtXtXtXtXtXtXtXtXtXtXtXtXtXtXtXtXtXtXtX"
};
