/* XPM */
static char *result[] = {
/* columns rows colors chars-per-pixel */
"48 48 219 2 ",
"   c #230C0B",
".  c #280F0D",
"X  c #2C110E",
"o  c #36190B",
"O  c #36180D",
"+  c #2D1315",
"@  c #361A13",
"#  c #3B1B13",
"$  c #351815",
"%  c #3D231B",
"&  c #321A32",
"*  c #3C2827",
"=  c #1D0909",
"-  c #441C12",
";  c #421E19",
":  c #4C1D15",
">  c #7A1815",
",  c #681F06",
"<  c #43241A",
"1  c #4B2C1D",
"2  c #49251C",
"3  c #5A291A",
"4  c #4F301F",
"5  c #69240A",
"6  c #732108",
"7  c #7B230C",
"8  c #722D0F",
"9  c #632B13",
"0  c #6B2E15",
"q  c #692F1D",
"w  c #69311B",
"e  c #753918",
"r  c #7C211D",
"t  c #4D2C21",
"y  c #462627",
"u  c #5B2C25",
"i  c #562C25",
"p  c #5A3825",
"a  c #583325",
"s  c #442335",
"d  c #433231",
"f  c #4B3736",
"g  c #51372F",
"h  c #6A2F23",
"j  c #652B26",
"k  c #782925",
"l  c #6B332C",
"z  c #683828",
"x  c #77392A",
"c  c #643433",
"v  c #6A3738",
"b  c #743B37",
"n  c #6A2E37",
"m  c #7B4A1E",
"M  c #75441A",
"N  c #68432B",
"B  c #6F4132",
"V  c #734C32",
"C  c #774735",
"Z  c #7D5436",
"A  c #74462C",
"S  c #362750",
"D  c #3D3276",
"F  c #382F66",
"G  c #46335C",
"H  c #442F5A",
"J  c #6A3541",
"K  c #4C3567",
"L  c #453677",
"P  c #54386D",
"I  c #736B5F",
"U  c #534475",
"Y  c #5A4E6B",
"T  c #704C74",
"R  c #6C6961",
"E  c #7C7965",
"W  c #716D60",
"Q  c #534948",
"!  c #970E0E",
"~  c #9D0E10",
"^  c #871C1A",
"/  c #961813",
"(  c #8D100C",
")  c #A21514",
"_  c #83240D",
"`  c #892A17",
"'  c #91331D",
"]  c #8A2D1A",
"[  c #A1301C",
"{  c #97272B",
"}  c #8A3A25",
"|  c #943B27",
" . c #8D243E",
".. c #943832",
"X. c #933136",
"o. c #AB2B28",
"O. c #A43629",
"+. c #A83B34",
"@. c #B3342C",
"#. c #D11F30",
"$. c #D42233",
"%. c #DB2B3C",
"&. c #D72838",
"*. c #DA343D",
"=. c #D4353A",
"-. c #CE2D34",
";. c #95551D",
":. c #87451A",
">. c #824829",
",. c #95462C",
"<. c #8A5627",
"1. c #965826",
"2. c #884839",
"3. c #934534",
"4. c #855A3A",
"5. c #945536",
"6. c #A75331",
"7. c #94683D",
"8. c #9D743E",
"9. c #97703B",
"0. c #8C613A",
"q. c #A7622E",
"w. c #B67C34",
"e. c #B47332",
"r. c #B06B2C",
"t. c #C67D34",
"y. c #8E2744",
"u. c #DB2E41",
"i. c #DC3345",
"p. c #DB3A47",
"a. c #CD3A5F",
"s. c #D13A57",
"d. c #E03E46",
"f. c #CC3965",
"g. c #935245",
"h. c #8D4F42",
"j. c #9E714F",
"k. c #A27942",
"l. c #AF576A",
"z. c #DC4447",
"x. c #D54559",
"c. c #D95659",
"v. c #E04C45",
"b. c #D44764",
"n. c #DA566C",
"m. c #DD636C",
"M. c #B9833C",
"N. c #BC8234",
"B. c #C18B3A",
"V. c #BB8042",
"C. c #848276",
"Z. c #CB9945",
"A. c #C69541",
"S. c #D5B35A",
"D. c #D8AC65",
"F. c #DAB165",
"G. c #DCB56B",
"H. c #DEB96F",
"J. c #D7B366",
"K. c #DEB576",
"L. c #DAAE72",
"P. c #E3B56B",
"I. c #E2B96E",
"U. c #E0B166",
"Y. c #E3BD73",
"T. c #E2BC78",
"R. c #E4B771",
"E. c #E5C176",
"W. c #E6C479",
"Q. c #E8C67A",
"!. c #E8C478",
"~. c #3F3682",
"^. c #433687",
"/. c #5B4082",
"(. c #664885",
"). c #785187",
"_. c #7E7C86",
"`. c #4A3EEB",
"'. c #4D43EE",
"]. c #554CED",
"[. c #594BE9",
"{. c #5C54ED",
"}. c #5B50E4",
"|. c #534BF1",
" X c #5A54F2",
".X c #4F46F0",
"XX c #764EE9",
"oX c #6758E7",
"OX c #7553EB",
"+X c #6455F0",
"@X c #6864E8",
"#X c #7966E8",
"$X c #7B71E7",
"%X c #AF7B83",
"&X c #856CE4",
"*X c #868698",
"=X c #998A9B",
"-X c #838083",
";X c #ADAC96",
":X c #8785A5",
">X c #918AA3",
",X c #B4B3AA",
"<X c #AE859A",
"1X c #DDBE97",
"2X c #DCBFA3",
"3X c #DFC19A",
"4X c #DEC1A2",
"5X c #DCCDB6",
"6X c #D3CBB3",
"7X c #D4D2BD",
"8X c #E1CDB7",
"9X c #E4D2BE",
"0X c #DBD8C5",
"qX c #DBDBCB",
"wX c #D8D7C4",
"eX c #DCDBD2",
"rX c #E1DBCC",
"tX c #E1DDD1",
"yX c None",
/* pixels */
"yXyXyXyXyXyXyXyXyXyXyXyXyXyXyXyXyXk k } ,.| | | ' ` r > yXyXyXyXyXyXyXyXyXyXyXyXyXyXyXyXyXyXyXyX",
"yXyXyXyXyXyXyXyXyXyXyXyXyXyXyXyXj e } } o.o.o.o.| } ` ^ > yXyXyXyXyXyXyXyXyXyXyXyXyXyXyXyXyXyXyX",
"yXyXyXyXyXyXyXyXyXyXyXyXyXyXyXyX8 ^ { =.p.z.z.p.i.o.` ` 8 > yXyXyXyXyXyXyXyXyXyXyXyXyXyXyXyXyXyX",
"yXyXyXyXyXyXyXyXyXyXyXyXyXyXyX3 0 ` p.5X5X8X9Xz.i.i.%.) ` 7 yXyXyXyXyXyXyXyXyXyXyXyXyXyXyXyXyXyX",
"yXyXyXyXyXyXyXyXyXyXyXyXyXyXyX9 ^ =.6XO.5X+.8X8Xd.i.u.$.) 7 6 yXyXyXyXyXyXyXyXyXyXyXyXyXyXyXyXyX",
"yXyXyXyXyXyXyXyXyXyXyXyXyXyX- 5 ^ =.6XO.+.@.8X8Xd.u.u.%.$.~ 7 6 yXyXyXyXyXyXyXyXyXyXyXyXyXyXyXyX",
"yXyXyXyXyXyXyXyXyXyXyX  . X $ - 2 { 6XO.+.+.rX8Xd.i.u.%.$.#.! 7 yXyXyXyXyXyXyXyXyXyXyXyXyXyXyXyX",
"yXyXyXyXyXyXyXyXyXyX=   . X # ; 2 u l x 2.5X8Xv.d.i.u.u.%.$.~ _ 6 yXyXyXyXyXyXyXyXyXyXyXyXyXyXyX",
"yXyXyXyXyXyXyXyXyXyXyX  X X @ < t a c b B 2.2.z.d.i.u.u.%.$.$.~ _ 6 yXyXyXyXyXyXyXyXyXyXyXyXyXyX",
"yXyXyXyXyXyXyXyXyXyXyXyXyX% # 2 i z N B C 2.2.2.@.d.d.i.%.%.$.) _ _ 6 , yXyXyXyXyXyXyXyXyXyXyXyX",
"yXyXyXyXyXyXyXyXyXyXyXyXyX< 1 t M D.J.G.G.2.2.5.h...@.d.u.%.&.$.) ! ( 6 , yXyXyXyXyXyXyXyXyXyXyX",
"yXyXyXyXyXyXyXyXyXyXyXyXyXt p p >.Z.G.H.H.Y.R.R.3.3.3...-.u.%.&.) #.#.( 6 5 yXyXyXyXyXyXyXyXyXyX",
"yXyXyXyXyXyXyXyXyXyXyXyXp 1 p N V Z G.H.Y.0.5.Y.R.R.t.6.,.| *.&.&.-.$.#.( 5 yXyXyXyXyXyXyXyXyXyX",
"yXyXyXyXyXyXyXyXyXyXyXyX1 m <.<.Z 0.E.E.Y.7.k.T.Y.Y.P.P.t.,.| o.*.*.-.-.( 8 yXyXyXyXyXyXyXyXyXyX",
"yXyXyXyXyXyXyXyXyXyXyX< M A.G.H.M.9.E.W.!.k.8.!.!.!.Y.R.P.P.6.,.| o.=.-./ 8 yXyXyXyXyXyXyXyXyXyX",
"yXyXyXyXyXyXyXyXyXyX< M A.G.I.E.Q.Q.Q.Q.!.k.k.!.!.!.E.E.E.P.r.6.,.;.[ ' } e yXyXyXyXyXyXyXyXyXyX",
"yXyXyXyXyXyXyXyXyXyX% M J.J.H.E.Q.Q.Q.Q.Q.Z.Z.Q.Q.W.W.W.w.e.r.r.P.P.U.S.:.9 yXyXyXyXyXyXyXyXyXyX",
"yXyXyXyXyXyXyXyXyXyX< M J.G.E.E.Q.Q.Q.Q.W.W.Q.Q.Q.Q.Q.Q.M.M.w.E.E.P.P.U.F.e 2 yXyXyXyXyXyXyXyXyX",
"yXyXyXyXyXyXyXyXyXyX< M B.H.H.E.E.E.Q.W.W.E.E.k.k.W.W.Q.Q.M.A.W.I.B.B.F.D.M < yXyXyXyXyXyXyXyXyX",
"yXyXyXyXyXyXyXyXyXyXyX1 m Z.G.H.H.E.E.E.T.E.0.9.9.k.W.Q.Q.Q.!.E.Y.B.F.J.D.e - yXyXyXyXyXyXyXyXyX",
"yXyXyXyXyXyXyXyXyXyXyXyX4 m Z.H.H.H.H.H.4.4.4.h.g.k.W.W.Q.Q.!.E.E.H.J.F.M 1 % yXyXyXyXyXyXyXyXyX",
"yXyXyXyXyXyXyXyXyXyXyXyXyX4 p p N N V V V Z Z 4.M.K.W.W.W.E.E.E.H.J.J.m 4 < yXyXyXyXyXyXyXyXyXyX",
"yXyXyXyXyXyXyXyXyXyXyXyXyXyX1 a p p c v B V Z 4.E.E.E.W.E.E.I.G.1.<.m a < yXyXyXyXyXyXyXyXyXyXyX",
"yXyXyXyXyXyXyXyXyXyXyXyXyXyXyX2 y 4 a p N B L.L.H.T.E.K.R.E.1.<.z p 4 yXyXyXyXyXyXyXyXyXyXyXyXyX",
"yXyXyXyXyXyXyXyXyXyXyXyXyXyXyXyXy 2 e q.D.L.L.L.K.1XR.k.6.5.b z C A yXyXyXyXyXyXyXyXyXyXyXyXyXyX",
"yXyXyXyXyXyXyXyXyXyXyXyXyXyXyXyXy y y k x b h.h.h.5.g.5.C b B b x yXyXyXyXyXyXyXyXyXyXyXyXyXyXyX",
"yXyXyXyXyXyXyXyXyXyXyXyXyXyXyXyXs s G P y.y.a.x.T XXXXT y.} b x yXyXyXyXyXyXyXyXyXyXyXyXyXyXyXyX",
"yXyXyXyXyXyXyXyXyXyXyXyXyXyXyXyXs H K y.a.a.b.T XXXXXXT s. .} n yXyXyXyXyXyXyXyXyXyXyXyXyXyXyXyX",
"yXyXyXyXyXyXyXyXyXyXyXyXyXyXyXyXH K y.f.f.b.(.XXXXXX(.b.x.s.{ } b yXyXyXyXyXyXyXyXyXyXyXyXyXyXyX",
"yXyXyXyXyXyXyXyXyXyXyXyXyXyXyXS G P P ^.(.T XXoXXXXX).b.x.z.x.{ x yXyXyXyXyXyXyXyXyXyXyXyXyXyXyX",
"yXyXyXyXyXyXyXyXyXyXyXyXyXyXa c U.[.+X[.oXoXOXOX+XOX%Xf.n.c.c...X.} yXyXyXyXyXyXyXyXyXyXyXyXyXyX",
"yXyXyXyXyXyXyXyXyXyXyXyXyXu j S.F.[.[.oXoX3X3X%XOX#X&Xl.m.m.m.c.3.E g yXyXyXyXyXyXyXyXyXyXyXyXyX",
"yXyXyXyXyXyXyXyXyXyXyXyXyXu c S.G.}. XoX1X1X4X3X#X&X=XqXrXrXrX0X7X7XE g yXyXyXyXyXyXyXyXyXyXyXyX",
"yXyXyXyXyXyXyXyXyXyXyXyXyXa c J.j.}. XoX1X2X4X4X$X=X=XeXrXrXrXrX0X7XE g yXyXyXyXyXyXyXyXyXyXyXyX",
"yXyXyXyXyXyXyXyXyXyXyXyXyXyXF D [.'.|. X{.4X4X<X$X>XeXtXtXtXtXqX;X7X7XW * yXyXyXyXyXyXyXyXyXyXyX",
"yXyXyXyXyXyXyXyXyXyXyXyXyXyXF D '.'.|.|. X{.@X@X$X:XeXeXtXtX,XqX,XwX7XW f yXyXyXyXyXyXyXyXyXyXyX",
"yXyXyXyXyXyXyXyXyXyXyXyXyXS S D ~.`.'.|.|. X X+X@X:XeXeXeXeX,XqX0X0X7XR * yXyXyXyXyXyXyXyXyXyXyX",
"yXyXyXyXyXyXyXyXyXyXyXyXyX& & F D `.'.'.|.|. X X@X:X*X,XeXeXqXwX0X7XE R * yXyXyXyXyXyXyXyXyXyXyX",
"yXyXyXyXyXyXyXyXyXyXyXyXyX& & & D ~.`.`..X.X|. X X@X*X*XwXqXwXwX;XE W d yXyXyXyXyXyXyXyXyXyXyXyX",
"yXyXyXyXyXyXyXyXyXyXyXyX. + 3 c n D ^.^.`.'..X|.|.{.@X_._.-XC.C.E W f Q yXyXyXyXyXyXyXyXyXyXyXyX",
"yXyXyXyXyXyXyXyXyXyXyXyX+ $ 3 u j c L D ^.^.^..X|.].{.oX@X@XY Y V f d yXyXyXyXyXyXyXyXyXyXyXyXyX",
"yXyXyXyXyXyXyXyXyXyXyXyX. + 3 9 j j n J L L L L L L U U Y U Z A N y * yXyXyXyXyXyXyXyXyXyXyXyXyX",
"yXyXyXyXyXyXyXyXyXyXyXyXX o e.9 9 q l l l n v v J J b b b z B N M.% % yXyXyXyXyXyXyXyXyXyXyXyXyX",
"yXyXyXyXyXyXyXyXyXyXyXyXX X o N.;.0 w w j j l n l v l z x z 1.V.% % % yXyXyXyXyXyXyXyXyXyXyXyXyX",
"yXyXyXyXyXyXyXyXyXyXyXyXyXX O # - ;.N.;.0 0 w w h h h w 1.M.< # @ + yXyXyXyXyXyXyXyXyXyXyXyXyXyX",
"yXyXyXyXyXyXyXyXyXyXyXyXyXyXo O o - - - 1.;.1.0 0 0 1.1.; ; # # @ yXyXyXyXyXyXyXyXyXyXyXyXyXyXyX",
"yXyXyXyXyXyXyXyXyXyXyXyXyXyXyXo o o - - - : - : - - - ; # # @ @ yXyXyXyXyXyXyXyXyXyXyXyXyXyXyXyX",
"yXyXyXyXyXyXyXyXyXyXyXyXyXyXyXyXo o o o - - - - - - - # o o o yXyXyXyXyXyXyXyXyXyXyXyXyXyXyXyXyX"
};
