/* XPM */
static char *result[] = {
/* columns rows colors chars-per-pixel */
"48 48 216 2 ",
"   c #2C1914",
".  c #2E1C19",
"X  c #261715",
"o  c #321F1A",
"O  c #35211C",
"+  c #39221D",
"@  c #2B1D28",
"#  c #352221",
"$  c #3A2523",
"%  c #3C2923",
"&  c #392A2C",
"*  c #3A2A36",
"=  c #2E2338",
"-  c #1D1313",
";  c #431F1D",
":  c #781B1C",
">  c #6C2B1A",
",  c #772C1D",
"<  c #65341C",
"1  c #6B391D",
"2  c #6A361F",
"3  c #72321F",
"4  c #422C23",
"5  c #472B29",
"6  c #4A3325",
"7  c #4D352A",
"8  c #4A3529",
"9  c #56392B",
"0  c #462C36",
"q  c #473939",
"w  c #5B3C32",
"e  c #573A30",
"r  c #582322",
"t  c #7B2323",
"y  c #752926",
"u  c #653422",
"i  c #693423",
"p  c #6C3923",
"a  c #6C3B2B",
"s  c #69362D",
"d  c #723D2D",
"f  c #773725",
"g  c #693B35",
"h  c #723B3A",
"j  c #723B33",
"k  c #6D2827",
"l  c #5A4435",
"z  c #6D412F",
"x  c #7D4E2B",
"c  c #774728",
"v  c #6C4A3A",
"b  c #674637",
"n  c #724333",
"m  c #73423B",
"M  c #744C3A",
"N  c #7B4737",
"B  c #6F523A",
"V  c #78563D",
"C  c #7E502C",
"Z  c #7F623F",
"A  c #342B47",
"S  c #2B2A59",
"D  c #3A385B",
"F  c #2B2443",
"G  c #3B3A65",
"H  c #2F3167",
"J  c #483846",
"K  c #523E52",
"L  c #493E53",
"P  c #693C47",
"I  c #453E6C",
"U  c #3F4172",
"Y  c #574756",
"T  c #4D444C",
"R  c #764845",
"E  c #7B5942",
"W  c #774854",
"Q  c #715256",
"!  c #554965",
"~  c #494472",
"^  c #594C75",
"/  c #49496C",
"(  c #76576B",
")  c #705773",
"_  c #787366",
"`  c #656163",
"'  c #8B1615",
"]  c #9A1518",
"[  c #A31C1B",
"{  c #89271C",
"}  c #A11E21",
"|  c #822E21",
" . c #942827",
".. c #883628",
"X. c #95392B",
"o. c #983A36",
"O. c #8F2F36",
"+. c #A62628",
"@. c #A6352B",
"#. c #B1332D",
"$. c #B13D34",
"%. c #A83A35",
"&. c #C82C3C",
"*. c #CA323E",
"=. c #80512D",
"-. c #8A463A",
";. c #984C3C",
":. c #885837",
">. c #91573C",
",. c #87482A",
"<. c #AB5038",
"1. c #966439",
"2. c #84653F",
"3. c #AA643A",
"4. c #A7733B",
"5. c #B37C36",
"6. c #CE2E41",
"7. c #CD3543",
"8. c #C93C44",
"9. c #D23345",
"0. c #D43C4B",
"q. c #D13847",
"w. c #D02F42",
"e. c #874E42",
"r. c #8A5342",
"t. c #835944",
"y. c #945B4A",
"u. c #965D50",
"i. c #896744",
"p. c #957443",
"a. c #9B7A46",
"s. c #997744",
"d. c #936B4B",
"f. c #B37C41",
"g. c #827E65",
"h. c #8E6878",
"j. c #AE5B63",
"k. c #CD464B",
"l. c #D5434A",
"z. c #DA4E49",
"x. c #D64749",
"c. c #D8544A",
"v. c #C84A57",
"b. c #CD5259",
"n. c #D0585B",
"m. c #D2655E",
"M. c #CC5463",
"N. c #D25E65",
"B. c #D4676C",
"V. c #D56C75",
"C. c #B78235",
"Z. c #B58445",
"A. c #87856C",
"S. c #888879",
"D. c #C49645",
"F. c #D3B357",
"G. c #D1B14D",
"H. c #D4AC63",
"J. c #D7AD68",
"K. c #DAB46C",
"L. c #DBB66C",
"P. c #D8AE72",
"I. c #DCB573",
"U. c #DEBB72",
"Y. c #DBB378",
"T. c #E1B46D",
"R. c #E1B770",
"E. c #E2BD74",
"W. c #E2BF78",
"Q. c #E3C177",
"!. c #E4C278",
"~. c #4A4FDC",
"^. c #4C53DF",
"/. c #5859DE",
"(. c #645DDC",
"). c #655ED7",
"_. c #7B5FD9",
"`. c #605ACF",
"'. c #5D65DA",
"]. c #6868D8",
"[. c #7A62DC",
"{. c #7565DA",
"}. c #7B78DC",
"|. c #6B74DD",
" X c #4F55E2",
".X c #575BE3",
"XX c #5C62E6",
"oX c #6263E3",
"OX c #656BE7",
"+X c #7473E0",
"@X c #8E738D",
"#X c #857AD7",
"$X c #806FDF",
"%X c #7E8387",
"&X c #858A97",
"*X c #948F96",
"=X c #B1AF98",
"-X c #9091A2",
";X c #B6B7AA",
":X c #D9BD89",
">X c #D7BE93",
",X c #DBC18E",
"<X c #DAC295",
"1X c #D1C7AF",
"2X c #DCCAB3",
"3X c #D1CFB8",
"4X c #D3D3BC",
"5X c #DAD4BF",
"6X c #CFD0B9",
"7X c #8282DB",
"8X c #D6D6C3",
"9X c #DCD9C5",
"0X c #DCDACC",
"qX c #D9D6C8",
"wX c #E0DCCC",
"eX c None",
/* pixels */
"eXeXeXeXeXeXeXeXeXeXeXeXeXeXeXeXeXeXeXeXt t t X.o.-.,...y y eXeXeXeXeXeXeXeXeXeXeXeXeXeXeXeXeXeX",
"eXeXeXeXeXeXeXeXeXeXeXeXeXeXeXeXeXeXeXt t ..X.+.+.+.+.X...f eXeXeXeXeXeXeXeXeXeXeXeXeXeXeXeXeXeX",
"eXeXeXeXeXeXeXeXeXeXeXeXeXeXeXeXeXeX: | O.+.+.0.l.l.0.+. .f k eXeXeXeXeXeXeXeXeXeXeXeXeXeXeXeXeX",
"eXeXeXeXeXeXeXeXeXeXeXeXeXeXeXeXeXeXf ..} 0.0.x.z.z.k.k.7. .f eXeXeXeXeXeXeXeXeXeXeXeXeXeXeXeXeX",
"eXeXeXeXeXeXeXeXeXeXeXeXeXeXeXeXeX, ..} 9.0.l.z.2X2X2X1Xk.' d r eXeXeXeXeXeXeXeXeXeXeXeXeXeXeXeX",
"eXeXeXeXeXeXeXeXeXeXeXeXeXeXeXeX, | ] 6.q.0.x.2X2X$.2X@.1X8.' i eXeXeXeXeXeXeXeXeXeXeXeXeXeXeXeX",
"eXeXeXeXeXeXeXeXeXeXeXeXeXeXeX, | ] &.w.0.0.z.2X2X$.$.@.1X8.' s ; eXeXeXeXeXeXeXeXeXeXeXeXeXeXeX",
"eXeXeXeXeXeXeXeXeXeXeXeXeXeXeX, ] &.w.9.0.0.z.2X2X<.%.X.1X .5 $ o . . X eXeXeXeXeXeXeXeXeXeXeXeX",
"eXeXeXeXeXeXeXeXeXeXeXeXeXeX, | ] w.9.9.0.l.z.c.2X2XM m b e 0 5 O . . - - eXeXeXeXeXeXeXeXeXeXeX",
"eXeXeXeXeXeXeXeXeXeXeXeXeX: | ] &.w.9.0.0.z.c.c.e.R R R g w 5 4 + O . - eXeXeXeXeXeXeXeXeXeXeXeX",
"eXeXeXeXeXeXeXeXeXeXeX> , { | [ w.w.q.0.x.z.$.-.e.R V M b w 9 5 % + eXeXeXeXeXeXeXeXeXeXeXeXeXeX",
"eXeXeXeXeXeXeXeXeXeX> , ' ] [ *.9.q.0.l.#.;.r.r.t.t.K.K.J.J.x 9 6 4 eXeXeXeXeXeXeXeXeXeXeXeXeXeX",
"eXeXeXeXeXeXeXeXeX> , ' &.&.[ *.q.l.#.-.;.>.r.I.U.U.L.L.L.D.:.l l 6 eXeXeXeXeXeXeXeXeXeXeXeXeXeX",
"eXeXeXeXeXeXeXeXeX> ' &.*.*.7.8.l.o.;.-.3.T.R.U.2.2.U.U.I.V B b l 7 9 eXeXeXeXeXeXeXeXeXeXeXeXeX",
"eXeXeXeXeXeXeXeXeX3 ' *.*.*.x.#.-.;.3.K.T.E.E.E.p.p.Q.U.Q.2.Z 1.:.C 7 % eXeXeXeXeXeXeXeXeXeXeXeX",
"eXeXeXeXeXeXeXeXeXf { *.8.@.,.-.3.T.T.T.E.E.Q.Q.s.a.!.Q.Q.2.4.L.L.D.C 8 eXeXeXeXeXeXeXeXeXeXeXeX",
"eXeXeXeXeXeXeXeXeXf ,.+.@.,.-.3.3.R.R.E.W.Q.Q.!.a.a.!.!.!.!.Q.U.L.L.C.c % eXeXeXeXeXeXeXeXeXeXeX",
"eXeXeXeXeXeXeXeXeX< ,.J.K.T.T.5.5.f.f.W.Q.!.Q.!.Z.Z.!.!.!.!.Q.Q.E.L.L.x 6 eXeXeXeXeXeXeXeXeXeXeX",
"eXeXeXeXeXeXeXeX4 c H.J.T.T.R.E.5.Z.Z.!.!.!.!.!.!.Q.Q.Q.Q.Q.Q.U.U.F.H.c % eXeXeXeXeXeXeXeXeXeXeX",
"eXeXeXeXeXeXeXeX4 c H.F.1.4.R.Q.Z.Z.!.!.!.!.a.s.W.W.W.W.Q.Q.Q.U.U.L.Z.c % eXeXeXeXeXeXeXeXeXeXeX",
"eXeXeXeXeXeXeXeX4 c H.H.K.4.R.E.W.!.!.!.!.a.p.i.i.L.E.Q.U.U.U.L.K.D.x 6 eXeXeXeXeXeXeXeXeXeXeXeX",
"eXeXeXeXeXeXeXeX% 6 =.H.K.L.U.E.!.!.!.Q.Q.s.p.i.i.2.Z L.L.L.L.D.:.x 6 eXeXeXeXeXeXeXeXeXeXeXeXeX",
"eXeXeXeXeXeXeXeXeX4 6 =.F.K.L.E.E.W.W.W.W.E.s.t.E E B B B l B l e 8 eXeXeXeXeXeXeXeXeXeXeXeXeXeX",
"eXeXeXeXeXeXeXeXeXeX4 9 =.=.1.L.R.E.E.E.E.E.R.t.E v B b l l l 8 8 eXeXeXeXeXeXeXeXeXeXeXeXeXeXeX",
"eXeXeXeXeXeXeXeXeXeXeXeX7 w b :.1.R.R.R.U.I.I.P.K.v b g e 7 8 % eXeXeXeXeXeXeXeXeXeXeXeXeXeXeXeX",
"eXeXeXeXeXeXeXeXeXeXeXeXeXn M g M >.y.d.Y.Y.Y.P.P.J.H.N d 5 6 eXeXeXeXeXeXeXeXeXeXeXeXeXeXeXeXeX",
"eXeXeXeXeXeXeXeXeXeXeXeXeXeXz n m m R y.u.u.y.y.r.e.e.j j 5 5 eXeXeXeXeXeXeXeXeXeXeXeXeXeXeXeXeX",
"eXeXeXeXeXeXeXeXeXeXeXeXeXeXeXj h -.%.Q _.[.( M.b.O.O.Y J 0 5 eXeXeXeXeXeXeXeXeXeXeXeXeXeXeXeXeX",
"eXeXeXeXeXeXeXeXeXeXeXeXeXeXj h N O.k.( [.[._.( M.v.v.O.K L 0 eXeXeXeXeXeXeXeXeXeXeXeXeXeXeXeXeX",
"eXeXeXeXeXeXeXeXeXeXeXeXeXeXh j O.k.b.b.) [.[.[.) M.v.8.O.K J 0 eXeXeXeXeXeXeXeXeXeXeXeXeXeXeXeX",
"eXeXeXeXeXeXeXeXeXeXeXeXeXeX..O.x.b.n.M.) [.[.{.oX) ) ^ ! Y L J * eXeXeXeXeXeXeXeXeXeXeXeXeXeXeX",
"eXeXeXeXeXeXeXeXeXeXeXeXeX-.o.;.n.N.N.N.h.[.{.{.{.{._.(.(.`.F.b g 5 eXeXeXeXeXeXeXeXeXeXeXeXeXeX",
"eXeXeXeXeXeXeXeXeXeXeXeXl g.r.n.V.B.V.j.7X+X$Xh.:X:X{.{.(.).F.G.j s $ O   eXeXeXeXeXeXeXeXeXeXeX",
"eXeXeXeXeXeXeXeXeXeXeXq _ 6X5X9X0X0X8X8X*X7X#X<X,X,X:X].(.].F.Y 0 5 % O O   eXeXeXeXeXeXeXeXeXeX",
"eXeXeXeXeXeXeXeXeXeXq l g.5X5X9X0X0X0X0X*X*X7X<X<X,X:X].(.(.Y R m a p u O .   eXeXeXeXeXeXeXeXeX",
"eXeXeXeXeXeXeXeXeXeXq _ 3X5X=X9X0X0X0X0XwX*X7X@X<X>X].].oX^ W R m a p 2 < O . eXeXeXeXeXeXeXeXeX",
"eXeXeXeXeXeXeXeXeX& * _ 3X8X=XwX;X0X0X0X0X-X7X|.|.OXoX.XoX^ W P m j p 1 5.+ . eXeXeXeXeXeXeXeXeX",
"eXeXeXeXeXeXeXeXeX* l _ 4X4X9X9X;X0X0X0X0X-X|.OXOXoXoX(./.^ W R n d c C.1 + o eXeXeXeXeXeXeXeXeX",
"eXeXeXeXeXeXeXeXeX& l _ A.4X8X9X0X0X0X;X-X%X|.OXoXXX.X/./.^ P R j d p 1 < +   eXeXeXeXeXeXeXeXeX",
"eXeXeXeXeXeXeXeXeX& 7 V _ A.=X8X0X0X0X-X%X|.'.XXXX.X X XI ! J O.n f p 1 +   eXeXeXeXeXeXeXeXeXeX",
"eXeXeXeXeXeXeXeX% & z B l g.A.S.S.S.%XS.|.'.'. X X^.~.~.I P h 0 5 6 C.1 + O eXeXeXeXeXeXeXeXeXeX",
"eXeXeXeXeXeXeXeX. % p z B V t.` ` |.'.'.'.^.^.^.~.~.I I P h h d p 1 1 ; O . eXeXeXeXeXeXeXeXeXeX",
"eXeXeXeXeXeXeXeX. # l z n M N R ! ! ! / U U U U G G I A P g s s p p < + . eXeXeXeXeXeXeXeXeXeXeX",
"eXeXeXeXeXeXeXeX. o < 1 a z n M l A T G D G D G G G D = * s s i 1 5.< O o eXeXeXeXeXeXeXeXeXeXeX",
"eXeXeXeXeXeXeXeXeXo + u p p a g * * A A S H S H S S F = & # u i < < O O . eXeXeXeXeXeXeXeXeXeXeX",
"eXeXeXeXeXeXeXeXeX. o + u u u % & & = = eXeXeXeXeXeXeX@ @ # # # + O . . eXeXeXeXeXeXeXeXeXeXeXeX",
"eXeXeXeXeXeXeXeXeX  o o + # $ # # @ @ eXeXeXeXeXeXeXeXeX. o o o O o . eXeXeXeXeXeXeXeXeXeXeXeXeX",
"eXeXeXeXeXeXeXeXeXeX  o + O O # X X eXeXeXeXeXeXeXeXeXeXeX            eXeXeXeXeXeXeXeXeXeXeXeXeX"
};
