/* XPM */
static char *result[] = {
/* columns rows colors chars-per-pixel */
"48 48 214 2 ",
"   c #230C0B",
".  c #280F0D",
"X  c #2C110E",
"o  c #33160F",
"O  c #3D190F",
"+  c #2D1315",
"@  c #3C1A13",
"#  c #351815",
"$  c #3D231B",
"%  c #341A30",
"&  c #3C2827",
"*  c #1D0909",
"=  c #441C12",
"-  c #421E19",
";  c #431B0F",
":  c #681F06",
">  c #43241A",
",  c #4B2C1D",
"<  c #49251C",
"1  c #5A291A",
"2  c #4F301F",
"3  c #69240A",
"4  c #732108",
"5  c #7B230C",
"6  c #722D0F",
"7  c #632B13",
"8  c #6B2E15",
"9  c #692F1D",
"0  c #69311B",
"q  c #753918",
"w  c #4D2C21",
"e  c #472727",
"r  c #5B2C25",
"t  c #562C25",
"y  c #593526",
"u  c #433231",
"i  c #4B3737",
"p  c #513630",
"a  c #6A2F23",
"s  c #632D28",
"d  c #6B332C",
"f  c #673828",
"g  c #793929",
"h  c #643533",
"j  c #6B3638",
"k  c #723E39",
"l  c #612E3B",
"z  c #7B4A1E",
"x  c #75441A",
"c  c #68432B",
"v  c #6F4132",
"b  c #734C31",
"n  c #774736",
"m  c #7D5436",
"M  c #3D3276",
"N  c #382F66",
"B  c #3D3059",
"V  c #46335C",
"C  c #442F5A",
"Z  c #6A3541",
"A  c #4C3567",
"S  c #453677",
"D  c #54386D",
"F  c #716A5E",
"G  c #534475",
"H  c #5A4E6B",
"J  c #6E4B73",
"K  c #6C6963",
"L  c #7A7768",
"P  c #766C60",
"I  c #970E0E",
"U  c #9D0E10",
"Y  c #891B19",
"T  c #961813",
"R  c #8D100C",
"E  c #A21514",
"W  c #83240D",
"Q  c #892A17",
"!  c #91331D",
"~  c #8A2D1A",
"^  c #A1301C",
"/  c #8A3A25",
"(  c #943B27",
")  c #8D243E",
"_  c #982936",
"`  c #943832",
"'  c #91302C",
"]  c #AB2B28",
"[  c #A43529",
"{  c #A83B34",
"}  c #B33A33",
"|  c #B32E26",
" . c #D11F30",
".. c #D42233",
"X. c #DB2B3C",
"o. c #D72838",
"O. c #DA343D",
"+. c #D4353A",
"@. c #CD2D34",
"#. c #95551D",
"$. c #86451A",
"%. c #824829",
"&. c #95462C",
"*. c #895627",
"=. c #955C2B",
"-. c #965522",
";. c #88473A",
":. c #944533",
">. c #865A3A",
",. c #945536",
"<. c #A65232",
"1. c #92673E",
"2. c #9D743E",
"3. c #8F613C",
"4. c #A9642E",
"5. c #B67C34",
"6. c #B47332",
"7. c #C67D34",
"8. c #8E2745",
"9. c #DB2E41",
"0. c #DC3345",
"q. c #DB3B48",
"w. c #D23C58",
"e. c #E03E46",
"r. c #CC3868",
"t. c #CD3C73",
"y. c #925245",
"u. c #8D4F42",
"i. c #976A40",
"p. c #9E714E",
"a. c #A27942",
"s. c #AF5769",
"d. c #DC4549",
"f. c #D6475A",
"g. c #D95658",
"h. c #D84E67",
"j. c #DD6267",
"k. c #DE6474",
"l. c #B9833C",
"z. c #BC8234",
"x. c #C18B3A",
"c. c #BB8042",
"v. c #848275",
"b. c #CB9945",
"n. c #C69541",
"m. c #D5B359",
"M. c #D8AC64",
"N. c #D7B263",
"B. c #DAB165",
"V. c #DCB56A",
"C. c #DFB96E",
"Z. c #D7B66C",
"A. c #DEB476",
"S. c #DAAE71",
"D. c #E4B56B",
"F. c #E3B96D",
"G. c #E0B165",
"H. c #E3BD72",
"J. c #E2B975",
"K. c #E5C276",
"L. c #E7C479",
"P. c #E8C679",
"I. c #E8C577",
"U. c #3F3682",
"Y. c #433687",
"T. c #5B4082",
"R. c #65458B",
"E. c #764D84",
"W. c #7E7C85",
"Q. c #4A3EEB",
"!. c #4D43EE",
"~. c #554CED",
"^. c #5E4DED",
"/. c #5649E6",
"(. c #5C54ED",
"). c #5B50E4",
"_. c #534BF1",
"`. c #5A54F2",
"'. c #4F46F0",
"]. c #764EEA",
"[. c #6757E7",
"{. c #7553EA",
"}. c #6455F0",
"|. c #6864E7",
" X c #7866E8",
".X c #7B71E7",
"XX c #AF7B82",
"oX c #856BE3",
"OX c #868697",
"+X c #998A9A",
"@X c #838082",
"#X c #ADAC95",
"$X c #8785A4",
"%X c #918AA2",
"&X c #B4B3A9",
"*X c #AE8599",
"=X c #DDBE98",
"-X c #DBBEA5",
";X c #DEC19D",
":X c #DCCDB5",
">X c #D3CBB2",
",X c #D3D3BD",
"<X c #DCD3BD",
"1X c #DDC1A6",
"2X c #E1CDB6",
"3X c #E4D2BD",
"4X c #DAD8C5",
"5X c #DCDBCC",
"6X c #D8D7C5",
"7X c #DCDBD2",
"8X c #E2DCCC",
"9X c #E0DAC7",
"0X c #E1DED0",
"qX c None",
/* pixels */
"qXqXqXqXqXqXqXqXqXqXqXqXqXqXqXqXqXqXqXqXqXqXqX! ( ( &./ / qXqXqXqXqXqXqXqXqXqXqXqXqXqXqXqXqXqXqX",
"qXqXqXqXqXqXqXqXqXqXqXqXqXqXqXqXqXqXqXqXqX~ / ( ] | ] ] / / q qXqXqXqXqXqXqXqXqXqXqXqXqXqXqXqXqX",
"qXqXqXqXqXqXqXqXqXqXqXqXqXqXqXqXqXqXqX5 ~ ! ] 0.e.e.d.q.q.^ Y 6 qXqXqXqXqXqXqXqXqXqXqXqXqXqXqXqX",
"qXqXqXqXqXqXqXqXqXqXqXqXqXqXqXqXqXqX4 Q U 9.9.0.e.9X2X:X<Xq.Y 8 qXqXqXqXqXqXqXqXqXqXqXqXqXqXqXqX",
"qXqXqXqXqXqXqXqXqXqXqXqXqXqXqXqXqX4 Y U o.9.0.e.2X:X} :X[ >X@.Y 3 qXqXqXqXqXqXqXqXqXqXqXqXqXqXqX",
"qXqXqXqXqXqXqXqXqXqXqXqXqXqXqXqX4 5 U ..o.9.0.e.2X:X} { [ >X9.5 3 qXqXqXqXqXqXqXqXqXqXqXqXqXqXqX",
"qXqXqXqXqXqXqXqXqXqXqXqXqXqXqXqX5 I  ...X.9.e.e.2X3X} { [ >XY e - # X     qXqXqXqXqXqXqXqXqXqXqX",
"qXqXqXqXqXqXqXqXqXqXqXqXqXqXqX5 W U ..o.X.9.0.q.d.:X:Xk ;.d r e - @ X     * qXqXqXqXqXqXqXqXqXqX",
"qXqXqXqXqXqXqXqXqXqXqXqXqXqXqXW U ....X.9.0.q.q.d.;.n k k f y e - @ X .   qXqXqXqXqXqXqXqXqXqXqX",
"qXqXqXqXqXqXqXqXqXqXqXqX3 4 5 W E ..X.X.0.e.q.} u.;.;.n v g f t < $ qXqXqXqXqXqXqXqXqXqXqXqXqXqX",
"qXqXqXqXqXqXqXqXqXqXqX: 4 R I E ..o.X.X.e.| ` :.:.;.>.V.V.N.M.x 2 qXqXqXqXqXqXqXqXqXqXqXqXqXqXqX",
"qXqXqXqXqXqXqXqXqXqX: 3 R  ...E o.X.e.| ` ` :.<.J.J.D.C.C.V.b.%.y qXqXqXqXqXqXqXqXqXqXqXqXqXqXqX",
"qXqXqXqXqXqXqXqXqXqX3 R  .@.@.o.X.O.( :.:.7.F.H.K.3.3.C.H.C.m b c y 2 qXqXqXqXqXqXqXqXqXqXqXqXqX",
"qXqXqXqXqXqXqXqXqXqX4 W @.@.o.O.| ( &.7.D.F.H.H.K.i.i.K.H.H.>.m *.*.z 2 qXqXqXqXqXqXqXqXqXqXqXqX",
"qXqXqXqXqXqXqXqXqXqX6 T +.O.| / ( <.D.D.H.H.K.K.K.2.2.I.I.I.1.x.C.V.b.z , qXqXqXqXqXqXqXqXqXqXqX",
"qXqXqXqXqXqXqXqXqXqX6 / ^ ^ #.&.4.4.F.H.H.K.K.L.L.a.a.P.P.P.P.I.K.C.N.x.x $ qXqXqXqXqXqXqXqXqXqX",
"qXqXqXqXqXqXqXqXqXqX1 $.m.G.D.F.4.6.6.5.I.I.I.P.P.b.b.P.P.P.P.P.K.C.V.m.x > qXqXqXqXqXqXqXqXqXqX",
"qXqXqXqXqXqXqXqXqX< q M.G.D.D.F.H.7.5.5.I.P.P.P.P.L.P.P.P.P.P.L.K.C.V.N.x > qXqXqXqXqXqXqXqXqXqX",
"qXqXqXqXqXqXqXqXqX> x m.G.z.x.F.H.b.n.J.P.P.P.a.2.L.K.L.L.L.L.K.K.C.Z.n.x $ qXqXqXqXqXqXqXqXqXqX",
"qXqXqXqXqXqXqXqXqX> q M.N.D.x.K.I.P.P.P.P.P.2.i.1.3.H.C.C.K.K.C.C.V.b.z , qXqXqXqXqXqXqXqXqXqXqX",
"qXqXqXqXqXqXqXqXqX$ , x N.V.D.F.H.I.P.P.P.K.2.1.u.u.>.>.Z.C.C.Z.N.b.z 2 qXqXqXqXqXqXqXqXqXqXqXqX",
"qXqXqXqXqXqXqXqXqXqX> 2 z B.V.F.H.I.K.P.P.K.L.c.m m m b b b b c c y 2 qXqXqXqXqXqXqXqXqXqXqXqXqX",
"qXqXqXqXqXqXqXqXqXqXqX< 2 z *.=.D.H.H.H.H.L.J.J.m m b v v y p y w e qXqXqXqXqXqXqXqXqXqXqXqXqXqX",
"qXqXqXqXqXqXqXqXqXqXqXqXqX2 y c *.=.J.H.J.J.J.A.C.C.b h h y 2 , > qXqXqXqXqXqXqXqXqXqXqXqXqXqXqX",
"qXqXqXqXqXqXqXqXqXqXqXqXqXqXqXqXh v ,.<.a.A.J.J.A.S.S.M.4.a e qXqXqXqXqXqXqXqXqXqXqXqXqXqXqXqXqX",
"qXqXqXqXqXqXqXqXqXqXqXqXqXqXqXqXqXqXv Z y.y.y.y.u.u.n g d e qXqXqXqXqXqXqXqXqXqXqXqXqXqXqXqXqXqX",
"qXqXqXqXqXqXqXqXqXqXqXqXqXqXqXqXqXqX` _ y.].].J f.w.8.) D V qXqXqXqXqXqXqXqXqXqXqXqXqXqXqXqXqXqX",
"qXqXqXqXqXqXqXqXqXqXqXqXqXqXqXqXqXg _ r.R.].].].R.h.r.r._ A C qXqXqXqXqXqXqXqXqXqXqXqXqXqXqXqXqX",
"qXqXqXqXqXqXqXqXqXqXqXqXqXqXqXqXg _ w.w.t.E.].].].R.t.r.r.8.A C qXqXqXqXqXqXqXqXqXqXqXqXqXqXqXqX",
"qXqXqXqXqXqXqXqXqXqXqXqXqXqXqXg _ d.f.f.h.E.].].].].R.T.D D S A B qXqXqXqXqXqXqXqXqXqXqXqXqXqXqX",
"qXqXqXqXqXqXqXqXqXqXqXqXqXqXk _ :.d.g.h.k.E.{. X[.{.].[.^.^./.m.h y qXqXqXqXqXqXqXqXqXqXqXqXqXqX",
"qXqXqXqXqXqXqXqXqXqXqXqXqXp P <.g.j.j.k.s.oX X.Xs.=X=X[.[.^.).N.m.h 1 qXqXqXqXqXqXqXqXqXqXqXqXqX",
"qXqXqXqXqXqXqXqXqXqXqXqXi P ,X<X9X9X8X9X5X+X.X.X=X;X=X=X[.(.).S.m.h t qXqXqXqXqXqXqXqXqXqXqXqXqX",
"qXqXqXqXqXqXqXqXqXqXqXqXi L <X4X9X9X8X8X8X+X%X.X;X;X-X=X}.(.).p.N.l t qXqXqXqXqXqXqXqXqXqXqXqXqX",
"qXqXqXqXqXqXqXqXqXqXqXu F ,X4X#X5X0X0X0X0X5X%X.X*X1X-X[.(._.!./.S N qXqXqXqXqXqXqXqXqXqXqXqXqXqX",
"qXqXqXqXqXqXqXqXqXqXqXu F ,X4X#X0X&X0X0X0X7X$X.X|.|.(.(.~.~.!.!.M N qXqXqXqXqXqXqXqXqXqXqXqXqXqX",
"qXqXqXqXqXqXqXqXqXqXqXi K ,X,X4X5X&X5X7X7X7X$X|.}.`.`._._.'.Q.U.N qXqXqXqXqXqXqXqXqXqXqXqXqXqXqX",
"qXqXqXqXqXqXqXqXqXqXqX& K L 6X4X5X5X5X5X&X$X$X|.`.`._.'.!.!.Q.M N % qXqXqXqXqXqXqXqXqXqXqXqXqXqX",
"qXqXqXqXqXqXqXqXqXqXqXqX& L L #X6X6X7X7XOXOX|.(.`._.'.!.!.Q.U.M % % % qXqXqXqXqXqXqXqXqXqXqXqXqX",
"qXqXqXqXqXqXqXqXqXqXqXqXqX& K L L v.@XL W.|.}._.`.'.!.!.U.U.M l h r + . qXqXqXqXqXqXqXqXqXqXqXqX",
"qXqXqXqXqXqXqXqXqXqXqXqXqXu i m H H |.|.[.)._.~.Q.Y.Y.Y.S S l r s 1 + X qXqXqXqXqXqXqXqXqXqXqXqX",
"qXqXqXqXqXqXqXqXqXqXqXqXqX& & c v b H H G G G S S S S S l h d s 7 1 + X qXqXqXqXqXqXqXqXqXqXqXqX",
"qXqXqXqXqXqXqXqXqXqXqXqXqX$ & c.c g k k k Z Z j Z j j d d s 0 7 7 5.o X qXqXqXqXqXqXqXqXqXqXqXqX",
"qXqXqXqXqXqXqXqXqXqXqXqXqX+ $ $ l.=.0 f d d d j d d d a 9 0 7 #.z.o X X qXqXqXqXqXqXqXqXqXqXqXqX",
"qXqXqXqXqXqXqXqXqXqXqXqXqXqX+ @ @ e l.=.a d a a a 0 0 8 #.z.#.= O o X qXqXqXqXqXqXqXqXqXqXqXqXqX",
"qXqXqXqXqXqXqXqXqXqXqXqXqXqXqXqX# @ - - -.-.8 6 8 &.-.-.= > ; @ o qXqXqXqXqXqXqXqXqXqXqXqXqXqXqX",
"qXqXqXqXqXqXqXqXqXqXqXqXqXqXqXqXqXqX@ = = = = = = = = = = = O qXqXqXqXqXqXqXqXqXqXqXqXqXqXqXqXqX",
"qXqXqXqXqXqXqXqXqXqXqXqXqXqXqXqXqXqXqXqX= = = = = ; ; ; qXqXqXqXqXqXqXqXqXqXqXqXqXqXqXqXqXqXqXqX"
};
