/* XPM */
static char *result[] = {
/* columns rows colors chars-per-pixel */
"48 48 216 2 ",
"   c #2C1914",
".  c #2E1C19",
"X  c #261715",
"o  c #321F1A",
"O  c #35211C",
"+  c #39221D",
"@  c #2B1D28",
"#  c #352221",
"$  c #3A2523",
"%  c #3C2923",
"&  c #392A2C",
"*  c #3A2A36",
"=  c #2E2338",
"-  c #1D1313",
";  c #431F1D",
":  c #781B1C",
">  c #6C2B1A",
",  c #772C1D",
"<  c #65341C",
"1  c #6B391D",
"2  c #6A361F",
"3  c #72321F",
"4  c #422C23",
"5  c #472B29",
"6  c #4A3325",
"7  c #4D352A",
"8  c #4A3529",
"9  c #56392B",
"0  c #462C36",
"q  c #473939",
"w  c #5B3C32",
"e  c #573A30",
"r  c #582322",
"t  c #7B2323",
"y  c #752926",
"u  c #653422",
"i  c #693423",
"p  c #6C3923",
"a  c #6C3B2B",
"s  c #69362D",
"d  c #723D2D",
"f  c #773725",
"g  c #693B35",
"h  c #723B3A",
"j  c #723B33",
"k  c #6D2827",
"l  c #5A4435",
"z  c #6D412F",
"x  c #7D4E2B",
"c  c #774728",
"v  c #6C4A3A",
"b  c #674637",
"n  c #724333",
"m  c #73423B",
"M  c #744C3A",
"N  c #7B4737",
"B  c #6F523A",
"V  c #78563D",
"C  c #7E502C",
"Z  c #7F623F",
"A  c #342B47",
"S  c #2B2A59",
"D  c #3A385B",
"F  c #2B2443",
"G  c #3B3A65",
"H  c #2F3167",
"J  c #483846",
"K  c #523E52",
"L  c #493E53",
"P  c #693C47",
"I  c #453E6C",
"U  c #3F4172",
"Y  c #574756",
"T  c #4D444C",
"R  c #764845",
"E  c #7B5942",
"W  c #774854",
"Q  c #715256",
"!  c #554965",
"~  c #494472",
"^  c #594C75",
"/  c #49496C",
"(  c #76576B",
")  c #705773",
"_  c #787366",
"`  c #656163",
"'  c #8B1615",
"]  c #9A1518",
"[  c #A31C1B",
"{  c #89271C",
"}  c #A11E21",
"|  c #822E21",
" . c #942827",
".. c #883628",
"X. c #95392B",
"o. c #983A36",
"O. c #8F2F36",
"+. c #A62628",
"@. c #A6352B",
"#. c #B1332D",
"$. c #B13D34",
"%. c #A83A35",
"&. c #C82C3C",
"*. c #CA323E",
"=. c #80512D",
"-. c #8A463A",
";. c #984C3C",
":. c #885837",
">. c #91573C",
",. c #87482A",
"<. c #AB5038",
"1. c #966439",
"2. c #84653F",
"3. c #AA643A",
"4. c #A7733B",
"5. c #B37C36",
"6. c #CE2E41",
"7. c #CD3543",
"8. c #C93C44",
"9. c #D23345",
"0. c #D43C4B",
"q. c #D13847",
"w. c #D02F42",
"e. c #874E42",
"r. c #8A5342",
"t. c #835944",
"y. c #945B4A",
"u. c #965D50",
"i. c #896744",
"p. c #957443",
"a. c #9B7A46",
"s. c #997744",
"d. c #936B4B",
"f. c #B37C41",
"g. c #827E65",
"h. c #8E6878",
"j. c #AE5B63",
"k. c #CD464B",
"l. c #D5434A",
"z. c #DA4E49",
"x. c #D64749",
"c. c #D8544A",
"v. c #C84A57",
"b. c #CD5259",
"n. c #D0585B",
"m. c #D2655E",
"M. c #CC5463",
"N. c #D25E65",
"B. c #D4676C",
"V. c #D56C75",
"C. c #B78235",
"Z. c #B58445",
"A. c #87856C",
"S. c #888879",
"D. c #C49645",
"F. c #D3B357",
"G. c #D1B14D",
"H. c #D4AC63",
"J. c #D7AD68",
"K. c #DAB46C",
"L. c #DBB66C",
"P. c #D8AE72",
"I. c #DCB573",
"U. c #DEBB72",
"Y. c #DBB378",
"T. c #E1B46D",
"R. c #E1B770",
"E. c #E2BD74",
"W. c #E2BF78",
"Q. c #E3C177",
"!. c #E4C278",
"~. c #4A4FDC",
"^. c #4C53DF",
"/. c #5859DE",
"(. c #645DDC",
"). c #655ED7",
"_. c #7B5FD9",
"`. c #605ACF",
"'. c #5D65DA",
"]. c #6868D8",
"[. c #7A62DC",
"{. c #7565DA",
"}. c #7B78DC",
"|. c #6B74DD",
" X c #4F55E2",
".X c #575BE3",
"XX c #5C62E6",
"oX c #6263E3",
"OX c #656BE7",
"+X c #7473E0",
"@X c #8E738D",
"#X c #857AD7",
"$X c #806FDF",
"%X c #7E8387",
"&X c #858A97",
"*X c #948F96",
"=X c #B1AF98",
"-X c #9091A2",
";X c #B6B7AA",
":X c #D9BD89",
">X c #D7BE93",
",X c #DBC18E",
"<X c #DAC295",
"1X c #D1C7AF",
"2X c #DCCAB3",
"3X c #D1CFB8",
"4X c #D3D3BC",
"5X c #DAD4BF",
"6X c #CFD0B9",
"7X c #8282DB",
"8X c #D6D6C3",
"9X c #DCD9C5",
"0X c #DCDACC",
"qX c #D9D6C8",
"wX c #E0DCCC",
"eX c None",
/* pixels */
"eXeXeXeXeXeXeXeXeXeXeXeXeXeXeXeXeXeXy y ..-.X.X.X.y t t eXeXeXeXeXeXeXeXeXeXeXeXeXeXeXeXeXeXeXeX",
"eXeXeXeXeXeXeXeXeXeXeXeXeXeXeXeXeXeXf ..o.+.+.+.+.o...t t eXeXeXeXeXeXeXeXeXeXeXeXeXeXeXeXeXeXeX",
"eXeXeXeXeXeXeXeXeXeXeXeXeXeXeXeXeXk f  .+.k.l.l.k.+.} ....: eXeXeXeXeXeXeXeXeXeXeXeXeXeXeXeXeXeX",
"eXeXeXeXeXeXeXeXeXeXeXeXeXeXeXeXeXy  .q.k.l.z.z.x.0.q.} ..f eXeXeXeXeXeXeXeXeXeXeXeXeXeXeXeXeXeX",
"eXeXeXeXeXeXeXeXeXeXeXeXeXeXeXeXr f | k.1X1X2X2Xz.l.0.9.] ..y eXeXeXeXeXeXeXeXeXeXeXeXeXeXeXeXeX",
"eXeXeXeXeXeXeXeXeXeXeXeXeXeXeXeXu ' 8.1X@.2X$.2X2Xl.0.0.6.] | , eXeXeXeXeXeXeXeXeXeXeXeXeXeXeXeX",
"eXeXeXeXeXeXeXeXeXeXeXeXeXeXeX; i ' 8.1X@.%.$.2X2Xz.l.0.w.&.] | , eXeXeXeXeXeXeXeXeXeXeXeXeXeXeX",
"eXeXeXeXeXeXeXeXeXeXeXeXX X . + 4 5  .1Xo.%.$.2X2Xz.0.0.9.6.&.] , eXeXeXeXeXeXeXeXeXeXeXeXeXeXeX",
"eXeXeXeXeXeXeXeXeXeXeX- X X . # 5 5 e b R V 3X2Xz.z.x.0.9.9.w.] { , eXeXeXeXeXeXeXeXeXeXeXeXeXeX",
"eXeXeXeXeXeXeXeXeXeXeXeXX . . $ 5 7 w b v R -.r.c.z.x.0.0.9.w.&.] | : eXeXeXeXeXeXeXeXeXeXeXeXeX",
"eXeXeXeXeXeXeXeXeXeXeXeXeXeX+ 4 5 7 w b v E R e.y.$.z.x.0.0.9.w.] { | , > eXeXeXeXeXeXeXeXeXeXeX",
"eXeXeXeXeXeXeXeXeXeXeXeXeXeX4 6 7 =.H.J.K.P.:.t.r.r.-.#.0.0.9.9.&.] ] ' , > eXeXeXeXeXeXeXeXeXeX",
"eXeXeXeXeXeXeXeXeXeXeXeXeXeX6 9 w :.D.K.K.K.I.R.I.>.>.;.;.#.0.9.*.[ &.&.' > > eXeXeXeXeXeXeXeXeX",
"eXeXeXeXeXeXeXeXeXeXeXeXeX9 8 l b v V U.U.U.i.i.R.R.I.3.;.-.-.l.l.7.*.*.&.' 3 eXeXeXeXeXeXeXeXeX",
"eXeXeXeXeXeXeXeXeXeXeXeX% 8 x :.1.Z 2.U.E.E.p.p.E.E.R.T.T.3.;.-.@.q.*.*.&.' , eXeXeXeXeXeXeXeXeX",
"eXeXeXeXeXeXeXeXeXeXeXeX6 x D.L.L.4.p.Q.W.W.s.s.W.W.E.T.T.T.T.3.;.,.@.l.*.{ f eXeXeXeXeXeXeXeXeX",
"eXeXeXeXeXeXeXeXeXeXeX4 c Z.L.L.U.Q.Q.!.!.!.a.a.!.!.W.Q.U.E.R.4.3.,.-.@.@.,.f eXeXeXeXeXeXeXeXeX",
"eXeXeXeXeXeXeXeXeXeXeX% x F.L.L.U.Q.!.!.!.!.Z.Z.!.!.!.!.Q.f.f.5.5.T.T.J.F.,.9 eXeXeXeXeXeXeXeXeX",
"eXeXeXeXeXeXeXeXeXeXeX6 x F.L.U.U.Q.!.!.!.!.!.!.!.!.!.!.!.Z.f.f.Q.T.T.T.H.H.,.4 eXeXeXeXeXeXeXeX",
"eXeXeXeXeXeXeXeXeXeXeX% x Z.H.L.U.Q.Q.!.W.Q.U.Q.p.a.!.!.!.!.Z.f.Q.R.4.1.F.J.c ; eXeXeXeXeXeXeXeX",
"eXeXeXeXeXeXeXeXeXeXeXeX8 x D.L.L.U.U.Q.U.U.U.i.i.p.a.!.!.!.!.!.Q.U.4.L.H.H.c % eXeXeXeXeXeXeXeX",
"eXeXeXeXeXeXeXeXeXeXeXeXeX7 C :.D.L.L.L.L.Z Z i.i.d.s.W.!.!.!.!.Q.U.L.H.H.x 6 % eXeXeXeXeXeXeXeX",
"eXeXeXeXeXeXeXeXeXeXeXeXeXeX8 e l l B B B B V E i.4.E.W.!.E.W.E.L.L.L.H.=.7 4 eXeXeXeXeXeXeXeXeX",
"eXeXeXeXeXeXeXeXeXeXeXeXeXeXeX8 l 6 l l b B B V E I.E.W.E.E.E.R.L.1.:.x 9 4 eXeXeXeXeXeXeXeXeXeX",
"eXeXeXeXeXeXeXeXeXeXeXeXeXeXeXeX4 6 7 e w g v P.I.I.I.Y.U.E.T.1.:.b l 8 eXeXeXeXeXeXeXeXeXeXeXeX",
"eXeXeXeXeXeXeXeXeXeXeXeXeXeXeXeXeX5 5 d N H.J.P.P.Y.I.I.d.y.1.M g M c eXeXeXeXeXeXeXeXeXeXeXeXeX",
"eXeXeXeXeXeXeXeXeXeXeXeXeXeXeXeXeX5 5 j N N e.y.y.y.u.y.y.R m m j d eXeXeXeXeXeXeXeXeXeXeXeXeXeX",
"eXeXeXeXeXeXeXeXeXeXeXeXeXeXeXeXeX5 5 K Y O.O.v.b.( [._.Q o.-.h j eXeXeXeXeXeXeXeXeXeXeXeXeXeXeX",
"eXeXeXeXeXeXeXeXeXeXeXeXeXeXeXeXeX0 J K O.v.v.M.) _._._.( k.o.O.h j eXeXeXeXeXeXeXeXeXeXeXeXeXeX",
"eXeXeXeXeXeXeXeXeXeXeXeXeXeXeXeX0 L L O.v.v.M.) _._._.h.b.v.k.O...h eXeXeXeXeXeXeXeXeXeXeXeXeXeX",
"eXeXeXeXeXeXeXeXeXeXeXeXeXeXeX0 J K K ^ ^ ) ) {.(.[.[.) M.n.b.k.X.h eXeXeXeXeXeXeXeXeXeXeXeXeXeX",
"eXeXeXeXeXeXeXeXeXeXeXeXeXeX& s g G.`.(.(.].{.{.{.[.$X) B.N.B.n.o.o.N eXeXeXeXeXeXeXeXeXeXeXeXeX",
"eXeXeXeXeXeXeXeXeXeXeX. O $ a z G.F.).).).{.:X:Xh.$X$X#Xj.V.V.B.m.;.g.w eXeXeXeXeXeXeXeXeXeXeXeX",
"eXeXeXeXeXeXeXeXeXeX  O O % & 0 Y H.).].].:X:X>X,X#X#X*X0X0XqXqX4X4X3X_ l eXeXeXeXeXeXeXeXeXeXeX",
"eXeXeXeXeXeXeXeXeX. . O u p z m R ! (.(.].:X>X<X<X7X*X*X0X0X0X0X9X9X4Xg.T * eXeXeXeXeXeXeXeXeXeX",
"eXeXeXeXeXeXeXeXeX. o < i p a m R W ^ (.].|.>X>X@X7X*XwX0X0X0X0X9X=X8X3X_ l eXeXeXeXeXeXeXeXeXeX",
"eXeXeXeXeXeXeXeXeX  O C.1 p d j e.W ^ (.oXoXOXOX#X7X-X0X0X0X0X;X9X=X4X4X_ l & eXeXeXeXeXeXeXeXeX",
"eXeXeXeXeXeXeXeXeX  O 1 C.c d N P W ^ /..XoXOXOXOX+X-X0X0X0X0X;XwX9X4X6X_ * & eXeXeXeXeXeXeXeXeX",
"eXeXeXeXeXeXeXeXeXo O < 1 f d j h P I /./.oXXXXXOX|.&X-X;X0X0XqX9X4X4XA._ l & eXeXeXeXeXeXeXeXeX",
"eXeXeXeXeXeXeXeXeXeXO + 1 p p d h P ^ I /. X.X.XXXOX|.&X%XqXqXqX8X=XA.g.E q & eXeXeXeXeXeXeXeXeX",
"eXeXeXeXeXeXeXeXeXeXO + 1 C.6 6 0 h P I /.~.~. X X'.'.|.%XS.&XS.S.A.A.l B z & # eXeXeXeXeXeXeXeX",
"eXeXeXeXeXeXeXeXeXeX. O + 1 p p s g P P I I ~.~.^.^.^.'.'.].].` ` t.V M z z # . eXeXeXeXeXeXeXeX",
"eXeXeXeXeXeXeXeXeXeXeXO + < 3 p s s g g A I G G U U U / / Y ! Y M R M n a < O . eXeXeXeXeXeXeXeX",
"eXeXeXeXeXeXeXeXeXeXeX. O < 5.2 s s s * * D D D D G G G D T J q M n z z u < O . eXeXeXeXeXeXeXeX",
"eXeXeXeXeXeXeXeXeXeXeXo o O < < u u $ & = F S S S H H S A A * * a a a i u O O eXeXeXeXeXeXeXeXeX",
"eXeXeXeXeXeXeXeXeXeXeXeXo o O O + # # @ = eXeXeXeXeXeXeXF = & & % u u u + O . eXeXeXeXeXeXeXeXeX",
"eXeXeXeXeXeXeXeXeXeXeXeXeX  o o O o . . eXeXeXeXeXeXeXeXeX@ @ # $ $ $ + O .   eXeXeXeXeXeXeXeXeX",
"eXeXeXeXeXeXeXeXeXeXeXeXeX          . eXeXeXeXeXeXeXeXeXeXeXX X o # + o O   eXeXeXeXeXeXeXeXeXeX"
};
