/* XPM */
static char *result[] = {
/* columns rows colors chars-per-pixel */
"48 51 220 2 ",
"   c #240C0C",
".  c #280F0C",
"X  c #2D120C",
"o  c #2B1107",
"O  c #34140D",
"+  c #3A1B0E",
"@  c #2C1217",
"#  c #3B1B13",
"$  c #351613",
"%  c #250E12",
"&  c #3F200F",
"*  c #3C2017",
"=  c #391B20",
"-  c #2C1632",
";  c #3B262A",
":  c #3F3236",
">  c #1D0909",
",  c #431D12",
"<  c #431D18",
"1  c #4D1E15",
"2  c #7C1917",
"3  c #681F06",
"4  c #59230B",
"5  c #4A2412",
"6  c #43251A",
"7  c #4B2C1D",
"8  c #482418",
"9  c #5A2617",
"0  c #4F301F",
"q  c #68280B",
"w  c #732109",
"e  c #7C230C",
"r  c #722D0F",
"t  c #6E340D",
"y  c #682C16",
"u  c #762916",
"i  c #6D3415",
"p  c #68321D",
"a  c #743A17",
"s  c #401E34",
"d  c #4D2C21",
"f  c #482426",
"g  c #5A2C25",
"h  c #562A24",
"j  c #5A3825",
"k  c #583326",
"l  c #452636",
"z  c #433234",
"x  c #4A3434",
"c  c #563736",
"v  c #572E2B",
"b  c #672B24",
"n  c #683729",
"m  c #77392A",
"M  c #683735",
"N  c #743A37",
"B  c #702B2C",
"V  c #7B4A1E",
"C  c #75441A",
"Z  c #67442C",
"A  c #6F4132",
"S  c #774834",
"D  c #7D5436",
"F  c #74462C",
"G  c #2A1B4A",
"H  c #342859",
"J  c #352B66",
"K  c #362D73",
"L  c #3A3475",
"P  c #46335C",
"I  c #48314C",
"U  c #6B3841",
"Y  c #4A3765",
"T  c #46377A",
"R  c #4D356E",
"E  c #6A695F",
"W  c #504771",
"Q  c #724875",
"!  c #767468",
"~  c #706D68",
"^  c #49404A",
"/  c #980D0E",
"(  c #851B19",
")  c #961B19",
"_  c #930F0D",
"`  c #A31616",
"'  c #852817",
"]  c #86331A",
"[  c #92331C",
"{  c #892513",
"}  c #982936",
"|  c #943832",
" . c #8F3033",
".. c #A82423",
"X. c #A63529",
"o. c #A73934",
"O. c #B33A33",
"+. c #B42F26",
"@. c #A1301C",
"#. c #D21F30",
"$. c #D52233",
"%. c #DB2B3C",
"&. c #D72838",
"*. c #DA343D",
"=. c #D3343A",
"-. c #CE2C34",
";. c #95452B",
":. c #895627",
">. c #88473A",
",. c #944532",
"<. c #865A3A",
"1. c #945536",
"2. c #8C5329",
"3. c #A5502F",
"4. c #92673E",
"5. c #9D743E",
"6. c #8F613C",
"7. c #A9642E",
"8. c #B57834",
"9. c #86451A",
"0. c #C67D34",
"q. c #8E2745",
"w. c #DD2E42",
"e. c #DC3445",
"r. c #DC3C45",
"t. c #DA3A48",
"y. c #D23C58",
"u. c #E13E46",
"i. c #CC3868",
"p. c #CD3C73",
"a. c #925245",
"s. c #8D4F42",
"d. c #976A40",
"f. c #9E714F",
"g. c #A27942",
"h. c #806F63",
"j. c #AF5769",
"k. c #DE444A",
"l. c #D6475A",
"z. c #D95658",
"x. c #E04147",
"c. c #D84E67",
"v. c #DD636B",
"b. c #7E8074",
"n. c #BD8432",
"m. c #B88239",
"M. c #BB812F",
"N. c #C18B3A",
"B. c #BB8042",
"V. c #80807D",
"C. c #CB9945",
"Z. c #C69541",
"A. c #D5B35B",
"S. c #D8AC64",
"D. c #DAB165",
"F. c #DCB56A",
"G. c #DFB96E",
"H. c #D7B366",
"J. c #DEB476",
"K. c #DAAE71",
"L. c #E4B66B",
"P. c #E3B96D",
"I. c #E1B363",
"U. c #E3BD72",
"Y. c #E2B975",
"T. c #E5C276",
"R. c #E7C579",
"E. c #E8C679",
"W. c #E8C577",
"Q. c #3B3284",
"!. c #382F80",
"~. c #42368A",
"^. c #5B4082",
"/. c #65458B",
"(. c #764D84",
"). c #7C7B8D",
"_. c #7F7DA5",
"`. c #443DEC",
"'. c #4B43EE",
"]. c #4942EA",
"[. c #574BEA",
"{. c #5B53ED",
"}. c #5E55E7",
"|. c #4D48F1",
" X c #534DF1",
".X c #5A54F2",
"XX c #624EED",
"oX c #764EEA",
"OX c #6658E8",
"+X c #7553EA",
"@X c #635DF3",
"#X c #6966EA",
"$X c #7866E8",
"%X c #7B71E7",
"&X c #AF7B82",
"*X c #856BE3",
"=X c #998A9A",
"-X c #868798",
";X c #9DA08B",
":X c #B2AE99",
">X c #8C88A4",
",X c #B3B3A9",
"<X c #AE8599",
"1X c #DDBE98",
"2X c #DBBEA5",
"3X c #DEC19D",
"4X c #DACCB4",
"5X c #D3D3BD",
"6X c #DAD2BB",
"7X c #DDC1A6",
"8X c #E2CDB7",
"9X c #E3D2BC",
"0X c #DCDBCD",
"qX c #D9D8C5",
"wX c #DCDBD2",
"eX c #D7D8D2",
"rX c #E1DBCB",
"tX c #E0DAC7",
"yX c #E1DED0",
"uX c None",
/* pixels */
"uXuXuXuXuXuXuXuXuXuXuXuXuXuXuXuXuXu B ' ] [ [ [ ( 2 2 uXuXuXuXuXuXuXuXuXuXuXuXuXuXuXuXuXuXuXuXuX",
"uXuXuXuXuXuXuXuXuXuXuXuXuXuXuXuXuXu ] ` ........[ ] ( 2 uXuXuXuXuXuXuXuXuXuXuXuXuXuXuXuXuXuXuXuX",
"uXuXuXuXuXuXuXuXuXuXuXuXuXuXuXuXu u ) ..e.e.e.e...` ' u 2 uXuXuXuXuXuXuXuXuXuXuXuXuXuXuXuXuXuXuX",
"uXuXuXuXuXuXuXuXuXuXuXuXuXuXuXuXy ( t.t.r.k.r.u.e.w.` ' u uXuXuXuXuXuXuXuXuXuXuXuXuXuXuXuXuXuXuX",
"uXuXuXuXuXuXuXuXuXuXuXuXuXuXuX1 u ) =.5X4X4X9Xx.e.w.w.` ' w uXuXuXuXuXuXuXuXuXuXuXuXuXuXuXuXuXuX",
"uXuXuXuXuXuXuXuXuXuXuXuXuXuXuXq 2 =.4XX.4XO.8X8Xr.w.w.$./ { w uXuXuXuXuXuXuXuXuXuXuXuXuXuXuXuXuX",
"uXuXuXuXuXuXuXuXuXuXuXuXuXuX< q ( =.4XX.o.O.9X8Xu.e.w.%.$./ e w uXuXuXuXuXuXuXuXuXuXuXuXuXuXuXuX",
"uXuXuXuXuXuXuXuXuXuXuX  % $ $ < f ) 5XX.o.O.8X8Xu.e.w.%.$.$./ w uXuXuXuXuXuXuXuXuXuXuXuXuXuXuXuX",
"uXuXuXuXuXuXuXuXuXuX>   % X $ < d v n N >.6X4Xk.u.u.w.w.&.$.` _ w uXuXuXuXuXuXuXuXuXuXuXuXuXuXuX",
"uXuXuXuXuXuXuXuXuXuXuX  X X # < h k n N N >.>.l.y.e.w.w.%.$.$./ { w uXuXuXuXuXuXuXuXuXuXuXuXuXuX",
"uXuXuXuXuXuXuXuXuXuXuXuXuX* # 8 7 n Z S S S s.| O.t.u.w.%.&.$.` { { w q uXuXuXuXuXuXuXuXuXuXuXuX",
"uXuXuXuXuXuXuXuXuXuXuXuXuX6 d 7 C S.D.F.I.>.1.>.| | +.u.*.%.&.$./ / _ q 3 uXuXuXuXuXuXuXuXuXuXuX",
"uXuXuXuXuXuXuXuXuXuXuXuXuXd j j 9.Z.F.G.L.L.Y.U.1.,.;.| +.e.%.&.` $.#._ w 3 uXuXuXuXuXuXuXuXuXuX",
"uXuXuXuXuXuXuXuXuXuXuXuXj 0 j Z S D G.G.Y.d.1.U.U.U.0.;.3.[ *.*.&.$.$.#._ q uXuXuXuXuXuXuXuXuXuX",
"uXuXuXuXuXuXuXuXuXuXuXuX7 V :.:.D <.T.T.U.d.d.U.U.U.P.L.0.;.| +.*.*.-.-.( q uXuXuXuXuXuXuXuXuXuX",
"uXuXuXuXuXuXuXuXuXuXuX7 V N.F.T.m.d.T.R.U.g.g.W.W.U.T.P.L.I.3.;.;.@.*.-.) r uXuXuXuXuXuXuXuXuXuX",
"uXuXuXuXuXuXuXuXuXuX* C N.H.G.U.E.E.E.E.E.m.m.R.R.R.T.T.G.G.7.7.;.;.X.@.] t uXuXuXuXuXuXuXuXuXuX",
"uXuXuXuXuXuXuXuXuXuX* C H.F.G.T.E.E.E.E.E.C.B.R.R.R.R.R.M.m.8.7.P.L.I.S.9.9 uXuXuXuXuXuXuXuXuXuX",
"uXuXuXuXuXuXuXuXuXuX7 C H.G.U.T.R.E.E.E.R.R.T.3XR.T.T.R.m.m.8.G.P.P.L.I.A.a 5 uXuXuXuXuXuXuXuXuX",
"uXuXuXuXuXuXuXuXuXuX* C N.F.G.T.R.R.E.E.T.T.T.d.m.3XR.R.W.n.Z.T.P.N.M.D.D.C 8 uXuXuXuXuXuXuXuXuX",
"uXuXuXuXuXuXuXuXuXuXuX0 V C.F.G.G.T.U.U.U.G.d.d.4.5.E.E.E.E.W.W.T.n.F.D.A.a 6 uXuXuXuXuXuXuXuXuX",
"uXuXuXuXuXuXuXuXuXuXuXuX0 V C.H.F.G.G.G.6.D D d.4.5.T.R.W.W.W.T.T.P.F.A.C 7 * uXuXuXuXuXuXuXuXuX",
"uXuXuXuXuXuXuXuXuXuXuXuXuX0 j j Z Z S D D D D s.m.E.T.T.T.W.T.G.P.F.D.V d 6 uXuXuXuXuXuXuXuXuXuX",
"uXuXuXuXuXuXuXuXuXuXuXuXuXuXd k j j c Z Z S S D U.T.T.T.T.T.G.G.:.:.V 0 7 uXuXuXuXuXuXuXuXuXuXuX",
"uXuXuXuXuXuXuXuXuXuXuXuXuXuXuX6 7 h v b M A K.K.G.J.1XP.P.P.6.:.n j 0 uXuXuXuXuXuXuXuXuXuXuXuXuX",
"uXuXuXuXuXuXuXuXuXuXuXuXuXuXuXuXf f p 7.S.K.K.K.J.J.Y.B.1.1.F n S F uXuXuXuXuXuXuXuXuXuXuXuXuXuX",
"uXuXuXuXuXuXuXuXuXuXuXuXuXuXuXuXf f f m N >.s.s.a.a.a.1.U M F m m uXuXuXuXuXuXuXuXuXuXuXuXuXuXuX",
"uXuXuXuXuXuXuXuXuXuXuXuXuXuXuXuX; l P Y  .q.l.l.Q +X+XQ | | N B uXuXuXuXuXuXuXuXuXuXuXuXuXuXuXuX",
"uXuXuXuXuXuXuXuXuXuXuXuXuXuXuXuXl H Y q.i.i.i.Q oXoXoXQ y.} m B uXuXuXuXuXuXuXuXuXuXuXuXuXuXuXuX",
"uXuXuXuXuXuXuXuXuXuXuXuXuXuXuXuXP R q.i.i.p./.+XoXoX(.l.l.y.}  .N uXuXuXuXuXuXuXuXuXuXuXuXuXuXuX",
"uXuXuXuXuXuXuXuXuXuXuXuXuXuXuXH P Y R ~././.XX+XoXoX(.c.l.l.t. .m uXuXuXuXuXuXuXuXuXuXuXuXuXuXuX",
"uXuXuXuXuXuXuXuXuXuXuXuXuXuXb M A.[.XXoXXX+X+X+X+X+X(.v.c.l.z.| | F uXuXuXuXuXuXuXuXuXuXuXuXuXuX",
"uXuXuXuXuXuXuXuXuXuXuXuXuXg j A.H.}.[.OXOX1X1Xj.%X$X*Xj.v.v.v.z.3.h.c uXuXuXuXuXuXuXuXuXuXuXuXuX",
"uXuXuXuXuXuXuXuXuXuXuXuXuXj n A.H.[.XXOX1X1X3X3X%X*X=XwXtXtXrXtXqX5X! x uXuXuXuXuXuXuXuXuXuXuXuX",
"uXuXuXuXuXuXuXuXuXuXuXuXuXg c H.f.[..X}.1X3X1X3X%X=X=XyXrXrXtXtXqX5X! c uXuXuXuXuXuXuXuXuXuXuXuX",
"uXuXuXuXuXuXuXuXuXuXuXuXuXuXJ L [.|. X.XOX2X7X<X%X>XwXyXyXyXrX0X:X6X5XE z uXuXuXuXuXuXuXuXuXuXuX",
"uXuXuXuXuXuXuXuXuXuXuXuXuXuXJ L `.|.|. X{.@X@X$X#X>XeXeXwXwX,X0X:XqX5XE : uXuXuXuXuXuXuXuXuXuXuX",
"uXuXuXuXuXuXuXuXuXuXuXuXuXuXJ K Q.`.|.|. X.X.X@X#X>XeXeXwXyX,X0XtX6X5XE : uXuXuXuXuXuXuXuXuXuXuX",
"uXuXuXuXuXuXuXuXuXuXuXuXuXuXG K K `.'.'.|. X XXX@X_.>X,XwX0X0XqXqX5X! E ; uXuXuXuXuXuXuXuXuXuXuX",
"uXuXuXuXuXuXuXuXuXuXuXuXuXuXG G K !.`.`.'.'. X X.X#X).-XeXqXqXqX;Xb.E : uXuXuXuXuXuXuXuXuXuXuXuX",
"uXuXuXuXuXuXuXuXuXuXuXuXuXuX- - G K !.~.`.`.`.|. X{.}.).V.b.b.b.! ~ z uXuXuXuXuXuXuXuXuXuXuXuXuX",
"uXuXuXuXuXuXuXuXuXuXuXuXuXuX@ - - J K K ~.~.~.`.|. X{.{.}.}.E W I z uXuXuXuXuXuXuXuXuXuXuXuXuXuX",
"uXuXuXuXuXuXuXuXuXuXuXuXuX% @ - h g M K R !.~.~.T W W ^.W W W J ^ uXuXuXuXuXuXuXuXuXuXuXuXuXuXuX",
"uXuXuXuXuXuXuXuXuXuXuXuXuX. . 5 9 9 g ; B B B U I U U U M z ; ; : uXuXuXuXuXuXuXuXuXuXuXuXuXuXuX",
"uXuXuXuXuXuXuXuXuXuXuXuXuX  X 4 4 y # b b n B n M l m n j n = ; uXuXuXuXuXuXuXuXuXuXuXuXuXuXuXuX",
"uXuXuXuXuXuXuXuXuXuXuXuXuX  . X 4 4 # y y i p n p b f b p m.$ @ uXuXuXuXuXuXuXuXuXuXuXuXuXuXuXuX",
"uXuXuXuXuXuXuXuXuXuXuXuXuXuX  X O $ # q y t i i i i i m.m.# $ @ uXuXuXuXuXuXuXuXuXuXuXuXuXuXuXuX",
"uXuXuXuXuXuXuXuXuXuXuXuXuXuXuX. o O + q q t t t n.n.n.6 * $ X uXuXuXuXuXuXuXuXuXuXuXuXuXuXuXuXuX",
"uXuXuXuXuXuXuXuXuXuXuXuXuXuXuXuXo O + , M.M.M.M.5 5 5 # + + uXuXuXuXuXuXuXuXuXuXuXuXuXuXuXuXuXuX",
"uXuXuXuXuXuXuXuXuXuXuXuXuXuXuXuXo O O + , 5 5 5 , 5 + & + uXuXuXuXuXuXuXuXuXuXuXuXuXuXuXuXuXuXuX",
"uXuXuXuXuXuXuXuXuXuXuXuXuXuXuXuXuXo X + , + 5 5 & & & + uXuXuXuXuXuXuXuXuXuXuXuXuXuXuXuXuXuXuXuX"
};
