/* XPM */
static char *result[] = {
/* columns rows colors chars-per-pixel */
"48 51 220 2 ",
"   c #290C0B",
".  c #380D0E",
"X  c #2C110E",
"o  c #32160D",
"O  c #38180E",
"+  c #2D1316",
"@  c #3C1C11",
"#  c #351816",
"$  c #3E2415",
"%  c #32192F",
"&  c #34252C",
"*  c #3F272F",
"=  c #3F312D",
"-  c #392638",
";  c #441E11",
":  c #481311",
">  c #551211",
",  c #7B0F0F",
"<  c #750F0E",
"1  c #6D0D10",
"2  c #442313",
"3  c #4A2313",
"4  c #492817",
"5  c #582917",
"6  c #54331E",
"7  c #6B2309",
"8  c #752508",
"9  c #652B19",
"0  c #663218",
"q  c #773710",
"w  c #5B3423",
"e  c #532D2F",
"r  c #673326",
"t  c #7A430C",
"y  c #77440B",
"u  c #6F4518",
"i  c #744B12",
"p  c #75441A",
"a  c #784A16",
"s  c #774D15",
"d  c #4E433B",
"f  c #6A4626",
"g  c #744524",
"h  c #72432B",
"j  c #6D4435",
"k  c #734534",
"l  c #70483A",
"z  c #725429",
"x  c #2E1D52",
"c  c #3F3144",
"v  c #312140",
"b  c #2D2A6B",
"n  c #312D79",
"m  c #363579",
"M  c #462B46",
"N  c #4D3150",
"B  c #623854",
"V  c #553C78",
"C  c #653967",
"Z  c #554751",
"A  c #6C444A",
"S  c #724642",
"D  c #6D4758",
"F  c #575665",
"G  c #4C437A",
"H  c #4C486F",
"J  c #675265",
"K  c #5E6662",
"L  c #6E7662",
"P  c #6E736B",
"I  c #930F0A",
"U  c #9A170B",
"Y  c #88110E",
"T  c #A41E0C",
"R  c #AC1F0E",
"E  c #9C240D",
"W  c #843309",
"Q  c #8B340A",
"!  c #98360C",
"~  c #81351D",
"^  c #AB200E",
"/  c #B3210F",
"(  c #B62011",
")  c #B83917",
"_  c #A52F12",
"`  c #893E21",
"'  c #97332F",
"]  c #A63726",
"[  c #AB3B32",
"{  c #C72318",
"}  c #C33D18",
"|  c #D1261D",
" . c #DC2F2E",
".. c #DB322E",
"X. c #DE2F31",
"o. c #DD3332",
"O. c #DC3B33",
"+. c #E33235",
"@. c #E53C36",
"#. c #E63439",
"$. c #E9343B",
"%. c #E43B3A",
"&. c #E93A3C",
"*. c #844B0E",
"=. c #88541B",
"-. c #94581E",
";. c #8F4C16",
":. c #99641C",
">. c #B7771F",
",. c #A76D1E",
"<. c #974828",
"1. c #855E28",
"2. c #9A5626",
"3. c #915130",
"4. c #A45634",
"5. c #A44B30",
"6. c #A8732C",
"7. c #BD7B23",
"8. c #B97727",
"9. c #A97830",
"0. c #B16C2A",
"q. c #C6421E",
"w. c #C64824",
"e. c #E44436",
"r. c #E5443B",
"t. c #E64A3D",
"y. c #E8413C",
"u. c #C37D23",
"i. c #CA7C24",
"p. c #C87B27",
"a. c #C27F35",
"s. c #D07E2E",
"d. c #8A3249",
"f. c #9B5644",
"g. c #AC5547",
"h. c #BE7C42",
"j. c #9A6E6E",
"k. c #DB4B58",
"l. c #DB4B50",
"z. c #C17E42",
"x. c #D94867",
"c. c #DD5766",
"v. c #D74876",
"b. c #DE5A77",
"n. c #E06C79",
"m. c #DD6B6B",
"M. c #7A8373",
"N. c #BD8B3C",
"B. c #CC852B",
"V. c #C68529",
"C. c #C48835",
"Z. c #C38339",
"A. c #C58B37",
"S. c #D08834",
"D. c #CA9339",
"F. c #D09337",
"G. c #848777",
"H. c #C39040",
"J. c #D9AB66",
"K. c #DAB26D",
"L. c #D7B06A",
"P. c #DDB571",
"I. c #DEB974",
"U. c #E3BB76",
"Y. c #E5BE7A",
"T. c #E4B875",
"R. c #E6C17B",
"E. c #E7C077",
"W. c #383687",
"Q. c #38338B",
"!. c #463F94",
"~. c #4F378B",
"^. c #4D478A",
"/. c #7C7CAE",
"(. c #3E3BED",
"). c #3F3BF0",
"_. c #4239EE",
"`. c #573EED",
"'. c #423EF2",
"]. c #4C3FF2",
"[. c #523FF1",
"{. c #7A78C6",
"}. c #4A43EE",
"|. c #5144EC",
" X c #5549EB",
".X c #4443F5",
"XX c #4B44F4",
"oX c #4C49F6",
"OX c #534CF4",
"+X c #5645F4",
"@X c #5A55F6",
"#X c #5B55EE",
"$X c #6A49EB",
"%X c #7849EC",
"&X c #6547F2",
"*X c #665CF5",
"=X c #7852EE",
"-X c #6B67F0",
";X c #8F79AF",
":X c #937399",
">X c #D64A8A",
",X c #DE658A",
"<X c #877AC1",
"1X c #8251E7",
"2X c #818A8F",
"3X c #B3B0AD",
"4X c #9F8BA7",
"5X c #A79FCC",
"6X c #C7C6CA",
"7X c #D4D3CC",
"8X c #DAD5CE",
"9X c #DBD6D4",
"0X c #D7D6DB",
"qX c #DCD7D9",
"wX c #C3C2D2",
"eX c #E1D7D7",
"rX c #D4D3E4",
"tX c #DBD6E1",
"yX c #D0CFE7",
"uX c None",
/* pixels */
"uXuXuXuXuXuXuXuXuXuXuXuXuXuXuXuXuXuXuX< < , ! ! ! ! ! Q , < uXuXuXuXuXuXuXuXuXuXuXuXuXuXuXuXuXuX",
"uXuXuXuXuXuXuXuXuXuXuXuXuXuXuXuXuXuXuX, Q ! R / ( ( / R Q , uXuXuXuXuXuXuXuXuXuXuXuXuXuXuXuXuXuX",
"uXuXuXuXuXuXuXuXuXuXuXuXuXuXuXuXuXuX, Q T / ( X.+.X. ./ ^ Q < uXuXuXuXuXuXuXuXuXuXuXuXuXuXuXuXuX",
"uXuXuXuXuXuXuXuXuXuXuXuXuXuXuXuXuXuXW T / X.X.X.+.+.+. .^ U W uXuXuXuXuXuXuXuXuXuXuXuXuXuXuXuXuX",
"uXuXuXuXuXuXuXuXuXuXuXuXuXuXuXuXuX8 I R X.+.X.$.#.#.+.X. .T W 1 uXuXuXuXuXuXuXuXuXuXuXuXuXuXuXuX",
"uXuXuXuXuXuXuXuXuXuXuXuXuXuXuXuXuXW T  .+.+.$.$.#.#.#.+.X. .U 8 > uXuXuXuXuXuXuXuXuXuXuXuXuXuXuX",
"uXuXuXuXuXuXuXuXuXuXuXuXuXuXuXuX8 U ^ X.+.+.#.$.$.$.#.+.o.X.^ I : .     uXuXuXuXuXuXuXuXuXuXuXuX",
"uXuXuXuXuXuXuXuXuXuXuXuXuXuXuX8 I R ..+.+.#.$.$.$.$.#.#.+.o.T I : :       uXuXuXuXuXuXuXuXuXuXuX",
"uXuXuXuXuXuXuXuXuXuXuXuXuXuXuXq T  .X.+.$.$.$.$.$.$.$.$.o.o.o.U > : +     uXuXuXuXuXuXuXuXuXuXuX",
"uXuXuXuXuXuXuXuXuXuXuXuXuXuXY Q R  .+.+.$.$.$.$.$.$.$.$.o.o.o.E 7 : . o uXuXuXuXuXuXuXuXuXuXuXuX",
"uXuXuXuXuXuXuXuXuXuXuXuXuX8 W ! R X.+.$.$.$.$.$.$.$.&.$.#.o.O.9 > > : @ uXuXuXuXuXuXuXuXuXuXuXuX",
"uXuXuXuXuXuXuXuXuXuXuXuX8 I T / ( { { | $.$.$.$.$.$.&.$.%.#.~ 9 5 3 3 2 uXuXuXuXuXuXuXuXuXuXuXuX",
"uXuXuXuXuXuXuXuXuXuXuX7 U ^ ....+.+.$.$.| | &.&.&.&.&.@.%.` q r 0 6 4 2 uXuXuXuXuXuXuXuXuXuXuXuX",
"uXuXuXuXuXuXuXuXuXuX7 I E ..o.o.+.+.$.+.#.&.&.&.y.y.t.r.<.<.a.2.=.=.*.i 4 uXuXuXuXuXuXuXuXuXuXuX",
"uXuXuXuXuXuXuXuXuXuX8 E ....O.+.+.$.#.#.&.&.&.&.t.t.r.<.<.a.Z.p.:.L.K.s i $ uXuXuXuXuXuXuXuXuXuX",
"uXuXuXuXuXuXuXuXuXuXq E ..O.O.@.@.@.@.@.&.&.t.t.t.w.5.0.0.0.C.C.I.P.I.L.s $ uXuXuXuXuXuXuXuXuXuX",
"uXuXuXuXuXuXuXuXuXuX7 _ O.O.@.@.@.@.y.e.y.e.t.q.w.w.S.T.T.T.8.F.I.I.I.L.s $ uXuXuXuXuXuXuXuXuXuX",
"uXuXuXuXuXuXuXuXuX; t J._ ) e.e.e.e.e.e.} } q.s.S.S.T.Y.Y.Y.Y.9.D.E.K.K.s 4 uXuXuXuXuXuXuXuXuXuX",
"uXuXuXuXuXuXuXuXuX; t J.J.>.) ) } } } q.i.i.B.B.S.F.U.E.R.R.Y.9.N.z K.L.s $ uXuXuXuXuXuXuXuXuXuX",
"uXuXuXuXuXuXuXuXuX; W J.J.>.u.i.i.i.i.i.i.B.B.B.S.F.E.E.R.R.Y.9.N.z z L.s $ uXuXuXuXuXuXuXuXuXuX",
"uXuXuXuXuXuXuXuXuX; y *.J.>.u.i.i.i.i.i.V.V.B.B.F.D.E.R.R.R.R.9.I.z f s u $ uXuXuXuXuXuXuXuXuXuX",
"uXuXuXuXuXuXuXuXuXuX2 y *.;.>.>.u.u.u.V.u.V.V.A.F.D.D.R.R.R.9.I.P.z 6 u $ uXuXuXuXuXuXuXuXuXuXuX",
"uXuXuXuXuXuXuXuXuXuXuX3 t -.>.>.>.u.u.V.V.V.V.V.V.D.D.D.9.6.I.P.z w 4 $ uXuXuXuXuXuXuXuXuXuXuXuX",
"uXuXuXuXuXuXuXuXuXuXuX5 3 *.*.>.>.u.u.>.V.u.V.V.C.D.U.U.T.T.P.1.s 4 uXuXuXuXuXuXuXuXuXuXuXuXuXuX",
"uXuXuXuXuXuXuXuXuXuXuXuX3 t ,.0.8.8.8.a.a.a.a.Z.C.C.Z.T.T.P.=.=.w w uXuXuXuXuXuXuXuXuXuXuXuXuXuX",
"uXuXuXuXuXuXuXuXuXuXuXuX2 y ,.0.9.8.4.3.4.z.z.z.a.Z.a.T.2.-.=.6 w uXuXuXuXuXuXuXuXuXuXuXuXuXuXuX",
"uXuXuXuXuXuXuXuXuXuXuXuX# 0 a =.3.3.3.k.k.f.f.g.4.4.2.2.2.r 6 w uXuXuXuXuXuXuXuXuXuXuXuXuXuXuXuX",
"uXuXuXuXuXuXuXuXuXuXuXuXuX2 q ' ' C x.x.x.=X1X1Xj.k.l.[ ] B 9 9 uXuXuXuXuXuXuXuXuXuXuXuXuXuXuXuX",
"uXuXuXuXuXuXuXuXuXuXuXuXuXe h ' V $Xx.v.v.%X%X1Xx.x.k.l.[ ] B M uXuXuXuXuXuXuXuXuXuXuXuXuXuXuXuX",
"uXuXuXuXuXuXuXuXuXuXuXuXM M k d.V &X`.>X$X%X%X%Xv.x.k.k.[ ] A B uXuXuXuXuXuXuXuXuXuXuXuXuXuXuXuX",
"uXuXuXuXuXuXuXuXuXuXuXuXM j d.~.~.`.+X>X&X&X&X1Xv.b.c.c.k.[ ] Z N uXuXuXuXuXuXuXuXuXuXuXuXuXuXuX",
"uXuXuXuXuXuXuXuXuXuXuXuXc K d.~.[.[.[.[.+X&X&X1X:X>Xb.c.c.g.4.J Z uXuXuXuXuXuXuXuXuXuXuXuXuXuXuX",
"uXuXuXuXuXuXuXuXuXuXuX= K 7X^.!.oXXX].[.+X+X&X=X4X,X,X,Xn.m.h.f.J Z uXuXuXuXuXuXuXuXuXuXuXuXuXuX",
"uXuXuXuXuXuXuXuXuXuX& K 6XwX!.XXoXoX].XX+X+X&X&X;X4XtXqXeX9X9X7XG.Z uXuXuXuXuXuXuXuXuXuXuXuXuXuX",
"uXuXuXuXuXuXuXuXuXuX& K wXwX!.|.oX.X.X.XoXOX*X*X;XtXtXeXqXeX8X8X7XM.d uXuXuXuXuXuXuXuXuXuXuXuXuX",
"uXuXuXuXuXuXuXuXuXuX& K 6XwX^.}..X.X.X.X.XOX@X*X<XyXtXtXeXeX9X3X8X7XL = uXuXuXuXuXuXuXuXuXuXuXuX",
"uXuXuXuXuXuXuXuXuXuX& F wXW.!.}..X.X.X.XoXoX@X*X-X5XtXtXtX3XqX3X7X7XL = uXuXuXuXuXuXuXuXuXuXuXuX",
"uXuXuXuXuXuXuXuXuXuXuX- F W.W.(.'..X.X.X.XoX@X*X<XyXrXtXtX3X0X9X7X7XL = uXuXuXuXuXuXuXuXuXuXuXuX",
"uXuXuXuXuXuXuXuXuXuXuXuX- m W.(.).'.'..X.XoX@X@X{.yXrXrXrX0X0X7X7XM.d uXuXuXuXuXuXuXuXuXuXuXuXuX",
"uXuXuXuXuXuXuXuXuXuXuXuXuXb n W.).).'..X.XoXoX@X*X{.rX0XtX0X7XG.L d = uXuXuXuXuXuXuXuXuXuXuXuXuX",
"uXuXuXuXuXuXuXuXuXuXuXuXuXuXb n Q.(.(._._.].OXOX@X#X/.2X2X2XG.Z d uXuXuXuXuXuXuXuXuXuXuXuXuXuXuX",
"uXuXuXuXuXuXuXuXuXuXuXuXuXuXx b n ~._._.].].oX|.#X#X#X-XF F Z F uXuXuXuXuXuXuXuXuXuXuXuXuXuXuXuX",
"uXuXuXuXuXuXuXuXuXuXuXuXuXuXuXx v x B C }.|.|.|.}. X}.G G H Z uXuXuXuXuXuXuXuXuXuXuXuXuXuXuXuXuX",
"uXuXuXuXuXuXuXuXuXuXuXuXuXuXuXx % - B A D D |.|. XG V H c c c uXuXuXuXuXuXuXuXuXuXuXuXuXuXuXuXuX",
"uXuXuXuXuXuXuXuXuXuXuXuXuXuXuX+ % r r j S S N N N l l j e % & uXuXuXuXuXuXuXuXuXuXuXuXuXuXuXuXuX",
"uXuXuXuXuXuXuXuXuXuXuXuXuXuXuX+ # 6 r h h k k M j k f f 6 # + uXuXuXuXuXuXuXuXuXuXuXuXuXuXuXuXuX",
"uXuXuXuXuXuXuXuXuXuXuXuXuXuXuX+ # N.0 0 g g g g g g p 0 5 # X uXuXuXuXuXuXuXuXuXuXuXuXuXuXuXuXuX",
"uXuXuXuXuXuXuXuXuXuXuXuXuXuXuXX o $ A.H.,.a p p p p u 0 :.# X uXuXuXuXuXuXuXuXuXuXuXuXuXuXuXuXuX",
"uXuXuXuXuXuXuXuXuXuXuXuXuXuXuXuXo # $ 2 3 ,.A.H.D.A.H.:.$ o X uXuXuXuXuXuXuXuXuXuXuXuXuXuXuXuXuX",
"uXuXuXuXuXuXuXuXuXuXuXuXuXuXuXuXo O @ ; 2 3 4 4 3 3 2 2 O o uXuXuXuXuXuXuXuXuXuXuXuXuXuXuXuXuXuX",
"uXuXuXuXuXuXuXuXuXuXuXuXuXuXuXuXuXo O O ; 3 3 3 3 3 ; ; O o uXuXuXuXuXuXuXuXuXuXuXuXuXuXuXuXuXuX"
};
