/* XPM */
static char *result[] = {
/* columns rows colors chars-per-pixel */
"48 50 221 2 ",
"   c #290C0B",
".  c #380D0E",
"X  c #2C110D",
"o  c #3A1B0C",
"O  c #36170E",
"+  c #3C1D10",
"@  c #351815",
"#  c #2D1315",
"$  c #3D2316",
"%  c #321D2A",
"&  c #35262A",
"*  c #3A2838",
"=  c #3F322D",
"-  c #461C0E",
";  c #4C120F",
":  c #441E11",
">  c #461412",
",  c #541712",
"<  c #5C0B0E",
"1  c #7B0F0F",
"2  c #750F0E",
"3  c #6D0D10",
"4  c #442313",
"5  c #4B2312",
"6  c #472818",
"7  c #572A17",
"8  c #54331E",
"9  c #7C3308",
"0  c #77360A",
"q  c #632916",
"w  c #6D3E18",
"e  c #702E13",
"r  c #41332D",
"t  c #593522",
"y  c #51302C",
"u  c #673622",
"i  c #7B430D",
"p  c #78440C",
"a  c #744314",
"s  c #744A13",
"d  c #7A4E16",
"f  c #76431B",
"g  c #764619",
"h  c #784D16",
"j  c #5D523C",
"k  c #4E4038",
"l  c #6A462A",
"z  c #75442A",
"x  c #774725",
"c  c #79552A",
"v  c #6C433B",
"b  c #75463C",
"n  c #764635",
"m  c #76522E",
"M  c #362745",
"N  c #462B47",
"B  c #4B3250",
"V  c #513C77",
"C  c #56465B",
"Z  c #5C4F46",
"A  c #74484B",
"S  c #7D5244",
"D  c #744856",
"F  c #684652",
"G  c #4D4A76",
"H  c #685266",
"J  c #5E6661",
"K  c #636769",
"L  c #737966",
"P  c #6E6978",
"I  c #9B1D0B",
"U  c #961E0B",
"Y  c #801011",
"T  c #A41E0D",
"R  c #AB1F0E",
"E  c #AE1F10",
"W  c #9D240E",
"Q  c #84330A",
"!  c #8C340B",
"~  c #99360D",
"^  c #82351E",
"/  c #A8210E",
"(  c #A82611",
")  c #B42111",
"_  c #B92013",
"`  c #B93918",
"'  c #AB3214",
"]  c #90362B",
"[  c #A6382A",
"{  c #AC3B34",
"}  c #C72319",
"|  c #C43D19",
" . c #D1261E",
".. c #DB2E2F",
"X. c #DD2F31",
"o. c #DD3333",
"O. c #DC3B34",
"+. c #D9332F",
"@. c #E23235",
"#. c #E43D37",
"$. c #E63439",
"%. c #E9343C",
"&. c #E53B39",
"*. c #E93A3D",
"=. c #854B0F",
"-. c #895219",
";. c #934D1B",
":. c #99641C",
">. c #A4691E",
",. c #B1741F",
"<. c #994829",
"1. c #8D5C21",
"2. c #985726",
"3. c #815D34",
"4. c #935131",
"5. c #A45635",
"6. c #A94A31",
"7. c #84633F",
"8. c #A46923",
"9. c #AE722A",
"0. c #BD7A23",
"q. c #B97626",
"w. c #A97731",
"e. c #BC7B31",
"r. c #B36328",
"t. c #C6431D",
"y. c #C84624",
"u. c #E34537",
"i. c #E5443B",
"p. c #E64A3E",
"a. c #E8413D",
"s. c #C47D24",
"d. c #CB7C25",
"f. c #C77A27",
"g. c #C37F35",
"h. c #D07E2F",
"j. c #8B324A",
"k. c #8D5A49",
"l. c #AC5549",
"z. c #BF7C43",
"x. c #DB4A57",
"c. c #DC4C53",
"v. c #C17E42",
"b. c #DA4967",
"n. c #DE5769",
"m. c #D74878",
"M. c #DE5A79",
"N. c #E06C7A",
"B. c #DD6B6C",
"V. c #79806B",
"C. c #BF8C3C",
"Z. c #CC852C",
"A. c #C78429",
"S. c #C58836",
"D. c #C4833B",
"F. c #C28D3C",
"G. c #C98A33",
"H. c #D08835",
"J. c #CD9339",
"K. c #D09338",
"L. c #81846F",
"P. c #898977",
"I. c #D9AB67",
"U. c #DAB26E",
"Y. c #D7B06B",
"T. c #DDB572",
"R. c #DEB975",
"E. c #E2BA76",
"W. c #E5BE7A",
"Q. c #E4B876",
"!. c #E6C17C",
"~. c #3F3887",
"^. c #463A86",
"/. c #453E93",
"(. c #49418F",
"). c #573EED",
"_. c #493FF2",
"`. c #533EF2",
"'. c #483EEE",
"]. c #7D79C3",
"[. c #4B43ED",
"{. c #5749EC",
"}. c #4542F5",
"|. c #4B44F3",
" X c #4B47F7",
".X c #5448F5",
"XX c #5A53F6",
"oX c #5D50E9",
"OX c #6B49EC",
"+X c #7849EC",
"@X c #7D52EC",
"#X c #6546F2",
"$X c #665BF5",
"%X c #6D56EE",
"&X c #6E68EF",
"*X c #CC399D",
"=X c #8777B3",
"-X c #9579A8",
";X c #93739A",
":X c #D84C86",
">X c #DE658B",
",X c #8652E8",
"<X c #814FEA",
"1X c #877AC1",
"2X c #8C8C8F",
"3X c #B4AFAD",
"4X c #9C83A8",
"5X c #A8A0CC",
"6X c #C9C7CB",
"7X c #D4D2CC",
"8X c #DBD6D3",
"9X c #DBD5DC",
"0X c #DCD8DD",
"qX c #DAD7D5",
"wX c #C3C2D2",
"eX c #E3D8D8",
"rX c #D5D2E4",
"tX c #DAD6E3",
"yX c #DCD8E2",
"uX c #D8CFE2",
"iX c None",
/* pixels */
"iXiXiXiXiXiXiXiXiXiXiXiXiXiXiXiXiXiX2 1 ! ~ ~ ~ ~ ~ 1 1 2 iXiXiXiXiXiXiXiXiXiXiXiXiXiXiXiXiXiXiX",
"iXiXiXiXiXiXiXiXiXiXiXiXiXiXiXiXiXiX1 ! R E _ _ ) E ~ ! 1 iXiXiXiXiXiXiXiXiXiXiXiXiXiXiXiXiXiXiX",
"iXiXiXiXiXiXiXiXiXiXiXiXiXiXiXiXiX2 Q T E X.@.X.X._ E T Q 1 iXiXiXiXiXiXiXiXiXiXiXiXiXiXiXiXiXiX",
"iXiXiXiXiXiXiXiXiXiXiXiXiXiXiXiXiXQ T / X.@.@.@.@.@.X.E T Q iXiXiXiXiXiXiXiXiXiXiXiXiXiXiXiXiXiX",
"iXiXiXiXiXiXiXiXiXiXiXiXiXiXiXiX3 Q T X.X.$.$.$.@.@.@.X.R I 9 iXiXiXiXiXiXiXiXiXiXiXiXiXiXiXiXiX",
"iXiXiXiXiXiXiXiXiXiXiXiXiXiXiX< 9 T X.X.@.$.$.%.%.%.@.X...T Q iXiXiXiXiXiXiXiXiXiXiXiXiXiXiXiXiX",
"iXiXiXiXiXiXiXiXiXiXiXiX  X . , U T X.@.@.$.%.%.%.$.$.@.X.R T 9 iXiXiXiXiXiXiXiXiXiXiXiXiXiXiXiX",
"iXiXiXiXiXiXiXiXiXiXiX    . . ; I T X.@.$.%.%.%.%.%.%.@.@.X.T I 9 iXiXiXiXiXiXiXiXiXiXiXiXiXiXiX",
"iXiXiXiXiXiXiXiXiXiXiX    . > , I X.o.$.%.%.%.%.%.%.%.%.@.X.X.T Q iXiXiXiXiXiXiXiXiXiXiXiXiXiXiX",
"iXiXiXiXiXiXiXiXiXiXiXiX  > > 3 W o.o.o.*.%.%.%.%.%.%.%.$.@.X.E ! 1 iXiXiXiXiXiXiXiXiXiXiXiXiXiX",
"iXiXiXiXiXiXiXiXiXiXiXiX+ @ , , q o.O.%.*.*.%.*.%.%.%.%.@.X.X.) ~ ! 9 iXiXiXiXiXiXiXiXiXiXiXiXiX",
"iXiXiXiXiXiXiXiXiXiXiXiX: 5 7 q u ^ O.O.%.%.*.*.%.%.%.%. .} } _ E T I 9 iXiXiXiXiXiXiXiXiXiXiXiX",
"iXiXiXiXiXiXiXiXiXiXiXiX4 7 8 w w ^ ] u.a.&.&.*.*.%. . .%.@.@.@...../ U 9 iXiXiXiXiXiXiXiXiXiXiX",
"iXiXiXiXiXiXiXiXiXiXiX4 s d -.-.6.f.<.<.i.a.a.a.*.*.*.$.$.%.%.@.@...+./ U e iXiXiXiXiXiXiXiXiXiX",
"iXiXiXiXiXiXiXiXiXiX$ s d U.U.2.e.C.A.<.6.u.p.a.a.a.*.*.$.$.%.$.@.O.+.+.W 0 iXiXiXiXiXiXiXiXiXiX",
"iXiXiXiXiXiXiXiXiXiX4 d Y.U.T.T.S.D.9.r.r.r.y.p.p.a.a.a.#.$.#.$.#.#.O.O.W 0 iXiXiXiXiXiXiXiXiXiX",
"iXiXiXiXiXiXiXiXiXiX$ h Y.U.R.!.S.9.E.Q.Q.H.y.y.t.p.a.a.a.a.#.a.O.O.O.+.( 0 iXiXiXiXiXiXiXiXiXiX",
"iXiXiXiXiXiXiXiXiXiX6 h Y.R.R.F.w.W.W.W.W.Q.H.H.h.t.| | u.u.u.u.u.u.` ' I.p : iXiXiXiXiXiXiXiXiX",
"iXiXiXiXiXiXiXiXiXiX$ s Y.R.c J.w.!.!.!.!.W.K.H.Z.h.d.d.| | | | } ` d.I.I.i - iXiXiXiXiXiXiXiXiX",
"iXiXiXiXiXiXiXiXiXiX$ s Y.c c C.w.!.!.!.!.E.K.H.Z.Z.d.d.d.d.d.d.d.d.0.I.I.p - iXiXiXiXiXiXiXiXiX",
"iXiXiXiXiXiXiXiXiXiX$ s d l c R.w.!.!.!.!.W.K.K.Z.A.A.s.d.d.d.d.s.0.,.I.i p + iXiXiXiXiXiXiXiXiX",
"iXiXiXiXiXiXiXiXiXiXiX$ s t l U.R.w.!.!.!.J.J.J.Z.A.A.A.d.d.s.s.0.0.=.=.p 5 iXiXiXiXiXiXiXiXiXiX",
"iXiXiXiXiXiXiXiXiXiXiXiX$ 6 8 m R.R.w.w.J.J.F.G.Z.A.A.0.A.s.A.0.0.,.:.i 5 iXiXiXiXiXiXiXiXiXiXiX",
"iXiXiXiXiXiXiXiXiXiXiXiXiXiX6 c 1.R.R.R.W.W.F.G.G.G.A.A.0.0.A.,.0.=.=.7 7 iXiXiXiXiXiXiXiXiXiXiX",
"iXiXiXiXiXiXiXiXiXiXiXiXiXiXt t -.-.Q.Q.W.D.H.D.S.S.C.e.e.f.e.q.q.,.p 4 iXiXiXiXiXiXiXiXiXiXiXiX",
"iXiXiXiXiXiXiXiXiXiXiXiXiXiXiXu t -.2.2.R.g.D.D.z.D.z.5.2.5.e.9.,.r.0 4 iXiXiXiXiXiXiXiXiXiXiXiX",
"iXiXiXiXiXiXiXiXiXiXiXiXiXiXiXiX7 t w 2.4.5.6.l.k.l.l.x.x.4.4.<.=.w w : iXiXiXiXiXiXiXiXiXiXiXiX",
"iXiXiXiXiXiXiXiXiXiXiXiXiXiXiXiX, u A [ [ c.c.,X,X,X@Xm.b.b.V ] ] x : iXiXiXiXiXiXiXiXiXiXiXiXiX",
"iXiXiXiXiXiXiXiXiXiXiXiXiXiXiXiXB F [ { c.c.b.b.+X+X+X:Xm.m.OXV ] z y iXiXiXiXiXiXiXiXiXiXiXiXiX",
"iXiXiXiXiXiXiXiXiXiXiXiXiXiXiXiXB D [ { x.b.b.m.+X+X#X+X:X#X).V j.n N N iXiXiXiXiXiXiXiXiXiXiXiX",
"iXiXiXiXiXiXiXiXiXiXiXiXiXiXiXB B { { x.n.n.m.:X<X+X#X#X*X).).^.^.j.v B iXiXiXiXiXiXiXiXiXiXiXiX",
"iXiXiXiXiXiXiXiXiXiXiXiXiXiXiXC H 6.l.n.n.M.:X;X+X#X#X`.).`.).).(.j.K * iXiXiXiXiXiXiXiXiXiXiXiX",
"iXiXiXiXiXiXiXiXiXiXiXiXiXiXJ J 5.l.B.N.N.>X>X-X+X#XXX.X`._.|.|./.^.7XK * iXiXiXiXiXiXiXiXiXiXiX",
"iXiXiXiXiXiXiXiXiXiXiXiXiXiXZ L.8X8XeXeXeXeX4X=X$X#X.X.X X}. X|..X/.6X6XJ & iXiXiXiXiXiXiXiXiXiX",
"iXiXiXiXiXiXiXiXiXiXiXiXiXk V.8X8X8X0X0X0XyXrX=X$X$X.X X X}.|.}.[./.wX6XK & iXiXiXiXiXiXiXiXiXiX",
"iXiXiXiXiXiXiXiXiXiXiXiX= L 7X7X3XqX0XyXyXyXrX1X$XXX.X X}.}.}.}.|./.wX6XJ & iXiXiXiXiXiXiXiXiXiX",
"iXiXiXiXiXiXiXiXiXiXiXiXr L 7X7X3XqX3XyXyXtX5X&X$XXXXX X}.}.}.}.[.(.~.6XJ & iXiXiXiXiXiXiXiXiXiX",
"iXiXiXiXiXiXiXiXiXiXiXiX= L 7X7X7XqX3XyXtXrXrX].$XXX X X}.}.}.}.}.~.G K * iXiXiXiXiXiXiXiXiXiXiX",
"iXiXiXiXiXiXiXiXiXiXiXiXiXk L 7X7XqXqX0XtXtXqX].$XXX X X}.}.}.}.[.^.G * M iXiXiXiXiXiXiXiXiXiXiX",
"iXiXiXiXiXiXiXiXiXiXiXiXiXr j V.2X7XqXqXrX9X].&XXX X X X}._._.'.~.M M M * iXiXiXiXiXiXiXiXiXiXiX",
"iXiXiXiXiXiXiXiXiXiXiXiXiXiXZ Z L.P.2X2X2X2X&XXXXX.X|.'.|.[.[.^.^.u * & % iXiXiXiXiXiXiXiXiXiXiX",
"iXiXiXiXiXiXiXiXiXiXiXiXiXiXk k j 7.P P &X&X%XXX{.{.[.).[.[.D A A l u $ # iXiXiXiXiXiXiXiXiXiXiX",
"iXiXiXiXiXiXiXiXiXiXiXiXiXiX$ r m c m 7.k.S $XoXoX{.{.{.D D A b l u q @ # iXiXiXiXiXiXiXiXiXiXiX",
"iXiXiXiXiXiXiXiXiXiXiXiXiXiX@ 4 g c c m c k.S D A D D A A b n u l a 7 @ X iXiXiXiXiXiXiXiXiXiXiX",
"iXiXiXiXiXiXiXiXiXiXiXiXiXiX@ $ :.g g x x n n b b b b n n z x f w w :.X X iXiXiXiXiXiXiXiXiXiXiX",
"iXiXiXiXiXiXiXiXiXiXiXiXiXiXX O :.C.s g g -.x z x n z x x f w a C.:.o X X iXiXiXiXiXiXiXiXiXiXiX",
"iXiXiXiXiXiXiXiXiXiXiXiXiXiXiXO + 4 C.F.8.g g g f f f f a 8.C.C.4 o O X iXiXiXiXiXiXiXiXiXiXiXiX",
"iXiXiXiXiXiXiXiXiXiXiXiXiXiXiXiXO + 4 4 7 F.8.8.0 a i >.>.5 4 - - O o iXiXiXiXiXiXiXiXiXiXiXiXiX",
"iXiXiXiXiXiXiXiXiXiXiXiXiXiXiXiXo o + : 4 5 5 5 5 5 5 5 5 - o - o o iXiXiXiXiXiXiXiXiXiXiXiXiXiX",
"iXiXiXiXiXiXiXiXiXiXiXiXiXiXiXiXiXo o o o - - - - - - - - o o o o iXiXiXiXiXiXiXiXiXiXiXiXiXiXiX"
};
