/* XPM */
static char *result[] = {
/* columns rows colors chars-per-pixel */
"48 51 222 2 ",
"   c #2B1C1B",
".  c #281814",
"X  c #301E1B",
"o  c #341D16",
"O  c #34211C",
"+  c #3C251D",
"@  c #2C1E25",
"#  c #281F3B",
"$  c #2D2222",
"%  c #322423",
"&  c #382928",
"*  c #342537",
"=  c #3D3636",
"-  c #791B1B",
";  c #6F1C1D",
":  c #4D2F1F",
">  c #65351E",
",  c #632E1E",
"<  c #442A23",
"1  c #4B2E24",
"2  c #472928",
"3  c #4B3125",
"4  c #4B332C",
"5  c #473227",
"6  c #573629",
"7  c #482C36",
"8  c #423B39",
"9  c #493634",
"0  c #593934",
"q  c #5A2927",
"w  c #662A29",
"e  c #782B26",
"r  c #673527",
"t  c #763929",
"y  c #673B36",
"u  c #753E33",
"i  c #441D1E",
"p  c #74411F",
"a  c #4A453C",
"s  c #4A443E",
"d  c #574337",
"f  c #5D412F",
"g  c #784628",
"h  c #7D512A",
"j  c #684536",
"k  c #7C493C",
"l  c #754639",
"z  c #75543A",
"x  c #2B2555",
"c  c #383558",
"v  c #2F2546",
"b  c #3B3968",
"n  c #47344B",
"m  c #56394B",
"M  c #4C3351",
"N  c #6A3D48",
"B  c #6E3F4B",
"V  c #443D68",
"C  c #523C6E",
"Z  c #564946",
"A  c #5B584C",
"S  c #5B4255",
"D  c #49475F",
"F  c #764747",
"G  c #795745",
"H  c #744754",
"J  c #6C5350",
"K  c #676256",
"L  c #746758",
"P  c #7C735A",
"I  c #4C4479",
"U  c #524678",
"Y  c #4A426F",
"T  c #735178",
"R  c #705068",
"E  c #747667",
"W  c #726C64",
"Q  c #851A19",
"!  c #99161B",
"~  c #881822",
"^  c #9B1C23",
"/  c #882B22",
"(  c #982927",
")  c #863629",
"_  c #9B3029",
"`  c #943334",
"'  c #A32627",
"]  c #A7382C",
"[  c #B83A2A",
"{  c #B12D34",
"}  c #C9333E",
"|  c #86592D",
" . c #874435",
".. c #865839",
"X. c #895231",
"o. c #88643D",
"O. c #946438",
"+. c #9E7439",
"@. c #AF6F39",
"#. c #A4573A",
"$. c #C35435",
"%. c #BE3448",
"&. c #CD3647",
"*. c #D23C4C",
"=. c #D23646",
"-. c #CC3556",
";. c #CA314E",
":. c #C63966",
">. c #845944",
",. c #854B59",
"<. c #8A544A",
"1. c #8A6646",
"2. c #926B42",
"3. c #987844",
"4. c #9A7A55",
"5. c #AA7F44",
"6. c #B1754C",
"7. c #927D64",
"8. c #A07F67",
"9. c #9F5F61",
"0. c #D54648",
"q. c #DA554A",
"w. c #D7574B",
"e. c #CD5157",
"r. c #CE4B52",
"t. c #E15747",
"y. c #D86457",
"u. c #C66A46",
"i. c #E26658",
"p. c #E3634F",
"a. c #CF4967",
"s. c #CF4D6B",
"d. c #E37667",
"f. c #D97662",
"g. c #7D8268",
"h. c #BC8934",
"j. c #C08B35",
"k. c #BC8A51",
"l. c #B78844",
"z. c #86896E",
"x. c #8C9177",
"c. c #989577",
"v. c #91886F",
"b. c #AA9C7D",
"n. c #AA9275",
"m. c #8D815C",
"M. c #C99B48",
"N. c #CF944B",
"B. c #D4A757",
"V. c #D4B658",
"C. c #CDA14B",
"Z. c #D9AE6C",
"A. c #DBB56B",
"S. c #DEB96E",
"D. c #D6B964",
"F. c #DEB971",
"G. c #E3B46E",
"H. c #E3BD73",
"J. c #E8BE7A",
"K. c #E4836D",
"L. c #E3C176",
"P. c #E6C479",
"I. c #E8C87C",
"U. c #E8C67C",
"Y. c #5E4481",
"T. c #664E84",
"R. c #474CDE",
"E. c #564ADC",
"W. c #4D51DC",
"Q. c #5456DD",
"!. c #675ED9",
"~. c #765CDC",
"^. c #5F60DC",
"/. c #6A66DA",
"(. c #7367DB",
"). c #6A70DE",
"_. c #4C53E4",
"`. c #4E57E9",
"'. c #5354E3",
"]. c #5559E5",
"[. c #545AEA",
"{. c #5A5DEA",
"}. c #5959E5",
"|. c #474FE2",
" X c #685CE5",
".X c #735DE0",
"XX c #5C61EB",
"oX c #5E61E5",
"OX c #6466E5",
"+X c #7261E0",
"@X c #81649E",
"#X c #8158D5",
"$X c #999C82",
"%X c #A2A58B",
"&X c #B0B096",
"*X c #ACB096",
"=X c #DBBF89",
"-X c #BEC3A9",
";X c #DBC198",
":X c #DCC18D",
">X c #C9C6AC",
",X c #D6C3A7",
"<X c #CACDB3",
"1X c #DBCDB3",
"2X c #D5CAB1",
"3X c #CED4BA",
"4X c #D0D5BB",
"5X c #DAD8BE",
"6X c #E1D8BF",
"7X c #D5DBC1",
"8X c #DBDEC4",
"9X c #E5DEC4",
"0X c #E8DEC4",
"qX c #DCE1C7",
"wX c #DEE4CA",
"eX c #E4E1C6",
"rX c #E4E5CB",
"tX c #E4E8CE",
"yX c #E8E4CB",
"uX c #E6EBD1",
"iX c #E9EDD3",
"pX c None",
/* pixels */
"pXpXpXpXpXpXpXpXpXpXpXpXpXpXpXpXpXpXpXpXpX; e e ) `  .` t e w pXpXpXpXpXpXpXpXpXpXpXpXpXpXpXpXpX",
"pXpXpXpXpXpXpXpXpXpXpXpXpXpXpXpXpXpXpXpXpX; ) ) ' ' ' (  .t y w pXpXpXpXpXpXpXpXpXpXpXpXpXpXpXpX",
"pXpXpXpXpXpXpXpXpXpXpXpXpXpXpXpXpXpXpXpX; e ! ( ' 0.0.0.( ( t q i pXpXpXpXpXpXpXpXpXpXpXpXpXpXpX",
"pXpXpXpXpXpXpXpXpXpXpXpXpXpXpXpXpXpXpXw t ! ! ;.0.0.1X2X2X&./ r 2 o pXpXpXpXpXpXpXpXpXpXpXpXpXpX",
"pXpXpXpXpXpXpXpXpXpXpXpXpXpXpXpXpXpXw t Q ^ ;.0.q.1X1X1X] ,X$.Q r + X   $ pXpXpXpXpXpXpXpXpXpXpX",
"pXpXpXpXpXpXpXpXpXpXpXpX= 8 = = Z 0 y u ( &.0.0.q.1X] ] _ ( >X2 < & % % $ $ pXpXpXpXpXpXpXpXpXpX",
"pXpXpXpXpXpXpXpXpXpXs s E E E Z Z J k / ( 0.0.0.q.1X1X] ` ( 0 6 5 & & & & $ $ pXpXpXpXpXpXpXpXpX",
"pXpXpXpXpXpXpXpXpXa E g.3X4X7Xg.J J <.F F F w.w.q.q.1X2Xu y y 4 5 5 5 & = A A % pXpXpXpXpXpXpXpX",
"pXpXpXpXpXpXpXpXa g.4Xx.7X7X7X*XL K L 7.8.8.<.w.q.w.w.l j y 0 0 9 4 4 9 K z.z.A % pXpXpXpXpXpXpX",
"pXpXpXpXpXpXpX8 E 4X7XqX$XqXwXqX$X7.b.7X5X7X8.w.w.w. .l l j j j f f d L L x.v.A & pXpXpXpXpXpXpX",
"pXpXpXpXpXpXpXa g.x.7XqXwX*XtXwX-X%X8X9X7X5X8.y.y. .k k z ..M.M.| z d g.c.c.c.K & pXpXpXpXpXpXpX",
"pXpXpXpXpXpXa E 7X7X%XwXtXtX<XuXtX>X9X0X0X&Xu.y.>.G z O.M.A.A.A.O.o.z m.b.c.P a d pXpXpXpXpXpXpX",
"pXpXpXpXpXpXa g.7XqXwX*XiXiXiXiXuXtXtX9XeXb.f.1.>.>.C.S.G.H.S.H.G G l.o.O.o...d z pXpXpXpXpXpXpX",
"pXpXpXpXpXpXa g.4XqXwXtX3XiXiXuXiXuXtXtXeXb.6.1.1.B.H.o.o.H.L.L.h.3.l.C.L.S.C.| a pXpXpXpXpXpXpX",
"pXpXpXpXpXpXa E x.*XwXtXuXuXiX7X4X<XyXyXeXb.7.3.V.J.F.1.2.+.L.P.I.l.P.P.L.L.S.M.h 5 pXpXpXpXpXpX",
"pXpXpXpXpXpX8 A z.$X%X-XtXuXiXiXiXiX>XyXeXb.4.6.P.J.L.l.3.l.P.I.I.I.I.I.L.L.S.A.h 5 pXpXpXpXpXpX",
"pXpXpXpXpXpX= E 3X7XqXqXrXtXyXiXyXiX0X0X0Xk.l.J.P.P.P.P.+.l.L.P.I.I.I.I.L.L.S.D.| 1 pXpXpXpXpXpX",
"pXpXpXpXpXpX= W 3X4X4XqX8XrXtXtXyX0XyX0XK.u.=XP.P.J.P.P.P.I.P.P.I.I.I.I.L.L.A.M.g < pXpXpXpXpXpX",
"pXpXpXpXpXpX* K W g.z.x.*X8X8XeX9X0X0Xd.K.u.J.L.J.P.P.P.P.L.P.P.L.P.L.L.L.L.D.| g < pXpXpXpXpXpX",
"pXpXpXpXpXpXpX& = 8 Z J K v.&X7X9Xd.d.d.i.$.$.u.J.H.H.2.1.L.L.L.L.L.L.L.D.D.| h 5 pXpXpXpXpXpXpX",
"pXpXpXpXpXpXpXpXpXpXpXW E J G y.y.y.p.p.p.p.$.@.J.H.o.1.G o.o.l.S.S.S.C.O.| h 3 pXpXpXpXpXpXpXpX",
"pXpXpXpXpXpXpXpXpXpXpXpXpX,. .] q.0.q.t.t.t.$.G.G.G.O.1.G G z j j z z f f 6 4 pXpXpXpXpXpXpXpXpX",
"pXpXpXpXpXpXpXpXpXpXpXpXpXpXpX .( =.0.0.0.t.} N.G.H.@.z z z z d j j y 6 4 1 pXpXpXpXpXpXpXpXpXpX",
"pXpXpXpXpXpXpXpXpXpXpXpXpXpXpXpX) ^ &.=.*.0.[ [ G.G.G.S.z z j f 0 6 6 1 < 1 pXpXpXpXpXpXpXpXpXpX",
"pXpXpXpXpXpXpXpXpXpXpXpXpXpXpXpXpX/ ! } =.=.=.[ N.G.G.G.Z.Z.j y 6 6 1 Q w pXpXpXpXpXpXpXpXpXpXpX",
"pXpXpXpXpXpXpXpXpXpXpXpXpXpXpXpXpX! / } =.=.=.{ [ #.C.G.Z.Z.M. .u t { Q , pXpXpXpXpXpXpXpXpXpXpX",
"pXpXpXpXpXpXpXpXpXpXpXpXpXpXpXpXpXpXQ ! } =.=.=.{ ,.,.<.X.<.g k &.%.Q r i pXpXpXpXpXpXpXpXpXpXpX",
"pXpXpXpXpXpXpXpXpXpXpXpXpXpXpXpXpXpX~ / ! =.;.-.{ ,.H ,.e.e.` ( S m Q r 2 pXpXpXpXpXpXpXpXpXpXpX",
"pXpXpXpXpXpXpXpXpXpXpXpXpXpXpXpXpXpXpXe ! ;.;.-.-.,.#X~.R R r.r.` m m y 7 pXpXpXpXpXpXpXpXpXpXpX",
"pXpXpXpXpXpXpXpXpXpXpXpXpXpXpXpXpXpXpXe ! ^ ;.-.a.r.R ~.#XT R e.e.` S M 0 pXpXpXpXpXpXpXpXpXpXpX",
"pXpXpXpXpXpXpXpXpXpXpXpXpXpXpXpXpXpXpXe ! ;.-.:.*.s.T ~.~.(.(.T R U S Z n pXpXpXpXpXpXpXpXpXpXpX",
"pXpXpXpXpXpXpXpXpXpXpXpXpXpXpXpXpXpXpXn m -.:.:.a.s.T .X(.(.(./. X!.!.V.l y pXpXpXpXpXpXpXpXpXpX",
"pXpXpXpXpXpXpXpXpXpXpXpXpXpXpXpXpXpXpXn M C :.:.s.T.#X+X9.;X:X)./././.V.V.y 0 pXpXpXpXpXpXpXpXpX",
"pXpXpXpXpXpXpXpXpXpXpXpXpXpXpXpXpXpXpXn M E.C Y.T. XOX+X;X:X;X:X). X/.D.V.j 0 pXpXpXpXpXpXpXpXpX",
"pXpXpXpXpXpXpXpXpXpXpXpXpXpXpXpXpXpXpXc V E.E.E. X X XOX;X,X;X;X/.OXQ.R D.j 0 pXpXpXpXpXpXpXpXpX",
"pXpXpXpXpXpXpXpXpXpXpXpXpXpXpXpXpXpXpXc V E.R.'.XXXXOXOX@X,X,X).OX/.^.Q.D n pXpXpXpXpXpXpXpXpXpX",
"pXpXpXpXpXpXpXpXpXpXpXpXpXpXpXpXpXpXpXb b |._.'.{.{.XXXXXXOXOXXXoX].Q.W.D c pXpXpXpXpXpXpXpXpXpX",
"pXpXpXpXpXpXpXpXpXpXpXpXpXpXpXpXpXpXpXc b |.|.`.[.[.{.{.XXXX X{.oXQ.Q.Y c pXpXpXpXpXpXpXpXpXpXpX",
"pXpXpXpXpXpXpXpXpXpXpXpXpXpXpXpXpXpXpXb b |.|._.[.[.[.[.XX{.{.[.]._.W.b c pXpXpXpXpXpXpXpXpXpXpX",
"pXpXpXpXpXpXpXpXpXpXpXpXpXpXpXpXpXpXpXx b |.|._.`.`.[.[.{.[.[.[.W.W.V b c pXpXpXpXpXpXpXpXpXpXpX",
"pXpXpXpXpXpXpXpXpXpXpXpXpXpXpXpXpXpXpXx c R.R._._.'.[.}.].`.'.'.W.Y b x v pXpXpXpXpXpXpXpXpXpXpX",
"pXpXpXpXpXpXpXpXpXpXpXpXpXpXpXpXpXpXpXx c b R._._.'.'.'.Q._.Y.I Y V c * # pXpXpXpXpXpXpXpXpXpXpX",
"pXpXpXpXpXpXpXpXpXpXpXpXpXpXpXpXpXpXpXv c c D V Y I U U U U Y B N N * * @ pXpXpXpXpXpXpXpXpXpXpX",
"pXpXpXpXpXpXpXpXpXpXpXpXpXpXpXpXpXpXpX@ * * v n M H H H H F n F y y w % @ @ pXpXpXpXpXpXpXpXpXpX",
"pXpXpXpXpXpXpXpXpXpXpXpXpXpXpXpXpXpXpX$ % y y 7 N F l k.k.z l 7 y y r q @ . pXpXpXpXpXpXpXpXpXpX",
"pXpXpXpXpXpXpXpXpXpXpXpXpXpXpXpXpXpXpX$ % 6 y 7 u l l N.l.g u 7 r r 6 ,   . pXpXpXpXpXpXpXpXpXpX",
"pXpXpXpXpXpXpXpXpXpXpXpXpXpXpXpXpXpXpX  X > 6 5 t g t g g g g 5 < + + o   . pXpXpXpXpXpXpXpXpXpX",
"pXpXpXpXpXpXpXpXpXpXpXpXpXpXpXpXpXpXpX  O @.p r t p g g g p : 5 r > ,     . pXpXpXpXpXpXpXpXpXpX",
"pXpXpXpXpXpXpXpXpXpXpXpXpXpXpXpXpXpXpXpXO O + > p h.h.h.j.h.p + + + o   . pXpXpXpXpXpXpXpXpXpXpX",
"pXpXpXpXpXpXpXpXpXpXpXpXpXpXpXpXpXpXpXpXo O + : : : 3 6 : : : + + X   . pXpXpXpXpXpXpXpXpXpXpXpX",
"pXpXpXpXpXpXpXpXpXpXpXpXpXpXpXpXpXpXpXpXpXo O + : 1 3 3 : 3 : o o . . . pXpXpXpXpXpXpXpXpXpXpXpX"
};
