/* XPM */
static char *_eb2e561b4a44e12c98791b9ca671ad61ulSV4shhkDA1nPc[] = {
/* columns rows colors chars-per-pixel */
"31 48 13 1 ",
"  c None",
". c #181010",
"X c #202028",
"o c #600000",
"O c #482010",
"+ c gray25",
"@ c #686868",
"# c #A81828",
"$ c #A06830",
"% c #C09830",
"& c #B88858",
"* c #2830C8",
"= c gray69",
/* pixels */
"             OOOO              ",
"           OOooooOOO           ",
"          Ooo####oooO          ",
"         Oo#===####ooO         ",
"         Oo===o=####ooO        ",
"        Oo==ooo==####ooO       ",
"    ....oo==ooo==#####oO       ",
"   ........=o=o=#######oO      ",
"     ........==########oO      ",
"       ........o########oO     ",
"        .O&&&....o######oO     ",
"        .O.&&&&...o######oOO   ",
"    .......&&$.O&...o####oooO  ",
"   .OO$$O.$&&O.O&&&..o###o##oO ",
"  .OO&&&&O&&&..$&&&&$..o#####oO",
"  .O&&&&&&&&&..&&&&&&&O.o####oO",
"  .O&&&&&&&&&OO&&&&&&&&O.o###oO",
"  .O$&&&&&&&&&&&&&&&OOOOO..OOoO",
"   .O&&&&&&&&&&&&&&&OOOO&&&&O.O",
"    .O$&&&&&&&&..&&&&OO&&&&&&O.",
"     ..O$&&&......&&&&&&&OO&&O.",
"     .............&&&&&&O&&&&O.",
"      ...........&&&&&&&&&&&O. ",
"       ........&&&&&&&&&&&OOO. ",
"         .O&&&&&&&&&&$OOOOO..  ",
"          .OO&&&&&$$OO.....    ",
"           XOOOOOOOO..         ",
"          XXoo##X**XoO         ",
"         XXo###X***X#oO        ",
"        XXo###X***X###oO       ",
"       XXXXXXX****X####oO      ",
"      OO%*********X####ooO     ",
"  ...OO%%****%%O***o####o+.    ",
" ......X%***%%%%**+=======+.   ",
"...OOOOOX***%%%%*++=======+..  ",
"..OOOOOOOX***%%O*+======@==+.  ",
"..$OOOOOOX*******+====@=@==+.. ",
"..O$OOOOOX*******+====@====+.. ",
"..OOOOOOOX*******++@======++.. ",
" ..OOOOO.XX*******++====@++O.. ",
" ..O$...OOX********+++++++.OO..",
" ...OOOOOOOXX*********XXOOOOO..",
"  ..OOOOOOO.XXXXXXXXXXXOOOOOO..",
"  ..O$OOOO..XXXXXXXXX..OOOOOO..",
"  ...OOOO..          ..OOOOO.. ",
"   .......           ...OOO... ",
"    .....             .......  ",
"                       .....   "
};
