/* XPM */
static char *result[] = {
/* columns rows colors chars-per-pixel */
"48 48 38 1 ",
"  c #08C608",
". c #00C600",
"X c #00BD00",
"o c #00B500",
"O c #08C600",
"+ c #08BD08",
"@ c #08BD00",
"# c #00CE00",
"$ c #10CE08",
"% c #10C608",
"& c #21CE18",
"* c #18C610",
"= c #18CE10",
"- c #29D621",
"; c #31D621",
": c #39D629",
"> c #29CE18",
", c #10D608",
"< c #08CE00",
"1 c #08B500",
"2 c #5A2118",
"3 c #21CE10",
"4 c #10BD08",
"5 c #10B508",
"6 c #21BD10",
"7 c #D63921",
"8 c #CE6B52",
"9 c #D69C94",
"0 c #DEDED6",
"q c #EF5A31",
"w c #39DE29",
"e c #5A3129",
"r c #CE4229",
"t c #E7BD63",
"y c #E7A563",
"u c #843929",
"i c #18BD10",
"p c #08AD08",
/* pixels */
" .XXXXoXXO.+@XX@XXXX...#.XX...XX .XXXXoXXO.+@XX@",
"XX.XXXXX.$%.XXXXoooXX.#.X...XXoXXX.XXXXX.$%.XXXX",
"o..XXOX&**.XXX@XXoXXo.#X.OX.XXXXo..XXOX&**.XXX@X",
"X.X.$$&&&.= ..XXXXXXX... ..X%X .X.X.$$&&&.= ..XX",
". .=&&-&O&-#..XXXXXX... O.XX  $.. .=&&-&O&-#..XX",
" =&;=:; $;$....XooXX..  ..X O$ . =&;=:; $;$....X",
"==;&&;=.-&.....XXXX... .... $ .$==;&&;=.-&.....X",
"==-=>>X*-...XXXooXX.X.O.#.$$,#<===-=>>X*-...XXXo",
"$&==>.@&%XXXoooooo.XX..#.<$< <,,$&==>.@&%XXXoooo",
"O=#=$XXXXXXXoooooXXo..X.X#O##<=.O=#=$XXXXXXXoooo",
" #..XXoXX@XoooXXoooo.XXXX.X.#$$X #..XXoXX@XoooXX",
".X.X.XXXX@Xooo@ooooX.oXoXX.X.$...X.X.XXXX@Xooo@o",
"XXX@*X+@@@ooo@@oo1o2222222222$..XXX@*X+@@@ooo@@o",
"X.@3%@*X@XooX41o522222222222222.X.@3%@*X@XooX41o",
"X.63X6+X@ooo5@X52222789999872222X.63X6+X@ooo5@X5",
".@*@5*X@@oX55X@222778900009877222@*@5*X@@oX55X@*",
"X1X14@X@1oX5@X2227qq90000009qq7222X14@X@1oX5@X*.",
"XXo1XX.@@.X@X2227qqq90000009qqq72221XX.@@.X@X%+X",
"XXXXXX@6&X@@%227qqqq90000009qqqq722XXX@6&X@@%%++",
".XXXXX%-Oo+%22q098qq90000009qq890q22XX%-Oo+%%+%*",
"$.XoXO-$X%%%220009qq89000098qq900022XO-$X%%%+O*=",
",#XXX3=X%*++220000qqq899998qqq000022X3=X%*++%$3%",
"<X O++X *@@%220000qqqqqqqqqqqq000022++X *@@% &%X",
".=w**XX*@@+@220009qqqqqqqqqqqq900022*XX*@@+@%@+*",
"&w$*XX*.X@XX22q098qqqqqqqqqqqq890qe2XX*.X@XX.+*$",
"w.*: %%XXXX.+227qqqqrrrrrrrrqqqq7ee: %%XXXX.+% %",
"# w&*%%+XX.+@2227qqreetttteerqq7eee&*%%+XX.+@+%*",
" ;&$% *XXX.X@%222erreetttteerreeee&$% *XXX.X@%% ",
"=& *O*.XXXXX%%%22eeteetttteeteee2& *O*.XXXXX%%%*",
"$=&%%*XXXX.O+%%%@eeteetttteetee=$=&%%*XXXX.O+%%%",
"$&=.O..XX.O.X@%+%eeyyyttttyyyee&$&=.O..XX.O.X@%+",
"&=.X..XXX..X@@.%@eeuyyttttyyueeO&=.X..XXX..X@@.%",
" .XXXXoXXO.+@XX@XeeeuttttttueeeX .XXXXoXXO.+@XX@",
"XX.XXXXX.$%.XXXXooeeeeeeeeeeeeoXXX.XXXXX.$%.XXXX",
"o..XXOX&**.XXX@XXoXeeeeeeeeeeXXXo..XXOX&**.XXX@X",
"X.X.$$&&&.= ..XXXXXXX... ..X%X .X.X.$$&&&.= ..XX",
". .=&&-&O&-#..XXXXXX... O.XX  $.. .=&&-&O&-#..XX",
" =&;=:; $;$....XooXX..  ..X O$ . =&;=:; $;$....X",
"==;&&;=.-&.....XXXX... .... $ .$==;&&;=.-&.....X",
"==-=>>X*-...XXXooXX.X.O.#.$$,#<===-=>>X*-...XXXo",
"$&==>.@&%XXXoooooo.XX..#.<$< <,,$&==>.@&%XXXoooo",
"O=#=$XXXXXXXoooooXXo..X.X#O##<=.O=#=$XXXXXXXoooo",
" #..XXoXX@XoooXXoooo.XXXX.X.#$$X #..XXoXX@XoooXX",
".X.X.XXXX@Xooo@ooooX.oXoXX.X.$...X.X.XXXX@Xooo@o",
"XXX@*X+@@@ooo@@oo1ooX1ooXoXX%$..XXX@*X+@@@ooo@@o",
"X.@3%@*X@XooX41o54oX11o1X11.*...X.@3%@*X@XooX41o",
"X.63X6+X@ooo5@X5ioo11ooXX1X *X$.X.63X6+X@ooo5@X5",
".@*@5*X@@oX55X@*Xo1ooopXo1.*.+>@.@*@5*X@@oX55X@*"
};
