/* XPM */
static char *_5d80ce6497944409983da5afe6f99edB1kMh7MItz9vosrs[] = {
/* columns rows colors chars-per-pixel */
"48 48 165 2 ",
"   c #197E05",
".  c #765E2A",
"X  c #7C642A",
"o  c #7F682A",
"O  c #836B2B",
"+  c #8C752B",
"@  c #058700",
"#  c #0B8600",
"$  c #048D00",
"%  c #0C8C00",
"&  c #138501",
"*  c #1C8401",
"=  c #138B01",
"-  c #1B8B01",
";  c #1F8E0C",
":  c #029200",
">  c #0B9201",
",  c #059901",
"<  c #0D9B05",
"1  c #139102",
"2  c #1B9206",
"3  c #139906",
"4  c #189B05",
"5  c #15950C",
"6  c #1C940C",
"7  c #169B0C",
"8  c #1A990C",
"9  c #1F9B14",
"0  c #238401",
"q  c #2B8601",
"w  c #238B01",
"e  c #2B8B02",
"r  c #248D0C",
"t  c #2B8D0C",
"y  c #348602",
"u  c #3C8602",
"i  c #318B02",
"p  c #308B02",
"a  c #358A02",
"s  c #378A02",
"d  c #318F02",
"f  c #328F02",
"g  c #328F01",
"h  c #358F02",
"j  c #348F02",
"k  c #378F02",
"l  c #308B06",
"z  c #348B02",
"x  c #388A02",
"c  c #388F06",
"v  c #3C8B03",
"b  c #3E870A",
"n  c #348C0B",
"m  c #3C8D0A",
"M  c #239200",
"N  c #259200",
"B  c #279306",
"V  c #219406",
"C  c #229304",
"Z  c #289200",
"A  c #2E9101",
"S  c #2C9001",
"D  c #289306",
"F  c #2B9206",
"G  c #2D9206",
"H  c #2F9706",
"J  c #2C9103",
"K  c #21910C",
"L  c #20920C",
"P  c #21970C",
"I  c #22970C",
"U  c #27950C",
"Y  c #23930C",
"T  c #2E920B",
"R  c #29940C",
"E  c #2B940C",
"W  c #2C940C",
"Q  c #2A950C",
"!  c #219A0C",
"~  c #329006",
"^  c #319606",
"/  c #339104",
"(  c #399505",
")  c #30920B",
"_  c #34920B",
"`  c #33920A",
"'  c #3A900A",
"]  c #39900A",
"[  c #279713",
"{  c #279714",
"}  c #269513",
"|  c #299713",
" . c #2D9512",
".. c #2E9512",
"X. c #2C9612",
"o. c #2C9512",
"O. c #239914",
"+. c #229914",
"@. c #219B14",
"#. c #219A14",
"$. c #259914",
"%. c #239914",
"&. c #2B9914",
"*. c #2D9F1B",
"=. c #2F9F1B",
"-. c #2E9F1B",
";. c #2C9F1B",
":. c #379211",
">. c #349512",
",. c #369512",
"<. c #349312",
"1. c #389412",
"2. c #3C9110",
"3. c #309E1B",
"4. c #359F1B",
"5. c #369C1A",
"6. c #389A19",
"7. c #3C9B19",
"8. c #399D1B",
"9. c #399A19",
"0. c #29A11D",
"q. c #29A21D",
"w. c #2FA31D",
"e. c #31A11D",
"r. c #3D9E22",
"t. c #39A123",
"y. c #3DA221",
"u. c #438503",
"i. c #4B8503",
"p. c #438A03",
"a. c #4B8904",
"s. c #41870A",
"d. c #4A870A",
"f. c #448C0B",
"g. c #4A8A09",
"h. c #538503",
"j. c #5A8504",
"k. c #548904",
"l. c #5B8805",
"z. c #508609",
"x. c #5F8508",
"c. c #538A09",
"v. c #5D8A0B",
"b. c #429305",
"n. c #42900D",
"m. c #439616",
"M. c #4C9415",
"N. c #449817",
"B. c #4D971C",
"V. c #44981E",
"C. c #618603",
"Z. c #608806",
"A. c #658708",
"S. c #648B0C",
"D. c #6A8D0F",
"F. c #678F14",
"G. c #6E8D12",
"H. c #6A9113",
"J. c #419B20",
"K. c #41A020",
"L. c #B4A51A",
"P. c #BAAC1A",
"I. c #F2BD12",
"U. c #F3C112",
"Y. c #FFF82B",
/* pixels */
", , : $ : $ @ $ $ > , % % $ $ % % $ % $ > % > < % % % > > % $ % > : % $ $ $ @ $ $ , : $ $ : : : ",
": $ , $ $ : : $ : < 1 : % $ $ % # # # # % > < % = % % > % % # % $ % > $ $ $ $ $ , < < : : $ : $ ",
"@ : , : : > $ 9 5 6 : % % % = % % # = = & = 1 = = - = 1 = % % % # % > % % 1 $ @.5 5 : : $ : $ : ",
": , $ : < < 9 9 { > 8 1 > > % = = = = & = = 2 = - 1 = = ; = = = = 1 % > 3 3 $.$.@.: 7 > : , : $ ",
": > , 7 9 @.0.$.1 $.*.< 1 1 = = & - - = - - - C w - - - - 2 V = = 2 > P [ [ w.$.3 +.0., , , $ : ",
", 7 9 w.7 t.w.1 3 4.4 = 1 1 = - * * - - - w t w w w - w w B w 2 2 U ..8.Y r.4.= < r.3 > : : : : ",
"7 7 e.@.@.e.9 > 4.[ 1 1 = 2 - - - - w w w w e e w e w t Q w w B T E 6...| 8.6 < ;.{ : : : , : $ ",
"7 7 0.7 X.X.% 6 4.1 = = - - 0 0 0 0 0 e e e f e A e / / H Z Z T T T 6.Q ,.,.= Y *.> > > $ $ $ @ ",
"7 @.7 6 X.> = | 2 = - - * * 0   0 q e y q i i f f / k f e J ^ H G :.` E 1.- - ..; % % % # @ @ @ ",
", 7 < 7 4 % = = = - * - 0 0 0 q q y y u.s s y s y k s k k k ' e e _ M ` B - * = = = % % @ @ @ @ ",
"< > > > % % & = - - - 0 0 0 y u   u.y   v u u u.u v u v / ] c y e J Z 0 - - * = = = % # # % $ $ ",
": $ : % > = = - - 0 w 0 q q y   i.  u u u u u.u.u.u.p.u v p.v s f y e e w w w - = - = # # # % @ ",
"$ % % = 6 = - - w 0 q q q u y u u.  j.i.u.i.. . . . i.p.a.a.v v y y i e m 0 w w w * & # # = % @ ",
"$ > = Q - - t - w 0   q y u u u i.i.i.i.i.. . . X . X a.c.p.p.p.u v u f.k e n w w - & & % & & @ ",
"% > r Q = t 0 w e 0 q y u u.u.d.k.i.  A.h.X X Y.Y.X X k.l.i.a.p.u.v d.f.e s.e 0 w * & & ; & % & ",
"$ = ; = * o.- 0 e q y u   h.u.c.i.a.a.o X X I.Y.Y.I.X X k.k.S.i.i.u.g.u b m q e 0 * - 0 * % = 5 ",
"% & % * w w * e y q y u.u.u.c.a.i.j.j.j.X O Y.Y.Y.Y.O X v.F.S.d.i.i.u.j.i.u y q q * - 0 - % ; % ",
"# % & * * - w e y i y u u.d.i.i.h.C.j.O O L.Y.Y.Y.Y.L.O X G.j.h.i.i.u.  u u i i q w * - = 2 = % ",
"% % = & - * q b 2.y u u.a.. . X X X O O O Y.Y.Y.Y.Y.Y.O O O O X X X . u.u u u s.m 0 0 w ; - & = ",
"% # = & - w i m.p.  u s.. X X X O O O O I.Y.Y.Y.Y.Y.Y.I.O O O X X X . . u.u u N.i 0 t w r & ; ; ",
"4 = = * * e m./ u u.f.a.. X Y.Y.Y.Y.Y.Y.Y.Y.Y.Y.Y.Y.Y.Y.Y.Y.Y.Y.Y.Y.X . u.p.M.c q n t w ; - ; 6 ",
"4 1 & - - m _ y u.f.s.a.. X I.Y.Y.Y.Y.Y.Y.+ + Y.Y.+ + Y.Y.Y.Y.Y.Y.I.. . u.c.f.s c m q w r - R 2 ",
"1 = - - r q q k f.u u.a.k.X X Y.Y.Y.Y.Y.Y.+ + Y.Y.+ + Y.Y.Y.Y.Y.Y.X X X i.u.u u b e q t w ..; # ",
"% Y K.T t 0 q b u u i.i.c.X X O Y.Y.Y.Y.Y.+ + Y.Y.+ + Y.Y.Y.Y.Y.O X X c.c.u.u s.y q q 0 w - - ; ",
"| y.C t 0 0 m i y u.u.i.a.j.X O O Y.Y.Y.Y.+ + Y.Y.+ + Y.Y.Y.Y.O O X l.c.i.u.f.v y q e * - - r 5 ",
"y.= r V.w t i y s u u.p.h.l.j.O O + Y.Y.Y.+ + Y.Y.+ + Y.Y.Y.+ O O l.v.F.a.a.f.y y e 0 w - r = = ",
"< = K.<.t e n y y u p.i.i.k.x.A.O O U.Y.Y.P.P.Y.Y.P.P.Y.Y.U.O O Z.l.H.v.c.f.f.u q e e w 0 - ; ; ",
"= 6.<.Y e t n y y u p.i.h.l.l.O o + Y.Y.Y.Y.Y.Y.Y.Y.Y.Y.Y.Y.O O l.F.S.k.a.u.g.y y q 0 - * r - 5 ",
"6 [ - t w n 0 i y u u p.k.k.l.o o L.Y.Y.Y.Y.Y.Y.Y.Y.Y.Y.Y.Y.L.O O S.h.c.i.g.v y q q 0 - r - ; ; ",
"2 } X.w t n q e y y v i.d.k.l.X o U.Y.Y.Y.Y.Y.Y.Y.Y.Y.Y.Y.Y.U.O X l.v.a.a.a.y y e q w w - - - 2 ",
"2 [ U - w w 0 e y s p.p.i.h.X X o Y.Y.Y.Y.Y.Y.U.U.Y.Y.Y.Y.Y.Y.o o X c.i.p.v v y e e e - - - ; = ",
"[ 6 = = 2 w q e y i v v i.i.X X L.Y.Y.Y.Y.Y.O + O O Y.Y.Y.Y.Y.L.X X a.u.p.k y q e w w - * - % 1 ",
"% % = - - 0 0 e q s s u i.i.X X Y.Y.Y.Y.L.O O O O O O L.Y.Y.Y.Y.. . i.u.u y y q q w w - - = = = ",
"% = = = - * 0 0 e / u v u u.. . Y.Y.I.X o O O C.C.O O O O I.Y.Y.. . p.u.u y y q w G w - = & # % ",
"# = = = = w w :.n m i y u u . . . X X X o j.l.j.l.j.j.o X X X . . . p.u y s q 2.n n - - = % = % ",
"% > % = C C :.:.' e m c s u u . . . X h.h.h.k.k.l.k.h.j.k.X . . . v u s k k m.:.:.- Q 2 = = # % ",
": = > U o.<.6.:.e ' m./ i s u u.u.i.i.i.a.a.k.k.k.a.a.i.a.k.a.p.u u v m n.2.N.:.w >.5.1 1 1 % $ ",
"1 7 [ 8.Y J.7.- D N.J J e s s u u u.u.u.a.i.a.a.i.a.i.a.a.a.p.v v f.f.M.' B.N.w Z 7.2 1 1 % > % ",
"9 6 e.| | 8.U - 9.,.w w e e f y u u u p.p.p.i.p.p.p.p.a.b.p.v p.f.n.M.m.2.N.` - 4...1 1 > % > $ ",
"5 7 *.P >...= U 8.- w N 0 q q y y y u v v v p.v b.v p.p.b.( k f.' ' N./ n.1.- E 4.= = 1 % % % @ ",
"3 +.8 Y &.= - ..w - - 0 0 0 q   y   p.y u s s k v k p.k v / ( ( / m _ ` 1.- - o.2 = = % # # @ @ ",
"> 8 < 7 2 % % = = = - - * 0 q y   q u y i i y i y f k k e / ' e e ` M H Z * - = = = % % # % @ @ ",
"> , > > % % & % = - = * * * 0 0 q q q q e q q q q e e e J / ^ 0 t 2 - 2 - = & = % = % # # @ $ $ ",
", $ : : > % % % = = = & * * w * 0   0 0 w q q q e 0 Z 0 e J w w w - - - 1 = = % % = % # # @ % @ ",
"$ $ $ % 5 % = = = = & & & - * * * 0 0 0 e   0 0 w 0 w 0 t Z - - - - - - r = 5 = % = @ @ $ % % @ ",
"$ : % 8 5 % 5 % = % # & = - * * 0 0 * * 0 0 * 0 * 0 0 - t - - 2 = = - Q 6 & ; % = % @ @ $ = $ @ ",
"$ : K ! $ r % % % # # & * = = * r & & * * * * * - * - - r = C = = = r R % r = % % # @ @ & % $ % ",
", : 5 % & 5 $ = % # % & & % = r & &   & &     = & * = r = - >.= = = ; = & 6 % % % @ $ 5 & $ $ 5 "
};
