/* XPM */
static char *_63373c7cba14111bf1065275ca61790vrX8q1W87TM5ufLl[] = {
/* columns rows colors chars-per-pixel */
"48 48 162 2 ",
"   c #1E7F00",
".  c #227E02",
"X  c #367F00",
"o  c #3B7F00",
"O  c #437F01",
"+  c #4B7F03",
"@  c #527F03",
"#  c #5C7F03",
"$  c #765E2A",
"%  c #7C642A",
"&  c #7F682A",
"*  c #836B2B",
"=  c #8C752B",
"-  c #058500",
";  c #0C8500",
":  c #038D00",
">  c #0C8B00",
",  c #148501",
"<  c #1C8401",
"1  c #148A01",
"2  c #1B8A01",
"3  c #1F8F0B",
"4  c #039300",
"5  c #0A9301",
"6  c #049802",
"7  c #0F9906",
"8  c #139303",
"9  c #1C9305",
"0  c #129906",
"q  c #16930B",
"w  c #1C940B",
"e  c #17990B",
"r  c #1A990B",
"t  c #248401",
"y  c #2B8401",
"u  c #248A03",
"i  c #2B8A02",
"p  c #2E860B",
"a  c #248C0B",
"s  c #2B8B0B",
"d  c #348401",
"f  c #3B8401",
"g  c #368800",
"h  c #358D00",
"j  c #308906",
"k  c #338906",
"l  c #338806",
"z  c #318E06",
"x  c #328E06",
"c  c #378D06",
"v  c #338902",
"b  c #3C8B01",
"n  c #3D8C01",
"m  c #3C8B02",
"M  c #36870B",
"N  c #3C860A",
"B  c #338F0B",
"V  c #378F0B",
"C  c #358F0B",
"Z  c #338B0B",
"A  c #3A8D0A",
"S  c #3B8D0A",
"D  c #3C8C0B",
"F  c #209406",
"G  c #279106",
"H  c #27930B",
"J  c #20960B",
"K  c #22940B",
"L  c #28930B",
"P  c #2F910B",
"I  c #2D920B",
"U  c #23990B",
"Y  c #3C9106",
"T  c #3F9006",
"R  c #30920B",
"E  c #2D8F11",
"W  c #348F10",
"Q  c #3A8E10",
"!  c #259713",
"~  c #269613",
"^  c #259613",
"/  c #2F9312",
"(  c #299613",
")  c #289613",
"_  c #2B9413",
"`  c #2C9412",
"'  c #2E9613",
"]  c #2D9613",
"[  c #2B9212",
"{  c #209913",
"}  c #239913",
"|  c #239813",
" . c #2B9F1C",
".. c #2F9B19",
"X. c #339211",
"o. c #359110",
"O. c #349211",
"+. c #3A9110",
"@. c #3D9110",
"#. c #3D9617",
"$. c #3E9618",
"%. c #339B19",
"&. c #329B19",
"*. c #319B19",
"=. c #359A19",
"-. c #309C19",
";. c #339E1C",
":. c #399B19",
">. c #3E9818",
",. c #3D9919",
"<. c #3B9A1B",
"1. c #2BA01C",
"2. c #30A11C",
"3. c #3B9E21",
"4. c #418602",
"5. c #428602",
"6. c #408606",
"7. c #438402",
"8. c #4C8302",
"9. c #428902",
"0. c #428A01",
"q. c #408A06",
"w. c #448A03",
"e. c #488906",
"r. c #4B8A03",
"t. c #458609",
"y. c #4B8509",
"u. c #428D0F",
"i. c #438C0C",
"p. c #4A8B0C",
"a. c #548303",
"s. c #5B8403",
"d. c #548A05",
"f. c #5A8805",
"g. c #548509",
"h. c #5A8508",
"j. c #528A09",
"k. c #408F10",
"l. c #558E12",
"z. c #5C8B10",
"x. c #409416",
"c. c #439617",
"v. c #419516",
"b. c #4D9113",
"n. c #46961D",
"m. c #4A921B",
"M. c #459A1D",
"N. c #569118",
"B. c #638404",
"V. c #6B8405",
"C. c #628508",
"Z. c #6B8609",
"A. c #728405",
"S. c #728609",
"D. c #7A870C",
"F. c #768A0F",
"G. c #419A20",
"H. c #B4A51A",
"J. c #BAAC1A",
"K. c #F2BD12",
"L. c #F3C112",
"P. c #FFF82B",
/* pixels */
"6 6 4 : : : : : : 5 4 > > > > > ; ; > ; > > 1 5 1 > > > > > > > > > > - : : - 4 : 5 4 4 : 4 4 4 ",
": : 4 4 4 : : : 4 0 1 5 > > ; > ; , , , 1 1 8 1 2 1 1 1 1 1 ; ; > > 5 > > > - : 4 0 5 4 : 4 : 4 ",
": 4 4 : : 5 - { w w 5 > ; > 1 1 , , , 1 < 2 2 2 2 2 < 2 2 1 , 1 , 1 > > > 8 > } q q 4 4 : : : : ",
": 4 4 4 7 0 } } ) > K 8 8 1 2 , 2 2 < < < 2 u u u t u < u < 2 2 1 2 1 8 9 q | ~ ! 5 e 5 4 4 4 4 ",
"4 6 4 e { }  .~ 8 ( %.8 1 2 2 2 < t t t u u i i i i y t s u I 2 2 a 1 H ' ( ;.( 1 } 1.5 4 4 : : ",
"5 e } 2.e 3.;.8 9 :.F 2 2 2 2 t t t t y i i k k i i y k y x i u s I R c.L G.:.1 q 3.8 5 5 4 4 : ",
"e e 2.} ! ;.J 1 =.' 9 2 u u u y y y y v g d c g g g v l c k i c C C c.R X.,.L 8 ..) 5 5 4 5 4 : ",
"e e  .r _ _ 1 H =.2 2 u u u y y X y g f f f f f b f q.q.T h h S S V c.Z @.+.< a ;.1 5 5 > : : ; ",
"7 } { w ' 1 2 ' u 2 t u . y X X d X f f 7.7.5.5.7.w.e.0.f n q.Y n k.D V k.u u R a , 1 ; ; ; - - ",
"5 e 5 w 9 1 1 2 2 t i y y X d X o f 7.O 5.7.8.r.8.r.8.r.w.w.p.b g i.z D z u u t 1 2 1 > ; - ; - ",
"5 5 5 8 > 1 < 2 u y y y X d f 7.O O + + 8.8.a.@ 8.a.8.8.r.y.r.7.6.n g v y y t u 2 u 1 , ; ; > : ",
"5 : > 1 1 2 < t t y y d f X 7.O 8.+ 8.a.a.@ a.a.a.a.a.a.a.d.r.5.5.7.g f g y y u < t ,   , ; 1 - ",
"> > 1 , s 2 u i v d d X 7.7.7.+ + @ @ s.s.# $ $ $ $ s.f.f.f.a.r.8.7.7.f t.g l i i t 2     ; 1 - ",
"> > 1 I u u Z t d v X o 7.y.@ + # s.# s.# $ % $ $ % $ B.C.s.f.a.8.8.8.j.q.f N y y u   , , 3 , ; ",
"> > s R 2 M p y d d o 7.+ a.a.# V.# B.# V.% % P.P.% % C.V.s.B.f.a.a.h.j.5.y.f d d y t   . 1 1 , ",
"> 1 a 2 t Z y d g f 7.+ @ @ a.C.B.V.# V.% % K.P.P.K.% & V.V.Z.B.s.s.h.a.+ y.f d d . t t t 1 , 3 ",
"; < ,   i y y g o o 7.@ a.s.B.B.# D.# # & * P.P.P.P.& & V.A.A.B.# # s.@ a.8.f f X y t . t , a > ",
"; , < . t y d f 7.7.8.a.@ s.B.B.A.# = = * H.P.P.P.P.H.* * D.V.V.B.B.# @ @ 7.7.7.f d y y < 3 2 ; ",
", 1 < < t y g y.p.7.+ a.h.$ $ % % * * * * P.P.P.P.P.P.* * % * % % $ $ @ a.8.8.y.p.d d y s t , , ",
"1 , 2 t y y f b.7.+ g.s.$ $ % % * * * * K.P.P.P.P.P.P.K.* * * * & % $ $ a.+ a.l.f X M i p t a a ",
"9 2 2 . y d b.e.8.a.g.s.$ $ P.P.P.P.P.P.P.P.P.P.P.P.P.P.P.P.P.P.P.P.% $ a.a.z.p.f 6.N Z t u s K ",
"9 2 t t y t.t.f y.g.g.s.$ $ K.P.P.P.P.P.P.* = P.P.= = P.P.P.P.P.P.K.% $ s.C.g.7.e.t.X y y s p 3 ",
"1 2 u i y M f 6.g.a.# B.A.* * P.P.P.P.P.P.= = P.P.= = P.P.P.P.P.P.% % $ B.a.8.8.y.f f M p W a , ",
"1 s n.Z N X f y.8.@ h.s.# $ $ * P.P.P.P.P.= = P.P.= = P.P.P.P.P.* % % Z.C.# a.y.7.o f y y t t a ",
"[ M.s Z y d t.7.O a.a.s.B.V.* * * P.P.P.P.= = P.P.= = P.P.P.P.* * & V.Z.s.s.h.8.7.f d y t p s 2 ",
"<.2 M m.l f 6.7.8.a.a.B.B.V.D.* * = P.P.P.= = P.P.= = P.P.P.* * * Z.V.F.s.s.g.+ 7.f d y y t 3 3 ",
"8 3 n.Q M N 6.7.8.+ a.# V.# D.# * * L.P.P.J.J.P.P.J.J.P.P.L.= * A.A.F.Z.C.s.g.8.o f d l y t t a ",
"2 $.W i l f t.6.7.@ f.s.B.V.A.* & = P.P.P.P.P.P.P.P.P.P.P.P.* * A.D.S.V.C.g.h.7.7.f d y t p a , ",
"a X.u M d N g 7.7.a.a.a.B.V.V.& & H.P.P.P.P.P.P.P.P.P.P.P.P.J.& * A.V.C.s.h.8.O f X d y i u a a ",
"9 a W i l N f f 7.8.a.f.B.V.V.& & L.P.P.P.P.P.P.P.P.P.P.P.P.K.* % V.Z.B.B.f.8.7.f f d d p u t 3 ",
"3 E s u i d d f 7.7.a.a.s.B.% % & P.P.P.P.P.P.L.L.P.P.P.P.P.P.& & % V.s.a.a.8.7.f g v u t t a , ",
"[ a 2 t i y d f 7.8.r.a.s.B.% % H.P.P.P.P.P.* = * * P.P.P.P.P.H.% % s.f.a.r.7.7.f g i y t t 2 2 ",
"1 1 < t t y d d f 8.8.a.a.# $ % P.P.P.P.H.* * * * * * H.P.P.P.P.$ $ s.a.a.8.O f d d i y t < , , ",
", 1 2 < t y d d f e.8.8.a.a.$ $ P.P.K.& * * * A.A.* * * & K.P.P.$ $ a.a.8.7.7.f g c k u t 2 , , ",
", 1 2 < t i d k.6.t.5.8.8.@ $ $ $ % % % % A.A.A.A.A.# * & % % $ $ $ a.a.8.w.f p.N M i t t , 2 ; ",
"; 1 1 2 s k Q k.i.f p.e.8.a.a.$ $ $ $ B.# V.V.V.A.A.A.# V.$ $ $ $ a.a.8.e.t.p.i.i.y Z u 2 2 , > ",
"> 1 1 I W Q x.D g p.b.0.5.8.r.a.a.# B.B.B.V.V.V.V.V.B.B.B.B.s.f.a.8.r.d.j.b.b.u.i D #.9 2 1 1 > ",
"8 J _ ,.I n.c.i Z b.n g 7.7.8.8.@ @ a.s.s.s.s.s.s.B.B.s.s.f.f.a.8.g.j.l.i.N.b.i z v.G 2 1 8 > > ",
"w w <._ [ ,.I u v.@.v g f f 5.8.8.a.a.a.d.f.f.f.f.a.d.f.f.d.d.r.d.y.l.p.i.b.Y i v.R 2 9 1 1 > > ",
"w w ..J O.+.2 Z v.i i v g f f O O 8.8.r.r.a.d.a.d.a.f.d.d.r.r.d.y.p.b.i.p.u.i Z #.u 2 1 1 > > ; ",
"0 ~ K K X.2 < W i u y i d X X o O O 5.7.8.8.8.r.r.r.d.r.r.r.e.w.w.i.i.n u.i y O.u 2 1 , , ; ; ; ",
"5 r 5 K w 1 1 2 2 t t y . d d X X f 7.O 7.7.7.7.7.w.5.w.0.w.i.f g i.i A z u t 2 2 2 1 , ; ; ; - ",
"5 5 > 5 > 1 , 2 2 t u t y . y d X X o X g f 7.7.7.f f g Y n n g k z i u u < < < 1 2 1 , ; - - : ",
"4 > 4 > > 1 1 1 , 2 < < t t y X y X X d g d d X d f f g g c d i i y u u u 2 2 , 1 , > ; ; > > ; ",
": > - > 3 ; 1 1 , 2   ,   t y . . X y d d X X X d y y d c c i i t t u u s , 2 1 1 , ; , ; > > - ",
": 4 > U q > a ; 1 , ,   2 t . t y y . y y . t X y X y y M u t u t 2 t R u 2 a 1 2 > ; - : 1 ; : ",
": 4 a U > a > > 1 , , , t < < y p . t . . . . t t y t u Z t G 2 2 2 p I 1 E q ; 1 ; - - , > - > ",
"4 > q > , q > 1 , ; ; <   , 2 a ,       t . . <   . 2 p < u R < , 2 a 2 < a ; ; 1 - - q , : > q "
};
