/* XPM */
static char *result[] = {
/* columns rows colors chars-per-pixel */
"48 48 79 1 ",
"  c #08C608",
". c #00C600",
"X c #00BD00",
"o c #00B500",
"O c #08C600",
"+ c #08BD08",
"@ c #08BD00",
"# c #00CE00",
"$ c #10CE08",
"% c #10C608",
"& c #21CE18",
"* c #18C610",
"= c #18CE10",
"- c #29D621",
"; c #31D621",
": c #39D629",
"> c #29CE18",
", c #10D608",
"< c #08CE00",
"1 c #08B500",
"2 c #21CE10",
"3 c #10BD08",
"4 c #10B508",
"5 c #21BD10",
"6 c #18BD10",
"7 c #0FB701",
"8 c #61CC0E",
"9 c #ABE11B",
"0 c #DFEE23",
"q c #FFF729",
"w c #E0EE23",
"e c #ABE31B",
"r c #61D713",
"t c #1FC710",
"y c #59CA0D",
"u c #E3EF24",
"i c #E3F124",
"p c #59D012",
"a c #04B600",
"s c #99DE1B",
"d c #A0E521",
"f c #04BD00",
"g c #96DE17",
"h c #93E217",
"j c #54D00D",
"k c #17C709",
"l c #E5F126",
"z c #08BE01",
"x c #6BD719",
"c c #5CD70E",
"v c #B5E920",
"b c #ABE91B",
"n c #E1F024",
"m c #DFEF23",
"M c #39DE29",
"N c #E3F125",
"B c #B4E71E",
"V c #B1E71E",
"C c #69D814",
"Z c #7EE224",
"A c #E9F226",
"S c #E9F326",
"D c #27CF18",
"F c #62D613",
"G c #62DC13",
"H c #A1E31C",
"J c #A7E622",
"K c #0BBD00",
"L c #9BE318",
"P c #0BC600",
"I c #58D10E",
"U c #E7F125",
"Y c #E7F225",
"T c #58D60E",
"R c #60D20F",
"E c #AFE71C",
"W c #E3F224",
"Q c #60D80F",
"! c #08AD08",
/* pixels */
" .XXXXoXXO.+@XX@XXXX...#.XX...XX .XXXXoXXO.+@XX@",
"XX.XXXXX.$%.XXXXoooXX.#.X...XXoXXX.XXXXX.$%.XXXX",
"o..XXOX&**.XXX@XXoXXo.#X.OX.XXXXo..XXOX&**.XXX@X",
"X.X.$$&&&.= ..XXXXXXX... ..X%X .X.X.$$&&&.= ..XX",
". .=&&-&O&-#..XXXXXX... O.XX  $.. .=&&-&O&-#..XX",
" =&;=:; $;$....XooXX..  ..X O$ . =&;=:; $;$....X",
"==;&&;=.-&.....XXXX... .... $ .$==;&&;=.-&.....X",
"==-=>>X*-...XXXooXX.X.O.#.$$,#<===-=>>X*-...XXXo",
"$&==>.@&%XXXoooooo.XX..#.<$< <,,$&==>.@&%XXXoooo",
"O=#=$XXXXXXXoooooXXo..X.X#O##<=.O=#=$XXXXXXXoooo",
" #..XXoXX@XoooXXoooo.XXXX.X.#$$X #..XXoXX@XoooXX",
".X.X.XXXX@Xooo@ooooX.oXoXX.X.$...X.X.XXXX@Xooo@o",
"XXX@*X+@@@ooo@@oo1ooX1ooXoXX%$..XXX@*X+@@@ooo@@o",
"X.@2%@*X@XooX31o43oX11o1X11.*...X.@2%@*X@XooX31o",
"X.52X5+X@ooo4@X46oo7890qqwertX$.X.52X5+X@ooo4@X4",
".@*@4*X@@oX44X@*Xoyuqqqqqqqqip>@.@*@4*X@@oX44X@*",
"X1X13@X@1oX4@X*.asqqqqqqqqqqqqdfX1X13@X@1oX4@X*.",
"XXo1XX.@@.X@X%+XgqqqqqqqqqqqqqqhXXo1XX.@@.X@X%+X",
"XXXXXX@5&X@@%%+pqqqqqqqqqqqqqqqqjXXXXX@5&X@@%%++",
".XXXXX%-Oo+%%+klqqqqqqqqqqqqqqqqizXXXX%-Oo+%%+%*",
"$.XoXO-$X%%%+OxqqqqqqqqqqqqqqqqqqcXoXO-$X%%%+O*=",
",#XXX2=X%*++%$vqqqqqqqqqqqqqqqqqqbXXX2=X%*++%$2%",
"<X O++X *@@% &nqqqqqqqqqqqqqqqqqqm O++X *@@% &%X",
".=M**XX*@@+@%@qqqqqqqqqqqqqqqqqqqqM**XX*@@+@%@+*",
"&M$*XX*.X@XX.+qqqqqqqqqqqqqqqqqqqq$*XX*.X@XX.+*$",
"M.*: %%XXXX.+%Nqqqqqqqqqqqqqqqqqqi*: %%XXXX.+% %",
"# M&*%%+XX.+@+BqqqqqqqqqqqqqqqqqqVM&*%%+XX.+@+%*",
" ;&$% *XXX.X@%CqqqqqqqqqqqqqqqqqqZ&$% *XXX.X@%% ",
"=& *O*.XXXXX%%kAqqqqqqqqqqqqqqqqSD *O*.XXXXX%%%*",
"$=&%%*XXXX.O+%%FqqqqqqqqqqqqqqqqG=&%%*XXXX.O+%%%",
"$&=.O..XX.O.X@%+HqqqqqqqqqqqqqqJ$&=.O..XX.O.X@%+",
"&=.X..XXX..X@@.%KHqqqqqqqqqqqqLP&=.X..XXX..X@@.%",
" .XXXXoXXO.+@XX@XXIUqqqqqqqqYTXX .XXXXoXXO.+@XX@",
"XX.XXXXX.$%.XXXXooozREWqqiEQzXoXXX.XXXXX.$%.XXXX",
"o..XXOX&**.XXX@XXoXXo.#X.OX.XXXXo..XXOX&**.XXX@X",
"X.X.$$&&&.= ..XXXXXXX... ..X%X .X.X.$$&&&.= ..XX",
". .=&&-&O&-#..XXXXXX... O.XX  $.. .=&&-&O&-#..XX",
" =&;=:; $;$....XooXX..  ..X O$ . =&;=:; $;$....X",
"==;&&;=.-&.....XXXX... .... $ .$==;&&;=.-&.....X",
"==-=>>X*-...XXXooXX.X.O.#.$$,#<===-=>>X*-...XXXo",
"$&==>.@&%XXXoooooo.XX..#.<$< <,,$&==>.@&%XXXoooo",
"O=#=$XXXXXXXoooooXXo..X.X#O##<=.O=#=$XXXXXXXoooo",
" #..XXoXX@XoooXXoooo.XXXX.X.#$$X #..XXoXX@XoooXX",
".X.X.XXXX@Xooo@ooooX.oXoXX.X.$...X.X.XXXX@Xooo@o",
"XXX@*X+@@@ooo@@oo1ooX1ooXoXX%$..XXX@*X+@@@ooo@@o",
"X.@2%@*X@XooX31o43oX11o1X11.*...X.@2%@*X@XooX31o",
"X.52X5+X@ooo4@X46oo11ooXX1X *X$.X.52X5+X@ooo4@X4",
".@*@4*X@@oX44X@*Xo1ooo!Xo1.*.+>@.@*@4*X@@oX44X@*"
};
