/* XPM */
static char *result[] = {
/* columns rows colors chars-per-pixel */
"48 48 115 2 ",
"   c #08C608",
".  c #00C600",
"X  c #00BD00",
"o  c #00B500",
"O  c #08C600",
"+  c #08BD08",
"@  c #08BD00",
"#  c #00CE00",
"$  c #10CE08",
"%  c #10C608",
"&  c #21CE18",
"*  c #18C610",
"=  c #18CE10",
"-  c #16C203",
";  c #49CD0B",
":  c #49D40B",
">  c #53D412",
",  c #26CA0B",
"<  c #29D621",
"1  c #4DCE0E",
"2  c #8FDE31",
"3  c #E3F13A",
"4  c #FFF729",
"5  c #E6F23A",
"6  c #96E234",
"7  c #60DB14",
"8  c #16CA03",
"9  c #31D621",
"0  c #39D629",
"q  c #68D51D",
"w  c #ECF238",
"e  c #EDF437",
"r  c #71DB22",
"t  c #2FD212",
"y  c #64D91B",
"u  c #F1F436",
"i  c #F5F533",
"p  c #95E62D",
"a  c #39D219",
"s  c #29CE18",
"d  c #BFE937",
"f  c #CCEE38",
"g  c #41D219",
"h  c #F0F437",
"j  c #F8F631",
"k  c #4DD40E",
"l  c #1DC203",
"z  c #60D311",
"x  c #65D414",
"c  c #F4F534",
"v  c #1EC20A",
"b  c #C2E936",
"n  c #C9EB38",
"m  c #21CE10",
"M  c #7CDB24",
"N  c #63D31B",
"B  c #10BD08",
"V  c #08B500",
"C  c #21BD10",
"Z  c #38C312",
"A  c #F2F436",
"S  c #F0F337",
"D  c #16BA03",
"F  c #10B508",
"G  c #81DC27",
"H  c #26C20B",
"J  c #EEF337",
"K  c #EDF337",
"L  c #26BB0B",
"P  c #54CF0F",
"I  c #94DE31",
"U  c #E7F239",
"Y  c #47C70B",
"T  c #52CE11",
"R  c #10D608",
"E  c #5AD512",
"W  c #08CE00",
"Q  c #50D40C",
"!  c #39DE29",
"~  c #65D618",
"^  c #8CE329",
"/  c #71DC1E",
"(  c #4ECD0B",
")  c #5ADA12",
"_  c #2FCA12",
"`  c #A2E537",
"'  c #9DE435",
"]  c #55D40F",
"[  c #78D825",
"{  c #78DD25",
"}  c #F6F533",
"|  c #F9F631",
" . c #DCF13A",
".. c #E2F239",
"X. c #F7F532",
"o. c #6AD916",
"O. c #26D10B",
"+. c #42D921",
"@. c #93E325",
"#. c #89E221",
"$. c #F8F632",
"%. c #91E121",
"&. c #D4EC3A",
"*. c #DEF13A",
"=. c #79DD1E",
"-. c #67CF1D",
";. c #7EE21F",
":. c #7FDE29",
">. c #49D90B",
",. c #4BC80E",
"<. c #97DD35",
"1. c #A2E837",
"2. c #4EC70B",
"3. c #18BD10",
"4. c #08AD08",
/* pixels */
"  . X X X X o X X O . + @ X X @ X X X X . . . # . X X . . . X X   . X X X X o X X O . + @ X X @ ",
"X X . X X X X X . $ % . X X X X o o o X X . # . X . . . X X o X X X . X X X X X . $ % . X X X X ",
"o . . X X O X & * * . X X X @ X X o X X o . # X . O X . X X X X o . . X X O X & * * . X X X @ X ",
"X . X . $ $ & & & . =   . . X X X X X - ; : : : > : : ; , X   . X . X . $ $ & & & . =   . . X X ",
".   . = & & < & O & < # . . X X - 1 2 3 4 4 4 4 4 4 4 4 5 6 7 8 .   . = & & < & O & < # . . X X ",
"  = & 9 = 0 9   $ 9 $ . . . 8 q w 4 4 4 4 4 4 4 4 4 4 4 4 4 4 e r t & 9 = 0 9   $ 9 $ . . . . X ",
"= = 9 & & 9 = . < & . . 8 y u 4 4 4 4 4 4 4 4 4 4 4 4 4 4 4 4 4 4 i p a & 9 = . < & . . . . . X ",
"= = < = s s X * < . . 8 d 4 4 4 4 4 4 4 4 4 4 4 4 4 4 4 4 4 4 4 4 4 4 f g s X * < . . . X X X o ",
"$ & = = s . @ & % - 1 h 4 4 4 4 4 4 4 4 4 4 4 4 4 4 4 4 4 4 4 4 4 4 4 4 j k l & % X X X o o o o ",
"O = # = $ X X X - z 4 4 4 4 4 4 4 4 4 4 4 4 4 4 4 4 4 4 4 4 4 4 4 4 4 4 4 4 x - X X X X o o o o ",
"  # . . X X o X 1 4 4 4 4 4 4 4 4 4 4 4 4 4 4 4 4 4 4 4 4 4 4 4 4 4 4 4 4 4 4 1 X @ X o o o X X ",
". X . X . X X - h 4 4 4 4 4 4 4 4 4 4 4 4 4 4 4 4 4 4 4 4 4 4 4 4 4 4 4 4 4 4 c - @ X o o o @ o ",
"X X X @ * X v b 4 4 4 4 4 4 4 4 4 4 4 4 4 4 4 4 4 4 4 4 4 4 4 4 4 4 4 4 4 4 4 4 n l o o o @ @ o ",
"X . @ m % @ M 4 4 4 4 4 4 4 4 4 4 4 4 4 4 4 4 4 4 4 4 4 4 4 4 4 4 4 4 4 4 4 4 4 4 N o o X B V o ",
"X . C m X Z A 4 4 4 4 4 4 4 4 4 4 4 4 4 4 4 4 4 4 4 4 4 4 4 4 4 4 4 4 4 4 4 4 4 4 S D o F @ X F ",
". @ * @ F G 4 4 4 4 4 4 4 4 4 4 4 4 4 4 4 4 4 4 4 4 4 4 4 4 4 4 4 4 4 4 4 4 4 4 4 4 q F F X @ * ",
"X V X V H J 4 4 4 4 4 4 4 4 4 4 4 4 4 4 4 4 4 4 4 4 4 4 4 4 4 4 4 4 4 4 4 4 4 4 4 4 K L @ X * . ",
"X X o V 1 4 4 4 4 4 4 4 4 4 4 4 4 4 4 4 4 4 4 4 4 4 4 4 4 4 4 4 4 4 4 4 4 4 4 4 4 4 4 P X % + X ",
"X X X X 2 4 4 4 4 4 4 4 4 4 4 4 4 4 4 4 4 4 4 4 4 4 4 4 4 4 4 4 4 4 4 4 4 4 4 4 4 4 4 I % % + + ",
". X X - 3 4 4 4 4 4 4 4 4 4 4 4 4 4 4 4 4 4 4 4 4 4 4 4 4 4 4 4 4 4 4 4 4 4 4 4 4 4 4 U , + % * ",
"$ . X Y 4 4 4 4 4 4 4 4 4 4 4 4 4 4 4 4 4 4 4 4 4 4 4 4 4 4 4 4 4 4 4 4 4 4 4 4 4 4 4 4 T O * = ",
"R # X ; 4 4 4 4 4 4 4 4 4 4 4 4 4 4 4 4 4 4 4 4 4 4 4 4 4 4 4 4 4 4 4 4 4 4 4 4 4 4 4 4 E $ m % ",
"W X   Q 4 4 4 4 4 4 4 4 4 4 4 4 4 4 4 4 4 4 4 4 4 4 4 4 4 4 4 4 4 4 4 4 4 4 4 4 4 4 4 4 > & % X ",
". = ! ~ 4 4 4 4 4 4 4 4 4 4 4 4 4 4 4 4 4 4 4 4 4 4 4 4 4 4 4 4 4 4 4 4 4 4 4 4 4 4 4 4 E @ + * ",
"& ! $ ~ 4 4 4 4 4 4 4 4 4 4 4 4 4 4 4 4 4 4 4 4 4 4 4 4 4 4 4 4 4 4 4 4 4 4 4 4 4 4 4 4 : + * $ ",
"! . * ^ 4 4 4 4 4 4 4 4 4 4 4 4 4 4 4 4 4 4 4 4 4 4 4 4 4 4 4 4 4 4 4 4 4 4 4 4 4 4 4 4 T %   % ",
"#   ! / 4 4 4 4 4 4 4 4 4 4 4 4 4 4 4 4 4 4 4 4 4 4 4 4 4 4 4 4 4 4 4 4 4 4 4 4 4 4 4 4 ( + % * ",
"  9 & ) 4 4 4 4 4 4 4 4 4 4 4 4 4 4 4 4 4 4 4 4 4 4 4 4 4 4 4 4 4 4 4 4 4 4 4 4 4 4 4 4 ( % %   ",
"= &   _ U 4 4 4 4 4 4 4 4 4 4 4 4 4 4 4 4 4 4 4 4 4 4 4 4 4 4 4 4 4 4 4 4 4 4 4 4 4 4 5 , % % * ",
"$ = & % ` 4 4 4 4 4 4 4 4 4 4 4 4 4 4 4 4 4 4 4 4 4 4 4 4 4 4 4 4 4 4 4 4 4 4 4 4 4 4 ' + % % % ",
"$ & = . ] 4 4 4 4 4 4 4 4 4 4 4 4 4 4 4 4 4 4 4 4 4 4 4 4 4 4 4 4 4 4 4 4 4 4 4 4 4 4 k X @ % + ",
"& = . X 8 e 4 4 4 4 4 4 4 4 4 4 4 4 4 4 4 4 4 4 4 4 4 4 4 4 4 4 4 4 4 4 4 4 4 4 4 4 e - @ @ . % ",
"  . X X X [ 4 4 4 4 4 4 4 4 4 4 4 4 4 4 4 4 4 4 4 4 4 4 4 4 4 4 4 4 4 4 4 4 4 4 4 4 { + @ X X @ ",
"X X . X X - } 4 4 4 4 4 4 4 4 4 4 4 4 4 4 4 4 4 4 4 4 4 4 4 4 4 4 4 4 4 4 4 4 4 4 | , . X X X X ",
"o . . X X O q 4 4 4 4 4 4 4 4 4 4 4 4 4 4 4 4 4 4 4 4 4 4 4 4 4 4 4 4 4 4 4 4 4 4 G . X X X @ X ",
"X . X . $ $ a  .4 4 4 4 4 4 4 4 4 4 4 4 4 4 4 4 4 4 4 4 4 4 4 4 4 4 4 4 4 4 4 4 ..8 =   . . X X ",
".   . = & & < a X.4 4 4 4 4 4 4 4 4 4 4 4 4 4 4 4 4 4 4 4 4 4 4 4 4 4 4 4 4 4 4 Q & < # . . X X ",
"  = & 9 = 0 9   7 4 4 4 4 4 4 4 4 4 4 4 4 4 4 4 4 4 4 4 4 4 4 4 4 4 4 4 4 4 4 o.O.9 $ . . . . X ",
"= = 9 & & 9 = . +.@.4 4 4 4 4 4 4 4 4 4 4 4 4 4 4 4 4 4 4 4 4 4 4 4 4 4 4 4 #.8 < & . . . . . X ",
"= = < = s s X * < 8 k $.4 4 4 4 4 4 4 4 4 4 4 4 4 4 4 4 4 4 4 4 4 4 4 4 4 %.- * < . . . X X X o ",
"$ & = = s . @ & % X X - &.4 4 4 4 4 4 4 4 4 4 4 4 4 4 4 4 4 4 4 4 4 4 *.=.8 @ & % X X X o o o o ",
"O = # = $ X X X X X X X D -.} 4 4 4 4 4 4 4 4 4 4 4 4 4 4 4 4 4 4 4 ;.t $ X X X X X X X o o o o ",
"  # . . X X o X X @ X o o o - [ w 4 4 4 4 4 4 4 4 4 4 4 4 4 4 K :.>.8 . X X o X X @ X o o o X X ",
". X . X . X X X X @ X o o o @ o D ,.<.5 4 4 4 4 4 4 4 4 5 1.k 8 . X . X . X X X X @ X o o o @ o ",
"X X X @ * X + @ @ @ o o o @ @ o o V o D ; 2.Y Y ; Y ; ; , $ . . X X X @ * X + @ @ @ o o o @ @ o ",
"X . @ m % @ * X @ X o o X B V o F B o X V V o V X V V . * . . . X . @ m % @ * X @ X o o X B V o ",
"X . C m X C + X @ o o o F @ X F 3.o o V V o o X X V X   * X $ . X . C m X C + X @ o o o F @ X F ",
". @ * @ F * X @ @ o X F F X @ * X o V o o o 4.X o V . * . + s @ . @ * @ F * X @ @ o X F F X @ * "
};
