/* XPM */
static char *result[] = {
/* columns rows colors chars-per-pixel */
"48 48 123 2 ",
"   c #08C608",
".  c #00C600",
"X  c #00BD00",
"o  c #00B500",
"O  c #08C600",
"+  c #08BD08",
"@  c #08BD00",
"#  c #00CE00",
"$  c #10CE08",
"%  c #10C608",
"&  c #21CE18",
"*  c #18C610",
"=  c #18CE10",
"-  c #29D621",
";  c #04BE04",
":  c #38CB38",
">  c #7CDD7C",
",  c #AFEDAF",
"<  c #D7F6D7",
"1  c #EFFBEF",
"2  c white",
"3  c #D7F4D7",
"4  c #AFEAAF",
"5  c #80E180",
"6  c #3ED23E",
"7  c #13CE0B",
"8  c #31D621",
"9  c #39D629",
"0  c #18C318",
"q  c #8BDD8B",
"w  c #E3F6E3",
"e  c #E3F8E3",
"r  c #8BE58B",
"t  c #1FCB1F",
"y  c #14CA14",
"u  c #93E693",
"i  c #FBFDFB",
"p  c #FBFEFB",
"a  c #9DEA99",
"s  c #41D932",
"d  c #29CE18",
"f  c #50D150",
"g  c #EBF9EB",
"h  c #EEFBED",
"j  c #60DD5A",
"k  c #93E393",
"l  c #A7EBA0",
"z  c #04C604",
"x  c #ABE9AB",
"c  c #08BF08",
"v  c #ADE9AB",
"b  c #AFE7AF",
"n  c #9BE59B",
"m  c #55D150",
"M  c #5DD358",
"N  c #21CE10",
"B  c #2ACA22",
"V  c #EFFAEF",
"C  c #14C214",
"Z  c #10BD08",
"A  c #08B500",
"S  c #21BD10",
"D  c #96E396",
"F  c #93DF93",
"G  c #10B508",
"H  c #2DCB26",
"J  c #8EE08B",
"K  c #8BE08B",
"L  c #E3F7E3",
"P  c #0BBE04",
"I  c #3ECB38",
"U  c #84E180",
"Y  c #B4EDB1",
"T  c #10D608",
"R  c #D8F4D8",
"E  c #08CE00",
"W  c #F0FBEF",
"Q  c #39DE29",
"!  c #F3FCF3",
"~  c #DAF6D9",
"^  c #B7EEB5",
"/  c #B3EBB3",
"(  c #83E280",
")  c #80DE80",
"_  c #4BD445",
"`  c #45D440",
"'  c #0BC604",
"]  c #EBFAEB",
"[  c #24C624",
"{  c #24CE24",
"}  c #9FE69F",
"|  c #A5ECA2",
" . c #F1FBF0",
".. c #F0FBF0",
"X. c #74E06E",
"o. c #7BE176",
"O. c #A2E99F",
"+. c #AEEDAB",
"@. c #CEF5CA",
"#. c #0BC60B",
"$. c #2BD022",
"%. c #C3F1C3",
"&. c #22D01B",
"*. c #A3EAA3",
"=. c #B1EDAB",
"-. c #2CCE1B",
";. c #68D368",
":. c #76E171",
">. c #18BB18",
",. c #9FE39F",
"<. c #A8ECA5",
"1. c #18D218",
"2. c #ECFBEB",
"3. c #2ACE2A",
"4. c #04B604",
"5. c #40C740",
"6. c #B3EEB3",
"7. c #D7F3D7",
"8. c #F3FBF3",
"9. c #80E280",
"0. c #4BDA45",
"q. c #18BD10",
"w. c #08AD08",
/* pixels */
"  . X X X X o X X O . + @ X X @ X X X X . . . # . X X . . . X X   . X X X X o X X O . + @ X X @ ",
"X X . X X X X X . $ % . X X X X o o o X X . # . X . . . X X o X X X . X X X X X . $ % . X X X X ",
"o . . X X O X & * * . X X X @ X X o X X o . # X . O X . X X X X o . . X X O X & * * . X X X @ X ",
"X . X . $ $ & & & . =   . . X X X X X X X . . .   . . X % X   . X . X . $ $ & & & . =   . . X X ",
".   . = & & - & O & - # . . X X X ; : > , < 1 2 2 1 3 4 5 6 7 . .   . = & & - & O & - # . . X X ",
"  = & 8 = 9 8   $ 8 $ . . . . 0 q w 2 2 2 2 2 2 2 2 2 2 2 2 e r t = & 8 = 9 8   $ 8 $ . . . . X ",
"= = 8 & & 8 = . - & . . . y u i 2 2 2 2 2 2 2 2 2 2 2 2 2 2 2 2 p a s & & 8 = . - & . . . . . X ",
"= = - = d d X * - . . . f g 2 2 2 2 2 2 2 2 2 2 2 2 2 2 2 2 2 2 2 2 h j d d X * - . . . X X X o ",
"$ & = = d . @ & % X ; k 2 2 2 2 2 2 2 2 2 2 2 2 2 2 2 2 2 2 2 2 2 2 2 2 l z @ & % X X X o o o o ",
"O = # = $ X X X X ; x 2 2 2 2 2 2 2 2 2 2 2 2 2 2 2 2 2 2 2 2 2 2 2 2 2 2 4 c X X X X X o o o o ",
"  # . . X X o X ; v 2 2 2 2 2 2 2 2 2 2 2 2 2 2 2 2 2 2 2 2 2 2 2 2 2 2 2 2 b ; X @ X o o o X X ",
". X . X . X X X k 2 2 2 2 2 2 2 2 2 2 2 2 2 2 2 2 2 2 2 2 2 2 2 2 2 2 2 2 2 2 n X @ X o o o @ o ",
"X X X @ * X + m 2 2 2 2 2 2 2 2 2 2 2 2 2 2 2 2 2 2 2 2 2 2 2 2 2 2 2 2 2 2 2 2 M @ o o o @ @ o ",
"X . @ N % @ B g 2 2 2 2 2 2 2 2 2 2 2 2 2 2 2 2 2 2 2 2 2 2 2 2 2 2 2 2 2 2 2 2 V C o o X Z A o ",
"X . S N X S D 2 2 2 2 2 2 2 2 2 2 2 2 2 2 2 2 2 2 2 2 2 2 2 2 2 2 2 2 2 2 2 2 2 2 F o o G @ X G ",
". @ * @ G H i 2 2 2 2 2 2 2 2 2 2 2 2 2 2 2 2 2 2 2 2 2 2 2 2 2 2 2 2 2 2 2 2 2 2 i 0 G G X @ * ",
"X A X A Z J 2 2 2 2 2 2 2 2 2 2 2 2 2 2 2 2 2 2 2 2 2 2 2 2 2 2 2 2 2 2 2 2 2 2 2 2 K G @ X * . ",
"X X o A ; L 2 2 2 2 2 2 2 2 2 2 2 2 2 2 2 2 2 2 2 2 2 2 2 2 2 2 2 2 2 2 2 2 2 2 2 2 L P X % + X ",
"X X X X : 2 2 2 2 2 2 2 2 2 2 2 2 2 2 2 2 2 2 2 2 2 2 2 2 2 2 2 2 2 2 2 2 2 2 2 2 2 2 I % % + + ",
". X X X > 2 2 2 2 2 2 2 2 2 2 2 2 2 2 2 2 2 2 2 2 2 2 2 2 2 2 2 2 2 2 2 2 2 2 2 2 2 2 U % + % * ",
"$ . X o 4 2 2 2 2 2 2 2 2 2 2 2 2 2 2 2 2 2 2 2 2 2 2 2 2 2 2 2 2 2 2 2 2 2 2 2 2 2 2 Y + O * = ",
"T # X X 3 2 2 2 2 2 2 2 2 2 2 2 2 2 2 2 2 2 2 2 2 2 2 2 2 2 2 2 2 2 2 2 2 2 2 2 2 2 2 R % $ N % ",
"E X   O V 2 2 2 2 2 2 2 2 2 2 2 2 2 2 2 2 2 2 2 2 2 2 2 2 2 2 2 2 2 2 2 2 2 2 2 2 2 2 W   & % X ",
". = Q * 2 2 2 2 2 2 2 2 2 2 2 2 2 2 2 2 2 2 2 2 2 2 2 2 2 2 2 2 2 2 2 2 2 2 2 2 2 2 2 2 % @ + * ",
"& Q $ * 2 2 2 2 2 2 2 2 2 2 2 2 2 2 2 2 2 2 2 2 2 2 2 2 2 2 2 2 2 2 2 2 2 2 2 2 2 2 2 2 . + * $ ",
"Q . * 9 ! 2 2 2 2 2 2 2 2 2 2 2 2 2 2 2 2 2 2 2 2 2 2 2 2 2 2 2 2 2 2 2 2 2 2 2 2 2 2 ! + %   % ",
"#   Q & ~ 2 2 2 2 2 2 2 2 2 2 2 2 2 2 2 2 2 2 2 2 2 2 2 2 2 2 2 2 2 2 2 2 2 2 2 2 2 2 R @ + % * ",
"  8 & $ ^ 2 2 2 2 2 2 2 2 2 2 2 2 2 2 2 2 2 2 2 2 2 2 2 2 2 2 2 2 2 2 2 2 2 2 2 2 2 2 / @ % %   ",
"= &   * ( 2 2 2 2 2 2 2 2 2 2 2 2 2 2 2 2 2 2 2 2 2 2 2 2 2 2 2 2 2 2 2 2 2 2 2 2 2 2 ) % % % * ",
"$ = & % _ 2 2 2 2 2 2 2 2 2 2 2 2 2 2 2 2 2 2 2 2 2 2 2 2 2 2 2 2 2 2 2 2 2 2 2 2 2 2 ` + % % % ",
"$ & = . ' ] 2 2 2 2 2 2 2 2 2 2 2 2 2 2 2 2 2 2 2 2 2 2 2 2 2 2 2 2 2 2 2 2 2 2 2 2 ] z X @ % + ",
"& = . X . r 2 2 2 2 2 2 2 2 2 2 2 2 2 2 2 2 2 2 2 2 2 2 2 2 2 2 2 2 2 2 2 2 2 2 2 2 r X @ @ . % ",
"  . X X X [ i 2 2 2 2 2 2 2 2 2 2 2 2 2 2 2 2 2 2 2 2 2 2 2 2 2 2 2 2 2 2 2 2 2 2 p { + @ X X @ ",
"X X . X X X } 2 2 2 2 2 2 2 2 2 2 2 2 2 2 2 2 2 2 2 2 2 2 2 2 2 2 2 2 2 2 2 2 2 2 | % . X X X X ",
"o . . X X O 0  .2 2 2 2 2 2 2 2 2 2 2 2 2 2 2 2 2 2 2 2 2 2 2 2 2 2 2 2 2 2 2 2 ..H . X X X @ X ",
"X . X . $ $ & X.2 2 2 2 2 2 2 2 2 2 2 2 2 2 2 2 2 2 2 2 2 2 2 2 2 2 2 2 2 2 2 2 o.. =   . . X X ",
".   . = & & - & O.2 2 2 2 2 2 2 2 2 2 2 2 2 2 2 2 2 2 2 2 2 2 2 2 2 2 2 2 2 2 +.O & - # . . X X ",
"  = & 8 = 9 8   7 @.2 2 2 2 2 2 2 2 2 2 2 2 2 2 2 2 2 2 2 2 2 2 2 2 2 2 2 2 @.#.$ 8 $ . . . . X ",
"= = 8 & & 8 = . - $.%.2 2 2 2 2 2 2 2 2 2 2 2 2 2 2 2 2 2 2 2 2 2 2 2 2 2 @.&.. - & . . . . . X ",
"= = - = d d X * - . z *.2 2 2 2 2 2 2 2 2 2 2 2 2 2 2 2 2 2 2 2 2 2 2 2 =.-.X * - . . . X X X o ",
"$ & = = d . @ & % X X X ;.V 2 2 2 2 2 2 2 2 2 2 2 2 2 2 2 2 2 2 2 2 ..:.d . @ & % X X X o o o o ",
"O = # = $ X X X X X X X o >.,.i 2 2 2 2 2 2 2 2 2 2 2 2 2 2 2 2 p <.1.= $ X X X X X X X o o o o ",
"  # . . X X o X X @ X o o o X [ q g 2 2 2 2 2 2 2 2 2 2 2 2 2.K 3.# . . X X o X X @ X o o o X X ",
". X . X . X X X X @ X o o o @ o o 4.5.) 6.7.8.2 2 8.< / 9.0.z . . X . X . X X X X @ X o o o @ o ",
"X X X @ * X + @ @ @ o o o @ @ o o A o o X A o o X o X X % $ . . X X X @ * X + @ @ @ o o o @ @ o ",
"X . @ N % @ * X @ X o o X Z A o G Z o X A A o A X A A . * . . . X . @ N % @ * X @ X o o X Z A o ",
"X . S N X S + X @ o o o G @ X G q.o o A A o o X X A X   * X $ . X . S N X S + X @ o o o G @ X G ",
". @ * @ G * X @ @ o X G G X @ * X o A o o o w.X o A . * . + d @ . @ * @ G * X @ @ o X G G X @ * "
};
