/* XPM */
static char *result[] = {
/* columns rows colors chars-per-pixel */
"48 48 65 1 ",
"  c #08C608",
". c #00C600",
"X c #00BD00",
"o c #00B500",
"O c #08C600",
"+ c #08BD08",
"@ c #08BD00",
"# c #00CE00",
"$ c #10CE08",
"% c #10C608",
"& c #21CE18",
"* c #18C610",
"= c #18CE10",
"- c #29D621",
"; c #31D621",
": c #39D629",
"> c #29CE18",
", c #10D608",
"< c #08CE00",
"1 c #08B500",
"2 c #21CE10",
"3 c #10BD08",
"4 c #10B508",
"5 c #21BD10",
"6 c #18BD10",
"7 c #08AD08",
"8 c #30C707",
"9 c #97DC18",
"0 c #D8EC22",
"q c #FFF729",
"w c #D7EF22",
"e c #9AE318",
"r c #43CF14",
"t c #0FBE01",
"y c #9ADF1B",
"u c #9DE31B",
"i c #3FD729",
"p c #1FC710",
"a c #C6EB21",
"s c #CCED25",
"d c #1FCF10",
"f c #9DDF1B",
"g c #AAE925",
"h c #36C70E",
"j c #30D507",
"k c #97DF18",
"l c #A0E61E",
"z c #DAEF25",
"x c #D9F123",
"c c #39DE29",
"v c #DAF025",
"b c #A1E31C",
"n c #A7E622",
"m c #3CCF0E",
"M c #30CF07",
"N c #A5E41C",
"B c #9FE419",
"V c #1BC809",
"C c #C3E91F",
"Z c #0CC801",
"A c #13BF09",
"S c #9FE119",
"D c #9BE318",
"F c #D7ED22",
"G c #9BE018",
/* pixels */
" .XXXXoXXO.+@XX@XXXX...#.XX...XX .XXXXoXXO.+@XX@",
"XX.XXXXX.$%.XXXXoooXX.#.X...XXoXXX.XXXXX.$%.XXXX",
"o..XXOX&**.XXX@XXoXXo.#X.OX.XXXXo..XXOX&**.XXX@X",
"X.X.$$&&&.= ..XXXXXXX... ..X%X .X.X.$$&&&.= ..XX",
". .=&&-&O&-#..XXXXXX... O.XX  $.. .=&&-&O&-#..XX",
" =&;=:; $;$....XooXX..  ..X O$ . =&;=:; $;$....X",
"==;&&;=.-&.....XXXX... .... $ .$==;&&;=.-&.....X",
"==-=>>X*-...XXXooXX.X.O.#.$$,#<===-=>>X*-...XXXo",
"$&==>.@&%XXXoooooo.XX..#.<$< <,,$&==>.@&%XXXoooo",
"O=#=$XXXXXXXoooooXXo..X.X#O##<=.O=#=$XXXXXXXoooo",
" #..XXoXX@XoooXXoooo.XXXX.X.#$$X #..XXoXX@XoooXX",
".X.X.XXXX@Xooo@ooooX.oXoXX.X.$...X.X.XXXX@Xooo@o",
"XXX@*X+@@@ooo@@oo1ooX1ooXoXX%$..XXX@*X+@@@ooo@@o",
"X.@2%@*X@XooX31o43oX11o1X11.*...X.@2%@*X@XooX31o",
"X.52X5+X@ooo4@X46oo11ooXX1X *X$.X.52X5+X@ooo4@X4",
".@*@4*X@@oX44X@*Xo1ooo7Xo1.*.+>@.@*@4*X@@oX44X@*",
"X1X13@X@1oX4@X*.o34o890qqwerX>&XX1X13@X@1oX4@X*.",
"XXo1XX.@@.X@X%+X@6tyqqqqqqqqui .XXo1XX.@@.X@X%+X",
"XXXXXX@5&X@@%%++*paqqqqqqqqqqsd XXXXXX@5&X@@%%++",
".XXXXX%-Oo+%%+%**fqqqqqqqqqqqqg..XXXXX%-Oo+%%+%*",
"$.XoXO-$X%%%+O*=hqqqqqqqqqqqqqqj$.XoXO-$X%%%+O*=",
",#XXX2=X%*++%$2%kqqqqqqqqqqqqqql,#XXX2=X%*++%$2%",
"<X O++X *@@% &%Xzqqqqqqqqqqqqqqx<X O++X *@@% &%X",
".=c**XX*@@+@%@+*qqqqqqqqqqqqqqqq.=c**XX*@@+@%@+*",
"&c$*XX*.X@XX.+*$qqqqqqqqqqqqqqqq&c$*XX*.X@XX.+*$",
"c.*: %%XXXX.+% %zqqqqqqqqqqqqqqvc.*: %%XXXX.+% %",
"# c&*%%+XX.+@+%*bqqqqqqqqqqqqqqn# c&*%%+XX.+@+%*",
" ;&$% *XXX.X@%% mqqqqqqqqqqqqqqM ;&$% *XXX.X@%% ",
"=& *O*.XXXXX%%%*%NqqqqqqqqqqqqB#=& *O*.XXXXX%%%*",
"$=&%%*XXXX.O+%%%@VaqqqqqqqqqqCZ=$=&%%*XXXX.O+%%%",
"$&=.O..XX.O.X@%+%+ANqqqqqqqqSZ.&$&=.O..XX.O.X@%+",
"&=.X..XXX..X@@.%@%%.MDwqqFG8...O&=.X..XXX..X@@.%",
" .XXXXoXXO.+@XX@XXXX...#.XX...XX .XXXXoXXO.+@XX@",
"XX.XXXXX.$%.XXXXoooXX.#.X...XXoXXX.XXXXX.$%.XXXX",
"o..XXOX&**.XXX@XXoXXo.#X.OX.XXXXo..XXOX&**.XXX@X",
"X.X.$$&&&.= ..XXXXXXX... ..X%X .X.X.$$&&&.= ..XX",
". .=&&-&O&-#..XXXXXX... O.XX  $.. .=&&-&O&-#..XX",
" =&;=:; $;$....XooXX..  ..X O$ . =&;=:; $;$....X",
"==;&&;=.-&.....XXXX... .... $ .$==;&&;=.-&.....X",
"==-=>>X*-...XXXooXX.X.O.#.$$,#<===-=>>X*-...XXXo",
"$&==>.@&%XXXoooooo.XX..#.<$< <,,$&==>.@&%XXXoooo",
"O=#=$XXXXXXXoooooXXo..X.X#O##<=.O=#=$XXXXXXXoooo",
" #..XXoXX@XoooXXoooo.XXXX.X.#$$X #..XXoXX@XoooXX",
".X.X.XXXX@Xooo@ooooX.oXoXX.X.$...X.X.XXXX@Xooo@o",
"XXX@*X+@@@ooo@@oo1ooX1ooXoXX%$..XXX@*X+@@@ooo@@o",
"X.@2%@*X@XooX31o43oX11o1X11.*...X.@2%@*X@XooX31o",
"X.52X5+X@ooo4@X46oo11ooXX1X *X$.X.52X5+X@ooo4@X4",
".@*@4*X@@oX44X@*Xo1ooo7Xo1.*.+>@.@*@4*X@@oX44X@*"
};
