/* XPM */
static char *result[] = {
/* columns rows colors chars-per-pixel */
"57 54 20 1 ",
"  c #181010",
". c #301818",
"X c #202028",
"o c #600000",
"O c #482010",
"+ c #584020",
"@ c gray25",
"# c #686868",
"$ c #A81828",
"% c #885818",
"& c #A07018",
"* c #A06830",
"= c #B08018",
"- c #988048",
"; c #B88858",
": c #C8B058",
"> c #E0C868",
", c #2830C8",
"< c gray69",
"1 c None",
/* pixels */
"111111111111111111111111111111111111OOOOO1111111111111111",
"1111111111111111111111111111111111OOoooooOO11111111111111",
"111111111111111111111111111111111Oooo$$$$ooOO111111111111",
"11111111111111111111111111111111Ooo$$$$$$$$ooO11111111111",
"11111111111111111111111111111111Oo$$$$$$$$$$ooO1111111111",
"1111111111111111111111111111111Ooo$$$$$$$$$$$ooO111111111",
"1111111111111111111111111111111Oo$$<<<<$$$$$$$ooO11111111",
"1111111111111111111111111111111Oo$<o<o<<$$$$$$$ooOOO11111",
"1111111111111111111111111111111Oo$<ooo<<$$$$$$$$ooooOO111",
"11111111111111111111111111111111Oo<ooo<<$$$$$$$$$o$$oOO11",
"1111111111111111111111111111111         o$$$$$$$$$$$$oO11",
"11111111111111111111111111111                o$$$$$$$$oO1",
"1111111111111111111111111111                      o$$$oO1",
"111111111111111111111111111111111 OO;;; O;;;;;;*OO   OO 1",
"11111111111111111111111111111111    ;;;  ;;;;;;;OO;;;;OO ",
"1111111111111111111111111111111 OOO ;;;  ;;;;;;*OO;;;;;O ",
"111111111111111111111111111111 O*;;*;;;  ;;;;;OOOO;OO;;O ",
"11111111111111111111111111111 O*;;;;;;;O ;;;;;OOOO;O;;;O ",
"11111111111111111111111111111 O;;;;;;;;;;;;;;;;OO;;;;;OO ",
"11111111111111111111111111111 O;;;;;;;;;;;  ;;;;;;;;;OO 1",
"11111111111111111111111111111 O*;;;;;;;;;    ;;;;;;OO  11",
"111111111111111111111111111111 O*;;;;;;*     ;;;;;OO 1111",
"1111111111111111111111111111111  O***OO     ;;;;;O   1111",
"11111111111111111111111111111111           ;;;;OO XXX1111",
"111111111111111111111111111111111        ;;;ooo,,,,XXX111",
"111111111+++++++1111111111111111111     OOOo$$$,,,,,XXX11",
"111111++++++++++++111111111111111     OOo$$$$$$$,,,,,XXX1",
"1111+++++:+::-::+++1111111111     @@@@o$$$$$$$$$,,,,,,XX1",
"11++++:::>>>>>>>>:++1111111  @@@@@##<<<o$$$$$$o$,,,,,,XXX",
"1+++:->>>>>>>>>>>-++111111 @@#<<@#<<<<<<o    o$,,,,,,,,XX",
"1++:>>>>>>>>>>>>>--..1111 @@#<<@#<<<<<< OOOOO ,,,,,,,,,XX",
"++:>>>>>>>>>>>>>::-..1111 @#<<<@##<<<< OOOOOOO ,,,,,,,,XX",
"++:>>>>>>>>>>>:-::%&..111 ...<<@##<<<<OOOOOOOO ,,,,,,,,XX",
".+-::>->>>>:-:::-%==.........<<@##<<< OO**OOOOO ,,,,,,,XX",
"..%-:-::::::---%%===&.....%%%##@#<<<< OOOO*OOOO ,,,,,,XX1",
"..&%%----:--%%%======..%%%====<<@#<<< OOOOO*OO O ,,,,,XX1",
"..&%%%%%%%%==%%======..===++++<<<@##<< OOOO*OO O ,,,,XX11",
"..&%%========%%======&.++++...@@@@@@@@ OOOOO* OOO ,,XX111",
"1..=%=========%======&........    OOOO  OOOO*OOOO XXX1111",
"1..===========%======&......11111  OOO  OOOOO*OO  XX11111",
"1...=====%=======%==&&..1111111111       OOOO*O   1111111",
"....+====%=======%%=&&&.11111111111   11  OOOO   11111111",
"..=%%+===%%======%%&&&&..1111111111111111       111111111",
"..==%+====%=======%&&&&..11111111111111111     1111111111",
"1..=%.====%%=====&%%&&&..11111111111111111111111111111111",
"1....&&===%%===&&&%%&&-..11111111111111111111111111111111",
"11...&&%&&&%%&&&&&%%&&-..11111111111111111111111111111111",
"1111..&%&&&%%&&&&&%%&-..111111111111111111111111111111111",
"1111..&&%&&&%%&&&&%%--..111111111111111111111111111111111",
"11111..&%%&&%%%%&&---..1111111111111111111111111111111111",
"11111...-%%&&%%----...11111111111111111111111111111111111",
"11111.....------.....111111111111111111111111111111111111",
"1111111............11111111111111111111111111111111111111",
"1111111111......11111111111111111111111111111111111111111"
};
