/* XPM */
static char *result[] = {
/* columns rows colors chars-per-pixel */
"48 51 17 1 ",
"  c #180808",
". c #311000",
"X c #181839",
"o c #393939",
"O c #3F3F3F",
"+ c #421800",
"@ c #600000",
"# c #631808",
"$ c #7B4210",
"% c gray39",
"& c #B51021",
"* c #A56B31",
"= c #BD8C5A",
"- c #2121DE",
"; c gray71",
": c gray74",
"> c None",
/* pixels */
">>>>>>>>>>>>>>>>>>>>>>++++++>>>>>>>>>>>>>>>>>>>>",
">>>>>>>>>>>>>>>>>>>>++@@@@@@+>>>>>>>>>>>>>>>>>>>",
">>>>>>>>>>>>>>>>>>>+@@@&&&&@@+>>>>>>>>>>>>>>>>>>",
">>>>>>>>>>>>>>>>>>+@@&&&&&&&@@+>>>>>>>>>>>>>>>>>",
">>>>>>>>>>>>>>>>>+@@&&&&&&&&&@+>>>>>>>>>>>>>>>>>",
">>>>>>>>>>>>>>>>>+@&&&&&&&&&&&@+>>>>>>>>>>>>>>>>",
">>>>>>>>>>>>>>>>+@@&&&&&&&&&&&@@    >>>>>>>>>>>>",
">>>>>>>>>>>>>>>+@@&&&&&&&&&&&&@@     >>>>>>>>>>>",
">>>>>>>>>>>>>>>+@&&&&&&&&&&&&&&@     >>>>>>>>>>>",
">>>>>>>>>>>>>>>+@&&&&&&&&&&&&&&@.   >>>>>>>>>>>>",
">>>>>>>>>>>>>+++@&&&&&&&&&&&&&&    >>>>>>>>>>>>>",
">>>>>>>>>>>>+@@@@@@@&&&&&&&&&&   >>>>>>>>>>>>>>>",
">>>>>>>>>>>+@@&&&&&&@@&&&&&&&       >>>>>>>>>>>>",
">>>>>>>>>>+@@&&&&&&&&&&&&&&&  $+++++ >>>>>>>>>>>",
">>>>>>>>>>+@&&&&&&&&&&&&&&&  $$$+==++ >>>>>>>>>>",
">>>>>>>>>>+@&&&&&&&&&&&&&@ +++$$====+ >>>>>>>>>>",
">>>>>>>>>>.@&&&&&&&&&&&@@@$===+$====+ >>>>>>>>>>",
">>>>>>>>> +=@@&&&&&&@@@$$$=====+$===+ >>>>>>>>>>",
">>>>>>>>> +==$@@@@@@$$$$$$=====+$ ==+ >>>>>>>>>>",
">>>>>>>>> +==$$$$$$$$$$$$$=====+$  =+ >>>>>>>>>>",
">>>>>>>>> ++=$$$$$$$$$$$$$=====+=  ++ >>>>>>>>>>",
">>>>>>>>>> +++$$$$$$$$$$$$$===+==  + >>>>>>>>>>>",
">>>>>>>>>>> +#$$$$$$$$$$$$$$++==    >>>>>>>>>>>>",
">>>>>>>>>>>> ++$$$$$$$$$$$=====++ >>>>>>>>>>>>>>",
">>>>>>>>>>>> +$$$$$$$$$$$$$===++ >>>>>>>>>>>>>>>",
">>>>>>>>>>>> +$$$$#++$$$$$$=+++ >>>>>>>>>>>>>>>>",
">>>>>>>>>>>> ++++++&&++#+++++  >>>>>>>>>>>>>>>>>",
">>>>>>>>>>>>> +@@X&&&---o&&@@X>>>>>>>>>>>>>>>>>>",
">>>>>>>>>>>>>>+@X-&&&---&&&&@@XX>>>>>>>>>>>>>>>>",
">>>>>>>>>>>>>>+@X--&----&&&&@@XX>>>>>>>>>>>>>>>>",
">>>>>>>>>>>>>+@XX--&----&&&&&@@XX>>>>>>>>>>>>>>>",
">>>>>>>>>>>> o@X--------o&&&&@@XX>>>>>>>>>>>>>>>",
">>>>>>>>>>> o;XX--------O&&&&&@@XX>>>>>>>>>>>>>>",
">>>>>>>>>> o;;X---------oo;;:;:;o >>>>>>>>>>>>>>",
">>>>>>>>>> o;;X---------o;;;;;;;;o >>>>>>>>>>>>>",
">>>>>>>>>> o;;X---------o;;;;;;%;;o >>>>>>>>>>>>",
">>>>>>>>>> o;XX----------%;;;%;%;;o >>>>>>>>>>>>",
">>>>>>>>>>> oXX---------o;;;;%;;;;o >>>>>>>>>>>>",
">>>>>>>>>>>> XX---------o;;;;;;;;o >>>>>>>>>>>>>",
">>>>>>>>>>>>>XXX---------o;;;;;oo  >>>>>>>>>>>>>",
">>>>>>>>>>>>>>XXX---------ooooo  >>>>>>>>>>>>>>>",
">>>>>>>>>>>>>>>XXX----------XX >>>>>>>>>>>>>>>>>",
">>>>>>>>>>>>>>>>  ++-------XXX>>>>>>>>>>>>>>>>>>",
">>>>>>>>>>>>>>>>  ++++---XXX >>>>>>>>>>>>>>>>>>>",
">>>>>>>>>>>>>>>  +++++   +++  >>>>>>>>>>>>>>>>>>",
">>>>>>>>>>>>>>>  ++++++ +++++  >>>>>>>>>>>>>>>>>",
">>>>>>>>>>>>>>>  *+++++++++++  >>>>>>>>>>>>>>>>>",
">>>>>>>>>>>>>>>   **$+++++++$  >>>>>>>>>>>>>>>>>",
">>>>>>>>>>>>>>>>     $*****$   >>>>>>>>>>>>>>>>>",
">>>>>>>>>>>>>>>>>             >>>>>>>>>>>>>>>>>>",
">>>>>>>>>>>>>>>>>>>>         >>>>>>>>>>>>>>>>>>>"
};
