/* XPM */
static char *result[] = {
/* columns rows colors chars-per-pixel */
"48 48 13 1 ",
"  c #181010",
". c #202028",
"X c #600000",
"o c #482010",
"O c gray25",
"+ c #686868",
"@ c #A81828",
"# c #A06830",
"$ c #C09830",
"% c #B88858",
"& c #2830C8",
"* c gray69",
"= c None",
/* pixels */
"=======================ooooo====================",
"=====================ooXXXXooo==================",
"===================ooXX@@@@XXo==================",
"==================ooX@@@@@@@@Xo=================",
"=================ooX@@@@****@Xo=================",
"================ooX@@@@**X*X*@Xo================",
"===============ooX@@@@@**XXX*@Xo================",
"===============oX@@@@@@**XXX*X      ============",
"==============ooX@@@@@@@**           ===========",
"==============oX@@@@@@@@            ============",
"===========ooooX@@@@@@X          ===============",
"==========ooXXX@@@@@X     %%%%o ================",
"=========ooX@@X@@@X    %%%%%%#o ================",
"=========oX@@@@@@   o%%%  %%%     ==============",
"=========oX@@@@X  o%%%%%  %%%  ooo  ============",
"=========oX@@X  o%%%%%%%  %%% o%%#o ============",
"=========ooXX  oo%%%%%%%  %%%%%%%%#o ===========",
"========= o%%%%oooo%%%%%oo%%%%%%%%%o ===========",
"======== o%%%%%%ooo%%%%%%%%%%%%%%%%o ===========",
"======== o%%oo%%oo%%%%  %%%%%%%%%%#o ===========",
"======== o%%%o%%%%%%%    %%%%%%%%#o ============",
"========  o%%%%%%%%%%      %%%%#oo =============",
"=========  o%%%%%%%%%%o           ==============",
"==========  ooo%%%%%%%%          ===============",
"============   oo%%%%%%%%       ================",
"===============  ooo%%%%%%%oo ==================",
"=================  oooooooooo===================",
"=================oX.&&.@@XX..===================",
"================oX@.&&&.@@@X..==================",
"===============oX@@@.&&&.@@@X..=================",
"==============oX@@@@.&&&&.......================",
"=============oXX@@@@.&&&&&&&&&$oo===============",
"============ OX@@@@X&&&o$$&&&&$$oo   ===========",
"=========== O*******O&&$$$$&&&$.      ==========",
"==========  O*******OO&$$$$&&&.ooooo   =========",
"========== O**+******O&o$$&&&.ooooooo  =========",
"=========  O**+*+****O&&&&&&&.oooooo#  =========",
"=========  O****+****O&&&&&&&.ooooo#o  =========",
"=========  OO******+OO&&&&&&&.ooooooo  =========",
"=========  oOO+****OO&&&&&&&.. ooooo  ==========",
"========  oo OOOOOOO&&&&&&&&.oo   #o  ==========",
"========  ooooo..&&&&&&&&&..ooooooo   ==========",
"========  oooooo........... ooooooo  ===========",
"========  oooooo  .........  oooo#o  ===========",
"=========  ooooo  ==========  oooo   ===========",
"=========   ooo   ===========       ============",
"==========       =============     =============",
"===========     ================================"
};
