/* XPM */
static char *result[] = {
/* columns rows colors chars-per-pixel */
"59 46 20 1 ",
"  c #181010",
". c #301818",
"X c #202028",
"o c #600000",
"O c #482010",
"+ c #584020",
"@ c gray25",
"# c #686868",
"$ c #A81828",
"% c #885818",
"& c #A07018",
"* c #A06830",
"= c #B08018",
"- c #988048",
"; c #B88858",
": c #C8B058",
"> c #E0C868",
", c #2830C8",
"< c gray69",
"1 c None",
/* pixels */
"11111111111111111111111111111111111OOOOO1111111111111111111",
"111111111111111111111111111111111OOoooooOO11111111111111111",
"11111111111111111111111111111111Oooo$$$$ooOO111111111111111",
"1111111111111111111111111111111Ooo$$$$$$$$oOO11111111111111",
"1111111111111111111111111111111Oo$$$$$$$$$$$oO1111111111111",
"111111111111111111111111111111Ooo$$$$$$$$$$$$oO111111111111",
"111111111111111111111111111111Oo$$<<<<$$$$$$$$oO11111111111",
"111111111111111111111111111111Oo$<o<o<<$$$$$$$$oO1111111111",
"111111111111111111111111111111Oo$<ooo<<$$$$$$$$$oOOO1111111",
"1111111111111111111111111111111Oo<ooo<<$$$$$$$$$$oooOO11111",
"111111111111111111111111111111         o$$$$$$$$$o$$ooO1111",
"1111111111111111111111111111              o$$$$$$$$$$oO1111",
"111111111111111111111111111                  o$$$$$$$oO1111",
"11111111111111111111111111111111 O;;;;;;;*O       o$$oO1111",
"11111111111111111111111111111111 OO;;; O;;;;;;*OOO  OO 1111",
"1111111111111111111111111111111    ;;;  ;;;;;;;OO;;;;OO 111",
"111111111111111111111111111111 OOO ;;;  ;;;;;;*OO;;;;;O 111",
"1111111111++++++1111111111111 O*;;*;;;  ;;;;;OOOO;OO;;O 111",
"1111111++++++++++++111111111 O*;;;;;;;O ;;;;;OOOO;O;;;O 111",
"11111+++++:+::::+++++1111111 O;;;;;;;;;;;;;;;;OO;;;;;OO 111",
"1111+++->>>>>>>>-::+++111111 O;;;;;;;;;;;  ;;;;;;;;;OO 1111",
"111++:>>>>>>>>>>>>-:-++11111 O*;;;;;;;;;    ;;;;;;OO  11111",
"11++:->>>>>>>>>>>>>::-++11111 O*;;;;;;*     ;;;;;OO,ooO1111",
"11++:>>>>>>>>>>>>>>---++111111   O***O     ;;;;;OO,,,ooO111",
"11++-->>>>>>>>>>>>>::-++1111111           ;;;;OOOX,,,,,oO11",
"11.++::>->>>>->>>:-:-++.11111111        ;;;;OOO$$$X,,,,XoO1",
"11..%+:-:::::--:::-%+...1111111111    OOOOOOO$$$$$$X,,,,XX1",
"11..=%%+-:--:-%---+%%%..111111     ooooooXo$$$$$$$$X,,,,XXX",
"1..%==%=%%%%=%+%%==%%=..11111 @@@@@oo@@oo$$$$$$$o$$X,,,,,XX",
"1..===%=======+%===%==%..1111  #@@@@@<#$$$$$$$$oo$$X,,,,,XX",
"1..===%=======%%======&........@#<<<<<<$$$$$$$oo$$X,,,,,,XX",
"....======&===%=======&........@<<<<<<<<$$$$$ooXXX,,,,,,,XX",
"..=%+=====&===%===&===&.%%%%%%%@##<<<<<<<$$$oo,,,,,,,,,,,XX",
"..=%+=====%===%===&===&.%&&&&&&&@@<<<#<<<$$oo,,,,,,,,,,,XXX",
"..=%+=====%=======%==&&.+++++++@@<<<#<<<<<@o,,,,,,,,,,,,XXX",
"....======%=======%==&&.......@@<<<<<<#<<<@X,,,,,,,,,,,XXX1",
"1..&&=%===%&=====&%=&&&......@@<<<#<<#<<<@XXXXX,,,,,,,XXXX1",
"1..&&&%===%%=====%%&&&%..11 @@@<<#<<<<<<#   OXXXXXXXXXXXX11",
"1..%&&%&==%%====&%%&&%..1111  @@#<<#<<<#   OOO OOOOO     11",
"11..&&%%&&%%&&&&&%%&&+..111111 @##@##@@@  OOO OO**OOO O  11",
"11..&&%%&&%%&&&&&%%&--..111111 @@@@@@@    OOO OO**OOO O  11",
"11..--%%&&%%&&&&&%%--..11111111       11      OOOOOOO O  11",
"111..--%&&%%&&&&&---...11111111111111111   OO  OOOOOOOO  11",
"111...+----------+....1111111111111111111     OO*****    11",
"1111......+++++.....1111111111111111111111              111",
"1111111...........111111111111111111111111111        111111"
};
