/* XPM */
static char *result[] = {
/* columns rows colors chars-per-pixel */
"48 51 13 1 ",
"  c #181010",
". c #202028",
"X c #600000",
"o c #482010",
"O c gray25",
"+ c #686868",
"@ c #A81828",
"# c #A06830",
"$ c #C09830",
"% c #B88858",
"& c #2830C8",
"* c gray69",
"= c None",
/* pixels */
"======================oooo======================",
"================    ooXXXXoo    ==     =========",
"==============  OOOXXXX@@@XXOOOO  OOOOO ========",
"============= OO+++XX@@@@@OO+++OOO++++O ========",
"=============    +X@@***@O++++++++***+O ========",
"============       @*X**O++**********+O ========",
"============        XXXXO+*********+OOO ========",
"=============         X*O*********OOO  =========",
"==============o        *O********OO  ===========",
"==============oX        OO******OO =============",
"==============oX  %%     @@@@**OO ==============",
"===========      o%%%%   @@@@@@OXo==============",
"========== ooooo  %%%%%%X@@@@@@XXo==============",
"========= oo%%#o  %%%o %X@@@@@@X@o==============",
"======== oo%%%%%oo%%%  %X@@@@@XX@Xo=============",
"======== oo%%%%%%%%%o  %X@@@@@XX@XXo============",
"======== oo%%%%%%%%%  %%X@@@@@X@@@XXo===========",
"======== oo%%%%%%%%%o %%X@@@@@X@@@XXo===========",
"======== oo#%%%%%%%%%%%%X@@@@@X @@@Xo===========",
"========= oo#%%%%%%%%%%XX@@@@XX  @XXo===========",
"========== ooo%%%%%%%  X@@@@@Xoo XXo============",
"===========     %%     X@@@@@Xo%%o o============",
"============           X@@@@@X%%%%o ============",
"=============          X@@@@@Xoo%%o ============",
"==============        %X@@@@@Xo%%%o ============",
"===============ooo%%%%%X@@@@XX%%%oo ============",
"===============oXooo%%.X@@@@Xo%ooo =============",
"===============..XX@o..X@@@@Xoooo ==============",
"==============..X@@@@..@@@@@X@.. ===============",
"=============..X@@@@.&.@@@@@@@..================",
"=============........&&.@@@@@...================",
"============oo$&&&&&&&&&.....&..================",
"===========oo$$&&&&$$o&&&&&&&&..================",
"===========oo$$&&&$$$$&&&&&&&&..================",
"===========oo$o&&&$$$$&&&&&&&&..================",
"===========...&&&&&$$o&&&&&&&&..================",
"============..&&&&&&&&&&&&&&&&..================",
"============...&&&&&&&&&&&&&&&..================",
"=============..&&&&&&&&&&&&&&...================",
"==============..&&&&&&&&&&&&&..=================",
"============== ...&&&&&&&&&&...=================",
"=============   ......&&&&&&...=================",
"============   ooo.............=================",
"============  oooo oooo oooo   =================",
"============  ooo oooooo oooo  =================",
"============   oo ooooooo oo#  =================",
"=============     oooooooo##   =================",
"==============     oooo###    ==================",
"================   ####     ====================",
"=================         ======================",
"===================    ========================="
};
