/* XPM */
static char *result[] = {
/* columns rows colors chars-per-pixel */
"48 51 211 2 ",
"   c #250C0B",
".  c #2A0F0B",
"X  c #2D110D",
"o  c #33150E",
"O  c #3A170E",
"+  c #2C1216",
"@  c #3D1B13",
"#  c #351614",
"$  c #260E11",
"%  c #3C2017",
"&  c #32182E",
"*  c #3E2C2D",
"=  c #1D0909",
"-  c #431D12",
";  c #441E1A",
":  c #681F06",
">  c #5B240A",
",  c #4B2313",
"<  c #43241A",
"1  c #4B2C1D",
"2  c #4A261E",
"3  c #572816",
"4  c #4F301F",
"5  c #69240A",
"6  c #742109",
"7  c #7C230C",
"8  c #722D0F",
"9  c #662B14",
"0  c #772C14",
"q  c #6A3218",
"w  c #743B14",
"e  c #71371C",
"r  c #763814",
"t  c #6F350F",
"y  c #4D2C21",
"u  c #492427",
"i  c #5A2C25",
"p  c #522D22",
"a  c #5A3526",
"s  c #433234",
"d  c #4A3239",
"f  c #563736",
"g  c #4E2D2F",
"h  c #6B3A2D",
"j  c #663728",
"k  c #763929",
"l  c #632F39",
"z  c #693835",
"x  c #733D38",
"c  c #622D2B",
"v  c #7B4A1E",
"b  c #75441A",
"n  c #67442C",
"m  c #6F4132",
"M  c #764834",
"N  c #7D5436",
"B  c #342D6A",
"V  c #362E78",
"C  c #38316F",
"Z  c #3D3059",
"A  c #46335C",
"S  c #4A3047",
"D  c #703D40",
"F  c #4C3567",
"G  c #473779",
"H  c #54386D",
"J  c #6C6A5F",
"K  c #524477",
"L  c #4E4370",
"P  c #724875",
"I  c #686665",
"U  c #746D67",
"Y  c #767568",
"T  c #797971",
"R  c #980D0E",
"E  c #951B18",
"W  c #8E1311",
"Q  c #A21515",
"!  c #862B15",
"~  c #88341A",
"^  c #92331D",
"/  c #892513",
"(  c #A1301C",
")  c #8D243E",
"_  c #982936",
"`  c #943832",
"'  c #8F372E",
"]  c #A82523",
"[  c #A53529",
"{  c #A73935",
"}  c #B33A33",
"|  c #B32E26",
" . c #D21F30",
".. c #D42233",
"X. c #DB2B3C",
"o. c #D72838",
"O. c #DA343D",
"+. c #D3343A",
"@. c #CD2C34",
"#. c #98571A",
"$. c #86451A",
"%. c #95442C",
"&. c #895627",
"*. c #88473A",
"=. c #944533",
"-. c #865A3A",
";. c #945536",
":. c #8C5329",
">. c #A65232",
",. c #92673E",
"<. c #9D743E",
"1. c #8F613D",
"2. c #A9642E",
"3. c #B57934",
"4. c #C67D34",
"5. c #8E2745",
"6. c #DD2E43",
"7. c #DC3445",
"8. c #DB3B47",
"9. c #D23C58",
"0. c #E13D46",
"q. c #CC3868",
"w. c #CD3C73",
"e. c #925245",
"r. c #8D4F42",
"t. c #976A40",
"y. c #9E714F",
"u. c #A27942",
"i. c #806F63",
"p. c #AF5769",
"a. c #DD444A",
"s. c #D6475A",
"d. c #D95658",
"f. c #E04246",
"g. c #D84E67",
"h. c #DD636B",
"j. c #7F8074",
"k. c #BC8435",
"l. c #C18936",
"z. c #BE8645",
"x. c #80817D",
"c. c #CB9945",
"v. c #C69541",
"b. c #D5B359",
"n. c #D8AC64",
"m. c #D6B263",
"M. c #DAB165",
"N. c #DCB56A",
"B. c #DFB96E",
"V. c #D7B66C",
"C. c #DEB476",
"Z. c #DAAE71",
"A. c #E4B66B",
"S. c #E3B96D",
"D. c #E0B165",
"F. c #E3BD72",
"G. c #E2B975",
"H. c #E5C276",
"J. c #E7C479",
"K. c #E8C679",
"L. c #E8C577",
"P. c #3B3284",
"I. c #43378A",
"U. c #5B4082",
"Y. c #65458B",
"T. c #764D84",
"R. c #7C7C86",
"E. c #7F7EA5",
"W. c #443DEC",
"Q. c #4B44EE",
"!. c #4A44EA",
"~. c #584BEA",
"^. c #5C54EB",
"/. c #4D47F0",
"(. c #534CF1",
"). c #5A54F2",
"_. c #624EED",
"`. c #764EEA",
"'. c #6658E7",
"]. c #7553EA",
"[. c #635DF3",
"{. c #6965EA",
"}. c #7866E8",
"|. c #7B71E7",
" X c #AF7B82",
".X c #856BE3",
"XX c #848597",
"oX c #998A9A",
"OX c #9EA08B",
"+X c #B2AE99",
"@X c #8C88A4",
"#X c #B3B3A9",
"$X c #AE8599",
"%X c #DDBE98",
"&X c #DBBEA4",
"*X c #DEC19D",
"=X c #DCCCB5",
"-X c #D4CBB2",
";X c #D3D3BD",
":X c #D9D3BC",
">X c #DCC0A5",
",X c #E1CDB6",
"<X c #E3D2BD",
"1X c #DDDCCD",
"2X c #D9D8C6",
"3X c #DCDBD1",
"4X c #D7D8D2",
"5X c #E1DBCB",
"6X c #E0DAC7",
"7X c #E1DED0",
"8X c None",
/* pixels */
"8X8X8X8X8X8X8X8X8X8X8X8X8X8X8X8X8X8X8X~ ~ ^ ^ ^ 8X8X8X8X8X8X8X8X8X8X8X8X8X8X8X8X8X8X8X8X8X8X8X8X",
"8X8X8X8X8X8X8X8X8X8X8X8X8X8X8X8X8X0 ~ ~ ] ] ] ] ^ ! 8X8X8X8X8X8X8X8X8X8X8X8X8X8X8X8X8X8X8X8X8X8X",
"8X8X8X8X8X8X8X8X8X8X8X8X8X8X8X8X8X0 E ] 7.8.7.7.] ^ ! 0 8X8X8X8X8X8X8X8X8X8X8X8X8X8X8X8X8X8X8X8X",
"8X8X8X8X8X8X8X8X8X8X8X8X8X8X8X8X9 / 7.8.8.8.a.0.7.X.Q ! 7 8X8X8X8X8X8X8X8X8X8X8X8X8X8X8X8X8X8X8X",
"8X8X8X8X8X8X8X8X8X8X8X8X8X8X8X8X0 E +.-X=X=X,Xf.7.6.6.Q ! 7 8X8X8X8X8X8X8X8X8X8X8X8X8X8X8X8X8X8X",
"8X8X8X8X8X8X8X8X8X8X8X8X8X8X8X5 7 7.-X[ =X} ,X,X8.6.6...R 7 6 8X8X8X8X8X8X8X8X8X8X8X8X8X8X8X8X8X",
"8X8X8X8X8X8X8X8X8X8X8X8X8X8X8X9 W 7.-X[ { } <X,X8.6.6.o...R 7 6 8X8X8X8X8X8X8X8X8X8X8X8X8X8X8X8X",
"8X8X8X8X8X8X8X8X8X8X8X  . X O ; u ! ;X_ { } <X,X0.0.6.6.o...R 6 8X8X8X8X8X8X8X8X8X8X8X8X8X8X8X8X",
"8X8X8X8X8X8X8X8X8X8X=   . X # ; u i h x M <X<Xa.8.7.6.6.o...Q W 7 8X8X8X8X8X8X8X8X8X8X8X8X8X8X8X",
"8X8X8X8X8X8X8X8X8X8X8X  $ o # < u i h x x *.*.a.9.7.6.6.X... .R 7 8X8X8X8X8X8X8X8X8X8X8X8X8X8X8X",
"8X8X8X8X8X8X8X8X8X8X8X8X8X8X% 2 4 j n m M *.*.*.} 0.0.6.X.o...Q / 7 6 5 8X8X8X8X8X8X8X8X8X8X8X8X",
"8X8X8X8X8X8X8X8X8X8X8X8X8X8X8Xp b n.M.N.N.*.*.*.=.` | 0.6.X.o...R R R 6 5 8X8X8X8X8X8X8X8X8X8X8X",
"8X8X8X8X8X8X8X8X8X8X8X8X8X8X8Xa &.l.B.S.B.S.F.A.;.=.%.` | O.O.o.Q .. .W 5 5 8X8X8X8X8X8X8X8X8X8X",
"8X8X8X8X8X8X8X8X8X8X8X8X8Xy a n m N B.H.H.e.1.F.F.S.4.%.[ ' O.O.o.o...@.W 5 8X8X8X8X8X8X8X8X8X8X",
"8X8X8X8X8X8X8X8X8X8X8X8X1 v &.&.N 1.F.H.F.t.y.F.F.F.A.A.l.%.' | O.o.@.@.W 6 8X8X8X8X8X8X8X8X8X8X",
"8X8X8X8X8X8X8X8X8X8X8X1 v v.M.B.k.,.H.H.G.u.3.F.L.L.L.S.A.D.>.%.%.( +.+.E 8 8X8X8X8X8X8X8X8X8X8X",
"8X8X8X8X8X8X8X8X8X8X% b l.m.B.F.K.K.K.K.K.k.u.K.K.J.H.H.H.S.2.2.%.:.( ( ~ t 8X8X8X8X8X8X8X8X8X8X",
"8X8X8X8X8X8X8X8X8X8X% b N.N.B.H.K.K.K.K.K.c.z.K.K.J.J.K.3.3.3.2.A.D.A.D.$.3 8X8X8X8X8X8X8X8X8X8X",
"8X8X8X8X8X8X8X8X8X8X1 b m.B.S.H.J.K.K.K.H.L.L.L.K.K.K.K.k.k.3.A.H.A.A.D.n.r , 8X8X8X8X8X8X8X8X8X",
"8X8X8X8X8X8X8X8X8X8X% v l.N.B.H.H.K.K.K.H.H.H.<.<.K.K.K.%Xl.l.H.S.l.k.M.n.b < 8X8X8X8X8X8X8X8X8X",
"8X8X8X8X8X8X8X8X8X8X8X4 v c.V.B.B.H.H.F.F.F.,.,.,.<.L.K.L.L.L.L.H.l.M.M.m.w < 8X8X8X8X8X8X8X8X8X",
"8X8X8X8X8X8X8X8X8X8X8X8Xp v c.V.V.V.B.V.-.N J r.,.<.L.L.L.L.L.L.H.S.M.m.b 1 @ 8X8X8X8X8X8X8X8X8X",
"8X8X8X8X8X8X8X8X8X8X8X8X8X1 a n n n N M N N N r.k.J.H.L.H.H.H.H.H.m.m.v 4 < 8X8X8X8X8X8X8X8X8X8X",
"8X8X8X8X8X8X8X8X8X8X8X8X8X8X1 y a a n n n M N N B.H.S.H.H.H.H.D.&.&.v 4 2 8X8X8X8X8X8X8X8X8X8X8X",
"8X8X8X8X8X8X8X8X8X8X8X8X8X8X8X< y y i j h h N.C.C.G.G.G.G.A.;.&.n a 4 8X8X8X8X8X8X8X8X8X8X8X8X8X",
"8X8X8X8X8X8X8X8X8X8X8X8X8X8X8X8X8Xu e >.n.Z.Z.C.C.C.C.v.;.;.m j 8X8X8X8X8X8X8X8X8X8X8X8X8X8X8X8X",
"8X8X8X8X8X8X8X8X8X8X8X8X8X8X8X8X8X8Xp k x *.*.r.e.e.e.e.M z 8X8X8X8X8X8X8X8X8X8X8X8X8X8X8X8X8X8X",
"8X8X8X8X8X8X8X8X8X8X8X8X8X8X8X8X8X8XA F ) 5.9.g.P ].].P _ *.8X8X8X8X8X8X8X8X8X8X8X8X8X8X8X8X8X8X",
"8X8X8X8X8X8X8X8X8X8X8X8X8X8X8X8X8XA A ) q.q.q.P `.`.`.P 9._ ' 8X8X8X8X8X8X8X8X8X8X8X8X8X8X8X8X8X",
"8X8X8X8X8X8X8X8X8X8X8X8X8X8X8X8XA F ) q.q.w.Y.`.`.`.T.s.9.9._ k 8X8X8X8X8X8X8X8X8X8X8X8X8X8X8X8X",
"8X8X8X8X8X8X8X8X8X8X8X8X8X8X8XZ A F G I.Y.Y._.].`.`.T.g.s.9.8._ k 8X8X8X8X8X8X8X8X8X8X8X8X8X8X8X",
"8X8X8X8X8X8X8X8X8X8X8X8X8X8Xi z b.~._.`._.'.].].].].T.h.g.d.d.` ` M 8X8X8X8X8X8X8X8X8X8X8X8X8X8X",
"8X8X8X8X8X8X8X8X8X8X8X8X8Xp j b.m.^.^._.'.%X%Xp.|.}..Xp.h.h.h.d.>.i.f 8X8X8X8X8X8X8X8X8X8X8X8X8X",
"8X8X8X8X8X8X8X8X8X8X8X8X8Xa f b.M.~._.'.%X%X*X*X|..XoX3X6X6X5X6X2X;XY s 8X8X8X8X8X8X8X8X8X8X8X8X",
"8X8X8X8X8X8X8X8X8X8X8X8X8Xi z b.y.^.).^.%X%X>X*X|.oXoX7X7X6X6X6X2X:XY f 8X8X8X8X8X8X8X8X8X8X8X8X",
"8X8X8X8X8X8X8X8X8X8X8X8X8X8XB C !./.~.).'.*X>X$X|.@X3X7X7X7X7X6X+X:X;XJ s 8X8X8X8X8X8X8X8X8X8X8X",
"8X8X8X8X8X8X8X8X8X8X8X8X8X8XB C W.Q./.(.~.[.'.{.}.@X4X4X3X3X#X1X+X2X;XJ * 8X8X8X8X8X8X8X8X8X8X8X",
"8X8X8X8X8X8X8X8X8X8X8X8X8X8X8XC P.W.Q./.(.).[.[.{.@X4X4X7X7X#X1X6X;X;XJ * 8X8X8X8X8X8X8X8X8X8X8X",
"8X8X8X8X8X8X8X8X8X8X8X8X8X8X8XB V W.W.Q./.(.).).[.E.XX#X3X1X1X2X2X;XY I * 8X8X8X8X8X8X8X8X8X8X8X",
"8X8X8X8X8X8X8X8X8X8X8X8X8X8X8X8XB P.W.W.Q.Q.(.~.).{.XXXX4X2X2X2XOXj.J * 8X8X8X8X8X8X8X8X8X8X8X8X",
"8X8X8X8X8X8X8X8X8X8X8X8X8X8X8X8X8XP.P.P.W.W.W._.).^.[.R.R.j.j.T Y U s 8X8X8X8X8X8X8X8X8X8X8X8X8X",
"8X8X8X8X8X8X8X8X8X8X8X8X8X8X8X8X& & B V P.I.I._.~.~.^._.{.[.U I S s 8X8X8X8X8X8X8X8X8X8X8X8X8X8X",
"8X8X8X8X8X8X8X8X8X8X8X8X8X8X8X+ & & l l G G I.I.G K K K L L F d 8X8X8X8X8X8X8X8X8X8X8X8X8X8X8X8X",
"8X8X8X8X8X8X8X8X8X8X8X8X8X8X$ + + 3 i c l & l D D D x S d d s * 8X8X8X8X8X8X8X8X8X8X8X8X8X8X8X8X",
"8X8X8X8X8X8X8X8X8X8X8X8X8X8X$ X > > 3 i u c h z.z.h h h s j 9 % % 8X8X8X8X8X8X8X8X8X8X8X8X8X8X8X",
"8X8X8X8X8X8X8X8X8X8X8X8X8X8X. + > > 5 9 ; q e v.z.k k k y q 3 # + 8X8X8X8X8X8X8X8X8X8X8X8X8X8X8X",
"8X8X8X8X8X8X8X8X8X8X8X8X8X8X  . X o O ; ; 9 t w e r q t < > 3 o o 8X8X8X8X8X8X8X8X8X8X8X8X8X8X8X",
"8X8X8X8X8X8X8X8X8X8X8X8X8X8X  . X > > 5 ; , t w w w t t #.#.k.o X 8X8X8X8X8X8X8X8X8X8X8X8X8X8X8X",
"8X8X8X8X8X8X8X8X8X8X8X8X8X8X8X. X o O - - #.l.l.l.l.k.#.#.@ @ o 8X8X8X8X8X8X8X8X8X8X8X8X8X8X8X8X",
"8X8X8X8X8X8X8X8X8X8X8X8X8X8X8X8X. X o O - - , , 3 , > , , O O 8X8X8X8X8X8X8X8X8X8X8X8X8X8X8X8X8X",
"8X8X8X8X8X8X8X8X8X8X8X8X8X8X8X8X8X8X8X8Xo - - , , > , , - 8X8X8X8X8X8X8X8X8X8X8X8X8X8X8X8X8X8X8X"
};
