/* XPM */
static char *result[] = {
/* columns rows colors chars-per-pixel */
"48 48 95 2 ",
"   c #08C608",
".  c #00C600",
"X  c #00BD00",
"o  c #00B500",
"O  c #08C600",
"+  c #08BD08",
"@  c #08BD00",
"#  c #00CE00",
"$  c #10CE08",
"%  c #10C608",
"&  c #21CE18",
"*  c #18C610",
"=  c #18CE10",
"-  c #29D621",
";  c #31D621",
":  c #39D629",
">  c #29CE18",
",  c #10D608",
"<  c #08CE00",
"1  c #04BE04",
"2  c #48C948",
"3  c #93E693",
"4  c #CBF3CB",
"5  c #EBF9EB",
"6  c white",
"7  c #EBFBEB",
"8  c #CCF3CB",
"9  c #93EA93",
"0  c #48DB48",
"q  c #0BCE04",
"w  c #0CB80C",
"e  c #80DA80",
"r  c #ECFBEB",
"t  c #87E683",
"y  c #0CC00C",
"u  c #50CC50",
"i  c #E3F6E3",
"p  c #E3F8E3",
"a  c #50D750",
"s  c #0BBE04",
"d  c #96E393",
"f  c #93E393",
"g  c #21CE10",
"h  c #B0E9AD",
"j  c #ADE9AB",
"k  c #24CE13",
"l  c #10BD08",
"z  c #08B500",
"x  c #21BD10",
"c  c #99DF96",
"v  c #A0EA99",
"b  c #10B508",
"n  c #5ACC55",
"m  c #5ECD59",
"M  c #E4F6E3",
"N  c #E8F8E7",
"B  c #17C110",
"V  c #80DE80",
"C  c #57D651",
"Z  c #99E696",
"A  c #A4EDA0",
"S  c #CFF3CE",
"D  c #CFF5CE",
"F  c #39DE29",
"G  c #F0FBEF",
"H  c #CFF2CF",
"J  c #D2F4D0",
"K  c #97E497",
"L  c #A0E79D",
"P  c #50D150",
"I  c #08BF08",
"U  c #EFFBEF",
"Y  c #F0FBF0",
"T  c #8AE487",
"R  c #87E487",
"E  c #14CA14",
"W  c #EFFAEF",
"Q  c #68D668",
"!  c #64D664",
"~  c #A3E7A3",
"^  c #ABE9AB",
"/  c #ABECAB",
"(  c #04C604",
")  c #A3EAA3",
"_  c #64DC64",
"`  c #14BA14",
"'  c #87DC87",
"]  c #8AE48A",
"[  c #97E797",
"{  c #CFF4CF",
"}  c #9AE79A",
"|  c #5ADD55",
" . c #0FC70F",
".. c #18BD10",
"X. c #08AD08",
/* pixels */
"  . X X X X o X X O . + @ X X @ X X X X . . . # . X X . . . X X   . X X X X o X X O . + @ X X @ ",
"X X . X X X X X . $ % . X X X X o o o X X . # . X . . . X X o X X X . X X X X X . $ % . X X X X ",
"o . . X X O X & * * . X X X @ X X o X X o . # X . O X . X X X X o . . X X O X & * * . X X X @ X ",
"X . X . $ $ & & & . =   . . X X X X X X X . . .   . . X % X   . X . X . $ $ & & & . =   . . X X ",
".   . = & & - & O & - # . . X X X X X X . . .   O . X X     $ . .   . = & & - & O & - # . . X X ",
"  = & ; = : ;   $ ; $ . . . . X o o X X . .     . . X   O $   .   = & ; = : ;   $ ; $ . . . . X ",
"= = ; & & ; = . - & . . . . . X X X X . . .   . . . .   $   . $ = = ; & & ; = . - & . . . . . X ",
"= = - = > > X * - . . . X X X o o X X . X . O . # . $ $ , # < = = = - = > > X * - . . . X X X o ",
"$ & = = > . @ & % X X X o o o o o o . X X . . # . < $ <   < , , $ & = = > . @ & % X X X o o o o ",
"O = # = $ X X X X X X X o o o o o X 1 2 3 4 5 6 6 7 8 9 0 q = . O = # = $ X X X X X X X o o o o ",
"  # . . X X o X X @ X o o o X X w e 5 6 6 6 6 6 6 6 6 6 6 r t y   # . . X X o X X @ X o o o X X ",
". X . X . X X X X @ X o o o @ u i 6 6 6 6 6 6 6 6 6 6 6 6 6 6 p a X . X . X X X X @ X o o o @ o ",
"X X X @ * X + @ @ @ o o o s d 6 6 6 6 6 6 6 6 6 6 6 6 6 6 6 6 6 6 f 1 @ * X + @ @ @ o o o @ @ o ",
"X . @ g % @ * X @ X o o 1 h 6 6 6 6 6 6 6 6 6 6 6 6 6 6 6 6 6 6 6 6 j k % @ * X @ X o o X l z o ",
"X . x g X x + X @ o o o c 6 6 6 6 6 6 6 6 6 6 6 6 6 6 6 6 6 6 6 6 6 6 v X x + X @ o o o b @ X b ",
". @ * @ b * X @ @ o X n 6 6 6 6 6 6 6 6 6 6 6 6 6 6 6 6 6 6 6 6 6 6 6 6 m * X @ @ o X b b X @ * ",
"X z X z l @ X @ z o y M 6 6 6 6 6 6 6 6 6 6 6 6 6 6 6 6 6 6 6 6 6 6 6 6 N B X @ z o X b @ X * . ",
"X X o z X X . @ @ . V 6 6 6 6 6 6 6 6 6 6 6 6 6 6 6 6 6 6 6 6 6 6 6 6 6 6 V . @ @ . X @ X % + X ",
"X X X X X X @ x & 1 5 6 6 6 6 6 6 6 6 6 6 6 6 6 6 6 6 6 6 6 6 6 6 6 6 6 6 5 s x & X @ @ % % + + ",
". X X X X X % - O 2 6 6 6 6 6 6 6 6 6 6 6 6 6 6 6 6 6 6 6 6 6 6 6 6 6 6 6 6 C - O o + % % + % * ",
"$ . X o X O - $ X Z 6 6 6 6 6 6 6 6 6 6 6 6 6 6 6 6 6 6 6 6 6 6 6 6 6 6 6 6 A $ X % % % + O * = ",
", # X X X g = X % S 6 6 6 6 6 6 6 6 6 6 6 6 6 6 6 6 6 6 6 6 6 6 6 6 6 6 6 6 D X % * + + % $ g % ",
"< X   O + + X   * 5 6 6 6 6 6 6 6 6 6 6 6 6 6 6 6 6 6 6 6 6 6 6 6 6 6 6 6 6 5   * @ @ %   & % X ",
". = F * * X X * @ 6 6 6 6 6 6 6 6 6 6 6 6 6 6 6 6 6 6 6 6 6 6 6 6 6 6 6 6 6 6 * @ @ + @ % @ + * ",
"& F $ * X X * . X 6 6 6 6 6 6 6 6 6 6 6 6 6 6 6 6 6 6 6 6 6 6 6 6 6 6 6 6 6 6 . X @ X X . + * $ ",
"F . * :   % % X X 5 6 6 6 6 6 6 6 6 6 6 6 6 6 6 6 6 6 6 6 6 6 6 6 6 6 6 6 6 G X X X X . + %   % ",
"#   F & * % % + X H 6 6 6 6 6 6 6 6 6 6 6 6 6 6 6 6 6 6 6 6 6 6 6 6 6 6 6 6 J + X X . + @ + % * ",
"  ; & $ %   * X X K 6 6 6 6 6 6 6 6 6 6 6 6 6 6 6 6 6 6 6 6 6 6 6 6 6 6 6 6 L X X X . X @ % %   ",
"= &   * O * . X X P 6 6 6 6 6 6 6 6 6 6 6 6 6 6 6 6 6 6 6 6 6 6 6 6 6 6 6 6 a X X X X X % % % * ",
"$ = & % % * X X X I U 6 6 6 6 6 6 6 6 6 6 6 6 6 6 6 6 6 6 6 6 6 6 6 6 6 6 Y I X X X . O + % % % ",
"$ & = . O . . X X . T 6 6 6 6 6 6 6 6 6 6 6 6 6 6 6 6 6 6 6 6 6 6 6 6 6 6 R . X X . O . X @ % + ",
"& = . X . . X X X . E W 6 6 6 6 6 6 6 6 6 6 6 6 6 6 6 6 6 6 6 6 6 6 6 6 U E X X X . . X @ @ . % ",
"  . X X X X o X X O . Q 6 6 6 6 6 6 6 6 6 6 6 6 6 6 6 6 6 6 6 6 6 6 6 6 ! X o X X O . + @ X X @ ",
"X X . X X X X X . $ % . ~ 6 6 6 6 6 6 6 6 6 6 6 6 6 6 6 6 6 6 6 6 6 6 ~ X X X X . $ % . X X X X ",
"o . . X X O X & * * . X 1 ^ 6 6 6 6 6 6 6 6 6 6 6 6 6 6 6 6 6 6 6 6 / 1 X O X & * * . X X X @ X ",
"X . X . $ $ & & & . =   . ( ~ 6 6 6 6 6 6 6 6 6 6 6 6 6 6 6 6 6 6 ) 1 . $ $ & & & . =   . . X X ",
".   . = & & - & O & - # . . X ! W 6 6 6 6 6 6 6 6 6 6 6 6 6 6 U _   . = & & - & O & - # . . X X ",
"  = & ; = : ;   $ ; $ . . . . X ` ' W 6 6 6 6 6 6 6 6 6 6 G ] E   = & ; = : ;   $ ; $ . . . . X ",
"= = ; & & ; = . - & . . . . . X X X I a [ { U 6 6 U { } |  .. $ = = ; & & ; = . - & . . . . . X ",
"= = - = > > X * - . . . X X X o o X X . X . O . # . $ $ , # < = = = - = > > X * - . . . X X X o ",
"$ & = = > . @ & % X X X o o o o o o . X X . . # . < $ <   < , , $ & = = > . @ & % X X X o o o o ",
"O = # = $ X X X X X X X o o o o o X X o . . X . X # O # # < = . O = # = $ X X X X X X X o o o o ",
"  # . . X X o X X @ X o o o X X o o o o . X X X X . X . # $ $ X   # . . X X o X X @ X o o o X X ",
". X . X . X X X X @ X o o o @ o o o o X . o X o X X . X . $ . . . X . X . X X X X @ X o o o @ o ",
"X X X @ * X + @ @ @ o o o @ @ o o z o o X z o o X o X X % $ . . X X X @ * X + @ @ @ o o o @ @ o ",
"X . @ g % @ * X @ X o o X l z o b l o X z z o z X z z . * . . . X . @ g % @ * X @ X o o X l z o ",
"X . x g X x + X @ o o o b @ X b ..o o z z o o X X z X   * X $ . X . x g X x + X @ o o o b @ X b ",
". @ * @ b * X @ @ o X b b X @ * X o z o o o X.X o z . * . + > @ . @ * @ b * X @ @ o X b b X @ * "
};
