/* XPM */
static char *result[] = {
/* columns rows colors chars-per-pixel */
"48 48 92 1 ",
"  c #08C608",
". c #00C600",
"X c #00BD00",
"o c #00B500",
"O c #08C600",
"+ c #08BD08",
"@ c #08BD00",
"# c #00CE00",
"$ c #10CE08",
"% c #10C608",
"& c #21CE18",
"* c #18C610",
"= c #18CE10",
"- c #29D621",
"; c #31D621",
": c #39D629",
"> c #29CE18",
", c #10D608",
"< c #08CE00",
"1 c #16C203",
"2 c #49D40B",
"3 c #49D90B",
"4 c #51DA0C",
"5 c #5ADA12",
"6 c #1ED103",
"7 c #4DCE0E",
"8 c #A0DF39",
"9 c #F1F436",
"0 c #FFF729",
"q c #F1F536",
"w c #A0E838",
"e c #55DA0F",
"r c #2FD212",
"t c #58CB15",
"y c #E5F13A",
"u c #EAF438",
"i c #58D115",
"p c #1FCA0B",
"a c #1DC203",
"s c #BFE737",
"d c #BFEB37",
"f c #16BA03",
"g c #54CF0F",
"h c #F0F437",
"j c #21CE10",
"k c #72DC1A",
"l c #10BD08",
"z c #08B500",
"x c #21BD10",
"c c #F3F435",
"v c #F6F533",
"b c #10B508",
"n c #C6E838",
"m c #C9E938",
"M c #2FCA12",
"N c #65D318",
"B c #16CA03",
"V c #E6F23A",
"C c #ADE73C",
"Z c #F3F534",
"A c #F8F631",
"S c #26D10B",
"D c #5AD512",
"F c #49CD0B",
"G c #65D618",
"H c #53D412",
"J c #39DE29",
"K c #4ECD0B",
"L c #52CE11",
"P c #F2F435",
"I c #A9E43C",
"U c #A9E73C",
"Y c #52CF11",
"T c #EBF338",
"R c #EAF339",
"E c #64D91B",
"W c #D4ED3A",
"Q c #D0ED3A",
"! c #F8F532",
"~ c #4DD40E",
"^ c #F8F632",
"/ c #D2EF3A",
"( c #62CE1B",
") c #EAF239",
"_ c #ECF338",
"` c #F2F535",
"' c #F4F534",
"] c #B1EA3D",
"[ c #5CD617",
"{ c #50D40C",
"} c #18BD10",
"| c #08AD08",
/* pixels */
" .XXXXoXXO.+@XX@XXXX...#.XX...XX .XXXXoXXO.+@XX@",
"XX.XXXXX.$%.XXXXoooXX.#.X...XXoXXX.XXXXX.$%.XXXX",
"o..XXOX&**.XXX@XXoXXo.#X.OX.XXXXo..XXOX&**.XXX@X",
"X.X.$$&&&.= ..XXXXXXX... ..X%X .X.X.$$&&&.= ..XX",
". .=&&-&O&-#..XXXXXX... O.XX  $.. .=&&-&O&-#..XX",
" =&;=:; $;$....XooXX..  ..X O$ . =&;=:; $;$....X",
"==;&&;=.-&.....XXXX... .... $ .$==;&&;=.-&.....X",
"==-=>>X*-...XXXooXX.X.O.#.$$,#<===-=>>X*-...XXXo",
"$&==>.@&%XXXoooooo.X12232456 <,,$&==>.@&%XXXoooo",
"O=#=$XXXXXXXooooo1789000000qwer.O=#=$XXXXXXXoooo",
" #..XXoXX@XoooX1ty000000000000uip#..XXoXX@XoooXX",
".X.X.XXXX@Xoooas0000000000000000d1.X.XXXX@Xooo@o",
"XXX@*X+@@@oofg9000000000000000000h7a*X+@@@ooo@@o",
"X.@j%@*X@Xoo70000000000000000000000k%@*X@XooXlzo",
"X.xjXx+X@oofc0000000000000000000000v1x+X@ooob@Xb",
".@*@b*X@@o1n000000000000000000000000mMX@@oXbbX@*",
"XzXzl@X@zoi00000000000000000000000000NX@zoXb@X*.",
"XXozXX.@@BV00000000000000000000000000VB@@.X@X%+X",
"XXXXXX@x&70000000000000000000000000000gx&X@@%%++",
".XXXXX%-O80000000000000000000000000000C-Oo+%%+%*",
"$.XoXO-$1Z0000000000000000000000000000ASX%%%+O*=",
",#XXXj=XD000000000000000000000000000000F%*++%$j%",
"<X O++X G000000000000000000000000000000H*@@% &%X",
".=J**XX*K000000000000000000000000000000G@@+@%@+*",
"&J$*XX*.F0000000000000000000000000000002X@XX.+*$",
"J.*: %%XF000000000000000000000000000000FXXX.+% %",
"# J&*%%+F000000000000000000000000000000LXX.+@+%*",
" ;&$% *X1P0000000000000000000000000000v1XX.X@%% ",
"=& *O*.XXI0000000000000000000000000000UXXXXX%%%*",
"$=&%%*XXXY0000000000000000000000000000YXXX.O+%%%",
"$&=.O..XXBT00000000000000000000000000RBXX.O.X@%+",
"&=.X..XXX.E00000000000000000000000000EXXX..X@@.%",
" .XXXXoXXOBW000000000000000000000000Q1oXXO.+@XX@",
"XX.XXXXX.$%B!0000000000000000000000!1XXX.$%.XXXX",
"o..XXOX&**.X700000000000000000000007XOX&**.XXX@X",
"X.X.$$&&&.= B~!000000000000000000^7B$$&&&.= ..XX",
". .=&&-&O&-#..1Q0000000000000000/p.=&&-&O&-#..XX",
" =&;=:; $;$....1()000000000000_Ep=&;=:; $;$....X",
"==;&&;=.-&.....XX1YU`000000'][B$==;&&;=.-&.....X",
"==-=>>X*-...XXXooXX.12{2325S,#<===-=>>X*-...XXXo",
"$&==>.@&%XXXoooooo.XX..#.<$< <,,$&==>.@&%XXXoooo",
"O=#=$XXXXXXXoooooXXo..X.X#O##<=.O=#=$XXXXXXXoooo",
" #..XXoXX@XoooXXoooo.XXXX.X.#$$X #..XXoXX@XoooXX",
".X.X.XXXX@Xooo@ooooX.oXoXX.X.$...X.X.XXXX@Xooo@o",
"XXX@*X+@@@ooo@@oozooXzooXoXX%$..XXX@*X+@@@ooo@@o",
"X.@j%@*X@XooXlzobloXzzozXzz.*...X.@j%@*X@XooXlzo",
"X.xjXx+X@ooob@Xb}oozzooXXzX *X$.X.xjXx+X@ooob@Xb",
".@*@b*X@@oXbbX@*Xozooo|Xoz.*.+>@.@*@b*X@@oXbbX@*"
};
