/* XPM */
static char *result[] = {
/* columns rows colors chars-per-pixel */
"42 51 13 1 ",
"  c #181010",
". c #202028",
"X c #600000",
"o c #482010",
"O c gray25",
"+ c #686868",
"@ c #A81828",
"# c #A06830",
"$ c #C09830",
"% c #B88858",
"& c #2830C8",
"* c gray69",
"= c None",
/* pixels */
"================   =======================",
"==============  ooo  =====================",
"============= o#%%#oo ====================",
"============ o#%%%%%#o ===================",
"============ o%%%%%%%o ===================",
"============ o%%%%%%%%o ==================",
"============ o%%%%%%%%o ==================",
"==========   o%%%%%%%%o == ===============",
"=========    o#%%%%%%%o    ===============",
"========    ooo%%%%%%%oo   ===============",
"=======     ooo#%%%%%#      ==============",
"=======      oo####        o   ===========",
"======                    ooooo ==========",
"======     o        ##   %%oo%oo =========",
"=====     oo       o%%%%%%%%oo%o =========",
"=====     #%%    oo%%%%%%%%%%o%o =========",
"=====    oo%%%%%%%%%%X@#%%%%%o%o =========",
"=====   ooooo%%%%%%%XX@@#%%%%ooo =========",
"=====  oo%ooo%%%%%%%XX@@@%%%%oo ==========",
"===== oo%%%o%%%%%%%%XXX@X%%%%o ===========",
"===== oo%%%%%%%%%%%%XXXXX%%%#o ===========",
"===== oo%%%%%%%%%%%%%XXX%%%%o ============",
"====== o%%%%%%%%%%%%%%%%%%%%o ============",
"====== oo%%%#%%%%%%%%%%%%%%o =============",
"======= oo##o#%%%%%%%%%%%%o ==============",
"========  oooo##%%%%%%%%oo ===============",
"===    ====     ....XXXXXo....====    ====",
"== OOOO     ooo....&...@@@@o.....       ==",
"== O***+OOO XXXXX@@.&&&......&$.  oooo   =",
"=  O++******@@@@@@@@.&&&&&&&&&$$ ooooo#o  ",
" O******+++*@@@@@@@@.&&o$$&&&&o$ ooooo#o  ",
"  O+++*******@@@@XX@.&&$$$$&&&&o oooo#oo  ",
" O******+++**@@XXX@.&&&$$$$&&&&&. ooo#oo  ",
" OOOO++******XXXX..&&&&o$$&&&&&&.  oo#oo  ",
"=  O+*******+  ..&&&&&&&&&&&&&&&.oooo#oo  ",
"= O*********O =..&&&&&&&&&&&&&&&.ooo#oo  =",
"= O***+++***O =..&&&&&&&&&&&&&&.oooo#oo  =",
"= OOO   O+**O ==..&&&&&&&&&&&&&.oooo#oo  =",
"==   === O**O ==..&&&&&&&&&&&&. ooooooo  =",
"========= OO ===  .&&&&&&&&&...   o oo  ==",
"==========  ====  #.&&&&&&&...==        ==",
"================  #o.&&&&&..======     ===",
"================  #oo     .===============",
"================  oo oooo  ===============",
"================  #ooooooo  ==============",
"================  #ooooooo  ==============",
"================  o#oooooo  ==============",
"=================  #oooooo  ==============",
"=================   ooooo   ==============",
"==================         ===============",
"====================      ================"
};
