/* XPM */
static char *result[] = {
/* columns rows colors chars-per-pixel */
"48 48 12 1 ",
"  c #181010",
". c #202028",
"X c #600000",
"o c #482010",
"O c gray25",
"+ c #686868",
"@ c #A81828",
"# c #A06830",
"$ c #B88858",
"% c #2830C8",
"& c gray69",
"* c None",
/* pixels */
"************************************************",
"****************ooooo***************************",
"**************ooXXXXXoo*************************",
"*************oXXX@@@@XXoo***********************",
"************oXX@@@@@@@@Xoo**********************",
"************oX@@@@@@@@@@@Xo*********************",
"***********oXX@@@@@@@@@@@@Xo********************",
"***********oX@@&&&&@@@@@@@@Xo*******************",
"***********oX@&X&X&&@@@@@@@@Xo******************",
"***********oX@&XXX&&@@@@@@@@@Xooo***************",
"************oX&XXX&&@@@@@@@@@@XXXoo*************",
"**********          X@@@@@@@@@X@@XXo************",
"********               X@@@@@@@@@@Xo************",
"*********                 X@@@@@@@Xo************",
"************* o$$$$$$$#o       X@@Xo************",
"************* oo$$$ o$$$$$$#ooo  oo ************",
"************    $$$  $$$$$$$oo$$$$oo ***********",
"*********** ooo $$$  $$$$$$#oo$$$$$o ***********",
"********** o#$$#$$$  $$$$$oooo$oo$$o ***********",
"********* o#$$$$$$$o $$$$$oooo$o$$$o ***********",
"********* o$$$$$$$$$$$$$$$$oo$$$$$oo ***********",
"********* o$$$$$$$$$$$  $$$$$$$$$oo ************",
"********* o#$$$$$$$$$    $$$$$$oo  *************",
"********** o#$$$$$$#     $$$$$ooXXoo************",
"***********  o#$$#o     $$$$$o%%%@XXo***********",
"************           $$$$oo..%%%%@Xo**********",
"*************        $$$$oooX@@.%%%%%Xo*********",
"***************    oooooooX@@@@@.%%%%%..********",
"************     XXXXXX.X@@@@@@@.%%%%%..********",
"*********** OOOOOXXOOXX@@@@@@@@@.%%%%%%..*******",
"********** O++OOOOO&+@@@@@@@X@@@.%%%%%%..*******",
"********** O+O+&&&&&&@@@@@@X@@@.%%%%%%%..*******",
"********** O+O&&&&&&&&@@@@XX...%%%%%%%%..*******",
"********** OOO++&&&&&&&@@XX%%%%%%%%%%%%..*******",
"********** OOOOO&&&+&&&@XX%%%%%%%%%%%%%..*******",
"********* OO+OO&&&+&&&&&O%%%%%%%%%%%%%..********",
"********* O+OO&&&&&&+&&&O.%%%%%%%%%%%%..********",
"********* O+O&&&+&&+&&&O.....%%%%%%%%..*********",
"********* OOO&&+&&&&&&+   o............*********",
"**********  OO+&&+&&&+   ooo ooooo    **********",
"************ O++O++OOO  ooo ooo##oo o  *********",
"************ OOOOOOO    ooo ooo##oo o  *********",
"*************       **      ooooooo o  *********",
"**********************   oo  oooooooo  *********",
"***********************     oo#####    *********",
"************************              **********",
"***************************        *************",
"************************************************"
};
