/* XPM */
static char *result[] = {
/* columns rows colors chars-per-pixel */
"48 51 219 2 ",
"   c #2B1C1B",
".  c #271918",
"X  c #301E1B",
"o  c #34211C",
"O  c #3C251D",
"+  c #2C1E25",
"@  c #2D2222",
"#  c #322423",
"$  c #382928",
"%  c #342537",
"&  c #3D3636",
"*  c #4D2F1F",
"=  c #65351E",
"-  c #632E1E",
";  c #442A23",
":  c #4A2E24",
">  c #462E2B",
",  c #4B3125",
"<  c #4B332C",
"1  c #473227",
"2  c #573629",
"3  c #423B39",
"4  c #493634",
"5  c #5A3A32",
"6  c #462E39",
"7  c #7A2E25",
"8  c #673527",
"9  c #763929",
"0  c #683B36",
"q  c #753E33",
"w  c #7E1513",
"e  c #74411F",
"r  c #4A453C",
"t  c #4A443E",
"y  c #564237",
"u  c #5D412F",
"i  c #784628",
"p  c #7D512A",
"a  c #684536",
"s  c #7C493C",
"d  c #754639",
"f  c #75543A",
"g  c #383558",
"h  c #3D2C45",
"j  c #3B3968",
"k  c #47344B",
"l  c #56394B",
"z  c #4C3351",
"x  c #6A3D48",
"c  c #6E3F4B",
"v  c #443D68",
"b  c #523C6E",
"n  c #544946",
"m  c #5B584C",
"M  c #5B4255",
"N  c #49475F",
"B  c #764747",
"V  c #795745",
"C  c #744754",
"Z  c #6D544F",
"A  c #676256",
"S  c #746758",
"D  c #7C735A",
"F  c #4A426F",
"G  c #4C4479",
"H  c #524678",
"J  c #735178",
"K  c #705068",
"L  c #747667",
"P  c #6D6F62",
"I  c #851A19",
"U  c #99161B",
"Y  c #9B1C23",
"T  c #881723",
"R  c #882B22",
"E  c #982927",
"W  c #863629",
"Q  c #9B3029",
"!  c #943334",
"~  c #A32627",
"^  c #A7382C",
"/  c #B83A2A",
"(  c #B12D34",
")  c #C9333E",
"_  c #86592D",
"`  c #874435",
"'  c #865839",
"]  c #895231",
"[  c #88643D",
"{  c #946438",
"}  c #9E7439",
"|  c #AF6F39",
" . c #A4573A",
".. c #C35435",
"X. c #BE3448",
"o. c #CD2F43",
"O. c #CD3647",
"+. c #D23C4C",
"@. c #D23646",
"#. c #CC3556",
"$. c #C83355",
"%. c #C63966",
"&. c #845944",
"*. c #854B59",
"=. c #8C5246",
"-. c #8A6646",
";. c #926B42",
":. c #987844",
">. c #9A7A55",
",. c #AA7F44",
"<. c #B1754C",
"1. c #927D64",
"2. c #A07F67",
"3. c #9F5F61",
"4. c #D54648",
"5. c #DA554A",
"6. c #D7574B",
"7. c #CD5157",
"8. c #CE4B52",
"9. c #E15747",
"0. c #D86457",
"q. c #C66A46",
"w. c #E26658",
"e. c #E3634F",
"r. c #CF4967",
"t. c #CF4D6B",
"y. c #E37667",
"u. c #D97662",
"i. c #7D8268",
"p. c #BC8934",
"a. c #C08B35",
"s. c #BC8A51",
"d. c #B78844",
"f. c #86896E",
"g. c #8C9177",
"h. c #989577",
"j. c #91886F",
"k. c #AA9C7D",
"l. c #AA9275",
"z. c #8D815C",
"x. c #C99B48",
"c. c #CF944B",
"v. c #D4A757",
"b. c #D4B658",
"n. c #CDA14B",
"m. c #D9AE6C",
"M. c #DBB56B",
"N. c #DEB96E",
"B. c #D6B964",
"V. c #DEB971",
"C. c #E3B46E",
"Z. c #E3BD73",
"A. c #E8BE7A",
"S. c #E4836D",
"D. c #E3C176",
"F. c #E6C479",
"G. c #E8C87C",
"H. c #E8C67C",
"J. c #5E4481",
"K. c #664E84",
"L. c #444CDE",
"P. c #4A4CDE",
"I. c #564ADC",
"U. c #4D51DC",
"Y. c #5456DD",
"T. c #675ED9",
"R. c #745DDE",
"E. c #7B5AD9",
"W. c #5F60DC",
"Q. c #6A66DA",
"!. c #7367DB",
"~. c #6A70DE",
"^. c #4C53E4",
"/. c #4E57E9",
"(. c #5354E3",
"). c #5559E5",
"_. c #545AEA",
"`. c #5A5DEA",
"'. c #5959E5",
"]. c #474FE2",
"[. c #685CE5",
"{. c #735DE0",
"}. c #5C61EB",
"|. c #5E61E5",
" X c #6466E5",
".X c #7261E0",
"XX c #81649E",
"oX c #8158D5",
"OX c #999C82",
"+X c #A2A58B",
"@X c #B0B096",
"#X c #BCBFA5",
"$X c #9CA187",
"%X c #DBBF89",
"&X c #BEC3A9",
"*X c #DBC198",
"=X c #DCC18D",
"-X c #C9C6AC",
";X c #D6C3A7",
":X c #CACDB3",
">X c #DBCDB3",
",X c #D5CAB1",
"<X c #CED4BA",
"1X c #D0D5BB",
"2X c #DAD8BE",
"3X c #E1D8BF",
"4X c #D5DBC1",
"5X c #DBDEC4",
"6X c #E5DEC4",
"7X c #E8DEC4",
"8X c #DCE1C7",
"9X c #DEE4CA",
"0X c #E4E1C6",
"qX c #E4E5CB",
"wX c #E4E8CE",
"eX c #E8E4CB",
"rX c #E6EBD1",
"tX c #E9EDD3",
"yX c None",
/* pixels */
"yXyXyXyXyXyXyXyXyXyXyXyXyXyXyXyXyXyXyXyXyXyXyXyXW ` ` ! yXyXyXyXyXyXyXyXyXyXyXyXyXyXyXyXyXyXyXyX",
"yXyXyXyXyXyXyXyXyXyXyXyXyXyXyXyXyXyXyXyXyXyXW W ~ ~ ~ ~ ` 9 yXyXyXyXyXyXyXyXyXyXyXyXyXyXyXyXyXyX",
"yXyXyXyXyXyXyXyXyXyXyXyXyXyXyXyXyXyXyXyXyX7 U Y ~ +.4.4.E E 9 yXyXyXyXyXyXyXyXyXyXyXyXyXyXyXyXyX",
"yXyXyXyXyXyXyXyXyXyXyXyXyXyXyXyXyXyXyXyX7 I E O.+.5.>X>X;X4.R 9 yXyXyXyXyXyXyXyXyXyXyXyXyXyXyXyX",
"yXyXyXyXyXyXyXyXyXyXyXyXyXyXyXyXyXyXyX9 U U O.4.8.>X>X>XQ ,X..I 8 o X X @ yXyXyXyXyXyXyXyXyXyXyX",
"yXyXyXyXyXyXyXyXyXyXyXyX& & 3 3 yXyXyXq R O.+.4.5.>X^ ^ Q Q -X: ; $ # # @ @ yXyXyXyXyXyXyXyXyXyX",
"yXyXyXyXyXyXyXyXyXyX& n L L L n n yX` E ! 8.4.4.9.>X>X^ Q E 5 < 1 $ $ $ $ @ @ yXyXyXyXyXyXyXyXyX",
"yXyXyXyXyXyXyXyXyXr L i.<X4X4Xi.m yX&.Z B ` 6.6.5.5.>X>Xq 0 5 2 1 1 1 $ & m m $ yXyXyXyXyXyXyXyX",
"yXyXyXyXyXyXyXyXr i.1Xg.4X4X4X+XP A S 1.2.2.=.5.5.5.5.s q 0 5 5 < < < 3 A f.f.m # yXyXyXyXyXyXyX",
"yXyXyXyXyXyXyX3 L 1X4X8X$X4X9X9X$X1.l.4X2X2X2.0.0.6.B d 0 a a a y y y S S g.f.m $ yXyXyXyXyXyXyX",
"yXyXyXyXyXyXyXr i.g.4X8X9X@X9X9X#X+X5X6X5X2Xj.0.6.' B q f _ x.x._ ' y D h.h.h.A $ yXyXyXyXyXyXyX",
"yXyXyXyXyXyXr L 4X4X+X9XrXrX:XrXeX-X6X6X7X@X..0.&.V ' { n.M.M.M.{ [ f i.k.h.D y yXyXyXyXyXyXyXyX",
"yXyXyXyXyXyXr i.4X8X9X@XrXtXtXtXtXwXwX0X7Xk.u.-.&.&.n.N.C.Z.N.V.V f d.} } [ [ y yXyXyXyXyXyXyXyX",
"yXyXyXyXyXyXr i.1X8X9XwX<XtXtXtXtXrXwXeXeXl.<.-.-.v.Z.[ [ Z.D.D.d.:.d.n.V.N.x._ y yXyXyXyXyXyXyX",
"yXyXyXyXyXyXr L g.@X9XwXrXrXtX4X<X,XwXeX0X+X>.>.m.Z.Z.;.;.p.F.F.F.d.F.F.D.D.N.x.p 1 yXyXyXyXyXyX",
"yXyXyXyXyXyX3 m f.OX+X&XwXrXrXtXtXrX-XeX0Xk.>.,.A.Z.D.,.:.:.G.G.G.G.G.G.D.D.N.M.p 1 yXyXyXyXyXyX",
"yXyXyXyXyXyX& L <X4X8X8XqXwXrXrXeXeXeX0X7Xs.s.A.F.F.D.F.:.d.F.F.G.G.G.G.D.D.N.B.p 1 yXyXyXyXyXyX",
"yXyXyXyXyXyX& P <X1X2X8X8X0XqXqXeXeXeX7XS.q.A.F.F.A.F.F.F.F.G.F.G.G.G.G.D.N.N.x.p ; yXyXyXyXyXyX",
"yXyXyXyXyXyX$ A P L f.j.@X5X6X6X7X7X7Xy.y.q.F.G.A.D.D.F.D.D.F.F.D.G.D.D.D.D.b._ i ; yXyXyXyXyXyX",
"yXyXyXyXyXyXyX$ & t n m A g.@X5X>Xy.y.y.y.....| A.Z.D.;.-.D.D.D.D.D.D.D.B.N._ p 1 yXyXyXyXyXyXyX",
"yXyXyXyXyXyXyXyXyXyXyXyXyXZ V 0.0.0.w.w.e.e.....Z.A.{ -.V [ [ } M.N.N.n.{ _ p < yXyXyXyXyXyXyXyX",
"yXyXyXyXyXyXyXyXyXyXyXyXyXyXs Q 5.5.5.9.9.9...C.C.Z.[ &.V V f f f f a a u 2 , yXyXyXyXyXyXyXyXyX",
"yXyXyXyXyXyXyXyXyXyXyXyXyXyXyX` E O.4.4.4.9.) n.C.C.| f V f f a a 5 5 5 < : yXyXyXyXyXyXyXyXyXyX",
"yXyXyXyXyXyXyXyXyXyXyXyXyXyXyXyXW Y o.@.@.4./ / C.C.N.M.f f a u 0 2 2 , ; yXyXyXyXyXyXyXyXyXyXyX",
"yXyXyXyXyXyXyXyXyXyXyXyXyXyXyXyXyXR U ) @.@.@./ c.C.C.C.m.m.a 0 2 2 : w - yXyXyXyXyXyXyXyXyXyXyX",
"yXyXyXyXyXyXyXyXyXyXyXyXyXyXyXyXyXyXR ) @.@.@.( /  .c.C.m.m.x.` q 9 ) w - yXyXyXyXyXyXyXyXyXyXyX",
"yXyXyXyXyXyXyXyXyXyXyXyXyXyXyXyXyXyXR U ) o.@.+.( *.*.=.=.` ` q X.X.w 8 yXyXyXyXyXyXyXyXyXyXyXyX",
"yXyXyXyXyXyXyXyXyXyXyXyXyXyXyXyXyXyXyXE U o.@.#.( *.*.S 7.8.! ! M l T 8 yXyXyXyXyXyXyXyXyXyXyXyX",
"yXyXyXyXyXyXyXyXyXyXyXyXyXyXyXyXyXyXyXR U $.o.#.#.*.oXE.K K 7.7.! l l q yXyXyXyXyXyXyXyXyXyXyXyX",
"yXyXyXyXyXyXyXyXyXyXyXyXyXyXyXyXyXyXyX7 U U $.$.r.8.K E.E.K K 7.8.! M z yXyXyXyXyXyXyXyXyXyXyXyX",
"yXyXyXyXyXyXyXyXyXyXyXyXyXyXyXyXyXyXyX7 U $.%.#.r.r.J E.R.!.!.J K H M n k yXyXyXyXyXyXyXyXyXyXyX",
"yXyXyXyXyXyXyXyXyXyXyXyXyXyXyXyXyXyXyXk l $.%.#.r.t.J R.!.!.!.Q. XT.Q.b.d 0 yXyXyXyXyXyXyXyXyXyX",
"yXyXyXyXyXyXyXyXyXyXyXyXyXyXyXyXyXyXyXk z b %.%.t.K.{.{.3.*X=X~.Q.Q.Q.b.b.a 2 yXyXyXyXyXyXyXyXyX",
"yXyXyXyXyXyXyXyXyXyXyXyXyXyXyXyXyXyXyXk z I.b J.K.[..X.X*X*X*X=X~.[.W.B.b.a 0 yXyXyXyXyXyXyXyXyX",
"yXyXyXyXyXyXyXyXyXyXyXyXyXyXyXyXyXyXyXg v I.I.I.[.[. X.X*X*X*X*X~.Q.W.K b.a 5 yXyXyXyXyXyXyXyXyX",
"yXyXyXyXyXyXyXyXyXyXyXyXyXyXyXyXyXyXyXg v I.P.(.}.}.}. XXX;X;X~. XQ.Y.Y.F k yXyXyXyXyXyXyXyXyXyX",
"yXyXyXyXyXyXyXyXyXyXyXyXyXyXyXyXyXyXyXj j L.^.^.`.`.}.}.}. X X}.|.).Y.U.v g yXyXyXyXyXyXyXyXyXyX",
"yXyXyXyXyXyXyXyXyXyXyXyXyXyXyXyXyXyXyXj j L.^./._._._.}.}.}.[.`.).).Y.F N yXyXyXyXyXyXyXyXyXyXyX",
"yXyXyXyXyXyXyXyXyXyXyXyXyXyXyXyXyXyXyXg j ].].^./._._._.}.}.`._.).U.U.j g yXyXyXyXyXyXyXyXyXyXyX",
"yXyXyXyXyXyXyXyXyXyXyXyXyXyXyXyXyXyXyXg j ].].^././._._.}._._._.Y.U.v j yXyXyXyXyXyXyXyXyXyXyXyX",
"yXyXyXyXyXyXyXyXyXyXyXyXyXyXyXyXyXyXyXg j L.L.^.^.(._.(.).(.(.(.U.v j yXyXyXyXyXyXyXyXyXyXyXyXyX",
"yXyXyXyXyXyXyXyXyXyXyXyXyXyXyXyXyXyXyXyXg j L.^.(.(.(.'.(.(.G G b v g % yXyXyXyXyXyXyXyXyXyXyXyX",
"yXyXyXyXyXyXyXyXyXyXyXyXyXyXyXyXyXyXyXyXh g j F G G H H H H F c x x % % + yXyXyXyXyXyXyXyXyXyXyX",
"yXyXyXyXyXyXyXyXyXyXyXyXyXyXyXyXyXyXyX@ + h h h k C C C C B l x 0 0 0 # +   yXyXyXyXyXyXyXyXyXyX",
"yXyXyXyXyXyXyXyXyXyXyXyXyXyXyXyXyXyXyX+ + 0 0 k x B B s.c.d x 6 0 0 8 -   . yXyXyXyXyXyXyXyXyXyX",
"yXyXyXyXyXyXyXyXyXyXyXyXyXyXyXyXyXyXyX@ # 2 8 > q q i c.d.i d > 8 8 2 -   . yXyXyXyXyXyXyXyXyXyX",
"yXyXyXyXyXyXyXyXyXyXyXyXyXyXyXyXyXyXyX  X 8 8 1 9 i q i i i i 1 ; $ X X   . yXyXyXyXyXyXyXyXyXyX",
"yXyXyXyXyXyXyXyXyXyXyXyXyXyXyXyXyXyXyXX o | e 8 8 i e i i e : ; = = - X   . yXyXyXyXyXyXyXyXyXyX",
"yXyXyXyXyXyXyXyXyXyXyXyXyXyXyXyXyXyXyXyX# O O 8 e p.a.a.a.p.e * ; X X X   yXyXyXyXyXyXyXyXyXyXyX",
"yXyXyXyXyXyXyXyXyXyXyXyXyXyXyXyXyXyXyXyXyXo O ; * * * 2 * * 1 O ; X X X yXyXyXyXyXyXyXyXyXyXyXyX",
"yXyXyXyXyXyXyXyXyXyXyXyXyXyXyXyXyXyXyXyXyXyXyX; ; : , , * , * yXyXyXyXyXyXyXyXyXyXyXyXyXyXyXyXyX"
};
