/* XPM */
static char *_fe472b8e0114e12a2b2a573fd21334480Yb6OvcywD5Ip61[] = {
/* columns rows colors chars-per-pixel */
"48 48 166 2 ",
"   c #0F7E00",
".  c #147E00",
"X  c #1C7E01",
"o  c #237700",
"O  c #247C00",
"+  c #2C7D01",
"@  c #357700",
"#  c #3A7701",
"$  c #347D01",
"%  c #3B7C01",
"&  c #367E08",
"*  c #3D7E08",
"=  c #447C01",
"-  c #4C7D01",
";  c #417E08",
":  c #4B7F08",
">  c #547D01",
",  c #5C7E01",
"<  c #637F01",
"1  c #6A7F03",
"2  c #957E2A",
"3  c #078300",
"4  c #0E8400",
"5  c #068B00",
"6  c #0B8A00",
"7  c #148400",
"8  c #1B8300",
"9  c #138B01",
"0  c #1A8A02",
"q  c #1C8D09",
"w  c #059300",
"e  c #0B9305",
"r  c #129000",
"t  c #1A9005",
"y  c #1F9109",
"u  c #238200",
"i  c #2B8100",
"p  c #228A03",
"a  c #2B8A04",
"s  c #268709",
"d  c #2C8409",
"f  c #248C09",
"g  c #2D8B09",
"h  c #338201",
"j  c #3B8101",
"k  c #348904",
"l  c #348408",
"z  c #3B830A",
"x  c #348B0D",
"c  c #3B8A0C",
"v  c #229009",
"b  c #2E8E10",
"n  c #328D10",
"m  c #3C8E14",
"M  c #2B9010",
"N  c #359417",
"B  c #3D9216",
"V  c #379718",
"C  c #349618",
"Z  c #339518",
"A  c #418100",
"S  c #428000",
"D  c #428200",
"F  c #458000",
"G  c #468000",
"H  c #418104",
"J  c #438004",
"K  c #418204",
"L  c #468104",
"P  c #438404",
"I  c #438101",
"U  c #498000",
"Y  c #4B8000",
"T  c #4C8100",
"R  c #4D8000",
"E  c #4F8100",
"W  c #498004",
"Q  c #4E8104",
"!  c #4C8404",
"~  c #4E8404",
"^  c #4B8101",
"/  c #468608",
"(  c #47870C",
")  c #43840A",
"_  c #4B8508",
"`  c #4E8508",
"'  c #48860C",
"]  c #4A860C",
"[  c #4C870C",
"{  c #4A830A",
"}  c #40890E",
"|  c #42880D",
" . c #518000",
".. c #548000",
"X. c #548100",
"o. c #578100",
"O. c #558400",
"+. c #518104",
"@. c #518004",
"#. c #558004",
"$. c #558304",
"%. c #518407",
"&. c #548407",
"*. c #578407",
"=. c #538202",
"-. c #598000",
";. c #5D8001",
":. c #5F8001",
">. c #5F8401",
",. c #598104",
"<. c #5F8204",
"1. c #5C8604",
"2. c #5C8202",
"3. c #50860B",
"4. c #54840B",
"5. c #5C8309",
"6. c #55880F",
"7. c #54880F",
"8. c #58880E",
"9. c #4D8511",
"0. c #428F13",
"q. c #468F13",
"w. c #458E13",
"e. c #408F14",
"r. c #448D13",
"t. c #4C8D13",
"y. c #4E8C12",
"u. c #4C8B13",
"i. c #4D8E18",
"p. c #5C8512",
"a. c #558A10",
"s. c #548A13",
"d. c #43941C",
"f. c #608304",
"g. c #658202",
"h. c #6C8202",
"j. c #648409",
"k. c #69860B",
"l. c #748302",
"z. c #7B8502",
"x. c #778803",
"c. c #70860A",
"v. c #788608",
"b. c #828703",
"n. c #858803",
"m. c #8B8A03",
"M. c #938D03",
"N. c #979005",
"B. c #999103",
"V. c #97802A",
"C. c #9B842A",
"Z. c #9F892A",
"A. c #A38D2A",
"S. c #A6912A",
"D. c #AA942B",
"F. c #AE992A",
"G. c #B09B2A",
"H. c #B7A22B",
"J. c #B9A52B",
"K. c #BAA82B",
"L. c #CBBD1A",
"P. c #CEC01A",
"I. c #D5C91A",
"U. c #F6CD12",
"Y. c #F7D312",
"T. c #FFFA2B",
/* pixels */
"e w 5 5 6 6 4 4 4 9 9 8 8 7 8 O X X X 8 u u O p u O O 8 u p X X 8 8 8 7 7 7   4 4 9 5 6 6 5 5 5 ",
"5 5 5 6 5 6 4 4 9 q p 8 8 8 X 8 O O o + + i i i + i i i O O o u u X 8 8 8 7 7 7 6 t q w 4 6 5 5 ",
"3 5 w 6 6 9 7 M f g 8 u O u + i + + + $ @ h h $ h j $ h $ + + i + u p u 8 p 8 b f f 6 6 6 6 6 4 ",
"5 5 4 6 q t M b x 8 g p p i i + $ h $ $ % j j j = j % % j $ h h + i + p a a x n b 9 f 0 6 5 5 5 ",
"5 r 6 v M M N x p x q.a i h h $ % j % = D G G W ^ G = = L H P j h j h c c c B x 8 N V r 9 6 6 6 ",
"r y M V v d.B s a q.k h h j j D = = = ^ ^ T +.+.T  .- - ^ ! L D D / | s.c i.q.i a B p 9 9 9 6 4 ",
"y y V M n B g p 0.} h k j j = = = - -  .....,...-.....$.$.+.^ ! ! [ 7.[ ] y.c p B c 8 0 9 9 9 6 ",
"v v C M x c u z q.k j j D G = - - > , -., ;.;.g.f.;.f.<.1.O.O.*.4.+.6.[ 3.[ h z m p p 8 8 7 7   ",
"t M f g x i i | z j j G = - > > > , , < < g.g.g.g.h.h.f.g.>.>.1.*.5.*.` &.j j ( h i u u X . . . ",
"0 v 0 g a u i h j j D ^ - - > , < g.< < g.h.h.l.h.h.h.g.g.h.g.1.;.1.+.*.` G j j h i i u X X . . ",
"q 0 0 p u i $ h j G - - > , , g.< 1 1 l.l.l.x.l.x.x.l.l.h.h.h.g.g.>.-. .T ^ = % h j i O O X 8 7 ",
"9 8 8 O i h % j = T T > , < g.1 1 l.l.l.z.z.z.z.z.z.z.z.x.x.x.h.g.g.f., O.T - D j % h + o O X X ",
"8 8 O i l h * G T  .> , , g.1 1 l.l.z.z.z.b.V.V.V.V.n.z.z.x.x.x.l.h.g.f.j...- ^ D = $ + o i u . ",
"X u i c j j { G T .., < g.l.l.l.l.b.b.n.b.C.C.C.C.C.C.n.n.n.z.x.l.l.h.h.g.;.,.^ - j @ $ + $ O X ",
"8 p * P $ : = ^ > , ;.< 1 l.l.z.b.n.n.m.m.Z.C.T.T.Z.Z.m.m.n.n.b.z.l.l.c.g.h.,  .- = % @ & + O O ",
"8 + & $ = { - > -.< g.h.l.l.b.b.n.n.m.m.A.A.U.T.T.Y.S.Z.N.m.m.n.b.z.z.l.1 h.g.-.> = = = & + u d ",
"O + $ @ ; = - > < < l.1 v.z.b.b.m.m.M.M.S.S.T.T.T.T.S.S.N.N.m.n.n.b.z.2 h.g.< , , - = = $ + l u ",
"O + + % = - +., < g.h.l.z.b.b.m.m.M.B.S.D.L.T.T.T.T.L.D.S.N.N.m.n.n.b.1 l.h.g.< , - - = % j @ O ",
"O + @ % = - > 1 h.1 l.z.b.2 C.A.A.S.S.S.F.T.T.T.T.T.T.F.D.D.S.Z.C.C.2 b.l.l.1 1 < > - = = * + + ",
"+ + % % = - , k.g.1 l.z.2 V.C.A.S.D.D.G.Y.T.T.T.T.T.T.Y.F.D.S.S.A.A.C.2 z.l.l.l., , > - ; # & & ",
"i $ % % - > j.g.g.l.l.b.V.C.T.T.T.T.T.T.T.T.T.T.T.T.T.T.T.T.T.T.T.T.2 2 z.z.v.l.< , > : = = * l ",
"k h % = - , j.< l.v.v.b.2 A.U.T.T.T.T.T.T.H.H.T.T.J.H.T.T.T.T.T.T.U.A.2 b.z.v.1 j.1 > : - ; ) @ ",
"i @ % - : , < l.1 z.z.n.m.C.A.T.T.T.T.T.T.H.H.T.T.J.H.T.T.T.T.T.T.A.A.C.b.v.1 l.k., , > ; : * + ",
"+ ) s.- , > , 1 1 1 b.b.m.A.A.S.T.T.T.T.T.H.J.T.T.J.J.T.T.T.T.T.S.A.A.m.n.z.l.l.1 , , - - % & & ",
"z s.= : > > g.g.l.l.z.n.n.M.A.S.F.T.T.T.T.K.K.T.T.K.K.T.T.T.T.D.D.A.M.m.b.z.z.1 < < , - = # * h ",
"i.& ; p.> , < < 1 l.z.n.n.M.B.D.F.F.T.T.T.K.K.T.T.K.K.T.T.T.G.D.D.M.m.M.b.v.z.1 < , > - - = * & ",
"i * s.4.: , j.< 1 l.z.n.n.m.M.B.D.F.Y.T.T.I.I.T.T.I.I.T.T.Y.G.D.B.M.M.m.m.z.v.1 < < > > = = % & ",
"+ 9.{ W > > 1 < 1 l.z.b.m.M.M.S.D.G.T.T.T.T.T.T.T.T.T.T.T.T.G.D.B.N.m.m.b.z.v.1 < , > - = ; * + ",
"z ) ; : : , , 1 1 l.z.b.m.m.M.S.D.P.T.T.T.T.T.T.T.T.T.T.T.T.P.D.S.M.m.m.b.z.l.h.< , > - - * * & ",
"d j { = : < > < < l.x.z.n.m.m.A.D.Y.T.T.T.T.T.T.T.T.T.T.T.T.Y.D.A.M.m.n.b.z.l.g.< , > - = = & + ",
"$ ) ) = - > , , 1 l.l.z.b.m.Z.A.S.T.T.T.T.T.T.Y.Y.T.T.T.T.T.T.S.A.C.m.n.z.x.h.1 , , > ^ % % * + ",
"z z h = = +.> , < h.l.v.b.b.C.Z.L.T.T.T.T.T.G.G.F.F.T.T.T.T.T.L.A.C.b.z.z.l.h.g., -.- = = % + i ",
"O + & = = - > , < 1 l.l.z.b.C.A.T.T.T.T.L.D.F.F.F.F.F.L.T.T.T.T.C.V.n.z.l.l.< < , > T - = $ + + ",
"O + $ % = - - > < g.h.l.l.b.2 2 T.T.U.A.S.S.S.B.B.S.D.S.A.U.T.T.C.V.z.z.x.h.< < ,  . .= @ $ + o ",
"o i + % % ^ - 5.f.1 g.g.1 l.2 2 A.A.A.A.A.M.B.M.M.M.M.A.A.A.Z.C.2 2 l.l.h.g.< j., : - % % $ $ O ",
"O i + h L { > 5.5., h.h.l.l.z.2 2 2 2 m.M.m.M.M.M.M.m.M.m.C.V.V.2 l.l.l.h.g.j.5.8.- _ * h i O O ",
"8 i + ) ) ` 6.*. .j.k.f.l.l.l.l.b.b.n.n.n.m.m.m.m.m.m.n.m.n.n.z.z.l.l.h.k.j.j.5.T 4.6.k h i O u ",
"p d c u.) s.s.W +.j.>.;.< g.l.l.l.l.z.b.n.n.n.m.n.n.n.n.n.z.z.x.l.l.c.c.g.k.j.Q ^ 6.D h i i u 8 ",
"g d r.c | u.{ D 6.*. .1.g.g.g.1 l.l.l.z.b.z.1 b.b.z.z.x.z.z.l.h.l.k.c.k.j.j.*.G s.[ h h i u p X ",
"s g m x ( ( $ W 7.^ T ...., < 1 1 l.l.z.l.l.2 1 z.x.z.z.x.x.h.x.h.h.k.f.j.1.G ` 7.h h i i O X X ",
"0 x d k | i $ ( D D = T > > , , 1 1 1 1 1 1 1 1 h.x.x.h.h.h.h.g.f.j.1.*.5.^ = [ j h + i o O X . ",
"0 M 0 x a + i h % j D = - > > , , , , 1 1 1 1 1 g.h.g.h.g.h.j.;.-.>.+.&.^ D j $ h h i u u X X . ",
"9 0 8 8 u i + + h j % = = - - > > , , , < , < < g.g.< ;.1.f.<.> ..~ ^ G D % % $ + i O O X X 7 7 ",
"9 7 8 8 p O + u i $ % % # = - - > > > > , , , , , , 1.-.O.1. .T ^ - G % j h h + i i u O X . 8 . ",
"4 7 7 u d X d i i $ @ @ # = = = - - - - > > > > > > > > +.+.^ ^ = = % % ) $ + h + O X X X 8 8   ",
"4 7 8 g s u d O i + + + @ % # = = = - - - - - - - = = - > G = D % j j / h l l u u X X X . u . 4 ",
"4 6 s g 8 d u 8 u o O + @ @ @ % = # # = = = = = = - = = - % D j % $ ; P + & i O u X X X X 8 4 X ",
"6 7 q 8 X s 8 8 u O O + $ + $ * @ @ # # # # # # # # % ; % & { % $ + z i + l 8 X u X q X X 4 7 q "
};
