/* XPM */
static char *result[] = {
/* columns rows colors chars-per-pixel */
"48 48 47 1 ",
"  c #08C608",
". c #00C600",
"X c #00BD00",
"o c #00B500",
"O c #08C600",
"+ c #08BD08",
"@ c #08BD00",
"# c #00CE00",
"$ c #10CE08",
"% c #10C608",
"& c #21CE18",
"* c #18C610",
"= c #18CE10",
"- c #29D621",
"; c #31D621",
": c #39D629",
"> c #29CE18",
", c #10D608",
"< c #08CE00",
"1 c #08B500",
"2 c #21CE10",
"3 c #10BD08",
"4 c #10B508",
"5 c #21BD10",
"6 c #18BD10",
"7 c #08AD08",
"8 c #21C618",
"9 c #63DA1D",
"0 c #C3EB1F",
"q c #F8F528",
"w c #F7F527",
"e c #C3E91F",
"r c #51D40C",
"t c #9AE725",
"y c #FFF729",
"u c #A1E729",
"i c #4CC80C",
"p c #C4E91F",
"a c #CAED25",
"s c #39DE29",
"d c #FBF628",
"f c #C4E921",
"g c #59D00D",
"h c #54D00D",
"j c #8FDD16",
"k c #8FE116",
"l c #54D60D",
/* pixels */
" .XXXXoXXO.+@XX@XXXX...#.XX...XX .XXXXoXXO.+@XX@",
"XX.XXXXX.$%.XXXXoooXX.#.X...XXoXXX.XXXXX.$%.XXXX",
"o..XXOX&**.XXX@XXoXXo.#X.OX.XXXXo..XXOX&**.XXX@X",
"X.X.$$&&&.= ..XXXXXXX... ..X%X .X.X.$$&&&.= ..XX",
". .=&&-&O&-#..XXXXXX... O.XX  $.. .=&&-&O&-#..XX",
" =&;=:; $;$....XooXX..  ..X O$ . =&;=:; $;$....X",
"==;&&;=.-&.....XXXX... .... $ .$==;&&;=.-&.....X",
"==-=>>X*-...XXXooXX.X.O.#.$$,#<===-=>>X*-...XXXo",
"$&==>.@&%XXXoooooo.XX..#.<$< <,,$&==>.@&%XXXoooo",
"O=#=$XXXXXXXoooooXXo..X.X#O##<=.O=#=$XXXXXXXoooo",
" #..XXoXX@XoooXXoooo.XXXX.X.#$$X #..XXoXX@XoooXX",
".X.X.XXXX@Xooo@ooooX.oXoXX.X.$...X.X.XXXX@Xooo@o",
"XXX@*X+@@@ooo@@oo1ooX1ooXoXX%$..XXX@*X+@@@ooo@@o",
"X.@2%@*X@XooX31o43oX11o1X11.*...X.@2%@*X@XooX31o",
"X.52X5+X@ooo4@X46oo11ooXX1X *X$.X.52X5+X@ooo4@X4",
".@*@4*X@@oX44X@*Xo1ooo7Xo1.*.+>@.@*@4*X@@oX44X@*",
"X1X13@X@1oX4@X*.o34oXo1X1.O*X>&XX1X13@X@1oX4@X*.",
"XXo1XX.@@.X@X%+X@6@+.1X.@. %%: .XXo1XX.@@.X@X%+X",
"XXXXXX@5&X@@%%++**%.X8X= X$.:>= XXXXXX@5&X@@%%++",
".XXXXX%-Oo+%%+%**3XX*90qwer&;2;..XXXXX%-Oo+%%+%*",
"$.XoXO-$X%%%+O*=+X%Xtyyyyyyu=;,#$.XoXO-$X%%%+O*=",
",#XXX2=X%*++%$2%X%Xiyyyyyyyy9-#=,#XXX2=X%*++%$2%",
"<X O++X *@@% &%X*+opyyyyyyyya#,,<X O++X *@@% &%X",
".=s**XX*@@+@%@+*%XXwyyyyyyyyw.=<.=s**XX*@@+@%@+*",
"&s$*XX*.X@XX.+*$@%+dyyyyyyyyd...&s$*XX*.X@XX.+*$",
"s.*: %%XXXX.+% %**@fyyyyyyyyeXo=s.*: %%XXXX.+% %",
"# s&*%%+XX.+@+%*%+Xgyyyyyyyyho@&# s&*%%+XX.+@+%*",
" ;&$% *XXX.X@%% %%@%jyyyyyykXX*. ;&$% *XXX.X@%% ",
"=& *O*.XXXXX%%%*%% %Xl0ddel.XX.#=& *O*.XXXXX%%%*",
"$=&%%*XXXX.O+%%%@%%@........XX.=$=&%%*XXXX.O+%%%",
"$&=.O..XX.O.X@%+%++%O......XX..&$&=.O..XX.O.X@%+",
"&=.X..XXX..X@@.%@%%....#.XXX...O&=.X..XXX..X@@.%",
" .XXXXoXXO.+@XX@XXXX...#.XX...XX .XXXXoXXO.+@XX@",
"XX.XXXXX.$%.XXXXoooXX.#.X...XXoXXX.XXXXX.$%.XXXX",
"o..XXOX&**.XXX@XXoXXo.#X.OX.XXXXo..XXOX&**.XXX@X",
"X.X.$$&&&.= ..XXXXXXX... ..X%X .X.X.$$&&&.= ..XX",
". .=&&-&O&-#..XXXXXX... O.XX  $.. .=&&-&O&-#..XX",
" =&;=:; $;$....XooXX..  ..X O$ . =&;=:; $;$....X",
"==;&&;=.-&.....XXXX... .... $ .$==;&&;=.-&.....X",
"==-=>>X*-...XXXooXX.X.O.#.$$,#<===-=>>X*-...XXXo",
"$&==>.@&%XXXoooooo.XX..#.<$< <,,$&==>.@&%XXXoooo",
"O=#=$XXXXXXXoooooXXo..X.X#O##<=.O=#=$XXXXXXXoooo",
" #..XXoXX@XoooXXoooo.XXXX.X.#$$X #..XXoXX@XoooXX",
".X.X.XXXX@Xooo@ooooX.oXoXX.X.$...X.X.XXXX@Xooo@o",
"XXX@*X+@@@ooo@@oo1ooX1ooXoXX%$..XXX@*X+@@@ooo@@o",
"X.@2%@*X@XooX31o43oX11o1X11.*...X.@2%@*X@XooX31o",
"X.52X5+X@ooo4@X46oo11ooXX1X *X$.X.52X5+X@ooo4@X4",
".@*@4*X@@oX44X@*Xo1ooo7Xo1.*.+>@.@*@4*X@@oX44X@*"
};
