/* XPM */
static char *result[] = {
/* columns rows colors chars-per-pixel */
"48 48 126 2 ",
"   c #08C608",
".  c #00C600",
"X  c #00BD00",
"o  c #00B500",
"O  c #08C600",
"+  c #08BD08",
"@  c #08BD00",
"#  c #1CC41C",
"$  c #5CD45C",
"%  c #8FE28F",
"&  c #BBEFBB",
"*  c #DFF7DF",
"=  c #F7FDF7",
"-  c white",
";  c #F7FCF7",
":  c #DFF6DF",
">  c #8FE58F",
",  c #5CDA5C",
"<  c #10CE08",
"1  c #10C608",
"2  c #10C110",
"3  c #6CD86C",
"4  c #CBEFCB",
"5  c #CBF1CB",
"6  c #21CE18",
"7  c #18C610",
"8  c #18C318",
"9  c #1BCE13",
"0  c #7CE07C",
"q  c #80E57C",
"w  c #13CE0B",
"e  c #18CE10",
"r  c #29D621",
"t  c #43D53C",
"y  c #D6F7D5",
"u  c #D5F5D3",
"i  c #4ADC43",
"p  c #00CE00",
"a  c #31D621",
"s  c #39D629",
"d  c #5ADD55",
"f  c #F5FDF4",
"g  c #55D755",
"h  c #70DF70",
"j  c #FBFEFB",
"k  c #86E882",
"l  c #29CE18",
"z  c #70D970",
"x  c #50D750",
"c  c #FBFDFB",
"v  c #50D150",
"b  c #35D52E",
"n  c #F3FBF3",
"m  c #28C728",
"M  c #04C604",
"N  c #CFF2CF",
"B  c #CFF1CF",
"V  c #04B604",
"C  c #78DC78",
"Z  c #78D778",
"A  c #1FC318",
"S  c #92E28F",
"D  c #96E292",
"F  c #08B500",
"G  c #10C910",
"H  c #F8FCF7",
"J  c #10B508",
"K  c #70D86C",
"L  c #74D970",
"P  c #CCEFCB",
"I  c #CFF3CE",
"U  c #61D461",
"Y  c #99E596",
"T  c #BFF1BD",
"R  c #C1F1BF",
"E  c #E1F9E0",
"W  c #E1F7E0",
"Q  c #F8FDF8",
"!  c #DFF8DF",
"~  c #E2F7E1",
"^  c #C1F0C1",
"/  c #9DEA99",
"(  c #9DE699",
")  c #69E064",
"_  c #69DB64",
"`  c #2DD426",
"'  c #26C526",
"]  c #D3F5D2",
"[  c #CFF4CF",
"{  c #78E078",
"}  c #9FE99F",
"|  c #9FE69F",
" . c #1CCC1C",
".. c #92E78E",
"X. c #87E487",
"o. c #34D624",
"O. c #DAF7D9",
"+. c #D7F6D7",
"@. c #4AD743",
"#. c #F3FCF3",
"$. c #30D030",
"%. c #76DF6B",
"&. c #36C930",
"*. c #D7F4D7",
"=. c #30C930",
"-. c #87DC87",
";. c #92E48E",
":. c #04BE04",
">. c #21CE10",
",. c #A5E6A2",
"<. c #A2E69F",
"1. c #39D32A",
"2. c #10BD08",
"3. c #21BD10",
"4. c #80D77C",
"5. c #D3F2D2",
"6. c #18CB18",
"7. c #20BE20",
"8. c #64D060",
"9. c #93DF93",
"0. c #BFECBF",
"q. c #DFF5DF",
"w. c #C5F0C3",
"e. c #93E693",
"r. c #64D564",
"t. c #43D434",
/* pixels */
"  . X X X X o X X O . + @ X X @ X # $ % & * = - - ; : & > , # X   . X X X X o X X O . + @ X X @ ",
"X X . X X X X X . < 1 . X X 2 3 4 - - - - - - - - - - - - - - 5 3 2 . X X X X X . < 1 . X X X X ",
"o . . X X O X 6 7 7 . X 8 % ; - - - - - - - - - - - - - - - - - - = > 8 X O X 6 7 7 . X X X @ X ",
"X . X . < < 6 6 6 . 9 0 = - - - - - - - - - - - - - - - - - - - - - - = q w 6 6 6 . e   . . X X ",
".   . e 6 6 r 6 O t y - - - - - - - - - - - - - - - - - - - - - - - - - - u i 6 O 6 r p . . X X ",
"  e 6 a e s a   d f - - - - - - - - - - - - - - - - - - - - - - - - - - - - f g < a < . . . . X ",
"e e a 6 6 a e h j - - - - - - - - - - - - - - - - - - - - - - - - - - - - - - j k 6 . . . . . X ",
"e e r e l l z - - - - - - - - - - - - - - - - - - - - - - - - - - - - - - - - - - h . . X X X o ",
"< 6 e e l x c - - - - - - - - - - - - - - - - - - - - - - - - - - - - - - - - - - c v X o o o o ",
"O e p e b n - - - - - - - - - - - - - - - - - - - - - - - - - - - - - - - - - - - - n m o o o o ",
"  p . M N - - - - - - - - - - - - - - - - - - - - - - - - - - - - - - - - - - - - - - B V o X X ",
". X . C - - - - - - - - - - - - - - - - - - - - - - - - - - - - - - - - - - - - - - - - Z o @ o ",
"X X 8 ; - - - - - - - - - - - - - - - - - - - - - - - - - - - - - - - - - - - - - - - - ; A @ o ",
"X . S - - - - - - - - - - - - - - - - - - - - - - - - - - - - - - - - - - - - - - - - - - D F o ",
"X G H - - - - - - - - - - - - - - - - - - - - - - - - - - - - - - - - - - - - - - - - - - ; 2 J ",
". K - - - - - - - - - - - - - - - - - - - - - - - - - - - - - - - - - - - - - - - - - - - - L 7 ",
"X P - - - - - - - - - - - - - - - - - - - - - - - - - - - - - - - - - - - - - - - - - - - - I . ",
"# - - - - - - - - - - - - - - - - - - - - - - - - - - - - - - - - - - - - - - - - - - - - - - # ",
"$ - - - - - - - - - - - - - - - - - - - - - - - - - - - - - - - - - - - - - - - - - - - - - - U ",
"> - - - - - - - - - - - - - - - - - - - - - - - - - - - - - - - - - - - - - - - - - - - - - - Y ",
"T - - - - - - - - - - - - - - - - - - - - - - - - - - - - - - - - - - - - - - - - - - - - - - R ",
"E - - - - - - - - - - - - - - - - - - - - - - - - - - - - - - - - - - - - - - - - - - - - - - W ",
"= - - - - - - - - - - - - - - - - - - - - - - - - - - - - - - - - - - - - - - - - - - - - - - ; ",
"- - - - - - - - - - - - - - - - - - - - - - - - - - - - - - - - - - - - - - - - - - - - - - - - ",
"- - - - - - - - - - - - - - - - - - - - - - - - - - - - - - - - - - - - - - - - - - - - - - - - ",
"Q - - - - - - - - - - - - - - - - - - - - - - - - - - - - - - - - - - - - - - - - - - - - - - = ",
"! - - - - - - - - - - - - - - - - - - - - - - - - - - - - - - - - - - - - - - - - - - - - - - ~ ",
"^ - - - - - - - - - - - - - - - - - - - - - - - - - - - - - - - - - - - - - - - - - - - - - - ^ ",
"/ - - - - - - - - - - - - - - - - - - - - - - - - - - - - - - - - - - - - - - - - - - - - - - ( ",
") - - - - - - - - - - - - - - - - - - - - - - - - - - - - - - - - - - - - - - - - - - - - - - _ ",
"` - - - - - - - - - - - - - - - - - - - - - - - - - - - - - - - - - - - - - - - - - - - - - - ' ",
"6 ] - - - - - - - - - - - - - - - - - - - - - - - - - - - - - - - - - - - - - - - - - - - - [ 1 ",
"  { - - - - - - - - - - - - - - - - - - - - - - - - - - - - - - - - - - - - - - - - - - - - C @ ",
"X 8 = - - - - - - - - - - - - - - - - - - - - - - - - - - - - - - - - - - - - - - - - - - ; 8 X ",
"o . } - - - - - - - - - - - - - - - - - - - - - - - - - - - - - - - - - - - - - - - - - - | @ X ",
"X . # = - - - - - - - - - - - - - - - - - - - - - - - - - - - - - - - - - - - - - - - - =  .X X ",
".   . ..- - - - - - - - - - - - - - - - - - - - - - - - - - - - - - - - - - - - - - - - X.. X X ",
"  e 6 o.O.- - - - - - - - - - - - - - - - - - - - - - - - - - - - - - - - - - - - - - +.M . . X ",
"e e a 6 @.f - - - - - - - - - - - - - - - - - - - - - - - - - - - - - - - - - - - - #.$.. . . X ",
"e e r e l %.- - - - - - - - - - - - - - - - - - - - - - - - - - - - - - - - - - - - , . X X X o ",
"< 6 e e l . L - - - - - - - - - - - - - - - - - - - - - - - - - - - - - - - - - - z X X o o o o ",
"O e p e < X X z - - - - - - - - - - - - - - - - - - - - - - - - - - - - - - - - z X X X o o o o ",
"  p . . X X o X $ n - - - - - - - - - - - - - - - - - - - - - - - - - - - - n $ X @ X o o o X X ",
". X . X . X X X X &.*.- - - - - - - - - - - - - - - - - - - - - - - - - - *.=.X X @ X o o o @ o ",
"X X X @ 7 X + @ @ @ V -.; - - - - - - - - - - - - - - - - - - - - - - ; ;.:.+ @ @ @ o o o @ @ o ",
"X . @ >.1 @ 7 X @ X o o # ,.; - - - - - - - - - - - - - - - - - - = <.1.1 @ 7 X @ X o o X 2.F o ",
"X . 3.>.X 3.+ X @ o o o J @ 8 4.5.- - - - - - - - - - - - - - [ C 6.3.>.X 3.+ X @ o o o J @ X J ",
". @ 7 @ J 7 X @ @ o X J J X @ 7 X 7.8.9.0.q.; - - ; * w.e.r.t.@ . @ 7 @ J 7 X @ @ o X J J X @ 7 "
};
