/* XPM */
static char *result[] = {
/* columns rows colors chars-per-pixel */
"48 48 13 1 ",
"  c #390810",
". c #211010",
"X c #423118",
"o c #6B4218",
"O c #941818",
"+ c #B52129",
"@ c #845A18",
"# c #9C7B39",
"$ c #A5734A",
"% c #AD8C39",
"& c #AD8C5A",
"* c gray71",
"= c None",
/* pixels */
"================================================",
"================================================",
"================================================",
"================================================",
"================================================",
"================================================",
"================================================",
"================================================",
"================================================",
"================================================",
"================..===========...================",
"===============....=========.....===============",
"===============.....=======......===============",
"===============......XXXXXX......===============",
"=================....X@#@X....X=================",
"=================X@o..###..o@XX=================",
"================Xo##@..#..@#@@XX================",
"================X#%oXX.#.XXo#@oX================",
"===============Xo%o***o#o***o@@XX===============",
"===============X#o**o.o#o.o**o@@X===============",
"==============XX@#**..o#o..**#@@XX==============",
"=============XX#o***o.o#o.o***o@@XX=============",
"============XX#%o*****###*****o#@@XX============",
"============XX%X#o***%###%***o#X@@XX============",
"===========XX#o*X#############X*X@@XX===========",
"===========XX%o**X###########X**X@@XX===========",
"===========XX%o***X@oXXXXXo@X***X@@XX===========",
"===========XX%o***XXXXXXXXXXX***X@@XX===========",
"===========XX@#XXo@#########@oXX@@@XX===========",
"============XX#################@@@X.============",
"=============X..@@oo@@@@@@@@oo@@X..=============",
"================...$&&&&&&&&$....===============",
"=============     $$&&&&&&&&$$     =============",
"============ ++++O$$&&&&&&&&$$+++++ ============",
"=========== +++++OO$$&&&&&&$$O++++++ ===========",
"=========== O++++O X$$$$$$$$ OO++++O ===========",
"===========  OOOO  XXXXXXXXX  O+++O  ===========",
"============      ============      ============",
"================================================",
"================================================",
"================================================",
"================================================",
"================================================",
"================================================",
"================================================",
"================================================",
"================================================",
"================================================"
};
