/* XPM */
static char *result[] = {
/* columns rows colors chars-per-pixel */
"48 48 13 1 ",
"  c #390810",
". c #211010",
"X c #423118",
"o c #6B4218",
"O c #941818",
"+ c #B52129",
"@ c #845A18",
"# c #9C7B39",
"$ c #A5734A",
"% c #AD8C39",
"& c #AD8C5A",
"* c gray71",
"= c None",
/* pixels */
"================================================",
"================================================",
"================================================",
"================================================",
"================================================",
"================================================",
"================================================",
"================================================",
"================================================",
"================..========...===================",
"===============.....=====.....==================",
"===============......===......==================",
"===============......===......==================",
"=================X...XXX..XX====================",
"================XX@#..#..X@@X===================",
"================X@##..#..##@XX==================",
"===============Xo#oo..#.Xoo#@X==================",
"===============X#o***o#o***o@oX=================",
"==============Xoo****@#@****o@XX================",
"==============X##**o.@#@.o**#@@X================",
"=============XX@***..@#@..***@@XX===============",
"============XX#@***o.@#@.o***@@@XX==============",
"===========XX#%@*****###*****@#@@X==============",
"===========XX%%#@***%###%***@##@@XX=============",
"==========XX#%#################@@@X=============",
"==========XX%%####@XXXXXXX@####@@@XX============",
"==========XX%#X##oXXXXXXXXX@##X@@@XX============",
"==========XX%o*XXXXXXXXXXXXX#X*X@@X.============",
"==========XX%o**XXXXOOOOOXXXX**X@@..============",
"===========X#o***XXOOOOOOOOX***X@    ===========",
"===========XXooXX@##########@XXX O++  ==========",
"============Xo######@@@@@@@@@@o +++++ ==========",
"=============XX@@@@ooo&&&&&&&$$O+++OO ==========",
"===============XX     &&&&&&&&$+OOOOO ==========",
"================  +++O$&&&&&&&$OOO   ===========",
"================ +++++O$&&&&$$$X   =============",
"================ O++++OO $$$$XXX================",
"================  OOOOO  XXXXX==================",
"=================       ========================",
"================================================",
"================================================",
"================================================",
"================================================",
"================================================",
"================================================",
"================================================",
"================================================",
"================================================"
};
