/* XPM */
static char *result[] = {
/* columns rows colors chars-per-pixel */
"48 48 218 2 ",
"   c #2C1D1B",
".  c #271816",
"X  c #301D1B",
"o  c #35211C",
"O  c #3B241E",
"+  c #3F291D",
"@  c #2C1E26",
"#  c #342424",
"$  c #352D2D",
"%  c #3C2A29",
"&  c #3B312E",
"*  c #3A3333",
"=  c #352637",
"-  c #452C1D",
";  c #49301E",
":  c #6A2B1B",
">  c #742B1D",
",  c #69391F",
"<  c #71381E",
"1  c #432B23",
"2  c #472B27",
"3  c #4D362A",
"4  c #563B2D",
"5  c #442E35",
"6  c #443C3C",
"7  c #473737",
"8  c #553932",
"9  c #532E28",
"0  c #7D2D20",
"q  c #772F20",
"w  c #683624",
"e  c #733825",
"r  c #683D34",
"t  c #713E33",
"y  c #6E2F20",
"u  c #5A463A",
"i  c #564635",
"p  c #75432B",
"a  c #784625",
"s  c #69473A",
"d  c #724C3B",
"f  c #744538",
"g  c #79553A",
"h  c #725132",
"j  c #32335C",
"k  c #343257",
"l  c #3A2B45",
"z  c #36376B",
"x  c #373665",
"c  c #383972",
"v  c #791A4A",
"b  c #4F344B",
"n  c #683845",
"m  c #723D43",
"M  c #403B66",
"N  c #554847",
"B  c #5C4F57",
"V  c #694743",
"C  c #744542",
"Z  c #784746",
"A  c #744752",
"S  c #6D574B",
"D  c #66675B",
"F  c #544776",
"G  c #4D4370",
"H  c #704F73",
"J  c #686A61",
"K  c #737466",
"L  c #76786A",
"P  c #716B68",
"I  c #8B1615",
"U  c #991115",
"Y  c #9D1519",
"T  c #951819",
"R  c #880E0F",
"E  c #A2181C",
"W  c #832E22",
"Q  c #873024",
"!  c #943834",
"~  c #B4382D",
"^  c #AB3B32",
"/  c #A23534",
"(  c #AA352B",
")  c #8E251C",
"_  c #CB2A3D",
"`  c #C42B39",
"'  c #C7363E",
"]  c #82542C",
"[  c #884839",
"{  c #944739",
"}  c #885739",
"|  c #95553A",
" . c #894928",
".. c #B34439",
"X. c #A85A38",
"o. c #A34434",
"O. c #8B6137",
"+. c #996738",
"@. c #AA7439",
"#. c #B17A3D",
"$. c #AE6D36",
"%. c #882544",
"&. c #A72C52",
"*. c #BB356D",
"=. c #CF2D41",
"-. c #D32E43",
";. c #CC3342",
":. c #CB3844",
">. c #D33245",
",. c #D5354A",
"<. c #D53B4B",
"1. c #D93B4E",
"2. c #D5384A",
"3. c #D53D56",
"4. c #D03B6B",
"5. c #855A43",
"6. c #8A4E46",
"7. c #A25141",
"8. c #A94653",
"9. c #8A6742",
"0. c #956745",
"q. c #997843",
"w. c #91605E",
"e. c #A86C47",
"r. c #AC7842",
"t. c #827F65",
"y. c #885A65",
"u. c #D5424C",
"i. c #DA464B",
"p. c #DA4B48",
"a. c #DC524B",
"s. c #DB5245",
"d. c #D84956",
"f. c #DB5655",
"g. c #CC4851",
"h. c #DD655C",
"j. c #CF476D",
"k. c #D24667",
"l. c #D85661",
"z. c #CD4677",
"x. c #DD6768",
"c. c #DD7370",
"v. c #E0746E",
"b. c #7E8269",
"n. c #BB8733",
"m. c #A18148",
"M. c #B58344",
"N. c #BC8C47",
"B. c #BD8C53",
"V. c #83846B",
"C. c #878B72",
"Z. c #918979",
"A. c #95957C",
"S. c #958A71",
"D. c #C79945",
"F. c #D89C4C",
"G. c #D7A854",
"H. c #CEA04E",
"J. c #D8AD65",
"K. c #DBB46B",
"L. c #DAB56A",
"P. c #DFBB72",
"I. c #DDB672",
"U. c #E1B46C",
"Y. c #E2B86E",
"T. c #E2BC73",
"R. c #E3BC7A",
"E. c #E4B671",
"W. c #E4C176",
"Q. c #E6C47A",
"!. c #E8C87C",
"~. c #694889",
"^. c #634A94",
"/. c #434BDE",
"(. c #4B4ADD",
"). c #5A4EDE",
"_. c #5A53DF",
"`. c #6756DB",
"'. c #7557DD",
"]. c #7C65D3",
"[. c #454EE3",
"{. c #4B4EE3",
"}. c #594EE1",
"|. c #4C52E5",
" X c #4D54E9",
".X c #4750E2",
"XX c #5453E3",
"oX c #5C53E5",
"OX c #5355EA",
"+X c #5B54E9",
"@X c #6453E3",
"#X c #6A51E2",
"$X c #7150E0",
"%X c #CA4880",
"&X c #805DD7",
"*X c #8B6CCF",
"=X c #979C83",
"-X c #998580",
";X c #9DA38A",
":X c #A3A78E",
">X c #AFAE96",
",X c #B7BAA1",
"<X c #BCC2A9",
"1X c #DDCCB4",
"2X c #D2C9B0",
"3X c #D5D7BE",
"4X c #C7C6AF",
"5X c #E1CBB5",
"6X c #D5DBC2",
"7X c #DADCC5",
"8X c #DBDBC6",
"9X c #E3DCC5",
"0X c #E3DFC8",
"qX c #DDE2C9",
"wX c #E3E4CC",
"eX c #E4E8CF",
"rX c #E5E9D0",
"tX c None",
/* pixels */
"tXtXtXtXtXtXtXtXtXtXtXtXtXtXtXtXtXtXtXtXtXtXtXtXtXtXtXtXtXtXtXtXtXtXtXtXtXtXtXtXtXtXtXtXtXtXtXtX",
"tXtXtXtXtXtXtXtXtXtXtXtXtXtXtXtXW W Q Q Q tXtXtXtXtXtXtXtXtXtXtXtXtXtXtXtXtXtXtXtXtXtXtXtXtXtXtX",
"tXtXtXtXtXtXtXtXtXtXtXtXtXtXq Q Y Y E E Y Q Q tXtXtXtXtXtXtXtXtXtXtXtXtXtXtXtXtXtXtXtXtXtXtXtXtX",
"tXtXtXtXtXtXtXtXtXtXtXtXtXq T Y E ;.>.=.=.E Y Q 0 tXtXtXtXtXtXtXtXtXtXtXtXtXtXtXtXtXtXtXtXtXtXtX",
"tXtXtXtXtXtXtXtXtXtXtXtXy I T ' ,.<.2.2.,.>.=.Y W 0 tXtXtXtXtXtXtXtXtXtXtXtXtXtXtXtXtXtXtXtXtXtX",
"tXtXtXtXtXtXtXtXtXtXtXtXq T :.:.:.3.1.3.2.,.-.-.=.U 0 tXtXtXtXtXtXtXtXtXtXtXtXtXtXtXtXtXtXtXtXtX",
"tXtXtXtXtXtXtXtXtXtXtX: I T :.u.u.u.i.i.3.1.,.-.=._ U 0 tXtXtXtXtXtXtXtXtXtXtXtXtXtXtXtXtXtXtXtX",
"tXtXtXtXtXtXtXtXtXtXtXy I :.' 2X1X1X5Xa.i.1.1.-.-.=.=.U W tXtXtXtXtXtXtXtXtXtXtXtXtXtXtXtXtXtXtX",
"tXtXtXtXtXtXtXtXtXtXtXy I g.2X( 5X~ 5X5Xp.i.1.,.-.-.-._ U W tXtXtXtXtXtXtXtXtXtXtXtXtXtXtXtXtXtX",
"tXtXtXtXtXtXtXtXtXtXtXy I :.2X( ^ ^ 1X1Xa.i.1.1.1.-.-._ _ U W > > tXtXtXtXtXtXtXtXtXtXtXtXtXtXtX",
"tXtXtXtXtXtXtXtXtXtXtXtXq ) 2X! / ..1X1Xa.p.i.<.1.,.-.-.>._ Y U R > : tXtXtXtXtXtXtXtXtXtXtXtXtX",
"tXtXtXtXtXtXtXtXtXtXX # - 9 4 r s C [ } ~ s.s.u.1.2.2.,.>._ E ` ` R R : tXtXtXtXtXtXtXtXtXtXtXtX",
"tXtXtXtXtXtXtXtX. . X O 1 9 4 r m C Z Z 6.[ { ~ u.<.u.<.2.' ' ' ' _ R : tXtXtXtXtXtXtXtXtXtXtXtX",
"tXtXtXtXtXtXtXtXtX. X O 1 5 4 s s h g } } 5.[ | [ { ~ u.u.<.2.2.' ' T < tXtXtXtXtXtXtXtXtXtXtXtX",
"tXtXtXtXtXtXtXtXtXtXtXtXtX4 ] J.L.I.I.I.I.E.G.$.| | | { [ Q ! ( :.:.T e tXtXtXtXtXtXtXtXtXtXtXtX",
"tXtXtXtXtXtXtXtXtXtXtXtXtX4 } } L.P.W.O.#.T.T.T.E.E.Y.H.X.X.X. .a  . .9 tXtXtXtXtXtXtXtXtXtXtXtX",
"tXtXtXtXtXtXtXtXtXtXtXtXi u h g P.P.W.q.q.P.Q.W.W.P.T.T.$.$.U.U.J.J. .a 1 tXtXtXtXtXtXtXtXtXtXtX",
"tXtXtXtXtXtXtXtXtXtXtXi O.O.+.O.W.W.W.q.m.Q.Q.Q.W.W.R.G.#.$.Y.U.U.J.G. .2 tXtXtXtXtXtXtXtXtXtXtX",
"tXtXtXtXtXtXtXtXtXtX; h D.L.P.G.Q.!.Q.m.m.!.Q.Q.Q.Q.M.n.#.@.Y.@.+.L.J.a 2 tXtXtXtXtXtXtXtXtXtXtX",
"tXtXtXtXtXtXtXtXtX1 a D.L.W.W.W.!.!.!.M.m.Q.!.Q.Q.Q.M.M.M.#.T.@.I.K.J.a 2 tXtXtXtXtXtXtXtXtXtXtX",
"tXtXtXtXtXtXtXtXtX% a L.L.W.W.!.!.!.!.Q.!.Q.Q.Q.Q.!.R.D.M.W.R.P.I.L.] p 2 tXtXtXtXtXtXtXtXtXtXtX",
"tXtXtXtXtXtXtXtXtX3 a L.L.P.W.W.Q.Q.Q.Q.W.Q.q.m.Q.Q.R.Q.Q.R.R.P.I.7.Z 8 tXtXtXtXtXtXtXtXtXtXtXtX",
"tXtXtXtXtXtXtXtXtX+ a D.L.P.P.W.W.Q.W.W.P.q.9.9.+.!.Q.Q.2XR.R.e.0.V n tXtXtXtXtXtXtXtXtXtXtXtXtX",
"tXtXtXtXtXtXtXtXtXtX; h D.L.P.P.P.P.P.H.g S 9.9.0.T.T.Y.Y.R.e.0.7.%.Z m tXtXtXtXtXtXtXtXtXtXtXtX",
"tXtXtXtXtXtXtXtXtXtXtX3 i O.H.L.P.H.+.g g g Z } T.T.R.R.E.e.*X*X].g.%.%.n tXtXtXtXtXtXtXtXtXtXtX",
"tXtXtXtXtXtXtXtXtXtXtXtX4 i u s h h d d d h } U.U.Y.E.e.e.w.w.&X'.`.`.*.v n tXtXtXtXtXtXtXtXtXtX",
"tXtXtXtXtXtXtXtXtXtXtXtXtX8 u s N s s C d K.K.K.U.X.X.X...l.l.y.$X#X).).(.v b tXtXtXtXtXtXtXtXtX",
"tXtXtXtXtXtXtXtXtXtXtXtXtXtXtXu u V d 6.| | X.| X.X.~ a.f.d.k.4.H @X}.}.(.(.x k tXtXtXtXtXtXtXtX",
"tXtXtXtXtXtXtXtXtXtXtXtX7 7 i s S ! { o.o.^ ^ 7.~ p.i.i.d.d.k.z.~.@X}.}.{./.z x tXtXtXtXtXtXtXtX",
"tXtXtXtXtXtXtXtXtXtXtX& D J K t.V.X.7.S.B...8.s.a.a.d.3.d.4.j.z.~.@XoXOX{.[./.z k tXtXtXtXtXtXtX",
"tXtXtXtXtXtXtXtXtXtX$ D A.A.V.C.S.S.S.9X>Xh.h.f.a.a.3.4.&.z.z.z.^.+X+XOXXX[.[.z j tXtXtXtXtXtXtX",
"tXtXtXtXtXtXtXtXtXtX$ D A.b.:X6X7X8X9X9X5Xv.v.h.l.d.d.&.4.z.z.^.@X+XOXOX X[./.c j tXtXtXtXtXtXtX",
"tXtXtXtXtXtXtXtXtXtX* J =Xb.qXqXqXqXwXwX0X9Xc.x.l.l.&.&.H ~.~.#X+X+XOX X X[./.c j tXtXtXtXtXtXtX",
"tXtXtXtXtXtXtXtXtXtX6 J b.C.>X<XqXeXwXwXwX0X9Xc.x.&.*.&X'.#X#X+X+XOX X X|.[./.z j tXtXtXtXtXtXtX",
"tXtXtXtXtXtXtXtXtXtXi K b.A.;X:XeXrXrX4XwX0X9Xc.8.8.'.#X@X@XoX+XOXOX X X.X[./.x j tXtXtXtXtXtXtX",
"tXtXtXtXtXtXtXtXtX* J K ;X=X;XqXrXrX4XeXeXwX0X9X=X].'.@X`.oX+X+XOXOX X X.X.Xc x tXtXtXtXtXtXtXtX",
"tXtXtXtXtXtXtXtXtX$ D =Xb.=XqXqXeXeXeXeX4X0X8X8X-XH '.`._._.XXXX{.OXXX.X/./.c k tXtXtXtXtXtXtXtX",
"tXtXtXtXtXtXtXtXtX$ D =Xb.6X6XqX<XeXeX<X8X8X8XZ.P H F F F _._.XXXX}.XX|.(.z j tXtXtXtXtXtXtXtXtX",
"tXtXtXtXtXtXtXtXtX$ D J b.6X6X,XqXqXqXqX8X7X>XD B N A G G G F F F M ^.M M k k tXtXtXtXtXtXtXtXtX",
"tXtXtXtXtXtXtXtXtXtX$ 6 J b.;X6X6X>X7X7X6X:XS N N A A V b A A A A A k l l = tXtXtXtXtXtXtXtXtXtX",
"tXtXtXtXtXtXtXtXtXtXtXtXN J ;X;Xb.:X:Xb.b.b.N N d t f 7 m C f B.D.C m * r = @ tXtXtXtXtXtXtXtXtX",
"tXtXtXtXtXtXtXtXtXtXtXtX* D J K L L b.L N N 6 7 r r t 5 t t p N.B.f r 2 w # @ tXtXtXtXtXtXtXtXtX",
"tXtXtXtXtXtXtXtXtXtXtXtXtX* * 6 i 6 b 6 tXtX* & % % # 2 w t p a e t t % 9 #   tXtXtXtXtXtXtXtXtX",
"tXtXtXtXtXtXtXtXtXtXtXtXtXtXtXtXtXtXtXtXtXtX$ # X w , % ; e a a a a < w w X   tXtXtXtXtXtXtXtXtX",
"tXtXtXtXtXtXtXtXtXtXtXtXtXtXtXtXtXtXtXtXtXtXtXX X o # - < < n.n.n.n.n.+ o o . tXtXtXtXtXtXtXtXtX",
"tXtXtXtXtXtXtXtXtXtXtXtXtXtXtXtXtXtXtXtXtXtXtXtX  X X O # - ; ; - - - o o   tXtXtXtXtXtXtXtXtXtX",
"tXtXtXtXtXtXtXtXtXtXtXtXtXtXtXtXtXtXtXtXtXtXtXtXtXtXtXX O + 1 1 1 + O tXtXtXtXtXtXtXtXtXtXtXtXtX",
"tXtXtXtXtXtXtXtXtXtXtXtXtXtXtXtXtXtXtXtXtXtXtXtXtXtXtXtXtXtXtXtXtXtXtXtXtXtXtXtXtXtXtXtXtXtXtXtX"
};
