/* XPM */
static char *_c7e618dfe7a4fb0aac9b569d5b25f65GlTqYadu95LUuolU[] = {
/* columns rows colors chars-per-pixel */
"48 48 154 2 ",
"   c #137C00",
".  c #1C7C00",
"X  c #267500",
"o  c #297700",
"O  c #237D00",
"+  c #2C7C00",
"@  c #337701",
"#  c #3D7600",
"$  c #337C01",
"%  c #3C7C01",
"&  c #3D7E08",
"*  c #437601",
"=  c #4A7701",
"-  c #447C01",
";  c #4B7C01",
":  c #447F0B",
">  c #4E7E0A",
",  c #537C01",
"<  c #5B7C01",
"1  c #577E09",
"2  c #637D01",
"3  c #6B7E02",
"4  c #647F08",
"5  c #727F02",
"6  c #957E2A",
"7  c #078200",
"8  c #0E8500",
"9  c #068A00",
"0  c #0B8A00",
"q  c #148300",
"w  c #1B8201",
"e  c #148901",
"r  c #1B8C03",
"t  c #1C8C08",
"y  c #059300",
"u  c #0B9305",
"i  c #238201",
"p  c #2B8301",
"a  c #228A04",
"s  c #2D8905",
"d  c #2B8508",
"f  c #238D08",
"g  c #2C8C0B",
"h  c #348101",
"j  c #3F8607",
"k  c #3C8102",
"l  c #328905",
"z  c #328408",
"x  c #3B8408",
"c  c #3E870E",
"v  c #3B830B",
"b  c #328908",
"n  c #328A08",
"m  c #318B0F",
"M  c #348A0F",
"N  c #358B0F",
"B  c #328C0F",
"V  c #308E0F",
"C  c #33880B",
"Z  c #39890E",
"A  c #3B890F",
"S  c #3D8A0E",
"D  c #3C8A0F",
"F  c #298F10",
"G  c #3F8E13",
"H  c #3E8B13",
"J  c #339317",
"K  c #379117",
"L  c #359417",
"P  c #3F9016",
"I  c #3F9116",
"U  c #389517",
"Y  c #389617",
"T  c #418000",
"R  c #408100",
"E  c #438000",
"W  c #448000",
"Q  c #408507",
"!  c #448205",
"~  c #488104",
"^  c #4B8307",
"/  c #4A8206",
"(  c #40870D",
")  c #44860D",
"_  c #44850D",
"`  c #4F830B",
"'  c #4B840B",
"]  c #4C840B",
"[  c #4B830B",
"{  c #528204",
"}  c #518207",
"|  c #548204",
" . c #548207",
".. c #578206",
"X. c #548104",
"o. c #5B8100",
"O. c #5C8100",
"+. c #5A8106",
"@. c #5C8004",
"#. c #5D8106",
"$. c #5B8104",
"%. c #51840B",
"&. c #54840B",
"*. c #52830C",
"=. c #5A850E",
"-. c #59870F",
";. c #5A830B",
":. c #4D8715",
">. c #438D12",
",. c #458C12",
"<. c #478A12",
"1. c #498B11",
"2. c #498D12",
"3. c #4D8811",
"4. c #538712",
"5. c #5A8512",
"6. c #518910",
"7. c #508A11",
"8. c #518B17",
"9. c #44911B",
"0. c #668101",
"q. c #638304",
"w. c #678004",
"e. c #648103",
"r. c #6D8103",
"t. c #618108",
"y. c #6B830A",
"u. c #748102",
"i. c #7C8202",
"p. c #758308",
"a. c #608110",
"s. c #838402",
"d. c #898603",
"f. c #8D8803",
"g. c #938B03",
"h. c #998E03",
"j. c #9C9103",
"k. c #97802A",
"l. c #9B842A",
"z. c #9F892A",
"x. c #A38D2A",
"c. c #A6912A",
"v. c #AA942B",
"b. c #AE992A",
"n. c #B09B2A",
"m. c #B7A22B",
"M. c #B9A52B",
"N. c #BAA82B",
"B. c #CBBD1A",
"V. c #CEC01A",
"C. c #D5C91A",
"Z. c #F6CD12",
"A. c #F7D312",
"S. c #FFFA2B",
/* pixels */
"u y 9 9 9 9 8 8 q e e w w w w O . i O O O O O p O O X i i O . . i w w q q q   8 8 e 9 0 0 9 9 9 ",
"9 9 9 9 9 q 8 q e f i w w . O O X X X + + $ h $ $ $ h + + + o O O O w O w w q q e r r u 0 9 9 9 ",
"7 9 9 0 8 e q g f d i i O O + + $ o $ $ % $ k % % % % h $ $ $ + + O p i O i w g d f 9 8 q 9 8 9 ",
"9 9 0 e r t V F B i l p p h h $ $ % % % % - - - ; - - % - % % h $ h + p b s M M F r f e 0 0 9 0 ",
"0 u 0 f F V L B p Z >.s h h k % - - - ; ; ; ; / { ; ; ; / ~ ~ - k % h Q ( S G A i B U e e 0 8 0 ",
"r f F Y g 9.P s l 2.l k k k R - - = ; ; , { < $., , , 1 , } ; W / / ` 6.Q 8.2.p g P a e e e 0 0 ",
"t f U g m P l p ,.) k k R - ; ; , , , < o.< < < e.< < < $.< o.} } } =.] [ 7.j p >.M i r r e q 8 ",
"f f J f A A p x 2.k k W - ; = , , < < e.2 2 0.0.0.0.e.e.q.o.o.$.;.$.=.} &.%.k j <.p i i w q q   ",
"t F g g S p h ) R - - ~ = , , < < 2 2 2 3 r.r.r.r.r.r.0.0.0.q.q.q.t.$. .;.R - ' k h p O . . .   ",
"r f r s s h $ h % W ~ ; , < 2 2 3 3 3 5 u.u.u.u.u.u.u.u.u.u.r.0.2 e.o.;.o.; - k $ $ + i O . .   ",
"w r a i O $ % R W ; , , < 2 2 3 3 5 5 u.u.i.i.i.i.i.i.i.u.u.p.0.0.0.e.< , ; ; - k % $ + O . w q ",
"w w i p p h % - ; , o.< 2 2 3 5 5 5 i.i.i.s.s.i.s.s.s.i.i.i.i.u.r.3 0.2 o., , ~ - - $ + X X . . ",
"w i O $ j % - ~ { , < 2 3 3 5 i.i.i.s.s.d.d.k.k.k.k.s.s.d.i.i.i.p.5 3 3 e.< , , ~ - % $ o + i . ",
". i + Q k - } ; o.< 2 3 r.u.i.5 s.s.d.d.f.l.l.l.l.z.z.d.f.d.d.i.s.u.5 p.r.2 q.{ , W % $ + $ o O ",
"O i & ! % > ; , < 2 0.3 5 i.i.s.d.d.d.f.f.z.l.S.S.z.z.f.g.f.f.s.s.u.i.i.r.3 2 < , = * # # + O o ",
"i + & % - 1 ; < < 2 3 u.i.i.s.d.d.d.g.g.z.z.A.S.S.A.x.x.g.f.g.f.d.s.s.5 5 p.0.< < , ; * & $ + z ",
"X @ $ % ; , , < 2 3 5 5 5 6 d.d.f.g.g.g.c.c.S.S.S.S.c.c.h.g.g.f.f.s.s.5 5 5 3 2 2 , = = % $ & O ",
"X + @ * - = < 2 3 u.5 i.i.d.d.f.g.g.h.c.v.B.S.S.S.S.B.v.c.h.g.g.f.d.s.s.s.i.r.2 2 , ; = # & @ O ",
"O $ % * = , < 4 r.5 5 s.s.6 l.x.x.c.v.v.b.S.S.S.S.S.S.b.v.v.c.x.l.l.k.s.5 6 3 5 3 < , = : * @ + ",
"+ $ % - = , 4 p.5 5 i.s.6 l.l.x.x.c.b.b.A.S.S.S.S.S.S.A.b.b.v.x.x.x.l.k.d.5 u.u.3 < < , = & & & ",
"$ $ % = , < 4 3 5 u.s.s.6 x.S.S.S.S.S.S.S.S.S.S.S.S.S.S.S.S.S.S.S.S.l.k.s.s.i.u.3 4 < 1 = * : @ ",
"x k % = , 4 3 3 u.i.s.d.k.l.Z.S.S.S.S.S.S.m.m.S.S.M.m.S.S.S.S.S.S.Z.l.k.s.s.i.3 3 4 < 1 > - > @ ",
"$ % - = , < 2 3 u.6 s.s.f.x.x.S.S.S.S.S.S.M.M.S.S.M.m.S.S.S.S.S.S.x.x.k.d.s.6 r.5 2 2 , = 1 & o ",
"+ - 5.1 < 2 2 3 5 5 s.d.f.x.x.c.S.S.S.S.S.m.M.S.S.M.M.S.S.S.S.S.v.x.z.f.d.s.s.5 3 2 < < , * # & ",
": 4.- 1 , < 3 3 5 s.s.d.d.g.x.v.b.S.S.S.S.M.N.S.S.N.M.S.S.S.S.b.v.x.g.f.s.s.5 5 3 2 < , = * & & ",
":.% > t., 4 3 3 5 5 s.d.f.g.h.v.v.n.S.S.S.N.N.S.S.M.M.S.S.S.b.b.v.h.g.g.d.s.s.5 3 3 < , > > % @ ",
"+ # 5.1 1 4 4 5 5 i.s.d.f.g.g.j.v.n.A.S.S.C.C.S.S.C.C.S.S.A.b.b.h.h.h.f.d.s.i.5 3 3 < < = * # & ",
"$ 4.> > < < 3 3 5 i.s.s.f.g.g.v.b.n.S.S.S.S.S.S.S.S.S.S.S.S.b.v.h.h.g.f.d.s.i.5 3 2 < , = ; : @ ",
"& : - , , 4 2 2 5 5 s.d.f.g.g.c.v.V.S.S.S.S.S.S.S.S.S.S.S.S.V.v.c.h.f.f.d.d.5 5 3 2 < , > - % & ",
"$ & > > , 4 2 2 5 i.i.s.d.f.g.x.c.A.S.S.S.S.S.S.S.S.S.S.S.S.A.v.x.h.g.d.s.s.5 5 2 2 < < ; - % $ ",
"z : - = = < 2 2 5 p.i.s.d.f.z.x.c.S.S.S.S.S.S.A.A.S.S.S.S.S.S.c.x.l.g.d.s.i.5 5 2 2 < = - * & @ ",
"v : * * , , 2 2 3 5 p.i.d.d.l.z.B.S.S.S.S.S.n.n.n.b.S.S.S.S.S.B.x.l.d.s.i.i.5 3 2 < < = = # $ $ ",
"+ $ # * = , < 2 3 3 u.s.s.s.k.x.S.S.S.S.B.b.v.b.b.v.b.B.S.S.S.S.z.l.s.i.i.5 5 3 2 < , = = % $ o ",
"o $ % % - , < < 3 3 5 u.s.s.6 k.S.S.Z.x.c.v.v.j.j.v.v.c.x.A.S.S.l.k.s.i.i.5 3 2 < < 1 ; - $ @ + ",
"X $ $ % - , , 4 2 3 5 5 5 s.6 6 l.l.z.x.x.h.h.h.h.h.h.x.x.z.z.z.k.6 s.i.u.r.2 y.4 1 ; - * $ $ X ",
"O + $ % / / 1 t.4 2 3 5 i.5 s.6 6 l.l.g.g.g.g.g.g.g.g.g.f.l.k.z.6 i.i.u.u.r.3 t.< , } - % $ + O ",
"i + $ ! ] *.=.#.< 4 y.0.5 u.i.s.s.s.d.d.f.f.f.g.g.f.f.f.d.d.d.i.i.i.u.u.u.y.y.q., ;.-.k h $ O O ",
"i z v 3.! 5.=.; o.y.0.e.3 u.5 i.i.s.s.d.d.d.d.s.d.d.d.d.d.d.s.i.i.i.p.p.e.p.y., { =.W % $ p p O ",
"g z <.( _ 4./ ; =.#.o.O.3 0.3 5 i.i.i.s.s.s.6 i.s.d.s.d.s.i.i.i.u.u.p.y.y.y.$.; &.%.k h $ p i . ",
"d g H x [ [ % > ;.~ , o.2 2 3 5 u.u.i.i.i.i.5 6 s.i.i.i.i.i.i.p.p.r.p.q.t.t.; *.-.k k h O O O . ",
"a m b C ( h % ` ~ ; ; , < < 2 2 5 5 5 5 5 5 5 5 i.u.i.u.u.u.u.r.w.w.q.q.q.~ ; ` R $ $ + + O O . ",
"w s i l l h $ $ % - - ; , < < 2 2 2 2 3 5 5 5 5 r.u.r.u.r.r.r.2 2 q.o.$.{ - - k % $ + p X . .   ",
"w r i i O + $ $ % - - - = , , < < 2 2 2 2 3 3 3 0.r.2 0.q.q.e.< < o.~ ; ; - % % $ $ p X . . . q ",
"q q w i i O + + h % % - = = = , , < < 2 2 2 2 < 2 2 2 2 O.e.o.< , ; ~ - - k % $ p $ O O O . w   ",
"8 q w O d O + h $ % $ % * - = = , , , < < < < < < < , < o.o.; ; ; ; - - : % $ $ + + O . . w w   ",
"8 e w g d O d O + + $ @ % * * * = = = = , , = , , , , = 1 ; ; - * k - ! & $ x O d O . . . w . 8 ",
"8 q d s w d O i O + o @ # % % * = * * = = = * = = = = = 1 * ! - % % : Q + & + O O O . . . . 8 . ",
"9 q a w . d w O i X O @ @ + $ j @ # # # * # * * % * * - % # > % $ $ & $ @ C O O O . w O . 8 q t "
};
