/* XPM */
static char *result[] = {
/* columns rows colors chars-per-pixel */
"48 48 109 2 ",
"   c #08C608",
".  c #00C600",
"X  c #00BD00",
"o  c #00B500",
"O  c #08C600",
"+  c #08BD08",
"@  c #08BD00",
"#  c #1DC203",
"$  c #49CD0B",
"%  c #6DD620",
"&  c #B4E740",
"*  c #EEF338",
"=  c #FFF729",
"-  c #EFF437",
";  c #B4E940",
":  c #1FCA0B",
">  c #10CE08",
",  c #10C608",
"<  c #16C203",
"1  c #5CD218",
"2  c #D7EE3A",
"3  c #16CA03",
"4  c #21CE18",
"5  c #18C610",
"6  c #68D51D",
"7  c #6ADC1A",
"8  c #E3F23A",
"9  c #E5F339",
"0  c #60DB14",
"q  c #39D219",
"w  c #18CE10",
"e  c #29D621",
"r  c #1ECA03",
"t  c #AFE831",
"y  c #B7EC33",
"u  c #00CE00",
"i  c #31D621",
"p  c #39D629",
"a  c #C7EE37",
"s  c #C3EB38",
"d  c #26D10B",
"f  c #2FD212",
"g  c #DBF03A",
"h  c #E9F439",
"j  c #29CE18",
"k  c #41D219",
"l  c #DAEF3B",
"z  c #BFEB37",
"x  c #BFE937",
"c  c #9FE72B",
"v  c #92DE28",
"b  c #16BA03",
"n  c #4DD40E",
"m  c #4BC80E",
"M  c #E0F03A",
"N  c #DFEF3B",
"B  c #6ED51E",
"V  c #F0F437",
"C  c #F1F436",
"Z  c #1DBA03",
"A  c #5ED818",
"S  c #10B508",
"D  c #D9EE3A",
"F  c #DCEF3A",
"G  c #2FCA12",
"H  c #49D40B",
"J  c #B8E741",
"K  c #F3F534",
"L  c #F5F533",
"P  c #F5F534",
"I  c #BEED42",
"U  c #BEEB42",
"Y  c #81E227",
"T  c #7AD827",
"R  c #71DC1E",
"E  c #5AD512",
"W  c #E0F13A",
"Q  c #F6F533",
"!  c #6DDB20",
"~  c #F0F436",
"^  c #EAF339",
"/  c #86E326",
"(  c #B7EA33",
")  c #9CE42C",
"_  c #DCF039",
"`  c #CAED39",
"'  c #CAEB39",
"]  c #A0E12C",
"[  c #9BE02C",
"{  c #EAF239",
"}  c #4DCE0E",
"|  c #1EC20A",
" . c #21CE10",
".. c #F8F532",
"X. c #F7F532",
"o. c #8CE229",
"O. c #26CA0B",
"+. c #10BD08",
"@. c #08B500",
"#. c #21BD10",
"$. c #E5F039",
"%. c #6ADA1E",
"&. c #38C312",
"*. c #72D323",
"=. c #BAE541",
"-. c #F0F337",
";. c #BAE842",
":. c #97E32F",
">. c #4ECD0B",
/* pixels */
"  . X X X X o X X O . + @ X X # $ % & * = = = = = = = = - ; % $ : . X X X X o X X O . + @ X X @ ",
"X X . X X X X X . > , . X < 1 2 = = = = = = = = = = = = = = = = 2 1 3 X X X X X . > , . X X X X ",
"o . . X X O X 4 5 5 . < 6 * = = = = = = = = = = = = = = = = = = = = - 6 < O X 4 5 5 . X X X @ X ",
"X . X . > > 4 4 4 3 7 8 = = = = = = = = = = = = = = = = = = = = = = = = 9 0 q 4 4 . w   . . X X ",
".   . w 4 4 e 4 r t = = = = = = = = = = = = = = = = = = = = = = = = = = = = y q O 4 e u . . X X ",
"  w 4 i w p i : a = = = = = = = = = = = = = = = = = = = = = = = = = = = = = = s d i > . . . . X ",
"w w i 4 4 i f g = = = = = = = = = = = = = = = = = = = = = = = = = = = = = = = = h q . . . . . X ",
"w w e w j k l = = = = = = = = = = = = = = = = = = = = = = = = = = = = = = = = = = g 3 . X X X o ",
"> 4 w w k z = = = = = = = = = = = = = = = = = = = = = = = = = = = = = = = = = = = = x < o o o o ",
"O w u f c = = = = = = = = = = = = = = = = = = = = = = = = = = = = = = = = = = = = = = v b o o o ",
"  u . n = = = = = = = = = = = = = = = = = = = = = = = = = = = = = = = = = = = = = = = = m o X X ",
". X 3 M = = = = = = = = = = = = = = = = = = = = = = = = = = = = = = = = = = = = = = = = N b @ o ",
"X X 6 = = = = = = = = = = = = = = = = = = = = = = = = = = = = = = = = = = = = = = = = = = B @ o ",
"X 3 V = = = = = = = = = = = = = = = = = = = = = = = = = = = = = = = = = = = = = = = = = = C Z o ",
"X A = = = = = = = = = = = = = = = = = = = = = = = = = = = = = = = = = = = = = = = = = = = = 1 S ",
"3 D = = = = = = = = = = = = = = = = = = = = = = = = = = = = = = = = = = = = = = = = = = = = F G ",
"$ = = = = = = = = = = = = = = = = = = = = = = = = = = = = = = = = = = = = = = = = = = = = = = H ",
"% = = = = = = = = = = = = = = = = = = = = = = = = = = = = = = = = = = = = = = = = = = = = = = % ",
"& = = = = = = = = = = = = = = = = = = = = = = = = = = = = = = = = = = = = = = = = = = = = = = J ",
"- = = = = = = = = = = = = = = = = = = = = = = = = = = = = = = = = = = = = = = = = = = = = = = K ",
"= = = = = = = = = = = = = = = = = = = = = = = = = = = = = = = = = = = = = = = = = = = = = = = = ",
"= = = = = = = = = = = = = = = = = = = = = = = = = = = = = = = = = = = = = = = = = = = = = = = = ",
"= = = = = = = = = = = = = = = = = = = = = = = = = = = = = = = = = = = = = = = = = = = = = = = = ",
"= = = = = = = = = = = = = = = = = = = = = = = = = = = = = = = = = = = = = = = = = = = = = = = = ",
"= = = = = = = = = = = = = = = = = = = = = = = = = = = = = = = = = = = = = = = = = = = = = = = = ",
"= = = = = = = = = = = = = = = = = = = = = = = = = = = = = = = = = = = = = = = = = = = = = = = = ",
"= = = = = = = = = = = = = = = = = = = = = = = = = = = = = = = = = = = = = = = = = = = = = = = = ",
"= = = = = = = = = = = = = = = = = = = = = = = = = = = = = = = = = = = = = = = = = = = = = = = = ",
"L = = = = = = = = = = = = = = = = = = = = = = = = = = = = = = = = = = = = = = = = = = = = = = P ",
"I = = = = = = = = = = = = = = = = = = = = = = = = = = = = = = = = = = = = = = = = = = = = = = U ",
"Y = = = = = = = = = = = = = = = = = = = = = = = = = = = = = = = = = = = = = = = = = = = = = = T ",
"R = = = = = = = = = = = = = = = = = = = = = = = = = = = = = = = = = = = = = = = = = = = = = = E ",
": W = = = = = = = = = = = = = = = = = = = = = = = = = = = = = = = = = = = = = = = = = = = = M # ",
"X 6 = = = = = = = = = = = = = = = = = = = = = = = = = = = = = = = = = = = = = = = = = = = = 6 X ",
"o 3 Q = = = = = = = = = = = = = = = = = = = = = = = = = = = = = = = = = = = = = = = = = = Q # X ",
"X . % = = = = = = = = = = = = = = = = = = = = = = = = = = = = = = = = = = = = = = = = = = ! X X ",
".   3 ~ = = = = = = = = = = = = = = = = = = = = = = = = = = = = = = = = = = = = = = = = ^ 3 X X ",
"  w 4 / = = = = = = = = = = = = = = = = = = = = = = = = = = = = = = = = = = = = = = = = n . . X ",
"w w i q ( = = = = = = = = = = = = = = = = = = = = = = = = = = = = = = = = = = = = = = ) 3 . . X ",
"w w e w k _ = = = = = = = = = = = = = = = = = = = = = = = = = = = = = = = = = = = = ` 3 X X X o ",
"> 4 w w j 3 F = = = = = = = = = = = = = = = = = = = = = = = = = = = = = = = = = = l < X o o o o ",
"O w u w > X < l = = = = = = = = = = = = = = = = = = = = = = = = = = = = = = = = l < X X o o o o ",
"  u . . X X o < ' = = = = = = = = = = = = = = = = = = = = = = = = = = = = = = ' < @ X o o o X X ",
". X . X . X X X < ] = = = = = = = = = = = = = = = = = = = = = = = = = = = = [ < X @ X o o o @ o ",
"X X X @ 5 X + @ @ # m { = = = = = = = = = = = = = = = = = = = = = = = = - } | @ @ @ o o o @ @ o ",
"X . @  ., @ 5 X @ X o b % ..= = = = = = = = = = = = = = = = = = = = X.o.O.@ 5 X @ X o o X +.@.o ",
"X . #. .X #.+ X @ o o o S # 6 $.= = = = = = = = = = = = = = = = M %.&. .X #.+ X @ o o o S @ X S ",
". @ 5 @ S 5 X @ @ o X S S X @ G $ *.=.-.= = = = = = = = C ;.:.>.3 @ 5 @ S 5 X @ @ o X S S X @ 5 "
};
