/* XPM */
static char *result[] = {
/* columns rows colors chars-per-pixel */
"9 12 5 1 ",
"  c #313131",
". c gray39",
"X c gray68",
"o c gray84",
"O c None",
/* pixels */
"O       O",
" .ooooo. ",
" o.   .o ",
" o OO .X ",
"   O .o. ",
"OOO .o. O",
"OOO XX OO",
"OO .o. OO",
"OO XX OOO",
"OO o. OOO",
"OO o OOOO",
"OO   OOOO"
};
