/* XPM */
static char *result[] = {
/* columns rows colors chars-per-pixel */
"48 48 104 2 ",
"   c #004900",
".  c #00A400",
"X  c #10AC08",
"o  c #08AC00",
"O  c #009C00",
"+  c #009300",
"@  c #002800",
"#  c #082800",
"$  c #089C08",
"%  c #08A400",
"&  c #10A408",
"*  c #089308",
"=  c #21B410",
"-  c #088B00",
";  c #29B418",
":  c #005A00",
">  c #109308",
",  c #008300",
"<  c #007B00",
"1  c #007200",
"2  c #006200",
"3  c #006A00",
"4  c #008B00",
"5  c #089C00",
"6  c #18A410",
"7  c #005100",
"8  c #086A00",
"9  c #087200",
"0  c #107B08",
"q  c #083900",
"w  c #186208",
"e  c #085A00",
"r  c #293900",
"t  c #528321",
"y  c #317B10",
"u  c #296208",
"i  c #187B10",
"p  c #7BA531",
"a  c #A57321",
"s  c #E7A55A",
"d  c #F7C673",
"f  c #F7BD6B",
"g  c #DEB56B",
"h  c #BDC652",
"j  c #D6C65A",
"k  c #F7C663",
"l  c #FFC673",
"z  c #FFC67B",
"x  c #FFBD73",
"c  c #106A08",
"v  c #6B8B31",
"b  c #C6C65A",
"n  c #CEB55A",
"m  c #DECE63",
"M  c #EFAD63",
"N  c #946B18",
"B  c #D6944A",
"V  c #FFBD6B",
"C  c #94B542",
"Z  c #BDA552",
"A  c #A5BD52",
"S  c #DEA55A",
"D  c #8C5A18",
"F  c #AD8429",
"G  c #EFA55A",
"H  c #F7B563",
"J  c #FFB56B",
"K  c #D69C52",
"L  c #8C6318",
"P  c #C68C42",
"I  c #CE8C4A",
"U  c #845208",
"Y  c #FFCE7B",
"T  c #FFD684",
"R  c #FFDE84",
"E  c #AD7339",
"W  c #FFCE84",
"Q  c #FFDE8C",
"!  c #946318",
"~  c #9C6B18",
"^  c #C6AD5A",
"/  c #845A10",
"(  c #EFCE73",
")  c #847321",
"_  c #E7CE6B",
"`  c #F7D67B",
"'  c #ADC652",
"]  c #F7CE6B",
"[  c #427B18",
"{  c #A5CE42",
"}  c #BD9C42",
"|  c #7BB539",
" . c #31A510",
".. c #52AD21",
"X. c #7BC639",
"o. c #94C642",
"O. c #6BB531",
"+. c #6B7310",
"@. c #217308",
"#. c #189C10",
"$. c #18A510",
"%. c #107300",
"&. c #10A508",
"*. c #087B00",
/* pixels */
"  . X o X o O + + + + O + + + + + + + O + . . O O O . . o o o X . . X o X o O + + + + O + + + @ ",
"@ o o . . O + + + + O O + + + + + + + + + . O O O O O O . o o o O o o . . O + + + + O O + + + @ ",
"@ . O O O . O + O O . O + + + O + + + + + O + O + O + O O O o . O . O O O . O + O O . O + + + @ ",
"@ O O O O X + . . O O + + + O O + + + + + + + + + O + O O o o O . O O O O X + . . O O + + + O @ ",
"# $ X X % % X O O O O O % . & % X O X % . O . . . . O . O O O . X X X X % % X O O O O O % . * # ",
"# * X X . % . O O O O % . O O % . % . . % % . . . . O O O O O . = X X X . % . O O O O % . O - # ",
"  + . O O o o X X X . X o . O O + + + + + + . O . o . . + o O o . O . O O o o X X X . X o . +   ",
"  . o . X X X ; X . X ; o . . O O + + + + O . O o o . O O o o o . . o . X X X ; X . X ; o . O   ",
": o X X ; X ; ; o o ; o . . . O + + + O O . O o o . . O o o o o . o X X ; X ; ; o o ; o . . .   ",
"  X X ; X X ; X . ; X . . O O O O + O O O O . o . . O . o o o . o X X ; X X ; X . ; X . . O O   ",
"  X X ; X ; ; O X ; . O O O O + + + + O O O . o . . . o o o o o X X X ; X ; ; O X ; . O O O O   ",
"  o X X X ; . O X . + O + + + + + + + O O O . . . O o o o o o X X o X X X ; . O X . + O + + +   ",
"  . X o X o O + + + + O + + + + + + + O + . . O O O . . o o o X . . X o X o O + + + + O + + + @ ",
"@ o o . . O + + + + O O + + + + + + + + + . O O O O O O . o o o O o o . . O + + + + O O + + + @ ",
"@ . O O O . O + O O . O + + + O + + + + + O + O + O + O O O o . O . O O O . O + O O . O + + + @ ",
"@ O O O O X + . . O O + + + O O + + + + + + + + + O + O O o o O . O O O O X + . . O O + + + O @ ",
"# $ X X % % X O O O O O % . & % X O X % . O . . . . O . O O O . X X X X % % X O O O O O % . * # ",
"# * X X . % . O O O O % . O O % . % . . % % . . . . O O O O O . = X X X . % . O O O O % . O - # ",
"# > X O O O O O O O . . O . . . % O . % . . . . . . O O O O O O % X X O O O O O O O . . O . , # ",
"# < . O O O O + O O . . . . O O O O O O O . O . % O O O O O O O O % . O O O O + O O . . . . 1 # ",
"# 2 + O O O O + O . X % O + O O O + + + O O O % . O O O O O O + O O O O O O O + O . X % O + 2 # ",
"# : , O O O % O X X X . O O O O + + + O O + O . O . % O O O O + O + O O O O % O X X X . O , : # ",
"# : : 3 4 O 5 6 = X . X % . O O + + + O + O . O . % . . O % O % . O % O O X X = 6 & 4 * < : : # ",
"# 7 2 3 8 9 9 9 < < < 0 < 1 1 1 1 1 1 1 1 1 1 1 < < 1 1 1 < < < 1 1 < < < < < 0 8 3 9 9 3 2 7 # ",
"q w w w w e e e e e w w e e e w w w w w e e e e e e w w e e w w w w w w w e e e e e w w e e e q ",
"r t t y u u w w e w w u i y y t t t t y u u w e e e w u y t p p p t t y u u w w e w w u i y y r ",
"a s d f g p y w u p h j j k l z z l l x d h p u c u v b d l z z l x d f g p y w u p n j m d M N ",
"N B V x x x n t C l l l l l l l l l l l l l l Z t A d l l l x x x V x x x x n t C l l l l l S N ",
"D F G M M M B B M V V V x l l z z z l x l l M B H J J H J J H H H H H M M M B B H J J H J J K D ",
"L P G G K G B B S M x z x J H V J H M M M I P M H M G G G M J B B G M G S G B B H M G G G M B U ",
"N S Y Y Y T T R l T R R R Y l M G I S l z Y Y Y z Y z Y Y V M B S T Y Y Y T T R z Y z Y Y V P U ",
"E g Y W W T R R R Q Q Q Q Q T H G K f l l l l l l x x x l z V B V T Y W W T R R l x x x l z M ! ",
"E f W W Y Y T Q R Q Q R R R T V M M x z z z l l l x x x x l l G z T W W Y Y T Q l x x x x l f L ",
"E f W Y Y Y Y R R Q R T T T T z M M V l z z l z z z l l x x l M W T W Y Y Y Y R z z l l x x f N ",
"E f W W W Y Y T R Q R T Y W Y z G M V l l z l z z z z l V x x M Y T W W W Y Y T z z z l V x H ~ ",
"E g W Y z z Y Y R Q R T Y z z l G J l l l z z z z z z z x x x K Y T W Y z z Y Y z z z z x x M a ",
"E g Y Y Y Y Y Y R R T Y Y l l l G V z z l l z z z z z z z z x I T T Y Y Y Y Y Y z z z z z l M ~ ",
"N ^ T Y Y Y Y T T R T Y Y z l l M J V l z z l l l x x x x l V I Y Q T Y Y Y Y T l x x x x l M ! ",
"D I T T Y T T T T T T Y Y Y Y l S G J V x x x x x f f J f d M B f R T T Y T T T x f f J f d B D ",
"/ E f d d d d k k d d d d d H B P I K M H M M M M M H H H M s I I M f d d d d k M M H H H M P U ",
"D F M s s s s s s S K S S K P B B S K K P P P P P B S K K s s s M M M s s s s s P B S K K S F U ",
"N K R R T T S S S s M M M S K M M H f f H M S B S H d x z l l Y T T R R T T S S S H d x z l B L ",
"N g R T T R l K M x l f M V z z z l x f f d H S M f Y Y Y Y Y Y ( T R T T R l K s f Y Y Y Y M N ",
") b T T _ R Q K M l f J l Y _ ` Y Y Y _ m m _ M M Y Y Y Y Y Y Y ' m T T _ R Q K s Y Y Y Y ] g N ",
"[ C ( ` { ` Q } n f f Y ` m ' ` _ ( ( h ' C b n m j ` T T ` ( Y | A ( ` { ` Q } j Y T T ` m C ~ ",
"[  .A A ..X.o.p p g z m _ o.O.A | A A | O...C C ' A j T ( b C _ ....A A ..X.o.p C ( T _ _ C ..+.",
"@.#.....$.$. .$. .o.A O.A O. . .$. . . . . .....| O.O.A | | ..A  .$.....$.$. .$. .C A O.A O. .%.",
"%.5 $.$.&.&.$.&.$... .$.$.$.$.&.$.&.&.&.&.&.&.&.&.&.$. .$.$.&.$.$.&.$.$.&.&.$.&.$... .&.$.$.#.*."
};
