/* XPM */
static char *result[] = {
/* columns rows colors chars-per-pixel */
"48 48 183 2 ",
"   c #003800",
".  c #008000",
"X  c #108808",
"o  c #088800",
"O  c #007800",
"+  c #007100",
"@  c #001E00",
"#  c #081E00",
"$  c #087808",
"%  c #088000",
"&  c #108008",
"*  c #087108",
"=  c #219010",
"-  c #086B00",
";  c #299018",
":  c #004500",
">  c #107108",
",  c #006500",
"<  c #005F00",
"1  c #005800",
"2  c #004B00",
"3  c #005100",
"4  c #006B00",
"5  c #087800",
"6  c #188010",
"7  c #003E00",
"8  c #085100",
"9  c #085800",
"0  c #105F08",
"q  c #082C00",
"w  c #184B08",
"e  c #084500",
"r  c #282B00",
"t  c #495A1D",
"y  c #2C570E",
"u  c #264507",
"i  c #284907",
"p  c #174907",
"a  c #164607",
"s  c #16570E",
"d  c #6B7B2A",
"f  c #6B7F2A",
"g  c #905A1C",
"h  c #A76741",
"j  c #B37C53",
"k  c #B3764D",
"l  c #A1714D",
"z  c #677729",
"x  c #174807",
"c  c #897E3B",
"v  c #9B7E41",
"b  c #B37E47",
"n  c #B97C53",
"m  c #B97C59",
"M  c #B97653",
"N  c #0F4D07",
"B  c #5B5B29",
"V  c #8F7A41",
"C  c #B98959",
"Z  c #B98F59",
"A  c #B98953",
"S  c #957241",
"D  c #A18447",
"F  c #AD6C47",
"G  c #835515",
"H  c #825E15",
"J  c #9B6B35",
"K  c #B9894D",
"L  c #B98353",
"P  c #956E41",
"I  c #46571C",
"U  c #6B712F",
"Y  c #B98F53",
"T  c #89643B",
"R  c #77753B",
"E  c #A17741",
"W  c #835416",
"Q  c #8D6C21",
"!  c #AD7741",
"~  c #AD7D47",
"^  c #9B6735",
"/  c #9B5C35",
"(  c #AD7747",
")  c #B37147",
"_  c #B97D4D",
"`  c #B9834D",
"'  c #B38347",
"]  c #B37D47",
"[  c #9B713B",
"{  c #7C5015",
"}  c #7C5715",
"|  c #8F652F",
" . c #956535",
".. c #774907",
"X. c #B99759",
"o. c #B99F62",
"O. c #B9A762",
"+. c #956331",
"@. c #A1834D",
"#. c #B99762",
"$. c #B9A76A",
"%. c #B3894D",
"&. c #835715",
"*. c #895E15",
"=. c #90641C",
"-. c #8F7D41",
";. c #B38F53",
":. c #7F570F",
">. c #8F5F2F",
",. c #B38F47",
"<. c #A77741",
"1. c #875617",
"2. c #8F6D22",
"3. c #7C4D07",
"4. c #AD9753",
"5. c #745B1D",
"6. c #8F8A41",
"7. c #A7974D",
"8. c #B39F59",
"9. c #A19747",
"0. c #7D8F3B",
"q. c #B3974D",
"w. c #3B5615",
"e. c #AD8F53",
"r. c #B39759",
"t. c #77862F",
"y. c #89712F",
"u. c #958341",
"i. c #A18F47",
"p. c #7D7F3B",
"a. c #898A3B",
"s. c #6B742F",
"d. c #9B8F41",
"f. c #64842E",
"g. c #77793B",
"h. c #8A5515",
"j. c #405D17",
"k. c #2B730E",
"l. c #46761C",
"z. c #658F2F",
"x. c #6B802F",
"c. c #667A28",
"v. c #A17D4D",
"b. c #A78A4D",
"n. c #6B7C2F",
"m. c #587828",
"M. c #66832F",
"N. c #5D7E2A",
"B. c #7D863B",
"V. c #A7804D",
"C. c #47771C",
"Z. c #657928",
"A. c #A7834D",
"S. c #67550F",
"D. c #215C08",
"F. c #17770F",
"G. c #487A1D",
"H. c #177D0F",
"J. c #2C750E",
"K. c #77743B",
"L. c #5A7A29",
"P. c #2E7A0F",
"I. c #167A0F",
"U. c #2F7D0F",
"Y. c #318110",
"T. c #48791D",
"R. c #6A8631",
"E. c #66862F",
"W. c #6A8831",
"Q. c #2B720E",
"!. c #105800",
"~. c #105E00",
"^. c #087D00",
"/. c #188310",
"(. c #188210",
"). c #108208",
"_. c #108108",
"`. c #188110",
"'. c #16760E",
"]. c #0F7D07",
"[. c #0F7A07",
"{. c #187810",
"}. c #085F00",
/* pixels */
"  . X o X o O + + + + O + + + + + + + O + . . O O O . . o o o X . . X o X o O + + + + O + + + @ ",
"@ o o . . O + + + + O O + + + + + + + + + . O O O O O O . o o o O o o . . O + + + + O O + + + @ ",
"@ . O O O . O + O O . O + + + O + + + + + O + O + O + O O O o . O . O O O . O + O O . O + + + @ ",
"@ O O O O X + . . O O + + + O O + + + + + + + + + O + O O o o O . O O O O X + . . O O + + + O @ ",
"# $ X X % % X O O O O O % . & % X O X % . O . . . . O . O O O . X X X X % % X O O O O O % . * # ",
"# * X X . % . O O O O % . O O % . % . . % % . . . . O O O O O . = X X X . % . O O O O % . O - # ",
"  + . O O o o X X X . X o . O O + + + + + + . O . o . . + o O o . O . O O o o X X X . X o . +   ",
"  . o . X X X ; X . X ; o . . O O + + + + O . O o o . O O o o o . . o . X X X ; X . X ; o . O   ",
": o X X ; X ; ; o o ; o . . . O + + + O O . O o o . . O o o o o . o X X ; X ; ; o o ; o . . .   ",
"  X X ; X X ; X . ; X . . O O O O + O O O O . o . . O . o o o . o X X ; X X ; X . ; X . . O O   ",
"  X X ; X ; ; O X ; . O O O O + + + + O O O . o . . . o o o o o X X X ; X ; ; O X ; . O O O O   ",
"  o X X X ; . O X . + O + + + + + + + O O O . . . O o o o o o X X o X X X ; . O X . + O + + +   ",
"  . X o X o O + + + + O + + + + + + + O + . . O O O . . o o o X . . X o X o O + + + + O + + + @ ",
"@ o o . . O + + + + O O + + + + + + + + + . O O O O O O . o o o O o o . . O + + + + O O + + + @ ",
"@ . O O O . O + O O . O + + + O + + + + + O + O + O + O O O o . O . O O O . O + O O . O + + + @ ",
"@ O O O O X + . . O O + + + O O + + + + + + + + + O + O O o o O . O O O O X + . . O O + + + O @ ",
"# $ X X % % X O O O O O % . & % X O X % . O . . . . O . O O O . X X X X % % X O O O O O % . * # ",
"# * X X . % . O O O O % . O O % . % . . % % . . . . O O O O O . = X X X . % . O O O O % . O - # ",
"# > X O O O O O O O . . O . . . % O . % . . . . . . O O O O O O % X X O O O O O O O . . O . , # ",
"# < . O O O O + O O . . . . O O O O O O O . O . % O O O O O O O O % . O O O O + O O . . . . 1 # ",
"# 2 + O O O O + O . X % O + O O O + + + O O O % . O O O O O O + O O O O O O O + O . X % O + 2 # ",
"# : , O O O % O X X X . O O O O + + + O O + O . O . % O O O O + O + O O O O % O X X X . O , : # ",
"# : : 3 4 O 5 6 = X . X % . O O + + + O + O . O . % . . O % O % . O % O O X X = 6 & 4 * < : : # ",
"# 7 2 3 8 9 9 9 < < < 0 < 1 1 1 1 1 1 1 1 1 1 1 < < 1 1 1 < < < 1 1 < < < < < 0 8 3 9 9 3 2 7 # ",
"q w w w w e e e e e w w e e e w w w w w e e e e e e w w e e w w w w w w w e e e e e w w e e e q ",
"r t t y u i w w e p a u s y y t t t t y u u p e e e p u y t d f d t t y u i w w e p a u s y y r ",
"g h j k l z y x u z c v v b n m m n n M j c z u N u B V j n C Z A M j k l z y x u z S v D j F G ",
"H J K A A L P I U A Y Y Y Y Y Y Y Y Y Y Y Y A T I R j A Y Y A A A K A A A L P I U A Y Y Y Y E H ",
"W Q ! ~ ~ ~ ^ / ( K K K A Y Y Z Z Z Y A Y Y ~ ^ ) _ ` ' ` ` ' ' ' ' ' ~ ~ ~ ^ / ] ` ` ' ` ` [ { ",
"} | ! ! [ ! J J E ~ A Z A ` ' K ` ' ~ ~ ~  .| ~ ' ~ ! ! ! ~ ` J J ! ~ ! E ! J J ' ~ ! ! ! ~ J ..",
"H E X.X.X.o.o.O.Y o.O.O.O.X.Y ~ !  .E Y Z X.X.X.Z X.Z X.X.K ~ J E o.X.X.X.o.o.O.Z X.Z X.X.K | ..",
"+.@.X.#.#.o.O.O.O.$.$.$.$.$.o.' ! [ %.Y Y Y Y Y Y A A A Y Z K J K o.X.#.#.o.O.O.Y A A A Y Z ~ &.",
"+.%.#.#.X.X.o.$.O.$.$.O.O.O.o.K ~ ~ A Z Z Z Y Y Y A A A A Y Y ! Z o.#.#.X.X.o.$.Y A A A A Y %.} ",
"+.%.#.X.X.X.X.O.O.$.O.o.o.o.o.Z ~ ~ K Y Z Z Y Z Z Z Y Y A A Y ~ #.o.#.X.X.X.X.O.Z Z Y Y A A %.H ",
"+.%.#.#.#.X.X.o.O.$.O.o.X.#.X.Z ! ~ K Y Y Z Y Z Z Z Z Y K A A ~ X.o.#.#.#.X.X.o.Z Z Z Y K A ' *.",
"+.@.#.X.Z Z X.X.O.$.O.o.X.Z Z Y ! ` Y Y Y Z Z Z Z Z Z Z A A A [ X.o.#.X.Z Z X.X.Z Z Z Z A A ~ =.",
"+.@.X.X.X.X.X.X.O.O.o.X.X.Y Y Y ! K Z Z Y Y Z Z Z Z Z Z Z Z A  .o.o.X.X.X.X.X.X.Z Z Z Z Z Y ~ *.",
"H -.o.X.X.X.X.o.o.O.o.X.X.Z Y Y ~ ` K Y Z Z Y Y Y A A A A Y K  .X.$.o.X.X.X.X.o.Y A A A A Y ~ &.",
"{  .o.o.X.o.o.o.o.o.o.X.X.X.X.Y E ! ` K A A A A A %.%.` %.;.~ J %.O.o.o.X.o.o.o.A %.%.` %.;.J { ",
":.>.%.;.;.;.;.,.,.;.;.;.;.;.' J |  .[ ~ ' ~ ~ ~ ~ ~ ' ' ' ~ <. . .~ %.;.;.;.;.,.~ ~ ' ' ' ~ | ..",
"1.2.~ <.<.<.<.<.<.E [ E E [ | J J E [ [ | | | | | J E [ [ <.<.<.~ ~ ~ <.<.<.<.<.| J E [ [ E Q 3.",
"H [ O.O.o.o.E E E <.~ ~ ~ E [ ~ ~ ' %.%.' ~ E J E ' ;.A Z Y Y X.o.o.O.O.o.o.E E E ' ;.A Z Y J } ",
"H @.O.o.o.O.Y [ ~ A Y %.~ K Z Z Z Y A %.%.;.' E ~ %.X.X.X.X.X.X.4.o.O.o.o.O.Y [ <.%.X.X.X.X.~ H ",
"5.6.o.o.7.O.$.[ ~ Y %.` Y X.7.8.X.X.X.7.9.9.7.~ ~ X.X.X.X.X.X.X.0.9.o.o.7.O.$.[ <.X.X.X.X.q.@.H ",
"w.U e.r.t.r.$.y.u.%.%.X.8.i.p.r.7.4.4.a.p.s.6.u.9.d.8.o.o.8.4.Z f.g.e.r.t.r.$.y.d.X.o.o.8.i.s.h.",
"j.k.R R l.z.x.c.c.v.C D b.n.m.R f.g.g.M.N.l.U s.B.g.v #.4.6.s.V.C.l.R R l.z.x.Z.s.e.#.A.b.U l.S.",
"D.F.G.G.H.H.J.H.J.n.R m.K.L.P.J.I.J.J.U.Y.U.T.T.R.N.L.R E.W.l.K.J.H.T.T.H.H.J.I.Q.U R m.K.L.U.!.",
"~.^./.(.)._.`._.H.T.J.I.'.H.`._.`._._._._._._._._._.H.J.H.`.].'.H._.`.`._._.`._.H.T.J.[.'.H.{.}."
};
