/* XPM */
static char * floor_rock_xpm[] = {
"16 16 4 1",
" 	c None",
".	c #A3754E",
"+	c #9C6546",
"@	c #B3957F",
"....+++++++++++.",
"++++++.....+++++",
"++++....++......",
"..@@+...........",
"..@@+.....++....",
"..++............",
".++++++@@@@@....",
"++++++@@@@@@@.++",
".....@@@@@@@@+++",
".....@@@@@@@@+..",
".....@@@@@@@@+..",
"...++@@@@@@@+...",
".+++++@@@@@+.++.",
"+++...+++++.....",
"................",
".......+++++...."};
