/* XPM */
static char *result[] = {
/* columns rows colors chars-per-pixel */
"60 60 84 1 ",
"  c #496E4C",
". c #4C714F",
"X c #4D7250",
"o c #4B704E",
"O c #4A6F4D",
"+ c #4B704F",
"@ c #517654",
"# c #486C4B",
"$ c #4C7150",
"% c #4B7050",
"& c #4B6F4D",
"* c #4D714F",
"= c #4C704F",
"- c #4A6E4D",
"; c #4D7150",
": c #4E7250",
"> c #4A6F4E",
", c #4F7452",
"< c #4D7251",
"1 c #4E7251",
"2 c #4E7351",
"3 c #496D4C",
"4 c #486D4C",
"5 c #496E4D",
"6 c #4D7252",
"7 c #4F7351",
"8 c #4D7151",
"9 c #4B6F4E",
"0 c #486D4B",
"q c #4C7151",
"w c #4E7352",
"e c #4F7352",
"r c #4E7353",
"t c #4C714E",
"y c #4C704E",
"u c #4A6E4E",
"i c #527754",
"p c #4E7350",
"a c #4F7451",
"s c #4E7151",
"d c #4B6F4F",
"f c #476B4A",
"g c #4D724F",
"h c #496D4D",
"j c #4C7050",
"k c #486C4C",
"l c #476B4B",
"z c #517653",
"x c #4B6E4E",
"c c #507553",
"v c #507452",
"b c #517553",
"n c #4B704D",
"m c #486B4B",
"M c #4A6D4D",
"N c #496C4C",
"B c #476C4B",
"V c #4A6D4C",
"C c #4E7150",
"Z c #527755",
"A c #507552",
"S c #4A6F4C",
"D c #486D4D",
"F c #456949",
"G c #476A4A",
"H c #466A4A",
"J c #4F7252",
"K c #476C4A",
"L c #4F7453",
"P c #496E4E",
"I c #4C6F4F",
"U c #466B4A",
"Y c #537855",
"T c #4C6F4E",
"R c #527654",
"E c #4E7252",
"W c #4A6E4C",
"Q c #446748",
"! c #4B6E4D",
"~ c #496D4B",
"^ c #4F7552",
"/ c #446848",
"( c #507453",
") c #4E724F",
/* pixels */
" .XoOo..  oO+o@o  ..ooOoO.X+OX.#oO$%oX&*$O&&X.==X+-;:=O>$.o.",
" ,<1X.X.X.<..oO2X.,.,XO.,XO.XX+3$O>45<<o..;=5+6O-o4.X$2.oO7X",
".o><oo..X$o.O+X;OOXXO X2,ooo=2$16<6o.8+99.O02O=o<2+55+qwX;+e",
",..Xo.oOo+.XXw.o.OX.o>.X.$oO=1r2.ww2X.<XO2+=O.2..2.9=>>=+= e",
",t.2X..;;yoO:*OXXX<O$X.X<< oOXwX+O.X. oo5X$4>.X2o2<.2Xuu>23i",
",ppa.+993--> -9y=s44uO5>03#-=>+ud5459- 3>+f#-9 O53+;=+5#9;52",
"paag9-9-993h-$;==;#359u=33-#u#j3=3#3hh5uhdkl>u43h3>5#l-  +>g",
".2z2yxcvv,p*7@:c,X2Xgv22Xt*OXy,X7.2yo+.<2<2.>O.X.X.o5l9.O .:",
",X7a=3v,:2cX,v*c7ta:X2g**a:y7..p*XX:*.X:ppvX**OXy29=Ok>X.o=,",
"b*2p.-:,:Xv..7g,v7,nt:gg,zc:*:2X:Xo**2c,9.277gXy.::oo5+2=o&,",
"v:,o=-.7:.933l-+-==hm#M9$$u3-93=9>f3Nd$j34BdB=xMVy2X.449&.y,",
"2:7.O5X.*99.X&*1:Xw$&yXX;.y=C1*:.+**y==*Xo=ooyoB3gX..>>.2XwZ",
"XvcXOh:,X9*A,*:ogtX,AppyXXtt,c*aO:7A7*2:.2,:g7gSfXtoOkow..1i",
"cA*O--g:24&a.oyotg.a,2X,2p.,.nX*tyygp2X..7:gay* h27.qD3Oo.O7",
"c,**9-7p2u=o,7o2.@2.:7:XX:OX*2S:y::*..a7:ppAg@*1;goyo5>u#>+c",
",O.X 42XX-+aA2mFhlGHmmklkduMJFlGkHuHHkkulNkm,Op2-X2XXkKqL9 .",
":2y.Ohpg,9=7c@Mt:2*....gAa.o2yzg*2*.oAcXv*&32Xao3SoX29=.+XOX",
"2gX2;97.*#y,@gky,.2*2a,7a*:X.2Oy:O.p**7,p7Xu**&.4Xp*ON;o-=..",
"Xo,a=-7,.>1.2:m2,a:c72:2yygccz.22:otXpAXtytfv,,.kXAX+kd2oy&p",
"*p,gydb2X=ecgyN@opacc2XoO:A7*ac*Oy2gX:,,X*.H,,c&#:7*<kP$5-37",
":A:g.-A:y3=7..G2.acX-9<==;=y+.=;;y9yo9:cA:b3vg7Om:7X=l#.59 O",
":g*7;-:X:I.7X.H.22,Ol3--3--3#9+999-9-49ac2,u7gpX3o2Xyk-..9oo",
":ggp&3*pp9.cgtlvcygO+.X:t:vvXXccaggX:3-*X.Xkp:gXdyX:.k>X.3+2",
":&.7n3:aX9$cgtH,,*X93tc:y7v,*A:27272299*ogv3p*:;-&X2Xk4.o-.X",
"7oAyy-g:X>Xa.*F**7o.-27y.g:*o:22p777a;;p*c7#.XgX5.X.OU>.$>;7",
"XXa,;=2.X>2,oX#,y7:=3.2paX.pX72tA7*7,=9oX22N:*gy32gyo#>..OXY",
"2,,7X-,pa-=:oaMpcgcX#gc,X22,:oaopy&vcyoX7,.3v*t*H,,2255o2>6i",
"pcO..d2Xo5>np:3.aXA:5.27*.g::Xg,cacb.3T*,2ok:X,oMp7:o-9o<.97",
"g2X,e9p7yM;y:oh2v:py=:Xc:OXg:A,@@RvXy3=X.*:l*o2:jvggn#5o.hEg",
"7tpX5f*7a9Wg7vd,vcp:-.ppAv.i&:7:.XX,a -**ycQ:pv*#tX.of#.1o.c",
"oo,7;>&2.M=pcal2O,,y+catyazc@.gA7Xcc739:bc@kgo,9j77yox+.o  ,",
"0v*.y3.pi9X,2@FconpO32@a2*g:XyvY.:abv<+.ppcuO2p2#7,:ofdXwoon",
"acX.9#7:o#.2gpkO,,cX>@c7v2v7*zna*2v7c;=X:yXhpX.*up:pglB=.oov",
"cg::=3::X3Og:ck.p*:=#2777:y:,,.::.p,A==,7:XH2g29mpga.k>o2ooa",
"Xp,,&322p--.pcma7:*=M:v,.oX*7a7,*::,7-97,:pFov2XM:X2X3 XX Og",
"2g.2O-p2*3.a,cN,,y2;>X2:22,.7*2:7.p:a99:X*vlX7.2h2.g2u9ww.og",
"ppO,;9a,:397.gh72yX+>X**a@vXp*.77.gX:=<p..t#,:X;N*:2.-+oX.O.",
"ao271=22,3O2Xgh2.o2.OaA,ccX:,A*:c7:,7==7:,pkeX:*3*p2.#-OoXo*",
"7O@7X-gp,9X,a:knp..o49$==!9=99;33T-9=d;zva2H2vy*Ng.yy#d<.X>X",
"&.c2;3Xo.-1X7XNt.pgX9-9;$9*- y+~3.==*9;2AA2h:Xonlyy.g35..o.t",
",.Ry.3.XX>X,7:mo*7p22yyX,:tng722*gp272at27ph*o2ou2XaA55O.2X*",
"cXpX-kX2X5:,@Xm.pz^2@vXX2gS:.7.pt*22:272XXvh;Xp,3*:77d=o22.2",
"p,AA&k*p*92a:cHv:,yXA,2:oyXO*OAOgypvyXpvc,bh1cv+# .:79o22.2,",
"aO.cw9pp*+;v:bMnO2.22X2XXgX@,o.acza*X2.n,7cNgA2 mgX*t3 XXX,A",
"o2:XO>,Xg#=,2*FukGlh#klHGmmlFdMmkkNNMul/H/+m:SttF*72*3B.2OXy",
"cc:X&-p2:->22ztt7@c*.*7ycptvvZ777cgX,,.&yX.Ov:p*3X,y&-4.O.+:",
"&,yXe;72X#XcAggg2:,c7p7*:,ygov2b:2X,2:c2OXg:a,c,jvg.t9Ooo.o,",
"Oog:y>XX.3=A7tc::Wo.AAavpgg.z7,v,c,X2zv:..*.&oXOxcvvp3O2X+>:",
"Xo77yu::7T9X;-:>(9.9=*;;;.9:*=9.9..oyoy.3o..yy*2hcvv,oj$..+2",
",:ccO3:pgo3NkM3>=543#u4k-5-x=B-9-f3hk-9I!9u5--3+-g.X:5+o.Xo:",
":.2,W-p.Xv272voc2X2X.pXg..2XZ2*pgoX2..:*:,p:72g,7XX2733o;117",
"nXX2 ho&2aXcX2pc,,.X..Xpt.2*,77*.g2,7g*y7v2*XO&Xc,.:p#-.22.*",
"OX,X&3tp22.2*7c2@7StynXagXog:v7.7p*.XXapvvXtXO2:cv2,23d,2.oy",
":*goO>7vXX2Xg:::b:taX.Xootg2,A2X,2:*tOX:77g.o.,72v,cXh9:X..y",
"cX:A9NTI93$933N=;dB5-5h-33--d=#99>u4##hu33>9lu3>o99=939.2o+7",
".22coOo2.9+9.=;*=11$9y&=;:woX23=-2;.=....o1=9yOX:.X.e*oX(.O:",
",,:,yO**t,,2.ac.av,2,7*ga:2v22:,ob7p2*g:*2X:*:@2:7p.2X&.X.ov",
",cX:XX,.ga22.n:Xc7yXc2X:XA7,Xc2ApcvtXonX.c.a*pg*)X2::77X.o.g",
"yc.:XAA7,c,7cpy:zty:7:pa722ZAg.,p:X:,:*t,c*22:cy:,22cc.O .w.",
"2,2y.*.,,277,,:pggt7A::vc,zcnyv@v2p...:v2igppS*7c2c.2*y<$6<c"
};
