/* XPM */
static char *result[] = {
/* columns rows colors chars-per-pixel */
"48 48 39 1 ",
"  c #08C608",
". c #00C600",
"X c #00BD00",
"o c #00B500",
"O c #08C600",
"+ c #08BD08",
"@ c #08BD00",
"# c #00CE00",
"$ c #10CE08",
"% c #10C608",
"& c #21CE18",
"* c #18C610",
"= c #18CE10",
"- c #29D621",
"; c #31D621",
": c #39D629",
"> c #29CE18",
", c #10D608",
"< c #08CE00",
"1 c #211010",
"2 c #293108",
"3 c #427308",
"4 c #6B9421",
"5 c #21CE10",
"6 c #10BD08",
"7 c #08B500",
"8 c #10B508",
"9 c #395221",
"0 c #21BD10",
"q c #7BA529",
"w c #BDB5A5",
"e c #39DE29",
"r c #4A395A",
"t c #8C8C18",
"y c #6B7310",
"u c #291839",
"i c #733984",
"p c #18BD10",
"a c #08AD08",
/* pixels */
" .XXXXoXXO.+@XX@XXXX...#.XX...XX .XXXXoXXO.+@XX@",
"XX.XXXXX.$%.XXXXoooXX.#.X...XXoXXX.XXXXX.$%.XXXX",
"o..XXOX&**.XXX@XXoXXo.#X.OX.XXXXo..XXOX&**.XXX@X",
"X.X.$$&&&.= ..XXXXXXX... ..X%X .X.X.$$&&&.= ..XX",
". .=&&-&O&-#..XXXXXX... O.XX  $.. .=&&-&O&-#..XX",
" =&;=:; $;$....XooXX..  ..X O$ . =&;=:; $;$....X",
"==;&&;=.-&.....XXXX... .... $ .$==;&&;=.-&.....X",
"==-=>>X*-...XXXooXX.X.O.#.$$,#<===-=>>X*-...XXXo",
"$&==>.@&%XXXoooo11.XX..#.<$< 111$&==>.@&%XXXoooo",
"O=#=$XXXXXXXooo1111o..X.X#O#11111=#=$XXXXXXXoooo",
" #..XXoXX@XoooX11111.XXXX.X111111#..XXoXX@XoooXX",
".X.X.XXXX@Xooo@111111222222111111X.X.XXXX@Xooo@o",
"XXX@*X+@@@ooo@@oo1111234321111..XXX@*X+@@@ooo@@o",
"X.@5%@*X@XooX67o82291144411992..X.@5%@*X@XooX67o",
"X.05X0+X@ooo8@X8224431141134392.X.05X0+X@ooo8@X8",
".@*@8*X@@oX88X@*29q9221412294322.@*@8*X@@oX88X@*",
"X7X76@X@7oX8@X*22q9ww29491ww9332X7X76@X@7oX8@X*.",
"XXo7XX.@@.X@X%+229ww9194919ww9322Xo7XX.@@.X@X%+X",
"XXXXXX@0&X@@%%2234ww1194911ww4332XXXXX@0&X@@%%++",
".XXXXX%-Oo+%%+229www9194919www9322XXXX%-Oo+%%+%*",
"$.XoXO-$X%%%+22q9wwwww444wwwww9332XoXO-$X%%%+O*=",
",#XXX5=X%*++%22q49wwwq444qwww943322XX5=X%*++%$5%",
"<X O++X *@@%224244444444444444423322++X *@@% &%X",
".=e**XX*@@+@249w244444444444442w2322*XX*@@+@%@+*",
"&e$*XX*.X@X2249ww2432222222342ww23322X*.X@XX.+*$",
"e.*: %%XXXX2249www222rrrrr222www23322%%XXXX.+% %",
"# e&*%%+XX.2249www22rrrrrrr22www23322%%+XX.+@+%*",
" ;&$% *XXX.2294229344444444439223332% *XXX.X@%% ",
"=& *O*.XXXXX223444444444444444433322O*.XXXXX%%%*",
"$=&%%*XXXX.O+2123399333333339933212%%*XXXX.O+%%%",
"$&=.O..XX.O.X@%11133tttttttt33111&=.O..XX.O.X@%+",
"&=.X..XXX..X@@.%@2yyttttttttty2O&=.X..XXX..X@@.%",
" .XXXXoXXO.+@XX@X2yyttttttttty2X .XXXXoXXO.+@XX@",
"XX.XXXXX.$%.XXuuurryytttttttyrruuu.XXXXX.$%.XXXX",
"o..XXOX&**.XXuiiiii9yyyyyyyy9iiiiiuXXOX&**.XXX@X",
"X.X.$$&&&.= uiiiiiir222222222iiiiiiu$$&&&.= ..XX",
". .=&&-&O&-#uriiiiru... O.XXuriiiiiu&&-&O&-#..XX",
" =&;=:; $;$.uurrrruX..  ..X Ouriiiuu=:; $;$....X",
"==;&&;=.-&...uuuuuX... .... $ uuuuu&&;=.-&.....X",
"==-=>>X*-...XXXooXX.X.O.#.$$,#<===-=>>X*-...XXXo",
"$&==>.@&%XXXoooooo.XX..#.<$< <,,$&==>.@&%XXXoooo",
"O=#=$XXXXXXXoooooXXo..X.X#O##<=.O=#=$XXXXXXXoooo",
" #..XXoXX@XoooXXoooo.XXXX.X.#$$X #..XXoXX@XoooXX",
".X.X.XXXX@Xooo@ooooX.oXoXX.X.$...X.X.XXXX@Xooo@o",
"XXX@*X+@@@ooo@@oo7ooX7ooXoXX%$..XXX@*X+@@@ooo@@o",
"X.@5%@*X@XooX67o86oX77o7X77.*...X.@5%@*X@XooX67o",
"X.05X0+X@ooo8@X8poo77ooXX7X *X$.X.05X0+X@ooo8@X8",
".@*@8*X@@oX88X@*Xo7oooaXo7.*.+>@.@*@8*X@@oX88X@*"
};
