/* XPM */
static char *c627354fc478402afff5ef1820d4960b2koPne0gwttD2HqO[] = {
/* columns rows colors chars-per-pixel */
"48 51 17 1 ",
"  c None",
". c #180808",
"X c #311000",
"o c #181839",
"O c #393939",
"+ c #3F3F3F",
"@ c #421800",
"# c #600000",
"$ c #7B4210",
"% c gray39",
"& c #B51021",
"* c #A56B31",
"= c #C69C31",
"- c #BD8C5A",
"; c #2121DE",
": c gray71",
"> c gray74",
/* pixels */
"                   @@@@@                        ",
"                 @@@####@@                      ",
"                 @##&&&&#@@@                    ",
"                @#&&&&&&&&#@@                   ",
"                @#&::::&&&&#@@                  ",
"               @#&:#:#::&&&&#@@                 ",
"               @#&:###>:&&&&&#@@                ",
"           ......#>###::&&&&&&#@                ",
"          ...........>:&&&&&&&#@@               ",
"           ............&&&&&&&&#@               ",
"              ..........#&&&&&&#@@@@            ",
"               .@----.....#&&&&&###@@           ",
"               .@*------....#&&&#&&#@@          ",
"             .....---..---$...&&&&&&#@          ",
"            .@@@..---..-----$..#&&&&#@          ",
"           .@*--$.---..-------@.X#&&#@          ",
"          .@*--------..-------@@..##@@          ",
"          .@---------$$-----@@@@----@.          ",
"          .@----------------@@@------@.         ",
"          .@*----------..----@$--$$--@.         ",
"           .@*--------....-------$---@.         ",
"            .@*-----......----------@..         ",
"             ...........$----------@..          ",
"              ..........--------@@@..           ",
"               .......--------@@...             ",
"                 .@$-------$@@..                ",
"                  .@@@@@@@@@..                  ",
"                  oo##&&o;;o#@                  ",
"                 oo#&&&o;;;o&#@                 ",
"                oo#&&&o;;;o&&&#@                ",
"               ooooooo;;;;o&&&&#@               ",
"              @@=;;;;;;;;;o&&&&##@              ",
"             @@==;;;;==$;;;#&&&&#+.             ",
"             @@==;;;====;;+:::>:::O.            ",
"             @@=$;;;====;OO:::::::O.            ",
"              oo;;;;;==$;O::::::%::O.           ",
"              oo;;;;;;;;;O::::%:%::O.           ",
"               oo;;;;;;;;O::::%::::O.           ",
"               oo;;;;;;;;OO%::::::OO.           ",
"                oo;;;;;;;;OO::::%OO.            ",
"                 ooo;;;;;;;OOOOOOO.             ",
"                ..ooooo;;;;;;;OO..              ",
"               ...@@ooooooooooo.                ",
"              ...@@@@.@@@@@.....                ",
"              ..@@@@.@@**@@@.@@..               ",
"              ..@@@@.@@**@@@.@@..               ",
"              .......@@@@@@@.@@..               ",
"              ...@@@..@@@@@@$$*..               ",
"               ......$*****$$...                ",
"                ...............                 ",
"                     ........                   "
};
