/* XPM */
static char *_4da3a5903b44092d8665c116f4a5c53STzNG2ugXsCupI4X[] = {
/* columns rows colors chars-per-pixel */
"48 51 17 1 ",
"  c None",
". c #180808",
"X c #311000",
"o c #181839",
"O c #393939",
"+ c #3F3F3F",
"@ c #421800",
"# c #600000",
"$ c #7B4210",
"% c gray39",
"& c #B51021",
"* c #A56B31",
"= c #C69C31",
"- c #BD8C5A",
"; c #2121DE",
": c gray71",
"> c gray74",
/* pixels */
"                        @@@@@                   ",
"                      @@####@@@                 ",
"                    @@@#&&&&##@                 ",
"                   @@#&&&&&&&&#@                ",
"                  @@#&&&&::::&#@                ",
"                 @@#&&&&::#:#:&#@               ",
"                @@#&&&&&:>###:&#@               ",
"                @#&&&&&&::###>#......           ",
"               @@#&&&&&&&:>...........          ",
"               @#&&&&&&&&............           ",
"            @@@@#&&&&&&#..........              ",
"           @@###&&&&&#.....----@.               ",
"          @@#&&#&&&#....------*@.               ",
"          @#&&&&&&...$---..---.....             ",
"          @#&&&&#..$-----..---..@@@.            ",
"          @#&&#X.@-------..---.$--*@.           ",
"          @@##..@@-------..--------*@.          ",
"          .@----@@@@-----$$---------@.          ",
"         .@------@@@----------------@.          ",
"         .@--$$--$@----..----------*@.          ",
"         .@---$-------....--------*@.           ",
"         ..@----------......-----*@.            ",
"          ..@----------$...........             ",
"           ..@@@--------..........              ",
"             ...@@--------.......               ",
"                ..@@$-------$@.                 ",
"                  ..@@@@@@@@@.                  ",
"                  @#o;;o&&##oo                  ",
"                 @#&o;;;o&&&#oo                 ",
"                @#&&&o;;;o&&&#oo                ",
"               @#&&&&o;;;;ooooooo               ",
"              @##&&&&o;;;;;;;;;=@@              ",
"             .+#&&&&#;;;$==;;;;==@@             ",
"            .O:::>:::+;;====;;;==@@             ",
"            .O:::::::OO;====;;;$=@@             ",
"           .O::%::::::O;$==;;;;;oo              ",
"           .O::%:%::::O;;;;;;;;;oo              ",
"           .O::::%::::O;;;;;;;;oo               ",
"           .OO::::::%OO;;;;;;;;oo               ",
"            .OO%::::OO;;;;;;;;oo                ",
"             .OOOOOOO;;;;;;;ooo                 ",
"              ..OO;;;;;;;ooooo..                ",
"                .ooooooooooo@@...               ",
"                .....@@@@@.@@@@...              ",
"               ..@@.@@@**@@.@@@@..              ",
"               ..@@.@@@**@@.@@@@..              ",
"               ..@@.@@@@@@@.......              ",
"               ..*$$@@@@@@..@@@...              ",
"                ...$$*****$......               ",
"                 ...............                ",
"                   ........                     "
};
