/* XPM */
static char *result[] = {
/* columns rows colors chars-per-pixel */
"54 45 18 1 ",
"  c #181010",
". c #301818",
"X c #202028",
"o c #600000",
"O c #482010",
"+ c #584020",
"@ c gray25",
"# c #686868",
"$ c #A81828",
"% c #A07018",
"& c #A06830",
"* c #B08018",
"= c #B88858",
"- c #C8B058",
"; c #E0C868",
": c #2830C8",
"> c gray69",
", c None",
/* pixels */
",,,,,,,,,,,,,,,,,,,,,,,,,,,,,,,,,OOOOO,,,,,,,,,,,,,,,,",
",,,,,,,,,,,,,,,,,,,,,,,,,,,,,,,,OoooooOO,,,,,,,,,,,,,,",
",,,,,,,,,,,,,,,,,,,,,,,,,,,,,,,Ooo$$$$oooO,,,,,,,,,,,,",
",,,,,,,,,,,,,,,,,,,,,,,,,,,,,,Ooo$$$$$$$ooO,,,,,,,,,,,",
",,,,,,,,,,,,,,,,,,,,,,,,,,,,,,Oo$$$$$$$$$ooO,,,,,,,,,,",
",,,,,,,,,,,,,,,,,,,,,,,,,,,,,Ooo$$$$$$$$$$ooO,,,,,,,,,",
",,,,,,,,,,,,,,,,,,,,,,,,,,,,,Oo$$$$$$$$$$$$ooO,,,,,,,,",
",,,,,,,,,,,,,,,,,,,,,,,,,,,,,Oo$$$$$$$$$$$$$ooO,,,,,,,",
",,,,,,,,,,,,,,,,,,,,,,,,,    o$$$$$$$$$$$$$$oooO,,,,,,",
",,,,,,,,,,,,,,,,,,,,,,,,     o$$$$$$$$$$$$ooooooOO,,,,",
",,,,,,,,,,,,,,,,,,,,,,,,     o$$$$$$$$$$oo$$$$$oooO,,,",
",,,,,,,,,,,,,,,,,,,,,,,,,     $$$$$$$$$$$$$$$$$$ooO,,,",
",,,,,,,,,,,,,,,,,,,,,,,,,,     $$$$$$$$$$$$$$$$$$oO,,,",
",,,,,,,,,,,,,,,,,,,,,,,,,,,,     $$$$$$$$$$$$$$$$oO,,,",
",,,,,,,,,,,,,,,,,,,,,,,,,,,         $$$$$$$$$$$$$oo  ,",
",,,,,,,,,,,,,,,,,,,,,,,,,  OOOOOOOOO   $$$$$$$$$oooOO ",
",,,,,,,,,,,,,,,,,,,,,,,, OO=&OOOO==OOOOooooooooooO=OO ",
",,,,,,,,,,,,,,,,,,,,,,,, O===&OO====OOOOOOOOOOOOOO==O ",
",,,,,,,,,,,,,,,,,,,,,,,, O===O=O=====OOOOOOOOOOOOO==O ",
",,,,,,,,,,,,+++++,,,,,,, O===O=O=====OOOOOOOOOOOOO=O ,",
",,,,,,,,,+++++++...,,,,, O==  =O====&OOOOOOOOOOOOOOO ,",
",,,,,,,++;;;;*%%%%...,,, OO=  ==O===OOOOOOOOOOOOOOOO ,",
",,,,,++;;;;;;**%%%%...,, OOO  ===OOOOOOOOOOOOOOOOOOO ,",
",,,,+;;;;;;;****%%%%...,, OO   ====&&OOOOOOOOOOOOOO ,,",
",,,+;;;;;;*******%%%%..,,,  O  O&==&&XXXXXOOO$oOO  ,,,",
",,+;;;;;;*********%%%%..,,,, @@OOOOOooX:::XX$$$oXX,,,,",
",+.;;;;***********%%%%..,,    @@##oo$$$X::::XX$$oXX,,,",
",.****************%%%%... @@@@ ooo$$$$$$X:::::XX:XXX,,",
",.****************%%%%%.. @>>##o$$$$$$$$X:::::::::XXX,",
"..****************%%%%%.+ @>>>>$$$$$$$$$X::::::::::XX,",
"..****************%%%%%-+ @>>>>$$$$$$$$oX::::::::::XXX",
"..***************%%%%%%+ @#>>>>$$$$oooXX::::::::::::XX",
",..**************%%%%-++ @>>>>>>$oooXX::::::::::::::XX",
",..*************%%%%--+, >>>>>    XX::::::::::::::::XX",
",...%%*********%%%%--++, #>>#  OOO X::::::::::::::::XX",
",,...%%%%***%%%%%%--++,, @##  OOOOO :::::::::::::::XXX",
",,,...%%%%%%%%%%--+++,,,, @@  OOOOO :::::::::::::::XX,",
",,,,...%%%%%%%--++++,,,,,,    OOOOO X:::::::::::::XXX,",
",,,,,,...-+--+++++,,,,,,,,,,  OOOO OO:::::::::::XXXX,,",
",,,,,,,,+++++++,,,,,,,,,,,,,,  OOOOOOO:::::::XXXXXX,,,",
",,,,,,,,,,,,,,,,,,,,,,,,,,,,,   OOOOOOO::XXXXXXXX ,,,,",
",,,,,,,,,,,,,,,,,,,,,,,,,,,,,,    OOOOO XXXXXXX  ,,,,,",
",,,,,,,,,,,,,,,,,,,,,,,,,,,,,,,,   OOO   ,,    ,,,,,,,",
",,,,,,,,,,,,,,,,,,,,,,,,,,,,,,,,,       ,,,,,,,,,,,,,,",
",,,,,,,,,,,,,,,,,,,,,,,,,,,,,,,,,,,    ,,,,,,,,,,,,,,,"
};
