/* XPM */
static char *result[] = {
/* columns rows colors chars-per-pixel */
"48 48 13 1 ",
"  c #181010",
". c #202028",
"X c #600000",
"o c #482010",
"O c gray25",
"+ c #686868",
"@ c #A81828",
"# c #A06830",
"$ c #C09830",
"% c #B88858",
"& c #2830C8",
"* c gray69",
"= c None",
/* pixels */
"================================================",
"===================ooooooo======================",
"==================oooXXXXooo====================",
"=================ooXX@@@@XXoo===================",
"=================oX@@@@@@@@Xoo==================",
"================ooX@****@@@@Xoo=================",
"================oX@*X*X**@@@@Xo=================",
"================oX@*XXX**@@@@@Xo================",
"============      X*XXX**@@@@@Xoo===============",
"===========           **@@@@@@@Xo===============",
"===========O            @@@@@@@Xo===============",
"==========OOOO*** #      X@@@@@@Xo==============",
"==========OO***** %%%%     @@@@@Xo==============",
"=========OO****** o%%%%%%   @@@@@Xooo===========",
"=========OO**oooo  %%%  %%#  @@@@XXXoo==========",
"=========OO*oo#%%#o%%%  %%%%  X@@X@@Xo==========",
"=========OO o#%%%%%%%%  %%%%%o X@@@@@Xo=========",
"==========O o%%%%%%%%%  %%%%%%o X@@@@Xo=========",
"==========O o%%%%%%%%%oo%%%%%%%o X@@@Xo=========",
"=========== o#%%%%%%%%%%%%%%%%%oo  XXoo=========",
"============ o#%%%%%%%%%  %%%oooo%%%%o =========",
"============= oo#%%%#o     %%ooo%%%%%%o ========",
"==============             %%%oo%%oo%%o ========",
"==============oX         o%%%%%%%%o%%%o ========",
"==============oXX        %%%%%%%%%%%%o  ========",
"===============oX@     %%%%%%%%%%%%%o  =========",
"===============oX@o%  %%%%%%%%%%%ooo  ==========",
"===============oX@o%  o%%%%%%%ooo   ============",
"================oX@o%  %%%%oooXXooo=============",
"================oX@o%  %%oo&.@@@@XXoo===========",
"================oX.Xo%%%o&OOOOXX@@@Xoo==========",
"=================..Xoooo&OO***O@@@@@Xo==========",
"===========     o......&OOO****@@@@@Xo==========",
"==========      o$&&&&&OO+*****@@@@@Xo==========",
"=========  ooooo.$&&&&$O*******@@@@@Xo==========",
"========  ooooooo.&&&$$O****+***@@@Xo  =========",
"========  #oooooo.&&&$$O+**+****@XXoo  =========",
"========  o#ooooo.&&&&$OO****+***ooooo  ========",
"========  ooooooo.&&&&&&OO**+***+O.ooo  ========",
"=========  ooooo ..&&&&&&OO***+OO&   o  ========",
"=========  o#   oo.&&&&&&&OOOOO&&.oo oo  =======",
"==========  ooooooo&&&&&&&&&&&&&&.ooooo  =======",
"==========  ooooooo....&&&&&&&&&.oooooo  =======",
"==========  o#oooo .............ooooooo  =======",
"===========  oooo   ===........ oooooo  ========",
"============       ===========   oooo  =========",
"=============    ==============       ==========",
"================================     ==========="
};
