/* XPM */
static char *ce42cb5c633347e49482df21fa293114swgCEcwdELwUWeAH[] = {
/* columns rows colors chars-per-pixel */
"48 48 18 1 ",
"  c None",
". c #180808",
"X c #311000",
"o c #181839",
"O c #393939",
"+ c #3F3F3F",
"@ c #421800",
"# c #600000",
"$ c #7B4210",
"% c gray39",
"& c #686868",
"* c #B51021",
"= c #A56B31",
"- c #C69C31",
"; c #BD8C5A",
": c #2121DE",
"> c gray71",
", c gray74",
/* pixels */
"                   @@@@@@                       ",
"                 @@@####@@@                     ",
"                @##******#@@@                   ",
"                @#*,>>,****#@@                  ",
"               @#*>#>#>>****#@@                 ",
"               @#*>###>>*****#@@                ",
"           ......#>###,>******#@                ",
"          .........X.>>*******#@@               ",
"           ............********#@               ",
"              ..........#******#@@@@            ",
"               .@;;;;.....#*****###@@           ",
"               .@=;;;;;;....#***#**#@@          ",
"             .....;;;..;;;$...******#@          ",
"            .@@@..;;;..;;;;;$..#****#@          ",
"           .@=;;$.;;;..;;;;;;;@..#**#@          ",
"          .@=;;;;;;;;..;;;;;;;@@.X##@@          ",
"          .@;;;;;;;;;$$;;;;;@@@@;;;;@.          ",
"          .@;;;;;;;;;;;;;;;;@@@;;;;;;@.         ",
"          .@=;;;;;;;;;;..;;;;@$;;$$;;@.         ",
"           .@=;;;;;;;;....;;;;;;;$;;;@.         ",
"            .@=;;;;;......;;;;;;;;;;@..         ",
"             ...........$;;;;;;;;;;@..          ",
"              ..........;;;;;;;;@@@..           ",
"               .......;;;;;;;;@@...             ",
"                 .@$;;;;;;;$@@..                ",
"                  .@@@@@@@@@..                  ",
"                  oo##**o::o#@                  ",
"                 oo#***o:::o*#@                 ",
"                oo#***o:::o***#@                ",
"               ooooooo::::o****#@               ",
"              @@-:::::::::o****##@              ",
"             @@--::::--$:::#****#O.             ",
"             @@--:::----::+>>,>>>>O.            ",
"             @@-$:::----:OO>>>>>>>O.            ",
"              oo:::::--$:O>>>>>>&>>O.           ",
"              oo:::::::::O>>>>%>%>>O.           ",
"               oo::::::::O>>>>%>>>>O.           ",
"              .oo::::::::OO%>>>>>>OO.           ",
"             ...oo::::::::OO>>>>%OO.            ",
"            ..@@@ooo:::::::OOOOOOO.             ",
"            ..@@@@ooooo:::::::oo@..             ",
"            ..@@@@@@oooooooooo@@@..             ",
"            ..=@@@@@@@@@@@@@@@@@=..             ",
"            ...=$@@@@@@@@@@@@@$=...             ",
"             ....$=$@@@@@@@@$=....              ",
"               .....$$$@@@$$....                ",
"                 .............                  ",
"                    ........                    "
};
