/* XPM */
static char *result[] = {
/* columns rows colors chars-per-pixel */
"61 72 226 2 ",
"   c #2D1B19",
".  c #251715",
"X  c #331F1B",
"o  c #35231B",
"O  c #3A241D",
"+  c #3D2A1D",
"@  c #2D1E24",
"#  c #362A28",
"$  c #312533",
"%  c #1E1414",
"&  c #432C1D",
"*  c #4F3A1E",
"=  c #4B2E23",
"-  c #593626",
";  c #433123",
":  c #613B28",
">  c #6D4D1C",
",  c #794B1E",
"<  c #72511E",
"1  c #7B511F",
"2  c #4C4524",
"3  c #574A26",
"4  c #5B532A",
"5  c #4E5337",
"6  c #68472A",
"7  c #754B29",
"8  c #6C5B2B",
"9  c #655629",
"0  c #765629",
"q  c #744E33",
"w  c #695836",
"e  c #785735",
"r  c #6A4D32",
"t  c #75622C",
"y  c #7C662C",
"u  c #6C6233",
"i  c #776739",
"p  c #6F622F",
"a  c #51411E",
"s  c #363559",
"d  c #352B49",
"f  c #3A3969",
"g  c #3B3C77",
"h  c #403C6C",
"j  c #3E415A",
"k  c #585749",
"l  c #4D4E4F",
"z  c #6D5647",
"x  c #745845",
"c  c #6B5651",
"v  c #596243",
"b  c #666946",
"n  c #766C48",
"m  c #48486A",
"M  c #575A67",
"N  c #454870",
"B  c #655A76",
"V  c #736871",
"C  c #983518",
"Z  c #8C3315",
"A  c #AA371B",
"S  c #B33C1E",
"D  c #923C35",
"F  c #A63726",
"G  c #844D1F",
"H  c #894E22",
"J  c #855529",
"K  c #835D39",
"L  c #965E3A",
"P  c #955027",
"I  c #A7452A",
"U  c #B34D32",
"Y  c #846B2E",
"T  c #896739",
"R  c #95683B",
"E  c #8A7837",
"W  c #967737",
"Q  c #8B702F",
"!  c #AF7F2C",
"~  c #C6512E",
"^  c #C75733",
"/  c #C44B30",
"(  c #B15048",
")  c #8A6844",
"_  c #8D7745",
"`  c #977847",
"'  c #8E674E",
"]  c #85656A",
"[  c #A27E41",
"{  c #DC4D43",
"}  c #D54E44",
"|  c #CB5443",
" . c #DB5245",
".. c #DC554A",
"X. c #DC5B4C",
"o. c #D45749",
"O. c #D85953",
"+. c #CD5555",
"@. c #E2554A",
"#. c #E25C4D",
"$. c #E05347",
"%. c #E25D54",
"&. c #E14E47",
"*. c #DB6154",
"=. c #DC6459",
"-. c #DE695F",
";. c #DB604F",
":. c #E2624F",
">. c #E3655C",
",. c #CB5A66",
"<. c #D25565",
"1. c #CF5873",
"2. c #D96C65",
"3. c #E36D64",
"4. c #E47C74",
"5. c #E3756D",
"6. c #7A846C",
"7. c #96863C",
"8. c #B79034",
"9. c #C49A2F",
"0. c #CA9D32",
"q. c #C49835",
"w. c #CFA82E",
"e. c #CCA233",
"r. c #CEA936",
"t. c #D3AB34",
"y. c #D4AB36",
"u. c #DBB435",
"i. c #DEB936",
"p. c #DDB83A",
"a. c #D1AB2D",
"s. c #E3BD36",
"d. c #E4BE39",
"f. c #E5C236",
"g. c #E6C23B",
"h. c #E9C638",
"j. c #9A8A42",
"k. c #9B8C54",
"l. c #A3864C",
"z. c #B28A4D",
"x. c #A7964A",
"c. c #A58951",
"v. c #AF9853",
"b. c #B6A255",
"n. c #878B75",
"m. c #93947B",
"M. c #8D8B74",
"N. c #B18B79",
"B. c #CB9651",
"V. c #CEA744",
"C. c #DAB74A",
"Z. c #C6AA5A",
"A. c #C9B15D",
"S. c #D2AA4D",
"D. c #E1BE46",
"F. c #E4847C",
"G. c #D9A668",
"H. c #D9AE76",
"J. c #DAB476",
"K. c #DBB67B",
"L. c #DDB97C",
"P. c #D4B974",
"I. c #CAB065",
"U. c #E3B47B",
"Y. c #E2B176",
"T. c #E0AE79",
"R. c #DF8077",
"E. c #E7C645",
"W. c #E7C753",
"Q. c #DCC675",
"!. c #E4CD77",
"~. c #E5D37A",
"^. c #474583",
"/. c #726385",
"(. c #7B5AAA",
"). c #484DDE",
"_. c #5559DC",
"`. c #4A52DF",
"'. c #5C62DA",
"]. c #786BDD",
"[. c #6868DB",
"{. c #4D53E4",
"}. c #4F57E9",
"|. c #535BEB",
" X c #575AE7",
".X c #4C4FE1",
"XX c #645DE4",
"oX c #5C62EA",
"OX c #6663E7",
"+X c #7268E1",
"@X c #8C6F88",
"#X c #816AD8",
"$X c #A4A497",
"%X c #B8B4B5",
"&X c #A49681",
"*X c #DCB582",
"=X c #DFBA85",
"-X c #D5B59A",
";X c #E1BB83",
":X c #E2BD8A",
">X c #E1B383",
",X c #E1AF81",
"<X c #D4B5A8",
"1X c #C9B7B7",
"2X c #E4C386",
"3X c #E9D784",
"4X c #F2E48C",
"5X c #F3E693",
"6X c #F6EA9C",
"7X c #F6EB99",
"8X c #D9C7BD",
"9X c #F8EEA1",
"0X c #F7EDA0",
"qX c #D4D3CC",
"wX c #DBD4CC",
"eX c #D6D4D3",
"rX c #DDDADA",
"tX c #DAD5D4",
"yX c #CBC8C7",
"uX c #E3D4D2",
"iX c #E3DBDC",
"pX c #E6D8D5",
"aX c #E4D2CB",
"sX c #E3E0E0",
"dX c #E4DFE0",
"fX c None",
/* pixels */
"fXfXfXfXfXfXfXfXfXfXfXfXfXfX` c.k.l.fXfXfXfXfXfXfXfXfXfXfXfXfXfXfXfXfXfXfXfXfXfXfXfXfXfXfXfXfXfXfXfXfXfXfXfXfXfXfXfXfXfXfX",
"fXfXfXfXfXfXfXfXfXfXfXfXe K _ c.v.v.v.l.fXfXfXfXfXfXfXfXfXfXfXfXfXfXfXfXfXfXfXfXfXfXfXfXfXfXfXfXfXfXfXfXfXfXfXfXfXfXfXfXfX",
"fXfXfXfXfXfXfXfXfXfXfXq e ) ` 3X3Xb.b.v.x.j.fXfXfXfXfXfXfXfXfXfXfXfXfXfXfXfXfXfXfXfXfXfXfXfXfXfXfXfXfXfXfXfXfXfXfXfXfXfXfX",
"fXfXfXfXfXfXfXfXfX6 r e ) ~.3XL.5X5X5Xb.b.x.j.fXfXfXfXfXfXfXfXfXfXfXfXfXfXfXfXfXfXfXfXfXfXfXfXfXfXfXfXfXfXfXfXfXfXfXfXfXfX",
"fXfXfXfXfXfXfXfX6 7 e T V.P.Q.5X5X6X5X5X5Xb.x.j.fXfXfXfXfXfXfXfXfXfXfXfXfXfXfXfXfXfXfXfXfXfXfXfXfXfXfXfXfXfXfXfXfXfXfXfXfX",
"fXfXfXfX= - fX6 7 e y.8.B.~.3X5X7X0X0X7X5X5Xb.x.j.fXfXfXfXfXfXfXfXfXfXfXfXfXfXfXfXfXfXfXfXfXfXfXfXfXfXfXfXfXfXfXfXfXfXfXfX",
"fXfXfX= - : : 7 e t.t.C.S.3X3X7X7X0X0X0X7X7X5Xx.x.7.fXfXfXfXfXfXfXfXfXfXfXfXfXfXfXfXfXfXfXfXfXfXfXfXfXfXfXfXfXfXfXfXfXfXfX",
"fXfX= - : Y R J a.t.p.r.C.Q.Q.3X7X0X0X0X0X7X5X4Xx.j.fXfXfXfXfXfXfXfXfXfXfXfXfXfXfXfXfXfXfXfXfXfXfXfXfXfXfXfXfXfXfXfXfXfXfX",
"fXfX- : K ! P 0.u.u.d.V.E.C.~.4X5X0X0X9X9X0X7X5Xb.x.7.fXfXfXfXfXfXfXfXfXfXfXfXfXfXfXfXfXfXfXfXfXfXfXfXfXfXfXfXfXfXfXfXfXfX",
"fXfX- 6 Q H 0.u.u.s.y.g.E.D.!.4X4X5X0X9X9X0X7X5X4Xx.j.fXfXfXfXfXfXfXfXfXfXfXfXfXfXfXfXfXfXfXfXfXfXfXfXfXfXfXfXfXfXfXfXfXfX",
"fXfXfX7 J 9.0.u.u.d.d.d.E.E.C.!.7X4X3X0X0X9X6X5X4Xx.7.fXfXfXfXfXfXfXfXfXfXfXfXfXfXfXfXfXfXfXfXfXfXfXfXfXfXfXfXfXfXfXfXfXfX",
"fXfX6 q J 0.a.u.s.d.d.g.h.E.W.W.~.3X3X4X7X7X7X5X4Xx.j.7.fXfXfXfXfXfXfXfXfXfXfXfXfXfXfXfXfXfXfXfXfXfXfXfXfXfXfXfXfXfXfXfXfX",
"fXfXq J 0.0.y.s.d.d.h.d.d.E.E.E.C.W.4X4X4X3X5X5X~.~.7.7.fXfXfXfXfXfXfXfXfXfXfXfXfXfXfXfXfXfXfXfXfXfXfXfXfXfXfXfXfXfXfXfXfX",
"fX7 7 K 0.9.y.s.s.d.d.u.h.h.E.E.E.W.~.4X3XQ.Q.~.P.~.7.y fXfXfXfXfXfXfXfXfXfXfXfXfXfXfXfXfXfXfXfXfXfXfXfXfXfXfXfXfXfXfXfXfX",
"6 q J 0.9.0.y.s.s.s.u.s.h.h.h.E.D.D.E.Q.Q.Q.Q.~.~.E u fXfXfXfXfXfXfXfXfXfXfXfXfXfXfXfXfXfXfXfXfXfXfXfXfXfXfXfXfXfXfXfXfXfX",
"7 e K 0.0.y.u.s.u.u.s.h.d.d.h.d.i.E.E.E.C.S.V.I.7.i u fXfXfXfXfXfXfXfXfXfXfXfXfXfXfXfXfXfXfXfXfXfXfXfXfXfXfXfXfXfXfXfXfXfX",
"q q Z.8.q.y.u.y.u.u.f.f.d.h.s.h.h.d.g.E.D.r.V.E i p fXfXfXfXfXfXfXfXfXfXfXfXfXfXfXfXfXfXfXfXfXfXfXfXfXfXfXfXfXfXfXfXfXfXfX",
"q K L 8.V.y.s.y.u.f.f.f.d.d.h.s.d.g.g.g.r.i.i.i t fXfXfXfXfXfXfXfXfXfXfXfXfXfXfXfXfXfXfXfXfXfXfXfXfXfXfXfXfXfXfXfXfXfXfXfX",
"q K Z.q.y.y.y.y.s.f.s.s.d.s.f.f.h.f.f.g.i.i.E y p fXfXfXfXfXfXfXfXfXfXfXfXfXfXfXfXfXfXfXfXfXfXfXfXfXfXfXfXfXfXfXfXfXfXfXfX",
"q J Z.I.y.y.y.u.i.h.f.f.f.f.f.u.f.d.s.8.W E Y t fXfXfXfXfXfXfXfXfXfXfXfXfXfXfXfXfXfXfXfXfXfXfXfXfXfXfXfXfXfXfXfXfXfXfXfXfX",
"7 e K Z.y.y.u.p.i.i.h.h.f.u.u.f.s.s.w.w.e.Q Y < fXfXfXfXfXfXfXfXfXfXfXfXfXfXfXfXfXfXfXfXfXfXfXfXfXfXfXfXfXfXfXfXfXfXfXfXfX",
"fXr e T I.y.e.e.p.i.i.i.t.a.i.s.i.8.9.9.9.7.y t 8 fXfXfXfXfXfXfXfXfXfXfXfXfXfXfXfXfXfXfXfXfXfXfXfXfXfXfXfXfXfXfXfXfXfXfXfX",
"fX6 r y Z.I.0.r.u.u.r.r.t.u.u.a.a.Q 9.9.9.8.7.t p 8 fXfXfXfXfXfX5 5 5 fXfXfXfXfXfXfXfX, , , , fXfXfXfXfXfXfXfXfXfXfXfXfXfX",
"fXfXr 8 y Z.I.y.t.e.e.r.a.a.a.a.Q Q y y 9.a.a.W p u u fXfXfXv b 6.6.6.v 5 5 fXfXfX7 H C C C C 7 7 fXfXfXfXfXfXfXfXfXfXfXfX",
"fXfXfX9 8 0 Y A.A.t.t.t.w.w.Y y y y t t y 8.a.w.Q u i n b 6.6.6.$X$X$X6.6.v z w J C F | | } A C C , fXfXfXfXfXfXfXfXfXfXfX",
"fXfXfXfX9 9 t t Z.b.y A.Z.y t < 8 fXfX< 8 8 8.w.a.7.n b 6.m.qXqXqXqXyXqX&Xn.n T I I | o.o.o.| | C Z 7 fXfXfXfXfXfXfXfXfXfX",
"fXfXfXfXfX4 9 9 8 8 p p 8 8 9 9 fXfXfXfX9 9 8 8.r.C.k.m.&XqXeXeX%XeXeXeXuXm.M.U U O.X.X.o.8X8X8X| / Z > o   . . fXfXfXfXfX",
"fXfXfXfXfXfXfX4 9 4 9 9 9 3 fXfXfXfXfXfXfX4 9 u 8.C.n m.eXeXeXeX%XrXrX%XwXuX&X( =.*.*.O.8X8X8XI yX| 2 ; X   . % % fXfXfXfX",
"fXfXfXfXfXfXfXfXfXfXfXfXfXfXfXfXfXfXfXfXfXfX4 u b b m.qXqXrXrX8XiXdXrX1XtXwX&XN.-.=.*.*.aXU U I I 6 3 2 o     . fXfXfXfXfX",
"fXfXfXfXfXfXfXfXfXfXfXfXfXfXfXfXfXfXfXfXfXfXfXfXfXb m.qXqXrXsXsXdXdX1XiXpXuXaXN.2.=.*.*.8XyXU e w 9 3 2 + o   fXfXfXfXfXfX",
"fXfXfXfXfXfXfXfXfXfXfXfXfXfXfXfXfXfXfXfXfXfXfXfXfXb m.qXeXrXsXsXdXdXdXpXuXaXaXN.>.=.*.*.;.8X) e w w 4 2 ; # fXfXfXfXfXfXfX",
"fXfXfXfXfXfXfXfXfXfXfXfXfXfXfXfXfXfXfXfXfXfXfXfXfXv n.qXeXrXrXrXiXiXpXuXuXaX5.o.-.=.*.O.*.T K i w w 9 5 3 fXfXfXfXfXfXfXfX",
"fXfXfXfXfXfXfXfXfXfXfXfXfXfXfXfXfXfXfXfXfXfXfXfXfX5 6.qXeXeXtXpXiXiXuXuX4.5.3.} >.*.X.O.R ) T e n H.I.w 4 fXfXfXfXfXfXfXfX",
"fXfXfXfXfXfXfXfXfXfXfXfXfXfXfXfXfXfXfXfXfXfXfXfXfXfXv n.qXqXeXwXuXuX,X4.5.3.>.| / *.;.R K T ) K.J.J.J.T w w 9 4 4 fXfXfXfX",
"fXfXfXfXfXfXfXfXfXfXfXfXfXfXfXfXfXfXfXfXfXfXfXfXfXfXfXv n.$XqXwX4.4.4.5.3.3.%.%.~ X.L L ) U.K.K.K.K.J.i i W Q Q Y 9 4 fXfX",
"fXfXfXfXfXfXfXfXfXfXfXfXfXfXfXfXfXfXfXfXfXfXfXfXfXfXfXfXw M.M.2.2.3.3.-.%.%.%.O.~ :.( L U.U._ _ *X*X*Xj._ [ Z.J.P.Q T 9 fX",
"fXfXfXfXfXfXfXfXfXfXfXfXfXfXfXfXfXfXfXfXfXfXfXfXfXfXfXfXfXw z U =.O.O.%.%.%.@.%./ ~ L U.U.>X` ` z.;X:Xz.z.;X=XL.K.K.W Q u ",
"fXfXfXfXfXfXfXfXfXfXfXfXfXfXfXfXfXfXfXfXfXfXfXfXfXfXfXfXfXfXfXL I O.%.&.&.&.@.@.#.~ Y.U.,X;Xz.l.k.2X:X2X2X:X=X*X*X>XS.W u ",
"fXfXfXfXfXfXfXfXfXfXfXfXfXfXfXfXfXfXfXfXfXfXfXfXfXfXfXfXfXfXfXJ F { { { &.&.@.@.:.~ U.U.,X>X;Xc.c.2X:X:X2X:X:X;X*XK.L.W u ",
"fXfXfXfXfXfXfXfXfXfXfXfXfXfXfXfXfXfXfXfXfXfXfXfXfXfXfXfXfXfXfXfXH A { { &.&.@.@.#.~ ^ U.>X>X;X:X2X:X:X2X:X:X:X:X*X,XL.W i ",
"fXfXfXfXfXfXfXfXfXfXfXfXfXfXfXfXfXfXfXfXfXfXfXfXfXfXfXfXfXfXfXfXG P A / &.&.&.@.#.:.^ U.,X>X>X:X:X=X:X:X:X=X=X=X*XK.S.R u ",
"fXfXfXfXfXfXfXfXfXfXfXfXfXfXfXfXfXfXfXfXfXfXfXfXfXfXfXfXfXfXfXfXG H A &.&.&.&.$.:.:.^ U.T.,X;X;X=X=X=X:X=X=X=XL.L.K.W u fX",
"fXfXfXfXfXfXfXfXfXfXfXfXfXfXfXfXfXfXfXfXfXfXfXfXfXfXfXfXfXfXfXfX, G I A ^ &.$.$.#.:.^ ^ T.U.` ` *X;X;X*X=X*XL.K.Z.W u fXfX",
"fXfXfXfXfXfXfXfXfXfXfXfXfXfXfXfXfXfXfXfXfXfXfXfXfXfXfXfXfXfXfXfXfXG , A S  .$.@.@.#.:.^ Y.` ` ` _ _ j.L.*XK.Z.u 8 w fXfXfX",
"fXfXfXfXfXfXfXfXfXfXfXfXfXfXfXfXfXfXfXfXfXfXfXfXfXfXfXfXfXfXfXfXfX* H G.S  .$.@.@.#.#.~ Y.R R T ) ) i i i i u u 4 fXfXfXfX",
"fXfXfXfXfXfXfXfXfXfXfXfXfXfXfXfXfXfXfXfXfXfXfXfXfXfXfXfXfXfXfXfXfXa H G.G.S $.@.$.@.#.~ U Y.T T i i i i w 9 4 2 fXfXfXfXfX",
"fXfXfXfXfXfXfXfXfXfXfXfXfXfXfXfXfXfXfXfXfXfXfXfXfXfXfXfXfXfXfXfXfX& G q.G.S I &.$.$.#.^ ~ Y.Y.J.i u u w 9 5 2 fXfXfXfXfXfX",
"fXfXfXfXfXfXfXfXfXfXfXfXfXfXfXfXfXfXfXfXfXfXfXfXfXfXfXfXfXfXfXfXfXfXa J G.G.S ^  . . .:.U G.Y.H.H.H.H.i y fXfXfXfXfXfXfXfX",
"fXfXfXfXfXfXfXfXfXfXfXfXfXfXfXfXfXfXfXfXfXfXfXfXfXfXfXfXfXfXfXfXfXfX& 1 J P G.S { { &.&.( S B.B.B.) L K e fXfXfXfXfXfXfXfX",
"fXfXfXfXfXfXfXfXfXfXfXfXfXfXfXfXfXfXfXfXfXfXfXfXfXfXfXfXfXfXfXfXfXfXfX& 3 H P F } { +.+.%.S ] ] ' ' +.K k k fXfXfXfXfXfXfX",
"fXfXfXfXfXfXfXfXfXfXfXfXfXfXfXfXfXfXfXfXfXfXfXfXfXfXfXfXfXfXfXfXfXfXfXfXfX- 6 P F +.&.&.<.( ] #XV 2.,.+.D l k fXfXfXfXfXfX",
"fXfXfXfXfXfXfXfXfXfXfXfXfXfXfXfXfXfXfXfXfXfXfXfXfXfXfXfXfXfXfXfXfXfXfXfXfXfXfXH F +.<.<.<.( @X#X].V ,.,.,.J l l fXfXfXfXfX",
"fXfXfXfXfXfXfXfXfXfXfXfXfXfXfXfXfXfXfXfXfXfXfXfXfXfXfXfXfXfXfXfXfXfXfXfXfXfXfXz F +.<.1.1.1.@X#X].].V V M M k l l fXfXfXfX",
"fXfXfXfXfXfXfXfXfXfXfXfXfXfXfXfXfXfXfXfXfXfXfXfXfXfXfXfXfXfXfXfXfXfXfXfXfXfXfXc c 1.1.1.1.@X+XOX].].].+X[.[.'.M r fXfXfXfX",
"fXfXfXfXfXfXfXfXfXfXfXfXfXfXfXfXfXfXfXfXfXfXfXfXfXfXfXfXfXfXfXfXfXfXfXfXfXfXl l c B B ^.#XOXOX+X@X-X-X[.OX_.[.x z w fXfXfX",
"fXfXfXfXfXfXfXfXfXfXfXfXfXfXfXfXfXfXfXfXfXfXfXfXfXfXfXfXfXfXfXfXfXfXfXfXfXfXd h .XXXXXXXOXOXOXOX-X<X-X-XOX'.'.P.c z fXfXfX",
"fXfXfXfXfXfXfXfXfXfXfXfXfXfXfXfXfXfXfXfXfXfXfXfXfXfXfXfXfXfXfXfXfXfXfXfXfXfXs h .X.X X XXXXXOXOX<X<X<X-XoX'.'.P.c z fXfXfX",
"fXfXfXfXfXfXfXfXfXfXfXfXfXfXfXfXfXfXfXfXfXfXfXfXfXfXfXfXfXfXfXfXfXfXfXfXfXfXs h )..X.X X X|.OXOX(.1X<XoXoX|._._.m s fXfXfX",
"fXfXfXfXfXfXfXfXfXfXfXfXfXfXfXfXfXfXfXfXfXfXfXfXfXfXfXfXfXfXfXfXfXfXfXfXfX$ d h ).{.}.}.|.|.oXoXoXoXoXoXoX'.`.`.s s fXfXfX",
"fXfXfXfXfXfXfXfXfXfXfXfXfXfXfXfXfXfXfXfXfXfXfXfXfXfXfXfXfXfXfXfXfXfXfXfX$ $ d h ).{.{.}.|.|.|.|.oXoXoXoX X`.`.f s fXfXfXfX",
"fXfXfXfXfXfXfXfXfXfXfXfXfXfXfXfXfXfXfXfXfXfXfXfXfXfXfXfXfXfXfXfXfXfXfX@ # w c N `.{.{.{.}.}.}.}.|.|.|.}.`.`.).f s fXfXfXfX",
"fXfXfXfXfXfXfXfXfXfXfXfXfXfXfXfXfXfXfXfXfXfXfXfXfXfXfXfXfXfXfXfXfXfXfX  # q w m _.{.{.{.}.}.}.}.|.}.{.`.).).f s fXfXfXfXfX",
"fXfXfXfXfXfXfXfXfXfXfXfXfXfXfXfXfXfXfXfXfXfXfXfXfXfXfXfXfXfXfXfXfXfXfXo # q e c M '.`.{.}.{.{.{.{.{.`.).g f s fXfXfXfXfXfX",
"fXfXfXfXfXfXfXfXfXfXfXfXfXfXfXfXfXfXfXfXfXfXfXfXfXfXfXfXfXfXfXfXfXfXo + 0 q e x l M '._.^.^..X).).g g f f s fXfXfXfXfXfXfX",
"fXfXfXfXfXfXfXfXfXfXfXfXfXfXfXfXfXfXfXfXfXfXfXfXfXfXfXfXfXfXfXfXfX  o > < 0 e e e k l M m N N h f f f f fXfXfXfXfXfXfXfXfX",
"fXfXfXfXfXfXfXfXfXfXfXfXfXfXfXfXfXfXfXfXfXfXfXfXfXfXfXfXfXfXfXfXfX  o < 8.0 0 0 e x l x z c z m d fXfXfXfXfXfXfXfXfXfXfXfX",
"fXfXfXfXfXfXfXfXfXfXfXfXfXfXfXfXfXfXfXfXfXfXfXfXfXfXfXfXfXfXfXfXfX  o 8.7 < 0 0 0 e 2 e e w w $ $ fXfXfXfXfXfXfXfXfXfXfXfX",
"fXfXfXfXfXfXfXfXfXfXfXfXfXfXfXfXfXfXfXfXfXfXfXfXfXfXfXfXfXfXfXfXfX  o > < < 0 1 0 q 2 r r 9 r # @ fXfXfXfXfXfXfXfXfXfXfXfX",
"fXfXfXfXfXfXfXfXfXfXfXfXfXfXfXfXfXfXfXfXfXfXfXfXfXfXfXfXfXfXfXfXfXfXo + > < < 0 0 a ; 6 7 > # @ fXfXfXfXfXfXfXfXfXfXfXfXfX",
"fXfXfXfXfXfXfXfXfXfXfXfXfXfXfXfXfXfXfXfXfXfXfXfXfXfXfXfXfXfXfXfXfXfX  O & > < < & & & + + o X fXfXfXfXfXfXfXfXfXfXfXfXfXfX",
"fXfXfXfXfXfXfXfXfXfXfXfXfXfXfXfXfXfXfXfXfXfXfXfXfXfXfXfXfXfXfXfXfXfXfXX o + & & + O O O X   fXfXfXfXfXfXfXfXfXfXfXfXfXfXfX",
"fXfXfXfXfXfXfXfXfXfXfXfXfXfXfXfXfXfXfXfXfXfXfXfXfXfXfXfXfXfXfXfXfXfXfXfXX O O O O . fXfXfXfXfXfXfXfXfXfXfXfXfXfXfXfXfXfXfX"
};
