/* XPM */
static char *result[] = {
/* columns rows colors chars-per-pixel */
"54 45 18 1 ",
"  c #181010",
". c #301818",
"X c #202028",
"o c #600000",
"O c #482010",
"+ c #584020",
"@ c gray25",
"# c #686868",
"$ c #A81828",
"% c #A07018",
"& c #A06830",
"* c #B08018",
"= c #B88858",
"- c #C8B058",
"; c #E0C868",
": c #2830C8",
"> c gray69",
", c None",
/* pixels */
",,,,,,,,,,,,,,,,OOOOO,,,,,,,,,,,,,,,,,,,,,,,,,,,,,,,,,",
",,,,,,,,,,,,,,OOoooooO,,,,,,,,,,,,,,,,,,,,,,,,,,,,,,,,",
",,,,,,,,,,,,Oooo$$$$ooO,,,,,,,,,,,,,,,,,,,,,,,,,,,,,,,",
",,,,,,,,,,,Ooo$$$$$$$ooO,,,,,,,,,,,,,,,,,,,,,,,,,,,,,,",
",,,,,,,,,,Ooo$$$$$$$$$oO,,,,,,,,,,,,,,,,,,,,,,,,,,,,,,",
",,,,,,,,,Ooo$$$$$$$$$$ooO,,,,,,,,,,,,,,,,,,,,,,,,,,,,,",
",,,,,,,,Ooo$$$$$$$$$$$$oO,,,,,,,,,,,,,,,,,,,,,,,,,,,,,",
",,,,,,,Ooo$$$$$$$$$$$$$oO,,,,,,,,,,,,,,,,,,,,,,,,,,,,,",
",,,,,,Oooo$$$$$$$$$$$$$$o    ,,,,,,,,,,,,,,,,,,,,,,,,,",
",,,,OOoooooo$$$$$$$$$$$$o     ,,,,,,,,,,,,,,,,,,,,,,,,",
",,,Oooo$$$$$oo$$$$$$$$$$o     ,,,,,,,,,,,,,,,,,,,,,,,,",
",,,Ooo$$$$$$$$$$$$$$$$$$     ,,,,,,,,,,,,,,,,,,,,,,,,,",
",,,Oo$$$$$$$$$$$$$$$$$$     ,,,,,,,,,,,,,,,,,,,,,,,,,,",
",,,Oo$$$$$$$$$$$$$$$$     ,,,,,,,,,,,,,,,,,,,,,,,,,,,,",
",  oo$$$$$$$$$$$$$         ,,,,,,,,,,,,,,,,,,,,,,,,,,,",
" OOooo$$$$$$$$$   OOOOOOOOO  ,,,,,,,,,,,,,,,,,,,,,,,,,",
" OO=OooooooooooOOOO==OOOO&=OO ,,,,,,,,,,,,,,,,,,,,,,,,",
" O==OOOOOOOOOOOOOO====OO&===O ,,,,,,,,,,,,,,,,,,,,,,,,",
" O==OOOOOOOOOOOOO=====O=O===O ,,,,,,,,,,,,,,,,,,,,,,,,",
", O=OOOOOOOOOOOOO=====O=O===O ,,,,,,,+++++,,,,,,,,,,,,",
", OOOOOOOOOOOOOOO&====O=  ==O ,,,,,...+++++++,,,,,,,,,",
", OOOOOOOOOOOOOOOO===O==  =OO ,,,...%%%%*;;;;++,,,,,,,",
", OOOOOOOOOOOOOOOOOOO===  OOO ,,...%%%%**;;;;;;++,,,,,",
",, OOOOOOOOOOOOOO&&====   OO ,,...%%%%****;;;;;;;+,,,,",
",,,  OOo$OOOXXXXX&&==&O  O  ,,,..%%%%*******;;;;;;+,,,",
",,,,XXo$$$XX:::XooOOOOO@@ ,,,,..%%%%*********;;;;;;+,,",
",,,XXo$$XX::::X$$$oo##@@    ,,..%%%%***********;;;;.+,",
",,XXX:XX:::::X$$$$$$ooo @@@@ ...%%%%****************.,",
",XXX:::::::::X$$$$$$$$o##>>@ ..%%%%%****************.,",
",XX::::::::::X$$$$$$$$$>>>>@ +.%%%%%****************..",
"XXX::::::::::Xo$$$$$$$$>>>>@ +-%%%%%****************..",
"XX::::::::::::XXooo$$$$>>>>#@ +%%%%%%***************..",
"XX::::::::::::::XXooo$>>>>>>@ ++-%%%%**************..,",
"XX::::::::::::::::XX    >>>>> ,+--%%%%*************..,",
"XX::::::::::::::::X OOO  #>># ,++--%%%%*********%%...,",
"XXX::::::::::::::: OOOOO  ##@ ,,++--%%%%%%***%%%%...,,",
",XX::::::::::::::: OOOOO  @@ ,,,,+++--%%%%%%%%%%...,,,",
",XXX:::::::::::::X OOOOO    ,,,,,,++++--%%%%%%%...,,,,",
",,XXXX:::::::::::OO OOOO  ,,,,,,,,,,+++++--+-...,,,,,,",
",,,XXXXXX:::::::OOOOOOO  ,,,,,,,,,,,,,,+++++++,,,,,,,,",
",,,, XXXXXXXX::OOOOOOO   ,,,,,,,,,,,,,,,,,,,,,,,,,,,,,",
",,,,,  XXXXXXX OOOOO    ,,,,,,,,,,,,,,,,,,,,,,,,,,,,,,",
",,,,,,,    ,,   OOO   ,,,,,,,,,,,,,,,,,,,,,,,,,,,,,,,,",
",,,,,,,,,,,,,,       ,,,,,,,,,,,,,,,,,,,,,,,,,,,,,,,,,",
",,,,,,,,,,,,,,,    ,,,,,,,,,,,,,,,,,,,,,,,,,,,,,,,,,,,"
};
