/* XPM */
static char *c873043bb6ce4041f9f43f119c16be31IlTbRb8G0w6y1PEy[] = {
/* columns rows colors chars-per-pixel */
"48 48 13 1 ",
"  c None",
". c #181010",
"X c #202028",
"o c #600000",
"O c #482010",
"+ c gray25",
"@ c #686868",
"# c #A81828",
"$ c #A06830",
"% c #C09830",
"& c #B88858",
"* c #2830C8",
"= c gray69",
/* pixels */
"                    OOOOO                       ",
"                  OOOooooOO                     ",
"                  Ooo####ooOO                   ",
"                 Oo########oOO                  ",
"                 Oo#====####oOO                 ",
"                Oo#=o=o==####oOO                ",
"                Oo#=ooo==#####oOO               ",
"            ......o=ooo==######oO               ",
"           ...........==#######oOO              ",
"            ............########oO              ",
"               ..........o######oOOOO           ",
"                .O&&&&.....o#####oooOO          ",
"                .O$&&&&&&....o###o##oOO         ",
"              .....&&&..&&&O...######oO         ",
"            ..OOO..&&&..&&&&&O..o####oO         ",
"            .O$&&O.&&&..&&&&&&&O..o##oO         ",
"           .O$&&&&&&&&..&&&&&&&OO..ooOO         ",
"           .O&&&&&&&&&OO&&&&&OOOO&&&&O.         ",
"           .O&&&&&&&&&&&&&&&&OOO&&&&&&O.        ",
"           .O$&&&&&&&&&&..&&&&OO&&OO&&O.        ",
"            .O$&&&&&&&&....&&&&&&&O&&&O.        ",
"             .OO$&&&&......&&&&&&&&&&O..        ",
"              ...........O&&&&&&&&&&O..         ",
"               ..........&&&&&&&&OOO..          ",
"                .......&&&&&&&&OO...            ",
"                  .OO&&&&&&&OOO..               ",
"                   OOOOOOOOOO..                 ",
"                   XXoo##X**XoO                 ",
"                  XXo###X***X#oO                ",
"                 XXo###X***X###oO               ",
"                XXXXXXX****X####oO              ",
"               OO%*********X####ooO             ",
"           ...OO%%****%%O***o####o+.            ",
"          ......X%***%%%%**+=======+.           ",
"         ...OOOOOX***%%%%*++=======+..          ",
"         ..OOOOOOOX***%%O*+======@==+.          ",
"         ..$OOOOOOX*******+====@=@==+..         ",
"         ..O$OOOOOX*******+====@====+..         ",
"         ..OOOOOOOX*******++@======++..         ",
"          ..OOOOO.XX*******++====@++O..         ",
"          ..O$...OOX********+++++++.OO..        ",
"          ...OOOOOOOXX*********XXOOOOO..        ",
"           ..OOOOOOO.XXXXXXXXXXXOOOOOO..        ",
"           ..O$OOOO..XXXXXXXXX..OOOOOO..        ",
"           ...OOOO..          ..OOOOO..         ",
"            .......           ...OOO...         ",
"             .....             .......          ",
"                                .....           "
};
