/* XPM */
static char *result[] = {
/* columns rows colors chars-per-pixel */
"48 48 18 1 ",
"  c #180808",
". c #311000",
"X c #181839",
"o c #393939",
"O c #3F3F3F",
"+ c #421800",
"@ c #600000",
"# c #7B4210",
"$ c gray39",
"% c #686868",
"& c #B51021",
"* c #A56B31",
"= c #C69C31",
"- c #BD8C5A",
"; c #2121DE",
": c gray71",
"> c gray74",
", c None",
/* pixels */
",,,,,,,,,,,,,,,,,,,,,,,++++++,,,,,,,,,,,,,,,,,,,",
",,,,,,,,,,,,,,,,,,,,,+++@@@@+++,,,,,,,,,,,,,,,,,",
",,,,,,,,,,,,,,,,,,,+++@&&&&&&@@+,,,,,,,,,,,,,,,,",
",,,,,,,,,,,,,,,,,,++@&&&&>::>&@+,,,,,,,,,,,,,,,,",
",,,,,,,,,,,,,,,,,++@&&&&::@:@:&@+,,,,,,,,,,,,,,,",
",,,,,,,,,,,,,,,,++@&&&&&::@@@:&@+,,,,,,,,,,,,,,,",
",,,,,,,,,,,,,,,,+@&&&&&&:>@@@:@      ,,,,,,,,,,,",
",,,,,,,,,,,,,,,++@&&&&&&&:: .         ,,,,,,,,,,",
",,,,,,,,,,,,,,,+@&&&&&&&&            ,,,,,,,,,,,",
",,,,,,,,,,,,++++@&&&&&&@          ,,,,,,,,,,,,,,",
",,,,,,,,,,,++@@@&&&&&@     ----+ ,,,,,,,,,,,,,,,",
",,,,,,,,,,++@&&@&&&@    ------*+ ,,,,,,,,,,,,,,,",
",,,,,,,,,,+@&&&&&&   #---  ---     ,,,,,,,,,,,,,",
",,,,,,,,,,+@&&&&@  #-----  ---  +++ ,,,,,,,,,,,,",
",,,,,,,,,,+@&&@  +-------  --- #--*+ ,,,,,,,,,,,",
",,,,,,,,,,++@@. ++-------  --------*+ ,,,,,,,,,,",
",,,,,,,,,, +----++++-----##---------+ ,,,,,,,,,,",
",,,,,,,,, +------+++----------------+ ,,,,,,,,,,",
",,,,,,,,, +--##--#+----  ----------*+ ,,,,,,,,,,",
",,,,,,,,, +---#-------    --------*+ ,,,,,,,,,,,",
",,,,,,,,,  +----------      -----*+ ,,,,,,,,,,,,",
",,,,,,,,,,  +----------#           ,,,,,,,,,,,,,",
",,,,,,,,,,,  +++--------          ,,,,,,,,,,,,,,",
",,,,,,,,,,,,,   ++--------       ,,,,,,,,,,,,,,,",
",,,,,,,,,,,,,,,,  ++#-------#+ ,,,,,,,,,,,,,,,,,",
",,,,,,,,,,,,,,,,,,  +++++++++ ,,,,,,,,,,,,,,,,,,",
",,,,,,,,,,,,,,,,,,+@X;;X&&@@XX,,,,,,,,,,,,,,,,,,",
",,,,,,,,,,,,,,,,,+@&X;;;X&&&@XX,,,,,,,,,,,,,,,,,",
",,,,,,,,,,,,,,,,+@&&&X;;;X&&&@XX,,,,,,,,,,,,,,,,",
",,,,,,,,,,,,,,,+@&&&&X;;;;XXXXXXX,,,,,,,,,,,,,,,",
",,,,,,,,,,,,,,+@@&&&&X;;;;;;;;;=++,,,,,,,,,,,,,,",
",,,,,,,,,,,,, o@&&&&@;;;#==;;;;==++,,,,,,,,,,,,,",
",,,,,,,,,,,, o::::>::O;;====;;;==++,,,,,,,,,,,,,",
",,,,,,,,,,,, o:::::::oo;====;;;#=++,,,,,,,,,,,,,",
",,,,,,,,,,, o::%::::::o;#==;;;;;XX,,,,,,,,,,,,,,",
",,,,,,,,,,, o::$:$::::o;;;;;;;;;XX,,,,,,,,,,,,,,",
",,,,,,,,,,, o::::$::::o;;;;;;;;XX,,,,,,,,,,,,,,,",
",,,,,,,,,,, oo::::::$oo;;;;;;;;XX ,,,,,,,,,,,,,,",
",,,,,,,,,,,, oo$::::oo;;;;;;;;XX   ,,,,,,,,,,,,,",
",,,,,,,,,,,,, ooooooo;;;;;;;XXX+++  ,,,,,,,,,,,,",
",,,,,,,,,,,,,  +XX;;;;;;;XXXXX++++  ,,,,,,,,,,,,",
",,,,,,,,,,,,,  +++XXXXXXXXXX++++++  ,,,,,,,,,,,,",
",,,,,,,,,,,,,  *+++++++++++++++++*  ,,,,,,,,,,,,",
",,,,,,,,,,,,,   *#+++++++++++++#*   ,,,,,,,,,,,,",
",,,,,,,,,,,,,,    *#++++++++#*#    ,,,,,,,,,,,,,",
",,,,,,,,,,,,,,,,    ##+++###     ,,,,,,,,,,,,,,,",
",,,,,,,,,,,,,,,,,,             ,,,,,,,,,,,,,,,,,",
",,,,,,,,,,,,,,,,,,,,        ,,,,,,,,,,,,,,,,,,,,"
};
