/* XPM */
static char *result[] = {
/* columns rows colors chars-per-pixel */
"48 51 221 2 ",
"   c #290C0B",
".  c #380D0E",
"X  c #2E110D",
"o  c #3B1B0F",
"O  c #33140E",
"+  c #2E1217",
"@  c #341914",
"#  c #3B1C11",
"$  c #351A19",
"%  c #3D2314",
"&  c #3E241B",
"*  c #371B25",
"=  c #301935",
"-  c #3B2A29",
";  c #3C2733",
":  c #441E11",
">  c #461412",
",  c #551812",
"<  c #4C130F",
"1  c #442412",
"2  c #4C2912",
"3  c #472717",
"4  c #542B14",
"5  c #4E301D",
"6  c #54331E",
"7  c #7A3408",
"8  c #683D18",
"9  c #6E2F17",
"0  c #442B25",
"q  c #443228",
"w  c #4C3334",
"e  c #79450C",
"r  c #6B4217",
"t  c #744B13",
"y  c #7B4E14",
"u  c #774519",
"i  c #7B5017",
"p  c #5B4B2F",
"a  c #694726",
"s  c #744726",
"d  c #79562C",
"f  c #6D4737",
"g  c #765230",
"h  c #3E2C54",
"j  c #2C2975",
"k  c #352D77",
"l  c #332C6B",
"z  c #4F374E",
"x  c #533D76",
"c  c #54485D",
"v  c #7C5348",
"b  c #6F4D51",
"n  c #6F735D",
"m  c #62675F",
"M  c #725468",
"N  c #676A65",
"B  c #7B7D66",
"V  c #9B1E0B",
"C  c #971D0B",
"Z  c #A41F0D",
"A  c #AB1F0F",
"S  c #9B240D",
"D  c #84340A",
"F  c #8C350B",
"G  c #99370D",
"H  c #82361E",
"J  c #AC200E",
"K  c #A1220D",
"L  c #A92410",
"P  c #B32110",
"I  c #B92113",
"U  c #B93A18",
"Y  c #AB3314",
"T  c #90362D",
"R  c #A63929",
"E  c #AC3C33",
"W  c #C72419",
"Q  c #C43E19",
"!  c #D1271E",
"~  c #DB2F2F",
"^  c #D9322F",
"/  c #DD3231",
"(  c #DC3B34",
")  c #DC2F31",
"_  c #E23335",
"`  c #E43B36",
"'  c #E63439",
"]  c #E9353C",
"[  c #E63B39",
"{  c #E93A3C",
"}  c #824B0E",
"|  c #83531A",
" . c #8A5315",
".. c #8F5018",
"X. c #99651C",
"o. c #A46E1B",
"O. c #AB731D",
"+. c #A6701C",
"@. c #B5771F",
"#. c #984929",
"$. c #885724",
"%. c #995926",
"&. c #8D5334",
"*. c #A55735",
"=. c #A74A32",
"-. c #916931",
";. c #A86B23",
":. c #AE7623",
">. c #AB752B",
",. c #BC7B22",
"<. c #B97728",
"1. c #A57631",
"2. c #AB7934",
"3. c #BC7C31",
"4. c #B36428",
"5. c #C4421B",
"6. c #C84724",
"7. c #E34337",
"8. c #E5443B",
"9. c #E64A3D",
"0. c #E8413D",
"q. c #C47D24",
"w. c #CB7B25",
"e. c #C47A27",
"r. c #CB7F31",
"t. c #8B334A",
"y. c #8E5846",
"u. c #AD5648",
"i. c #8A6A52",
"p. c #BF7D43",
"a. c #DB4A58",
"s. c #DC4C53",
"d. c #C27F42",
"f. c #DA4A68",
"g. c #DE5768",
"h. c #D84878",
"j. c #DE5A79",
"k. c #E06D79",
"l. c #E15D56",
"z. c #7C816B",
"x. c #BF8E3B",
"c. c #C98429",
"v. c #C3833B",
"b. c #C68935",
"n. c #D08935",
"m. c #CC953D",
"M. c #C89138",
"N. c #D09338",
"B. c #BE8D40",
"V. c #878775",
"C. c #8E907C",
"Z. c #CB9745",
"A. c #C79757",
"S. c #C28043",
"D. c #D9AB67",
"F. c #DAB26E",
"G. c #D7B06B",
"H. c #DDB572",
"J. c #DEB975",
"K. c #E2BA76",
"L. c #E5BE7A",
"P. c #E6B977",
"I. c #EABF6B",
"U. c #D5A25E",
"Y. c #E6C17C",
"T. c #38338A",
"R. c #302D87",
"E. c #4C3D8E",
"W. c #4D4392",
"Q. c #4F4483",
"!. c #7B79B3",
"~. c #3D3AEE",
"^. c #3F3CF0",
"/. c #423DEE",
"(. c #433EF2",
"). c #4F3FF4",
"_. c #533EF2",
"`. c #553EEE",
"'. c #7C79C9",
"]. c #4A45EC",
"[. c #534BEE",
"{. c #5543ED",
"}. c #5953EB",
"|. c #4642F5",
" X c #4B44F4",
".X c #4E4BF4",
"XX c #4A45F8",
"oX c #4A48F8",
"OX c #5447F5",
"+X c #5957F5",
"@X c #6B49EC",
"#X c #7747EC",
"$X c #7E51EC",
"%X c #6646F2",
"&X c #675AF6",
"*X c #6D58EE",
"=X c #6F69EF",
"-X c #CC399C",
";X c #8F75B0",
":X c #D94E88",
">X c #DE658B",
",X c #8753E8",
"<X c #824FEB",
"1X c #877AC1",
"2X c #8F9190",
"3X c #9386A4",
"4X c #B4ADB3",
"5X c #A8A1CE",
"6X c #CBC8C9",
"7X c #C6C4CD",
"8X c #D7D4CD",
"9X c #DAD6D3",
"0X c #DCD6DB",
"qX c #DCD8DB",
"wX c #D6D4D5",
"eX c #C6C3D1",
"rX c #E2D8D8",
"tX c #DAD6E3",
"yX c #D7D4E5",
"uX c #D7CEE1",
"iX c None",
/* pixels */
"iXiXiXiXiXiXiXiXiXiXiXiXiXiXiXiXiXiXiXF G G G G G iXiXiXiXiXiXiXiXiXiXiXiXiXiXiXiXiXiXiXiXiXiXiX",
"iXiXiXiXiXiXiXiXiXiXiXiXiXiXiXiXiXiXF J P P I P J G F iXiXiXiXiXiXiXiXiXiXiXiXiXiXiXiXiXiXiXiXiX",
"iXiXiXiXiXiXiXiXiXiXiXiXiXiXiXiXiXD Z J ) _ _ ) I J A D iXiXiXiXiXiXiXiXiXiXiXiXiXiXiXiXiXiXiXiX",
"iXiXiXiXiXiXiXiXiXiXiXiXiXiXiXiXD Z J / _ _ _ _ _ ) A Z D iXiXiXiXiXiXiXiXiXiXiXiXiXiXiXiXiXiXiX",
"iXiXiXiXiXiXiXiXiXiXiXiXiXiXiXiXD Z ) _ ' _ ' ' _ _ ) A V 7 iXiXiXiXiXiXiXiXiXiXiXiXiXiXiXiXiXiX",
"iXiXiXiXiXiXiXiXiXiXiXiXiXiXiX7 Z ) ) / ' ' ' ] _ _ _ ) Z D iXiXiXiXiXiXiXiXiXiXiXiXiXiXiXiXiXiX",
"iXiXiXiXiXiXiXiXiXiXiX  X . < V Z ) _ ' ' ] ] ] ] _ _ ) A Z D iXiXiXiXiXiXiXiXiXiXiXiXiXiXiXiXiX",
"iXiXiXiXiXiXiXiXiXiX      > < V Z / _ ' ] ] ] ] ] ] _ _ ) Z V 7 iXiXiXiXiXiXiXiXiXiXiXiXiXiXiXiX",
"iXiXiXiXiXiXiXiXiXiX    . > , Z ) / / ] ] ] { ] ] ] _ _ _ ) Z D iXiXiXiXiXiXiXiXiXiXiXiXiXiXiXiX",
"iXiXiXiXiXiXiXiXiXiXiXX . > , L ( / ] ] ] ] ] ] ] ] ] _ _ ) A F iXiXiXiXiXiXiXiXiXiXiXiXiXiXiXiX",
"iXiXiXiXiXiXiXiXiXiXiXiX# > 9 9 ( ( { { { ] ] ] ] ] ] _ _ ) P G F 7 iXiXiXiXiXiXiXiXiXiXiXiXiXiX",
"iXiXiXiXiXiXiXiXiXiXiXiXiXiX9 9 9 ( { { { { { ] ] ] ] ! W W I J Z V 7 iXiXiXiXiXiXiXiXiXiXiXiXiX",
"iXiXiXiXiXiXiXiXiXiXiX3 2 6 a 8 T T 7.7.{ { 0.{ { ! ! ' _ ' _ ) ^ K V 7 iXiXiXiXiXiXiXiXiXiXiXiX",
"iXiXiXiXiXiXiXiXiXiX3 t y ......3.#.#.s.8.0.0.0.{ ] ' ' ' _ _ _ / ^ K S 7 iXiXiXiXiXiXiXiXiXiXiX",
"iXiXiXiXiXiXiXiXiX% t i G.G.%.c.b.c.#.#.8.9.8.0.0.{ { ` [ ' ' ` ( ^ ( S 7 iXiXiXiXiXiXiXiXiXiXiX",
"iXiXiXiXiXiXiXiXiX3 t G.H.H.H.b.b.4.4.4.4.6.9.9.0.0.` { { [ ` ` ` ( ( S 7 iXiXiXiXiXiXiXiXiXiXiX",
"iXiXiXiXiXiXiXiXiX% i G.G.J.J.x.>.K.P.P.n.6.6.5.8.8.0.0.0.0.0.7.` 7.( Y , iXiXiXiXiXiXiXiXiXiXiX",
"iXiXiXiXiXiXiXiXiX& i F.J.J.x.o.L.L.L.P.Y.n.n.c.5.5.Q 0.7.7.7.7.7.Y Y U.e : iXiXiXiXiXiXiXiXiXiX",
"iXiXiXiXiXiXiXiXiX5 t F.G.d x.x.Y.Y.L.L.Y.c.n.n.c.w.w.Q Q Q 5.Q U e.U.D.e : iXiXiXiXiXiXiXiXiXiX",
"iXiXiXiXiXiXiXiXiX% t G.d d x.-.Y.Y.Y.Y.Y.N.N.c.c.c.w.w.w.w.w.w.w.w.D.U.e : iXiXiXiXiXiXiXiXiXiX",
"iXiXiXiXiXiXiXiXiX% t i a d J.x.Y.Y.Y.Y.Y.m.N.c.c.c.q.c.w.w.q.q.q.@.U.} e # iXiXiXiXiXiXiXiXiXiX",
"iXiXiXiXiXiXiXiXiXiX% t 6 a G.J.1.Y.Y.L.m.N.M.n.c.c.c.,.w.c.w.@.,...} } 1 iXiXiXiXiXiXiXiXiXiXiX",
"iXiXiXiXiXiXiXiXiXiXiX% 5 a g K.J.1.2.Z.N.M.M.c.c.c.c.c.@.c.,.@.@...e 2 iXiXiXiXiXiXiXiXiXiXiXiX",
"iXiXiXiXiXiXiXiXiXiXiXiXiX5 i $.H.K.K.P.K.M.b.b.c.c.c.,.c.,.c.@. .} 4 iXiXiXiXiXiXiXiXiXiXiXiXiX",
"iXiXiXiXiXiXiXiXiXiXiXiXiXiX6 | X.H.H.P.b.S.v.n.c.c.v.3.<.<.<.:.O.e 2 iXiXiXiXiXiXiXiXiXiXiXiXiX",
"iXiXiXiXiXiXiXiXiXiXiXiXiXiXiX6 | ..%.H.S.r.d.d.B.2.*.%.*.3.>.:.;.u : iXiXiXiXiXiXiXiXiXiXiXiXiX",
"iXiXiXiXiXiXiXiXiXiXiXiXiXiXiXiX8 s %.%.*.*.u.u.y.u.a.a.y.#.#.u 7 u # iXiXiXiXiXiXiXiXiXiXiXiXiX",
"iXiXiXiXiXiXiXiXiXiXiXiXiXiXiXiXiXb R E s.a.,X,X<X<Xh.f.f.M T T u 0 iXiXiXiXiXiXiXiXiXiXiXiXiXiX",
"iXiXiXiXiXiXiXiXiXiXiXiXiXiXiXiXb T R { s.a.f.,X#X#Xh.h.h.@Xx T a iXiXiXiXiXiXiXiXiXiXiXiXiXiXiX",
"iXiXiXiXiXiXiXiXiXiXiXiXiXiXiXz b R E a.f.f.h.<X#X#X#X-X@X`.x t.T a iXiXiXiXiXiXiXiXiXiXiXiXiXiX",
"iXiXiXiXiXiXiXiXiXiXiXiXiXiXz c E =.a.f.f.j.:X<X%X%X%X-X%X`.E.x t.b iXiXiXiXiXiXiXiXiXiXiXiXiXiX",
"iXiXiXiXiXiXiXiXiXiXiXiXiXiXc M =.*.g.j.j.:X:X#X%X%X`.`.`.`.`.E.t.N w iXiXiXiXiXiXiXiXiXiXiXiXiX",
"iXiXiXiXiXiXiXiXiXiXiXiXiXc m y.u.U.k.>X>X>X;X*X%X%XOX).). X{.E.Q.7XN ; iXiXiXiXiXiXiXiXiXiXiXiX",
"iXiXiXiXiXiXiXiXiXiXiXiXiXb V.9X9X9XrXrXrX;X;X$X%XOXOXXX X X X{.E.eX6XN - iXiXiXiXiXiXiXiXiXiXiX",
"iXiXiXiXiXiXiXiXiXiXiX- p V.9X9XqXqXqXqXrXuX;X&X+XOXXX).XX X{.[.W.7X6Xm - iXiXiXiXiXiXiXiXiXiXiX",
"iXiXiXiXiXiXiXiXiXiX- p B 8X8X4XqXqXqXqXtXtX1X&X+XOXXXXX|. X.XOXW.eX6XN - iXiXiXiXiXiXiXiXiXiXiX",
"iXiXiXiXiXiXiXiXiX$ - n z.8X8X4XqX7XwXyXyX5X=X+X+XOXXXXXXXXXOX[.W.Q.6Xm 0 iXiXiXiXiXiXiXiXiXiXiX",
"iXiXiXiXiXiXiXiXiX& - n z.8X8XwXqX4XyXyXyXyX'.=X+XoXXXXXXX|.OX}.x c c w 0 iXiXiXiXiXiXiXiXiXiXiX",
"iXiXiXiXiXiXiXiXiX& q n z.C.8XwXqXqXyXyXyXyX'.+X+XoXoX(.(. X[.M v v A.1.0 & iXiXiXiXiXiXiXiXiXiX",
"iXiXiXiXiXiXiXiXiX$ - B.B z.C.wXwXqXyXyXyX'.+X+XoXoXXX(.(. X}.M v U.p.-.6 3 iXiXiXiXiXiXiXiXiXiX",
"iXiXiXiXiXiXiXiXiX$ & 1.d z.V.C.2X2X3X!.!.=X+X.XXX(././.(.[.M b &.A.1.>.+.3 # iXiXiXiXiXiXiXiXiX",
"iXiXiXiXiXiXiXiXiXiX$ 5 1.d -.i.i.=X&X}.}.[..XoX(././././. Xt.v g A.2.1.;.2 1 iXiXiXiXiXiXiXiXiX",
"iXiXiXiXiXiXiXiXiXiX% & 5 d g v i.*X}.[.[.].].^.~.~.~.~.T.x b &.&.A.c.+.O.4 1 iXiXiXiXiXiXiXiXiX",
"iXiXiXiXiXiXiXiXiXiXiX$ & ;.s d g g }./.].T.T.R.R.R.R.j j z w g d :.Z.O.O.+.1 o iXiXiXiXiXiXiXiX",
"iXiXiXiXiXiXiXiXiXiXiX@ % B.r r a f f z k k j j j j j l l z w 6 |  .m.O.O.+.2 o iXiXiXiXiXiXiXiX",
"iXiXiXiXiXiXiXiXiXiXiXX @ X.r r 8 a ; = = iXiXiXiXiXiXiXiX* * s y  .m.O.+.o.2 o iXiXiXiXiXiXiXiX",
"iXiXiXiXiXiXiXiXiXiXiXX X o X.X.8 * * = iXiXiXiXiXiXiXiXiX$ 3 o.e y m.O.+.o.1 @ iXiXiXiXiXiXiXiX",
"iXiXiXiXiXiXiXiXiXiXiXiXX X @ @ $ + + iXiXiXiXiXiXiXiXiXiX$ & X.+.y O.m.+.o.1 # iXiXiXiXiXiXiXiX",
"iXiXiXiXiXiXiXiXiXiXiXiXiXX X O X iXiXiXiXiXiXiXiXiXiXiXiXiX# 1 e e } o.o.2 : O iXiXiXiXiXiXiXiX",
"iXiXiXiXiXiXiXiXiXiXiXiXiXiXiXiXiXiXiXiXiXiXiXiXiXiXiXiXiXiXiX% 1 2 2 2 2 1 o iXiXiXiXiXiXiXiXiX",
"iXiXiXiXiXiXiXiXiXiXiXiXiXiXiXiXiXiXiXiXiXiXiXiXiXiXiXiXiXiXiXiXo 1 1 1 1 o iXiXiXiXiXiXiXiXiXiX"
};
