/* XPM */
static char *result[] = {
/* columns rows colors chars-per-pixel */
"48 51 221 2 ",
"   c #2C0D0C",
".  c #240C0A",
"X  c #380D0E",
"o  c #2D120C",
"O  c #391B0D",
"+  c #36160E",
"@  c #2C1215",
"#  c #3C1B12",
"$  c #361616",
"%  c #270F11",
"&  c #3D2313",
"*  c #3B2218",
"=  c #2C1828",
"-  c #28173C",
";  c #372427",
":  c #392739",
">  c #3F332D",
",  c #441E13",
"<  c #461412",
"1  c #541812",
"2  c #540F0F",
"3  c #7B0F0F",
"4  c #750F0E",
"5  c #6D0D10",
"6  c #442313",
"7  c #4A2414",
"8  c #492918",
"9  c #582815",
"0  c #502713",
"q  c #7C3308",
"w  c #783409",
"e  c #6D3014",
"r  c #472828",
"t  c #5B2725",
"y  c #40332F",
"u  c #573721",
"i  c #462737",
"p  c #4B3937",
"a  c #5A2C3A",
"s  c #682925",
"d  c #633526",
"f  c #673E38",
"g  c #7A440C",
"h  c #6C4313",
"j  c #744A13",
"k  c #7A4E16",
"l  c #754519",
"z  c #7D5017",
"x  c #50443C",
"c  c #6B4725",
"v  c #754527",
"b  c #744839",
"n  c #714F2E",
"m  c #291C4B",
"M  c #2A255C",
"N  c #322D78",
"B  c #342F71",
"V  c #452948",
"C  c #573747",
"Z  c #473453",
"A  c #4F3C77",
"S  c #564659",
"D  c #584E4C",
"F  c #704E4B",
"G  c #544B78",
"H  c #5D5574",
"J  c #524E6C",
"K  c #68576C",
"L  c #5E6561",
"P  c #747967",
"I  c #676B68",
"U  c #9B1D0B",
"Y  c #961E0B",
"T  c #801011",
"R  c #A41E0D",
"E  c #AB1F0E",
"W  c #AE1F10",
"Q  c #9D240E",
"!  c #84330A",
"~  c #8C340B",
"^  c #99360D",
"/  c #82351E",
"(  c #A8210E",
")  c #A82611",
"_  c #B42111",
"`  c #B92013",
"'  c #B93918",
"]  c #AB3214",
"[  c #993726",
"{  c #91362F",
"}  c #A63628",
"|  c #A93C33",
" . c #C72319",
".. c #C43D19",
"X. c #D1261E",
"o. c #DB2E2F",
"O. c #DD2F31",
"+. c #DD3333",
"@. c #DC3B34",
"#. c #D9332F",
"$. c #E23235",
"%. c #E43D37",
"&. c #E63439",
"*. c #E9343C",
"=. c #E53B39",
"-. c #E93A3D",
";. c #82490E",
":. c #885218",
">. c #8E4D17",
",. c #AF721E",
"<. c #994829",
"1. c #985928",
"2. c #8B562B",
"3. c #A75232",
"4. c #9E6A2B",
"5. c #A66B23",
"6. c #BC7A23",
"7. c #B97627",
"8. c #A97632",
"9. c #B16F2C",
"0. c #C84624",
"q. c #E34537",
"w. c #E5443B",
"e. c #E64A3E",
"r. c #E8413D",
"t. c #C47D24",
"y. c #CB7C25",
"u. c #C87927",
"i. c #C37E32",
"p. c #D07E2F",
"a. c #C6431D",
"s. c #8B324B",
"d. c #9D5744",
"f. c #AB574A",
"g. c #AF4D44",
"h. c #B27942",
"j. c #9D7474",
"k. c #DA4B56",
"l. c #DB484D",
"z. c #C17E43",
"x. c #DA4966",
"c. c #DD5667",
"v. c #D74878",
"b. c #DD5A78",
"n. c #E06C79",
"m. c #DE6A6B",
"M. c #7B826F",
"N. c #BE8B3B",
"B. c #CC852C",
"V. c #C7842A",
"C. c #CB8D32",
"Z. c #C48839",
"A. c #D08835",
"S. c #CD943A",
"D. c #D09338",
"F. c #85887A",
"G. c #C28B42",
"H. c #C4924A",
"J. c #D9AB67",
"K. c #DAB26E",
"L. c #D7B06B",
"P. c #DDB572",
"I. c #DEB975",
"U. c #E5BD7A",
"Y. c #E3B877",
"T. c #E6C17C",
"R. c #362E85",
"E. c #393587",
"W. c #3A3596",
"Q. c #453E89",
"!. c #443D95",
"~. c #50388B",
"^. c #4E4585",
"/. c #7C78B4",
"(. c #3D3BEE",
"). c #3F3DF2",
"_. c #463DED",
"`. c #413EF3",
"'. c #4F3FF4",
"]. c #533EF1",
"[. c #543EEE",
"{. c #7B79C8",
"}. c #4B43EE",
"|. c #5846ED",
" X c #5D53EC",
".X c #4442F5",
"XX c #4B44F3",
"oX c #4C49F7",
"OX c #534CF5",
"+X c #5547F6",
"@X c #5955F6",
"#X c #6A4AEC",
"$X c #774AEC",
"%X c #6546F2",
"&X c #685BF4",
"*X c #7255ED",
"=X c #6A65F0",
"-X c #CC399C",
";X c #8C74AF",
":X c #93739A",
">X c #D84D85",
",X c #DE648B",
"<X c #8252E8",
"1X c #877AC1",
"2X c #888D8F",
"3X c #9085A4",
"4X c #B0A9AF",
"5X c #A9A2CE",
"6X c #C7C6CA",
"7X c #D3D2CB",
"8X c #DAD3CE",
"9X c #D5D3D3",
"0X c #DBD6D5",
"qX c #DBD5DB",
"wX c #DBD7DC",
"eX c #CAC8D0",
"rX c #E2D8D9",
"tX c #D5D3E4",
"yX c #D9D6E3",
"uX c #D4CFE4",
"iX c None",
/* pixels */
"iXiXiXiXiXiXiXiXiXiXiXiXiXiXiXiXiXiXiX4 3 3 ^ ^ ^ ^ ^ ~ 3 4 iXiXiXiXiXiXiXiXiXiXiXiXiXiXiXiXiXiX",
"iXiXiXiXiXiXiXiXiXiXiXiXiXiXiXiXiXiXiX3 ~ ^ E _ ` ` _ E ~ 3 iXiXiXiXiXiXiXiXiXiXiXiXiXiXiXiXiXiX",
"iXiXiXiXiXiXiXiXiXiXiXiXiXiXiXiXiXiX3 ~ R W ` O.O.$.O._ R ! 4 iXiXiXiXiXiXiXiXiXiXiXiXiXiXiXiXiX",
"iXiXiXiXiXiXiXiXiXiXiXiXiXiXiXiXiXiXq R W O.$.$.$.$.$.o.E R ! iXiXiXiXiXiXiXiXiXiXiXiXiXiXiXiXiX",
"iXiXiXiXiXiXiXiXiXiXiXiXiXiXiXiXiXq U E O.$.$.&.$.$.$.$.O.R ! 5 iXiXiXiXiXiXiXiXiXiXiXiXiXiXiXiX",
"iXiXiXiXiXiXiXiXiXiXiXiXiXiXiXiXiX! R O.O.$.$.*.*.*.*.$.O.O.R q 2 iXiXiXiXiXiXiXiXiXiXiXiXiXiXiX",
"iXiXiXiXiXiXiXiXiXiXiXiXiXiXiXiXq U E O.$.&.*.*.*.*.*.$.$.O.R Y 2 X   . iXiXiXiXiXiXiXiXiXiXiXiX",
"iXiXiXiXiXiXiXiXiXiXiXiXiXiXiXw U E O.$.$.*.*.*.*.*.&.&.$.O.R U 2 X X   . iXiXiXiXiXiXiXiXiXiXiX",
"iXiXiXiXiXiXiXiXiXiXiXiXiXiXiX! R o.$.$.*.*.*.*.*.*.*.&.+.+.+.Y 2 <     . iXiXiXiXiXiXiXiXiXiXiX",
"iXiXiXiXiXiXiXiXiXiXiXiXiXiXT ~ E o.$.$.*.*.*.*.*.*.*.*.&.+.+.Q e < X o iXiXiXiXiXiXiXiXiXiXiXiX",
"iXiXiXiXiXiXiXiXiXiXiXiXiXq ~ ^ _ O.$.*.*.*.*.*.*.*.*.*.*.+.+.s 1 1 , O iXiXiXiXiXiXiXiXiXiXiXiX",
"iXiXiXiXiXiXiXiXiXiXiXiXq U R _ `  . .X.*.*.*.-.*.-.-.-.=.@./ e 9 1 7 6 iXiXiXiXiXiXiXiXiXiXiXiX",
"iXiXiXiXiXiXiXiXiXiXiXw Y R o.O.O.$.&.&.X.X.-.-.-.-.-.=.l./ / e h u 0 6 iXiXiXiXiXiXiXiXiXiXiXiX",
"iXiXiXiXiXiXiXiXiXiXe Q Q o.#.$.&.&.&.&.&.-.-.-.r.r.w.%.<.<.u.1.:.z z j 8 iXiXiXiXiXiXiXiXiXiXiX",
"iXiXiXiXiXiXiXiXiXiXw Q #.#.%.$.&.*.*.*.-.-.r.r.e.e.r.3.<.i.Z.V.4.L.K.z k & iXiXiXiXiXiXiXiXiXiX",
"iXiXiXiXiXiXiXiXiXiXw ) #.@.@.%.%.%.%.&.-.r.r.r.e.0.3.9.9.5.Z.Z.I.I.K.K.z & iXiXiXiXiXiXiXiXiXiX",
"iXiXiXiXiXiXiXiXiXiXw ( #.@.@.%.%.%.%.r.%.r.w.a.0.0.A.Y.Y.U.u.C.I.I.I.L.j & iXiXiXiXiXiXiXiXiXiX",
"iXiXiXiXiXiXiXiXiX, g J.] ' q.@.q.q.q.q.....a.B.A.A.Y.U.U.U.U.9.S.T.I.L.z 8 iXiXiXiXiXiXiXiXiXiX",
"iXiXiXiXiXiXiXiXiX, ;.J.J.t.' ..........y.y.B.B.A.D.U.T.T.T.T.8.N.n K.L.k & iXiXiXiXiXiXiXiXiXiX",
"iXiXiXiXiXiXiXiXiX6 w J.J.6.t.y.y.y.y.y.y.B.B.B.A.D.U.T.T.T.T.8.S.n n L.j & iXiXiXiXiXiXiXiXiXiX",
"iXiXiXiXiXiXiXiXiX# g ;.J.t.t.t.y.y.t.y.V.V.V.C.C.S.T.T.T.T.T.8.I.n c j h * iXiXiXiXiXiXiXiXiXiX",
"iXiXiXiXiXiXiXiXiXiX6 g ;.>.,.t.t.y.t.t.y.V.V.C.C.S.S.T.T.T.8.I.I.c u j & iXiXiXiXiXiXiXiXiXiXiX",
"iXiXiXiXiXiXiXiXiXiXiX0 ;.>.,.6.6.t.V.V.V.V.V.V.C.S.S.S.8.8.I.P.n u 8 & iXiXiXiXiXiXiXiXiXiXiXiX",
"iXiXiXiXiXiXiXiXiXiXiX9 0 ;.;.6.6.6.6.t.t.V.V.V.C.S.Y.U.Y.I.P.2.:.8 iXiXiXiXiXiXiXiXiXiXiXiXiXiX",
"iXiXiXiXiXiXiXiXiXiXiXiX8 g ,.,.7.N.7.7.i.i.i.z.Z.Z.Z.Y.P.P.2.:.9 u iXiXiXiXiXiXiXiXiXiXiXiXiXiX",
"iXiXiXiXiXiXiXiXiXiXiXiX& g 5.,.9.7.3.<.3.z.z.z.h.G.G.Y.1.1.c 9 d iXiXiXiXiXiXiXiXiXiXiXiXiXiXiX",
"iXiXiXiXiXiXiXiXiXiXiXiXO w j l >.2.<.k.k.d.g.d.f.3.3.1.3.d s s t iXiXiXiXiXiXiXiXiXiXiXiXiXiXiX",
"iXiXiXiXiXiXiXiXiXiXiXiXiX6 8 v [ { J x.x.v.<X<X<Xj.k.k.} } F s t iXiXiXiXiXiXiXiXiXiXiXiXiXiXiX",
"iXiXiXiXiXiXiXiXiXiXiXiXiXr i v { A $Xv.>X>X$X$X<Xx.k.k.l.} ] C s iXiXiXiXiXiXiXiXiXiXiXiXiXiXiX",
"iXiXiXiXiXiXiXiXiXiXiXiXiXi i f s.A [.#X>X%X%X$X<Xv.x.x.k.| } F C iXiXiXiXiXiXiXiXiXiXiXiXiXiXiX",
"iXiXiXiXiXiXiXiXiXiXiXiXiXV b s.A ~.[.%X-X%X%X$X$X>Xb.c.c.k.| { S Z iXiXiXiXiXiXiXiXiXiXiXiXiXiX",
"iXiXiXiXiXiXiXiXiXiXiXiXiXi K s.~.[.[.[.'.].%X%X$X:X>Xb.c.c.g.g.K S iXiXiXiXiXiXiXiXiXiXiXiXiXiX",
"iXiXiXiXiXiXiXiXiXiXiXiX: L eX^.^.XXXX'.'.+X+X%X&X;X,X,X,Xn.m.h.f.L S iXiXiXiXiXiXiXiXiXiXiXiXiX",
"iXiXiXiXiXiXiXiXiXiXiX; L 7X6XQ.}.}.XX.X'.+X+X%X&X;X;XrXrXrXrXrX7XF.D iXiXiXiXiXiXiXiXiXiXiXiXiX",
"iXiXiXiXiXiXiXiXiXiXiX; L 6X6XW.oX}..X.X`.oX+X&X*X1XrXrXwXwXwXwX7X7Xj.x iXiXiXiXiXiXiXiXiXiXiXiX",
"iXiXiXiXiXiXiXiXiXiXiX; L 6XQ.!..XoX.X.X`.oXoX@X&X1XuXyXwXrXwXwX4X7X7XI > iXiXiXiXiXiXiXiXiXiXiX",
"iXiXiXiXiXiXiXiXiXiXiX; L 6XN W..X.X.X.X.X.XoX@X&X=X5XtXyXyX4XwX4X6X7XP > iXiXiXiXiXiXiXiXiXiXiX",
"iXiXiXiXiXiXiXiXiXiXiX; J J E.E.).)..X)..XoXoX@X&X1XtXtXyXyX4XwX7X7X7XM.> iXiXiXiXiXiXiXiXiXiXiX",
"iXiXiXiXiXiXiXiXiXiXiXiX= : J E.).).`.`..X.XoXOX@X{.tXtXyXyXwX9X7X7XM.x iXiXiXiXiXiXiXiXiXiXiXiX",
"iXiXiXiXiXiXiXiXiXiXiXiXiXM m N R.).).).)..XoXOX@X=X{.uXtXwXwX9XF.M.x y iXiXiXiXiXiXiXiXiXiXiXiX",
"iXiXiXiXiXiXiXiXiXiXiXiXiXiXM B N R._.(.(.`._.oXOX@X=X/.3X2X2XM.F D D iXiXiXiXiXiXiXiXiXiXiXiXiX",
"iXiXiXiXiXiXiXiXiXiXiXiXiXiXiXm B N R.W.W._.`.'.OX@X X X=X=XH H D D D iXiXiXiXiXiXiXiXiXiXiXiXiX",
"iXiXiXiXiXiXiXiXiXiXiXiXiXiXiXm - B N R.W._._._.}. X@X X XH G C p x iXiXiXiXiXiXiXiXiXiXiXiXiXiX",
"iXiXiXiXiXiXiXiXiXiXiXiXiXiXiX@ = t a C N ~._._.}.}.^.G H F h.8.y ; iXiXiXiXiXiXiXiXiXiXiXiXiXiX",
"iXiXiXiXiXiXiXiXiXiXiXiXiXiXiX@ @ t t f f V B A J A F F C n H.5.j * o iXiXiXiXiXiXiXiXiXiXiXiXiX",
"iXiXiXiXiXiXiXiXiXiXiXiXiXiXiX% @ $ 9 u f i f F b b b b n r v l e O + iXiXiXiXiXiXiXiXiXiXiXiXiX",
"iXiXiXiXiXiXiXiXiXiXiXiXiXiXiX% @ 1 $ < r r c v v v v v l l j h N.& o iXiXiXiXiXiXiXiXiXiXiXiXiX",
"iXiXiXiXiXiXiXiXiXiXiXiXiXiXiX. @ @ 1 9 9 $ 4.l v v l l l 5.5.Z.N.* + iXiXiXiXiXiXiXiXiXiXiXiXiX",
"iXiXiXiXiXiXiXiXiXiXiXiXiXiXiXiX% o + $ $ , 8 G.G.H.G.5.5.8 7 6 O o o iXiXiXiXiXiXiXiXiXiXiXiXiX",
"iXiXiXiXiXiXiXiXiXiXiXiXiXiXiXiXiX  o + + # , 6 7 0 0 0 0 6 6 O O o iXiXiXiXiXiXiXiXiXiXiXiXiXiX",
"iXiXiXiXiXiXiXiXiXiXiXiXiXiXiXiXiX. . .   o # , , , 7 , 6 O O O O O iXiXiXiXiXiXiXiXiXiXiXiXiXiX"
};
