/* XPM */
static char *result[] = {
/* columns rows colors chars-per-pixel */
"54 45 212 2 ",
"   c #291817",
".  c #341D1B",
"X  c #3B1A1B",
"o  c #36221E",
"O  c #3A2323",
"+  c #392526",
"@  c #372535",
"#  c #29223B",
"$  c #481D1E",
"%  c #7B2A1C",
"&  c #74291B",
"*  c #6F2819",
"=  c #442C24",
"-  c #4B2723",
";  c #572A24",
":  c #46332A",
">  c #543329",
",  c #472A36",
"<  c #553E36",
"1  c #683828",
"2  c #7C3C24",
"3  c #7D3D2B",
"4  c #733B2A",
"5  c #693836",
"6  c #783D36",
"7  c #742D24",
"8  c #4C1E20",
"9  c #544536",
"0  c #694528",
"q  c #774827",
"w  c #785428",
"e  c #664A39",
"r  c #7C4634",
"t  c #6A533A",
"y  c #765638",
"u  c #75693F",
"i  c #2C2543",
"p  c #33345B",
"a  c #392A4A",
"s  c #383867",
"d  c #393B72",
"f  c #3C3E7C",
"g  c #4A3556",
"h  c #523859",
"j  c #683B48",
"k  c #6A3D58",
"l  c #733E46",
"z  c #463C6E",
"x  c #6D3F72",
"c  c #3D417D",
"v  c #7A4346",
"b  c #765749",
"n  c #6A4D4E",
"m  c #7C6945",
"M  c #757357",
"N  c #7F724A",
"B  c #584476",
"V  c #664369",
"C  c #6D4972",
"Z  c #930C0F",
"A  c #940E12",
"S  c #9B0E12",
"D  c #9A1415",
"F  c #8D0E10",
"G  c #A41116",
"H  c #A91918",
"J  c #B8181D",
"K  c #8F261A",
"L  c #A92319",
"P  c #8B2E21",
"I  c #922F23",
"U  c #843C25",
"Y  c #8C3D26",
"T  c #863B2A",
"R  c #943A27",
"E  c #8D2F36",
"W  c #AB3635",
"Q  c #C41E22",
"!  c #CB293B",
"~  c #CD273B",
"^  c #D22B3D",
"/  c #D1273C",
"(  c #DA3B36",
")  c #D4313A",
"_  c #D9323C",
"`  c #DD3A3A",
"'  c #D53C35",
"]  c #CD3339",
"[  c #E23B3D",
"{  c #874528",
"}  c #954B2B",
"|  c #83592C",
" . c #975B2B",
".. c #874735",
"X. c #8A5639",
"o. c #965C36",
"O. c #A5592D",
"+. c #AE5334",
"@. c #8B6B2A",
"#. c #9A662D",
"$. c #8E752B",
"%. c #92792D",
"&. c #96772D",
"*. c #846636",
"=. c #9D6733",
"-. c #947935",
";. c #A56635",
":. c #AA763A",
">. c #A1602D",
",. c #DC433C",
"<. c #D9463D",
"1. c #E0403E",
"2. c #94264D",
"3. c #9B2B5D",
"4. c #E43D40",
"5. c #835544",
"6. c #8C7958",
"7. c #8F7E62",
"8. c #D94C4A",
"9. c #D7484E",
"0. c #DA524C",
"q. c #D54755",
"w. c #D85854",
"e. c #C64457",
"r. c #D9665D",
"t. c #C84567",
"y. c #D14565",
"u. c #CE4773",
"i. c #9C8332",
"p. c #9E8839",
"a. c #9F832E",
"s. c #A28936",
"d. c #A7913D",
"f. c #CCA326",
"g. c #CEA629",
"h. c #D3AC2A",
"j. c #D0A827",
"k. c #D9B52D",
"l. c #DEBB2C",
"z. c #D7B12C",
"x. c #D9B532",
"c. c #DDBB31",
"v. c #D4B038",
"b. c #D2AD33",
"n. c #E1BC2D",
"m. c #E2BF31",
"M. c #E4C32D",
"N. c #E8C72F",
"B. c #E9CA2F",
"V. c #E4C432",
"C. c #EBCC31",
"Z. c #EACE3B",
"A. c #E6C93A",
"S. c #EED036",
"D. c #EED23B",
"F. c #A38D48",
"G. c #A89046",
"H. c #99977A",
"J. c #91896A",
"K. c #B9987C",
"L. c #D49B4E",
"P. c #CD9A49",
"I. c #D6A55C",
"U. c #D4AC63",
"Y. c #DDB56C",
"T. c #D9B369",
"R. c #DEBA70",
"E. c #DDB770",
"W. c #E0B56D",
"Q. c #E1BB71",
"!. c #E1B770",
"~. c #ECD141",
"^. c #E2CF5D",
"/. c #E5D363",
"(. c #E5D36B",
"). c #F2E47B",
"_. c #F5E87E",
"`. c #F1E377",
"'. c #3C3F83",
"]. c #673F80",
"[. c #3E4287",
"{. c #474487",
"}. c #65478D",
"|. c #494DDE",
" X c #544EDC",
".X c #5850DF",
"XX c #6750DB",
"oX c #6B50DA",
"OX c #454EE1",
"+X c #4B4FE1",
"@X c #4651E5",
"#X c #4A52E5",
"$X c #4B55EB",
"%X c #4C58EF",
"&X c #5352E4",
"*X c #5B52E4",
"=X c #5456EC",
"-X c #5B55E9",
";X c #5258EF",
":X c #4D58F1",
">X c #5059F1",
",X c #504FE1",
"<X c #6252E4",
"1X c #644FE0",
"2X c #B1A58B",
"3X c #A3A185",
"4X c #F6EA80",
"5X c #D5D1BC",
"6X c #DAD1BE",
"7X c #D9CDBB",
"8X c #DAD4C0",
"9X c None",
/* pixels */
"9X9X9X9X9X9X9X9X9X9X9X9X9X9X9X9X9X9X9X9X9X9X9X9X9X9X9X9X9X9X9X9X9XP P I I I 9X9X9X9X9X9X9X9X9X9X9X9X9X9X9X9X",
"9X9X9X9X9X9X9X9X9X9X9X9X9X9X9X9X9X9X9X9X9X9X9X9X9X9X9X9X9X9X9X9XP S G G H G I P 9X9X9X9X9X9X9X9X9X9X9X9X9X9X",
"9X9X9X9X9X9X9X9X9X9X9X9X9X9X9X9X9X9X9X9X9X9X9X9X9X9X9X9X9X9X9X% S G / / ^ ^ G G A P 9X9X9X9X9X9X9X9X9X9X9X9X",
"9X9X9X9X9X9X9X9X9X9X9X9X9X9X9X9X9X9X9X9X9X9X9X9X9X9X9X9X9X9X% A S / _ ) _ _ ^ ^ S S % 9X9X9X9X9X9X9X9X9X9X9X",
"9X9X9X9X9X9X9X9X9X9X9X9X9X9X9X9X9X9X9X9X9X9X9X9X9X9X9X9X9X9X% S ~ ) ( ( ` ` _ / / G A % 9X9X9X9X9X9X9X9X9X9X",
"9X9X9X9X9X9X9X9X9X9X9X9X9X9X9X9X9X9X9X9X9X9X9X9X9X9X9X9X9X& A G / ) [ [ [ [ [ _ / / S A % 9X9X9X9X9X9X9X9X9X",
"9X9X9X9X9X9X9X9X9X9X9X9X9X9X9X9X9X9X9X9X9X9X9X9X9X9X9X9X9X% A ! ) [ [ [ [ [ ` ` _ / / S A & 9X9X9X9X9X9X9X9X",
"9X9X9X9X9X9X9X9X9X9X9X9X9X9X9X9X9X9X9X9X9X9X9X9X9X9X9X9X9X% D ^ ` _ [ [ [ [ [ [ ` _ ^ ~ S A % 9X9X9X9X9X9X9X",
"9X9X9X9X9X9X9X9X9X9X9X9X9X9X9X9X9X9X9X9X9X9X9X9X9X    X $ A ~ ^ ` ` ` 4.4.4.4.[ [ _ / / G S Z % 9X9X9X9X9X9X",
"9X9X9X9X9X9X9X9X9X9X9X9X9X9X9X9X9X9X9X9X9X9X9X9X    . X 8 A ! ) ` 1.` 4.4.4.4.[ [ [ J J G G S Z % * 9X9X9X9X",
"9X9X9X9X9X9X9X9X9X9X9X9X9X9X9X9X9X9X9X9X9X9X9X9X    . $ 8 F ! ] ` ` [ [ 4.4.[ 4.Q Q ` _ / / ~ S Z F * 9X9X9X",
"9X9X9X9X9X9X9X9X9X9X9X9X9X9X9X9X9X9X9X9X9X9X9X9X9X  . X 8 ; ] ' ' ` ` ` [ [ 4.` [ [ [ [ ( / ~ ~ Z A & 9X9X9X",
"9X9X9X9X9X9X9X9X9X9X9X9X9X9X9X9X9X9X9X9X9X9X9X9X9X9Xo $ - ; 7 _ ' <.` ,.1.1.[ [ [ [ [ ( ( _ / ~ ! A % 9X9X9X",
"9X9X9X9X9X9X9X9X9X9X9X9X9X9X9X9X9X9X9X9X9X9X9X9X9X9X9X9X; > 1 6 T 8.8.,.,.,.,.[ [ ( [ ( [ ( ( ) ] D P 9X9X9X",
"9X9X9X9X9X9X9X9X9X9X9X9X9X9X9X9X9X9X9X9X9X9X9X9X9X9X9X> > 1 5 6 r T ..R <.,.,.,.[ [ ( ( ( ( ' ' ] D K ; ; 9X",
"9X9X9X9X9X9X9X9X9X9X9X9X9X9X9X9X9X9X9X9X9X9X9X9X9X+ : q r {  . .>.O.+.O.} } R ( ( ( ( ( ' ( ' ' H D L U 2 - ",
"9X9X9X9X9X9X9X9X9X9X9X9X9X9X9X9X9X9X9X9X9X9X9X9X+ 4 q I.P.@.#.>.;.Y.W.O.O.+.O.L L L L L H L L L L Y I.{ q ; ",
"9X9X9X9X9X9X9X9X9X9X9X9X9X9X9X9X9X9X9X9X9X9X9X9Xo q U.U.U.P.=.:.!.E.W.W.;.O.O.} R R R R R R R Y U { I.I.U ; ",
"9X9X9X9X9X9X9X9X9X9X9X9X9X9X9X9X9X9X9X9X9X9X9X9X= q U.T.T.;.Y.:.Q.Q.Q.!.Y.>. .} } Y R R Y Y Y Y U { I.I.q ; ",
"9X9X9X9X9X9X9X9X9X9X9X9X%.%.$.$.$.9X9X9X9X9X9X9X: q U.U.T.&.R.:.Q.Q.Q.Q.Y.>. .} Y U Y U U Y U { U { I.{ > 9X",
"9X9X9X9X9X9X9X9X9Xp.p.p.p.a.i.i.w 0 > 9X9X9X9X9X- q U.U.y *.Y.:.(.!.!.Q.L. .#.} { U U U U U U U U 2 2 q > 9X",
"9X9X9X9X9X9X9Xp.d.`.`.`.`.c.z.h.j.f.w 0 0 9X9X9X: q w U.t y R.Q.:.Q.Q.E.;.=. .....T 3 3 3 3 U 2 2 2 2 2 = 9X",
"9X9X9X9X9Xp.d.`.).).).).`.V.m.k.h.j.f.w 0 0 9X9X= q q y e y R.R.R.:.:.;.;.=.o...r r 6 ..3 T 6 3 2 2 2 * = 9X",
"9X9X9X9Xp.).)._._._._._.A.A.V.V.k.z.h.f.w 0 0 9X9X: q r e e y R.!.!.!.L.L.=.O.5...v 2.e 6 r 6 6 4 q 0 o 9X9X",
"9X9X9Xd.`.)._.4X4X4X~.D.D.D.B.V.n.k.z.j.f.w q 9X9X9X> 9 X.e t ;.L.W.W.L.L.5.5.n n V v v 2.e.E l 5 , , 9X9X9X",
"9X9Xs.`.)._.4X4X4X~.D.D.D.S.C.B.N.n.n.h.g.f.w e 9X9X9X9Xe 6.7.=.;.;.+.;.W W 5.oXXXXXB V e.e.e.E h g 9X9X9X9X",
"9Xs.-.)._.4X).~.D.D.S.S.S.C.C.B.N.N.n.z.b.j.y w 9X9X9 9 e b 7.7.K.K.] W 8.8.q.C oXXXXXXXB B t.t.2.p g 9X9X9X",
"9X&.c.V.A.A.Z.Z.S.S.S.S.S.C.S.B.N.N.n.n.z.b.@.*.y t 7.J.7.7.5.+.+.W 0.8.1.8.q.t.C XX*X*X*X&X{.B  XB z p 9X9X",
"9X&.c.V.V.A.S.D.S.S.S.S.S.C.C.C.B.N.n.n.x.z.b.*.u m J.6X8X2X2X+.w.0.0.8.9.q.y.u.}.XX-X-X&X&X&X,X,X+Xz d s 9X",
"@.&.m.V.V.A.C.C.S.S.S.S.C.C.C.B.B.N.m.n.k.x.b.-.F.5.J.8X6X6X7Xr.w.0.0.9.q.q.u.u.}.<X-X-X=X=X=X=X#X#XOXf c 9X",
"@.$.l.V.V.B.A.C.C.C.C.C.C.C.B.C.C.N.m.n.c.v.v.(.F.6.H.8X8X8X6Xr.w.w.q.q.q.y.u.3.}.-X-X=X=X=X;X#X=X#X@X[.B d ",
"| @.k.l.M.M.B.B.C.C.C.C.C.C.C.C.C.m.m.c.c.x.v.d.m J.2X8X8X6X6Xr.w.9.q.W 2.3.}.}.-X-X=X;X%X>X>X%X$X$X@XOX[.c ",
"9X| &.l.l.M.M.M.B.B.B.B.B.B.B.B.B.c.c.c.v.(.d.F.m J.6X6X5X8X5X6Xw.W 2.2.x ].1X<X-X;X;X>X>X:X:X:X$X$X@X@X[.[.",
"9Xq | z.l.M.M.M.M.B.B.B.B.B.B.B.V.c.c.c././.F.9Xu 5X5X5X5X5Xm b b l n V 1X1X<X*X-X;X;X>X:X:X%X%X%X%X@X@X[.c ",
"9X0 w | h.h.l.M.M.M.N.M.B.V.B.V.c.c.k././.s.p.9Xm 3X5X5X3Xb b o.o.5.k V 1X1X*X=X;X;X>X:X:X:X%X%X%X@X@XOX[.c ",
"9X9X0 q w j.j.z.l.M.M.M.l.l.c.c.x.x././.p.i.9X9X9 M H.H.t n X.X...5.l h .X.X-X=X;X;X>X:X$X:X$X$X@X@X@X[.c c ",
"9X9X9X0 0 w f.j.z.z.k.k.k.x.k.x./.^.s.i.%.9X9X9X9X9 M M 9 9 r y 6 l l h .X.X&X$X$X$X$X:X$X:X$X@X@XOXOXf d 9X",
"9X9X9X9X0 0 w f.j.h.h.z.z.z././.s.i.%.$.9X9X9X9X9X9X+ : : : 4 0 6 6 l g z  X,X&X%X$X$X:X$X@X@X@XOXOXf d s 9X",
"9X9X9X9X9X9X0 q w ^.a.^.^.a.i.%.%.%.9X9X9X9X9X9X9X9X9X9X@ + 0 1 5 5 , j k *X,X+X@X@X@X@XOXOXOXOXf d s s 9X9X",
"9X9X9X9X9X9X9X9X@.$.%.%.%.%.$.9X9X9X9X9X9X9X9X9X9X9X9X9X9Xo o 1 1 1 5 l k k ,X+X+XOXOXOXOX'.'.d s p p 9X9X9X",
"9X9X9X9X9X9X9X9X9X9X9X9X9X9X9X9X9X9X9X9X9X9X9X9X9X9X9X9X9X. o o ; 1 5 5 j k k |.OX'.f f f s s s p i 9X9X9X9X",
"9X9X9X9X9X9X9X9X9X9X9X9X9X9X9X9X9X9X9X9X9X9X9X9X9X9X9X9X9X9X  o X O 1 5 5 j j a z s d d s s p i # 9X9X9X9X9X",
"9X9X9X9X9X9X9X9X9X9X9X9X9X9X9X9X9X9X9X9X9X9X9X9X9X9X9X9X9X9X9X9X. O O 5 5 5 a a a 9X9Xi i i # 9X9X9X9X9X9X9X",
"9X9X9X9X9X9X9X9X9X9X9X9X9X9X9X9X9X9X9X9X9X9X9X9X9X9X9X9X9X9X9X9X9Xo O O + @ @ @ 9X9X9X9X9X9X9X9X9X9X9X9X9X9X",
"9X9X9X9X9X9X9X9X9X9X9X9X9X9X9X9X9X9X9X9X9X9X9X9X9X9X9X9X9X9X9X9X9X9X9XO + + @ 9X9X9X9X9X9X9X9X9X9X9X9X9X9X9X"
};
