/* XPM */
static char *result[] = {
/* columns rows colors chars-per-pixel */
"48 51 218 2 ",
"   c #240C0C",
".  c #280F0C",
"X  c #2D110E",
"o  c #34140D",
"O  c #3C180F",
"+  c #2C1217",
"@  c #331512",
"#  c #3C1B13",
"$  c #371815",
"%  c #250E12",
"&  c #3C2017",
"*  c #391B20",
"=  c #2F162F",
"-  c #3B262A",
";  c #3F3030",
":  c #1D0909",
">  c #431E11",
",  c #431D18",
"<  c #411D0F",
"1  c #681F06",
"2  c #59230B",
"3  c #4A2412",
"4  c #43241A",
"5  c #4B2C1D",
"6  c #482418",
"7  c #5A2617",
"8  c #4F301F",
"9  c #68280B",
"0  c #732109",
"q  c #7C230C",
"w  c #722D0F",
"e  c #6E340D",
"r  c #682C16",
"t  c #772B14",
"y  c #6D3415",
"u  c #68321D",
"i  c #743A17",
"p  c #401E34",
"a  c #4D2C21",
"s  c #4A2425",
"d  c #5A2C25",
"f  c #562A24",
"g  c #5A3526",
"h  c #462936",
"j  c #433234",
"k  c #4A3434",
"l  c #563736",
"z  c #572E2B",
"x  c #652E25",
"c  c #683729",
"v  c #793929",
"b  c #683735",
"n  c #733D38",
"m  c #652F33",
"M  c #7B4A1E",
"N  c #75441A",
"B  c #67442C",
"V  c #6F4132",
"C  c #774834",
"Z  c #7D5436",
"A  c #311A40",
"S  c #362C67",
"D  c #362D73",
"F  c #3A3475",
"G  c #3D3059",
"H  c #46335C",
"J  c #48314C",
"K  c #6B3841",
"L  c #4A3765",
"P  c #46377A",
"I  c #4D356E",
"U  c #6A695F",
"Y  c #504576",
"T  c #50486F",
"R  c #724875",
"E  c #767468",
"W  c #706D68",
"Q  c #980D0E",
"!  c #961B19",
"~  c #8E1311",
"^  c #A31616",
"/  c #872A15",
"(  c #86331A",
")  c #92331C",
"_  c #892513",
"`  c #A1301C",
"'  c #8D243E",
"]  c #982936",
"[  c #943832",
"{  c #8F372E",
"}  c #A82423",
"|  c #A63529",
" . c #A73934",
".. c #B33A33",
"X. c #B42F26",
"o. c #D21F30",
"O. c #D52233",
"+. c #DB2B3C",
"@. c #D72838",
"#. c #DA343D",
"$. c #D3343A",
"%. c #CE2C34",
"&. c #95452B",
"*. c #895627",
"=. c #88473A",
"-. c #944532",
";. c #865A3A",
":. c #945536",
">. c #8C5329",
",. c #A5502F",
"<. c #92673E",
"1. c #9D743E",
"2. c #8F613C",
"3. c #A9642E",
"4. c #B57834",
"5. c #86451A",
"6. c #C67D34",
"7. c #8E2745",
"8. c #DD2E42",
"9. c #DC3445",
"0. c #DC3C45",
"q. c #DA3A48",
"w. c #D23C58",
"e. c #E13E46",
"r. c #CC3868",
"t. c #CD3C73",
"y. c #925245",
"u. c #8D4F42",
"i. c #976A40",
"p. c #9E714F",
"a. c #A27942",
"s. c #806F63",
"d. c #AF5769",
"f. c #DE444A",
"g. c #D6475A",
"h. c #D95658",
"j. c #E04147",
"k. c #D84E67",
"l. c #DD636B",
"z. c #7E8074",
"x. c #BD8432",
"c. c #B88239",
"v. c #BB812F",
"b. c #C18B3A",
"n. c #BB8042",
"m. c #80807D",
"M. c #CB9945",
"N. c #C69541",
"B. c #D5B35B",
"V. c #D8AC64",
"C. c #DAB165",
"Z. c #DCB56A",
"A. c #DFB96E",
"S. c #D7B366",
"D. c #DEB476",
"F. c #DAAE71",
"G. c #E4B66B",
"H. c #E3B96D",
"J. c #E1B363",
"K. c #E3BD72",
"L. c #E2B975",
"P. c #E5C276",
"I. c #E7C579",
"U. c #E8C679",
"Y. c #E8C577",
"T. c #3B3284",
"R. c #382F80",
"E. c #42368A",
"W. c #5B4082",
"Q. c #65458B",
"!. c #764D84",
"~. c #7C7B8D",
"^. c #7F7DA5",
"/. c #443DEC",
"(. c #4B43EE",
"). c #4942EA",
"_. c #574BEA",
"`. c #5B53ED",
"'. c #5E55E7",
"]. c #4D48F1",
"[. c #534DF1",
"{. c #5A54F2",
"}. c #624EED",
"|. c #764EEA",
" X c #625CEC",
".X c #6757E7",
"XX c #7553EA",
"oX c #635DF3",
"OX c #6966EA",
"+X c #7866E8",
"@X c #7B71E7",
"#X c #AF7B82",
"$X c #856BE3",
"%X c #998A9A",
"&X c #868798",
"*X c #9DA08B",
"=X c #B2AE99",
"-X c #8C88A4",
";X c #B3B3A9",
":X c #AE8599",
">X c #DDBE9C",
",X c #DDBD92",
"<X c #DBBEA5",
"1X c #DEC19D",
"2X c #DACCB4",
"3X c #D3D3BD",
"4X c #DAD2BB",
"5X c #DDC1A6",
"6X c #E2CDB7",
"7X c #E3D2BC",
"8X c #DCDBCD",
"9X c #D9D8C5",
"0X c #DCDBD2",
"qX c #D7D8D2",
"wX c #E1DBCB",
"eX c #E0DAC7",
"rX c #E1DED0",
"tX c None",
/* pixels */
"tXtXtXtXtXtXtXtXtXtXtXtXtXtXtXtXtXtXtXtXtXtXtXtX) ) ) ) ( tXtXtXtXtXtXtXtXtXtXtXtXtXtXtXtXtXtXtX",
"tXtXtXtXtXtXtXtXtXtXtXtXtXtXtXtXtXtXtXtXtXtX( ) } } } } ! ( t tXtXtXtXtXtXtXtXtXtXtXtXtXtXtXtXtX",
"tXtXtXtXtXtXtXtXtXtXtXtXtXtXtXtXtXtXtXtXt / ^ } 9.q.q.9.} ! t tXtXtXtXtXtXtXtXtXtXtXtXtXtXtXtXtX",
"tXtXtXtXtXtXtXtXtXtXtXtXtXtXtXtXtXtXtXq / ^ 8.9.9.e.q.0.q.9.! y tXtXtXtXtXtXtXtXtXtXtXtXtXtXtXtX",
"tXtXtXtXtXtXtXtXtXtXtXtXtXtXtXtXtXtX0 _ Q 8.8.9.j.7X6X2X3X$.! r tXtXtXtXtXtXtXtXtXtXtXtXtXtXtXtX",
"tXtXtXtXtXtXtXtXtXtXtXtXtXtXtXtXtX0 _ ^ O.8.9.q.6X6X..2X| 2X%._ 9 tXtXtXtXtXtXtXtXtXtXtXtXtXtXtX",
"tXtXtXtXtXtXtXtXtXtXtXtXtXtXtXtX0 q Q O.@.8.8.e.6X6X.. .] 2X9.q 9 tXtXtXtXtXtXtXtXtXtXtXtXtXtXtX",
"tXtXtXtXtXtXtXtXtXtXtXtXtXtXtXtX0 Q O.O.8.8.9.e.6X6X . .| 9X! s , $ X     tXtXtXtXtXtXtXtXtXtXtX",
"tXtXtXtXtXtXtXtXtXtXtXtXtXtXtXq ~ ^ O.O.8.8.e.e.f.6X4X=.n c d s , @ X . : : tXtXtXtXtXtXtXtXtXtX",
"tXtXtXtXtXtXtXtXtXtXtXtXtXtXtXq Q O.O.+.8.8.9.e.f.-.=.C b b x 5 4 # @ .   tXtXtXtXtXtXtXtXtXtXtX",
"tXtXtXtXtXtXtXtXtXtXtXtX9 0 _ _ ^ O.@.+.8.e.e...=.=.C C C b g f 5 & tXtXtXtXtXtXtXtXtXtXtXtXtXtX",
"tXtXtXtXtXtXtXtXtXtXtX1 0 ~ Q ^ O.O.+.8.e.X.[ -.=.:.=.J.Z.C.C.N 8 tXtXtXtXtXtXtXtXtXtXtXtXtXtXtX",
"tXtXtXtXtXtXtXtXtXtX9 1 Q o.o.^ +.#.#.X.[ -.-.:.A.F.A.A.Z.Z.M.5.g tXtXtXtXtXtXtXtXtXtXtXtXtXtXtX",
"tXtXtXtXtXtXtXtXtXtX9 ~ o.o.@.@.+.#.) ,.-.6.K.K.A.i.i.A.K.A.Z C B g 8 tXtXtXtXtXtXtXtXtXtXtXtXtX",
"tXtXtXtXtXtXtXtXtXtX9 ~ %.%.$.#.X.[ -.6.G.H.K.P.P.i.i.A.P.P.;.Z *.*.M 5 tXtXtXtXtXtXtXtXtXtXtXtX",
"tXtXtXtXtXtXtXtXtXtXw ! %.$.` &.&.,.G.G.K.K.K.I.U.i.a.P.P.I.a.x.K.A.b.M 8 tXtXtXtXtXtXtXtXtXtXtX",
"tXtXtXtXtXtXtXtXtXtXe ( ` | >.&.3.3.G.G.P.P.P.P.U.1.a.U.U.U.U.I.K.A.S.b.N & tXtXtXtXtXtXtXtXtXtX",
"tXtXtXtXtXtXtXtXtXtX7 5.J.J.J.J.3.4.4.4.Y.U.U.U.U.M.M.U.U.U.U.I.P.K.S.S.N 5 tXtXtXtXtXtXtXtXtXtX",
"tXtXtXtXtXtXtXtXtX6 i J.V.J.J.P.Y.4.4.b.U.U.U.U.U.U.U.U.I.I.U.I.P.A.S.S.N & tXtXtXtXtXtXtXtXtXtX",
"tXtXtXtXtXtXtXtXtX6 i V.V.b.b.H.Y.M.4.Y.U.U.U.a.1.P.P.P.I.I.I.P.P.K.S.N.N & tXtXtXtXtXtXtXtXtXtX",
"tXtXtXtXtXtXtXtXtX4 N V.C.Z.b.P.Y.Y.U.U.U.U.1.i.i.i.P.I.K.P.K.K.A.A.M.M 5 tXtXtXtXtXtXtXtXtXtXtX",
"tXtXtXtXtXtXtXtXtX& 5 N C.Z.H.P.K.Y.Y.Y.U.I.1.i.Z i.Z Z A.A.A.Z.S.N.M 8 tXtXtXtXtXtXtXtXtXtXtXtX",
"tXtXtXtXtXtXtXtXtXtX4 8 M C.J.P.H.Y.Y.Y.I.I.K.n.Z Z Z C Z B B B B g a tXtXtXtXtXtXtXtXtXtXtXtXtX",
"tXtXtXtXtXtXtXtXtXtXtX4 8 M *.*.H.H.K.K.P.K.K.D.Z Z V V B B g g a 5 tXtXtXtXtXtXtXtXtXtXtXtXtXtX",
"tXtXtXtXtXtXtXtXtXtXtXtXtX8 g c *.>.L.P.,XL.L.L.D.D.n c g d f s 4 tXtXtXtXtXtXtXtXtXtXtXtXtXtXtX",
"tXtXtXtXtXtXtXtXtXtXtXtXtXtXtXtXB V :.:.4.D.L.L.D.F.V.V.<.i s tXtXtXtXtXtXtXtXtXtXtXtXtXtXtXtXtX",
"tXtXtXtXtXtXtXtXtXtXtXtXtXtXtXtXtXtXn n :.y.y.y.u.=.C =.v s tXtXtXtXtXtXtXtXtXtXtXtXtXtXtXtXtXtX",
"tXtXtXtXtXtXtXtXtXtXtXtXtXtXtXtXtXtX[ ] R |.|.R g.r.7.7.L H tXtXtXtXtXtXtXtXtXtXtXtXtXtXtXtXtXtX",
"tXtXtXtXtXtXtXtXtXtXtXtXtXtXtXtXtX( ] w.R |.|.|.R r.r.r.' L H tXtXtXtXtXtXtXtXtXtXtXtXtXtXtXtXtX",
"tXtXtXtXtXtXtXtXtXtXtXtXtXtXtXtXv ] w.w.r.!.|.|.|.Q.t.r.r.' H H tXtXtXtXtXtXtXtXtXtXtXtXtXtXtXtX",
"tXtXtXtXtXtXtXtXtXtXtXtXtXtXtXv ] w.g.g.k.!.XXXXXX}.Q.Q.W.I I L G tXtXtXtXtXtXtXtXtXtXtXtXtXtXtX",
"tXtXtXtXtXtXtXtXtXtXtXtXtXtXv [ [ h.h.k.l.!.XXXXXXXX.X|.}._._.B.b d tXtXtXtXtXtXtXtXtXtXtXtXtXtX",
"tXtXtXtXtXtXtXtXtXtXtXtXtXl s.,.h.l.l.l.d.$X+XXX#X,X,X.X}.}.'.B.B.g d tXtXtXtXtXtXtXtXtXtXtXtXtX",
"tXtXtXtXtXtXtXtXtXtXtXtXk W 3X9XeXwXeXeX8X*X$X+X1X1X,X,X.X`._.S.B.c d tXtXtXtXtXtXtXtXtXtXtXtXtX",
"tXtXtXtXtXtXtXtXtXtXtXtXl E 4X9XeXeX8XrXrX%X%X@X1X1X1X1X X`.[.p.S.m d tXtXtXtXtXtXtXtXtXtXtXtXtX",
"tXtXtXtXtXtXtXtXtXtXtXj U 3X9X=XeXrXrXrX0X0X-X@X:X5X5X.X`.[.[.).F S tXtXtXtXtXtXtXtXtXtXtXtXtXtX",
"tXtXtXtXtXtXtXtXtXtXtX; U 3X4X=X8X;XrXrX0XqX-XOXOXOX'.{.[.].]./.F S tXtXtXtXtXtXtXtXtXtXtXtXtXtX",
"tXtXtXtXtXtXtXtXtXtXtX; U 3X9X9X9X;XrXrX0XqX-XOXoX{.{.[.].]./.T.D tXtXtXtXtXtXtXtXtXtXtXtXtXtXtX",
"tXtXtXtXtXtXtXtXtXtXtX; U E 3X9X9XqX8X9X;X^.^.OX{.[.[.].(.(./.D S tXtXtXtXtXtXtXtXtXtXtXtXtXtXtX",
"tXtXtXtXtXtXtXtXtXtXtXtX; W E *X9X9X9X9X&X^.OX{.{.[.(.(././.R.D tXtXtXtXtXtXtXtXtXtXtXtXtXtXtXtX",
"tXtXtXtXtXtXtXtXtXtXtXtXtXj W W z.z.z.z.~. X`.[.}./././.E.R.D A = tXtXtXtXtXtXtXtXtXtXtXtXtXtXtX",
"tXtXtXtXtXtXtXtXtXtXtXtXtXtXj J T T  X'.'.'._.]./.E.E.E.D D S = = + tXtXtXtXtXtXtXtXtXtXtXtXtXtX",
"tXtXtXtXtXtXtXtXtXtXtXtXtXtXtXtXT L T T Y Y E.P P P D D I z z d + + % tXtXtXtXtXtXtXtXtXtXtXtXtX",
"tXtXtXtXtXtXtXtXtXtXtXtXtXtXtXtX- h h b V K K J K K K m p d 7 7 7 + . tXtXtXtXtXtXtXtXtXtXtXtXtX",
"tXtXtXtXtXtXtXtXtXtXtXtXtXtXtXtX* - g g c b h b m m t x u * 7 2 2 % . tXtXtXtXtXtXtXtXtXtXtXtXtX",
"tXtXtXtXtXtXtXtXtXtXtXtXtXtXtXtX+ & c.u x s t c t x x r r # 2 2 . .   tXtXtXtXtXtXtXtXtXtXtXtXtX",
"tXtXtXtXtXtXtXtXtXtXtXtXtXtXtXtX+ @ $ c.x.y y y y y w w 9 # @ o X . tXtXtXtXtXtXtXtXtXtXtXtXtXtX",
"tXtXtXtXtXtXtXtXtXtXtXtXtXtXtXtXtXX $ # 6 x.x.x.e e e 9 9 O o o X tXtXtXtXtXtXtXtXtXtXtXtXtXtXtX",
"tXtXtXtXtXtXtXtXtXtXtXtXtXtXtXtXtXtXtX# & > 3 3 x.x.x.v.< O o tXtXtXtXtXtXtXtXtXtXtXtXtXtXtXtXtX",
"tXtXtXtXtXtXtXtXtXtXtXtXtXtXtXtXtXtXtXtXtX4 > 3 3 > 3 < O o tXtXtXtXtXtXtXtXtXtXtXtXtXtXtXtXtXtX",
"tXtXtXtXtXtXtXtXtXtXtXtXtXtXtXtXtXtXtXtXtXtXtXtX> 3 3 # tXtXtXtXtXtXtXtXtXtXtXtXtXtXtXtXtXtXtXtX"
};
