/* XPM */
static char *result[] = {
/* columns rows colors chars-per-pixel */
"54 45 212 2 ",
"   c #291817",
".  c #341D1B",
"X  c #3B1A1B",
"o  c #36221E",
"O  c #3A2323",
"+  c #392526",
"@  c #312437",
"#  c #481D1E",
"$  c #7B2A1C",
"%  c #74291B",
"&  c #6F2819",
"*  c #442C24",
"=  c #4B2723",
"-  c #522D24",
";  c #5B2724",
":  c #46332A",
">  c #543429",
",  c #472A36",
"<  c #553E36",
"1  c #683828",
"2  c #7C3C24",
"3  c #7D3D2B",
"4  c #733B2A",
"5  c #693836",
"6  c #783D36",
"7  c #742D24",
"8  c #4C1E20",
"9  c #544536",
"0  c #694528",
"q  c #774827",
"w  c #785428",
"e  c #664A39",
"r  c #7C4634",
"t  c #6A533A",
"y  c #765638",
"u  c #75693F",
"i  c #2C2543",
"p  c #33345B",
"a  c #392A4A",
"s  c #383867",
"d  c #393B72",
"f  c #3C3E7C",
"g  c #4A3556",
"h  c #523859",
"j  c #683B48",
"k  c #6A3D58",
"l  c #733E46",
"z  c #463C6E",
"x  c #6D3F72",
"c  c #3D417E",
"v  c #7A4346",
"b  c #765749",
"n  c #6A4D4E",
"m  c #7C6945",
"M  c #757357",
"N  c #7F724A",
"B  c #584476",
"V  c #664369",
"C  c #6D4972",
"Z  c #930C0F",
"A  c #940E12",
"S  c #9B0E12",
"D  c #9A1415",
"F  c #8D0E10",
"G  c #A41116",
"H  c #A91918",
"J  c #B8181D",
"K  c #8F261A",
"L  c #A92319",
"P  c #8B2E21",
"I  c #922F23",
"U  c #843C25",
"Y  c #8C3D26",
"T  c #863B2A",
"R  c #943A27",
"E  c #8D2F36",
"W  c #AB3635",
"Q  c #C41E22",
"!  c #CB293B",
"~  c #CD273B",
"^  c #D22B3D",
"/  c #D1273C",
"(  c #DA3B36",
")  c #D4313A",
"_  c #D9323C",
"`  c #DD3A3A",
"'  c #D53C35",
"]  c #CD3339",
"[  c #E23B3D",
"{  c #874528",
"}  c #954B2B",
"|  c #83592C",
" . c #975B2B",
".. c #874735",
"X. c #8A5639",
"o. c #965C36",
"O. c #A5592D",
"+. c #AE5334",
"@. c #8B6B2A",
"#. c #9A662D",
"$. c #8E752B",
"%. c #92792D",
"&. c #96772D",
"*. c #846636",
"=. c #9D6733",
"-. c #947935",
";. c #A56635",
":. c #AA763A",
">. c #A1602D",
",. c #DC433C",
"<. c #D9463D",
"1. c #E0403E",
"2. c #94264D",
"3. c #9B2B5D",
"4. c #E43D40",
"5. c #835544",
"6. c #8C7958",
"7. c #8F7E62",
"8. c #D94C4A",
"9. c #D7484E",
"0. c #DA524C",
"q. c #D54755",
"w. c #D85854",
"e. c #C64457",
"r. c #D9665D",
"t. c #C84567",
"y. c #D14565",
"u. c #CE4773",
"i. c #9C8332",
"p. c #9E8839",
"a. c #9F832E",
"s. c #A28936",
"d. c #A7913D",
"f. c #CCA326",
"g. c #CEA629",
"h. c #D3AC2A",
"j. c #D0A827",
"k. c #D9B52D",
"l. c #DEBB2C",
"z. c #D7B12C",
"x. c #D9B532",
"c. c #DDBB31",
"v. c #D4B038",
"b. c #D2AD33",
"n. c #E1BC2D",
"m. c #E2BF31",
"M. c #E4C32D",
"N. c #E8C72F",
"B. c #E9CA2F",
"V. c #E4C432",
"C. c #EBCC31",
"Z. c #EACE3B",
"A. c #E6C93A",
"S. c #EED036",
"D. c #EED23B",
"F. c #A38D48",
"G. c #A89046",
"H. c #99977A",
"J. c #91896A",
"K. c #B9987C",
"L. c #D49B4E",
"P. c #CD9A49",
"I. c #D6A55C",
"U. c #D4AC63",
"Y. c #DDB56C",
"T. c #D9B369",
"R. c #DEBA70",
"E. c #DDB770",
"W. c #E0B56D",
"Q. c #E1BB71",
"!. c #E1B770",
"~. c #ECD141",
"^. c #E2CF5D",
"/. c #E5D363",
"(. c #E5D36B",
"). c #F2E47B",
"_. c #F5E87E",
"`. c #F1E377",
"'. c #3C3F83",
"]. c #673F80",
"[. c #3E4287",
"{. c #474487",
"}. c #65478D",
"|. c #494DDE",
" X c #544EDC",
".X c #5850DF",
"XX c #6750DB",
"oX c #6B50DA",
"OX c #454EE1",
"+X c #4B4FE1",
"@X c #4651E5",
"#X c #4A52E5",
"$X c #4B55EB",
"%X c #4C58EF",
"&X c #5352E4",
"*X c #5B52E4",
"=X c #5456EC",
"-X c #5B55E9",
";X c #5258EF",
":X c #4D58F1",
">X c #5059F1",
",X c #504FE1",
"<X c #6252E4",
"1X c #644FE0",
"2X c #B1A58B",
"3X c #A3A185",
"4X c #F6EA80",
"5X c #D5D1BC",
"6X c #DAD1BE",
"7X c #D9CDBB",
"8X c #DAD4C0",
"9X c None",
/* pixels */
"9X9X9X9X9X9X9X9X9X9X9X9X9X9X9X9XI I I I P 9X9X9X9X9X9X9X9X9X9X9X9X9X9X9X9X9X9X9X9X9X9X9X9X9X9X9X9X9X9X9X9X9X",
"9X9X9X9X9X9X9X9X9X9X9X9X9X9XP I G H G G S P 9X9X9X9X9X9X9X9X9X9X9X9X9X9X9X9X9X9X9X9X9X9X9X9X9X9X9X9X9X9X9X9X",
"9X9X9X9X9X9X9X9X9X9X9X9XP S G H ^ / ^ / G S $ 9X9X9X9X9X9X9X9X9X9X9X9X9X9X9X9X9X9X9X9X9X9X9X9X9X9X9X9X9X9X9X",
"9X9X9X9X9X9X9X9X9X9X9X$ A S / ^ _ _ _ _ ! G A $ 9X9X9X9X9X9X9X9X9X9X9X9X9X9X9X9X9X9X9X9X9X9X9X9X9X9X9X9X9X9X",
"9X9X9X9X9X9X9X9X9X9X$ S G / / _ ` ` ` ` ^ ~ S $ 9X9X9X9X9X9X9X9X9X9X9X9X9X9X9X9X9X9X9X9X9X9X9X9X9X9X9X9X9X9X",
"9X9X9X9X9X9X9X9X9X$ Z S / / _ ( ` [ [ _ _ / S A $ 9X9X9X9X9X9X9X9X9X9X9X9X9X9X9X9X9X9X9X9X9X9X9X9X9X9X9X9X9X",
"9X9X9X9X9X9X9X9X$ Z S ~ / _ ( [ 4.[ [ [ ` ) ~ D $ 9X9X9X9X9X9X9X9X9X9X9X9X9X9X9X9X9X9X9X9X9X9X9X9X9X9X9X9X9X",
"9X9X9X9X9X9X9X$ Z S ~ / _ [ [ [ [ [ [ [ ` ( ^ D $ 9X9X9X9X9X9X9X9X9X9X9X9X9X9X9X9X9X9X9X9X9X9X9X9X9X9X9X9X9X",
"9X9X9X9X9X9X$ Z S G / / [ [ [ [ [ 4.[ [ ` ( ] ! A 8 X     9X9X9X9X9X9X9X9X9X9X9X9X9X9X9X9X9X9X9X9X9X9X9X9X9X",
"9X9X9X9X& % Z S G H J Q [ [ [ [ 4.4.4.4.` ` ! ! F 8 X .     9X9X9X9X9X9X9X9X9X9X9X9X9X9X9X9X9X9X9X9X9X9X9X9X",
"9X9X9X& Z Z Z ~ / / _ _ Q Q [ [ 4.[ [ ` ` ` ] ! A 8 X .     9X9X9X9X9X9X9X9X9X9X9X9X9X9X9X9X9X9X9X9X9X9X9X9X",
"9X9X9X$ Z Z ~ ^ / _ [ [ [ [ [ [ 4.1.1.[ ,.' ] ! ; = # .   9X9X9X9X9X9X9X9X9X9X9X9X9X9X9X9X9X9X9X9X9X9X9X9X9X",
"9X9X9X$ D ] ~ ^ _ ( [ [ [ ( [ ,.1.` 8.` ' <.' 7 ; = * o 9X9X9X9X9X9X9X9X9X9X9X9X9X9X9X9X9X9X9X9X9X9X9X9X9X9X",
"9X9X9XU D ] ) ( ( ( ( ( [ [ [ ,.8.` ,.,.<.T 4 5 ; - 9X9X9X9X9X9X9X9X9X9X9X9X9X9X9X9X9X9X9X9X9X9X9X9X9X9X9X9X",
"9X8 ; D D ] ' ' ( ( ( [ ( [ ,.,.,.8.} T ..r 6 1 5 > - 9X9X9X9X9X9X9X9X9X9X9X9X9X9X9X9X9X9X9X9X9X9X9X9X9X9X9X",
"- 2 U D D L ' ' ( ( ( ( ( [ ,.Y } ..O.+.O.O. . .| { q - + 9X9X9X9X9X9X9X9X9X9X9X9X9X9X9X9X9X9X9X9X9X9X9X9X9X",
"- 2 { I.{ H L L L H L H L L L O.O.O.;.W.Y.;.#.#.#.P.U.q 1 * 9X9X9X9X9X9X9X9X9X9X9X9X9X9X9X9X9X9X9X9X9X9X9X9X",
"- { I.I.Y Y Y Y R R R R R R }  .O.O.W.W.W.R.;.;.P.U.U.U.q o 9X9X9X9X9X9X9X9X9X9X9X9X9X9X9X9X9X9X9X9X9X9X9X9X",
"- { L.I.{ Y { R Y Y Y R } R }  .>.W.W.!.Q.R.:.R.=.T.T.U.q * 9X9X9X9X9X9X9X9X9X9X9X9X9X9X9X9X9X9X9X9X9X9X9X9X",
"9X- q I.{ U U U U Y U Y Y { }  .>.W.!.!.Q.R.:.R.-.T.U.U.q : 9X9X9X9X9X9X9X@.$.$.%.%.9X9X9X9X9X9X9X9X9X9X9X9X",
"9X- q 2 U 2 U U U U U T T ..{  .>.L.R.Q.Q.Q.:.R.y y T.U.q * 9X9X9X9X9X0 0 w &.s.i.s.s.p.p.9X9X9X9X9X9X9X9X9X",
"9X: q 2 2 2 2 T U 2 3 3 ..T .. .#.:.!.Q.Q.:.Q.R.y t U.r q * 9X9X9X1 0 w f.g.h.h.c.`.`.).`.d.p.9X9X9X9X9X9X9X",
"9X* 1 2 4 4 3 3 6 T 6 T ..r ..+. .;.:.:.:.R.R.Y.y e | q q : 9X9X0 0 w f.h.h.z.m.V.).).).).).).G.p.9X9X9X9X9X",
"9X9X= 1 4 4 6 6 ..r l v v ..o.5.>.L.L.!.Q.!.E.b t e r q : 9X9X0 0 w f.h.z.k.V.V.C.A._._._._.).).).s.9X9X9X9X",
"9X9X9X, , 6 6 E e.5.l l V V b 5.5.L.L.W.!.L.;.X.t ..9 < 9X9X9X0 w f.h.h.k.m.N.C.A.Z.Z.~.4X4X_._.).).d.9X9X9X",
"9X9X9X9Xg h E e.e.y.V V oXoXoXn W W O.O.;.;.;.6.6.e 9X9X9X9Xe w f.h.h.n.m.N.B.C.S.D.D.D.~.4X4X4X).).).s.9X9X",
"9X9X9Xg z 2.t.t.B B .X1XXXoXV q.8.0.+.] K.2X7.7.t e e e 9X9Xw X.j.h.k.k.N.N.B.C.C.S.D.D.~.~.D._._.).`.-.s.9X",
"9X9Xs z z .Xz {..X*X*X1XXXC q.q.9.8.1.0.W W +.5.J.7.7.M t y y @.h.k.k.m.N.N.B.C.S.S.S.D.D.D.D.Z.Z.A.V.c.$.9X",
"9Xs f z |.+X&X&X-X-X*X<X1X}.u.y.q.9.9.8.0.w.+.2X2X5X5XJ.b *.$.b.h.x.n.n.B.B.C.C.B.C.S.S.S.S.S.Z.C.A.V.m.&.9X",
"9Xd '.+X+X+X&X=X=X=X=X-X<X}.u.u.q.q.9.8.0.r.r.6X5X5X5XJ.u F.-.v.x.k.m.m.B.B.C.C.C.C.C.S.S.S.S.S.A.V.V.c.&.@.",
"d z [.@X+X=X$X=X>X=X-X-X<X}.3.u.y.q.9.9.0.w.r.6X6X8X5XH.N G.(.v.x.x.n.M.B.B.C.C.C.C.C.C.C.C.S.N.N.V.V.l.#.@.",
"'.[.+X@X$X$X$X%X>X>X>X;X;X<X}.x 3.3.W q.w.r.r.6X6X8X5X2XH.N G.P.x.k.n.M.B.B.C.C.C.C.C.C.C.B.N.V.V.M.l.l.@.| ",
"[.{.@X@X%X$X:X:X:X:X:X:X:X-X<X<X].x 2.W W q.7X6X8X8X8X5XJ.u F.d.(.c.c.c.V.N.N.N.C.C.S.B.B.B.M.M.M.l.l.$.| 9X",
"c [.@X$X@X%X%X:X:X:X:X:X;X=X-X<X1X1Xx k v n b m 6X6X8X5X5Xm 9Xd.(./.x.V.c.V.N.C.N.C.B.N.B.B.M.M.l.l.k.| w 9X",
"c [.@X@X$X$X%X:X:X:X:X:X;X=X=X*X1X1Xx j 5.5.o.b n 3X5X5X3Xt 9Xp.p././.x.k.c.V.V.N.N.N.N.M.M.M.l.h.j.| w 0 9X",
"s c [.@X@X$X@X:X%X%X:X:X;X%X=X-X*X.Xg l 5...X.X.t t H.H.7.9 9X9Xi.p././.x.x.c.l.c.c.V.M.M.l.z.j.j.w q 0 9X9X",
"9Xd f OX@X@X@X$X$X$X%X%X%X=X&X&X*X.Xh l v r r w 9 9 M M 9 9X9X9X9Xi.i.s././.z.x.l.k.l.k.z.z.j.f.w 0 0 9X9X9X",
"9Xs d f OXOXOXOX@X$X$X$X$X#X#X#X-Xz g l e 5 4 4 : @ + : 9X9X9X9X9X9X$.%.i.a././.z.h.h.h.j.j.f.w 0 0 9X9X9X9X",
"9X9Xs s d f OXOX@X@X@X#X#X#X&X#X,Xk l g 5 4 1 1 + + 9X9X9X9X9X9X9X9X9X9X$.%.i.a.i.^.^.a.^.w w 0 9X9X9X9X9X9X",
"9X9X9Xp p s d f '.OXOX+X@X+X|. Xk j 5 5 1 1 1 o + 9X9X9X9X9X9X9X9X9X9X9X9X9X9X$.$.%.%.$.$.@.9X9X9X9X9X9X9X9X",
"9X9X9X9Xi p p s d f f '.f |.|.k k j 5 5 7 ; o o . 9X9X9X9X9X9X9X9X9X9X9X9X9X9X9X9X9X9X9X9X9X9X9X9X9X9X9X9X9X",
"9X9X9X9X9X@ i s p s d d d z a j j 5 5 1 O o o . 9X9X9X9X9X9X9X9X9X9X9X9X9X9X9X9X9X9X9X9X9X9X9X9X9X9X9X9X9X9X",
"9X9X9X9X9X9X9X@ i i i 9X9Xa a a 5 5 5 + o . 9X9X9X9X9X9X9X9X9X9X9X9X9X9X9X9X9X9X9X9X9X9X9X9X9X9X9X9X9X9X9X9X",
"9X9X9X9X9X9X9X9X9X9X9X9X9X9X@ @ @ + O O o 9X9X9X9X9X9X9X9X9X9X9X9X9X9X9X9X9X9X9X9X9X9X9X9X9X9X9X9X9X9X9X9X9X",
"9X9X9X9X9X9X9X9X9X9X9X9X9X9X9X+ + + + 9X9X9X9X9X9X9X9X9X9X9X9X9X9X9X9X9X9X9X9X9X9X9X9X9X9X9X9X9X9X9X9X9X9X9X"
};
