/* XPM */
static char *result[] = {
/* columns rows colors chars-per-pixel */
"48 50 218 2 ",
"   c #290C0B",
".  c #380D0E",
"X  c #2C110D",
"o  c #37180E",
"O  c #3B1C10",
"+  c #341716",
"@  c #2D1315",
"#  c #3C2316",
"$  c #34252A",
"%  c #3A2637",
"&  c #3F322D",
"*  c #341B29",
"=  c #461C0E",
"-  c #4C0F11",
";  c #441E11",
":  c #461412",
">  c #551714",
",  c #442313",
"<  c #4B2312",
"1  c #472818",
"2  c #5B2A17",
"3  c #54331E",
"4  c #6B2309",
"5  c #752408",
"6  c #693618",
"7  c #733314",
"8  c #41322D",
"9  c #533426",
"0  c #673928",
"q  c #703F23",
"w  c #7A440B",
"e  c #74420C",
"r  c #734313",
"t  c #7A4E15",
"y  c #75421B",
"u  c #764915",
"i  c #724914",
"p  c #4D4038",
"a  c #5B4D3C",
"s  c #694927",
"d  c #764423",
"f  c #754329",
"g  c #784B25",
"h  c #79542A",
"j  c #6B423A",
"k  c #74453B",
"l  c #754534",
"z  c #7E553A",
"x  c #6E5026",
"c  c #3C2749",
"v  c #3E397B",
"b  c #4E334F",
"n  c #603A4F",
"m  c #513C77",
"M  c #574555",
"N  c #6F464E",
"B  c #764948",
"V  c #734755",
"C  c #694754",
"Z  c #57556A",
"A  c #685166",
"S  c #5E6561",
"D  c #6F7562",
"F  c #767C68",
"G  c #696770",
"H  c #930F0B",
"J  c #9A110C",
"K  c #95110C",
"L  c #8F120A",
"P  c #A51D0C",
"I  c #AC1E0E",
"U  c #B71F12",
"Y  c #B11F0F",
"T  c #9C230D",
"R  c #843209",
"E  c #8B330A",
"W  c #98350C",
"Q  c #81341D",
"!  c #B4200F",
"~  c #B83817",
"^  c #A82710",
"/  c #893D21",
"(  c #97322F",
")  c #A63628",
"_  c #AA3D34",
"`  c #C72218",
"'  c #C33C18",
"]  c #D1251D",
"[  c #DC2E2E",
"{  c #D9312E",
"}  c #DE2E31",
"|  c #DD3432",
" . c #DD3B34",
".. c #E12F32",
"X. c #E43235",
"o. c #E53B36",
"O. c #E63439",
"+. c #E9343B",
"@. c #E93B3C",
"#. c #E43B3A",
"$. c #854B0E",
"%. c #88531B",
"&. c #93511B",
"*. c #98631B",
"=. c #A1671E",
"-. c #A86B1E",
";. c #B7761F",
":. c #AC701E",
">. c #984728",
",. c #855D28",
"<. c #975526",
"1. c #925030",
"2. c #A45536",
"3. c #A9522D",
"4. c #83623E",
"5. c #A76A24",
"6. c #A7732F",
"7. c #BD7B23",
"8. c #B97626",
"9. c #A97730",
"0. c #B7712E",
"q. c #C6411E",
"w. c #C64724",
"e. c #E44436",
"r. c #E5443C",
"t. c #E6473D",
"y. c #C37C23",
"u. c #CA7B24",
"i. c #C87826",
"p. c #C27E37",
"a. c #D07D2E",
"s. c #8A3149",
"d. c #8C5948",
"f. c #AA564A",
"g. c #AE4D43",
"h. c #BF7C43",
"j. c #DB4A57",
"k. c #DB484E",
"l. c #C17E42",
"z. c #DA4866",
"x. c #DE5668",
"c. c #D74777",
"v. c #DE5978",
"b. c #E06B79",
"n. c #DD6A6B",
"m. c #7F836E",
"M. c #BE8B3B",
"N. c #CC842B",
"B. c #C68329",
"V. c #C48439",
"C. c #C18D3C",
"Z. c #C78A33",
"A. c #D08734",
"S. c #CC9339",
"D. c #D09237",
"F. c #888876",
"G. c #80826D",
"H. c #D9AB66",
"J. c #DAB26D",
"K. c #D7B06A",
"L. c #DDB571",
"P. c #DEB974",
"I. c #E3BB76",
"U. c #E5BE7A",
"Y. c #E4B875",
"T. c #E6C17B",
"R. c #E7C077",
"E. c #3F3887",
"W. c #453986",
"Q. c #453E93",
"!. c #48418F",
"~. c #573EED",
"^. c #493FF2",
"/. c #533EF2",
"(. c #483EEE",
"). c #7D79C3",
"_. c #4B43ED",
"`. c #5749EC",
"'. c #4542F5",
"]. c #4B44F3",
"[. c #4B47F7",
"{. c #5448F5",
"}. c #5A53F6",
"|. c #5D50E9",
" X c #6A48EC",
".X c #7749EC",
"XX c #7D51EB",
"oX c #6546F2",
"OX c #665BF5",
"+X c #7453F1",
"@X c #6459EB",
"#X c #6E67EE",
"$X c #CC399D",
"%X c #8C7AB0",
"&X c #927299",
"*X c #D84B85",
"=X c #DE648A",
"-X c #877AC1",
";X c #8551E7",
":X c #814FEA",
">X c #8B8B8E",
",X c #9F8AA7",
"<X c #B4B0AD",
"1X c #A8A0CC",
"2X c #C8C6CA",
"3X c #D5D3CB",
"4X c #DCD5CF",
"5X c #DAD6D4",
"6X c #DCD9D4",
"7X c #DAD5DC",
"8X c #DDD9DE",
"9X c #D7D5D4",
"0X c #C3C2D2",
"qX c #E2D7D8",
"wX c #D5D2E4",
"eX c #DBD6E2",
"rX c #DCD8E2",
"tX c None",
/* pixels */
"tXtXtXtXtXtXtXtXtXtXtXtXtXtXtXtXtXtXtXtXtXtXW W W W W E tXtXtXtXtXtXtXtXtXtXtXtXtXtXtXtXtXtXtXtX",
"tXtXtXtXtXtXtXtXtXtXtXtXtXtXtXtXtXtXtXtXE W I Y U ! I I E tXtXtXtXtXtXtXtXtXtXtXtXtXtXtXtXtXtXtX",
"tXtXtXtXtXtXtXtXtXtXtXtXtXtXtXtXtXtXtXR P Y U ..X...[ ! P E tXtXtXtXtXtXtXtXtXtXtXtXtXtXtXtXtXtX",
"tXtXtXtXtXtXtXtXtXtXtXtXtXtXtXtXtXtXR J I [ ....X.X...[ I J 5 tXtXtXtXtXtXtXtXtXtXtXtXtXtXtXtXtX",
"tXtXtXtXtXtXtXtXtXtXtXtXtXtXtXtXtX5 J P [ ..X.+.X.X.X.} } P R tXtXtXtXtXtXtXtXtXtXtXtXtXtXtXtXtX",
"tXtXtXtXtXtXtXtXtXtXtXtXtXtXtXtXtXR P [ ......+.+.+.X.X.} [ J 5 tXtXtXtXtXtXtXtXtXtXtXtXtXtXtXtX",
"tXtXtXtXtXtXtXtXtXtXtXtXtXtXtXtX5 J I ..X.X.+.+.+.+.+.X.} } P H - .     tXtXtXtXtXtXtXtXtXtXtXtX",
"tXtXtXtXtXtXtXtXtXtXtXtXtXtXtX5 K P [ ..X.+.+.+.+.+.O.O.X.} P H - . .     tXtXtXtXtXtXtXtXtXtXtX",
"tXtXtXtXtXtXtXtXtXtXtXtXtXtXtXR P [ ..X.+.+.+.+.+.+.+.+.| } } H - : .     tXtXtXtXtXtXtXtXtXtXtX",
"tXtXtXtXtXtXtXtXtXtXtXtXtXtXtXE I ......+.+.+.+.+.+.+.+.O.| { T 4 : . X tXtXtXtXtXtXtXtXtXtXtXtX",
"tXtXtXtXtXtXtXtXtXtXtXtXtX5 R W I ....+.+.+.+.+.+.+.+.+.+.} | 2 > > ; tXtXtXtXtXtXtXtXtXtXtXtXtX",
"tXtXtXtXtXtXtXtXtXtXtXtX5 H P ! U ` ` ] +.+.+.+.+.@.+.@.| X.Q 0 2 tXtXtXtXtXtXtXtXtXtXtXtXtXtXtX",
"tXtXtXtXtXtXtXtXtXtXtX4 L P [ [ ....+.+.] ] +.@.@.@.r.e.#./ / q 6 3 < , tXtXtXtXtXtXtXtXtXtXtXtX",
"tXtXtXtXtXtXtXtXtXtX4 L T { [ ....X.+.X.+.@.@.@.@.r.r.e.>.>.0.<.%.%.t t 1 tXtXtXtXtXtXtXtXtXtXtX",
"tXtXtXtXtXtXtXtXtXtX5 T { | | o.O.+.+.+.o.@.@.@.r.t.t.<.>.p.p.y.*.J.K.t i # tXtXtXtXtXtXtXtXtXtX",
"tXtXtXtXtXtXtXtXtXtX7 ^ {  .o.o.o.o.o.O.@.@.r.t.t.w.w.3.0.5.V.V.L.L.J.K.t 1 tXtXtXtXtXtXtXtXtXtX",
"tXtXtXtXtXtXtXtXtXtX5 T  . .| o.o.o.o.e.o.e.t.' w.w.A.Y.Y.Y.i.Z.R.P.J.K.t # tXtXtXtXtXtXtXtXtXtX",
"tXtXtXtXtXtXtXtXtX= w H.^ ~ e.o.e.e.e.e.' ' q.a.A.A.Y.U.U.U.U.9.M.R.P.K.t 1 tXtXtXtXtXtXtXtXtXtX",
"tXtXtXtXtXtXtXtXtX= $.H.H.7.~ ' ' ' ' q.u.a.N.N.A.D.Y.U.T.T.T.9.M.h J.K.t # tXtXtXtXtXtXtXtXtXtX",
"tXtXtXtXtXtXtXtXtX, 7 H.H.;.;.u.u.u.u.u.u.u.N.Z.D.D.U.R.T.T.T.9.M.h x K.i # tXtXtXtXtXtXtXtXtXtX",
"tXtXtXtXtXtXtXtXtX; e w H.;.y.i.y.u.u.u.B.B.N.N.D.S.T.T.T.T.T.6.P.x s t i # tXtXtXtXtXtXtXtXtXtX",
"tXtXtXtXtXtXtXtXtXtX, w $.$.;.y.;.y.y.y.y.B.B.B.Z.S.S.T.T.T.6.P.J.x 3 i # tXtXtXtXtXtXtXtXtXtXtX",
"tXtXtXtXtXtXtXtXtXtXtX< $.&.:.;.y.y.y.y.B.B.B.Z.Z.S.S.S.9.6.P.P.x 9 1 # tXtXtXtXtXtXtXtXtXtXtXtX",
"tXtXtXtXtXtXtXtXtXtXtXtX< $.$.8.;.y.y.7.y.B.B.Z.Z.Z.I.I.Y.Y.L.,.%.1 tXtXtXtXtXtXtXtXtXtXtXtXtXtX",
"tXtXtXtXtXtXtXtXtXtXtXtX< w :.8.8.8.8.p.0.p.p.V.V.V.V.Y.P.L.%.%.3 tXtXtXtXtXtXtXtXtXtXtXtXtXtXtX",
"tXtXtXtXtXtXtXtXtXtXtXtX, e 5.5.0.0.3.1.2.h.h.l.p.V.p.Y.<.<.%.3 tXtXtXtXtXtXtXtXtXtXtXtXtXtXtXtX",
"tXtXtXtXtXtXtXtXtXtXtXtXO 6 y $.,.1.1.j.x.d.g.f.2.2.2.<.<.f 3 tXtXtXtXtXtXtXtXtXtXtXtXtXtXtXtXtX",
"tXtXtXtXtXtXtXtXtXtXtXtXtX; y ( ( A z.z.z.;X:X;X;Xj.k.) ) N tXtXtXtXtXtXtXtXtXtXtXtXtXtXtXtXtXtX",
"tXtXtXtXtXtXtXtXtXtXtXtXtXtX0 ( m .Xc.c.*X.X.X:Xz.z.j.k.) ) n b tXtXtXtXtXtXtXtXtXtXtXtXtXtXtXtX",
"tXtXtXtXtXtXtXtXtXtXtXtXtXtXq s.m ~. X$XoX.X.X.Xc.z.z.j._ ) N b tXtXtXtXtXtXtXtXtXtXtXtXtXtXtXtX",
"tXtXtXtXtXtXtXtXtXtXtXtXtXB s.m W.~.~.$XoXoXoX:X*Xc.x.x.j._ ( M b tXtXtXtXtXtXtXtXtXtXtXtXtXtXtX",
"tXtXtXtXtXtXtXtXtXtXtXtX% G s.W././.~.~./.oXoX:X&Xv.v.x.x.g.3.A M tXtXtXtXtXtXtXtXtXtXtXtXtXtXtX",
"tXtXtXtXtXtXtXtXtXtXtX& G 2X!.!._.].]./.{.{.oX+X%X=X=X=Xb.n.f.2.S M tXtXtXtXtXtXtXtXtXtXtXtXtXtX",
"tXtXtXtXtXtXtXtXtXtX$ S 2X2X!.{.[.].^.]./.{.OX+X%X,XqXqXqXqX6X6XF.M tXtXtXtXtXtXtXtXtXtXtXtXtXtX",
"tXtXtXtXtXtXtXtXtXtX$ S 2X0X!.[.'.[.'.'.{.{.}.OX%XeX8X8XqX6X6X3X4XF p tXtXtXtXtXtXtXtXtXtXtXtXtX",
"tXtXtXtXtXtXtXtXtXtX$ S 2X0X!._.[.[.'.'.[.{.}.OX-XwXeX8X8X6X6X<X3X3XD 8 tXtXtXtXtXtXtXtXtXtXtXtX",
"tXtXtXtXtXtXtXtXtXtX$ Z 0Xv Q.[.'.'.'.'.[.[.}.#X#X1XwXrXrX<X6X<X4X3XD 8 tXtXtXtXtXtXtXtXtXtXtXtX",
"tXtXtXtXtXtXtXtXtXtXtX% Z v E.'.'.'.'.'.[.[.}.OX-XwXeXeXrX<X9X6X3X3XD & tXtXtXtXtXtXtXtXtXtXtXtX",
"tXtXtXtXtXtXtXtXtXtXtXtX% Z v '.(.'.'.'.[.[.}.}.-XwXwXwXrX7X9X6X3Xm.p tXtXtXtXtXtXtXtXtXtXtXtXtX",
"tXtXtXtXtXtXtXtXtXtXtXtXtXc c E._.'.'.'.[.[.{.}.OX%XwXwX8X9X9XF.m.p & tXtXtXtXtXtXtXtXtXtXtXtXtX",
"tXtXtXtXtXtXtXtXtXtXtXtX* % 0 W.W._.^.^.]._.{.}.OX#X,X>X>X>XF.m.a tXtXtXtXtXtXtXtXtXtXtXtXtXtXtX",
"tXtXtXtXtXtXtXtXtXtXtX@ * 2 j k N V `._.~.{.{.`.}.@X#X#XG G 4.a 9 tXtXtXtXtXtXtXtXtXtXtXtXtXtXtX",
"tXtXtXtXtXtXtXtXtXtXtX@ @ 2 6 0 k N V C `.`.`.|.|.@XB 4.4.4.h h 8 # tXtXtXtXtXtXtXtXtXtXtXtXtXtX",
"tXtXtXtXtXtXtXtXtXtXtXX + 6 2 d f k 0 B N B V B B B B 1.h g g i 1 + tXtXtXtXtXtXtXtXtXtXtXtXtXtX",
"tXtXtXtXtXtXtXtXtXtXtXX o *.6 6 y d f l l k k k h l h g g y i *.# @ tXtXtXtXtXtXtXtXtXtXtXtXtXtX",
"tXtXtXtXtXtXtXtXtXtXtXX X O *.M.r y y d f f f f x f g y u r M.*.# X tXtXtXtXtXtXtXtXtXtXtXtXtXtX",
"tXtXtXtXtXtXtXtXtXtXtXtXX o o = M.C.5.7 y y y y y y y 5.C.M., O o tXtXtXtXtXtXtXtXtXtXtXtXtXtXtX",
"tXtXtXtXtXtXtXtXtXtXtXtXtXtXo O , < < *.5.w e r =.=.C.< , ; O o tXtXtXtXtXtXtXtXtXtXtXtXtXtXtXtX",
"tXtXtXtXtXtXtXtXtXtXtXtXtXtXtXtXO = ; < < < < < < < < ; ; O tXtXtXtXtXtXtXtXtXtXtXtXtXtXtXtXtXtX",
"tXtXtXtXtXtXtXtXtXtXtXtXtXtXtXtXtXtXtX= = = = = = = = tXtXtXtXtXtXtXtXtXtXtXtXtXtXtXtXtXtXtXtXtX"
};
