/* XPM */
static char *result[] = {
/* columns rows colors chars-per-pixel */
"48 48 216 2 ",
"   c #2C1A17",
".  c #2E1C18",
"X  c #321E1A",
"o  c #3E1E1D",
"O  c #35201B",
"+  c #3A221D",
"@  c #352317",
"#  c #3A2323",
"$  c #382628",
"%  c #382737",
"&  c #3E3231",
"*  c #6C2C1B",
"=  c #732C1D",
"-  c #7A2B1D",
";  c #64331C",
":  c #6B341D",
">  c #6C3C1C",
",  c #72381F",
"<  c #472A27",
"1  c #4D3327",
"2  c #59382B",
"3  c #483634",
"4  c #573A38",
"5  c #492E35",
"6  c #7B2E21",
"7  c #653323",
"8  c #6B3524",
"9  c #6A372A",
"0  c #6C3A2C",
"q  c #683A29",
"w  c #7A3424",
"e  c #733C2B",
"r  c #763826",
"t  c #6D3B33",
"y  c #6C3C3B",
"u  c #663B32",
"i  c #723D34",
"p  c #723F3B",
"a  c #59473B",
"s  c #4C4338",
"d  c #7A4725",
"f  c #6A4737",
"g  c #72413C",
"h  c #764637",
"j  c #74533C",
"k  c #765738",
"l  c #644833",
"z  c #3B375C",
"x  c #3F2F43",
"c  c #3B3C65",
"v  c #433E5D",
"b  c #523A49",
"n  c #6B3D46",
"m  c #423E6A",
"M  c #3F4071",
"N  c #5F424A",
"B  c #5B4857",
"V  c #6D4647",
"C  c #754647",
"Z  c #665241",
"A  c #7C5C44",
"S  c #765545",
"D  c #635E5A",
"F  c #705556",
"G  c #7C6144",
"H  c #68655D",
"J  c #4B4569",
"K  c #544668",
"L  c #434474",
"P  c #564B6C",
"I  c #645267",
"U  c #737261",
"Y  c #756970",
"T  c #881814",
"R  c #931214",
"E  c #9B1316",
"W  c #981B1B",
"Q  c #8B231B",
"!  c #95261F",
"~  c #A42B1D",
"^  c #832B21",
"/  c #9A2723",
"(  c #843A2A",
")  c #853628",
"_  c #973731",
"`  c #A12724",
"'  c #AB3C29",
"]  c #B53B25",
"[  c #A73E36",
"{  c #BE333C",
"}  c #C92C3C",
"|  c #CA353E",
" . c #87562D",
".. c #934C37",
"X. c #895535",
"o. c #975539",
"O. c #844530",
"+. c #B44438",
"@. c #B34734",
"#. c #966539",
"$. c #9C703D",
"%. c #B46E38",
"&. c #AA783B",
"*. c #B5773C",
"=. c #AD6C39",
"-. c #D5433F",
";. c #C2673F",
":. c #903240",
">. c #CE2E40",
",. c #CD3342",
"<. c #C83943",
"1. c #D23443",
"2. c #D73F45",
"3. c #875743",
"4. c #905745",
"5. c #886C45",
"6. c #9A7C46",
"7. c #987A46",
"8. c #997457",
"9. c #AB744A",
"0. c #98655C",
"q. c #D44445",
"w. c #D94546",
"e. c #DD5343",
"r. c #DC554A",
"t. c #DD594E",
"y. c #D75343",
"u. c #D14E47",
"i. c #E1544A",
"p. c #E05748",
"a. c #E15C51",
"s. c #E14F46",
"d. c #DE6255",
"f. c #D1644B",
"g. c #E26859",
"h. c #E3755E",
"j. c #E47769",
"k. c #E36B60",
"l. c #DF776F",
"z. c #7E8063",
"x. c #BC8935",
"c. c #9D824D",
"v. c #A2834C",
"b. c #AE8548",
"n. c #BE8C49",
"m. c #B98747",
"M. c #B68A57",
"N. c #B28E56",
"B. c #8E8672",
"V. c #A68665",
"C. c #B6967A",
"Z. c #CEA24D",
"A. c #D6A857",
"S. c #D7B055",
"D. c #DBB669",
"F. c #DDB977",
"G. c #D9AF67",
"H. c #E1B96C",
"J. c #E3BE73",
"K. c #E9BE74",
"L. c #E68074",
"P. c #E4C175",
"I. c #E5C47B",
"U. c #EAC57A",
"Y. c #EACA7D",
"T. c #E8C47A",
"R. c #4D53DD",
"E. c #5C5BDB",
"W. c #5558DE",
"Q. c #4E4FD9",
"!. c #635EDC",
"~. c #6867D9",
"^. c #6A73DC",
"/. c #7678DB",
"(. c #756FD3",
"). c #585CE1",
"_. c #605EE0",
"`. c #5D63E3",
"'. c #636AE3",
"]. c #6F79E1",
"[. c #7682E0",
"{. c #8A9198",
"}. c #9B9D97",
"|. c #91908A",
" X c #B59F81",
".X c #ABA389",
"XX c #ADA690",
"oX c #939BA6",
"OX c #8F98A4",
"+X c #99A1A9",
"@X c #B5BAB1",
"#X c #DFBE83",
"$X c #BFC0AC",
"%X c #DFCA94",
"&X c #ECCD82",
"*X c #E5C886",
"=X c #EDD085",
"-X c #E2CE94",
";X c #C7C7B5",
":X c #D5D9BC",
">X c #DADCBE",
",X c #DBD3B8",
"<X c #E4D4BA",
"1X c #918DD7",
"2X c #A896D4",
"3X c #DEDEC3",
"4X c #DFE0C6",
"5X c #DDE4D4",
"6X c #E4E4CC",
"7X c #E9E4CB",
"8X c #E5E3C6",
"9X c #E4EAD5",
"0X c #E9EAD2",
"qX c #E5E6D1",
"wX c #E9DFC6",
"eX c None",
/* pixels */
"eXeXeXeXeXeXeXeXeXeXeXeXeXeXeXeXeXeXeXeXeXeXeXeXeXeXeXeXeXeXeXeXeXeXeXeXeXeXeXeXeXeXeXeXeXeXeXeX",
"eXeXeXeXeXeXeXeXeXeXeXeXeXeXeXeXeXeXeXw ( ( ( _ ( ( eXeXeXeXeXeXeXeXeXeXeXeXeXeXeXeXeXeXeXeXeXeX",
"eXeXeXeXeXeXeXeXeXeXeXeXeXeXeXeXeXeXr ( ( / ` / / ) ) ^ eXeXeXeXeXeXeXeXeXeXeXeXeXeXeXeXeXeXeXeX",
"eXeXeXeXeXeXeXeXeXeXeXeXeXeXeXeXeX8 w ! / q.w.q.q.` W ) w eXeXeXeXeXeXeXeXeXeXeXeXeXeXeXeXeXeXeX",
"eXeXeXeXeXeXeXeXeXeXeXeXeXeXeXeXeXr Q q.y.y.r.r.t.w.1.W ) 6 eXeXeXeXeXeXeXeXeXeXeXeXeXeXeXeXeXeX",
"eXeXeXeXeXeXeXeXeXeXeXeXeXeXeXeX8 r Q u.,X,X<X<Xt.r.w.1.W ^ 6 eXeXeXeXeXeXeXeXeXeXeXeXeXeXeXeXeX",
"eXeXeXeXeXeXeXeXeXeXeXeXeXeXeXeX8 ^ q.,X' <X+.<X<Xi.r.1.,.R 6 eXeXeXeXeXeXeXeXeXeXeXeXeXeXeXeXeX",
"eXeXeXeXeXeXeXeXeXeXeXeXeXeXeXeXe / u.,X[ [ +.<X<Xa.i.2.,.>.R 6 eXeXeXeXeXeXeXeXeXeXeXeXeXeXeXeX",
"eXeXeXeXeXeXeXeXeXeXeXeX$ $ & 3 4 4 _ ,X[ [ +.<X<Xi.i.2.1.>.E ^ = eXeXeXeXeXeXeXeXeXeXeXeXeXeXeX",
"eXeXeXeXeXeXeXeXeXeXeX$ & s s s 4 V f S C 3.,X<Xa.a.i.w.1.1.>.E - eXeXeXeXeXeXeXeXeXeXeXeXeXeXeX",
"eXeXeXeXeXeXeXeXeXeXeXH s s a j j Z V Z S S 3.4.a.a.i.s.2.1.>.E ^ eXeXeXeXeXeXeXeXeXeXeXeXeXeXeX",
"eXeXeXeXeXeXeXeXeXeXD U z.B.:X>X:XG A.5.A 3.S 3.4.] t.i.w.1.>.>.E ^ eXeXeXeXeXeXeXeXeXeXeXeXeXeX",
"eXeXeXeXeXeXeXeXeXeXH z.:X3X>X3X3XG *XI.K.J.3.3.4.o...s.s.w.| } E ^ eXeXeXeXeXeXeXeXeXeXeXeXeXeX",
"eXeXeXeXeXeXeXeXeXH U :X:X:X>X4X4X7.v.I.I.K.I.I.K.4.o.o.i.s.w.1.| E ^ - = eXeXeXeXeXeXeXeXeXeXeX",
"eXeXeXeXeXeXeXeXeXD U :X:Xv.N.N.N.c.c.=XU.*X7.7.U.K.A.o.o.p.s.-.| E R R - * eXeXeXeXeXeXeXeXeXeX",
"eXeXeXeXeXeXeXeXeXH U :X6.v.D.-X=XP.N.=X&X&X6.6.U.U.U.K.o.o.] w.-.E } } R = eXeXeXeXeXeXeXeXeXeX",
"eXeXeXeXeXeXeXeXeXD H k $.D.*X=X=X=X=X=X=XY.c.c.Y.Y.U.P.P.%.o.] e.-.| | } R = eXeXeXeXeXeXeXeXeX",
"eXeXeXeXeXeXeXeXeXeXH a #.I.I.Y.=X=X=X=X=XY.v.v.Y.Y.Y.I.U.P.%...] e.-.| | T , eXeXeXeXeXeXeXeXeX",
"eXeXeXeXeXeXeXeXeXeXD s G P.I.Y.=XY.Y.Y.&XY.n.b.Y.Y.Y.I.U.U.K.%.o.@.;.-.| T , eXeXeXeXeXeXeXeXeX",
"eXeXeXeXeXeXeXeXeXeXeXs k Z.J.I.Y.Y.Y.Y.Y.Y.Y.Y.Y.Y.Y.Y.U.U.U.*.*.o...] ~  ., eXeXeXeXeXeXeXeXeX",
"eXeXeXeXeXeXeXeXeXeXeXeX2  .Z.P.P.I.P.I.I.I.P.I.7.c.Y.Y.Y.n.x.m.*.U.K.H.H. .2 eXeXeXeXeXeXeXeXeX",
"eXeXeXeXeXeXeXeXeXeXeXeXeX2  .#.Z.P.P.P.S.&.5.5.7.6.b.Y.Y.n.n.n.T.T.K.H.H.D.d # eXeXeXeXeXeXeXeX",
"eXeXeXeXeXeXeXeXeXeXeXeXeXeX2 l k d k k k k A A #.7.b.Y.Y.Y.n.n.U.T.&.&.H.D.d 1 eXeXeXeXeXeXeXeX",
"eXeXeXeXeXeXeXeXeXeXeXeXeXeX8 Q 2 l l l f j j A G b.Y.Y.=XY.Y.Y.Y.I.x.H.H.G.d < eXeXeXeXeXeXeXeX",
"eXeXeXeXeXeXeXeXeXeXeXeXeXeX: T Q 2 q l f f S G 5.Y.Y.=X=X=XY.Y.U.U.P.H.D. .1 + eXeXeXeXeXeXeXeX",
"eXeXeXeXeXeXeXeXeXeXeXeXeXeXeX8 T { 2 l f f k J.I.Y.Y.Y.Y.Y.Y.Y.U.P.P.H. .2 < eXeXeXeXeXeXeXeXeX",
"eXeXeXeXeXeXeXeXeXeXeXeXeXeXeX* T { ( S.f j D.J.Y.Y.*X=X&XY.Y.Y.U.%.#.X.l 1 eXeXeXeXeXeXeXeXeXeX",
"eXeXeXeXeXeXeXeXeXeXeXeXeXeXeX7 - { O.G.l j 7.F.I.*X*X&X&XY.n.9.*.X.h 0 eXeXeXeXeXeXeXeXeXeXeXeX",
"eXeXeXeXeXeXeXeXeXeXeXeXeXeXeXeX* T <.O.D.S A *X*X*X=XN.M.n.f.@.=.o...eXeXeXeXeXeXeXeXeXeXeXeXeX",
"eXeXeXeXeXeXeXeXeXeXeXeXeXeXeXeX= T <.X.F.F A *X*XN.N.2XV.j.h.h.d.' ~ ( w eXeXeXeXeXeXeXeXeXeXeX",
"eXeXeXeXeXeXeXeXeXeXeXeXeXeXeXeXt ^ B _ 4.#X#X*XV.2XC..XC.C.f.@.t.e.q.W w = eXeXeXeXeXeXeXeXeXeX",
"eXeXeXeXeXeXeXeXeXeXeXeXeXeXeXeXeXb B :.3.8.8.V.1XXXXX7X7X8XC.j.g.t.<.>.T = eXeXeXeXeXeXeXeXeXeX",
"eXeXeXeXeXeXeXeXeXeXeX. X + $ < h B B I I Y Y 1X}.XXXXqX7X7XwXj.g.a.w.1.R * eXeXeXeXeXeXeXeXeXeX",
"eXeXeXeXeXeXeXeXeXeX. X + # $ 5 O.S.~.!.~./.1X.XXX$X9X0X0X7X7Xj.k.a.y.2.T 6 eXeXeXeXeXeXeXeXeXeX",
"eXeXeXeXeXeXeXeXeX  X ; ; 8 t y B H.!._.'./.*X}.5X9X9X0X0X7X7Xl.j.d.r.<.W 6 eXeXeXeXeXeXeXeXeXeX",
"eXeXeXeXeXeXeXeX  @ ; ; 8 9 i p n K !._.(.-X-XoX5X5X9X0X;X0X0X8Xl.d.t.` ) < o eXeXeXeXeXeXeXeXeX",
"eXeXeXeXeXeXeXeX  @ x.> 8 8 f g F m _._.'.#X,X+X$X5X9X;X9X9XqX6Xl.+.[ ..w < o eXeXeXeXeXeXeXeXeX",
"eXeXeXeXeXeXeXeX. @ > x.d e e g :.P _._.'.].%X+X+X9X9X9X9X$XqX4X3X8.4.O.i 8 o X eXeXeXeXeXeXeXeX",
"eXeXeXeXeXeXeXeX. @ : > 9 d i g n P ).).`.'.].[.oX+X5X5X;X5X5X5XXXB.F p w 8 o X eXeXeXeXeXeXeXeX",
"eXeXeXeXeXeXeXeXeX@ + > , r e p b K m ).)._.'.'.[.OXoX5X5X5X@X|.|.(.n 4 5 8 o X eXeXeXeXeXeXeXeX",
"eXeXeXeXeXeXeXeXeXX + > x.1 1 5 n n K R.).).).`.`.[.{.{.{.|.|.(.(.I C i 5 7 ; X   eXeXeXeXeXeXeX",
"eXeXeXeXeXeXeXeXeXeX@ + > r 0 0 y n n R.Q.R.R.).).`.^.^.^.^.~.~.!.B g i 9 7 ; X . eXeXeXeXeXeXeX",
"eXeXeXeXeXeXeXeXeXeXX + ; > 9 e t y n z m m m R.R.R.`.).W.W.W.E.K C p t 9 7 ; .   eXeXeXeXeXeXeX",
"eXeXeXeXeXeXeXeXeXeX. X ; x.> 8 9 u % z c c c c M M M M J J J J V y i 0 7 7 ; X   eXeXeXeXeXeXeX",
"eXeXeXeXeXeXeXeXeXeXeXX + ; 7 7 q $ % % eXeXeXc M M c c c v v b y t t q 7 7 X X eXeXeXeXeXeXeXeX",
"eXeXeXeXeXeXeXeXeXeXeXeX@ @ O O $ $ $ eXeXeXeXeXeXeXeXeXeXeX% % % 9 q 7 7 X X eXeXeXeXeXeXeXeXeX",
"eXeXeXeXeXeXeXeXeXeXeXeXeXX O O @ eXeXeXeXeXeXeXeXeXeXeXeXeXeX% $ $ # # # X eXeXeXeXeXeXeXeXeXeX",
"eXeXeXeXeXeXeXeXeXeXeXeXeXeXeXeXeXeXeXeXeXeXeXeXeXeXeXeXeXeXeXeX$ # # # # eXeXeXeXeXeXeXeXeXeXeX"
};
