/* XPM */
static char *result[] = {
/* columns rows colors chars-per-pixel */
"48 48 216 2 ",
"   c #2C1A17",
".  c #2E1C18",
"X  c #321E1A",
"o  c #3E1E1D",
"O  c #35201B",
"+  c #3A221D",
"@  c #352216",
"#  c #3A2323",
"$  c #382628",
"%  c #382737",
"&  c #3E3231",
"*  c #6C2C1B",
"=  c #732C1D",
"-  c #7A2B1D",
";  c #64331C",
":  c #6B3A1A",
">  c #69341C",
",  c #713A1E",
"<  c #472A27",
"1  c #4D3326",
"2  c #59382A",
"3  c #483735",
"4  c #573938",
"5  c #492E35",
"6  c #7B2E21",
"7  c #653323",
"8  c #6B3524",
"9  c #6A372A",
"0  c #6C3A2C",
"q  c #693928",
"w  c #7A3424",
"e  c #733C2B",
"r  c #763826",
"t  c #6D3B33",
"y  c #6C3C3B",
"u  c #663B32",
"i  c #713D33",
"p  c #723F3B",
"a  c #58453B",
"s  c #67442E",
"d  c #7C4725",
"f  c #694638",
"g  c #72413C",
"h  c #754738",
"j  c #68523F",
"k  c #745438",
"l  c #7E603E",
"z  c #3B375C",
"x  c #3F2F43",
"c  c #3B3C65",
"v  c #5A3F49",
"b  c #433E5D",
"n  c #4E3445",
"m  c #6B3D46",
"M  c #423E6A",
"N  c #3F4071",
"B  c #5B4859",
"V  c #5C464F",
"C  c #6C4546",
"Z  c #754647",
"A  c #7C5A43",
"S  c #775544",
"D  c #655C5A",
"F  c #635040",
"G  c #68635E",
"H  c #73705E",
"J  c #4B4569",
"K  c #554867",
"L  c #434474",
"P  c #524674",
"I  c #645267",
"U  c #757362",
"Y  c #716A6A",
"T  c #891815",
"R  c #931214",
"E  c #9B1316",
"W  c #991A1A",
"Q  c #A41E1C",
"!  c #8A231B",
"~  c #A2331E",
"^  c #852A22",
"/  c #9A2322",
"(  c #843A2A",
")  c #853628",
"_  c #963530",
"`  c #A12524",
"'  c #AB3827",
"]  c #B2382A",
"[  c #A83D34",
"{  c #BE333C",
"}  c #C92C3C",
"|  c #C8323E",
" . c #854929",
".. c #86552C",
"X. c #884A38",
"o. c #944D36",
"O. c #944C38",
"+. c #8A563B",
"@. c #955438",
"#. c #B44637",
"$. c #AF4A34",
"%. c #966237",
"&. c #8D653E",
"*. c #A76938",
"=. c #B46A36",
"-. c #A87638",
";. c #B5783C",
":. c #903240",
">. c #CE2E40",
",. c #CC3443",
"<. c #CC3D43",
"1. c #C73846",
"2. c #D13344",
"3. c #D23A44",
"4. c #D33C4A",
"5. c #D43749",
"6. c #885644",
"7. c #866943",
"8. c #956B46",
"9. c #9B7C45",
"0. c #967845",
"q. c #997556",
"w. c #B97547",
"e. c #9E6658",
"r. c #CA4545",
"t. c #D24445",
"y. c #D34448",
"u. c #D84747",
"i. c #DC5244",
"p. c #DD544A",
"a. c #DA594B",
"s. c #DC5E52",
"d. c #DD6355",
"f. c #E06B5B",
"g. c #DE726A",
"h. c #E27564",
"j. c #E27569",
"k. c #BA8632",
"l. c #B6832E",
"z. c #9A804D",
"x. c #A68147",
"c. c #B98745",
"v. c #A98656",
"b. c #B48855",
"n. c #89836E",
"m. c #AE9E7F",
"M. c #B39578",
"N. c #A58667",
"B. c #CB9E49",
"V. c #D5A856",
"C. c #D3AD55",
"Z. c #D7AD64",
"A. c #DCB56A",
"S. c #DFBA6E",
"D. c #DBB466",
"F. c #DFBC74",
"G. c #DBB878",
"H. c #E1B86C",
"J. c #E4BC73",
"K. c #E0BE7B",
"L. c #E4C175",
"P. c #E6C57A",
"I. c #E9C67A",
"U. c #E9C97D",
"Y. c #E8C277",
"T. c #4D53DD",
"R. c #5C5ADB",
"E. c #5558DE",
"W. c #4E4FD9",
"Q. c #635EDA",
"!. c #5C65DF",
"~. c #6769D9",
"^. c #6A74DB",
"/. c #7479D8",
"(. c #736DD4",
"). c #585CE1",
"_. c #605EE0",
"`. c #5D62E3",
"'. c #6369E2",
"]. c #7580DD",
"[. c #868D96",
"{. c #92928E",
"}. c #A29E8A",
"|. c #AAA38B",
" X c #AFA594",
".X c #8D95A2",
"XX c #949BA3",
"oX c #B5B7AC",
"OX c #E0BF80",
"+X c #C0BEAF",
"@X c #DEC68A",
"#X c #DDC995",
"$X c #E4C482",
"%X c #EACC81",
"&X c #E8C982",
"*X c #DCCEB4",
"=X c #D6CEB3",
"-X c #D3D6B9",
";X c #DBDBBC",
":X c #D7D4B7",
">X c #C9CAB3",
",X c #E1D0B7",
"<X c #E1CFB6",
"1X c #8E8AD3",
"2X c #A592D0",
"3X c #DBDCC9",
"4X c #D8DED0",
"5X c #E5DDC4",
"6X c #E0DEC8",
"7X c #DDE1CE",
"8X c #DDE3D2",
"9X c #E5E4CC",
"0X c #E5E0C6",
"qX c #E2E7D2",
"wX c #E5E8D1",
"eX c None",
/* pixels */
"eXeXeXeXeXeXeXeXeXeXeXeXeXeXeXeXeXeXeXeXeXeXeXeXeXeXeXeXeXeXeXeXeXeXeXeXeXeXeXeXeXeXeXeXeXeXeXeX",
"eXeXeXeXeXeXeXeXeXeXeXeXeXeXeXeXeXeXeXeXeXeX) ) ( ( ( ( w eXeXeXeXeXeXeXeXeXeXeXeXeXeXeXeXeXeXeX",
"eXeXeXeXeXeXeXeXeXeXeXeXeXeXeXeXeXeXeXeXw ) _ / ` ` / ( ( w eXeXeXeXeXeXeXeXeXeXeXeXeXeXeXeXeXeX",
"eXeXeXeXeXeXeXeXeXeXeXeXeXeXeXeXeXeXeXw ) W / 4.u.y.4./ / w 8 eXeXeXeXeXeXeXeXeXeXeXeXeXeXeXeXeX",
"eXeXeXeXeXeXeXeXeXeXeXeXeXeXeXeXeXeXw ) W ,.y.p.i.i.y.r.1.W 8 eXeXeXeXeXeXeXeXeXeXeXeXeXeXeXeXeX",
"eXeXeXeXeXeXeXeXeXeXeXeXeXeXeXeXeX= ^ W ,.4.y.p.*X*X*X=Xr.^ r 8 eXeXeXeXeXeXeXeXeXeXeXeXeXeXeXeX",
"eXeXeXeXeXeXeXeXeXeXeXeXeXeXeXeXeX6 E ,.5.y.p.<X,X[ *X' >Xr.! 0 eXeXeXeXeXeXeXeXeXeXeXeXeXeXeXeX",
"eXeXeXeXeXeXeXeXeXeXeXeXeXeXeXeX- R >.,.5.y.p.,X,X#.$.[ =Xr./ i eXeXeXeXeXeXeXeXeXeXeXeXeXeXeXeX",
"eXeXeXeXeXeXeXeXeXeXeXeXeXeXeX= ! E } 2.4.u.p.<X,X#.[ [ =X_ 4 4 & & $ $ eXeXeXeXeXeXeXeXeXeXeXeX",
"eXeXeXeXeXeXeXeXeXeXeXeXeXeXeX- E } 2.5.u.i.p.s.,X*X6.Z S f f 4 a a 3 & & eXeXeXeXeXeXeXeXeXeXeX",
"eXeXeXeXeXeXeXeXeXeXeXeXeXeXeX! E >.2.5.u.p.p.s.6.S Z S S F F F j a a a D eXeXeXeXeXeXeXeXeXeXeX",
"eXeXeXeXeXeXeXeXeXeXeXeXeXeX- R } >.5.5.u.p.] 6.6.6.6.A A V.A :X-X-XU U Y D eXeXeXeXeXeXeXeXeXeX",
"eXeXeXeXeXeXeXeXeXeXeXeXeXeX^ Q >.2.3.u.i.o.O.@.6.&.F.F.G.K.7.3X;X;X-X-XU G eXeXeXeXeXeXeXeXeXeX",
"eXeXeXeXeXeXeXeXeXeXeX* = ^ E } 2.5.i.i.o.@.6.J.F.F.K.F.P.x.0.;X;X;X;X-X-XH D eXeXeXeXeXeXeXeXeX",
"eXeXeXeXeXeXeXeXeXeX* = R R E 3.| i.i.o.@.V.F.K.8.8.P.P.U.z.z.v.v.v.9.-X-XU G eXeXeXeXeXeXeXeXeX",
"eXeXeXeXeXeXeXeXeXeX= R } } Q | | | o.@.J.L.L.K.-.0.U.U.U.c.S.%X&XD.z.0.-XH G eXeXeXeXeXeXeXeXeX",
"eXeXeXeXeXeXeXeXeX* T | | | | 3.] @.=.H.L.L.L.I.x.x.U.U.U.U.%X%X%XP.C.7.j H D eXeXeXeXeXeXeXeXeX",
"eXeXeXeXeXeXeXeXeX, T | | 3.u.] o.=.H.L.L.L.I.I.x.z.U.U.U.U.%X%XU.P.K.7.a G eXeXeXeXeXeXeXeXeXeX",
"eXeXeXeXeXeXeXeXeXw W | t.t.] o.=.H.Y.Y.L.U.P.P.l.x.U.U.U.U.U.U.P.L.S.%.a D eXeXeXeXeXeXeXeXeXeX",
"eXeXeXeXeXeXeXeXeXr  .~ ' ..%.=.;.J.Y.Y.U.P.P.P.P.P.P.P.P.U.U.U.F.S.B.k 1 eXeXeXeXeXeXeXeXeXeXeX",
"eXeXeXeXeXeXeXeXeX2  .H.D.H.H.;.k.k.c.U.I.P.z.&.L.L.L.L.L.P.F.F.S.B.d 1 eXeXeXeXeXeXeXeXeXeXeXeX",
"eXeXeXeXeXeXeXeX< d V.D.H.L.Y.Y.w.B.c.I.I.9.z.0.&.l -.C.S.S.S.B.%...s eXeXeXeXeXeXeXeXeXeXeXeXeX",
"eXeXeXeXeXeXeXeX< d D.A.*.-.Y.L.w.B.L.U.U.-.0.A l l k k k k k s s 2 eXeXeXeXeXeXeXeXeXeXeXeXeXeX",
"eXeXeXeXeXeXeXeX+ d Z.A.H.-.Y.I.Y.I.I.U.U.P.x.&.A j j j s s s s ! e eXeXeXeXeXeXeXeXeXeXeXeXeXeX",
"eXeXeXeXeXeXeXeX# 1 ..D.D.S.L.L.I.U.U.U.U.U.P.7.l k j f u q 2 ! T > eXeXeXeXeXeXeXeXeXeXeXeXeXeX",
"eXeXeXeXeXeXeXeXeX1 2 ..A.S.J.L.I.I.U.&XU.P.P.L.F.k f s s 2 | T 8 eXeXeXeXeXeXeXeXeXeXeXeXeXeXeX",
"eXeXeXeXeXeXeXeXeXeX1 u ..%.-.L.J.I.I.&X&XP.P.G.F.S.k s V.( { - * eXeXeXeXeXeXeXeXeXeXeXeXeXeXeX",
"eXeXeXeXeXeXeXeXeXeXeXeX0 h +.=.;.w.I.&X&X$X$XP.F.&.j s Z., { T ; eXeXeXeXeXeXeXeXeXeXeXeXeXeXeX",
"eXeXeXeXeXeXeXeXeXeXeXeXeX .@.*.#.=.B.w.b.$X$X$XK.S C Z. .{ ! 8 eXeXeXeXeXeXeXeXeXeXeXeXeXeXeXeX",
"eXeXeXeXeXeXeXeXeXeXeXw ( ` ' a.f.f.h.N.2Xb.v.$X@XA S G.X.1.T q eXeXeXeXeXeXeXeXeXeXeXeXeXeXeXeX",
"eXeXeXeXeXeXeXeXeXeX> - W t.i.a.$.a.M.m.m.m.2XN.@XG.OX6._ V ^ t eXeXeXeXeXeXeXeXeXeXeXeXeXeXeXeX",
"eXeXeXeXeXeXeXeXeXeX= R } t.a.d.d.M.5X0X;X|.|.1Xq.q.e.6.:.B v eXeXeXeXeXeXeXeXeXeXeXeXeXeXeXeXeX",
"eXeXeXeXeXeXeXeXeXeX= R ,.r.p.d.h.5X5X0X9X X|.}.1XY Y I I B V i 5 # # X   eXeXeXeXeXeXeXeXeXeXeX",
"eXeXeXeXeXeXeXeXeXeX= W 1.y.a.f.h.0X0X9X9X9XoX}.{.1X/.'.Q.Q.C.h 5 $ # + @ . eXeXeXeXeXeXeXeXeXeX",
"eXeXeXeXeXeXeXeXeXeX, R 1.u.s.f.j.9X9X9X9XwX9X7XXX$X/.'.~.R.D.B y t q ; ; .   eXeXeXeXeXeXeXeXeX",
"eXeXeXeXeXeXeXeXeXo < ) / a.s.j.0X0X9X>XwXwXqX7XXX$X#X(.Q.Q.K Z g e q 8 > ; X   eXeXeXeXeXeXeXeX",
"eXeXeXeXeXeXeXeXeXo < w X.[ #.g.7X0X9XwX>X8X8XoXXX#X#X~._._.P Z g t 0 : : l.@   eXeXeXeXeXeXeXeX",
"eXeXeXeXeXeXeXeXo o 8 e X.6.e.3X;X7X+X8X8X8X8XXX.X#X^.'.).Q.P Z p i d , k.: @ . eXeXeXeXeXeXeXeX",
"eXeXeXeXeXeXeXeXX o 6 e Z S n. X7X7X8XoX8X8XXX.X/.^.'.`.)._.M :.g i e , : > O . eXeXeXeXeXeXeXeX",
"eXeXeXeXeXeXeXeX. o 8 5 4 v (.n.{.oX4X4X4X.X.X].^.'.`.).R.M K n p e e , : + @ eXeXeXeXeXeXeXeXeX",
"eXeXeXeXeXeXeX  X 7 8 5 i g I (.(.n.[.[.[.[.].!.`._.).T.R.M m m 5 1 1 k.: + X eXeXeXeXeXeXeXeXeX",
"eXeXeXeXeXeXeX  . ; 7 9 i Z B Q.~.~.^.^.^.~.!.`.).T.T.W.W.m m y i 0 : : + O eXeXeXeXeXeXeXeXeXeX",
"eXeXeXeXeXeXeX  X ; 7 9 t y Z B R.R.!.E.E.!.T.T.T.L M M M m m u 0 8 : > @ X eXeXeXeXeXeXeXeXeXeX",
"eXeXeXeXeXeXeX  . 7 7 7 0 y y C J J J J N N N N c c z b b % u u 9 : l.> O . eXeXeXeXeXeXeXeXeXeX",
"eXeXeXeXeXeXeXeXX X 7 7 q 0 y y x z c c c c c c c eXeXeX% % $ 7 7 ; ; O X eXeXeXeXeXeXeXeXeXeXeX",
"eXeXeXeXeXeXeXeXeXX X 7 7 9 u % x x eXeXeXeXeXeXeXeXeXeXeX$ $ X + # O . eXeXeXeXeXeXeXeXeXeXeXeX",
"eXeXeXeXeXeXeXeXeXeXO # # # $ $ % eXeXeXeXeXeXeXeXeXeXeXeXeXeXO O O X eXeXeXeXeXeXeXeXeXeXeXeXeX",
"eXeXeXeXeXeXeXeXeXeXeXO o # # $ eXeXeXeXeXeXeXeXeXeXeXeXeXeXeXeXeXeXeXeXeXeXeXeXeXeXeXeXeXeXeXeX"
};
