/* XPM */
static char *result[] = {
/* columns rows colors chars-per-pixel */
"48 51 218 2 ",
"   c #290C0B",
".  c #380D0E",
"X  c #2C110E",
"o  c #33150F",
"O  c #3A160F",
"+  c #2D1316",
"@  c #3D1C11",
"#  c #361916",
"$  c #3D2314",
"%  c #351C2A",
"&  c #34252B",
"*  c #3F322D",
"=  c #3A2738",
"-  c #451E11",
";  c #461412",
":  c #541812",
">  c #4C130F",
",  c #442313",
"<  c #4A2413",
"1  c #4A2817",
"2  c #57331E",
"3  c #562D16",
"4  c #7C3308",
"5  c #77360A",
"6  c #683A18",
"7  c #6D2B15",
"8  c #4D3431",
"9  c #693E28",
"0  c #7B430D",
"q  c #78440C",
"w  c #6E4318",
"e  c #744A13",
"r  c #7A4E16",
"t  c #75441B",
"y  c #774519",
"u  c #7E5219",
"i  c #4F433B",
"p  c #6A4726",
"a  c #754424",
"s  c #73442A",
"d  c #6E4436",
"f  c #744535",
"g  c #71483B",
"h  c #73542A",
"j  c #352149",
"k  c #2D2A6B",
"l  c #312D79",
"z  c #363579",
"x  c #331B44",
"c  c #4F324D",
"v  c #4D2D51",
"b  c #4B334C",
"n  c #553D78",
"m  c #643861",
"M  c #56455B",
"N  c #594F46",
"B  c #6A434B",
"V  c #724746",
"C  c #6E4759",
"Z  c #4C447A",
"A  c #504E6C",
"S  c #685266",
"D  c #5F6663",
"F  c #636769",
"G  c #757B68",
"H  c #6E7662",
"J  c #9B1D0B",
"K  c #961E0B",
"L  c #A41E0D",
"P  c #AB1F0E",
"I  c #AE1F10",
"U  c #9D240E",
"Y  c #84330A",
"T  c #8C340B",
"R  c #99360D",
"E  c #82351E",
"W  c #A8210E",
"Q  c #A82611",
"!  c #B42111",
"~  c #B92013",
"^  c #B93918",
"/  c #AB3214",
"(  c #90362B",
")  c #A63829",
"_  c #AC3B33",
"`  c #C72319",
"'  c #C43D19",
"]  c #D1261E",
"[  c #DB2E2F",
"{  c #DD2F31",
"}  c #DD3333",
"|  c #DC3B34",
" . c #D9332F",
".. c #E23235",
"X. c #E43D37",
"o. c #E63439",
"O. c #E9343C",
"+. c #E53B3A",
"@. c #E93A3D",
"#. c #854B0F",
"$. c #895218",
"%. c #934D1B",
"&. c #9A641D",
"*. c #AE711F",
"=. c #984829",
"-. c #8D5C21",
";. c #985825",
":. c #8F5431",
">. c #A55635",
",. c #A54B31",
"<. c #A56A25",
"1. c #AB722B",
"2. c #BD7A23",
"3. c #B97626",
"4. c #A97731",
"5. c #BC7B31",
"6. c #B36329",
"7. c #C5431D",
"8. c #C84624",
"9. c #E34537",
"0. c #E5443B",
"q. c #E7463D",
"w. c #C47D24",
"e. c #CB7C25",
"r. c #C87927",
"t. c #C37F36",
"y. c #D07E2F",
"u. c #8B324A",
"i. c #9C5645",
"p. c #AD5548",
"a. c #BF7C43",
"s. c #9B6E6F",
"d. c #DB4B58",
"f. c #DB4B51",
"g. c #C27E43",
"h. c #DA4967",
"j. c #DD5767",
"k. c #D74877",
"l. c #DE5A78",
"z. c #E06C7A",
"x. c #E15C56",
"c. c #7B8374",
"v. c #BD8A3D",
"b. c #CC852C",
"n. c #C78429",
"m. c #C48339",
"M. c #C38D3B",
"N. c #C78934",
"B. c #D08835",
"V. c #CD9438",
"C. c #D09338",
"Z. c #858778",
"A. c #C18E40",
"S. c #C49040",
"D. c #D9AB67",
"F. c #DAB26E",
"G. c #D7B06B",
"H. c #DDB572",
"J. c #DEB975",
"K. c #E2BA76",
"L. c #E5BE7A",
"P. c #E4B876",
"I. c #E6C17C",
"U. c #383687",
"Y. c #38338B",
"T. c #463F94",
"R. c #4F378B",
"E. c #4E478A",
"W. c #7976AF",
"Q. c #3E3BED",
"!. c #3F3BF0",
"~. c #4239EE",
"^. c #543EEE",
"/. c #423EF2",
"(. c #4C3FF2",
"). c #533EF2",
"_. c #7A78C6",
"`. c #4A43EE",
"'. c #5145EC",
"]. c #5647EB",
"[. c #5C57ED",
"{. c #4443F5",
"}. c #4B44F4",
"|. c #4C49F6",
" X c #534CF4",
".X c #5545F6",
"XX c #5A55F6",
"oX c #6A49EC",
"OX c #7849EC",
"+X c #7D52EC",
"@X c #6546F2",
"#X c #665CF5",
"$X c #7453F1",
"%X c #736BF4",
"&X c #CC399C",
"*X c #8D76B0",
"=X c #94739A",
"-X c #D84D85",
";X c #DE658B",
":X c #8351E8",
">X c #877AC1",
",X c #7E829A",
"<X c #828A8B",
"1X c #B3AFAD",
"2X c #9C84A8",
"3X c #A79FCC",
"4X c #C7C6CB",
"5X c #D4D2CC",
"6X c #D9D3CD",
"7X c #D6D5D3",
"8X c #DCD4DC",
"9X c #DBD6D9",
"0X c #C7C6D1",
"qX c #E1D8D7",
"wX c #D4CFE5",
"eX c #D4D2E4",
"rX c #DBD7E2",
"tX c None",
/* pixels */
"tXtXtXtXtXtXtXtXtXtXtXtXtXtXtXtXtXtXtXtXT R R R R R tXtXtXtXtXtXtXtXtXtXtXtXtXtXtXtXtXtXtXtXtXtX",
"tXtXtXtXtXtXtXtXtXtXtXtXtXtXtXtXtXtXtXT P I ~ ~ ! ! R T tXtXtXtXtXtXtXtXtXtXtXtXtXtXtXtXtXtXtXtX",
"tXtXtXtXtXtXtXtXtXtXtXtXtXtXtXtXtXtXY L I { { ..{ ~ ! L Y tXtXtXtXtXtXtXtXtXtXtXtXtXtXtXtXtXtXtX",
"tXtXtXtXtXtXtXtXtXtXtXtXtXtXtXtXtXY L I { ....{ ..{ { P L Y tXtXtXtXtXtXtXtXtXtXtXtXtXtXtXtXtXtX",
"tXtXtXtXtXtXtXtXtXtXtXtXtXtXtXtXtXY W { { o...O.o.....{ L L 4 tXtXtXtXtXtXtXtXtXtXtXtXtXtXtXtXtX",
"tXtXtXtXtXtXtXtXtXtXtXtXtXtXtXtX4 L { { ..o.o.O.O.O...{ { L Y tXtXtXtXtXtXtXtXtXtXtXtXtXtXtXtXtX",
"tXtXtXtXtXtXtXtXtXtXtXtX    . > K L { { o.o.O.O.O.O.....{ P L 4 tXtXtXtXtXtXtXtXtXtXtXtXtXtXtXtX",
"tXtXtXtXtXtXtXtXtXtXtX    . ; > J L { ..o.O.O.O.O.o.O.o.{ { L J 4 tXtXtXtXtXtXtXtXtXtXtXtXtXtXtX",
"tXtXtXtXtXtXtXtXtXtXtX  X . ; > K  .} } O.O.O.O.O.O.O.o...{ { L Y tXtXtXtXtXtXtXtXtXtXtXtXtXtXtX",
"tXtXtXtXtXtXtXtXtXtXtXtXX O ; 7 U } } o.O.O.O.O.O.O.O.O.o...{ I T tXtXtXtXtXtXtXtXtXtXtXtXtXtXtX",
"tXtXtXtXtXtXtXtXtXtXtXtXtX; - : 7 } | o.@.O.O.O.O.O.O.O.o.{ { ! T T 4 tXtXtXtXtXtXtXtXtXtXtXtXtX",
"tXtXtXtXtXtXtXtXtXtXtXtXtXtXtX7 7 9 | +.@.@.@.@.O.O.O.O.] ` ` ~ ! L J 4 tXtXtXtXtXtXtXtXtXtXtXtX",
"tXtXtXtXtXtXtXtXtXtXtXtX1 1 3 6 E E ( 0.X.@.@.@.@.O.] ] o.......{  .W K 4 tXtXtXtXtXtXtXtXtXtXtX",
"tXtXtXtXtXtXtXtXtXtXtX, e u $.$.=.t.=.=.q.+.q.0.@.@.@.O.o.O.O.....{  .W K 7 tXtXtXtXtXtXtXtXtXtX",
"tXtXtXtXtXtXtXtXtXtX$ e u G.F.;.5.t.n.=.,.0.q.q.0.@.@.O.@.o.o.o...|  . .U 5 tXtXtXtXtXtXtXtXtXtX",
"tXtXtXtXtXtXtXtXtXtX, r G.F.H.P.N.m.1.6.6.6.8.q.q.q.0.X.@.X.o.o.X.X.| | U 5 tXtXtXtXtXtXtXtXtXtX",
"tXtXtXtXtXtXtXtXtXtX$ r G.F.J.I.M.4.K.K.P.B.8.8.7.q.0.@.9.@.X.X.9.| |  .Q 5 tXtXtXtXtXtXtXtXtXtX",
"tXtXtXtXtXtXtXtXtXtX* r F.J.J.S.4.L.L.L.L.P.B.B.b.7.' ' 9.q.9.9.9.9.^ / D.q - tXtXtXtXtXtXtXtXtX",
"tXtXtXtXtXtXtXtXtXtX$ r G.F.h S.4.I.I.L.I.L.C.B.b.y.e.e.' ' ' ' ~ ^ e.D.D.0 - tXtXtXtXtXtXtXtXtX",
"tXtXtXtXtXtXtXtXtXtX$ e G.h h v.4.I.I.I.I.I.C.b.b.b.y.e.e.e.e.e.r.r.2.D.D.q - tXtXtXtXtXtXtXtXtX",
"tXtXtXtXtXtXtXtXtXtX$ e r p h J.4.I.I.I.I.L.C.V.b.n.n.e.e.e.e.e.2.2.2.D.0 q $ tXtXtXtXtXtXtXtXtX",
"tXtXtXtXtXtXtXtXtXtXtX$ e 2 p J.J.4.I.L.I.S.C.N.b.n.n.n.e.e.n.w.2.2.#.#.q < tXtXtXtXtXtXtXtXtXtX",
"tXtXtXtXtXtXtXtXtXtXtXtX$ 2 2 h J.J.4.4.C.V.V.V.b.n.n.2.n.2.w.2.2.2.%.0 1 tXtXtXtXtXtXtXtXtXtXtX",
"tXtXtXtXtXtXtXtXtXtXtXtXtXtX1 u -.H.J.J.I.L.N.N.V.n.n.n.2.n.2.2.2.#.#.3 tXtXtXtXtXtXtXtXtXtXtXtX",
"tXtXtXtXtXtXtXtXtXtXtXtXtXtXtX2 $.-.F.P.P.B.B.B.N.v.5.5.t.5.5.3.*.*.0 < tXtXtXtXtXtXtXtXtXtXtXtX",
"tXtXtXtXtXtXtXtXtXtXtXtXtXtXtXtX2 $.-.;.P.t.g.g.t.t.v.>.>.>.5.1.1.6.q - tXtXtXtXtXtXtXtXtXtXtXtX",
"tXtXtXtXtXtXtXtXtXtXtXtXtXtXtXtXtX2 a ;.=.>.>.>.p.i.i.d.d.:.:.=.%.6 6 - tXtXtXtXtXtXtXtXtXtXtXtX",
"tXtXtXtXtXtXtXtXtXtXtXtXtXtXtXtXtXtXV ) ) f.f.s.:X:X:Xh.h.h.n ( ( a 1 tXtXtXtXtXtXtXtXtXtXtXtXtX",
"tXtXtXtXtXtXtXtXtXtXtXtXtXtXtXtXc B ) ) f.f.h.h.OXOXOXk.k.h.oXn ( 9 tXtXtXtXtXtXtXtXtXtXtXtXtXtX",
"tXtXtXtXtXtXtXtXtXtXtXtXtXtXtXtXc C ) _ f.j.h.k.:XOXoXoX&XoX^.n u.g tXtXtXtXtXtXtXtXtXtXtXtXtXtX",
"tXtXtXtXtXtXtXtXtXtXtXtXtXtXtXb m _ ,.d.j.j.k.-XOX@X@X@X&X^.^.R.R.u.d tXtXtXtXtXtXtXtXtXtXtXtXtX",
"tXtXtXtXtXtXtXtXtXtXtXtXtXtXtXM S ,.p.j.j.l.-X=XOX@X@X@X^.^.^.^.E.u.F 8 tXtXtXtXtXtXtXtXtXtXtXtX",
"tXtXtXtXtXtXtXtXtXtXtXtXtXtXM F 4.p.z.z.z.;X;X*X$X@X.X.X).(..X).T.E.4XF = tXtXtXtXtXtXtXtXtXtXtX",
"tXtXtXtXtXtXtXtXtXtXtXtXtXtXi Z.6XqX9XqXqXqX2X*X$XXX.X.X}.{.{.|.}.T.0X4XD & tXtXtXtXtXtXtXtXtXtX",
"tXtXtXtXtXtXtXtXtXtXtXtXtXi Z.6X7X7X9XqX9X8XrX*X#X#X.X|.|.{.|.{.}.T.0X4XD & tXtXtXtXtXtXtXtXtXtX",
"tXtXtXtXtXtXtXtXtXtXtXtX* c.5X6X1XqXrXqXrXrXwX>X#XXX|.|.{.{.{.|.}.T.0X4XF & tXtXtXtXtXtXtXtXtXtX",
"tXtXtXtXtXtXtXtXtXtXtXtX* H 5X5X1X7X1XrXrXeX3X%X#XXX|.|.{.{.{.{.`.Y.U.4XD % tXtXtXtXtXtXtXtXtXtX",
"tXtXtXtXtXtXtXtXtXtXtXtX* H 5X5X7X7X1XrXrXeXeX_.#XXX|.{.{.{.{.{.{.Y.U.A & tXtXtXtXtXtXtXtXtXtXtX",
"tXtXtXtXtXtXtXtXtXtXtXtXtXi G 5X5X7X7XeXeXeXeX_.XXXX|.{.!.{.!.!./.U.z = tXtXtXtXtXtXtXtXtXtXtXtX",
"tXtXtXtXtXtXtXtXtXtXtXtXtX* i c.,X7X7X9XeXeXW.#XXX|.|.{.!.!.!.!.U.l k tXtXtXtXtXtXtXtXtXtXtXtXtX",
"tXtXtXtXtXtXtXtXtXtXtXtXtXtXtXi N ,XZ.<X<X,X[.XX X X}.(.~.~.~.Y.l k tXtXtXtXtXtXtXtXtXtXtXtXtXtX",
"tXtXtXtXtXtXtXtXtXtXtXtXtXtXtXtXtXN A E.#XXX[.[.'.`.(.(.~.~.Y.l k tXtXtXtXtXtXtXtXtXtXtXtXtXtXtX",
"tXtXtXtXtXtXtXtXtXtXtXtXtXtXtXtXtXtXb Z E.]. X'.'.'.^.^.m m j j tXtXtXtXtXtXtXtXtXtXtXtXtXtXtXtX",
"tXtXtXtXtXtXtXtXtXtXtXtXtXtXtXtXtXtXtXb A Z Z '.'.'.C C B B j % tXtXtXtXtXtXtXtXtXtXtXtXtXtXtXtX",
"tXtXtXtXtXtXtXtXtXtXtXtXtXtXtXtXtXtX& = d g V v v v V V f 9 9 % + tXtXtXtXtXtXtXtXtXtXtXtXtXtXtX",
"tXtXtXtXtXtXtXtXtXtXtXtXtXtXtXtXtX+ # w p s f f 8 g f 9 9 p 2 # + tXtXtXtXtXtXtXtXtXtXtXtXtXtXtX",
"tXtXtXtXtXtXtXtXtXtXtXtXtXtXtXtXtXX o 7 6 t a a s a a a w 6 v.# + tXtXtXtXtXtXtXtXtXtXtXtXtXtXtX",
"tXtXtXtXtXtXtXtXtXtXtXtXtXtXtXtXtXX # &.6 w t a $.y y <.v.v.@ o X tXtXtXtXtXtXtXtXtXtXtXtXtXtXtX",
"tXtXtXtXtXtXtXtXtXtXtXtXtXtXtXtXtXX o $ &.M.M.S.M.S.<.1 , - @ o tXtXtXtXtXtXtXtXtXtXtXtXtXtXtXtX",
"tXtXtXtXtXtXtXtXtXtXtXtXtXtXtXtXtXtXo O , < 1 1 3 < < , - @ o tXtXtXtXtXtXtXtXtXtXtXtXtXtXtXtXtX",
"tXtXtXtXtXtXtXtXtXtXtXtXtXtXtXtXtXtXtXO - - < < < < - - tXtXtXtXtXtXtXtXtXtXtXtXtXtXtXtXtXtXtXtX"
};
