/* XPM */
static char *result[] = {
/* columns rows colors chars-per-pixel */
"59 67 229 2 ",
"   c #2D1B19",
".  c #271818",
"X  c #331E1C",
"o  c #3A1D18",
"O  c #3C231D",
"+  c #36201C",
"@  c #2C1E24",
"#  c #382525",
"$  c #392737",
"%  c #372B30",
"&  c #43261F",
"*  c #44281F",
"=  c #5E2E1B",
"-  c #672F1C",
";  c #732B1D",
":  c #6B331E",
">  c #64321D",
",  c #77331E",
"<  c #462B22",
"1  c #492925",
"2  c #572A29",
"3  c #4A3329",
"4  c #523429",
"5  c #5B3A2A",
"6  c #583428",
"7  c #483938",
"8  c #4A2F37",
"9  c #6C3623",
"0  c #613D2B",
"q  c #693627",
"w  c #733B23",
"e  c #773826",
"r  c #693733",
"t  c #743A35",
"y  c #6E2E28",
"u  c #6C191B",
"i  c #5F412E",
"p  c #66412C",
"a  c #6A442D",
"s  c #6F492E",
"d  c #734A2D",
"f  c #79462B",
"g  c #7D532F",
"h  c #6D4933",
"j  c #684533",
"k  c #734D33",
"l  c #744737",
"z  c #7C5334",
"x  c #775538",
"c  c #7E6437",
"v  c #2F3154",
"b  c #363357",
"n  c #3E2C42",
"m  c #393765",
"M  c #393A71",
"N  c #48334E",
"B  c #44365A",
"V  c #4D334A",
"C  c #6A3B44",
"Z  c #473867",
"A  c #48397A",
"S  c #583B6F",
"D  c #6F3E6A",
"F  c #755747",
"G  c #6C494F",
"H  c #6F635C",
"J  c #6E4468",
"K  c #6A6462",
"L  c #736A65",
"P  c #78736A",
"I  c #574560",
"U  c #8B1618",
"Y  c #961819",
"T  c #910F12",
"R  c #A91B1C",
"E  c #931C27",
"W  c #AC1E24",
"Q  c #9A2626",
"!  c #873826",
"~  c #963728",
"^  c #883A35",
"/  c #963937",
"(  c #8B2A29",
")  c #AA2524",
"_  c #B9282A",
"`  c #BB362C",
"'  c #AF2D37",
"]  c #8B211F",
"[  c #CA2A3D",
"{  c #C13636",
"}  c #844B2C",
"|  c #874734",
" . c #865933",
".. c #8F5230",
"X. c #A64B37",
"o. c #AA5434",
"O. c #896839",
"+. c #946537",
"@. c #92733B",
"#. c #A5683C",
"$. c #AF7E33",
"%. c #8D3C45",
"&. c #B2284E",
"*. c #BE3769",
"=. c #C82D44",
"-. c #D22E43",
";. c #CD3648",
":. c #D43345",
">. c #D93346",
",. c #D5354B",
"<. c #DB354C",
"1. c #D43A4B",
"2. c #DB3A4B",
"3. c #D33946",
"4. c #C7345A",
"5. c #DD3B52",
"6. c #D13553",
"7. c #C6366A",
"8. c #C5387A",
"9. c #8D5443",
"0. c #A94443",
"q. c #957945",
"w. c #8B704F",
"e. c #B67C43",
"r. c #B67E5D",
"t. c #8B7A6D",
"y. c #B67A76",
"u. c #AC7D71",
"i. c #DB434C",
"p. c #DA4659",
"a. c #CB434D",
"s. c #DC5465",
"d. c #DC4D61",
"f. c #E16567",
"g. c #DF6062",
"h. c #BB8A34",
"j. c #AE853D",
"k. c #C49335",
"l. c #CA9C34",
"z. c #CA9C3A",
"x. c #C49738",
"c. c #C08F33",
"v. c #CDA036",
"b. c #D2A435",
"n. c #D7AA36",
"m. c #D2A539",
"M. c #D5AB39",
"N. c #D9AD39",
"B. c #D9AD36",
"V. c #DDB336",
"C. c #DCB33A",
"Z. c #E4BC37",
"A. c #E4BD39",
"S. c #E0B736",
"D. c #E7C13B",
"F. c #9C8349",
"G. c #A3884B",
"H. c #AD934B",
"J. c #B99C57",
"K. c #AF914E",
"L. c #BEA15E",
"P. c #968B75",
"I. c #9B947B",
"U. c #858171",
"Y. c #A78B75",
"T. c #A7A07F",
"R. c #C78846",
"E. c #D4934C",
"W. c #CDA443",
"Q. c #D5AA41",
"!. c #DDB543",
"~. c #C5A55C",
"^. c #D3A65E",
"/. c #CFB25D",
"(. c #E2BC44",
"). c #C3A561",
"_. c #DBAC64",
"`. c #D8A761",
"'. c #DAB765",
"]. c #E4AB66",
"[. c #E3AD67",
"{. c #E2B169",
"}. c #CC9262",
"|. c #E6C243",
" X c #E8C647",
".X c #DBC365",
"XX c #E4CC65",
"oX c #E9D56C",
"OX c #EEDC72",
"+X c #F3E67A",
"@X c #F5E97E",
"#X c #F3E576",
"$X c #65438D",
"%X c #5D4185",
"&X c #4B4CDC",
"*X c #454ADB",
"=X c #554CDE",
"-X c #4E51DF",
";X c #6F4EDC",
":X c #484EE1",
">X c #4D52E4",
",X c #4F55E9",
"<X c #5253E4",
"1X c #5356EA",
"2X c #5B53E7",
"3X c #5A4FE1",
"4X c #6552E3",
"5X c #C43A86",
"6X c #A49E82",
"7X c #B5A98C",
"8X c #979289",
"9X c #D1BB9E",
"0X c #D0BDA0",
"qX c #F6EC82",
"wX c #F8EE85",
"eX c #F9EF88",
"rX c #F9F088",
"tX c #CEC7A7",
"yX c #DAD4B5",
"uX c #DDDABA",
"iX c #DAD7B6",
"pX c #D2CEAD",
"aX c #E4D2B5",
"sX c #E3DBBC",
"dX c #E5D6B9",
"fX c #E6CEB1",
"gX c #E4DFC0",
"hX c #E5E1C2",
"jX c None",
/* pixels */
"jXjXjXjXjXjXjXjXjXjXjXjXjXjXjXjXjXjXjXjXjXjXjXjXjXjXjXjXjXjXjXjXjXjXjXjXjXjXjXjXjXG.G.F.q.jXjXjXjXjXjXjXjXjXjXjXjXjXjX",
"jXjXjXjXjXjXjXjXjXjXjXjXjXjXjXjXjXjXjXjXjXjXjXjXjXjXjXjXjXjXjXjXjXjXjXjXjXjXjXG.G.H.H.K.w.9.x jXjXjXjXjXjXjXjXjXjXjXjX",
"jXjXjXjXjXjXjXjXjXjXjXjXjXjXjXjXjXjXjXjXjXjXjXjXjXjXjXjXjXjXjXjXjXjXjXjXjXF.G.K.H.L.OXoXq.O.x k jXjXjXjXjXjXjXjXjXjXjX",
"jXjXjXjXjXjXjXjXjXjXjXjXjXjXjXjXjXjXjXjXjXjXjXjXjXjXjXjXjXjXjXjXjXjXjXjXF.G.H.L.@X@X+X.XOXoX@.x k p jXjXjXjXjXjXjXjXjX",
"jXjXjXjXjXjXjXjXjXjXjXjXjXjXjXjXjXjXjXjXjXjXjXjXjXjXjXjXjXjXjXjXjXjXjXq.F.H.+XqX@XqX@X@X.X/.v.O.x s i jXjXjXjXjXjXjXjX",
"jXjXjXjXjXjXjXjXjXjXjXjXjXjXjXjXjXjXjXjXjXjXjXjXjXjXjXjXjXjXjXjXjXjX@.F.H.+X@XqXqXqXqXqXOXoXW.R.M.z d p jX6 3 jXjXjXjX",
"jXjXjXjXjXjXjXjXjXjXjXjXjXjXjXjXjXjXjXjXjXjXjXjXjXjXjXjXjXjXjXjXjX@.F.G.+XqXqXwXrXrXqX@XOXOXW.C.M.b.g d p i 6 < jXjXjX",
"jXjXjXjXjXjXjXjXjXjXjXjXjXjXjXjXjXjXjXjXjXjXjXjXjXjXjXjXjXjXjXjXjXq.F.+X@XqXwXrXrXrXqXoXoX.XQ.W.C.B.n.g @. .0 = 4 jXjX",
"jXjXjXjXjXjXjXjXjXjXjXjXjXjXjXjXjXjXjXjXjXjXjXjXjXjXjXjXjXjXjXjXw.F.H.#X@XrXrXrXrXrX@X#XXX!.|.W.S.V.n.l.g h. .5 6 jXjX",
"jXjXjXjXjXjXjXjXjXjXjXjXjXjXjXjXjXjXjXjXjXjXjXjXjXjXjXjXjXjXjXjX@.F.#X@X@XrXrXrXrX@X#X#XXX!.|.|.b.V.V.n.l.g @.p 5 jXjX",
"jXjXjXjXjXjXjXjXjXjXjXjXjXjXjXjXjXjXjXjXjXjXjXjXjXjXjXjXjXjXjXjX@.G.#X@XrXrXrX@XOX#X@XoX|. X XC.Z.S.S.V.l.l.g a jXjXjX",
"jXjXjXjXjXjXjXjXjXjXjXjXjXjXjXjXjXjXjXjXjXjXjXjXjXjXjXjXjXjXjXc q.G.#X@X@X@XrX#XOXoXoX X X XD.D.Z.Z.S.V.l.l. .g s jXjX",
"jXjXjXjXjXjXjXjXjXjXjXjXjXjXjXjXjXjXjXjXjXjXjXjXjXjXjXjXjXjXjX@.@.XXoX@X@XoX#X#X#X|.(. X X|.C.D.Z.Z.Z.S.b.v.l.} k jXjX",
"jXjXjXjXjXjXjXjXjXjXjXjXjXjXjXjXjXjXjXjXjXjXjXjXjXjXjXjXjXjXjXF @.XX/.oX.XXX#X@XXX(. X X X|.D.B.B.Z.S.S.n.k.l. .f s jX",
"jXjXjXjXjXjXjXjXjXjXjXjXjXjXjXjXjXjXjXjXjXjXjXjXjXjXjXjXjXjXjXjXj c XXoX.X.XXX.XC.!.!.|.D.D.D.B.n.n.Z.S.B.k.c.l. .k a ",
"jXjXjXjXjXjXjXjXjXjXjXjXjXjXjXjXjXjXjXjXjXjXjXjXjXjXjXjXjXjXjXjXi x c L.x.W.Q.|.|.|.Q.C.D.D.D.D.n.n.b.S.B.b.k.l. .k s ",
"jXjXjXjXjXjXjXjXjXjXjXjXjXjXjXjXjXjXjXjXjXjXjXjXjXjXjXjXjXjXjXjXjXj k O.H.W.C.|.(.A.D.D.B.D.D.Z.D.n.b.v.B.m.x.h.).z l ",
"jXjXjXjXjXjXjXjXjXjXjXjXjXjX; ; ; ; ; jXjXjXjXjXjXjXjXjXjXjXjXjXjXjXh x n.Q.v.V.A.A.A.Z.D.Z.D.D.D.Z.b.b.N.m.b.c. . .k ",
"jXjXjXjXjXjXjXjXjXjXjXjX; , T T T T T ; ; jXjXjXjXjXjXjXjXjXjXjXjXjXp x  .n.V.V.S.A.Z.Z.Z.Z.Z.Z.A.Z.V.v.z.M.m.x.).z l ",
"jXjXjXjXjXjXjXjXjXjXjXe U Y =.[ -.[ [ T Y , jXjXjXjXjXjXjXjXjXjXjXjXjXs z  .O.h.C.C.Z.b.Z.Z.Z.Z.Z.Z.N.B.z.m.z.).).x l ",
"jXjXjXjXjXjX.   o jXy Y Y =.-.-.-.-.-.=.=.Y e jXjXjXjXjXjXjXjXjXjXjXjXs d  .h.h.k.V.V.S.b.b.Z.Z.Z.N.N.N.m.m.v.).z k l ",
"jXjXjXjXjX. . X o 1 E Y 9X:.:.-.-.-.-.:.-.Q | jXjXi i 7 7 jXi % 7 4 j h d +.h.h.c.j.B.B.V.l.l.B.N.N.M.x.x.z.).z k h jX",
"jXjXjXjXjX.   + & 2 Y 9X:.,.<.<.<.<.,.1.6.6./ C G P P P P I L L K j h k +.h.h.h.h. .v.v.v.b.l.l.z.m.m.x.h.).L.k h 0 jX",
"jXjXjXjXjX. X # 1 2 tX9X3.<.<.<.<.5.<.p.p.d.t.t.U.6X6XT.U.U.t.8XF F l q.l.l.$.f g g  .l.l.l.v.h.k.k.v.l.).L.k a 0 jXjX",
"jXjXjXjXjXjXX # 1 2 9X:.,.<.<.5.5.5.5.p.s.u.u.7XyXyXyX7X7XpXpXH F F q.W.z.$.l a d s d d g l.l.l.l.x.L.~.k h j 5 jXjXjX",
"jXjXjXjXjXjX# 1 2 2 ;.:.,.,.<.5.<.5.p.d.s.y.7XyXyXdXuX7XiXiXiXI.t.F.W.Q.$.l h 0 jXjXp p a d J.L.k L.J.h a 5 5 jXjXjXjX",
"jXjXjXjXjXjXjX1 2 2 Q -.,.>.<.<.5.5.p.d.y.Y.aXdXuXgXhXhXuXuXyX8XY./.~.K.F h r jXjXjXjX6 5 0 p a a a 0 0 5 4 jXjXjXjXjX",
"jXjXjXjXjXjXjXjX6 r y ;.,.<.<.<.5.5.p.s.y.fXdXgX0XhXhXhXhXsXsX6XP._.K.F F j jXjXjXjXjXjXjX6 6 6 6 5 6 4 jXjXjXjXjXjXjX",
"jXjXjX< 3 3 4 5 r r e ) ,.:.<.<.5.5.d.y.y.fXdX9XhXhX0XhXhXgXuX6XI.P.w.F F H 3 jXjXjXjXjXjXjXjXjXjXjXjXjXjXjXjXjXjXjXjX",
"jXjX< f f f } } | ..t ^ 3.,.>.>.5.5.` ;.fXaXdXdXhX0XgXgXgXgXsXuXiXI.pXtXU.K % jXjXjXjXjXjXjXjXjXjXjXjXjXjXjXjXjXjXjXjX",
"jX3 f f ^.^.R.....^.X.t ) 3.2.2.5.[ [ d.g.fXdXdXgXgXgXgXgXsXuXiXiXP.pXtXP.K % jXjXjXjXjXjXjXjXjXjXjXjXjXjXjXjXjXjXjXjX",
"3 f } ^.^.`._.+.]._.o.X.^ _ 3.>.[ _ <.p.s.f.fXdXuXgXgXaXsXuXiXyXP.T.I.P.K H % jXjXjXjXjXjXjXjXjXjXjXjXjXjXjXjXjXjXjXjX",
"4 f g `._._.+._._.].o.o.o.~ _ _ [ <.5.p.d.s.f.f.aXaXaXaXyX7XY.P.I.I.I.K K % jXjXjXjXjXjXjXjXjXjXjXjXjXjXjXjXjXjXjXjXjX",
"4 f } `.`.+.E._.{.#.].].].o._ _ >.<.<.5.5.d.s.g.g.u.u.Y.P.t.0.9.P P L K % jXjXjXjXjXjXjXjXjXjXjXjXjXjXjXjXjXjXjXjXjXjX",
"3 f g R.h x ].#.#.{.].].].E._ >.>.>.<.<.5.5.i.X.&.X.0.0.&.X./ / L H 7 % jXjXjXjXjXjXjXjXjXjXjXjXjXjXjXjXjXjXjXjXjXjXjX",
"< w f i j x ].q.#.{.].].].{ { >.2.>.>.<.2.5.) ` p.a.a./ | ( ( ( 3 % jXjXjXjXjXjXjXjXjXjXjXjXjXjXjXjXjXjXjXjXjXjXjXjXjX",
"jX3 s 5 j h _.+.#.{.{.[.E.{ i.i.>.>.>.>.[ _ R 3.3.3.Q } } U t q jXjXjXjXjXjXjXjXjXjXjXjXjXjXjXjXjXjXjXjXjXjXjXjXjXjXjX",
"jXjX< 3 5 a _._.#.{.].].` i.i.i.>.>.>.[ R R R R Q Y Y e U 9 jXjXjXjXjXjXjXjXjXjXjXjXjXjXjXjXjXjXjXjXjXjXjXjXjXjXjXjXjX",
"jXjXjX3 6 0 `.`.#.E.].` ` i.2.2.i.[ >.R ~ ~ ! ! ! ! ! ; ; jXjXjXjXjXjXjXjXjXjXjXjXjXjXjXjXjXjXjXjXjXjXjXjXjXjXjXjXjXjX",
"jXjXjXjX1 } k.`.].#.E.` i.i.2.>.>.[ R ) ~ ~ ] ! ! }.; & jXjXjXjXjXjXjXjXjXjXjXjXjXjXjXjXjXjXjXjXjXjXjXjXjXjXjXjXjXjXjX",
"jXjXjXjX< f } ^.].`._ ` i.1.<.,.>.R ~ ~ ~ ! , ! , , - o jXjXjXjXjXjXjXjXjXjXjXjXjXjXjXjXjXjXjXjXjXjXjXjXjXjXjXjXjXjXjX",
"jXjXjXjXjX1 ! | R.R._ 2.2.1.,.,.W ~ / ! ! ! , , , ; - o jXjXjXjXjXjXjXjXjXjXjXjXjXjXjXjXjXjXjXjXjXjXjXjXjXjXjXjXjXjXjX",
"jXjXjXjXjXjX2 ! | ) ,.<.1.,.,.W ~ / ! ! ! ! , , : & o jXjXjXjXjXjXjXjXjXjXjXjXjXjXjXjXjXjXjXjXjXjXjXjXjXjXjXjXjXjXjXjX",
"jXjXjXjXjXjXjXq y W ,.6.,.6.W %./ / | ! e w , : > jXjXjXjXjXjXjXjXjXjXjXjXjXjXjXjXjXjXjXjXjXjXjXjXjXjXjXjXjXjXjXjXjXjX",
"jXjXjXjXjXjXjXC E ,.6.6.4.&.%.%.%.9.*.C e q 9 : > jXjXjXjXjXjXjXjXjXjXjXjXjXjXjXjXjXjXjXjXjXjXjXjXjXjXjXjXjXjXjXjXjXjX",
"jXjXjXjXjXjXV =.E 6.4.6.&.%.;XD D 4.&.C ] U u - jXjXjXjXjXjXjXjXjXjXjXjXjXjXjXjXjXjXjXjXjXjXjXjXjXjXjXjXjXjXjXjXjXjXjX",
"jXjXjXjXjXjXV =.6.4.4.7.7.D ;X;XS *.*.V B U y jXjXjXjXjXjXjXjXjXjXjXjXjXjXjXjXjXjXjXjXjXjXjXjXjXjXjXjXjXjXjXjXjXjXjXjX",
"jXjXjXjXjXN V &.4.7.8.8.8.$X4X4X4XS *.S B r jXjXjXjXjXjXjXjXjXjXjXjXjXjXjXjXjXjXjXjXjXjXjXjXjXjXjXjXjXjXjXjXjXjXjXjXjX",
"jXjXjXjXjXB B S 4.8.5X5X$X4X4X4X3X3XA Z B N jXjXjXjXjXjXjXjXjXjXjXjXjXjXjXjXjXjXjXjXjXjXjXjXjXjXjXjXjXjXjXjXjXjXjXjXjX",
"jXjXjXjXjXb Z =XS %X$X$X2X2X2X2X<X3X<X&XZ b jXjXjXjXjXjXjXjXjXjXjXjXjXjXjXjXjXjXjXjXjXjXjXjXjXjXjXjXjXjXjXjXjXjXjXjXjX",
"jXjXjXjXb B *X:X3X3X2X2X2X2X2X1X<X<X&X&Xm b jXjXjXjXjXjXjXjXjXjXjXjXjXjXjXjXjXjXjXjXjXjXjXjXjXjXjXjXjXjXjXjXjXjXjXjXjX",
"jXjXjXjXb m *X:X3X2X2X2X2X1X1X1X<X<X:X&XZ b jXjXjXjXjXjXjXjXjXjXjXjXjXjXjXjXjXjXjXjXjXjXjXjXjXjXjXjXjXjXjXjXjXjXjXjXjX",
"jXjXjXjXb m *X:X>X,X,X1X1X1X1X1X<X>X:X&Xm v jXjXjXjXjXjXjXjXjXjXjXjXjXjXjXjXjXjXjXjXjXjXjXjXjXjXjXjXjXjXjXjXjXjXjXjXjX",
"jXjXjXjXb M *X:X:X,X,X,X1X1X,X1X>X=X&X&Xm n $ @ jXjXjXjXjXjXjXjXjXjXjXjXjXjXjXjXjXjXjXjXjXjXjXjXjXjXjXjXjXjXjXjXjXjXjX",
"jXjXjXjXv m *X*X:X,X>X,X,X>X1XA Z Z B *Xn $ @ @   jXjXjXjXjXjXjXjXjXjXjXjXjXjXjXjXjXjXjXjXjXjXjXjXjXjXjXjXjXjXjXjXjXjX",
"jXjXjXjXjXb M *X:X:X>X>X>X,XA D D u.N N r r q X   jXjXjXjXjXjXjXjXjXjXjXjXjXjXjXjXjXjXjXjXjXjXjXjXjXjXjXjXjXjXjXjXjXjX",
"jXjXjXjXjXv v M *X*X:X-X-XZ J J y.G t 8 r r 6 X X jXjXjXjXjXjXjXjXjXjXjXjXjXjXjXjXjXjXjXjXjXjXjXjXjXjXjXjXjXjXjXjXjXjX",
"jXjXjXjXjXjXv m M M *X&X-XB C G r.l t 8 q q q + X jXjXjXjXjXjXjXjXjXjXjXjXjXjXjXjXjXjXjXjXjXjXjXjXjXjXjXjXjXjXjXjXjXjX",
"jXjXjXjXjXjXjXv v m m Z N N C G t 8 4 4 9 1 # O X   jXjXjXjXjXjXjXjXjXjXjXjXjXjXjXjXjXjXjXjXjXjXjXjXjXjXjXjXjXjXjXjXjX",
"jXjXjXjXjXjXjXjXjXb b b $ 8 t ^ f e e w 1 9 : > X   jXjXjXjXjXjXjXjXjXjXjXjXjXjXjXjXjXjXjXjXjXjXjXjXjXjXjXjXjXjXjXjXjX",
"jXjXjXjXjXjXjXjXjXjXjX$ 8 r t e.f w w f w * > > =   . jXjXjXjXjXjXjXjXjXjXjXjXjXjXjXjXjXjXjXjXjXjXjXjXjXjXjXjXjXjXjXjX",
"jXjXjXjXjXjXjXjXjXjXjX# # q w e., f w , : * : > =     jXjXjXjXjXjXjXjXjXjXjXjXjXjXjXjXjXjXjXjXjXjXjXjXjXjXjXjXjXjXjXjX",
"jXjXjXjXjXjXjXjXjXjXjX# # 9 q K.w w w w : < > > =   . jXjXjXjXjXjXjXjXjXjXjXjXjXjXjXjXjXjXjXjXjXjXjXjXjXjXjXjXjXjXjXjX",
"jXjXjXjXjXjXjXjXjXjXjX+ + : 9 , j.w w w : * > = +   . jXjXjXjXjXjXjXjXjXjXjXjXjXjXjXjXjXjXjXjXjXjXjXjXjXjXjXjXjXjXjXjX",
"jXjXjXjXjXjXjXjXjXjXjX  # O : 9 w , w : < O O +   . jXjXjXjXjXjXjXjXjXjXjXjXjXjXjXjXjXjXjXjXjXjXjXjXjXjXjXjXjXjXjXjXjX",
"jXjXjXjXjXjXjXjXjXjXjXjXX O O < * < < * O O o X   jXjXjXjXjXjXjXjXjXjXjXjXjXjXjXjXjXjXjXjXjXjXjXjXjXjXjXjXjXjXjXjXjXjX",
"jXjXjXjXjXjXjXjXjXjXjXjXjX+ O O * * * O jXjXjXjXjXjXjXjXjXjXjXjXjXjXjXjXjXjXjXjXjXjXjXjXjXjXjXjXjXjXjXjXjXjXjXjXjXjXjX"
};
