/* XPM */
static char *result[] = {
/* columns rows colors chars-per-pixel */
"48 51 216 2 ",
"   c #290C0B",
".  c #380D0E",
"X  c #2C110E",
"o  c #33150F",
"O  c #3A160F",
"+  c #2D1316",
"@  c #3C1C11",
"#  c #351816",
"$  c #3E2415",
"%  c #351A2B",
"&  c #36252C",
"*  c #3F312D",
"=  c #392638",
"-  c #441E11",
";  c #481311",
":  c #521512",
">  c #442313",
",  c #4A2313",
"<  c #4E2813",
"1  c #472819",
"2  c #5A2A19",
"3  c #54331E",
"4  c #6B2309",
"5  c #762408",
"6  c #722507",
"7  c #652B19",
"8  c #663218",
"9  c #773710",
"0  c #54352F",
"q  c #683928",
"w  c #7A430C",
"e  c #77440B",
"r  c #6F4518",
"t  c #744B12",
"y  c #75441A",
"u  c #784A16",
"i  c #774D15",
"p  c #4E433B",
"a  c #6A4626",
"s  c #744524",
"d  c #72432B",
"f  c #6D4435",
"g  c #734534",
"h  c #70483A",
"j  c #725429",
"k  c #361D4B",
"l  c #312140",
"z  c #2D2A6B",
"x  c #312D79",
"c  c #363579",
"v  c #4C2C51",
"b  c #4B314C",
"n  c #623854",
"m  c #553C78",
"M  c #653967",
"N  c #564851",
"B  c #6C444A",
"V  c #724642",
"C  c #6D4758",
"Z  c #4C437A",
"A  c #504D6C",
"S  c #675265",
"D  c #5E6662",
"F  c #6E7662",
"G  c #6E736B",
"H  c #930F0A",
"J  c #9A170B",
"K  c #8F120A",
"L  c #A41E0C",
"P  c #AC1F0E",
"I  c #9C240D",
"U  c #843309",
"Y  c #8B340A",
"T  c #98360C",
"R  c #81351D",
"E  c #AB200E",
"W  c #B3210F",
"Q  c #B62011",
"!  c #B83917",
"~  c #A52F12",
"^  c #893E21",
"/  c #97332F",
"(  c #A63726",
")  c #AB3B32",
"_  c #C72318",
"`  c #C33D18",
"'  c #D1261D",
"]  c #DC2F2E",
"[  c #DB322E",
"{  c #DE2F31",
"}  c #DD3332",
"|  c #DC3B33",
" . c #E33235",
".. c #E53C36",
"X. c #E63439",
"o. c #E9343B",
"O. c #E43B3A",
"+. c #E93A3C",
"@. c #844B0E",
"#. c #88541B",
"$. c #94581E",
"%. c #8F4C16",
"&. c #99641C",
"*. c #B7771F",
"=. c #A76D1E",
"-. c #974828",
";. c #855E28",
":. c #9A5626",
">. c #915130",
",. c #A45634",
"<. c #A44B30",
"1. c #A8732C",
"2. c #BD7B23",
"3. c #B97727",
"4. c #A97830",
"5. c #B16C2A",
"6. c #C6421E",
"7. c #C64824",
"8. c #E44436",
"9. c #E5443B",
"0. c #E64A3D",
"q. c #E8413C",
"w. c #C37D23",
"e. c #CA7C24",
"r. c #C87B27",
"t. c #C27F35",
"y. c #D07E2E",
"u. c #8A3249",
"i. c #9B5644",
"p. c #AC5547",
"a. c #BE7C42",
"s. c #9A6E6E",
"d. c #DB4B58",
"f. c #DB4B50",
"g. c #C17E42",
"h. c #D94867",
"j. c #DD5766",
"k. c #D74876",
"l. c #DE5A77",
"z. c #E06C79",
"x. c #DD6B6B",
"c. c #7A8373",
"v. c #BD8B3C",
"b. c #CC852B",
"n. c #C68529",
"m. c #C48835",
"M. c #C38339",
"N. c #C58B37",
"B. c #D08834",
"V. c #CA9339",
"C. c #D09337",
"Z. c #848777",
"A. c #C39040",
"S. c #D9AB66",
"D. c #DAB26D",
"F. c #D7B06A",
"G. c #DDB571",
"H. c #DEB974",
"J. c #E3BB76",
"K. c #E5BE7A",
"L. c #E4B875",
"P. c #E6C17B",
"I. c #E7C077",
"U. c #383687",
"Y. c #38338B",
"T. c #463F94",
"R. c #4F378B",
"E. c #4D478A",
"W. c #7C7CAE",
"Q. c #3E3BED",
"!. c #3F3BF0",
"~. c #4239EE",
"^. c #573EED",
"/. c #423EF2",
"(. c #4C3FF2",
"). c #523FF1",
"_. c #7A78C6",
"`. c #4A43EE",
"'. c #5144EC",
"]. c #5549EB",
"[. c #4443F5",
"{. c #4B44F4",
"}. c #4C49F6",
"|. c #534CF4",
" X c #5645F4",
".X c #5A55F6",
"XX c #5B55EE",
"oX c #6A49EB",
"OX c #7849EC",
"+X c #7C52EB",
"@X c #6547F2",
"#X c #665CF5",
"$X c #7453F1",
"%X c #6B67F0",
"&X c #8F79AF",
"*X c #937399",
"=X c #D64A8A",
"-X c #DE658A",
";X c #877AC1",
":X c #8251E7",
">X c #818A8F",
",X c #B3B0AD",
"<X c #9F8BA7",
"1X c #A79FCC",
"2X c #C7C6CA",
"3X c #D4D3CC",
"4X c #DAD5CE",
"5X c #DBD6D4",
"6X c #D7D6DB",
"7X c #DCD7D9",
"8X c #C3C2D2",
"9X c #E1D7D7",
"0X c #D4D3E4",
"qX c #DBD6E1",
"wX c #D0CFE7",
"eX c None",
/* pixels */
"eXeXeXeXeXeXeXeXeXeXeXeXeXeXeXeXeXeXeXeXeXeXT T T T T Y eXeXeXeXeXeXeXeXeXeXeXeXeXeXeXeXeXeXeXeX",
"eXeXeXeXeXeXeXeXeXeXeXeXeXeXeXeXeXeXeXeXY T P W Q Q W L Y eXeXeXeXeXeXeXeXeXeXeXeXeXeXeXeXeXeXeX",
"eXeXeXeXeXeXeXeXeXeXeXeXeXeXeXeXeXeXeXY L P Q {  . .] W L U eXeXeXeXeXeXeXeXeXeXeXeXeXeXeXeXeXeX",
"eXeXeXeXeXeXeXeXeXeXeXeXeXeXeXeXeXeX9 L W { {  . . . .] P L U eXeXeXeXeXeXeXeXeXeXeXeXeXeXeXeXeX",
"eXeXeXeXeXeXeXeXeXeXeXeXeXeXeXeXeX5 H P {  . .X. .X.X.{ { L U eXeXeXeXeXeXeXeXeXeXeXeXeXeXeXeXeX",
"eXeXeXeXeXeXeXeXeXeXeXeXeXeXeXeXeXU L ] }  .X.o.o.o.X.{ { ] J 5 eXeXeXeXeXeXeXeXeXeXeXeXeXeXeXeX",
"eXeXeXeXeXeXeXeXeXeXeXeXeXeXeXeX5 L P {  . .X.o.o.o.X. .{ { E K ; .     eXeXeXeXeXeXeXeXeXeXeXeX",
"eXeXeXeXeXeXeXeXeXeXeXeXeXeXeX6 H P ] {  .X.o.o.o.o.o.X. .} L H ; ;       eXeXeXeXeXeXeXeXeXeXeX",
"eXeXeXeXeXeXeXeXeXeXeXeXeXeXeXU L ] {  .o.o.o.o.o.o.o.X.} } { J : ; .     eXeXeXeXeXeXeXeXeXeXeX",
"eXeXeXeXeXeXeXeXeXeXeXeXeXeXeXY P {  . .o.o.o.o.o.o.o.o.X.} } I 4 ; o X eXeXeXeXeXeXeXeXeXeXeXeX",
"eXeXeXeXeXeXeXeXeXeXeXeXeX5 U T W { { o.o.o.o.o.o.o.o.o.o.} | 7 : : - eXeXeXeXeXeXeXeXeXeXeXeXeX",
"eXeXeXeXeXeXeXeXeXeXeXeX6 H L W Q _ _ ' o.o.o.o.o.+.+.+.O.} R 7 2 eXeXeXeXeXeXeXeXeXeXeXeXeXeXeX",
"eXeXeXeXeXeXeXeXeXeXeX4 H L ] { {  .X.X.' ' +.+.+.+.O...f.^ ^ q 8 2 < > eXeXeXeXeXeXeXeXeXeXeXeX",
"eXeXeXeXeXeXeXeXeXeX4 K I [ [ }  .X.X.o.o.+.+.+.q.q.0.8.( %.r.$.#.#.i i 1 eXeXeXeXeXeXeXeXeXeXeX",
"eXeXeXeXeXeXeXeXeXeX6 I [ [ .. ...o.X.o.O.+.q.q.0.0.9.<.-.t.t.3.&.F.D.i i $ eXeXeXeXeXeXeXeXeXeX",
"eXeXeXeXeXeXeXeXeXeX9 ~ [ | | ......o...O.+.q.q.0.7.<.5.5.5.M.m.H.H.G.F.i $ eXeXeXeXeXeXeXeXeXeX",
"eXeXeXeXeXeXeXeXeXeX4 E | | ..........8.q.8.0.6.7.7.B.L.L.L.3.V.I.H.G.F.i 1 eXeXeXeXeXeXeXeXeXeX",
"eXeXeXeXeXeXeXeXeX- w S.~ ! 8...8.8.8.8.` ` 6.y.B.B.L.K.K.K.K.4.v.I.G.F.i $ eXeXeXeXeXeXeXeXeXeX",
"eXeXeXeXeXeXeXeXeX- w S.S.*.! ` ` ` 6.` e.e.b.b.B.C.L.I.P.P.K.4.v.j D.F.i $ eXeXeXeXeXeXeXeXeXeX",
"eXeXeXeXeXeXeXeXeX> 9 S.S.2.*.e.e.e.e.e.e.e.b.C.B.C.I.I.P.P.K.4.v.j j F.i $ eXeXeXeXeXeXeXeXeXeX",
"eXeXeXeXeXeXeXeXeX- e w S.*.w.w.e.w.e.n.e.n.b.b.C.V.I.P.P.P.P.4.H.j a i t $ eXeXeXeXeXeXeXeXeXeX",
"eXeXeXeXeXeXeXeXeXeX> w @.%.*.w.w.w.w.w.n.n.n.n.C.V.C.P.P.P.4.H.H.a 3 t $ eXeXeXeXeXeXeXeXeXeXeX",
"eXeXeXeXeXeXeXeXeXeXeX< @.%.*.*.*.w.w.n.w.n.n.n.m.C.V.V.4.1.H.G.j 3 1 $ eXeXeXeXeXeXeXeXeXeXeXeX",
"eXeXeXeXeXeXeXeXeXeXeXeX< w @.*.*.w.n.*.n.n.n.n.m.N.J.J.L.H.G.;.i 3 eXeXeXeXeXeXeXeXeXeXeXeXeXeX",
"eXeXeXeXeXeXeXeXeXeXeXeX1 w =.*.3.t.3.3.t.t.t.B.m.m.N.L.H.G.#.#.0 eXeXeXeXeXeXeXeXeXeXeXeXeXeXeX",
"eXeXeXeXeXeXeXeXeXeXeXeX- e =.5.3.4.,.>.,.g.g.g.t.M.t.L.:.$.#.3 eXeXeXeXeXeXeXeXeXeXeXeXeXeXeXeX",
"eXeXeXeXeXeXeXeXeXeXeXeX# 8 y #.>.>.>.d.d.i.i.p.,.,.:.:.$.s 2 eXeXeXeXeXeXeXeXeXeXeXeXeXeXeXeXeX",
"eXeXeXeXeXeXeXeXeXeXeXeXeX1 9 / / M h.h.h.+X:X:Xs.d.f.) ( C eXeXeXeXeXeXeXeXeXeXeXeXeXeXeXeXeXeX",
"eXeXeXeXeXeXeXeXeXeXeXeXeXeXd / m oXk.k.=XOXOX:Xh.h.f.f.( ( n b eXeXeXeXeXeXeXeXeXeXeXeXeXeXeXeX",
"eXeXeXeXeXeXeXeXeXeXeXeXeXeXf u.m ^.oX=X@XOXOXOXk.h.d.d.) ( B b eXeXeXeXeXeXeXeXeXeXeXeXeXeXeXeX",
"eXeXeXeXeXeXeXeXeXeXeXeXeXf u.R.R.).'.=X@X@XOX:X=Xj.j.d.d.) / N b eXeXeXeXeXeXeXeXeXeXeXeXeXeXeX",
"eXeXeXeXeXeXeXeXeXeXeXeX0 D u.R.).).).).^.@X@X:X*X=Xz.l.j.p.<.S N eXeXeXeXeXeXeXeXeXeXeXeXeXeXeX",
"eXeXeXeXeXeXeXeXeXeXeX* D 2XE.E.{.{.{.(. X X@X#X&X-X-X-Xz.x.p.p.D N eXeXeXeXeXeXeXeXeXeXeXeXeXeX",
"eXeXeXeXeXeXeXeXeXeX& D 2X8XT.{.}.}.{.(. X X@X$X&X<X9X9X9X5X9X4XZ.p eXeXeXeXeXeXeXeXeXeXeXeXeXeX",
"eXeXeXeXeXeXeXeXeXeX& D 8X8XT.}.}.[.[.[.}. X#X#X&XqX9XqX7X9X4X4X3Xc.p eXeXeXeXeXeXeXeXeXeXeXeXeX",
"eXeXeXeXeXeXeXeXeXeX& D 2X8XE.{.}.[.[.[.}.}..X#X;X0XqXqX7X9X5X,X3X3XF 0 eXeXeXeXeXeXeXeXeXeXeXeX",
"eXeXeXeXeXeXeXeXeXeX& A 8XE.Y.[.[.[.[./.[.}..X#X%X1XqXqXqX,X5X,X3X3XF * eXeXeXeXeXeXeXeXeXeXeXeX",
"eXeXeXeXeXeXeXeXeXeXeX= A c U.`.[.[.[./.[.}..X#X;XwXqXqXqX,X6X4X3X3XF * eXeXeXeXeXeXeXeXeXeXeXeX",
"eXeXeXeXeXeXeXeXeXeXeXeX= x U.Q.!./.[.[.[.}..X.X_.wX0X0X0X6X5X6X3Xc.* eXeXeXeXeXeXeXeXeXeXeXeXeX",
"eXeXeXeXeXeXeXeXeXeXeXeXeXz x U.!.!./.[.[.}.|..X#X_.wX6XqX6X3XZ.c.p * eXeXeXeXeXeXeXeXeXeXeXeXeX",
"eXeXeXeXeXeXeXeXeXeXeXeXeXeXz x Y.Q.!.!.~./.}.|.XX#XW.>X>X>Xc.N p eXeXeXeXeXeXeXeXeXeXeXeXeXeXeX",
"eXeXeXeXeXeXeXeXeXeXeXeXeXeXeXz x Y.Q.!.(.(.`.|.|.XXXX%XD A N eXeXeXeXeXeXeXeXeXeXeXeXeXeXeXeXeX",
"eXeXeXeXeXeXeXeXeXeXeXeXeXeXeXeXk k n M (. X].'.].].].Z Z Z eXeXeXeXeXeXeXeXeXeXeXeXeXeXeXeXeXeX",
"eXeXeXeXeXeXeXeXeXeXeXeXeXeXeXeX% 0 n C n C ].^.`.Z Z c 0 eXeXeXeXeXeXeXeXeXeXeXeXeXeXeXeXeXeXeX",
"eXeXeXeXeXeXeXeXeXeXeXeXeXeXeX+ % q q q V B v v b h h f 0 % eXeXeXeXeXeXeXeXeXeXeXeXeXeXeXeXeXeX",
"eXeXeXeXeXeXeXeXeXeXeXeXeXeXeX+ # 2 q a g g h 0 h g a a 3 # + eXeXeXeXeXeXeXeXeXeXeXeXeXeXeXeXeX",
"eXeXeXeXeXeXeXeXeXeXeXeXeXeXeX+ # v.8 q y s s d s s y 8 2 # X eXeXeXeXeXeXeXeXeXeXeXeXeXeXeXeXeX",
"eXeXeXeXeXeXeXeXeXeXeXeXeXeXeXX o @ m.A.=.y u y y y r 8 &.# X eXeXeXeXeXeXeXeXeXeXeXeXeXeXeXeXeX",
"eXeXeXeXeXeXeXeXeXeXeXeXeXeXeXeXo @ - > 1 =.A.A.A.A.N.&.@ # X eXeXeXeXeXeXeXeXeXeXeXeXeXeXeXeXeX",
"eXeXeXeXeXeXeXeXeXeXeXeXeXeXeXeXeXo @ - - , , < < , , > O o eXeXeXeXeXeXeXeXeXeXeXeXeXeXeXeXeXeX",
"eXeXeXeXeXeXeXeXeXeXeXeXeXeXeXeXeXeXeXeX- , , , - , - - O eXeXeXeXeXeXeXeXeXeXeXeXeXeXeXeXeXeXeX"
};
