/* XPM */
static char *result[] = {
/* columns rows colors chars-per-pixel */
"48 48 38 1 ",
"  c #08C608",
". c #00C600",
"X c #00BD00",
"o c #00B500",
"O c #08C600",
"+ c #08BD08",
"@ c #08BD00",
"# c #482010",
"$ c #10CE08",
"% c #10C608",
"& c #600000",
"* c #21CE18",
"= c #18C610",
"- c #A81828",
"; c #18CE10",
": c gray69",
"> c #29D621",
", c #00CE00",
"< c #31D621",
"1 c #39D629",
"2 c #181010",
"3 c #29CE18",
"4 c #B88858",
"5 c #A06830",
"6 c #21CE10",
"7 c #10BD08",
"8 c #08B500",
"9 c #21BD10",
"0 c #10B508",
"q c #10D608",
"w c #08CE00",
"e c #39DE29",
"r c #202028",
"t c #2830C8",
"y c #C09830",
"u c gray25",
"i c #686868",
"p c #08AD08",
/* pixels */
" .XXXXoXXO.+@XX@XXXX..####X...XX .XXXXoXXO.+@XX@",
"XX.XXXXX.$%.XXXXoooX##&&&&###XoXXX.XXXXX.$%.XXXX",
"o..XXOX*==.XXX@XXoX#&&----&&&#XXo..XXOX*==.XXX@X",
"X.X.$$***.; ..XXXX#&-:::----&&#.X.X.$$***.; ..XX",
". .;**>*O*>,..XXXX#&:::&:----&&#. .;**>*O*>,..XX",
" ;*<;1< $<$....Xo#&::&&&::----&&#;*<;1< $<$....X",
";;<**<;.>*...2222&&::&&&::-----&#;<**<;.>*.....X",
";;>;33X=>...22222222:&:&:-------&#>;33X=>...XXXo",
"$*;;3.@*%XXXoo22222222::--------&#;;3.@*%XXXoooo",
"O;,;$XXXXXXXoooo22222222&--------&#;$XXXXXXXoooo",
" ,..XXoXX@XoooXXo2#4442222&------&#.XXoXX@XoooXX",
".X.X.XXXX@Xooo@oo2#24444222&------&##XXXX@Xooo@o",
"XXX@=X+@@@ooo22222224452#4222&----&&&#+@@@ooo@@o",
"X.@6%@=X@Xoo2##55#2544#2#44422&---&--&#X@XooX78o",
"X.96X9+X@oo2##4444#4442254444522&-----&#@ooo0@X0",
".@=@0=X@@oX2#444444444224444444#2&----&#@oX00X@=",
"X8X87@X@8oX2#444444444##44444444#2&---&#8oX0@X=.",
"XXo8XX.@@.X2#5444444444444444#####22##&#@.X@X%+X",
"XXXXXX@9*X@@2#444444444444444####4444#2#*X@@%%++",
".XXXXX%>Oo+%%2#544444444224444##444444#2Oo+%%+%=",
"$.XoXO>$X%%%+O22#54442222224444444##44#2X%%%+O=;",
"q,XXX6;X%=++%$2222222222222444444#4444#2%=++%$6%",
"wX O++X =@@% *%2222222222244444444444#2 =@@% *%X",
".;e==XX=@@+@%@+=2222222244444444444###2=@@+@%@+=",
"*e$=XX=.X@XX.+=$@%2#44444444445#####22=.X@XX.+=$",
"e.=1 %%XXXX.+% %==@2##4444455##22222 %%XXXX.+% %",
", e*=%%+XX.+@+%=%+X@r########22*, e*=%%+XX.+@+%=",
" <*$% =XXX.X@%% %%@rr&&--rttr&#. <*$% =XXX.X@%% ",
";* =O=.XXXXX%%%=%%rr&---rtttr-&#;* =O=.XXXXX%%%=",
"$;*%%=XXXX.O+%%%@rr&---rtttr---&#;*%%=XXXX.O+%%%",
"$*;.O..XX.O.X@%+rrrrrrrttttr----&#;.O..XX.O.X@%+",
"*;.X..XXX..X@@.##ytttttttttr----&&#X..XXX..X@@.%",
" .XXXXoXXO.222##yyttttyy#ttt&----&u2XXoXXO.+@XX@",
"XX.XXXXX.$222222rytttyyyyttu:::::::u2XXX.$%.XXXX",
"o..XXOX*=222#####rtttyyyytuu:::::::u22X*==.XXX@X",
"X.X.$$***22#######rtttyy#tu::::::i::u2***.; ..XX",
". .;**>*O225######rtttttttu::::i:i::u22*O*>,..XX",
" ;*<;1< $22#5#####rtttttttu::::i::::u22 $<$....X",
";;<**<;.>22#######rtttttttuui::::::uu22.>*.....X",
";;>;33X=>.22#####2rrtttttttuu::::iuu#22=>...XXXo",
"$*;;3.@*%X22#5222##rttttttttuuuuuuu2##22%XXXoooo",
"O;,;$XXXXX222#######rrtttttttttrr#####22XXXXoooo",
" ,..XXoXX@X22#######2rrrrrrrrrrr######22X@XoooXX",
".X.X.XXXX@X22#5####22rrrrrrrrr22######22X@Xooo@o",
"XXX@=X+@@@o222####22X8ooXoXX%$22#####22@@@ooo@@o",
"X.@6%@=X@Xoo2222222X88o8X88.=.222###222X@XooX78o",
"X.96X9+X@ooo022222o88ooXX8X =X$2222222+X@ooo0@X0",
".@=@0=X@@oX00X@=Xo8ooopXo8.=.+3@22222=X@@oX00X@="
};
