/* XPM */
static char *result[] = {
/* columns rows colors chars-per-pixel */
"48 48 31 1 ",
"  c #08C608",
". c #00C600",
"X c #00BD00",
"o c #00B500",
"O c #08C600",
"+ c #08BD08",
"@ c #08BD00",
"# c #00CE00",
"$ c #10CE08",
"% c #10C608",
"& c #21CE18",
"* c #18C610",
"= c #18CE10",
"- c #29D621",
"; c #31D621",
": c #39D629",
"> c #29CE18",
", c #10D608",
"< c #08CE00",
"1 c #08B500",
"2 c #5A4229",
"3 c #21CE10",
"4 c #10BD08",
"5 c #10B508",
"6 c #21BD10",
"7 c #18BD10",
"8 c #FFF729",
"9 c #EFAD10",
"0 c #9C8C18",
"q c #39DE29",
"w c #08AD08",
/* pixels */
" .XXXXoXXO.+@XX@XXXX...#.XX...XX .XXXXoXXO.+@XX@",
"XX.XXXXX.$%.XXXXoooXX.#.X...XXoXXX.XXXXX.$%.XXXX",
"o..XXOX&**.XXX@XXoXXo.#X.OX.XXXXo..XXOX&**.XXX@X",
"X.X.$$&&&.= ..XXXXXXX... ..X%X .X.X.$$&&&.= ..XX",
". .=&&-&O&-#..XXXXXX... O.XX  $.. .=&&-&O&-#..XX",
" =&;=:; $;$....XooXX..  ..X O$ . =&;=:; $;$....X",
"==;&&;=.-&.....XXXX... .... $ .$==;&&;=.-&.....X",
"==-=>>X*-...XXXooXX.X.O.#.$$,#<===-=>>X*-...XXXo",
"$&==>.@&%XXXoooooo.XX..#.<$< <,,$&==>.@&%XXXoooo",
"O=#=$XXXXXXXoooooXXo..X.X#O##<=.O=#=$XXXXXXXoooo",
" #..XXoXX@XoooXXoooo.XXXX.X.#$$X #..XXoXX@XoooXX",
".X.X.XXXX@Xooo@ooooX.oXoXX.X.$...X.X.XXXX@Xooo@o",
"XXX@*X+@@@ooo@@oo1ooX12222XX%$..XXX@*X+@@@ooo@@o",
"X.@3%@*X@XooX41o54oX1222222.*...X.@3%@*X@XooX41o",
"X.63X6+X@ooo5@X57oo11228822 *X$.X.63X6+X@ooo5@X5",
".@*@5*X@@oX55X@*Xo1o22988922.+>@.@*@5*X@@oX55X@*",
"X1X14@X@1oX5@X*.o45o22888822X>&XX1X14@X@1oX5@X*.",
"XXo1XX.@@.X@X%+X@7@2208888022: .XXo1XX.@@.X@X%+X",
"XXXXXX@6&X@@%2222222288888822222222XXX@6&X@@%%++",
".XXXXX%-Oo+%222222229888888922222222XX%-Oo+%%+%*",
"$.XoXO-$X%%%228888888888888888888822XO-$X%%%+O*=",
",#XXX3=X%*++229888888228822888888922X3=X%*++%$3%",
"<X O++X *@@% 22888888228822888888222++X *@@% &%X",
".=q**XX*@@+@%2228888822882288888222**XX*@@+@%@+*",
"&q$*XX*.X@XX.+22288882288228888222$*XX*.X@XX.+*$",
"q.*: %%XXXX.+% 222888228822888222.*: %%XXXX.+% %",
"# q&*%%+XX.+@+%*2298800880088922# q&*%%+XX.+@+%*",
" ;&$% *XXX.X@%%22288888888888822 ;&$% *XXX.X@%% ",
"=& *O*.XXXXX%%%220888888888888022& *O*.XXXXX%%%*",
"$=&%%*XXXX.O+%%229888888888888922=&%%*XXXX.O+%%%",
"$&=.O..XX.O.X@22288888899888888222=.O..XX.O.X@%+",
"&=.X..XXX..X@@22088888222288888022.X..XXX..X@@.%",
" .XXXXoXXO.+@X22888802222220888822XXXXoXXO.+@XX@",
"XX.XXXXX.$%.XX228892222.X222298822.XXXXX.$%.XXXX",
"o..XXOX&**.XXX2222222.#X.OX2222222.XXOX&**.XXX@X",
"X.X.$$&&&.= ..X2222XX... ..X%2222.X.$$&&&.= ..XX",
". .=&&-&O&-#..XXXXXX... O.XX  $.. .=&&-&O&-#..XX",
" =&;=:; $;$....XooXX..  ..X O$ . =&;=:; $;$....X",
"==;&&;=.-&.....XXXX... .... $ .$==;&&;=.-&.....X",
"==-=>>X*-...XXXooXX.X.O.#.$$,#<===-=>>X*-...XXXo",
"$&==>.@&%XXXoooooo.XX..#.<$< <,,$&==>.@&%XXXoooo",
"O=#=$XXXXXXXoooooXXo..X.X#O##<=.O=#=$XXXXXXXoooo",
" #..XXoXX@XoooXXoooo.XXXX.X.#$$X #..XXoXX@XoooXX",
".X.X.XXXX@Xooo@ooooX.oXoXX.X.$...X.X.XXXX@Xooo@o",
"XXX@*X+@@@ooo@@oo1ooX1ooXoXX%$..XXX@*X+@@@ooo@@o",
"X.@3%@*X@XooX41o54oX11o1X11.*...X.@3%@*X@XooX41o",
"X.63X6+X@ooo5@X57oo11ooXX1X *X$.X.63X6+X@ooo5@X5",
".@*@5*X@@oX55X@*Xo1ooowXo1.*.+>@.@*@5*X@@oX55X@*"
};
