/* XPM */
static char *result[] = {
/* columns rows colors chars-per-pixel */
"48 48 25 1 ",
"  c #08C608",
". c #00C600",
"X c #005100",
"o c #006900",
"O c #087200",
"+ c #18CE10",
"@ c #39D629",
"# c #31D621",
"$ c #008A00",
"% c #009B00",
"& c #009300",
"* c #08A300",
"= c #10A308",
"- c #109308",
"; c #00BD00",
": c #004000",
"> c #29AB18",
", c #001F00",
"< c #081F00",
"1 c #089308",
"2 c #089B00",
"3 c #109B08",
"4 c #088A08",
"5 c #21AB10",
"6 c #088200",
/* pixels */
" ..XXoOoooooooooOoOoooooooooooooOOOOooOoooXXX+@#",
"..XO$%%&&&&%%$&*%*%%*%%%%%&&$&&%=*==%%%&&&&&oX#+",
".X-&&&&&$&%%&%%%%&%%%%%%%%&$&&&&%==&&&&&$&%%&$X;",
"Xo%$&&&$$&%%%%&$&$&$&%&%%&&&&&&$&*%$&&&$$&%%%&XX",
":o$&&$&$$%=*&$&$&$$$&$&*%&&&&&$$&$$&&$&$$%=*&$o:",
":O&&&&%&===%&&&&$$$$$$&%&%%&&&&$&$&&&&%&===%&&O:",
":$%&&**===%=*%&&$$$$$$%&%*%%$*&*%&%&&**===%=*%$:",
":%*%===>=%=>*%%&&$$$$&%&**%&&***%%*%===>=%=>*%&:",
"X*==>=>>**>*%%%&$$$&&%&**%%&****%*==>=>>**>*%%%:",
":==>==>=%>=%%&&&&$&&&&%*%%&%***%*==>==>=%>=%%&&:",
":==>=>>&=>%&&&&$$$$&&&%*%%%*****===>=>>&=>%&&&&:",
":*===>%&=%$&$$$$$$$&&&%%%&*****==*===>%&=%$&$$$:",
":%=*=*&$$$$&$$$$$$$&$%%&&&%%***=%%=*=*&$$$$&$$$,",
",**%%&$$$$&&$$$$$$$$$%&&&&&&%***&**%%&$$$$&&$$$,",
",%&&&%&$&&%&$$$&$$$$$&$&$&$&&&*%&%&&&%&$&&%&$$$,",
",&&&&=$%%&&$$$&&$$$$$$$$$&$&&**&%&&&&=$%%&&$$$&,",
"<1==22=&&&&&2%32=&=2%&%%%%&%&&&%====22=&&&&&2%4<",
"<4==%2%&&&&2%&&2%2%%22%%%%&&&&&%5===%2%&&&&2%&6<",
":$%&&**===%=*%&&$$$$$$%&%*%%$*&*%&%&&**===%=*%$:",
":%*%===>=%=>*%%&&$$$$&%&**%&&***%%*%===>=%=>*%&:",
"X*==>=>>**>*%%%&$$$&&%&**%%&****%*==>=>>**>*%%%:",
":==>==>=%>=%%&&&&$&&&&%*%%&%***%*==>==>=%>=%%&&:",
":==>=>>&=>%&&&&$$$$&&&%*%%%*****===>=>>&=>%&&&&:",
":*===>%&=%$&$$$$$$$&&&%%%&*****==*===>%&=%$&$$$:",
":%=*=*&$$$$&$$$$$$$&$%%&&&%%***=%%=*=*&$$$$&$$$,",
",**%%&$$$$&&$$$$$$$$$%&&&&&&%***&**%%&$$$$&&$$$,",
",%&&&%&$&&%&$$$&$$$$$&$&$&$&&&*%&%&&&%&$&&%&$$$,",
",&&&&=$%%&&$$$&&$$$$$$$$$&$&&**&%&&&&=$%%&&$$$&,",
"<1==22=&&&&&2%32=&=2%&%%%%&%&&&%====22=&&&&&2%4<",
"<4==%2%&&&&2%&&2%2%%22%%%%&&&&&%5===%2%&&&&2%&6<",
":$%&&**===%=*%&&$$$$$$%&%*%%$*&*%&%&&**===%=*%$:",
":%*%===>=%=>*%%&&$$$$&%&**%&&***%%*%===>=%=>*%&:",
"X*==>=>>**>*%%%&$$$&&%&**%%&****%*==>=>>**>*%%%:",
":==>==>=%>=%%&&&&$&&&&%*%%&%***%*==>==>=%>=%%&&:",
":==>=>>&=>%&&&&$$$$&&&%*%%%*****===>=>>&=>%&&&&:",
":*===>%&=%$&$$$$$$$&&&%%%&*****==*===>%&=%$&$$$:",
":%=*=*&$$$$&$$$$$$$&$%%&&&%%***=%%=*=*&$$$$&$$$,",
",**%%&$$$$&&$$$$$$$$$%&&&&&&%***&**%%&$$$$&&$$$,",
",%&&&%&$&&%&$$$&$$$$$&$&$&$&&&*%&%&&&%&$&&%&$$$,",
",&&&&=$%%&&$$$&&$$$$$$$$$&$&&**&%&&&&=$%%&&$$$&,",
"<1==22=&&&&&2%32=&=2%&%%%%&%&&&%====22=&&&&&2%4<",
"<4==%2%&&&&2%&&2%2%%22%%%%&&&&&%5===%2%&&&&2%&6<",
":$%&&**===%=*%&&$$$$$$%&%*%%$*&*%&%&&**===%=*%$:",
":%*%===>=%=>*%%&&$$$$&%&**%&&***%%*%===>=%=>*%&:",
"X*==>=>>**>*%%%&$$$&&%&**%%&****%*==>=>>**>*%%%:",
":==>==>=%>=%%&&&&$&&&&%*%%&%***%*==>==>=%>=%%&&:",
":==>=>>&=>%&&&&$$$$&&&%*%%%*****===>=>>&=>%&&&&:",
":*===>%&=%$&$$$$$$$&&&%%%&*****==*===>%&=%$&$$$:"
};
