/* XPM */
static char *result[] = {
/* columns rows colors chars-per-pixel */
"48 48 112 2 ",
"   c #08C608",
".  c #00C600",
"X  c #004900",
"o  c #006100",
"O  c #086A00",
"+  c #18CE10",
"@  c #39D629",
"#  c #31D621",
"$  c #008200",
"%  c #009300",
"&  c #008B00",
"*  c #089B00",
"=  c #109B08",
"-  c #108B08",
";  c #003800",
":  c #29A318",
">  c #001700",
",  c #081700",
"<  c #088B08",
"1  c #089300",
"2  c #109308",
"3  c #088208",
"4  c #21A310",
"5  c #087A00",
"6  c #108208",
"7  c #007200",
"8  c #006A00",
"9  c #005100",
"0  c #005900",
"q  c #007A00",
"w  c #088B00",
"e  c #189310",
"r  c #004000",
"t  c #085900",
"y  c #086100",
"u  c #106A08",
"i  c #082800",
"p  c #185108",
"a  c #084900",
"s  c #292800",
"d  c #527221",
"f  c #316A10",
"g  c #295108",
"h  c #186A10",
"j  c #7BA531",
"k  c #A57321",
"l  c #E7A55A",
"z  c #F7C673",
"x  c #F7BD6B",
"c  c #DEB56B",
"v  c #BDC652",
"b  c #D6C65A",
"n  c #F7C663",
"m  c #FFC673",
"M  c #FFC67B",
"N  c #FFBD73",
"B  c #105908",
"V  c #6B7A31",
"C  c #C6C65A",
"Z  c #CEB55A",
"A  c #DECE63",
"S  c #EFAD63",
"D  c #946B18",
"F  c #D6944A",
"G  c #FFBD6B",
"H  c #94B542",
"J  c #BDA552",
"K  c #A5BD52",
"L  c #DEA55A",
"P  c #8C5A18",
"I  c #AD8429",
"U  c #EFA55A",
"Y  c #F7B563",
"T  c #FFB56B",
"R  c #D69C52",
"E  c #8C6318",
"W  c #C68C42",
"Q  c #CE8C4A",
"!  c #845208",
"~  c #FFCE7B",
"^  c #FFD684",
"/  c #FFDE84",
"(  c #AD7339",
")  c #FFCE84",
"_  c #FFDE8C",
"`  c #946318",
"'  c #9C6B18",
"]  c #C6AD5A",
"[  c #845A10",
"{  c #EFCE73",
"}  c #847321",
"|  c #E7CE6B",
" . c #F7D67B",
".. c #ADC652",
"X. c #F7CE6B",
"o. c #427B18",
"O. c #A5CE42",
"+. c #BD9C42",
"@. c #7BB539",
"#. c #31A510",
"$. c #52AD21",
"%. c #7BC639",
"&. c #94C642",
"*. c #6BB531",
"=. c #6B7310",
"-. c #217308",
";. c #189C10",
":. c #18A510",
">. c #107300",
",. c #089C00",
"<. c #10A508",
"1. c #087B00",
/* pixels */
"  . . X X o O o o o o o o o o o O o O o o o o o o o o o o o o o O O O O o o O o o o X X X + @ # ",
". . X O $ % % & & & & % % $ & * % * % % * % % % % % & & $ & & % = * = = % % % & & & & & o X # + ",
". X - & & & & & $ & % % & % % % % & % % % % % % % % & $ & & & & % = = & & & & & $ & % % & $ X $ ",
"X o % $ & & & $ $ & % % % % & $ & $ & $ & % & % % & & & & & & $ & * % $ & & & $ $ & % % % & X X ",
"; o $ & & $ & $ $ % = * & $ & $ & $ $ $ & $ & * % & & & & & $ $ & $ $ & & $ & $ $ % = * & $ o ; ",
"; O & & & & % & = = = % & & & & $ $ $ $ $ $ & % & % % & & & & $ & $ & & & & % & = = = % & & O ; ",
"; $ % & & * * = = = % = * % & & $ $ $ $ $ $ % & % * % % $ * & * % & % & & * * = = = % = * % $ ; ",
"; % * % = = = : = % = : * % % & & $ $ $ $ & % & * * % & & * * * % % * % = = = : = % = : * % & ; ",
"X * = = : = : : * * : * % % % & $ $ $ & & % & * * % % & * * * * % * = = : = : : * * : * % % % ; ",
"; = = : = = : = % : = % % & & & & $ & & & & % * % % & % * * * % * = = : = = : = % : = % % & & ; ",
"; = = : = : : & = : % & & & & $ $ $ $ & & & % * % % % * * * * * = = = : = : : & = : % & & & & ; ",
"; * = = = : % & = % $ & $ $ $ $ $ $ $ & & & % % % & * * * * * = = * = = = : % & = % $ & $ $ $ ; ",
"; % = * = * & $ $ $ $ & $ $ $ $ $ $ $ & $ % % & & & % % * * * = % % = * = * & $ $ $ $ & $ $ $ > ",
"> * * % % & $ $ $ $ & & $ $ $ $ $ $ $ $ $ % & & & & & & % * * * & * * % % & $ $ $ $ & & $ $ $ > ",
"> % & & & % & $ & & % & $ $ $ & $ $ $ $ $ & $ & $ & $ & & & * % & % & & & % & $ & & % & $ $ $ > ",
"> & & & & = $ % % & & $ $ $ & & $ $ $ $ $ $ $ $ $ & $ & & * * & % & & & & = $ % % & & $ $ $ & > ",
", < = = 1 1 = & & & & & 1 % 2 1 = & = 1 % & % % % % & % & & & % = = = = 1 1 = & & & & & 1 % 3 , ",
", 3 = = % 1 % & & & & 1 % & & 1 % 1 % % 1 1 % % % % & & & & & % 4 = = = % 1 % & & & & 1 % & 5 , ",
", 6 = & & & & & & & % % & % % % 1 & % 1 % % % % % % & & & & & & 1 = = & & & & & & & % % & % 7 , ",
", 8 % & & & & $ & & % % % % & & & & & & & % & % 1 & & & & & & & & 1 % & & & & $ & & % % % % o , ",
", 9 $ & & & & $ & % = 1 & $ & & & $ $ $ & & & 1 % & & & & & & $ & & & & & & & $ & % = 1 & $ 9 , ",
", X 7 & & & 1 & = = = % & & & & $ $ $ & & $ & % & % 1 & & & & $ & $ & & & & 1 & = = = % & 7 X , ",
", X X 0 q & w e 4 = % = 1 % & & $ $ $ & $ & % & % 1 % % & 1 & 1 % & 1 & & = = 4 e 2 q 3 8 X X , ",
", r 9 0 t y y y 8 8 8 u 8 o o o o o o o o o o o 8 8 o o o 8 8 8 o o 8 8 8 8 8 u t 0 y y 0 9 r , ",
"i p p p p a a a a a p p a a a p p p p p a a a a a a p p a a p p p p p p p a a a a a p p a a a i ",
"s d d f g g p p a p p g h f f d d d d f g g p a a a p g f d j j j d d f g g p p a p p g h f f s ",
"k l z x c j f p g j v b b n m M M m m N z v j g B g V C z m M M m N z x c j f p g j Z b A z S D ",
"D F G N N N Z d H m m m m m m m m m m m m m m J d K z m m m N N N G N N N N Z d H m m m m m L D ",
"P I U S S S F F S G G G N m m M M M m N m m S F Y T T Y T T Y Y Y Y Y S S S F F Y T T Y T T R P ",
"E W U U R U F F L S N M N T Y G T Y S S S Q W S Y S U U U S T F F U S U L U F F Y S U U U S F ! ",
"D L ~ ~ ~ ^ ^ / m ^ / / / ~ m S U Q L m M ~ ~ ~ M ~ M ~ ~ G S F L ^ ~ ~ ~ ^ ^ / M ~ M ~ ~ G W ! ",
"( c ~ ) ) ^ / / / _ _ _ _ _ ^ Y U R x m m m m m m N N N m M G F G ^ ~ ) ) ^ / / m N N N m M S ` ",
"( x ) ) ~ ~ ^ _ / _ _ / / / ^ G S S N M M M m m m N N N N m m U M ^ ) ) ~ ~ ^ _ m N N N N m x E ",
"( x ) ~ ~ ~ ~ / / _ / ^ ^ ^ ^ M S S G m M M m M M M m m N N m S ) ^ ) ~ ~ ~ ~ / M M m m N N x D ",
"( x ) ) ) ~ ~ ^ / _ / ^ ~ ) ~ M U S G m m M m M M M M m G N N S ~ ^ ) ) ) ~ ~ ^ M M M m G N Y ' ",
"( c ) ~ M M ~ ~ / _ / ^ ~ M M m U T m m m M M M M M M M N N N R ~ ^ ) ~ M M ~ ~ M M M M N N S k ",
"( c ~ ~ ~ ~ ~ ~ / / ^ ~ ~ m m m U G M M m m M M M M M M M M N Q ^ ^ ~ ~ ~ ~ ~ ~ M M M M M m S ' ",
"D ] ^ ~ ~ ~ ~ ^ ^ / ^ ~ ~ M m m S T G m M M m m m N N N N m G Q ~ _ ^ ~ ~ ~ ~ ^ m N N N N m S ` ",
"P Q ^ ^ ~ ^ ^ ^ ^ ^ ^ ~ ~ ~ ~ m L U T G N N N N N x x T x z S F x / ^ ^ ~ ^ ^ ^ N x x T x z F P ",
"[ ( x z z z z n n z z z z z Y F W Q R S Y S S S S S Y Y Y S l Q Q S x z z z z n S S Y Y Y S W ! ",
"P I S l l l l l l L R L L R W F F L R R W W W W W F L R R l l l S S S l l l l l W F L R R L I ! ",
"D R / / ^ ^ L L L l S S S L R S S Y x x Y S L F L Y z N M m m ~ ^ ^ / / ^ ^ L L L Y z N M m F E ",
"D c / ^ ^ / m R S N m x S G M M M m N x x z Y L S x ~ ~ ~ ~ ~ ~ { ^ / ^ ^ / m R l x ~ ~ ~ ~ S D ",
"} C ^ ^ | / _ R S m x T m ~ |  .~ ~ ~ | A A | S S ~ ~ ~ ~ ~ ~ ~ ..A ^ ^ | / _ R l ~ ~ ~ ~ X.c D ",
"o.H {  .O. ._ +.Z x x ~  .A .. .| { { v ..H C Z A b  .^ ^  .{ ~ @.K {  .O. ._ +.b ~ ^ ^  .A H ' ",
"o.#.K K $.%.&.j j c M A | &.*.K @.K K @.*.$.H H ..K b ^ { C H | $.$.K K $.%.&.j H { ^ | | H $.=.",
"-.;.$.$.:.:.#.:.#.&.K *.K *.#.#.:.#.#.#.#.#.$.$.@.*.*.K @.@.$.K #.:.$.$.:.:.#.:.#.H K *.K *.#.>.",
">.,.:.:.<.<.:.<.:.$.#.:.:.:.:.<.:.<.<.<.<.<.<.<.<.<.:.#.:.:.<.:.:.<.:.:.<.<.:.<.:.$.#.<.:.:.;.1."
};
