/* XPM */
static char *result[] = {
/* columns rows colors chars-per-pixel */
"60 60 65 1 ",
"  c #1D1E31",
". c #2A2C42",
"X c #2A2C43",
"o c #2B2D44",
"O c #131426",
"+ c #141527",
"@ c #1E1F33",
"# c #292A41",
"$ c #16182A",
"% c #23253A",
"& c #292B42",
"* c #151629",
"= c #1E2034",
"- c #27293F",
"; c #18192C",
": c #232439",
"> c #282A40",
", c #161729",
"< c #1C1D30",
"1 c #17182A",
"2 c #1E1F34",
"3 c #26283E",
"4 c #191B2E",
"5 c #25273D",
"6 c #24263B",
"7 c #24253A",
"8 c #24253B",
"9 c #25273C",
"0 c #222338",
"q c #1B1C30",
"w c #27283E",
"e c #292B41",
"r c #1E1F32",
"t c #27293E",
"y c #222438",
"u c #151628",
"i c #282940",
"p c #26273C",
"a c #25273A",
"s c #25263A",
"d c #202134",
"f c #1B1C2F",
"g c #33354B",
"h c #3E4055",
"j c #27293C",
"k c #232538",
"l c #303248",
"z c #36384E",
"x c #25263B",
"c c #1F2135",
"v c #222439",
"b c #1A1B2E",
"n c #1A1B2D",
"m c #1F2033",
"M c #1E2033",
"N c #1B1C2E",
"B c #212236",
"V c #212337",
"C c #1F2034",
"Z c #26283D",
"A c #2B2D43",
"S c #191A2C",
"D c #141528",
"F c #17182B",
"G c #1F2134",
/* pixels */
" .Xooooooooooooooooooooooooooooooooooooooooooooooooooooooooo",
"O+@#Xooooooooooooooooooooooooooooooooooooooooooooooooooooooo",
"OOO$%&oooooooooooooooooooooooooooooooooooooooooooooooooooooo",
"OOOO*=-Xoooooooooooooooooooooooooooooooooooooooooooooooooooo",
"OOOOOO;:>Xoooooooooooooooooooooooooooooooooooooooooooooooooo",
"OOOOOOO,<:&ooooooooooooooooooooooooooooooooooooooooooooooooo",
"OOOOOOOOO123Xooooooooooooooooooooooooooooooooooooooooooooooo",
"OOOOOOOOOOO4567777788778888787777788777888777779oooooooooooo",
"OOOOOOOOOOOO60                                <qoooooooooooo",
"OOOOOOOOOOOOwer                               <;oooooooooooo",
"OOOOOOOOOOOOwot                               ,;oooooooooooo",
"OOOOOOOOOOOOwooy                             *O;oooooooooooo",
"OOOOOOOOOOOOwoo&y                            OO;oooooooooooo",
"OOOOOOOOOOOOwooo&y                          uOO;oooooooooooo",
"OOOOOOOOOOOOwoooo&y                        uOOO;oooooooooooo",
"OOOOOOOOOOOOwoooooir                      <+OOO;oooooooooooo",
"OOOOOOOOOOOOwooooootr                    <uOOOO;oooooooooooo",
"OOOOOOOOOOOOwoooooo&:r                   ,OOOOO;oooooooooooo",
"OOOOOOOOOOOOwoooooooepaaaaaaaaaasaassasdfuOOOOO;oooooooooooo",
"OOOOOOOOOOOOwooooooooghhhhhhhhhhhhhhhhhjuOOOOOO;oooooooooooo",
"OOOOOOOOOOOOwooooooooghhhhhhhhhhhhhhhhhkOOOOOOO;oooooooooooo",
"OOOOOOOOOOOOwooooooooghhhhhhhhhhhhhhhhhkOOOOOOO;oooooooooooo",
"OOOOOOOOOOOOwooooooooghhhhhhhhhhhhhhhhhkOOOOOOO;oooooooooooo",
"OOOOOOOOOOOOwooooooooghhhhhhhhhhhhhhhhhkOOOOOOO;oooooooooooo",
"OOOOOOOOOOOOwooooooooghhhhhhhhhhhhhhhhhkOOOOOOO;oooooooooooo",
"OOOOOOOOOOOOwooooooooghhhhhhhhhhhhhhhhhkOOOOOOO;oooooooooooo",
"OOOOOOOOOOOOwooooooooghhhhhhhhhhhhhhhhhkOOOOOOO;oooooooooooo",
"OOOOOOOOOOOOwooooooooghhhhhhhhhhhhhhhhhkOOOOOOO;oooooooooooo",
"OOOOOOOOOOOOwooooooooghhhhhhhhhhhhhhhhhkOOOOOOO;oooooooooooo",
"OOOOOOOOOOOOwooooooooghhhhhhhhhhhhhhhhhkOOOOOOO;oooooooooooo",
"OOOOOOOOOOOOwooooooooghhhhhhhhhhhhhhhhhkOOOOOOO;oooooooooooo",
"OOOOOOOOOOOOwooooooooghhhhhhhhhhhhhhhhhkOOOOOOO;oooooooooooo",
"OOOOOOOOOOOOwooooooooghhhhhhhhhhhhhhhhhkOOOOOOO;oooooooooooo",
"OOOOOOOOOOOOwooooooooghhhhhhhhhhhhhhhhhkOOOOOOO;oooooooooooo",
"OOOOOOOOOOOOwooooooooghhhhhhhhhhhhhhhhhkOOOOOOO;oooooooooooo",
"OOOOOOOOOOOOwooooooooghhhhhhhhhhhhhhhhhkOOOOOOO;oooooooooooo",
"OOOOOOOOOOOOwoooooooolzzzzzzzzzzzzzzzzzx*OOOOOO;oooooooooooo",
"OOOOOOOOOOOOwooooooooooooooooooooooooooec*OOOOO;oooooooooooo",
"OOOOOOOOOOOOwoooooooooooooooooooooooooooevb+OOO;oooooooooooo",
"OOOOOOOOOOOOwooooooooooooooooooooooooooooowfOOO;oooooooooooo",
"OOOOOOOOOOOOwoooooooooooooooooooooooooooooo-cOO;oooooooooooo",
"OOOOOOOOOOOOwooooooooooooooooooooooooooooooo&cn;oooooooooooo",
"OOOOOOOOOOOOwoooooooooooooooooooooooooooooooo.w@oooooooooooo",
"OOOOOOOOOOOn@mmmmmmmmmmmmmmmmmmmmmmmmmmmmmmmmmmM3ooooooooooo",
"OOOOOOOOOOON                                    Booooooooooo",
"OOOOOOOOOOb                                      Voooooooooo",
"OOOOOOOO+n                                       CZAoooooooo",
"OOOOOOOOS                                         C3oooooooo",
"OOOOOOO+n                                          yXooooooo",
"OOOOOODn                                           C5Xoooooo",
"OOOOOOF                                             Gtoooooo",
"OOOOOub                                              Veooooo",
"OOOOub                                                7Xoooo",
"OOODb                                                 C9Xooo",
"OOO,                                                   C>ooo",
"OO+N                                                    6Xoo",
"O+f                                                     M6Xo",
"O+                                                       @&o",
"+<                                                        mX",
"<                                                          6"
};
